G04 #@! TF.GenerationSoftware,KiCad,Pcbnew,5.1.10*
G04 #@! TF.CreationDate,2021-06-18T17:33:08+09:00*
G04 #@! TF.ProjectId,bakeneko40,62616b65-6e65-46b6-9f34-302e6b696361,rev?*
G04 #@! TF.SameCoordinates,Original*
G04 #@! TF.FileFunction,Copper,L2,Bot*
G04 #@! TF.FilePolarity,Positive*
%FSLAX46Y46*%
G04 Gerber Fmt 4.6, Leading zero omitted, Abs format (unit mm)*
G04 Created by KiCad (PCBNEW 5.1.10) date 2021-06-18 17:33:08*
%MOMM*%
%LPD*%
G01*
G04 APERTURE LIST*
G04 #@! TA.AperFunction,ComponentPad*
%ADD10C,2.250000*%
G04 #@! TD*
G04 #@! TA.AperFunction,SMDPad,CuDef*
%ADD11R,0.650000X1.060000*%
G04 #@! TD*
G04 #@! TA.AperFunction,SMDPad,CuDef*
%ADD12R,3.100000X3.100000*%
G04 #@! TD*
G04 #@! TA.AperFunction,SMDPad,CuDef*
%ADD13R,1.550000X0.600000*%
G04 #@! TD*
G04 #@! TA.AperFunction,SMDPad,CuDef*
%ADD14R,1.800000X1.200000*%
G04 #@! TD*
G04 #@! TA.AperFunction,SMDPad,CuDef*
%ADD15R,1.200000X1.400000*%
G04 #@! TD*
G04 #@! TA.AperFunction,SMDPad,CuDef*
%ADD16R,1.800000X1.100000*%
G04 #@! TD*
G04 #@! TA.AperFunction,ComponentPad*
%ADD17R,1.700000X1.700000*%
G04 #@! TD*
G04 #@! TA.AperFunction,ComponentPad*
%ADD18C,1.700000*%
G04 #@! TD*
G04 #@! TA.AperFunction,SMDPad,CuDef*
%ADD19R,1.200000X0.900000*%
G04 #@! TD*
G04 #@! TA.AperFunction,ViaPad*
%ADD20C,0.800000*%
G04 #@! TD*
G04 #@! TA.AperFunction,Conductor*
%ADD21C,0.299720*%
G04 #@! TD*
G04 #@! TA.AperFunction,Conductor*
%ADD22C,0.254000*%
G04 #@! TD*
G04 #@! TA.AperFunction,Conductor*
%ADD23C,0.025400*%
G04 #@! TD*
G04 #@! TA.AperFunction,Conductor*
%ADD24C,0.100000*%
G04 #@! TD*
G04 APERTURE END LIST*
G04 #@! TO.P,C5,1*
G04 #@! TO.N,+5V*
G04 #@! TA.AperFunction,SMDPad,CuDef*
G36*
G01*
X43550000Y-71475000D02*
X43550000Y-70525000D01*
G75*
G02*
X43800000Y-70275000I250000J0D01*
G01*
X44300000Y-70275000D01*
G75*
G02*
X44550000Y-70525000I0J-250000D01*
G01*
X44550000Y-71475000D01*
G75*
G02*
X44300000Y-71725000I-250000J0D01*
G01*
X43800000Y-71725000D01*
G75*
G02*
X43550000Y-71475000I0J250000D01*
G01*
G37*
G04 #@! TD.AperFunction*
G04 #@! TO.P,C5,2*
G04 #@! TO.N,GND*
G04 #@! TA.AperFunction,SMDPad,CuDef*
G36*
G01*
X45450000Y-71475000D02*
X45450000Y-70525000D01*
G75*
G02*
X45700000Y-70275000I250000J0D01*
G01*
X46200000Y-70275000D01*
G75*
G02*
X46450000Y-70525000I0J-250000D01*
G01*
X46450000Y-71475000D01*
G75*
G02*
X46200000Y-71725000I-250000J0D01*
G01*
X45700000Y-71725000D01*
G75*
G02*
X45450000Y-71475000I0J250000D01*
G01*
G37*
G04 #@! TD.AperFunction*
G04 #@! TD*
D10*
G04 #@! TO.P,MX29,2*
G04 #@! TO.N,Net-(D29-Pad2)*
X61277500Y-90170000D03*
G04 #@! TO.P,MX29,1*
G04 #@! TO.N,COL1*
X54927500Y-92710000D03*
G04 #@! TD*
G04 #@! TO.P,MX3,2*
G04 #@! TO.N,Net-(D3-Pad2)*
X66040000Y-52070000D03*
G04 #@! TO.P,MX3,1*
G04 #@! TO.N,COL2*
X59690000Y-54610000D03*
G04 #@! TD*
D11*
G04 #@! TO.P,U2,5*
G04 #@! TO.N,VBUS*
X58774999Y-67109811D03*
G04 #@! TO.P,U2,6*
G04 #@! TO.N,D-*
X57824999Y-67109811D03*
G04 #@! TO.P,U2,4*
G04 #@! TO.N,Net-(U2-Pad4)*
X59724999Y-67109811D03*
G04 #@! TO.P,U2,3*
G04 #@! TO.N,Net-(U2-Pad3)*
X59724999Y-64909811D03*
G04 #@! TO.P,U2,2*
G04 #@! TO.N,GND*
X58774999Y-64909811D03*
G04 #@! TO.P,U2,1*
G04 #@! TO.N,D+*
X57824999Y-64909811D03*
G04 #@! TD*
G04 #@! TO.P,U1,1*
G04 #@! TO.N,Net-(C6-Pad1)*
G04 #@! TA.AperFunction,SMDPad,CuDef*
G36*
G01*
X45095000Y-84912500D02*
X45095000Y-85037500D01*
G75*
G02*
X45032500Y-85100000I-62500J0D01*
G01*
X44282500Y-85100000D01*
G75*
G02*
X44220000Y-85037500I0J62500D01*
G01*
X44220000Y-84912500D01*
G75*
G02*
X44282500Y-84850000I62500J0D01*
G01*
X45032500Y-84850000D01*
G75*
G02*
X45095000Y-84912500I0J-62500D01*
G01*
G37*
G04 #@! TD.AperFunction*
G04 #@! TO.P,U1,2*
G04 #@! TO.N,Net-(C7-Pad1)*
G04 #@! TA.AperFunction,SMDPad,CuDef*
G36*
G01*
X45095000Y-85412500D02*
X45095000Y-85537500D01*
G75*
G02*
X45032500Y-85600000I-62500J0D01*
G01*
X44282500Y-85600000D01*
G75*
G02*
X44220000Y-85537500I0J62500D01*
G01*
X44220000Y-85412500D01*
G75*
G02*
X44282500Y-85350000I62500J0D01*
G01*
X45032500Y-85350000D01*
G75*
G02*
X45095000Y-85412500I0J-62500D01*
G01*
G37*
G04 #@! TD.AperFunction*
G04 #@! TO.P,U1,3*
G04 #@! TO.N,GND*
G04 #@! TA.AperFunction,SMDPad,CuDef*
G36*
G01*
X45095000Y-85912500D02*
X45095000Y-86037500D01*
G75*
G02*
X45032500Y-86100000I-62500J0D01*
G01*
X44282500Y-86100000D01*
G75*
G02*
X44220000Y-86037500I0J62500D01*
G01*
X44220000Y-85912500D01*
G75*
G02*
X44282500Y-85850000I62500J0D01*
G01*
X45032500Y-85850000D01*
G75*
G02*
X45095000Y-85912500I0J-62500D01*
G01*
G37*
G04 #@! TD.AperFunction*
G04 #@! TO.P,U1,4*
G04 #@! TO.N,+5V*
G04 #@! TA.AperFunction,SMDPad,CuDef*
G36*
G01*
X45095000Y-86412500D02*
X45095000Y-86537500D01*
G75*
G02*
X45032500Y-86600000I-62500J0D01*
G01*
X44282500Y-86600000D01*
G75*
G02*
X44220000Y-86537500I0J62500D01*
G01*
X44220000Y-86412500D01*
G75*
G02*
X44282500Y-86350000I62500J0D01*
G01*
X45032500Y-86350000D01*
G75*
G02*
X45095000Y-86412500I0J-62500D01*
G01*
G37*
G04 #@! TD.AperFunction*
G04 #@! TO.P,U1,5*
G04 #@! TO.N,COL2*
G04 #@! TA.AperFunction,SMDPad,CuDef*
G36*
G01*
X45095000Y-86912500D02*
X45095000Y-87037500D01*
G75*
G02*
X45032500Y-87100000I-62500J0D01*
G01*
X44282500Y-87100000D01*
G75*
G02*
X44220000Y-87037500I0J62500D01*
G01*
X44220000Y-86912500D01*
G75*
G02*
X44282500Y-86850000I62500J0D01*
G01*
X45032500Y-86850000D01*
G75*
G02*
X45095000Y-86912500I0J-62500D01*
G01*
G37*
G04 #@! TD.AperFunction*
G04 #@! TO.P,U1,6*
G04 #@! TO.N,ROW6*
G04 #@! TA.AperFunction,SMDPad,CuDef*
G36*
G01*
X45095000Y-87412500D02*
X45095000Y-87537500D01*
G75*
G02*
X45032500Y-87600000I-62500J0D01*
G01*
X44282500Y-87600000D01*
G75*
G02*
X44220000Y-87537500I0J62500D01*
G01*
X44220000Y-87412500D01*
G75*
G02*
X44282500Y-87350000I62500J0D01*
G01*
X45032500Y-87350000D01*
G75*
G02*
X45095000Y-87412500I0J-62500D01*
G01*
G37*
G04 #@! TD.AperFunction*
G04 #@! TO.P,U1,7*
G04 #@! TO.N,Net-(U1-Pad7)*
G04 #@! TA.AperFunction,SMDPad,CuDef*
G36*
G01*
X45095000Y-87912500D02*
X45095000Y-88037500D01*
G75*
G02*
X45032500Y-88100000I-62500J0D01*
G01*
X44282500Y-88100000D01*
G75*
G02*
X44220000Y-88037500I0J62500D01*
G01*
X44220000Y-87912500D01*
G75*
G02*
X44282500Y-87850000I62500J0D01*
G01*
X45032500Y-87850000D01*
G75*
G02*
X45095000Y-87912500I0J-62500D01*
G01*
G37*
G04 #@! TD.AperFunction*
G04 #@! TO.P,U1,8*
G04 #@! TO.N,Net-(U1-Pad8)*
G04 #@! TA.AperFunction,SMDPad,CuDef*
G36*
G01*
X45095000Y-88412500D02*
X45095000Y-88537500D01*
G75*
G02*
X45032500Y-88600000I-62500J0D01*
G01*
X44282500Y-88600000D01*
G75*
G02*
X44220000Y-88537500I0J62500D01*
G01*
X44220000Y-88412500D01*
G75*
G02*
X44282500Y-88350000I62500J0D01*
G01*
X45032500Y-88350000D01*
G75*
G02*
X45095000Y-88412500I0J-62500D01*
G01*
G37*
G04 #@! TD.AperFunction*
G04 #@! TO.P,U1,9*
G04 #@! TO.N,COL7*
G04 #@! TA.AperFunction,SMDPad,CuDef*
G36*
G01*
X44095000Y-88787500D02*
X44095000Y-89537500D01*
G75*
G02*
X44032500Y-89600000I-62500J0D01*
G01*
X43907500Y-89600000D01*
G75*
G02*
X43845000Y-89537500I0J62500D01*
G01*
X43845000Y-88787500D01*
G75*
G02*
X43907500Y-88725000I62500J0D01*
G01*
X44032500Y-88725000D01*
G75*
G02*
X44095000Y-88787500I0J-62500D01*
G01*
G37*
G04 #@! TD.AperFunction*
G04 #@! TO.P,U1,10*
G04 #@! TO.N,COL6*
G04 #@! TA.AperFunction,SMDPad,CuDef*
G36*
G01*
X43595000Y-88787500D02*
X43595000Y-89537500D01*
G75*
G02*
X43532500Y-89600000I-62500J0D01*
G01*
X43407500Y-89600000D01*
G75*
G02*
X43345000Y-89537500I0J62500D01*
G01*
X43345000Y-88787500D01*
G75*
G02*
X43407500Y-88725000I62500J0D01*
G01*
X43532500Y-88725000D01*
G75*
G02*
X43595000Y-88787500I0J-62500D01*
G01*
G37*
G04 #@! TD.AperFunction*
G04 #@! TO.P,U1,11*
G04 #@! TO.N,COL5*
G04 #@! TA.AperFunction,SMDPad,CuDef*
G36*
G01*
X43095000Y-88787500D02*
X43095000Y-89537500D01*
G75*
G02*
X43032500Y-89600000I-62500J0D01*
G01*
X42907500Y-89600000D01*
G75*
G02*
X42845000Y-89537500I0J62500D01*
G01*
X42845000Y-88787500D01*
G75*
G02*
X42907500Y-88725000I62500J0D01*
G01*
X43032500Y-88725000D01*
G75*
G02*
X43095000Y-88787500I0J-62500D01*
G01*
G37*
G04 #@! TD.AperFunction*
G04 #@! TO.P,U1,12*
G04 #@! TO.N,COL4*
G04 #@! TA.AperFunction,SMDPad,CuDef*
G36*
G01*
X42595000Y-88787500D02*
X42595000Y-89537500D01*
G75*
G02*
X42532500Y-89600000I-62500J0D01*
G01*
X42407500Y-89600000D01*
G75*
G02*
X42345000Y-89537500I0J62500D01*
G01*
X42345000Y-88787500D01*
G75*
G02*
X42407500Y-88725000I62500J0D01*
G01*
X42532500Y-88725000D01*
G75*
G02*
X42595000Y-88787500I0J-62500D01*
G01*
G37*
G04 #@! TD.AperFunction*
G04 #@! TO.P,U1,13*
G04 #@! TO.N,Net-(R1-Pad2)*
G04 #@! TA.AperFunction,SMDPad,CuDef*
G36*
G01*
X42095000Y-88787500D02*
X42095000Y-89537500D01*
G75*
G02*
X42032500Y-89600000I-62500J0D01*
G01*
X41907500Y-89600000D01*
G75*
G02*
X41845000Y-89537500I0J62500D01*
G01*
X41845000Y-88787500D01*
G75*
G02*
X41907500Y-88725000I62500J0D01*
G01*
X42032500Y-88725000D01*
G75*
G02*
X42095000Y-88787500I0J-62500D01*
G01*
G37*
G04 #@! TD.AperFunction*
G04 #@! TO.P,U1,14*
G04 #@! TO.N,COL3*
G04 #@! TA.AperFunction,SMDPad,CuDef*
G36*
G01*
X41595000Y-88787500D02*
X41595000Y-89537500D01*
G75*
G02*
X41532500Y-89600000I-62500J0D01*
G01*
X41407500Y-89600000D01*
G75*
G02*
X41345000Y-89537500I0J62500D01*
G01*
X41345000Y-88787500D01*
G75*
G02*
X41407500Y-88725000I62500J0D01*
G01*
X41532500Y-88725000D01*
G75*
G02*
X41595000Y-88787500I0J-62500D01*
G01*
G37*
G04 #@! TD.AperFunction*
G04 #@! TO.P,U1,15*
G04 #@! TO.N,COL1*
G04 #@! TA.AperFunction,SMDPad,CuDef*
G36*
G01*
X41095000Y-88787500D02*
X41095000Y-89537500D01*
G75*
G02*
X41032500Y-89600000I-62500J0D01*
G01*
X40907500Y-89600000D01*
G75*
G02*
X40845000Y-89537500I0J62500D01*
G01*
X40845000Y-88787500D01*
G75*
G02*
X40907500Y-88725000I62500J0D01*
G01*
X41032500Y-88725000D01*
G75*
G02*
X41095000Y-88787500I0J-62500D01*
G01*
G37*
G04 #@! TD.AperFunction*
G04 #@! TO.P,U1,16*
G04 #@! TO.N,ROW8*
G04 #@! TA.AperFunction,SMDPad,CuDef*
G36*
G01*
X40595000Y-88787500D02*
X40595000Y-89537500D01*
G75*
G02*
X40532500Y-89600000I-62500J0D01*
G01*
X40407500Y-89600000D01*
G75*
G02*
X40345000Y-89537500I0J62500D01*
G01*
X40345000Y-88787500D01*
G75*
G02*
X40407500Y-88725000I62500J0D01*
G01*
X40532500Y-88725000D01*
G75*
G02*
X40595000Y-88787500I0J-62500D01*
G01*
G37*
G04 #@! TD.AperFunction*
G04 #@! TO.P,U1,17*
G04 #@! TO.N,ROW7*
G04 #@! TA.AperFunction,SMDPad,CuDef*
G36*
G01*
X40220000Y-88412500D02*
X40220000Y-88537500D01*
G75*
G02*
X40157500Y-88600000I-62500J0D01*
G01*
X39407500Y-88600000D01*
G75*
G02*
X39345000Y-88537500I0J62500D01*
G01*
X39345000Y-88412500D01*
G75*
G02*
X39407500Y-88350000I62500J0D01*
G01*
X40157500Y-88350000D01*
G75*
G02*
X40220000Y-88412500I0J-62500D01*
G01*
G37*
G04 #@! TD.AperFunction*
G04 #@! TO.P,U1,18*
G04 #@! TO.N,ROW5*
G04 #@! TA.AperFunction,SMDPad,CuDef*
G36*
G01*
X40220000Y-87912500D02*
X40220000Y-88037500D01*
G75*
G02*
X40157500Y-88100000I-62500J0D01*
G01*
X39407500Y-88100000D01*
G75*
G02*
X39345000Y-88037500I0J62500D01*
G01*
X39345000Y-87912500D01*
G75*
G02*
X39407500Y-87850000I62500J0D01*
G01*
X40157500Y-87850000D01*
G75*
G02*
X40220000Y-87912500I0J-62500D01*
G01*
G37*
G04 #@! TD.AperFunction*
G04 #@! TO.P,U1,19*
G04 #@! TO.N,SCK*
G04 #@! TA.AperFunction,SMDPad,CuDef*
G36*
G01*
X40220000Y-87412500D02*
X40220000Y-87537500D01*
G75*
G02*
X40157500Y-87600000I-62500J0D01*
G01*
X39407500Y-87600000D01*
G75*
G02*
X39345000Y-87537500I0J62500D01*
G01*
X39345000Y-87412500D01*
G75*
G02*
X39407500Y-87350000I62500J0D01*
G01*
X40157500Y-87350000D01*
G75*
G02*
X40220000Y-87412500I0J-62500D01*
G01*
G37*
G04 #@! TD.AperFunction*
G04 #@! TO.P,U1,20*
G04 #@! TO.N,MOSI*
G04 #@! TA.AperFunction,SMDPad,CuDef*
G36*
G01*
X40220000Y-86912500D02*
X40220000Y-87037500D01*
G75*
G02*
X40157500Y-87100000I-62500J0D01*
G01*
X39407500Y-87100000D01*
G75*
G02*
X39345000Y-87037500I0J62500D01*
G01*
X39345000Y-86912500D01*
G75*
G02*
X39407500Y-86850000I62500J0D01*
G01*
X40157500Y-86850000D01*
G75*
G02*
X40220000Y-86912500I0J-62500D01*
G01*
G37*
G04 #@! TD.AperFunction*
G04 #@! TO.P,U1,21*
G04 #@! TO.N,MISO*
G04 #@! TA.AperFunction,SMDPad,CuDef*
G36*
G01*
X40220000Y-86412500D02*
X40220000Y-86537500D01*
G75*
G02*
X40157500Y-86600000I-62500J0D01*
G01*
X39407500Y-86600000D01*
G75*
G02*
X39345000Y-86537500I0J62500D01*
G01*
X39345000Y-86412500D01*
G75*
G02*
X39407500Y-86350000I62500J0D01*
G01*
X40157500Y-86350000D01*
G75*
G02*
X40220000Y-86412500I0J-62500D01*
G01*
G37*
G04 #@! TD.AperFunction*
G04 #@! TO.P,U1,22*
G04 #@! TO.N,ROW2*
G04 #@! TA.AperFunction,SMDPad,CuDef*
G36*
G01*
X40220000Y-85912500D02*
X40220000Y-86037500D01*
G75*
G02*
X40157500Y-86100000I-62500J0D01*
G01*
X39407500Y-86100000D01*
G75*
G02*
X39345000Y-86037500I0J62500D01*
G01*
X39345000Y-85912500D01*
G75*
G02*
X39407500Y-85850000I62500J0D01*
G01*
X40157500Y-85850000D01*
G75*
G02*
X40220000Y-85912500I0J-62500D01*
G01*
G37*
G04 #@! TD.AperFunction*
G04 #@! TO.P,U1,23*
G04 #@! TO.N,ROW1*
G04 #@! TA.AperFunction,SMDPad,CuDef*
G36*
G01*
X40220000Y-85412500D02*
X40220000Y-85537500D01*
G75*
G02*
X40157500Y-85600000I-62500J0D01*
G01*
X39407500Y-85600000D01*
G75*
G02*
X39345000Y-85537500I0J62500D01*
G01*
X39345000Y-85412500D01*
G75*
G02*
X39407500Y-85350000I62500J0D01*
G01*
X40157500Y-85350000D01*
G75*
G02*
X40220000Y-85412500I0J-62500D01*
G01*
G37*
G04 #@! TD.AperFunction*
G04 #@! TO.P,U1,24*
G04 #@! TO.N,Net-(J2-Pad5)*
G04 #@! TA.AperFunction,SMDPad,CuDef*
G36*
G01*
X40220000Y-84912500D02*
X40220000Y-85037500D01*
G75*
G02*
X40157500Y-85100000I-62500J0D01*
G01*
X39407500Y-85100000D01*
G75*
G02*
X39345000Y-85037500I0J62500D01*
G01*
X39345000Y-84912500D01*
G75*
G02*
X39407500Y-84850000I62500J0D01*
G01*
X40157500Y-84850000D01*
G75*
G02*
X40220000Y-84912500I0J-62500D01*
G01*
G37*
G04 #@! TD.AperFunction*
G04 #@! TO.P,U1,25*
G04 #@! TO.N,ROW3*
G04 #@! TA.AperFunction,SMDPad,CuDef*
G36*
G01*
X40595000Y-83912500D02*
X40595000Y-84662500D01*
G75*
G02*
X40532500Y-84725000I-62500J0D01*
G01*
X40407500Y-84725000D01*
G75*
G02*
X40345000Y-84662500I0J62500D01*
G01*
X40345000Y-83912500D01*
G75*
G02*
X40407500Y-83850000I62500J0D01*
G01*
X40532500Y-83850000D01*
G75*
G02*
X40595000Y-83912500I0J-62500D01*
G01*
G37*
G04 #@! TD.AperFunction*
G04 #@! TO.P,U1,26*
G04 #@! TO.N,ROW4*
G04 #@! TA.AperFunction,SMDPad,CuDef*
G36*
G01*
X41095000Y-83912500D02*
X41095000Y-84662500D01*
G75*
G02*
X41032500Y-84725000I-62500J0D01*
G01*
X40907500Y-84725000D01*
G75*
G02*
X40845000Y-84662500I0J62500D01*
G01*
X40845000Y-83912500D01*
G75*
G02*
X40907500Y-83850000I62500J0D01*
G01*
X41032500Y-83850000D01*
G75*
G02*
X41095000Y-83912500I0J-62500D01*
G01*
G37*
G04 #@! TD.AperFunction*
G04 #@! TO.P,U1,27*
G04 #@! TO.N,Net-(C1-Pad1)*
G04 #@! TA.AperFunction,SMDPad,CuDef*
G36*
G01*
X41595000Y-83912500D02*
X41595000Y-84662500D01*
G75*
G02*
X41532500Y-84725000I-62500J0D01*
G01*
X41407500Y-84725000D01*
G75*
G02*
X41345000Y-84662500I0J62500D01*
G01*
X41345000Y-83912500D01*
G75*
G02*
X41407500Y-83850000I62500J0D01*
G01*
X41532500Y-83850000D01*
G75*
G02*
X41595000Y-83912500I0J-62500D01*
G01*
G37*
G04 #@! TD.AperFunction*
G04 #@! TO.P,U1,28*
G04 #@! TO.N,GND*
G04 #@! TA.AperFunction,SMDPad,CuDef*
G36*
G01*
X42095000Y-83912500D02*
X42095000Y-84662500D01*
G75*
G02*
X42032500Y-84725000I-62500J0D01*
G01*
X41907500Y-84725000D01*
G75*
G02*
X41845000Y-84662500I0J62500D01*
G01*
X41845000Y-83912500D01*
G75*
G02*
X41907500Y-83850000I62500J0D01*
G01*
X42032500Y-83850000D01*
G75*
G02*
X42095000Y-83912500I0J-62500D01*
G01*
G37*
G04 #@! TD.AperFunction*
G04 #@! TO.P,U1,29*
G04 #@! TO.N,Net-(R2-Pad1)*
G04 #@! TA.AperFunction,SMDPad,CuDef*
G36*
G01*
X42595000Y-83912500D02*
X42595000Y-84662500D01*
G75*
G02*
X42532500Y-84725000I-62500J0D01*
G01*
X42407500Y-84725000D01*
G75*
G02*
X42345000Y-84662500I0J62500D01*
G01*
X42345000Y-83912500D01*
G75*
G02*
X42407500Y-83850000I62500J0D01*
G01*
X42532500Y-83850000D01*
G75*
G02*
X42595000Y-83912500I0J-62500D01*
G01*
G37*
G04 #@! TD.AperFunction*
G04 #@! TO.P,U1,30*
G04 #@! TO.N,Net-(R3-Pad1)*
G04 #@! TA.AperFunction,SMDPad,CuDef*
G36*
G01*
X43095000Y-83912500D02*
X43095000Y-84662500D01*
G75*
G02*
X43032500Y-84725000I-62500J0D01*
G01*
X42907500Y-84725000D01*
G75*
G02*
X42845000Y-84662500I0J62500D01*
G01*
X42845000Y-83912500D01*
G75*
G02*
X42907500Y-83850000I62500J0D01*
G01*
X43032500Y-83850000D01*
G75*
G02*
X43095000Y-83912500I0J-62500D01*
G01*
G37*
G04 #@! TD.AperFunction*
G04 #@! TO.P,U1,31*
G04 #@! TO.N,+5V*
G04 #@! TA.AperFunction,SMDPad,CuDef*
G36*
G01*
X43595000Y-83912500D02*
X43595000Y-84662500D01*
G75*
G02*
X43532500Y-84725000I-62500J0D01*
G01*
X43407500Y-84725000D01*
G75*
G02*
X43345000Y-84662500I0J62500D01*
G01*
X43345000Y-83912500D01*
G75*
G02*
X43407500Y-83850000I62500J0D01*
G01*
X43532500Y-83850000D01*
G75*
G02*
X43595000Y-83912500I0J-62500D01*
G01*
G37*
G04 #@! TD.AperFunction*
G04 #@! TO.P,U1,32*
G04 #@! TA.AperFunction,SMDPad,CuDef*
G36*
G01*
X44095000Y-83912500D02*
X44095000Y-84662500D01*
G75*
G02*
X44032500Y-84725000I-62500J0D01*
G01*
X43907500Y-84725000D01*
G75*
G02*
X43845000Y-84662500I0J62500D01*
G01*
X43845000Y-83912500D01*
G75*
G02*
X43907500Y-83850000I62500J0D01*
G01*
X44032500Y-83850000D01*
G75*
G02*
X44095000Y-83912500I0J-62500D01*
G01*
G37*
G04 #@! TD.AperFunction*
D12*
G04 #@! TO.P,U1,33*
G04 #@! TO.N,GND*
X42220000Y-86725000D03*
G04 #@! TD*
G04 #@! TO.P,R4,2*
G04 #@! TO.N,Net-(J2-Pad5)*
G04 #@! TA.AperFunction,SMDPad,CuDef*
G36*
G01*
X35549998Y-83850000D02*
X36450002Y-83850000D01*
G75*
G02*
X36700000Y-84099998I0J-249998D01*
G01*
X36700000Y-84625002D01*
G75*
G02*
X36450002Y-84875000I-249998J0D01*
G01*
X35549998Y-84875000D01*
G75*
G02*
X35300000Y-84625002I0J249998D01*
G01*
X35300000Y-84099998D01*
G75*
G02*
X35549998Y-83850000I249998J0D01*
G01*
G37*
G04 #@! TD.AperFunction*
G04 #@! TO.P,R4,1*
G04 #@! TO.N,+5V*
G04 #@! TA.AperFunction,SMDPad,CuDef*
G36*
G01*
X35549998Y-82025000D02*
X36450002Y-82025000D01*
G75*
G02*
X36700000Y-82274998I0J-249998D01*
G01*
X36700000Y-82800002D01*
G75*
G02*
X36450002Y-83050000I-249998J0D01*
G01*
X35549998Y-83050000D01*
G75*
G02*
X35300000Y-82800002I0J249998D01*
G01*
X35300000Y-82274998D01*
G75*
G02*
X35549998Y-82025000I249998J0D01*
G01*
G37*
G04 #@! TD.AperFunction*
G04 #@! TD*
D10*
G04 #@! TO.P,MX45,2*
G04 #@! TO.N,Net-(D45-Pad2)*
X163671250Y-109220000D03*
G04 #@! TO.P,MX45,1*
G04 #@! TO.N,COL4*
X157321250Y-111760000D03*
G04 #@! TD*
D13*
G04 #@! TO.P,J1,3*
G04 #@! TO.N,D+*
X71025000Y-66450000D03*
G04 #@! TO.P,J1,4*
G04 #@! TO.N,GND*
X71025000Y-67450000D03*
G04 #@! TO.P,J1,2*
G04 #@! TO.N,D-*
X71025000Y-65450000D03*
G04 #@! TO.P,J1,1*
G04 #@! TO.N,VBUS*
X71025000Y-64450000D03*
D14*
G04 #@! TO.P,J1,*
G04 #@! TO.N,*
X74900000Y-63150000D03*
X74900000Y-68750000D03*
G04 #@! TD*
D10*
G04 #@! TO.P,MX35,2*
G04 #@! TO.N,Net-(D35-Pad2)*
X175577500Y-90170000D03*
G04 #@! TO.P,MX35,1*
G04 #@! TO.N,COL4*
X169227500Y-92710000D03*
G04 #@! TD*
G04 #@! TO.P,MX44,2*
G04 #@! TO.N,Net-(D44-Pad2)*
X116046250Y-109220000D03*
G04 #@! TO.P,MX44,1*
G04 #@! TO.N,COL3*
X109696250Y-111760000D03*
G04 #@! TD*
G04 #@! TO.P,MX32,2*
G04 #@! TO.N,Net-(D32-Pad2)*
X118427500Y-90170000D03*
G04 #@! TO.P,MX32,1*
G04 #@! TO.N,COL3*
X112077500Y-92710000D03*
G04 #@! TD*
G04 #@! TO.P,MX41,2*
G04 #@! TO.N,Net-(D41-Pad2)*
X30321250Y-109220000D03*
G04 #@! TO.P,MX41,1*
G04 #@! TO.N,COL1*
X23971250Y-111760000D03*
G04 #@! TD*
G04 #@! TO.P,MX49,2*
G04 #@! TO.N,Net-(D49-Pad2)*
X275590000Y-109220000D03*
G04 #@! TO.P,MX49,1*
G04 #@! TO.N,COL7*
X269240000Y-111760000D03*
G04 #@! TD*
G04 #@! TO.P,MX21,2*
G04 #@! TO.N,Net-(D21-Pad2)*
X147002500Y-71120000D03*
G04 #@! TO.P,MX21,1*
G04 #@! TO.N,COL4*
X140652500Y-73660000D03*
G04 #@! TD*
G04 #@! TO.P,MX14,2*
G04 #@! TO.N,Net-(D14-Pad2)*
X275590000Y-52070000D03*
G04 #@! TO.P,MX14,1*
G04 #@! TO.N,COL7*
X269240000Y-54610000D03*
G04 #@! TD*
G04 #@! TO.P,MX30,2*
G04 #@! TO.N,Net-(D30-Pad2)*
X80327500Y-90170000D03*
G04 #@! TO.P,MX30,1*
G04 #@! TO.N,COL2*
X73977500Y-92710000D03*
G04 #@! TD*
G04 #@! TO.P,MX42,2*
G04 #@! TO.N,Net-(D42-Pad2)*
X56515000Y-109220000D03*
G04 #@! TO.P,MX42,1*
G04 #@! TO.N,COL1*
X50165000Y-111760000D03*
G04 #@! TD*
D15*
G04 #@! TO.P,Y1,1*
G04 #@! TO.N,Net-(C6-Pad1)*
X51925000Y-84075000D03*
G04 #@! TO.P,Y1,2*
G04 #@! TO.N,GND*
X51925000Y-86275000D03*
G04 #@! TO.P,Y1,3*
G04 #@! TO.N,Net-(C7-Pad1)*
X50225000Y-86275000D03*
G04 #@! TO.P,Y1,4*
G04 #@! TO.N,GND*
X50225000Y-84075000D03*
G04 #@! TD*
D16*
G04 #@! TO.P,SW1,4*
G04 #@! TO.N,N/C*
X33975000Y-63875000D03*
G04 #@! TO.P,SW1,3*
X40175000Y-67575000D03*
G04 #@! TO.P,SW1,2*
G04 #@! TO.N,Net-(J2-Pad5)*
X33975000Y-67575000D03*
G04 #@! TO.P,SW1,1*
G04 #@! TO.N,GND*
X40175000Y-63875000D03*
G04 #@! TD*
G04 #@! TO.P,R3,2*
G04 #@! TO.N,D-*
G04 #@! TA.AperFunction,SMDPad,CuDef*
G36*
G01*
X51081250Y-67593752D02*
X51081250Y-66693748D01*
G75*
G02*
X51331248Y-66443750I249998J0D01*
G01*
X51856252Y-66443750D01*
G75*
G02*
X52106250Y-66693748I0J-249998D01*
G01*
X52106250Y-67593752D01*
G75*
G02*
X51856252Y-67843750I-249998J0D01*
G01*
X51331248Y-67843750D01*
G75*
G02*
X51081250Y-67593752I0J249998D01*
G01*
G37*
G04 #@! TD.AperFunction*
G04 #@! TO.P,R3,1*
G04 #@! TO.N,Net-(R3-Pad1)*
G04 #@! TA.AperFunction,SMDPad,CuDef*
G36*
G01*
X49256250Y-67593752D02*
X49256250Y-66693748D01*
G75*
G02*
X49506248Y-66443750I249998J0D01*
G01*
X50031252Y-66443750D01*
G75*
G02*
X50281250Y-66693748I0J-249998D01*
G01*
X50281250Y-67593752D01*
G75*
G02*
X50031252Y-67843750I-249998J0D01*
G01*
X49506248Y-67843750D01*
G75*
G02*
X49256250Y-67593752I0J249998D01*
G01*
G37*
G04 #@! TD.AperFunction*
G04 #@! TD*
G04 #@! TO.P,R2,2*
G04 #@! TO.N,D+*
G04 #@! TA.AperFunction,SMDPad,CuDef*
G36*
G01*
X51081250Y-65212502D02*
X51081250Y-64312498D01*
G75*
G02*
X51331248Y-64062500I249998J0D01*
G01*
X51856252Y-64062500D01*
G75*
G02*
X52106250Y-64312498I0J-249998D01*
G01*
X52106250Y-65212502D01*
G75*
G02*
X51856252Y-65462500I-249998J0D01*
G01*
X51331248Y-65462500D01*
G75*
G02*
X51081250Y-65212502I0J249998D01*
G01*
G37*
G04 #@! TD.AperFunction*
G04 #@! TO.P,R2,1*
G04 #@! TO.N,Net-(R2-Pad1)*
G04 #@! TA.AperFunction,SMDPad,CuDef*
G36*
G01*
X49256250Y-65212502D02*
X49256250Y-64312498D01*
G75*
G02*
X49506248Y-64062500I249998J0D01*
G01*
X50031252Y-64062500D01*
G75*
G02*
X50281250Y-64312498I0J-249998D01*
G01*
X50281250Y-65212502D01*
G75*
G02*
X50031252Y-65462500I-249998J0D01*
G01*
X49506248Y-65462500D01*
G75*
G02*
X49256250Y-65212502I0J249998D01*
G01*
G37*
G04 #@! TD.AperFunction*
G04 #@! TD*
G04 #@! TO.P,R1,2*
G04 #@! TO.N,Net-(R1-Pad2)*
G04 #@! TA.AperFunction,SMDPad,CuDef*
G36*
G01*
X38449998Y-92912500D02*
X39350002Y-92912500D01*
G75*
G02*
X39600000Y-93162498I0J-249998D01*
G01*
X39600000Y-93687502D01*
G75*
G02*
X39350002Y-93937500I-249998J0D01*
G01*
X38449998Y-93937500D01*
G75*
G02*
X38200000Y-93687502I0J249998D01*
G01*
X38200000Y-93162498D01*
G75*
G02*
X38449998Y-92912500I249998J0D01*
G01*
G37*
G04 #@! TD.AperFunction*
G04 #@! TO.P,R1,1*
G04 #@! TO.N,GND*
G04 #@! TA.AperFunction,SMDPad,CuDef*
G36*
G01*
X38449998Y-91087500D02*
X39350002Y-91087500D01*
G75*
G02*
X39600000Y-91337498I0J-249998D01*
G01*
X39600000Y-91862502D01*
G75*
G02*
X39350002Y-92112500I-249998J0D01*
G01*
X38449998Y-92112500D01*
G75*
G02*
X38200000Y-91862502I0J249998D01*
G01*
X38200000Y-91337498D01*
G75*
G02*
X38449998Y-91087500I249998J0D01*
G01*
G37*
G04 #@! TD.AperFunction*
G04 #@! TD*
D10*
G04 #@! TO.P,MX48,2*
G04 #@! TO.N,Net-(D48-Pad2)*
X254158750Y-109220000D03*
G04 #@! TO.P,MX48,1*
G04 #@! TO.N,COL6*
X247808750Y-111760000D03*
G04 #@! TD*
G04 #@! TO.P,MX47,2*
G04 #@! TO.N,Net-(D47-Pad2)*
X227965000Y-109220000D03*
G04 #@! TO.P,MX47,1*
G04 #@! TO.N,COL6*
X221615000Y-111760000D03*
G04 #@! TD*
G04 #@! TO.P,MX46,2*
G04 #@! TO.N,Net-(D46-Pad2)*
X201771250Y-109220000D03*
G04 #@! TO.P,MX46,1*
G04 #@! TO.N,COL5*
X195421250Y-111760000D03*
G04 #@! TD*
G04 #@! TO.P,MX43,2*
G04 #@! TO.N,Net-(D43-Pad2)*
X82708750Y-109220000D03*
G04 #@! TO.P,MX43,1*
G04 #@! TO.N,COL2*
X76358750Y-111760000D03*
G04 #@! TD*
G04 #@! TO.P,MX40,2*
G04 #@! TO.N,Net-(D40-Pad2)*
X275590000Y-90170000D03*
G04 #@! TO.P,MX40,1*
G04 #@! TO.N,COL7*
X269240000Y-92710000D03*
G04 #@! TD*
G04 #@! TO.P,MX39,2*
G04 #@! TO.N,Net-(D39-Pad2)*
X254158750Y-90170000D03*
G04 #@! TO.P,MX39,1*
G04 #@! TO.N,COL6*
X247808750Y-92710000D03*
G04 #@! TD*
G04 #@! TO.P,MX38,2*
G04 #@! TO.N,Net-(D38-Pad2)*
X232727500Y-90170000D03*
G04 #@! TO.P,MX38,1*
G04 #@! TO.N,COL6*
X226377500Y-92710000D03*
G04 #@! TD*
G04 #@! TO.P,MX37,2*
G04 #@! TO.N,Net-(D37-Pad2)*
X213677500Y-90170000D03*
G04 #@! TO.P,MX37,1*
G04 #@! TO.N,COL5*
X207327500Y-92710000D03*
G04 #@! TD*
G04 #@! TO.P,MX36,2*
G04 #@! TO.N,Net-(D36-Pad2)*
X194627500Y-90170000D03*
G04 #@! TO.P,MX36,1*
G04 #@! TO.N,COL5*
X188277500Y-92710000D03*
G04 #@! TD*
G04 #@! TO.P,MX34,2*
G04 #@! TO.N,Net-(D34-Pad2)*
X156527500Y-90170000D03*
G04 #@! TO.P,MX34,1*
G04 #@! TO.N,COL4*
X150177500Y-92710000D03*
G04 #@! TD*
G04 #@! TO.P,MX33,2*
G04 #@! TO.N,Net-(D33-Pad2)*
X137477500Y-90170000D03*
G04 #@! TO.P,MX33,1*
G04 #@! TO.N,COL3*
X131127500Y-92710000D03*
G04 #@! TD*
G04 #@! TO.P,MX31,2*
G04 #@! TO.N,Net-(D31-Pad2)*
X99377500Y-90170000D03*
G04 #@! TO.P,MX31,1*
G04 #@! TO.N,COL2*
X93027500Y-92710000D03*
G04 #@! TD*
G04 #@! TO.P,MX28,2*
G04 #@! TO.N,Net-(D28-Pad2)*
X35083750Y-90170000D03*
G04 #@! TO.P,MX28,1*
G04 #@! TO.N,COL1*
X28733750Y-92710000D03*
G04 #@! TD*
G04 #@! TO.P,MX27,2*
G04 #@! TO.N,Net-(D27-Pad2)*
X268446250Y-71120000D03*
G04 #@! TO.P,MX27,1*
G04 #@! TO.N,COL7*
X262096250Y-73660000D03*
G04 #@! TD*
G04 #@! TO.P,MX26,2*
G04 #@! TO.N,Net-(D26-Pad2)*
X242252500Y-71120000D03*
G04 #@! TO.P,MX26,1*
G04 #@! TO.N,COL6*
X235902500Y-73660000D03*
G04 #@! TD*
G04 #@! TO.P,MX25,2*
G04 #@! TO.N,Net-(D25-Pad2)*
X223202500Y-71120000D03*
G04 #@! TO.P,MX25,1*
G04 #@! TO.N,COL6*
X216852500Y-73660000D03*
G04 #@! TD*
G04 #@! TO.P,MX24,2*
G04 #@! TO.N,Net-(D24-Pad2)*
X204152500Y-71120000D03*
G04 #@! TO.P,MX24,1*
G04 #@! TO.N,COL5*
X197802500Y-73660000D03*
G04 #@! TD*
G04 #@! TO.P,MX23,2*
G04 #@! TO.N,Net-(D23-Pad2)*
X185102500Y-71120000D03*
G04 #@! TO.P,MX23,1*
G04 #@! TO.N,COL5*
X178752500Y-73660000D03*
G04 #@! TD*
G04 #@! TO.P,MX22,2*
G04 #@! TO.N,Net-(D22-Pad2)*
X166052500Y-71120000D03*
G04 #@! TO.P,MX22,1*
G04 #@! TO.N,COL4*
X159702500Y-73660000D03*
G04 #@! TD*
G04 #@! TO.P,MX20,2*
G04 #@! TO.N,Net-(D20-Pad2)*
X127952500Y-71120000D03*
G04 #@! TO.P,MX20,1*
G04 #@! TO.N,COL3*
X121602500Y-73660000D03*
G04 #@! TD*
G04 #@! TO.P,MX19,2*
G04 #@! TO.N,Net-(D19-Pad2)*
X108902500Y-71120000D03*
G04 #@! TO.P,MX19,1*
G04 #@! TO.N,COL3*
X102552500Y-73660000D03*
G04 #@! TD*
G04 #@! TO.P,MX18,2*
G04 #@! TO.N,Net-(D18-Pad2)*
X89852500Y-71120000D03*
G04 #@! TO.P,MX18,1*
G04 #@! TO.N,COL2*
X83502500Y-73660000D03*
G04 #@! TD*
G04 #@! TO.P,MX17,2*
G04 #@! TO.N,Net-(D17-Pad2)*
X70802500Y-71120000D03*
G04 #@! TO.P,MX17,1*
G04 #@! TO.N,COL2*
X64452500Y-73660000D03*
G04 #@! TD*
G04 #@! TO.P,MX16,2*
G04 #@! TO.N,Net-(D16-Pad2)*
X51752500Y-71120000D03*
G04 #@! TO.P,MX16,1*
G04 #@! TO.N,COL1*
X45402500Y-73660000D03*
G04 #@! TD*
G04 #@! TO.P,MX15,2*
G04 #@! TO.N,Net-(D15-Pad2)*
X30321250Y-71120000D03*
G04 #@! TO.P,MX15,1*
G04 #@! TO.N,COL1*
X23971250Y-73660000D03*
G04 #@! TD*
G04 #@! TO.P,MX13,2*
G04 #@! TO.N,Net-(D13-Pad2)*
X256540000Y-52070000D03*
G04 #@! TO.P,MX13,1*
G04 #@! TO.N,COL7*
X250190000Y-54610000D03*
G04 #@! TD*
G04 #@! TO.P,MX12,2*
G04 #@! TO.N,Net-(D12-Pad2)*
X237490000Y-52070000D03*
G04 #@! TO.P,MX12,1*
G04 #@! TO.N,COL6*
X231140000Y-54610000D03*
G04 #@! TD*
G04 #@! TO.P,MX11,2*
G04 #@! TO.N,Net-(D11-Pad2)*
X218440000Y-52070000D03*
G04 #@! TO.P,MX11,1*
G04 #@! TO.N,COL6*
X212090000Y-54610000D03*
G04 #@! TD*
G04 #@! TO.P,MX10,2*
G04 #@! TO.N,Net-(D10-Pad2)*
X199390000Y-52070000D03*
G04 #@! TO.P,MX10,1*
G04 #@! TO.N,COL5*
X193040000Y-54610000D03*
G04 #@! TD*
G04 #@! TO.P,MX9,2*
G04 #@! TO.N,Net-(D9-Pad2)*
X180340000Y-52070000D03*
G04 #@! TO.P,MX9,1*
G04 #@! TO.N,COL5*
X173990000Y-54610000D03*
G04 #@! TD*
G04 #@! TO.P,MX8,2*
G04 #@! TO.N,Net-(D8-Pad2)*
X161290000Y-52070000D03*
G04 #@! TO.P,MX8,1*
G04 #@! TO.N,COL4*
X154940000Y-54610000D03*
G04 #@! TD*
G04 #@! TO.P,MX7,2*
G04 #@! TO.N,Net-(D7-Pad2)*
X142240000Y-52070000D03*
G04 #@! TO.P,MX7,1*
G04 #@! TO.N,COL4*
X135890000Y-54610000D03*
G04 #@! TD*
G04 #@! TO.P,MX6,2*
G04 #@! TO.N,Net-(D6-Pad2)*
X123190000Y-52070000D03*
G04 #@! TO.P,MX6,1*
G04 #@! TO.N,COL3*
X116840000Y-54610000D03*
G04 #@! TD*
G04 #@! TO.P,MX5,2*
G04 #@! TO.N,Net-(D5-Pad2)*
X104140000Y-52070000D03*
G04 #@! TO.P,MX5,1*
G04 #@! TO.N,COL3*
X97790000Y-54610000D03*
G04 #@! TD*
G04 #@! TO.P,MX4,2*
G04 #@! TO.N,Net-(D4-Pad2)*
X85090000Y-52070000D03*
G04 #@! TO.P,MX4,1*
G04 #@! TO.N,COL2*
X78740000Y-54610000D03*
G04 #@! TD*
G04 #@! TO.P,MX2,2*
G04 #@! TO.N,Net-(D2-Pad2)*
X46990000Y-52070000D03*
G04 #@! TO.P,MX2,1*
G04 #@! TO.N,COL1*
X40640000Y-54610000D03*
G04 #@! TD*
G04 #@! TO.P,MX1,2*
G04 #@! TO.N,Net-(D1-Pad2)*
X27940000Y-52070000D03*
G04 #@! TO.P,MX1,1*
G04 #@! TO.N,COL1*
X21590000Y-54610000D03*
G04 #@! TD*
D17*
G04 #@! TO.P,J2,6*
G04 #@! TO.N,GND*
X23975000Y-89750000D03*
D18*
G04 #@! TO.P,J2,5*
G04 #@! TO.N,Net-(J2-Pad5)*
X21435000Y-89750000D03*
G04 #@! TO.P,J2,4*
G04 #@! TO.N,MOSI*
X23975000Y-87210000D03*
G04 #@! TO.P,J2,3*
G04 #@! TO.N,SCK*
X21435000Y-87210000D03*
G04 #@! TO.P,J2,2*
G04 #@! TO.N,+5V*
X23975000Y-84670000D03*
G04 #@! TO.P,J2,1*
G04 #@! TO.N,MISO*
X21435000Y-84670000D03*
G04 #@! TD*
G04 #@! TO.P,F1,2*
G04 #@! TO.N,VBUS*
G04 #@! TA.AperFunction,SMDPad,CuDef*
G36*
G01*
X56875000Y-71875000D02*
X56875000Y-70625000D01*
G75*
G02*
X57125000Y-70375000I250000J0D01*
G01*
X57875000Y-70375000D01*
G75*
G02*
X58125000Y-70625000I0J-250000D01*
G01*
X58125000Y-71875000D01*
G75*
G02*
X57875000Y-72125000I-250000J0D01*
G01*
X57125000Y-72125000D01*
G75*
G02*
X56875000Y-71875000I0J250000D01*
G01*
G37*
G04 #@! TD.AperFunction*
G04 #@! TO.P,F1,1*
G04 #@! TO.N,+5V*
G04 #@! TA.AperFunction,SMDPad,CuDef*
G36*
G01*
X54075000Y-71875000D02*
X54075000Y-70625000D01*
G75*
G02*
X54325000Y-70375000I250000J0D01*
G01*
X55075000Y-70375000D01*
G75*
G02*
X55325000Y-70625000I0J-250000D01*
G01*
X55325000Y-71875000D01*
G75*
G02*
X55075000Y-72125000I-250000J0D01*
G01*
X54325000Y-72125000D01*
G75*
G02*
X54075000Y-71875000I0J250000D01*
G01*
G37*
G04 #@! TD.AperFunction*
G04 #@! TD*
D19*
G04 #@! TO.P,D49,2*
G04 #@! TO.N,Net-(D49-Pad2)*
X280987500Y-112650000D03*
G04 #@! TO.P,D49,1*
G04 #@! TO.N,ROW7*
X280987500Y-115950000D03*
G04 #@! TD*
G04 #@! TO.P,D48,2*
G04 #@! TO.N,Net-(D48-Pad2)*
X259556250Y-112650000D03*
G04 #@! TO.P,D48,1*
G04 #@! TO.N,ROW8*
X259556250Y-115950000D03*
G04 #@! TD*
G04 #@! TO.P,D47,2*
G04 #@! TO.N,Net-(D47-Pad2)*
X233362500Y-112650000D03*
G04 #@! TO.P,D47,1*
G04 #@! TO.N,ROW7*
X233362500Y-115950000D03*
G04 #@! TD*
G04 #@! TO.P,D46,2*
G04 #@! TO.N,Net-(D46-Pad2)*
X207168750Y-112650000D03*
G04 #@! TO.P,D46,1*
G04 #@! TO.N,ROW8*
X207168750Y-115950000D03*
G04 #@! TD*
G04 #@! TO.P,D45,2*
G04 #@! TO.N,Net-(D45-Pad2)*
X169068750Y-112650000D03*
G04 #@! TO.P,D45,1*
G04 #@! TO.N,ROW7*
X169068750Y-115950000D03*
G04 #@! TD*
G04 #@! TO.P,D44,2*
G04 #@! TO.N,Net-(D44-Pad2)*
X121443750Y-112650000D03*
G04 #@! TO.P,D44,1*
G04 #@! TO.N,ROW8*
X121443750Y-115950000D03*
G04 #@! TD*
G04 #@! TO.P,D43,2*
G04 #@! TO.N,Net-(D43-Pad2)*
X88106250Y-112650000D03*
G04 #@! TO.P,D43,1*
G04 #@! TO.N,ROW7*
X88106250Y-115950000D03*
G04 #@! TD*
G04 #@! TO.P,D42,2*
G04 #@! TO.N,Net-(D42-Pad2)*
X61912500Y-112650000D03*
G04 #@! TO.P,D42,1*
G04 #@! TO.N,ROW8*
X61912500Y-115950000D03*
G04 #@! TD*
G04 #@! TO.P,D41,2*
G04 #@! TO.N,Net-(D41-Pad2)*
X35718750Y-112650000D03*
G04 #@! TO.P,D41,1*
G04 #@! TO.N,ROW7*
X35718750Y-115950000D03*
G04 #@! TD*
G04 #@! TO.P,D40,2*
G04 #@! TO.N,Net-(D40-Pad2)*
X280987500Y-93600000D03*
G04 #@! TO.P,D40,1*
G04 #@! TO.N,ROW5*
X280987500Y-96900000D03*
G04 #@! TD*
G04 #@! TO.P,D39,2*
G04 #@! TO.N,Net-(D39-Pad2)*
X259556250Y-93600000D03*
G04 #@! TO.P,D39,1*
G04 #@! TO.N,ROW6*
X259556250Y-96900000D03*
G04 #@! TD*
G04 #@! TO.P,D38,2*
G04 #@! TO.N,Net-(D38-Pad2)*
X238125000Y-93600000D03*
G04 #@! TO.P,D38,1*
G04 #@! TO.N,ROW5*
X238125000Y-96900000D03*
G04 #@! TD*
G04 #@! TO.P,D37,2*
G04 #@! TO.N,Net-(D37-Pad2)*
X219075000Y-93600000D03*
G04 #@! TO.P,D37,1*
G04 #@! TO.N,ROW6*
X219075000Y-96900000D03*
G04 #@! TD*
G04 #@! TO.P,D36,2*
G04 #@! TO.N,Net-(D36-Pad2)*
X200025000Y-93600000D03*
G04 #@! TO.P,D36,1*
G04 #@! TO.N,ROW5*
X200025000Y-96900000D03*
G04 #@! TD*
G04 #@! TO.P,D35,2*
G04 #@! TO.N,Net-(D35-Pad2)*
X180975000Y-93600000D03*
G04 #@! TO.P,D35,1*
G04 #@! TO.N,ROW6*
X180975000Y-96900000D03*
G04 #@! TD*
G04 #@! TO.P,D34,2*
G04 #@! TO.N,Net-(D34-Pad2)*
X161925000Y-93600000D03*
G04 #@! TO.P,D34,1*
G04 #@! TO.N,ROW5*
X161925000Y-96900000D03*
G04 #@! TD*
G04 #@! TO.P,D33,2*
G04 #@! TO.N,Net-(D33-Pad2)*
X142875000Y-93600000D03*
G04 #@! TO.P,D33,1*
G04 #@! TO.N,ROW6*
X142875000Y-96900000D03*
G04 #@! TD*
G04 #@! TO.P,D32,2*
G04 #@! TO.N,Net-(D32-Pad2)*
X123825000Y-93600000D03*
G04 #@! TO.P,D32,1*
G04 #@! TO.N,ROW5*
X123825000Y-96900000D03*
G04 #@! TD*
G04 #@! TO.P,D31,2*
G04 #@! TO.N,Net-(D31-Pad2)*
X104775000Y-93600000D03*
G04 #@! TO.P,D31,1*
G04 #@! TO.N,ROW6*
X104775000Y-96900000D03*
G04 #@! TD*
G04 #@! TO.P,D30,2*
G04 #@! TO.N,Net-(D30-Pad2)*
X85725000Y-93600000D03*
G04 #@! TO.P,D30,1*
G04 #@! TO.N,ROW5*
X85725000Y-96900000D03*
G04 #@! TD*
G04 #@! TO.P,D29,2*
G04 #@! TO.N,Net-(D29-Pad2)*
X66675000Y-93600000D03*
G04 #@! TO.P,D29,1*
G04 #@! TO.N,ROW6*
X66675000Y-96900000D03*
G04 #@! TD*
G04 #@! TO.P,D28,2*
G04 #@! TO.N,Net-(D28-Pad2)*
X24500000Y-93600000D03*
G04 #@! TO.P,D28,1*
G04 #@! TO.N,ROW5*
X24500000Y-96900000D03*
G04 #@! TD*
G04 #@! TO.P,D27,2*
G04 #@! TO.N,Net-(D27-Pad2)*
X273843750Y-74550000D03*
G04 #@! TO.P,D27,1*
G04 #@! TO.N,ROW3*
X273843750Y-77850000D03*
G04 #@! TD*
G04 #@! TO.P,D26,2*
G04 #@! TO.N,Net-(D26-Pad2)*
X247650000Y-74550000D03*
G04 #@! TO.P,D26,1*
G04 #@! TO.N,ROW4*
X247650000Y-77850000D03*
G04 #@! TD*
G04 #@! TO.P,D25,2*
G04 #@! TO.N,Net-(D25-Pad2)*
X228600000Y-74550000D03*
G04 #@! TO.P,D25,1*
G04 #@! TO.N,ROW3*
X228600000Y-77850000D03*
G04 #@! TD*
G04 #@! TO.P,D24,2*
G04 #@! TO.N,Net-(D24-Pad2)*
X209550000Y-74550000D03*
G04 #@! TO.P,D24,1*
G04 #@! TO.N,ROW4*
X209550000Y-77850000D03*
G04 #@! TD*
G04 #@! TO.P,D23,2*
G04 #@! TO.N,Net-(D23-Pad2)*
X190500000Y-74550000D03*
G04 #@! TO.P,D23,1*
G04 #@! TO.N,ROW3*
X190500000Y-77850000D03*
G04 #@! TD*
G04 #@! TO.P,D22,2*
G04 #@! TO.N,Net-(D22-Pad2)*
X171450000Y-74550000D03*
G04 #@! TO.P,D22,1*
G04 #@! TO.N,ROW4*
X171450000Y-77850000D03*
G04 #@! TD*
G04 #@! TO.P,D21,2*
G04 #@! TO.N,Net-(D21-Pad2)*
X152400000Y-74550000D03*
G04 #@! TO.P,D21,1*
G04 #@! TO.N,ROW3*
X152400000Y-77850000D03*
G04 #@! TD*
G04 #@! TO.P,D20,2*
G04 #@! TO.N,Net-(D20-Pad2)*
X133350000Y-74550000D03*
G04 #@! TO.P,D20,1*
G04 #@! TO.N,ROW4*
X133350000Y-77850000D03*
G04 #@! TD*
G04 #@! TO.P,D19,2*
G04 #@! TO.N,Net-(D19-Pad2)*
X114300000Y-74550000D03*
G04 #@! TO.P,D19,1*
G04 #@! TO.N,ROW3*
X114300000Y-77850000D03*
G04 #@! TD*
G04 #@! TO.P,D18,2*
G04 #@! TO.N,Net-(D18-Pad2)*
X95250000Y-74550000D03*
G04 #@! TO.P,D18,1*
G04 #@! TO.N,ROW4*
X95250000Y-77850000D03*
G04 #@! TD*
G04 #@! TO.P,D17,2*
G04 #@! TO.N,Net-(D17-Pad2)*
X76200000Y-74550000D03*
G04 #@! TO.P,D17,1*
G04 #@! TO.N,ROW3*
X76200000Y-77850000D03*
G04 #@! TD*
G04 #@! TO.P,D16,2*
G04 #@! TO.N,Net-(D16-Pad2)*
X57150000Y-74550000D03*
G04 #@! TO.P,D16,1*
G04 #@! TO.N,ROW4*
X57150000Y-77850000D03*
G04 #@! TD*
G04 #@! TO.P,D15,2*
G04 #@! TO.N,Net-(D15-Pad2)*
X35718750Y-74550000D03*
G04 #@! TO.P,D15,1*
G04 #@! TO.N,ROW3*
X35718750Y-77850000D03*
G04 #@! TD*
G04 #@! TO.P,D14,2*
G04 #@! TO.N,Net-(D14-Pad2)*
X280987500Y-55500000D03*
G04 #@! TO.P,D14,1*
G04 #@! TO.N,ROW2*
X280987500Y-58800000D03*
G04 #@! TD*
G04 #@! TO.P,D13,2*
G04 #@! TO.N,Net-(D13-Pad2)*
X261937500Y-55500000D03*
G04 #@! TO.P,D13,1*
G04 #@! TO.N,ROW1*
X261937500Y-58800000D03*
G04 #@! TD*
G04 #@! TO.P,D12,2*
G04 #@! TO.N,Net-(D12-Pad2)*
X242887500Y-55500000D03*
G04 #@! TO.P,D12,1*
G04 #@! TO.N,ROW2*
X242887500Y-58800000D03*
G04 #@! TD*
G04 #@! TO.P,D11,2*
G04 #@! TO.N,Net-(D11-Pad2)*
X223837500Y-55500000D03*
G04 #@! TO.P,D11,1*
G04 #@! TO.N,ROW1*
X223837500Y-58800000D03*
G04 #@! TD*
G04 #@! TO.P,D10,2*
G04 #@! TO.N,Net-(D10-Pad2)*
X204787500Y-55500000D03*
G04 #@! TO.P,D10,1*
G04 #@! TO.N,ROW2*
X204787500Y-58800000D03*
G04 #@! TD*
G04 #@! TO.P,D9,2*
G04 #@! TO.N,Net-(D9-Pad2)*
X185737500Y-55500000D03*
G04 #@! TO.P,D9,1*
G04 #@! TO.N,ROW1*
X185737500Y-58800000D03*
G04 #@! TD*
G04 #@! TO.P,D8,2*
G04 #@! TO.N,Net-(D8-Pad2)*
X166687500Y-55500000D03*
G04 #@! TO.P,D8,1*
G04 #@! TO.N,ROW2*
X166687500Y-58800000D03*
G04 #@! TD*
G04 #@! TO.P,D7,2*
G04 #@! TO.N,Net-(D7-Pad2)*
X147637500Y-55500000D03*
G04 #@! TO.P,D7,1*
G04 #@! TO.N,ROW1*
X147637500Y-58800000D03*
G04 #@! TD*
G04 #@! TO.P,D6,2*
G04 #@! TO.N,Net-(D6-Pad2)*
X128587500Y-55500000D03*
G04 #@! TO.P,D6,1*
G04 #@! TO.N,ROW2*
X128587500Y-58800000D03*
G04 #@! TD*
G04 #@! TO.P,D5,2*
G04 #@! TO.N,Net-(D5-Pad2)*
X109537500Y-55500000D03*
G04 #@! TO.P,D5,1*
G04 #@! TO.N,ROW1*
X109537500Y-58800000D03*
G04 #@! TD*
G04 #@! TO.P,D4,2*
G04 #@! TO.N,Net-(D4-Pad2)*
X90487500Y-55500000D03*
G04 #@! TO.P,D4,1*
G04 #@! TO.N,ROW2*
X90487500Y-58800000D03*
G04 #@! TD*
G04 #@! TO.P,D3,2*
G04 #@! TO.N,Net-(D3-Pad2)*
X71437500Y-55500000D03*
G04 #@! TO.P,D3,1*
G04 #@! TO.N,ROW1*
X71437500Y-58800000D03*
G04 #@! TD*
G04 #@! TO.P,D2,2*
G04 #@! TO.N,Net-(D2-Pad2)*
X52387500Y-55500000D03*
G04 #@! TO.P,D2,1*
G04 #@! TO.N,ROW2*
X52387500Y-58800000D03*
G04 #@! TD*
G04 #@! TO.P,D1,2*
G04 #@! TO.N,Net-(D1-Pad2)*
X33337500Y-55500000D03*
G04 #@! TO.P,D1,1*
G04 #@! TO.N,ROW1*
X33337500Y-58800000D03*
G04 #@! TD*
G04 #@! TO.P,C7,1*
G04 #@! TO.N,Net-(C7-Pad1)*
G04 #@! TA.AperFunction,SMDPad,CuDef*
G36*
G01*
X49600000Y-89025000D02*
X49600000Y-88075000D01*
G75*
G02*
X49850000Y-87825000I250000J0D01*
G01*
X50350000Y-87825000D01*
G75*
G02*
X50600000Y-88075000I0J-250000D01*
G01*
X50600000Y-89025000D01*
G75*
G02*
X50350000Y-89275000I-250000J0D01*
G01*
X49850000Y-89275000D01*
G75*
G02*
X49600000Y-89025000I0J250000D01*
G01*
G37*
G04 #@! TD.AperFunction*
G04 #@! TO.P,C7,2*
G04 #@! TO.N,GND*
G04 #@! TA.AperFunction,SMDPad,CuDef*
G36*
G01*
X51500000Y-89025000D02*
X51500000Y-88075000D01*
G75*
G02*
X51750000Y-87825000I250000J0D01*
G01*
X52250000Y-87825000D01*
G75*
G02*
X52500000Y-88075000I0J-250000D01*
G01*
X52500000Y-89025000D01*
G75*
G02*
X52250000Y-89275000I-250000J0D01*
G01*
X51750000Y-89275000D01*
G75*
G02*
X51500000Y-89025000I0J250000D01*
G01*
G37*
G04 #@! TD.AperFunction*
G04 #@! TD*
G04 #@! TO.P,C6,1*
G04 #@! TO.N,Net-(C6-Pad1)*
G04 #@! TA.AperFunction,SMDPad,CuDef*
G36*
G01*
X49600000Y-82275000D02*
X49600000Y-81325000D01*
G75*
G02*
X49850000Y-81075000I250000J0D01*
G01*
X50350000Y-81075000D01*
G75*
G02*
X50600000Y-81325000I0J-250000D01*
G01*
X50600000Y-82275000D01*
G75*
G02*
X50350000Y-82525000I-250000J0D01*
G01*
X49850000Y-82525000D01*
G75*
G02*
X49600000Y-82275000I0J250000D01*
G01*
G37*
G04 #@! TD.AperFunction*
G04 #@! TO.P,C6,2*
G04 #@! TO.N,GND*
G04 #@! TA.AperFunction,SMDPad,CuDef*
G36*
G01*
X51500000Y-82275000D02*
X51500000Y-81325000D01*
G75*
G02*
X51750000Y-81075000I250000J0D01*
G01*
X52250000Y-81075000D01*
G75*
G02*
X52500000Y-81325000I0J-250000D01*
G01*
X52500000Y-82275000D01*
G75*
G02*
X52250000Y-82525000I-250000J0D01*
G01*
X51750000Y-82525000D01*
G75*
G02*
X51500000Y-82275000I0J250000D01*
G01*
G37*
G04 #@! TD.AperFunction*
G04 #@! TD*
G04 #@! TO.P,C4,2*
G04 #@! TO.N,GND*
G04 #@! TA.AperFunction,SMDPad,CuDef*
G36*
G01*
X46000000Y-81375000D02*
X46000000Y-80425000D01*
G75*
G02*
X46250000Y-80175000I250000J0D01*
G01*
X46750000Y-80175000D01*
G75*
G02*
X47000000Y-80425000I0J-250000D01*
G01*
X47000000Y-81375000D01*
G75*
G02*
X46750000Y-81625000I-250000J0D01*
G01*
X46250000Y-81625000D01*
G75*
G02*
X46000000Y-81375000I0J250000D01*
G01*
G37*
G04 #@! TD.AperFunction*
G04 #@! TO.P,C4,1*
G04 #@! TO.N,+5V*
G04 #@! TA.AperFunction,SMDPad,CuDef*
G36*
G01*
X44100000Y-81375000D02*
X44100000Y-80425000D01*
G75*
G02*
X44350000Y-80175000I250000J0D01*
G01*
X44850000Y-80175000D01*
G75*
G02*
X45100000Y-80425000I0J-250000D01*
G01*
X45100000Y-81375000D01*
G75*
G02*
X44850000Y-81625000I-250000J0D01*
G01*
X44350000Y-81625000D01*
G75*
G02*
X44100000Y-81375000I0J250000D01*
G01*
G37*
G04 #@! TD.AperFunction*
G04 #@! TD*
G04 #@! TO.P,C3,1*
G04 #@! TO.N,+5V*
G04 #@! TA.AperFunction,SMDPad,CuDef*
G36*
G01*
X45900000Y-92175000D02*
X45900000Y-91225000D01*
G75*
G02*
X46150000Y-90975000I250000J0D01*
G01*
X46650000Y-90975000D01*
G75*
G02*
X46900000Y-91225000I0J-250000D01*
G01*
X46900000Y-92175000D01*
G75*
G02*
X46650000Y-92425000I-250000J0D01*
G01*
X46150000Y-92425000D01*
G75*
G02*
X45900000Y-92175000I0J250000D01*
G01*
G37*
G04 #@! TD.AperFunction*
G04 #@! TO.P,C3,2*
G04 #@! TO.N,GND*
G04 #@! TA.AperFunction,SMDPad,CuDef*
G36*
G01*
X47800000Y-92175000D02*
X47800000Y-91225000D01*
G75*
G02*
X48050000Y-90975000I250000J0D01*
G01*
X48550000Y-90975000D01*
G75*
G02*
X48800000Y-91225000I0J-250000D01*
G01*
X48800000Y-92175000D01*
G75*
G02*
X48550000Y-92425000I-250000J0D01*
G01*
X48050000Y-92425000D01*
G75*
G02*
X47800000Y-92175000I0J250000D01*
G01*
G37*
G04 #@! TD.AperFunction*
G04 #@! TD*
G04 #@! TO.P,C2,2*
G04 #@! TO.N,GND*
G04 #@! TA.AperFunction,SMDPad,CuDef*
G36*
G01*
X46000000Y-78975000D02*
X46000000Y-78025000D01*
G75*
G02*
X46250000Y-77775000I250000J0D01*
G01*
X46750000Y-77775000D01*
G75*
G02*
X47000000Y-78025000I0J-250000D01*
G01*
X47000000Y-78975000D01*
G75*
G02*
X46750000Y-79225000I-250000J0D01*
G01*
X46250000Y-79225000D01*
G75*
G02*
X46000000Y-78975000I0J250000D01*
G01*
G37*
G04 #@! TD.AperFunction*
G04 #@! TO.P,C2,1*
G04 #@! TO.N,+5V*
G04 #@! TA.AperFunction,SMDPad,CuDef*
G36*
G01*
X44100000Y-78975000D02*
X44100000Y-78025000D01*
G75*
G02*
X44350000Y-77775000I250000J0D01*
G01*
X44850000Y-77775000D01*
G75*
G02*
X45100000Y-78025000I0J-250000D01*
G01*
X45100000Y-78975000D01*
G75*
G02*
X44850000Y-79225000I-250000J0D01*
G01*
X44350000Y-79225000D01*
G75*
G02*
X44100000Y-78975000I0J250000D01*
G01*
G37*
G04 #@! TD.AperFunction*
G04 #@! TD*
G04 #@! TO.P,C1,2*
G04 #@! TO.N,GND*
G04 #@! TA.AperFunction,SMDPad,CuDef*
G36*
G01*
X36675000Y-70950000D02*
X35725000Y-70950000D01*
G75*
G02*
X35475000Y-70700000I0J250000D01*
G01*
X35475000Y-70200000D01*
G75*
G02*
X35725000Y-69950000I250000J0D01*
G01*
X36675000Y-69950000D01*
G75*
G02*
X36925000Y-70200000I0J-250000D01*
G01*
X36925000Y-70700000D01*
G75*
G02*
X36675000Y-70950000I-250000J0D01*
G01*
G37*
G04 #@! TD.AperFunction*
G04 #@! TO.P,C1,1*
G04 #@! TO.N,Net-(C1-Pad1)*
G04 #@! TA.AperFunction,SMDPad,CuDef*
G36*
G01*
X36675000Y-72850000D02*
X35725000Y-72850000D01*
G75*
G02*
X35475000Y-72600000I0J250000D01*
G01*
X35475000Y-72100000D01*
G75*
G02*
X35725000Y-71850000I250000J0D01*
G01*
X36675000Y-71850000D01*
G75*
G02*
X36925000Y-72100000I0J-250000D01*
G01*
X36925000Y-72600000D01*
G75*
G02*
X36675000Y-72850000I-250000J0D01*
G01*
G37*
G04 #@! TD.AperFunction*
G04 #@! TD*
D20*
G04 #@! TO.N,GND*
X47100000Y-86850000D03*
X47100000Y-83025000D03*
X39100000Y-90100000D03*
X37600000Y-88600000D03*
G04 #@! TO.N,+5V*
X26420000Y-82225000D03*
X37625000Y-82225000D03*
X45500278Y-83375000D03*
X42700000Y-80900000D03*
X46850000Y-89450000D03*
G04 #@! TO.N,ROW3*
X37550000Y-78550000D03*
X52800000Y-78800000D03*
G04 #@! TO.N,Net-(R1-Pad2)*
X42200000Y-91200000D03*
X39500000Y-95300000D03*
G04 #@! TO.N,ROW4*
X48400000Y-79700000D03*
X36700000Y-79700000D03*
G04 #@! TO.N,ROW5*
X53972999Y-99627001D03*
X29972999Y-99627001D03*
G04 #@! TO.N,Net-(J2-Pad5)*
X34637500Y-84362500D03*
X29800000Y-83200000D03*
G04 #@! TD*
D21*
G04 #@! TO.N,GND*
X44657500Y-85975000D02*
X46225000Y-85975000D01*
X46225000Y-85975000D02*
X47100000Y-86850000D01*
X52000000Y-86350000D02*
X51925000Y-86275000D01*
X52000000Y-88550000D02*
X52000000Y-86350000D01*
X50225000Y-84475000D02*
X50225000Y-84075000D01*
X51925000Y-86175000D02*
X50225000Y-84475000D01*
X51925000Y-86275000D02*
X51925000Y-86175000D01*
X41970000Y-86475000D02*
X42220000Y-86725000D01*
X41970000Y-84287500D02*
X41970000Y-86475000D01*
X42970000Y-85975000D02*
X42220000Y-86725000D01*
X44657500Y-85975000D02*
X42970000Y-85975000D01*
X58112568Y-63712630D02*
X40337370Y-63712630D01*
X40337370Y-63712630D02*
X40175000Y-63875000D01*
X58774999Y-64375061D02*
X58112568Y-63712630D01*
X58774999Y-64909811D02*
X58774999Y-64375061D01*
X39100000Y-91400000D02*
X38900000Y-91600000D01*
X39100000Y-90100000D02*
X39100000Y-91400000D01*
X37600000Y-88600000D02*
X36951870Y-87951870D01*
X36951870Y-87951870D02*
X26400000Y-87951870D01*
X24601870Y-89750000D02*
X23975000Y-89750000D01*
X26400000Y-87951870D02*
X24601870Y-89750000D01*
X46500000Y-82425000D02*
X47100000Y-83025000D01*
X46500000Y-80900000D02*
X46500000Y-82425000D01*
X52300000Y-74600000D02*
X50900000Y-73200000D01*
X52300000Y-77500000D02*
X52300000Y-74600000D01*
X50900000Y-78900000D02*
X52300000Y-77500000D01*
X47775000Y-78900000D02*
X50900000Y-78900000D01*
X46500000Y-80175000D02*
X47775000Y-78900000D01*
X46500000Y-80900000D02*
X46500000Y-80175000D01*
X53000000Y-82800000D02*
X52000000Y-81800000D01*
X53000000Y-85200000D02*
X53000000Y-82800000D01*
X51925000Y-86275000D02*
X53000000Y-85200000D01*
X48800000Y-89800000D02*
X51600000Y-89800000D01*
X52000000Y-89400000D02*
X52000000Y-88550000D01*
X51600000Y-89800000D02*
X52000000Y-89400000D01*
X47375000Y-78500000D02*
X47775000Y-78900000D01*
X46500000Y-78500000D02*
X47375000Y-78500000D01*
X48150000Y-73200000D02*
X45950000Y-71000000D01*
X50900000Y-73200000D02*
X48150000Y-73200000D01*
X36500000Y-70150000D02*
X36200000Y-70450000D01*
X36500000Y-67550000D02*
X36500000Y-70150000D01*
X40175000Y-63875000D02*
X36500000Y-67550000D01*
X48100000Y-89100000D02*
X48800000Y-89800000D01*
X48100000Y-89000000D02*
X48100000Y-89100000D01*
X48100000Y-88405958D02*
X48100000Y-89000000D01*
X47100000Y-86850000D02*
X47100000Y-87405958D01*
X47100000Y-87405958D02*
X48100000Y-88405958D01*
X48100000Y-91500000D02*
X48300000Y-91700000D01*
X48100000Y-89000000D02*
X48100000Y-91500000D01*
X37500000Y-71750000D02*
X36200000Y-70450000D01*
X37500000Y-72975604D02*
X37500000Y-71750000D01*
X38818937Y-74294541D02*
X37500000Y-72975604D01*
X38818938Y-80060406D02*
X38818937Y-74294541D01*
X41970000Y-83211467D02*
X38818938Y-80060406D01*
X41970000Y-84287500D02*
X41970000Y-83211467D01*
X60430090Y-62425000D02*
X58774999Y-64080091D01*
X58774999Y-64080091D02*
X58774999Y-64909811D01*
X68650000Y-62425000D02*
X60430090Y-62425000D01*
X69600000Y-63375000D02*
X68650000Y-62425000D01*
X69600000Y-67099720D02*
X69600000Y-63375000D01*
X69950280Y-67450000D02*
X69600000Y-67099720D01*
X71025000Y-67450000D02*
X69950280Y-67450000D01*
D22*
G04 #@! TO.N,Net-(C1-Pad1)*
X41470000Y-84287500D02*
X41470000Y-83385864D01*
X38342068Y-74492068D02*
X36200000Y-72350000D01*
X38342068Y-80257932D02*
X38342068Y-74492068D01*
X41470000Y-83385864D02*
X38342068Y-80257932D01*
D21*
G04 #@! TO.N,+5V*
X43500000Y-84257500D02*
X43470000Y-84287500D01*
X26420000Y-82225000D02*
X23975000Y-84670000D01*
X36312500Y-82225000D02*
X36000000Y-82537500D01*
X37625000Y-82225000D02*
X36312500Y-82225000D01*
X43970000Y-84287500D02*
X43970000Y-83030000D01*
X44657500Y-86475000D02*
X45462318Y-86475000D01*
X44600000Y-82400000D02*
X43970000Y-83030000D01*
X44600000Y-80900000D02*
X44600000Y-82400000D01*
X45462316Y-86475000D02*
X44657500Y-86475000D01*
X45500278Y-81800278D02*
X44600000Y-80900000D01*
X45500278Y-82999722D02*
X45500278Y-81800278D01*
X45500278Y-83375000D02*
X45500278Y-82999722D01*
X43450000Y-84267500D02*
X43470000Y-84287500D01*
X42700000Y-72350000D02*
X42700000Y-74600000D01*
X44050000Y-71000000D02*
X42700000Y-72350000D01*
X42700000Y-74600000D02*
X42700000Y-80900000D01*
X42700000Y-74179705D02*
X42700000Y-74600000D01*
X44600000Y-78500000D02*
X43470000Y-79630000D01*
X43470000Y-79630000D02*
X43470000Y-84287500D01*
X46400000Y-91700000D02*
X47500000Y-90600000D01*
X46850000Y-90232152D02*
X46400000Y-90682152D01*
X46400000Y-90682152D02*
X46400000Y-91700000D01*
X46850000Y-89450000D02*
X46850000Y-90232152D01*
X47500000Y-90600000D02*
X47500000Y-88512684D01*
X47500000Y-88512684D02*
X45462316Y-86475000D01*
X45561966Y-82938034D02*
X45500278Y-82999722D01*
X45561966Y-78861966D02*
X45561966Y-82938034D01*
X45200000Y-78500000D02*
X45561966Y-78861966D01*
X44600000Y-78500000D02*
X45200000Y-78500000D01*
X45250000Y-69800000D02*
X44050000Y-71000000D01*
X47600000Y-69800000D02*
X45250000Y-69800000D01*
X51106994Y-72700270D02*
X50500270Y-72700270D01*
X51831724Y-73425000D02*
X51106994Y-72700270D01*
X53875000Y-73425000D02*
X51831724Y-73425000D01*
X54700000Y-72600000D02*
X53875000Y-73425000D01*
X50500270Y-72700270D02*
X47600000Y-69800000D01*
X54700000Y-71250000D02*
X54700000Y-72600000D01*
D22*
G04 #@! TO.N,Net-(C6-Pad1)*
X46925000Y-84975000D02*
X50100000Y-81800000D01*
X44657500Y-84975000D02*
X46925000Y-84975000D01*
X51925000Y-83625000D02*
X51925000Y-84075000D01*
X50100000Y-81800000D02*
X51925000Y-83625000D01*
G04 #@! TO.N,Net-(C7-Pad1)*
X47025000Y-85475000D02*
X50100000Y-88550000D01*
X44657500Y-85475000D02*
X47025000Y-85475000D01*
X50100000Y-86400000D02*
X50225000Y-86275000D01*
X50100000Y-88550000D02*
X50100000Y-86400000D01*
G04 #@! TO.N,Net-(D1-Pad2)*
X29907500Y-52070000D02*
X33337500Y-55500000D01*
X27940000Y-52070000D02*
X29907500Y-52070000D01*
G04 #@! TO.N,Net-(D2-Pad2)*
X48957500Y-52070000D02*
X52387500Y-55500000D01*
X46990000Y-52070000D02*
X48957500Y-52070000D01*
G04 #@! TO.N,Net-(D3-Pad2)*
X68007500Y-52070000D02*
X71437500Y-55500000D01*
X66040000Y-52070000D02*
X68007500Y-52070000D01*
G04 #@! TO.N,Net-(D4-Pad2)*
X87057500Y-52070000D02*
X90487500Y-55500000D01*
X85090000Y-52070000D02*
X87057500Y-52070000D01*
G04 #@! TO.N,Net-(D5-Pad2)*
X106107500Y-52070000D02*
X109537500Y-55500000D01*
X104140000Y-52070000D02*
X106107500Y-52070000D01*
G04 #@! TO.N,Net-(D6-Pad2)*
X125157500Y-52070000D02*
X128587500Y-55500000D01*
X123190000Y-52070000D02*
X125157500Y-52070000D01*
G04 #@! TO.N,Net-(D7-Pad2)*
X144207500Y-52070000D02*
X147637500Y-55500000D01*
X142240000Y-52070000D02*
X144207500Y-52070000D01*
G04 #@! TO.N,Net-(D8-Pad2)*
X163257500Y-52070000D02*
X166687500Y-55500000D01*
X161290000Y-52070000D02*
X163257500Y-52070000D01*
G04 #@! TO.N,Net-(D9-Pad2)*
X182307500Y-52070000D02*
X185737500Y-55500000D01*
X180340000Y-52070000D02*
X182307500Y-52070000D01*
G04 #@! TO.N,Net-(D10-Pad2)*
X201357500Y-52070000D02*
X204787500Y-55500000D01*
X199390000Y-52070000D02*
X201357500Y-52070000D01*
G04 #@! TO.N,Net-(D11-Pad2)*
X220407500Y-52070000D02*
X223837500Y-55500000D01*
X218440000Y-52070000D02*
X220407500Y-52070000D01*
G04 #@! TO.N,Net-(D12-Pad2)*
X239457500Y-52070000D02*
X242887500Y-55500000D01*
X237490000Y-52070000D02*
X239457500Y-52070000D01*
G04 #@! TO.N,Net-(D13-Pad2)*
X258507500Y-52070000D02*
X261937500Y-55500000D01*
X256540000Y-52070000D02*
X258507500Y-52070000D01*
G04 #@! TO.N,Net-(D14-Pad2)*
X277557500Y-52070000D02*
X280987500Y-55500000D01*
X275590000Y-52070000D02*
X277557500Y-52070000D01*
G04 #@! TO.N,Net-(D15-Pad2)*
X32288750Y-71120000D02*
X35718750Y-74550000D01*
X30321250Y-71120000D02*
X32288750Y-71120000D01*
G04 #@! TO.N,ROW1*
X69883490Y-60354010D02*
X71437500Y-58800000D01*
X33337500Y-58800000D02*
X34891510Y-60354010D01*
X107983490Y-60354010D02*
X109537500Y-58800000D01*
X69883490Y-60354010D02*
X107983490Y-60354010D01*
X146083490Y-60354010D02*
X147637500Y-58800000D01*
X107983490Y-60354010D02*
X146083490Y-60354010D01*
X184183490Y-60354010D02*
X185737500Y-58800000D01*
X146083490Y-60354010D02*
X184183490Y-60354010D01*
X222283490Y-60354010D02*
X223837500Y-58800000D01*
X184183490Y-60354010D02*
X222283490Y-60354010D01*
X260383490Y-60354010D02*
X261937500Y-58800000D01*
X222283490Y-60354010D02*
X260383490Y-60354010D01*
X34891510Y-60354010D02*
X37854010Y-60354010D01*
X37854010Y-60354010D02*
X37345990Y-60354010D01*
X37854010Y-60354010D02*
X38945990Y-60354010D01*
X38945990Y-60354010D02*
X69883490Y-60354010D01*
X35288057Y-69154011D02*
X32611942Y-69154010D01*
X38945990Y-60354010D02*
X38311942Y-60354011D01*
X32057932Y-68600000D02*
X28154009Y-68600000D01*
X27754012Y-68999997D02*
X27754012Y-71111944D01*
X32611942Y-69154010D02*
X32057932Y-68600000D01*
X38311942Y-60354011D02*
X35954011Y-62711943D01*
X35954010Y-68488058D02*
X35288057Y-69154011D01*
X31208021Y-74565953D02*
X31208021Y-83208021D01*
X31208021Y-83208021D02*
X33475000Y-85475000D01*
X33475000Y-85475000D02*
X39345000Y-85475000D01*
X39345000Y-85475000D02*
X39782500Y-85475000D01*
X35954011Y-62711943D02*
X35954010Y-68488058D01*
X27754012Y-71111944D02*
X31208021Y-74565953D01*
X28154009Y-68600000D02*
X27754012Y-68999997D01*
G04 #@! TO.N,Net-(D16-Pad2)*
X51752500Y-71120000D02*
X53372500Y-69500000D01*
X53372500Y-69500000D02*
X55700000Y-69500000D01*
X55700000Y-69500000D02*
X56100000Y-69900000D01*
X56100000Y-73500000D02*
X57150000Y-74550000D01*
X56100000Y-69900000D02*
X56100000Y-73500000D01*
G04 #@! TO.N,Net-(D17-Pad2)*
X72770000Y-71120000D02*
X76200000Y-74550000D01*
X70802500Y-71120000D02*
X72770000Y-71120000D01*
G04 #@! TO.N,Net-(D18-Pad2)*
X91820000Y-71120000D02*
X95250000Y-74550000D01*
X89852500Y-71120000D02*
X91820000Y-71120000D01*
G04 #@! TO.N,Net-(D19-Pad2)*
X110870000Y-71120000D02*
X114300000Y-74550000D01*
X108902500Y-71120000D02*
X110870000Y-71120000D01*
G04 #@! TO.N,Net-(D20-Pad2)*
X129920000Y-71120000D02*
X133350000Y-74550000D01*
X127952500Y-71120000D02*
X129920000Y-71120000D01*
G04 #@! TO.N,Net-(D21-Pad2)*
X148970000Y-71120000D02*
X152400000Y-74550000D01*
X147002500Y-71120000D02*
X148970000Y-71120000D01*
G04 #@! TO.N,Net-(D22-Pad2)*
X168020000Y-71120000D02*
X171450000Y-74550000D01*
X166052500Y-71120000D02*
X168020000Y-71120000D01*
G04 #@! TO.N,Net-(D23-Pad2)*
X187070000Y-71120000D02*
X190500000Y-74550000D01*
X185102500Y-71120000D02*
X187070000Y-71120000D01*
G04 #@! TO.N,Net-(D24-Pad2)*
X206120000Y-71120000D02*
X209550000Y-74550000D01*
X204152500Y-71120000D02*
X206120000Y-71120000D01*
G04 #@! TO.N,Net-(D25-Pad2)*
X225170000Y-71120000D02*
X228600000Y-74550000D01*
X223202500Y-71120000D02*
X225170000Y-71120000D01*
G04 #@! TO.N,Net-(D26-Pad2)*
X244220000Y-71120000D02*
X247650000Y-74550000D01*
X242252500Y-71120000D02*
X244220000Y-71120000D01*
G04 #@! TO.N,Net-(D27-Pad2)*
X270413750Y-71120000D02*
X273843750Y-74550000D01*
X268446250Y-71120000D02*
X270413750Y-71120000D01*
G04 #@! TO.N,Net-(D28-Pad2)*
X24500000Y-93600000D02*
X24500000Y-93000000D01*
X27330000Y-90170000D02*
X35083750Y-90170000D01*
X24500000Y-93000000D02*
X27330000Y-90170000D01*
G04 #@! TO.N,ROW2*
X52387500Y-58800000D02*
X52500000Y-58800000D01*
X52387500Y-58800000D02*
X53487500Y-59900000D01*
X68698898Y-59900000D02*
X70698898Y-57900000D01*
X53487500Y-59900000D02*
X68698898Y-59900000D01*
X70698898Y-57900000D02*
X72300000Y-57900000D01*
X72300000Y-57900000D02*
X74300000Y-59900000D01*
X89387500Y-59900000D02*
X90487500Y-58800000D01*
X74300000Y-59900000D02*
X89200000Y-59900000D01*
X89200000Y-59900000D02*
X89387500Y-59900000D01*
X127487500Y-59900000D02*
X128587500Y-58800000D01*
X150400000Y-59900000D02*
X165587500Y-59900000D01*
X148400000Y-57900000D02*
X150400000Y-59900000D01*
X165587500Y-59900000D02*
X166687500Y-58800000D01*
X146898898Y-57900000D02*
X148400000Y-57900000D01*
X144898898Y-59900000D02*
X146898898Y-57900000D01*
X127487500Y-59900000D02*
X144898898Y-59900000D01*
X112276102Y-59900000D02*
X127487500Y-59900000D01*
X110276102Y-57900000D02*
X112276102Y-59900000D01*
X108700000Y-57900000D02*
X110276102Y-57900000D01*
X106700000Y-59900000D02*
X108700000Y-57900000D01*
X89200000Y-59900000D02*
X106700000Y-59900000D01*
X182998898Y-59900000D02*
X184998898Y-57900000D01*
X165587500Y-59900000D02*
X182998898Y-59900000D01*
X186476102Y-57900000D02*
X188476102Y-59900000D01*
X184998898Y-57900000D02*
X186476102Y-57900000D01*
X203687500Y-59900000D02*
X204787500Y-58800000D01*
X188476102Y-59900000D02*
X203687500Y-59900000D01*
X221098898Y-59900000D02*
X223098898Y-57900000D01*
X203687500Y-59900000D02*
X221098898Y-59900000D01*
X224576102Y-57900000D02*
X226576102Y-59900000D01*
X223098898Y-57900000D02*
X224576102Y-57900000D01*
X241787500Y-59900000D02*
X242887500Y-58800000D01*
X226576102Y-59900000D02*
X241787500Y-59900000D01*
X279887500Y-59900000D02*
X280987500Y-58800000D01*
X264676102Y-59900000D02*
X279887500Y-59900000D01*
X262676102Y-57900000D02*
X264676102Y-59900000D01*
X261198898Y-57900000D02*
X262676102Y-57900000D01*
X259198898Y-59900000D02*
X261198898Y-57900000D01*
X241787500Y-59900000D02*
X259198898Y-59900000D01*
X39736510Y-86020990D02*
X39782500Y-85975000D01*
X36720990Y-86020990D02*
X39736510Y-86020990D01*
X36720990Y-86020990D02*
X36900000Y-86020990D01*
X32000000Y-58400000D02*
X32000000Y-59400000D01*
X30754010Y-83454010D02*
X33320990Y-86020990D01*
X33320990Y-86020990D02*
X36720990Y-86020990D01*
X32000000Y-59400000D02*
X35500000Y-62900000D01*
X35500000Y-62900000D02*
X35500000Y-68300000D01*
X27300001Y-71300001D02*
X30754010Y-74754010D01*
X53487500Y-59900000D02*
X36076102Y-59900000D01*
X36076102Y-59900000D02*
X34076102Y-57900000D01*
X27300001Y-68811940D02*
X27300001Y-71300001D01*
X34076102Y-57900000D02*
X32500000Y-57900000D01*
X32500000Y-57900000D02*
X32000000Y-58400000D01*
X35500000Y-68300000D02*
X35100000Y-68700000D01*
X35100000Y-68700000D02*
X32800000Y-68700000D01*
X32800000Y-68700000D02*
X32245989Y-68145989D01*
X27965952Y-68145989D02*
X27300001Y-68811940D01*
X32245989Y-68145989D02*
X27965952Y-68145989D01*
X30754010Y-74754010D02*
X30754010Y-83454010D01*
G04 #@! TO.N,Net-(D29-Pad2)*
X63245000Y-90170000D02*
X66675000Y-93600000D01*
X61277500Y-90170000D02*
X63245000Y-90170000D01*
G04 #@! TO.N,Net-(D30-Pad2)*
X82295000Y-90170000D02*
X85725000Y-93600000D01*
X80327500Y-90170000D02*
X82295000Y-90170000D01*
G04 #@! TO.N,Net-(D31-Pad2)*
X101345000Y-90170000D02*
X104775000Y-93600000D01*
X99377500Y-90170000D02*
X101345000Y-90170000D01*
G04 #@! TO.N,Net-(D32-Pad2)*
X120395000Y-90170000D02*
X123825000Y-93600000D01*
X118427500Y-90170000D02*
X120395000Y-90170000D01*
G04 #@! TO.N,Net-(D33-Pad2)*
X139445000Y-90170000D02*
X142875000Y-93600000D01*
X137477500Y-90170000D02*
X139445000Y-90170000D01*
G04 #@! TO.N,Net-(D34-Pad2)*
X158495000Y-90170000D02*
X161925000Y-93600000D01*
X156527500Y-90170000D02*
X158495000Y-90170000D01*
G04 #@! TO.N,Net-(D35-Pad2)*
X177545000Y-90170000D02*
X180975000Y-93600000D01*
X175577500Y-90170000D02*
X177545000Y-90170000D01*
G04 #@! TO.N,Net-(D36-Pad2)*
X196595000Y-90170000D02*
X200025000Y-93600000D01*
X194627500Y-90170000D02*
X196595000Y-90170000D01*
G04 #@! TO.N,Net-(D37-Pad2)*
X215645000Y-90170000D02*
X219075000Y-93600000D01*
X213677500Y-90170000D02*
X215645000Y-90170000D01*
G04 #@! TO.N,Net-(D38-Pad2)*
X234695000Y-90170000D02*
X238125000Y-93600000D01*
X232727500Y-90170000D02*
X234695000Y-90170000D01*
G04 #@! TO.N,Net-(D39-Pad2)*
X256126250Y-90170000D02*
X259556250Y-93600000D01*
X254158750Y-90170000D02*
X256126250Y-90170000D01*
G04 #@! TO.N,Net-(D40-Pad2)*
X277557500Y-90170000D02*
X280987500Y-93600000D01*
X275590000Y-90170000D02*
X277557500Y-90170000D01*
G04 #@! TO.N,Net-(D41-Pad2)*
X32288750Y-109220000D02*
X35718750Y-112650000D01*
X30321250Y-109220000D02*
X32288750Y-109220000D01*
G04 #@! TO.N,ROW3*
X35718750Y-77850000D02*
X36850000Y-77850000D01*
X36850000Y-77850000D02*
X37550000Y-78550000D01*
X37550000Y-78550000D02*
X37675000Y-78675000D01*
X52800000Y-78800000D02*
X57457934Y-78800000D01*
X74695990Y-79354010D02*
X76200000Y-77850000D01*
X58011943Y-79354010D02*
X74695990Y-79354010D01*
X57457934Y-78800000D02*
X58011943Y-79354010D01*
X112795990Y-79354010D02*
X114300000Y-77850000D01*
X74695990Y-79354010D02*
X112795990Y-79354010D01*
X150895990Y-79354010D02*
X152400000Y-77850000D01*
X188995990Y-79354010D02*
X190500000Y-77850000D01*
X112795990Y-79354010D02*
X150754010Y-79354010D01*
X150754010Y-79354010D02*
X150895990Y-79354010D01*
X227095990Y-79354010D02*
X228600000Y-77850000D01*
X150754010Y-79354010D02*
X188645990Y-79354010D01*
X188645990Y-79354010D02*
X188995990Y-79354010D01*
X272339740Y-79354010D02*
X273843750Y-77850000D01*
X226554010Y-79354010D02*
X272339740Y-79354010D01*
X188645990Y-79354010D02*
X226554010Y-79354010D01*
X226554010Y-79354010D02*
X227095990Y-79354010D01*
X40470000Y-83670000D02*
X40470000Y-84287500D01*
X40250000Y-83450000D02*
X40470000Y-83670000D01*
X34697990Y-82872990D02*
X35275000Y-83450000D01*
X34697990Y-78870760D02*
X34697990Y-82872990D01*
X35275000Y-83450000D02*
X40250000Y-83450000D01*
X35718750Y-77850000D02*
X34697990Y-78870760D01*
G04 #@! TO.N,Net-(D42-Pad2)*
X58482500Y-109220000D02*
X61912500Y-112650000D01*
X56515000Y-109220000D02*
X58482500Y-109220000D01*
G04 #@! TO.N,Net-(D43-Pad2)*
X84676250Y-109220000D02*
X88106250Y-112650000D01*
X82708750Y-109220000D02*
X84676250Y-109220000D01*
G04 #@! TO.N,Net-(D44-Pad2)*
X118013750Y-109220000D02*
X121443750Y-112650000D01*
X116046250Y-109220000D02*
X118013750Y-109220000D01*
G04 #@! TO.N,Net-(D45-Pad2)*
X165638750Y-109220000D02*
X169068750Y-112650000D01*
X163671250Y-109220000D02*
X165638750Y-109220000D01*
G04 #@! TO.N,Net-(D46-Pad2)*
X203738750Y-109220000D02*
X207168750Y-112650000D01*
X201771250Y-109220000D02*
X203738750Y-109220000D01*
G04 #@! TO.N,Net-(D47-Pad2)*
X229932500Y-109220000D02*
X233362500Y-112650000D01*
X227965000Y-109220000D02*
X229932500Y-109220000D01*
G04 #@! TO.N,Net-(D48-Pad2)*
X256126250Y-109220000D02*
X259556250Y-112650000D01*
X254158750Y-109220000D02*
X256126250Y-109220000D01*
G04 #@! TO.N,Net-(D49-Pad2)*
X277557500Y-109220000D02*
X280987500Y-112650000D01*
X275590000Y-109220000D02*
X277557500Y-109220000D01*
D21*
G04 #@! TO.N,VBUS*
X71025000Y-64450000D02*
X75350000Y-64450000D01*
X75350000Y-64450000D02*
X77500000Y-66600000D01*
X68375000Y-73300000D02*
X64200000Y-69125000D01*
X58774999Y-67939531D02*
X58774999Y-67109811D01*
X59960468Y-69125000D02*
X58774999Y-67939531D01*
X64200000Y-69125000D02*
X59960468Y-69125000D01*
X58774999Y-69975001D02*
X57500000Y-71250000D01*
X58774999Y-67109811D02*
X58774999Y-69975001D01*
X73100000Y-73300000D02*
X68375000Y-73300000D01*
X77500000Y-74929750D02*
X76354750Y-76075000D01*
X77500000Y-66600000D02*
X77500000Y-74929750D01*
X75875000Y-76075000D02*
X73100000Y-73300000D01*
X76354750Y-76075000D02*
X75875000Y-76075000D01*
D22*
G04 #@! TO.N,D-*
X57824999Y-66924999D02*
X57824999Y-67109811D01*
X52479010Y-66179010D02*
X57079010Y-66179010D01*
X52475000Y-66175000D02*
X52479010Y-66179010D01*
X57079010Y-66179010D02*
X57824999Y-66924999D01*
X51593750Y-67056250D02*
X52475000Y-66175000D01*
X51593750Y-67143750D02*
X51593750Y-67056250D01*
X71295990Y-65720990D02*
X71025000Y-65450000D01*
X73829010Y-67788057D02*
X73829009Y-66336943D01*
X73829009Y-66336943D02*
X73213056Y-65720990D01*
X65960744Y-66252810D02*
X69136943Y-69429010D01*
X58172190Y-66252810D02*
X65960744Y-66252810D01*
X57824999Y-67109811D02*
X57824999Y-66600001D01*
X57824999Y-66600001D02*
X58172190Y-66252810D01*
X69136943Y-69429010D02*
X72188057Y-69429009D01*
X72188057Y-69429009D02*
X73829010Y-67788057D01*
X73213056Y-65720990D02*
X71295990Y-65720990D01*
G04 #@! TO.N,D+*
X51593750Y-64762500D02*
X51593750Y-64818750D01*
X51593750Y-64818750D02*
X52450000Y-65675000D01*
X52450000Y-65675000D02*
X57059810Y-65675000D01*
X57059810Y-65675000D02*
X57824999Y-64909811D01*
X70159549Y-68482168D02*
X70195290Y-68539049D01*
X70055165Y-68398924D02*
X70112046Y-68434665D01*
X69794834Y-68398924D02*
X69858243Y-68376736D01*
X69737953Y-68434665D02*
X69794834Y-68398924D01*
X69654709Y-68539049D02*
X69690450Y-68482168D01*
X69625000Y-68669214D02*
X69632521Y-68602458D01*
X68748955Y-67564095D02*
X68748954Y-67631273D01*
X69595290Y-68805166D02*
X69617478Y-68741757D01*
X69559549Y-68862047D02*
X69595290Y-68805166D01*
X68704859Y-67438075D02*
X68734005Y-67498600D01*
X69617478Y-68741757D02*
X69625000Y-68675000D01*
X69512046Y-68909550D02*
X69559549Y-68862047D01*
X69858243Y-68376736D02*
X69925000Y-68369214D01*
X68623528Y-68273528D02*
X69325000Y-68975000D01*
X68552493Y-68160478D02*
X68581641Y-68221004D01*
X68086214Y-67496031D02*
X68146741Y-67466885D01*
X68537545Y-68094985D02*
X68552493Y-68160478D01*
X68581642Y-67901786D02*
X68552493Y-67962310D01*
X68020721Y-67510981D02*
X68086214Y-67496031D01*
X68704858Y-67757293D02*
X68662973Y-67809816D01*
X70112046Y-68434665D02*
X70159549Y-68482168D01*
X69632521Y-68602458D02*
X69654709Y-68539049D01*
X69925000Y-68369214D02*
X69991756Y-68376736D01*
X68146741Y-67466885D02*
X68199264Y-67425000D01*
X58188398Y-65766812D02*
X62966812Y-65766812D01*
X70195290Y-68539049D02*
X70217478Y-68602458D01*
X67827521Y-67466884D02*
X67888048Y-67496032D01*
X70225000Y-68675000D02*
X70232521Y-68741757D01*
X66100000Y-65750000D02*
X67775000Y-67425000D01*
X68351758Y-67314520D02*
X68417253Y-67299571D01*
X71052515Y-66422485D02*
X71025000Y-66450000D01*
X68734005Y-67498600D02*
X68748955Y-67564095D01*
X69690450Y-68482168D02*
X69737953Y-68434665D01*
X70458243Y-68967479D02*
X70525000Y-68975000D01*
X57824999Y-65403413D02*
X58188398Y-65766812D01*
X69391756Y-68967479D02*
X69455165Y-68945291D01*
X62966812Y-65766812D02*
X62983624Y-65750000D01*
X69991756Y-68376736D02*
X70055165Y-68398924D01*
X68610452Y-67343668D02*
X68662973Y-67385552D01*
X69625000Y-68675000D02*
X69625000Y-68669214D01*
X57824999Y-64909811D02*
X57824999Y-65403413D01*
X68238709Y-67385552D02*
X68291232Y-67343667D01*
X68662973Y-67809816D02*
X68623527Y-67849263D01*
X68623527Y-67849263D02*
X68581642Y-67901786D01*
X62983624Y-65750000D02*
X66100000Y-65750000D01*
X73375000Y-66525000D02*
X73025000Y-66175000D01*
X68417253Y-67299571D02*
X68484431Y-67299570D01*
X70217478Y-68602458D02*
X70225000Y-68669214D01*
X68537544Y-68027805D02*
X68537545Y-68094985D01*
X67953541Y-67510980D02*
X68020721Y-67510981D01*
X70525000Y-68975000D02*
X72000000Y-68975000D01*
X68199264Y-67425000D02*
X68238709Y-67385552D01*
X68484431Y-67299570D02*
X68549926Y-67314520D01*
X69455165Y-68945291D02*
X69512046Y-68909550D01*
X67775000Y-67425000D02*
X67827521Y-67466884D01*
X68549926Y-67314520D02*
X68610452Y-67343668D01*
X69325000Y-68975000D02*
X69391756Y-68967479D01*
X73375000Y-67600000D02*
X73375000Y-66525000D01*
X67888048Y-67496032D02*
X67953541Y-67510980D01*
X73025000Y-66175000D02*
X71300000Y-66175000D01*
X68662973Y-67385552D02*
X68704859Y-67438075D01*
X68581641Y-68221004D02*
X68623528Y-68273528D01*
X68291232Y-67343667D02*
X68351758Y-67314520D01*
X68552493Y-67962310D02*
X68537544Y-68027805D01*
X68734006Y-67696768D02*
X68704858Y-67757293D01*
X68748954Y-67631273D02*
X68734006Y-67696768D01*
X70225000Y-68669214D02*
X70225000Y-68675000D01*
X70232521Y-68741757D02*
X70254709Y-68805166D01*
X70254709Y-68805166D02*
X70290450Y-68862047D01*
X70290450Y-68862047D02*
X70337953Y-68909550D01*
X70337953Y-68909550D02*
X70394834Y-68945291D01*
X70394834Y-68945291D02*
X70458243Y-68967479D01*
X72000000Y-68975000D02*
X73375000Y-67600000D01*
X71300000Y-66175000D02*
X71052515Y-66422485D01*
G04 #@! TO.N,MOSI*
X24185000Y-87000000D02*
X23975000Y-87210000D01*
X24210000Y-86975000D02*
X23975000Y-87210000D01*
X39782500Y-86975000D02*
X24210000Y-86975000D01*
G04 #@! TO.N,SCK*
X24900000Y-88500000D02*
X22725000Y-88500000D01*
X22725000Y-88500000D02*
X21435000Y-87210000D01*
X25925000Y-87475000D02*
X24900000Y-88500000D01*
X39782500Y-87475000D02*
X25925000Y-87475000D01*
G04 #@! TO.N,MISO*
X22715000Y-85950000D02*
X21435000Y-84670000D01*
X24456962Y-85950000D02*
X22715000Y-85950000D01*
X24981962Y-86475000D02*
X24456962Y-85950000D01*
X39782500Y-86475000D02*
X24981962Y-86475000D01*
G04 #@! TO.N,COL1*
X40970000Y-89162500D02*
X41000000Y-89192500D01*
X49159715Y-102970050D02*
X49159715Y-110754715D01*
X42189668Y-96000003D02*
X49159715Y-102970050D01*
X42189668Y-96000000D02*
X42189668Y-96000003D01*
X42189665Y-96000000D02*
X42189668Y-96000000D01*
X41591980Y-95402315D02*
X42189665Y-96000000D01*
X49159715Y-110754715D02*
X50165000Y-111760000D01*
X41006987Y-91849053D02*
X41591980Y-92434046D01*
X41591980Y-92434046D02*
X41591980Y-95402315D01*
X40970000Y-91849053D02*
X41006987Y-91849053D01*
X40970000Y-89162500D02*
X40970000Y-91849053D01*
G04 #@! TO.N,COL2*
X69226398Y-92710000D02*
X73977500Y-92710000D01*
X65500000Y-96436398D02*
X69226398Y-92710000D01*
X44657500Y-86975000D02*
X45287920Y-86975000D01*
X65500000Y-97432934D02*
X65500000Y-96436398D01*
X45197051Y-92000000D02*
X45197049Y-92489246D01*
X45287920Y-86975000D02*
X46054010Y-87741090D01*
X45197051Y-91045016D02*
X45197051Y-92000000D01*
X49130122Y-98445990D02*
X54545990Y-98445990D01*
X64259943Y-98672991D02*
X65500000Y-97432934D01*
X46054010Y-87741090D02*
X46054010Y-90188057D01*
X54545990Y-98445990D02*
X54772991Y-98672991D01*
X46054010Y-90188057D02*
X45197051Y-91045016D01*
X44800000Y-92886295D02*
X44800000Y-94115868D01*
X45197049Y-92489246D02*
X44800000Y-92886295D01*
X44800000Y-94115868D02*
X49130122Y-98445990D01*
X54772991Y-98672991D02*
X64259943Y-98672991D01*
G04 #@! TO.N,COL3*
X41470000Y-89162500D02*
X41470000Y-91030000D01*
X41470000Y-91030000D02*
X41454010Y-91045990D01*
X109696250Y-109096250D02*
X109696250Y-111760000D01*
X103116040Y-102516040D02*
X109696250Y-109096250D01*
X49347772Y-102516040D02*
X103116040Y-102516040D01*
X42311945Y-95480211D02*
X49347772Y-102516040D01*
X42045990Y-95214258D02*
X42311945Y-95480211D01*
X42045990Y-92245990D02*
X42045990Y-95214258D01*
X41470000Y-91670000D02*
X42045990Y-92245990D01*
X41470000Y-91030000D02*
X41470000Y-91670000D01*
G04 #@! TO.N,COL4*
X157321250Y-107421250D02*
X157321250Y-111760000D01*
X151962030Y-102062030D02*
X157321250Y-107421250D01*
X44486901Y-97013100D02*
X49535829Y-102062030D01*
X42500000Y-95026201D02*
X44486901Y-97013100D01*
X42927001Y-91548961D02*
X42500000Y-91975962D01*
X42927001Y-90851039D02*
X42927001Y-91548961D01*
X49535829Y-102062030D02*
X151962030Y-102062030D01*
X42470000Y-90394038D02*
X42927001Y-90851039D01*
X42500000Y-91975962D02*
X42500000Y-95026201D01*
X42470000Y-89162500D02*
X42470000Y-90394038D01*
G04 #@! TO.N,COL5*
X49723886Y-101608020D02*
X185269270Y-101608020D01*
X43219964Y-95104097D02*
X49723886Y-101608020D01*
X185269270Y-101608020D02*
X195421250Y-111760000D01*
X42954010Y-94838144D02*
X43219964Y-95104097D01*
X42954010Y-92164019D02*
X42954010Y-94838144D01*
X43381011Y-91737018D02*
X42954010Y-92164019D01*
X43381011Y-90662982D02*
X43381011Y-91737018D01*
X42970000Y-90251972D02*
X43381011Y-90662982D01*
X42970000Y-89162500D02*
X42970000Y-90251972D01*
G04 #@! TO.N,COL6*
X43408020Y-94650087D02*
X49911943Y-101154010D01*
X49911943Y-101154010D02*
X211009010Y-101154010D01*
X43408020Y-92352076D02*
X43408020Y-94650087D01*
X211009010Y-101154010D02*
X221615000Y-111760000D01*
X43835021Y-91925075D02*
X43408020Y-92352076D01*
X43835021Y-90474925D02*
X43835021Y-91925075D01*
X43470000Y-90109904D02*
X43835021Y-90474925D01*
X43470000Y-89162500D02*
X43470000Y-90109904D01*
G04 #@! TO.N,COL7*
X43970000Y-89162500D02*
X43970000Y-89967838D01*
X44289031Y-92113132D02*
X43862030Y-92540133D01*
X43970000Y-89967838D02*
X44289031Y-90286868D01*
X44289031Y-90286868D02*
X44289031Y-92113132D01*
X43862030Y-92540133D02*
X43862030Y-92837970D01*
X43862030Y-92837970D02*
X43862030Y-93000000D01*
X258180000Y-100700000D02*
X269240000Y-111760000D01*
X50100000Y-100700000D02*
X258180000Y-100700000D01*
X43862030Y-94462030D02*
X50100000Y-100700000D01*
X43862030Y-92837970D02*
X43862030Y-94462030D01*
G04 #@! TO.N,Net-(R1-Pad2)*
X41970000Y-89162500D02*
X41970000Y-90970000D01*
X41970000Y-90970000D02*
X42200000Y-91200000D01*
X38900000Y-94700000D02*
X38900000Y-93425000D01*
X39500000Y-95300000D02*
X38900000Y-94700000D01*
G04 #@! TO.N,Net-(R2-Pad1)*
X49637500Y-64762500D02*
X49768750Y-64762500D01*
X40623000Y-69915972D02*
X44885972Y-65653000D01*
X44885972Y-65653000D02*
X48747000Y-65653000D01*
X40623000Y-80784028D02*
X40623000Y-69915972D01*
X48747000Y-65653000D02*
X49637500Y-64762500D01*
X42493000Y-82654028D02*
X40623000Y-80784028D01*
X42493000Y-84264500D02*
X42493000Y-82654028D01*
X42470000Y-84287500D02*
X42493000Y-84264500D01*
G04 #@! TO.N,Net-(R3-Pad1)*
X48732000Y-66107000D02*
X49768750Y-67143750D01*
X45074028Y-66107000D02*
X48732000Y-66107000D01*
X41077000Y-70104028D02*
X45074028Y-66107000D01*
X41077000Y-77753000D02*
X41077000Y-70104028D01*
X41084521Y-77819756D02*
X41077000Y-77753000D01*
X41106709Y-77883165D02*
X41084521Y-77819756D01*
X41142450Y-77940046D02*
X41106709Y-77883165D01*
X41189953Y-77987549D02*
X41142450Y-77940046D01*
X41246834Y-78023290D02*
X41189953Y-77987549D01*
X41310243Y-78660521D02*
X41377000Y-78653000D01*
X41246834Y-78682709D02*
X41310243Y-78660521D01*
X41310243Y-78045478D02*
X41246834Y-78023290D01*
X41377000Y-78053000D02*
X41310243Y-78045478D01*
X41189953Y-78718450D02*
X41246834Y-78682709D01*
X41412615Y-78053000D02*
X41377000Y-78053000D01*
X41142450Y-78765953D02*
X41189953Y-78718450D01*
X41479371Y-78060521D02*
X41412615Y-78053000D01*
X42970000Y-84287500D02*
X42947000Y-84264500D01*
X41106709Y-78822834D02*
X41142450Y-78765953D01*
X41542780Y-78082709D02*
X41479371Y-78060521D01*
X41377000Y-78653000D02*
X41412615Y-78653000D01*
X41412615Y-78653000D02*
X41479371Y-78645478D01*
X41705093Y-78419756D02*
X41712615Y-78353000D01*
X41599661Y-78587549D02*
X41647164Y-78540046D01*
X41647164Y-78540046D02*
X41682905Y-78483165D01*
X41682905Y-78483165D02*
X41705093Y-78419756D01*
X42947000Y-84264500D02*
X42947000Y-82465972D01*
X41479371Y-78645478D02*
X41542780Y-78623290D01*
X41712615Y-78353000D02*
X41705093Y-78286243D01*
X42947000Y-82465972D02*
X41077000Y-80595972D01*
X41542780Y-78623290D02*
X41599661Y-78587549D01*
X41705093Y-78286243D02*
X41682905Y-78222834D01*
X41077000Y-80595972D02*
X41077000Y-78953000D01*
X41682905Y-78222834D02*
X41647164Y-78165953D01*
X41077000Y-78953000D02*
X41084521Y-78886243D01*
X41647164Y-78165953D02*
X41599661Y-78118450D01*
X41084521Y-78886243D02*
X41106709Y-78822834D01*
X41599661Y-78118450D02*
X41542780Y-78082709D01*
G04 #@! TO.N,ROW4*
X94200000Y-78900000D02*
X95250000Y-77850000D01*
X78888602Y-78900000D02*
X94200000Y-78900000D01*
X76988602Y-77000000D02*
X78888602Y-78900000D01*
X73511398Y-78900000D02*
X75411398Y-77000000D01*
X58200000Y-78900000D02*
X73511398Y-78900000D01*
X75411398Y-77000000D02*
X76988602Y-77000000D01*
X57150000Y-77850000D02*
X58200000Y-78900000D01*
X50800000Y-79700000D02*
X48400000Y-79700000D01*
X51300000Y-79200000D02*
X50800000Y-79700000D01*
X51324038Y-79200000D02*
X51300000Y-79200000D01*
X52674038Y-77850000D02*
X51324038Y-79200000D01*
X57150000Y-77850000D02*
X52674038Y-77850000D01*
X117000000Y-78900000D02*
X132300000Y-78900000D01*
X115100000Y-77000000D02*
X117000000Y-78900000D01*
X113511398Y-77000000D02*
X115100000Y-77000000D01*
X132300000Y-78900000D02*
X133350000Y-77850000D01*
X111611398Y-78900000D02*
X113511398Y-77000000D01*
X94200000Y-78900000D02*
X111611398Y-78900000D01*
X155088602Y-78900000D02*
X170400000Y-78900000D01*
X153188602Y-77000000D02*
X155088602Y-78900000D01*
X170400000Y-78900000D02*
X171450000Y-77850000D01*
X151611398Y-77000000D02*
X153188602Y-77000000D01*
X149711398Y-78900000D02*
X151611398Y-77000000D01*
X132300000Y-78900000D02*
X149711398Y-78900000D01*
X208500000Y-78900000D02*
X209550000Y-77850000D01*
X191300000Y-77000000D02*
X193200000Y-78900000D01*
X189711398Y-77000000D02*
X191300000Y-77000000D01*
X187811398Y-78900000D02*
X189711398Y-77000000D01*
X170400000Y-78900000D02*
X187811398Y-78900000D01*
X208200000Y-78900000D02*
X225800000Y-78900000D01*
X193200000Y-78900000D02*
X208200000Y-78900000D01*
X208200000Y-78900000D02*
X208500000Y-78900000D01*
X225800000Y-78900000D02*
X227700000Y-77000000D01*
X229388602Y-77000000D02*
X231288602Y-78900000D01*
X227700000Y-77000000D02*
X229388602Y-77000000D01*
X246600000Y-78900000D02*
X247650000Y-77850000D01*
X231288602Y-78900000D02*
X246600000Y-78900000D01*
X38494078Y-81052010D02*
X40970000Y-83527932D01*
X37052010Y-81052010D02*
X38494078Y-81052010D01*
X36700000Y-80700000D02*
X37052010Y-81052010D01*
X40970000Y-83527932D02*
X40970000Y-84287500D01*
X36700000Y-79700000D02*
X36700000Y-80700000D01*
G04 #@! TO.N,ROW5*
X39736510Y-87929010D02*
X39782500Y-87975000D01*
X122270990Y-98454010D02*
X123825000Y-96900000D01*
X160370990Y-98454010D02*
X161925000Y-96900000D01*
X122270990Y-98454010D02*
X160370990Y-98454010D01*
X53972999Y-99627001D02*
X64427001Y-99627001D01*
X64427001Y-99627001D02*
X64590065Y-99627001D01*
X65799992Y-98454010D02*
X64627001Y-99627001D01*
X81954010Y-98454010D02*
X65799992Y-98454010D01*
X90145990Y-98454010D02*
X90137500Y-98462500D01*
X81962500Y-98462500D02*
X81954010Y-98454010D01*
X122270990Y-98454010D02*
X90145990Y-98454010D01*
X64427001Y-99627001D02*
X64627001Y-99627001D01*
X85725000Y-96900000D02*
X84162500Y-98462500D01*
X84162500Y-98462500D02*
X83137500Y-98462500D01*
X83137500Y-98462500D02*
X81962500Y-98462500D01*
X90137500Y-98462500D02*
X83137500Y-98462500D01*
X27227001Y-99627001D02*
X24500000Y-96900000D01*
X29972999Y-99627001D02*
X27227001Y-99627001D01*
X198470990Y-98454010D02*
X200025000Y-96900000D01*
X160370990Y-98454010D02*
X198470990Y-98454010D01*
X236570990Y-98454010D02*
X238125000Y-96900000D01*
X198470990Y-98454010D02*
X236570990Y-98454010D01*
X279433490Y-98454010D02*
X280987500Y-96900000D01*
X236570990Y-98454010D02*
X279433490Y-98454010D01*
X32872999Y-99627001D02*
X29972999Y-99627001D01*
X35700000Y-93000000D02*
X35700000Y-96800000D01*
X36700000Y-90557933D02*
X36700000Y-92000000D01*
X39236943Y-88020990D02*
X36700000Y-90557933D01*
X39779010Y-88020990D02*
X39236943Y-88020990D01*
X35700000Y-96800000D02*
X32872999Y-99627001D01*
X39782500Y-88017500D02*
X39779010Y-88020990D01*
X36700000Y-92000000D02*
X35700000Y-93000000D01*
X39782500Y-87975000D02*
X39782500Y-88017500D01*
G04 #@! TO.N,ROW6*
X103675000Y-98000000D02*
X104775000Y-96900000D01*
X124563602Y-96000000D02*
X126563602Y-98000000D01*
X123086398Y-96000000D02*
X124563602Y-96000000D01*
X126563602Y-98000000D02*
X141775000Y-98000000D01*
X121086398Y-98000000D02*
X123086398Y-96000000D01*
X141775000Y-98000000D02*
X142875000Y-96900000D01*
X103675000Y-98000000D02*
X121086398Y-98000000D01*
X64447999Y-99127001D02*
X66675000Y-96900000D01*
X59313463Y-99127001D02*
X64447999Y-99127001D01*
X88600000Y-98000000D02*
X103675000Y-98000000D01*
X86600000Y-96000000D02*
X88600000Y-98000000D01*
X84986398Y-96000000D02*
X86600000Y-96000000D01*
X82986398Y-98000000D02*
X84986398Y-96000000D01*
X67775000Y-98000000D02*
X82986398Y-98000000D01*
X66675000Y-96900000D02*
X67775000Y-98000000D01*
X159186398Y-98000000D02*
X161186398Y-96000000D01*
X141775000Y-98000000D02*
X159186398Y-98000000D01*
X162663602Y-96000000D02*
X164663602Y-98000000D01*
X161186398Y-96000000D02*
X162663602Y-96000000D01*
X179875000Y-98000000D02*
X180975000Y-96900000D01*
X164663602Y-98000000D02*
X179700000Y-98000000D01*
X179700000Y-98000000D02*
X179875000Y-98000000D01*
X217975000Y-98000000D02*
X219075000Y-96900000D01*
X200800000Y-96000000D02*
X202800000Y-98000000D01*
X199286398Y-96000000D02*
X200800000Y-96000000D01*
X197286398Y-98000000D02*
X199286398Y-96000000D01*
X179700000Y-98000000D02*
X197286398Y-98000000D01*
X217800000Y-98000000D02*
X235200000Y-98000000D01*
X202800000Y-98000000D02*
X217800000Y-98000000D01*
X217800000Y-98000000D02*
X217975000Y-98000000D01*
X235200000Y-98000000D02*
X237200000Y-96000000D01*
X239000000Y-96000000D02*
X241000000Y-98000000D01*
X237200000Y-96000000D02*
X239000000Y-96000000D01*
X258456250Y-98000000D02*
X259556250Y-96900000D01*
X241000000Y-98000000D02*
X258456250Y-98000000D01*
X54584935Y-99127001D02*
X59927001Y-99127001D01*
X54357934Y-98900000D02*
X54584935Y-99127001D01*
X48942066Y-98900000D02*
X54357934Y-98900000D01*
X44316040Y-92728189D02*
X44316040Y-94273974D01*
X44316040Y-94273974D02*
X48942066Y-98900000D01*
X44743040Y-92301189D02*
X44316040Y-92728189D01*
X44743041Y-90856959D02*
X44743040Y-92301189D01*
X45600000Y-87929148D02*
X45600000Y-90000000D01*
X45145852Y-87475000D02*
X45600000Y-87929148D01*
X45600000Y-90000000D02*
X44743041Y-90856959D01*
X44657500Y-87475000D02*
X45145852Y-87475000D01*
G04 #@! TO.N,ROW7*
X39425000Y-88475000D02*
X39782500Y-88475000D01*
X86602240Y-117454010D02*
X88106250Y-115950000D01*
X37222760Y-117454010D02*
X86602240Y-117454010D01*
X35718750Y-115950000D02*
X37222760Y-117454010D01*
X167564740Y-117454010D02*
X169068750Y-115950000D01*
X86602240Y-117454010D02*
X167564740Y-117454010D01*
X231858490Y-117454010D02*
X233362500Y-115950000D01*
X279483490Y-117454010D02*
X280987500Y-115950000D01*
X231554010Y-117454010D02*
X279483490Y-117454010D01*
X167564740Y-117454010D02*
X231554010Y-117454010D01*
X231554010Y-117454010D02*
X231858490Y-117454010D01*
X37100000Y-114568750D02*
X35718750Y-115950000D01*
X37100000Y-107791980D02*
X37100000Y-114568750D01*
X36154010Y-106845990D02*
X37100000Y-107791980D01*
X36154010Y-93188057D02*
X36154010Y-106845990D01*
X37154010Y-92188057D02*
X36154010Y-93188057D01*
X39424999Y-88475000D02*
X37154010Y-90745989D01*
X37154010Y-90745989D02*
X37154010Y-92188057D01*
X39782500Y-88475000D02*
X39424999Y-88475000D01*
G04 #@! TO.N,ROW8*
X120393750Y-117000000D02*
X121443750Y-115950000D01*
X90900000Y-117000000D02*
X120393750Y-117000000D01*
X85417648Y-117000000D02*
X87417648Y-115000000D01*
X88900000Y-115000000D02*
X90900000Y-117000000D01*
X87417648Y-115000000D02*
X88900000Y-115000000D01*
X61912500Y-115950000D02*
X62962500Y-117000000D01*
X62962500Y-117000000D02*
X85417648Y-117000000D01*
X166380148Y-117000000D02*
X168380148Y-115000000D01*
X120393750Y-117000000D02*
X166380148Y-117000000D01*
X169757352Y-115000000D02*
X171757352Y-117000000D01*
X168380148Y-115000000D02*
X169757352Y-115000000D01*
X206118750Y-117000000D02*
X207168750Y-115950000D01*
X171757352Y-117000000D02*
X206118750Y-117000000D01*
X230673898Y-117000000D02*
X232673898Y-115000000D01*
X206118750Y-117000000D02*
X230673898Y-117000000D01*
X234051102Y-115000000D02*
X236051102Y-117000000D01*
X232673898Y-115000000D02*
X234051102Y-115000000D01*
X258506250Y-117000000D02*
X259556250Y-115950000D01*
X236051102Y-117000000D02*
X258506250Y-117000000D01*
X40470000Y-89162500D02*
X40470000Y-92024096D01*
X40470000Y-92024096D02*
X41137970Y-92692066D01*
X41137970Y-92692066D02*
X41137970Y-95590372D01*
X41137970Y-95590372D02*
X46947599Y-101400000D01*
X46947599Y-101400000D02*
X46900000Y-101447599D01*
X46900000Y-101447599D02*
X46900000Y-115500000D01*
X48400000Y-117000000D02*
X63200000Y-117000000D01*
X46900000Y-115500000D02*
X48400000Y-117000000D01*
G04 #@! TO.N,Net-(J2-Pad5)*
X36000000Y-84362500D02*
X34637500Y-84362500D01*
X27750000Y-81150000D02*
X22450000Y-81150000D01*
X22450000Y-81150000D02*
X19200000Y-84400000D01*
X19200000Y-84400000D02*
X19200000Y-89075000D01*
X19875000Y-89750000D02*
X21435000Y-89750000D01*
X19200000Y-89075000D02*
X19875000Y-89750000D01*
X36612500Y-84975000D02*
X36000000Y-84362500D01*
X39782500Y-84975000D02*
X36612500Y-84975000D01*
X29800000Y-83200000D02*
X27750000Y-81150000D01*
X30299999Y-78600001D02*
X27750000Y-81150000D01*
X27894875Y-67575000D02*
X26800000Y-68669875D01*
X26800000Y-71500000D02*
X30299999Y-74999999D01*
X26800000Y-68669875D02*
X26800000Y-71500000D01*
X33975000Y-67575000D02*
X27894875Y-67575000D01*
X30299999Y-74999999D02*
X30299999Y-78600001D01*
G04 #@! TD*
D23*
G04 #@! TO.N,GND*
X42461300Y-86483700D02*
X42481300Y-86483700D01*
X42481300Y-86966300D01*
X42461300Y-86966300D01*
X42461300Y-86986300D01*
X41978700Y-86986300D01*
X41978700Y-86966300D01*
X41958700Y-86966300D01*
X41958700Y-86483700D01*
X41978700Y-86483700D01*
X41978700Y-86463700D01*
X42461300Y-86463700D01*
X42461300Y-86483700D01*
G04 #@! TA.AperFunction,Conductor*
D24*
G36*
X42461300Y-86483700D02*
G01*
X42481300Y-86483700D01*
X42481300Y-86966300D01*
X42461300Y-86966300D01*
X42461300Y-86986300D01*
X41978700Y-86986300D01*
X41978700Y-86966300D01*
X41958700Y-86966300D01*
X41958700Y-86483700D01*
X41978700Y-86483700D01*
X41978700Y-86463700D01*
X42461300Y-86463700D01*
X42461300Y-86483700D01*
G37*
G04 #@! TD.AperFunction*
D23*
X44898800Y-85862700D02*
X44918800Y-85862700D01*
X44918800Y-86087300D01*
X44898800Y-86087300D01*
X44898800Y-86100000D01*
X44416200Y-86100000D01*
X44416200Y-86087300D01*
X44396200Y-86087300D01*
X44396200Y-85862700D01*
X44416200Y-85862700D01*
X44416200Y-85850000D01*
X44898800Y-85850000D01*
X44898800Y-85862700D01*
G04 #@! TA.AperFunction,Conductor*
D24*
G36*
X44898800Y-85862700D02*
G01*
X44918800Y-85862700D01*
X44918800Y-86087300D01*
X44898800Y-86087300D01*
X44898800Y-86100000D01*
X44416200Y-86100000D01*
X44416200Y-86087300D01*
X44396200Y-86087300D01*
X44396200Y-85862700D01*
X44416200Y-85862700D01*
X44416200Y-85850000D01*
X44898800Y-85850000D01*
X44898800Y-85862700D01*
G37*
G04 #@! TD.AperFunction*
D23*
X42082300Y-84046200D02*
X42095000Y-84046200D01*
X42095000Y-84528800D01*
X42082300Y-84528800D01*
X42082300Y-84548800D01*
X41857700Y-84548800D01*
X41857700Y-84528800D01*
X41845000Y-84528800D01*
X41845000Y-84046200D01*
X41857700Y-84046200D01*
X41857700Y-84026200D01*
X42082300Y-84026200D01*
X42082300Y-84046200D01*
G04 #@! TA.AperFunction,Conductor*
D24*
G36*
X42082300Y-84046200D02*
G01*
X42095000Y-84046200D01*
X42095000Y-84528800D01*
X42082300Y-84528800D01*
X42082300Y-84548800D01*
X41857700Y-84548800D01*
X41857700Y-84528800D01*
X41845000Y-84528800D01*
X41845000Y-84046200D01*
X41857700Y-84046200D01*
X41857700Y-84026200D01*
X42082300Y-84026200D01*
X42082300Y-84046200D01*
G37*
G04 #@! TD.AperFunction*
G04 #@! TD*
D23*
G04 #@! TO.N,GND*
X54687300Y-90487300D02*
X48986022Y-90487300D01*
X48902075Y-90461835D01*
X48800000Y-90451781D01*
X48671475Y-90454300D01*
X48638475Y-90487300D01*
X48112578Y-90487300D01*
X48079138Y-87009545D01*
X49386271Y-88316679D01*
X49386271Y-89025000D01*
X49395181Y-89115469D01*
X49421570Y-89202461D01*
X49464423Y-89282634D01*
X49522094Y-89352906D01*
X49592366Y-89410577D01*
X49672539Y-89453430D01*
X49759531Y-89479819D01*
X49850000Y-89488729D01*
X50350000Y-89488729D01*
X50440469Y-89479819D01*
X50527461Y-89453430D01*
X50607634Y-89410577D01*
X50677906Y-89352906D01*
X50735577Y-89282634D01*
X50739657Y-89275000D01*
X50976781Y-89275000D01*
X50986835Y-89377075D01*
X51016609Y-89475227D01*
X51064959Y-89565685D01*
X51130028Y-89644972D01*
X51209315Y-89710041D01*
X51299773Y-89758391D01*
X51397925Y-89788165D01*
X51500000Y-89798219D01*
X51628525Y-89795700D01*
X51758700Y-89665525D01*
X51758700Y-88791300D01*
X52241300Y-88791300D01*
X52241300Y-89665525D01*
X52371475Y-89795700D01*
X52500000Y-89798219D01*
X52602075Y-89788165D01*
X52700227Y-89758391D01*
X52790685Y-89710041D01*
X52869972Y-89644972D01*
X52935041Y-89565685D01*
X52983391Y-89475227D01*
X53013165Y-89377075D01*
X53023219Y-89275000D01*
X53020700Y-88921475D01*
X52890525Y-88791300D01*
X52241300Y-88791300D01*
X51758700Y-88791300D01*
X51109475Y-88791300D01*
X50979300Y-88921475D01*
X50976781Y-89275000D01*
X50739657Y-89275000D01*
X50778430Y-89202461D01*
X50804819Y-89115469D01*
X50813729Y-89025000D01*
X50813729Y-88075000D01*
X50804819Y-87984531D01*
X50778430Y-87897539D01*
X50735577Y-87817366D01*
X50677906Y-87747094D01*
X50607634Y-87689423D01*
X50527461Y-87646570D01*
X50440469Y-87620181D01*
X50439700Y-87620105D01*
X50439700Y-87188729D01*
X50825000Y-87188729D01*
X50847634Y-87186500D01*
X50889959Y-87265685D01*
X50955028Y-87344972D01*
X51034315Y-87410041D01*
X51124773Y-87458391D01*
X51126771Y-87458997D01*
X51064959Y-87534315D01*
X51016609Y-87624773D01*
X50986835Y-87722925D01*
X50976781Y-87825000D01*
X50979300Y-88178525D01*
X51109475Y-88308700D01*
X51758700Y-88308700D01*
X51758700Y-87434475D01*
X51683700Y-87359475D01*
X51683700Y-86516300D01*
X52166300Y-86516300D01*
X52166300Y-87365525D01*
X52241300Y-87440525D01*
X52241300Y-88308700D01*
X52890525Y-88308700D01*
X53020700Y-88178525D01*
X53023219Y-87825000D01*
X53013165Y-87722925D01*
X52983391Y-87624773D01*
X52935041Y-87534315D01*
X52869972Y-87455028D01*
X52815364Y-87410213D01*
X52815685Y-87410041D01*
X52894972Y-87344972D01*
X52960041Y-87265685D01*
X53008391Y-87175227D01*
X53038165Y-87077075D01*
X53048219Y-86975000D01*
X53045700Y-86646475D01*
X52915525Y-86516300D01*
X52166300Y-86516300D01*
X51683700Y-86516300D01*
X51663700Y-86516300D01*
X51663700Y-86033700D01*
X51683700Y-86033700D01*
X51683700Y-85184475D01*
X52166300Y-85184475D01*
X52166300Y-86033700D01*
X52915525Y-86033700D01*
X53045700Y-85903525D01*
X53048219Y-85575000D01*
X53038165Y-85472925D01*
X53008391Y-85374773D01*
X52960041Y-85284315D01*
X52894972Y-85205028D01*
X52815685Y-85139959D01*
X52725227Y-85091609D01*
X52627075Y-85061835D01*
X52525000Y-85051781D01*
X52296475Y-85054300D01*
X52166300Y-85184475D01*
X51683700Y-85184475D01*
X51553525Y-85054300D01*
X51325000Y-85051781D01*
X51264276Y-85057762D01*
X51302366Y-84986500D01*
X51325000Y-84988729D01*
X52525000Y-84988729D01*
X52566696Y-84984622D01*
X52606791Y-84972460D01*
X52643741Y-84952709D01*
X52676129Y-84926129D01*
X52702709Y-84893741D01*
X52722460Y-84856791D01*
X52734622Y-84816696D01*
X52738729Y-84775000D01*
X52738729Y-83375000D01*
X52734622Y-83333304D01*
X52722460Y-83293209D01*
X52702709Y-83256259D01*
X52676129Y-83223871D01*
X52643741Y-83197291D01*
X52606791Y-83177540D01*
X52566696Y-83165378D01*
X52525000Y-83161271D01*
X51941679Y-83161271D01*
X51727316Y-82946909D01*
X51758700Y-82915525D01*
X51758700Y-82041300D01*
X52241300Y-82041300D01*
X52241300Y-82915525D01*
X52371475Y-83045700D01*
X52500000Y-83048219D01*
X52602075Y-83038165D01*
X52700227Y-83008391D01*
X52790685Y-82960041D01*
X52869972Y-82894972D01*
X52935041Y-82815685D01*
X52983391Y-82725227D01*
X53013165Y-82627075D01*
X53023219Y-82525000D01*
X53020700Y-82171475D01*
X52890525Y-82041300D01*
X52241300Y-82041300D01*
X51758700Y-82041300D01*
X51109475Y-82041300D01*
X50979300Y-82171475D01*
X50979106Y-82198699D01*
X50813729Y-82033322D01*
X50813729Y-81325000D01*
X50804819Y-81234531D01*
X50778430Y-81147539D01*
X50739658Y-81075000D01*
X50976781Y-81075000D01*
X50979300Y-81428525D01*
X51109475Y-81558700D01*
X51758700Y-81558700D01*
X51758700Y-80684475D01*
X52241300Y-80684475D01*
X52241300Y-81558700D01*
X52890525Y-81558700D01*
X53020700Y-81428525D01*
X53023219Y-81075000D01*
X53013165Y-80972925D01*
X52983391Y-80874773D01*
X52935041Y-80784315D01*
X52869972Y-80705028D01*
X52790685Y-80639959D01*
X52700227Y-80591609D01*
X52602075Y-80561835D01*
X52500000Y-80551781D01*
X52371475Y-80554300D01*
X52241300Y-80684475D01*
X51758700Y-80684475D01*
X51628525Y-80554300D01*
X51500000Y-80551781D01*
X51397925Y-80561835D01*
X51299773Y-80591609D01*
X51209315Y-80639959D01*
X51130028Y-80705028D01*
X51064959Y-80784315D01*
X51016609Y-80874773D01*
X50986835Y-80972925D01*
X50976781Y-81075000D01*
X50739658Y-81075000D01*
X50735577Y-81067366D01*
X50677906Y-80997094D01*
X50607634Y-80939423D01*
X50527461Y-80896570D01*
X50440469Y-80870181D01*
X50350000Y-80861271D01*
X49850000Y-80861271D01*
X49759531Y-80870181D01*
X49672539Y-80896570D01*
X49592366Y-80939423D01*
X49522094Y-80997094D01*
X49464423Y-81067366D01*
X49421570Y-81147539D01*
X49395181Y-81234531D01*
X49386271Y-81325000D01*
X49386271Y-82033321D01*
X48044194Y-83375398D01*
X48013456Y-80178608D01*
X48109778Y-80242968D01*
X48221282Y-80289155D01*
X48339654Y-80312700D01*
X48460346Y-80312700D01*
X48578718Y-80289155D01*
X48690222Y-80242968D01*
X48790574Y-80175915D01*
X48853789Y-80112700D01*
X54687300Y-80112700D01*
X54687300Y-90487300D01*
G04 #@! TA.AperFunction,Conductor*
D24*
G36*
X54687300Y-90487300D02*
G01*
X48986022Y-90487300D01*
X48902075Y-90461835D01*
X48800000Y-90451781D01*
X48671475Y-90454300D01*
X48638475Y-90487300D01*
X48112578Y-90487300D01*
X48079138Y-87009545D01*
X49386271Y-88316679D01*
X49386271Y-89025000D01*
X49395181Y-89115469D01*
X49421570Y-89202461D01*
X49464423Y-89282634D01*
X49522094Y-89352906D01*
X49592366Y-89410577D01*
X49672539Y-89453430D01*
X49759531Y-89479819D01*
X49850000Y-89488729D01*
X50350000Y-89488729D01*
X50440469Y-89479819D01*
X50527461Y-89453430D01*
X50607634Y-89410577D01*
X50677906Y-89352906D01*
X50735577Y-89282634D01*
X50739657Y-89275000D01*
X50976781Y-89275000D01*
X50986835Y-89377075D01*
X51016609Y-89475227D01*
X51064959Y-89565685D01*
X51130028Y-89644972D01*
X51209315Y-89710041D01*
X51299773Y-89758391D01*
X51397925Y-89788165D01*
X51500000Y-89798219D01*
X51628525Y-89795700D01*
X51758700Y-89665525D01*
X51758700Y-88791300D01*
X52241300Y-88791300D01*
X52241300Y-89665525D01*
X52371475Y-89795700D01*
X52500000Y-89798219D01*
X52602075Y-89788165D01*
X52700227Y-89758391D01*
X52790685Y-89710041D01*
X52869972Y-89644972D01*
X52935041Y-89565685D01*
X52983391Y-89475227D01*
X53013165Y-89377075D01*
X53023219Y-89275000D01*
X53020700Y-88921475D01*
X52890525Y-88791300D01*
X52241300Y-88791300D01*
X51758700Y-88791300D01*
X51109475Y-88791300D01*
X50979300Y-88921475D01*
X50976781Y-89275000D01*
X50739657Y-89275000D01*
X50778430Y-89202461D01*
X50804819Y-89115469D01*
X50813729Y-89025000D01*
X50813729Y-88075000D01*
X50804819Y-87984531D01*
X50778430Y-87897539D01*
X50735577Y-87817366D01*
X50677906Y-87747094D01*
X50607634Y-87689423D01*
X50527461Y-87646570D01*
X50440469Y-87620181D01*
X50439700Y-87620105D01*
X50439700Y-87188729D01*
X50825000Y-87188729D01*
X50847634Y-87186500D01*
X50889959Y-87265685D01*
X50955028Y-87344972D01*
X51034315Y-87410041D01*
X51124773Y-87458391D01*
X51126771Y-87458997D01*
X51064959Y-87534315D01*
X51016609Y-87624773D01*
X50986835Y-87722925D01*
X50976781Y-87825000D01*
X50979300Y-88178525D01*
X51109475Y-88308700D01*
X51758700Y-88308700D01*
X51758700Y-87434475D01*
X51683700Y-87359475D01*
X51683700Y-86516300D01*
X52166300Y-86516300D01*
X52166300Y-87365525D01*
X52241300Y-87440525D01*
X52241300Y-88308700D01*
X52890525Y-88308700D01*
X53020700Y-88178525D01*
X53023219Y-87825000D01*
X53013165Y-87722925D01*
X52983391Y-87624773D01*
X52935041Y-87534315D01*
X52869972Y-87455028D01*
X52815364Y-87410213D01*
X52815685Y-87410041D01*
X52894972Y-87344972D01*
X52960041Y-87265685D01*
X53008391Y-87175227D01*
X53038165Y-87077075D01*
X53048219Y-86975000D01*
X53045700Y-86646475D01*
X52915525Y-86516300D01*
X52166300Y-86516300D01*
X51683700Y-86516300D01*
X51663700Y-86516300D01*
X51663700Y-86033700D01*
X51683700Y-86033700D01*
X51683700Y-85184475D01*
X52166300Y-85184475D01*
X52166300Y-86033700D01*
X52915525Y-86033700D01*
X53045700Y-85903525D01*
X53048219Y-85575000D01*
X53038165Y-85472925D01*
X53008391Y-85374773D01*
X52960041Y-85284315D01*
X52894972Y-85205028D01*
X52815685Y-85139959D01*
X52725227Y-85091609D01*
X52627075Y-85061835D01*
X52525000Y-85051781D01*
X52296475Y-85054300D01*
X52166300Y-85184475D01*
X51683700Y-85184475D01*
X51553525Y-85054300D01*
X51325000Y-85051781D01*
X51264276Y-85057762D01*
X51302366Y-84986500D01*
X51325000Y-84988729D01*
X52525000Y-84988729D01*
X52566696Y-84984622D01*
X52606791Y-84972460D01*
X52643741Y-84952709D01*
X52676129Y-84926129D01*
X52702709Y-84893741D01*
X52722460Y-84856791D01*
X52734622Y-84816696D01*
X52738729Y-84775000D01*
X52738729Y-83375000D01*
X52734622Y-83333304D01*
X52722460Y-83293209D01*
X52702709Y-83256259D01*
X52676129Y-83223871D01*
X52643741Y-83197291D01*
X52606791Y-83177540D01*
X52566696Y-83165378D01*
X52525000Y-83161271D01*
X51941679Y-83161271D01*
X51727316Y-82946909D01*
X51758700Y-82915525D01*
X51758700Y-82041300D01*
X52241300Y-82041300D01*
X52241300Y-82915525D01*
X52371475Y-83045700D01*
X52500000Y-83048219D01*
X52602075Y-83038165D01*
X52700227Y-83008391D01*
X52790685Y-82960041D01*
X52869972Y-82894972D01*
X52935041Y-82815685D01*
X52983391Y-82725227D01*
X53013165Y-82627075D01*
X53023219Y-82525000D01*
X53020700Y-82171475D01*
X52890525Y-82041300D01*
X52241300Y-82041300D01*
X51758700Y-82041300D01*
X51109475Y-82041300D01*
X50979300Y-82171475D01*
X50979106Y-82198699D01*
X50813729Y-82033322D01*
X50813729Y-81325000D01*
X50804819Y-81234531D01*
X50778430Y-81147539D01*
X50739658Y-81075000D01*
X50976781Y-81075000D01*
X50979300Y-81428525D01*
X51109475Y-81558700D01*
X51758700Y-81558700D01*
X51758700Y-80684475D01*
X52241300Y-80684475D01*
X52241300Y-81558700D01*
X52890525Y-81558700D01*
X53020700Y-81428525D01*
X53023219Y-81075000D01*
X53013165Y-80972925D01*
X52983391Y-80874773D01*
X52935041Y-80784315D01*
X52869972Y-80705028D01*
X52790685Y-80639959D01*
X52700227Y-80591609D01*
X52602075Y-80561835D01*
X52500000Y-80551781D01*
X52371475Y-80554300D01*
X52241300Y-80684475D01*
X51758700Y-80684475D01*
X51628525Y-80554300D01*
X51500000Y-80551781D01*
X51397925Y-80561835D01*
X51299773Y-80591609D01*
X51209315Y-80639959D01*
X51130028Y-80705028D01*
X51064959Y-80784315D01*
X51016609Y-80874773D01*
X50986835Y-80972925D01*
X50976781Y-81075000D01*
X50739658Y-81075000D01*
X50735577Y-81067366D01*
X50677906Y-80997094D01*
X50607634Y-80939423D01*
X50527461Y-80896570D01*
X50440469Y-80870181D01*
X50350000Y-80861271D01*
X49850000Y-80861271D01*
X49759531Y-80870181D01*
X49672539Y-80896570D01*
X49592366Y-80939423D01*
X49522094Y-80997094D01*
X49464423Y-81067366D01*
X49421570Y-81147539D01*
X49395181Y-81234531D01*
X49386271Y-81325000D01*
X49386271Y-82033321D01*
X48044194Y-83375398D01*
X48013456Y-80178608D01*
X48109778Y-80242968D01*
X48221282Y-80289155D01*
X48339654Y-80312700D01*
X48460346Y-80312700D01*
X48578718Y-80289155D01*
X48690222Y-80242968D01*
X48790574Y-80175915D01*
X48853789Y-80112700D01*
X54687300Y-80112700D01*
X54687300Y-90487300D01*
G37*
G04 #@! TD.AperFunction*
D23*
X50673048Y-82853456D02*
X50596475Y-82854300D01*
X50466300Y-82984475D01*
X50466300Y-83833700D01*
X50486300Y-83833700D01*
X50486300Y-84316300D01*
X50466300Y-84316300D01*
X50466300Y-85165525D01*
X50596475Y-85295700D01*
X50825000Y-85298219D01*
X50885724Y-85292238D01*
X50847634Y-85363500D01*
X50825000Y-85361271D01*
X49625000Y-85361271D01*
X49583304Y-85365378D01*
X49543209Y-85377540D01*
X49506259Y-85397291D01*
X49473871Y-85423871D01*
X49447291Y-85456259D01*
X49427540Y-85493209D01*
X49415378Y-85533304D01*
X49411271Y-85575000D01*
X49411271Y-86975000D01*
X49415378Y-87016696D01*
X49427540Y-87056791D01*
X49447291Y-87093741D01*
X49473871Y-87126129D01*
X49506259Y-87152709D01*
X49543209Y-87172460D01*
X49583304Y-87184622D01*
X49625000Y-87188729D01*
X49760301Y-87188729D01*
X49760300Y-87620105D01*
X49759531Y-87620181D01*
X49675945Y-87645537D01*
X48069810Y-86039402D01*
X48057653Y-84775000D01*
X49101781Y-84775000D01*
X49111835Y-84877075D01*
X49141609Y-84975227D01*
X49189959Y-85065685D01*
X49255028Y-85144972D01*
X49334315Y-85210041D01*
X49424773Y-85258391D01*
X49522925Y-85288165D01*
X49625000Y-85298219D01*
X49853525Y-85295700D01*
X49983700Y-85165525D01*
X49983700Y-84316300D01*
X49234475Y-84316300D01*
X49104300Y-84446475D01*
X49101781Y-84775000D01*
X48057653Y-84775000D01*
X48053345Y-84327062D01*
X49113730Y-83266677D01*
X49111835Y-83272925D01*
X49101781Y-83375000D01*
X49104300Y-83703525D01*
X49234475Y-83833700D01*
X49983700Y-83833700D01*
X49983700Y-82984475D01*
X49853525Y-82854300D01*
X49625000Y-82851781D01*
X49522925Y-82861835D01*
X49516678Y-82863730D01*
X49675945Y-82704463D01*
X49759531Y-82729819D01*
X49850000Y-82738729D01*
X50350000Y-82738729D01*
X50440469Y-82729819D01*
X50524056Y-82704463D01*
X50673048Y-82853456D01*
G04 #@! TA.AperFunction,Conductor*
D24*
G36*
X50673048Y-82853456D02*
G01*
X50596475Y-82854300D01*
X50466300Y-82984475D01*
X50466300Y-83833700D01*
X50486300Y-83833700D01*
X50486300Y-84316300D01*
X50466300Y-84316300D01*
X50466300Y-85165525D01*
X50596475Y-85295700D01*
X50825000Y-85298219D01*
X50885724Y-85292238D01*
X50847634Y-85363500D01*
X50825000Y-85361271D01*
X49625000Y-85361271D01*
X49583304Y-85365378D01*
X49543209Y-85377540D01*
X49506259Y-85397291D01*
X49473871Y-85423871D01*
X49447291Y-85456259D01*
X49427540Y-85493209D01*
X49415378Y-85533304D01*
X49411271Y-85575000D01*
X49411271Y-86975000D01*
X49415378Y-87016696D01*
X49427540Y-87056791D01*
X49447291Y-87093741D01*
X49473871Y-87126129D01*
X49506259Y-87152709D01*
X49543209Y-87172460D01*
X49583304Y-87184622D01*
X49625000Y-87188729D01*
X49760301Y-87188729D01*
X49760300Y-87620105D01*
X49759531Y-87620181D01*
X49675945Y-87645537D01*
X48069810Y-86039402D01*
X48057653Y-84775000D01*
X49101781Y-84775000D01*
X49111835Y-84877075D01*
X49141609Y-84975227D01*
X49189959Y-85065685D01*
X49255028Y-85144972D01*
X49334315Y-85210041D01*
X49424773Y-85258391D01*
X49522925Y-85288165D01*
X49625000Y-85298219D01*
X49853525Y-85295700D01*
X49983700Y-85165525D01*
X49983700Y-84316300D01*
X49234475Y-84316300D01*
X49104300Y-84446475D01*
X49101781Y-84775000D01*
X48057653Y-84775000D01*
X48053345Y-84327062D01*
X49113730Y-83266677D01*
X49111835Y-83272925D01*
X49101781Y-83375000D01*
X49104300Y-83703525D01*
X49234475Y-83833700D01*
X49983700Y-83833700D01*
X49983700Y-82984475D01*
X49853525Y-82854300D01*
X49625000Y-82851781D01*
X49522925Y-82861835D01*
X49516678Y-82863730D01*
X49675945Y-82704463D01*
X49759531Y-82729819D01*
X49850000Y-82738729D01*
X50350000Y-82738729D01*
X50440469Y-82729819D01*
X50524056Y-82704463D01*
X50673048Y-82853456D01*
G37*
G04 #@! TD.AperFunction*
G04 #@! TD*
M02*
