%TF.GenerationSoftware,KiCad,Pcbnew,5.1.10*%
%TF.CreationDate,2021-06-16T00:48:32+09:00*%
%TF.ProjectId,plate,706c6174-652e-46b6-9963-61645f706362,rev?*%
%TF.SameCoordinates,Original*%
%TF.FileFunction,Profile,NP*%
%FSLAX46Y46*%
G04 Gerber Fmt 4.6, Leading zero omitted, Abs format (unit mm)*
G04 Created by KiCad (PCBNEW 5.1.10) date 2021-06-16 00:48:32*
%MOMM*%
%LPD*%
G01*
G04 APERTURE LIST*
%TA.AperFunction,Profile*%
%ADD10C,0.200000*%
%TD*%
G04 APERTURE END LIST*
D10*
X213887500Y-116681250D02*
X213887500Y-129681249D01*
X265612499Y-116181250D02*
X278612500Y-116181250D01*
X211887500Y-116681250D02*
X211887500Y-129681249D01*
X217487500Y-116681250D02*
G75*
G02*
X217987500Y-116181250I500000J0D01*
G01*
X175125000Y-92081249D02*
G75*
G02*
X174625000Y-91581249I0J500000D01*
G01*
X271968750Y-91581249D02*
G75*
G02*
X271468750Y-92081249I-500000J0D01*
G01*
X151312500Y-73031250D02*
X164312500Y-73031250D01*
X259562500Y-59031250D02*
G75*
G02*
X260062500Y-59531250I0J-500000D01*
G01*
X41274999Y-78581250D02*
G75*
G02*
X41774999Y-78081250I500000J0D01*
G01*
X127506750Y-129181250D02*
X121506750Y-129181250D01*
X65137499Y-116181250D02*
G75*
G02*
X65637499Y-116681250I0J-500000D01*
G01*
X217200000Y-97631249D02*
X217200000Y-110631250D01*
X37012500Y-73031249D02*
G75*
G02*
X36512500Y-72531249I0J500000D01*
G01*
X56062499Y-59031250D02*
X69062500Y-59031250D01*
X74324999Y-78581250D02*
X74324999Y-91581249D01*
X153693750Y-130181249D02*
X166693750Y-130181249D01*
X151255749Y-114181250D02*
X145255750Y-114181250D01*
X131818750Y-129681249D02*
G75*
G02*
X131318750Y-130181249I-500000J0D01*
G01*
X145262500Y-59031250D02*
G75*
G02*
X145762500Y-59531250I0J-500000D01*
G01*
X175631749Y-128681250D02*
G75*
G02*
X175131749Y-129181250I-500000J0D01*
G01*
X243681250Y-116681250D02*
X243681250Y-129681249D01*
X237087499Y-129681249D02*
G75*
G02*
X236587499Y-130181249I-500000J0D01*
G01*
X14937500Y-58506250D02*
X14937500Y-130706250D01*
X97630750Y-129181251D02*
G75*
G02*
X97130749Y-128681250I0J500001D01*
G01*
X106068750Y-130181249D02*
X119068750Y-130181249D01*
X121006750Y-128681250D02*
X121006750Y-114681249D01*
X194174999Y-92081250D02*
X207174999Y-92081250D01*
X174625000Y-78581250D02*
G75*
G02*
X175125000Y-78081250I500000J0D01*
G01*
X107662500Y-59531250D02*
X107662500Y-72531249D01*
X93318750Y-116681250D02*
G75*
G02*
X93818750Y-116181250I500000J0D01*
G01*
X33343750Y-116181250D02*
G75*
G02*
X33843750Y-116681250I0J-500000D01*
G01*
X40437500Y-116681250D02*
X40437500Y-129681249D01*
X130318750Y-130181249D02*
G75*
G02*
X129818750Y-129681249I0J500000D01*
G01*
X150812500Y-59531250D02*
G75*
G02*
X151312500Y-59031250I500000J0D01*
G01*
X202412500Y-59031250D02*
G75*
G02*
X202912500Y-59531250I0J-500000D01*
G01*
X178943750Y-130181249D02*
X177943750Y-130181249D01*
X177443750Y-129681249D02*
X177443750Y-116681250D01*
X127506750Y-114181249D02*
G75*
G02*
X128006750Y-114681249I0J-500000D01*
G01*
X37012500Y-73031249D02*
X50012499Y-73031249D01*
X40937500Y-130181249D02*
G75*
G02*
X40437500Y-129681249I0J500000D01*
G01*
X131318750Y-130181249D02*
X130318750Y-130181249D01*
X103630750Y-114181250D02*
X97630750Y-114181250D01*
X75112500Y-59031250D02*
X88112499Y-59031250D01*
X74612500Y-59531250D02*
X74612500Y-72531249D01*
X221462500Y-59031250D02*
G75*
G02*
X221962500Y-59531250I0J-500000D01*
G01*
X73825000Y-78081251D02*
G75*
G02*
X74324999Y-78581250I0J-499999D01*
G01*
X212387500Y-130181249D02*
X213387500Y-130181249D01*
X191793749Y-130181249D02*
X204793750Y-130181249D01*
X237087500Y-116681250D02*
X237087500Y-129681249D01*
X169131750Y-129181250D02*
G75*
G02*
X168631750Y-128681250I0J500000D01*
G01*
X55562499Y-59531250D02*
G75*
G02*
X56062499Y-59031250I500000J0D01*
G01*
X164812501Y-72531249D02*
G75*
G02*
X164312500Y-73031250I-500001J0D01*
G01*
X63637500Y-116681250D02*
X63637500Y-129681249D01*
X104130750Y-128681250D02*
G75*
G02*
X103630750Y-129181250I-500000J0D01*
G01*
X146050000Y-97631249D02*
G75*
G02*
X146550000Y-97131249I500000J0D01*
G01*
X60825000Y-92081250D02*
X73825000Y-92081250D01*
X75112500Y-73031249D02*
G75*
G02*
X74612500Y-72531249I0J500000D01*
G01*
X37012500Y-59031250D02*
X50012499Y-59031250D01*
X245774999Y-78581250D02*
X245774999Y-91581249D01*
X169075000Y-78081250D02*
G75*
G02*
X169575000Y-78581250I0J-500000D01*
G01*
X208462499Y-73031249D02*
G75*
G02*
X207962499Y-72531249I0J500000D01*
G01*
X20343750Y-92081249D02*
G75*
G02*
X19843750Y-91581249I0J500000D01*
G01*
X221962501Y-72531249D02*
G75*
G02*
X221462500Y-73031250I-500001J0D01*
G01*
X278612500Y-59031250D02*
G75*
G02*
X279112500Y-59531250I0J-500000D01*
G01*
X113212500Y-73031249D02*
G75*
G02*
X112712500Y-72531249I0J500000D01*
G01*
X203200000Y-97631249D02*
G75*
G02*
X203700000Y-97131249I500000J0D01*
G01*
X165600000Y-111131250D02*
G75*
G02*
X165100000Y-110631250I0J500000D01*
G01*
X244181250Y-97131250D02*
X257181249Y-97131250D01*
X88900000Y-97631249D02*
X88900000Y-110631250D01*
X19506250Y-97131250D02*
X20506250Y-97131250D01*
X50512500Y-59531250D02*
X50512500Y-72531249D01*
X279112500Y-97631249D02*
X279112500Y-110631250D01*
X127000000Y-97631249D02*
G75*
G02*
X127500000Y-97131249I500000J0D01*
G01*
X141000000Y-97631249D02*
X141000000Y-110631250D01*
X260062501Y-72531249D02*
G75*
G02*
X259562500Y-73031250I-500001J0D01*
G01*
X112425000Y-78581250D02*
X112425000Y-91581249D01*
X55275000Y-91581249D02*
G75*
G02*
X54775000Y-92081249I-500000J0D01*
G01*
X16937500Y-132706250D02*
X279637500Y-132706249D01*
X131318750Y-116181250D02*
X130318750Y-116181250D01*
X279637500Y-56506249D02*
G75*
G02*
X281637500Y-58506249I0J-2000000D01*
G01*
X281637500Y-58506250D02*
X281637500Y-130706250D01*
X79875000Y-92081250D02*
X92875000Y-92081250D01*
X119568750Y-116681250D02*
X119568750Y-129681249D01*
X243681250Y-97631249D02*
X243681250Y-110631250D01*
X198149999Y-97631249D02*
X198149999Y-110631250D01*
X151255749Y-129181250D02*
X145255750Y-129181250D01*
X212387500Y-130181249D02*
G75*
G02*
X211887500Y-129681249I0J500000D01*
G01*
X244181250Y-130181249D02*
G75*
G02*
X243681250Y-129681249I0J500000D01*
G01*
X140943750Y-129681249D02*
X140943750Y-116681250D01*
X74325000Y-91581249D02*
G75*
G02*
X73825000Y-92081249I-500000J0D01*
G01*
X46537500Y-130181249D02*
G75*
G02*
X46037500Y-129681249I0J500000D01*
G01*
X121506750Y-129181251D02*
G75*
G02*
X121006749Y-128681250I0J500001D01*
G01*
X97130750Y-114681249D02*
G75*
G02*
X97630750Y-114181249I500000J0D01*
G01*
X150024999Y-78081249D02*
G75*
G02*
X150525000Y-78581250I0J-500001D01*
G01*
X70349999Y-111131250D02*
X83350000Y-111131250D01*
X98925000Y-92081250D02*
G75*
G02*
X98424999Y-91581249I0J500001D01*
G01*
X168631750Y-128681250D02*
X168631750Y-114681249D01*
X142943750Y-129681249D02*
G75*
G02*
X142443750Y-130181249I-500000J0D01*
G01*
X257681249Y-116681250D02*
X257681249Y-129681249D01*
X235587500Y-130181249D02*
X236587499Y-130181249D01*
X64800000Y-97631249D02*
X64800000Y-110631250D01*
X21006249Y-110631250D02*
G75*
G02*
X20506250Y-111131249I-499999J0D01*
G01*
X156075000Y-92081249D02*
G75*
G02*
X155575000Y-91581249I0J500000D01*
G01*
X241012501Y-72531249D02*
G75*
G02*
X240512500Y-73031250I-500001J0D01*
G01*
X121950000Y-97631249D02*
X121950000Y-110631250D01*
X102899999Y-110631250D02*
G75*
G02*
X102400000Y-111131249I-499999J0D01*
G01*
X88112499Y-59031250D02*
G75*
G02*
X88612499Y-59531250I0J-500000D01*
G01*
X36512500Y-59531250D02*
G75*
G02*
X37012500Y-59031250I500000J0D01*
G01*
X16937501Y-132706249D02*
G75*
G02*
X14937500Y-130706250I-1J2000000D01*
G01*
X14937500Y-58506249D02*
G75*
G02*
X16937499Y-56506250I1999999J0D01*
G01*
X279112500Y-116681250D02*
X279112500Y-129681249D01*
X265612499Y-130181249D02*
X278612500Y-130181249D01*
X107662501Y-72531249D02*
G75*
G02*
X107162500Y-73031250I-500001J0D01*
G01*
X42437500Y-129681249D02*
G75*
G02*
X41937500Y-130181249I-500000J0D01*
G01*
X106068750Y-130181249D02*
G75*
G02*
X105568750Y-129681249I0J500000D01*
G01*
X64137500Y-130181249D02*
G75*
G02*
X63637500Y-129681249I0J500000D01*
G01*
X60325000Y-78581250D02*
G75*
G02*
X60825000Y-78081250I500000J0D01*
G01*
X213225000Y-92081250D02*
X226225000Y-92081250D01*
X235087500Y-116681250D02*
G75*
G02*
X235587500Y-116181250I500000J0D01*
G01*
X265112499Y-116681250D02*
X265112499Y-129681249D01*
X281637499Y-130706250D02*
G75*
G02*
X279637500Y-132706249I-1999999J0D01*
G01*
X16937500Y-56506250D02*
X279637500Y-56506250D01*
X69062500Y-59031251D02*
G75*
G02*
X69562499Y-59531250I0J-499999D01*
G01*
X257681248Y-110631250D02*
G75*
G02*
X257181249Y-111131249I-499999J0D01*
G01*
X257181249Y-97131249D02*
G75*
G02*
X257681249Y-97631249I0J-500000D01*
G01*
X179100000Y-97631249D02*
X179100000Y-110631250D01*
X227012500Y-59531250D02*
G75*
G02*
X227512500Y-59031250I500000J0D01*
G01*
X260062500Y-59531250D02*
X260062500Y-72531249D01*
X202912500Y-59531250D02*
X202912500Y-72531249D01*
X137025000Y-92081250D02*
G75*
G02*
X136524999Y-91581249I0J500001D01*
G01*
X136525000Y-78581250D02*
G75*
G02*
X137025000Y-78081250I500000J0D01*
G01*
X117975000Y-78081250D02*
X130975000Y-78081250D01*
X30962499Y-59031249D02*
G75*
G02*
X31462500Y-59531250I0J-500001D01*
G01*
X246562500Y-73031249D02*
G75*
G02*
X246062500Y-72531249I0J500000D01*
G01*
X212725000Y-78581250D02*
X212725000Y-91581249D01*
X105568750Y-116681250D02*
X105568750Y-129681249D01*
X119568750Y-129681249D02*
G75*
G02*
X119068750Y-130181249I-500000J0D01*
G01*
X72731250Y-130181249D02*
G75*
G02*
X72231250Y-129681249I0J500000D01*
G01*
X151255749Y-114181248D02*
G75*
G02*
X151755750Y-114681249I0J-500001D01*
G01*
X217487499Y-116681250D02*
X217487499Y-129681249D01*
X167193750Y-129681249D02*
G75*
G02*
X166693750Y-130181249I-500000J0D01*
G01*
X129818750Y-129681249D02*
X129818750Y-116681250D01*
X265112499Y-59531250D02*
G75*
G02*
X265612499Y-59031250I500000J0D01*
G01*
X164812500Y-59531250D02*
X164812500Y-72531249D01*
X98425000Y-78581250D02*
X98424999Y-91581249D01*
X169862500Y-59531250D02*
X169862500Y-72531249D01*
X54775000Y-78081250D02*
G75*
G02*
X55275000Y-78581250I0J-500000D01*
G01*
X193675000Y-78581250D02*
X193675000Y-91581249D01*
X89400000Y-97131250D02*
X102400000Y-97131250D01*
X198149998Y-110631250D02*
G75*
G02*
X197649999Y-111131249I-499999J0D01*
G01*
X165100000Y-97631249D02*
G75*
G02*
X165600000Y-97131249I500000J0D01*
G01*
X179099999Y-110631250D02*
G75*
G02*
X178600000Y-111131249I-499999J0D01*
G01*
X226725000Y-91581249D02*
G75*
G02*
X226225000Y-92081249I-500000J0D01*
G01*
X245275000Y-78081250D02*
G75*
G02*
X245775000Y-78581250I0J-500000D01*
G01*
X121949998Y-110631250D02*
G75*
G02*
X121449999Y-111131249I-499999J0D01*
G01*
X197649999Y-97131249D02*
G75*
G02*
X198149999Y-97631249I0J-500000D01*
G01*
X252368750Y-78581250D02*
G75*
G02*
X252868750Y-78081250I500000J0D01*
G01*
X31462500Y-59531250D02*
X31462500Y-72531249D01*
X50012499Y-59031250D02*
G75*
G02*
X50512499Y-59531250I0J-500000D01*
G01*
X177943750Y-130181249D02*
G75*
G02*
X177443750Y-129681249I0J500000D01*
G01*
X204793750Y-116181250D02*
G75*
G02*
X205293750Y-116681250I0J-500000D01*
G01*
X244181250Y-130181249D02*
X257181249Y-130181249D01*
X278612500Y-116181250D02*
G75*
G02*
X279112500Y-116681250I0J-500000D01*
G01*
X69562501Y-72531249D02*
G75*
G02*
X69062500Y-73031250I-500001J0D01*
G01*
X132262500Y-59031250D02*
X145262500Y-59031250D01*
X131475000Y-91581249D02*
G75*
G02*
X130975000Y-92081249I-500000J0D01*
G01*
X117475000Y-78581250D02*
G75*
G02*
X117975000Y-78081250I500000J0D01*
G01*
X107162500Y-59031250D02*
G75*
G02*
X107662500Y-59531250I0J-500000D01*
G01*
X279112500Y-59531250D02*
X279112500Y-72531249D01*
X258468750Y-92081250D02*
G75*
G02*
X257968749Y-91581249I0J500001D01*
G01*
X271468750Y-78081250D02*
G75*
G02*
X271968750Y-78581250I0J-500000D01*
G01*
X170362500Y-73031249D02*
X183362500Y-73031250D01*
X20343750Y-92081250D02*
X33343750Y-92081250D01*
X19843750Y-78581250D02*
G75*
G02*
X20343750Y-78081250I500000J0D01*
G01*
X60825000Y-92081249D02*
G75*
G02*
X60325000Y-91581249I0J500000D01*
G01*
X70349999Y-97131250D02*
X83350000Y-97131250D01*
X83350000Y-97131250D02*
G75*
G02*
X83849999Y-97631249I0J-499999D01*
G01*
X41275000Y-78581250D02*
X41275000Y-91581249D01*
X19843750Y-78581250D02*
X19843750Y-91581249D01*
X131475000Y-78581250D02*
X131475000Y-91581249D01*
X92875000Y-78081250D02*
G75*
G02*
X93375000Y-78581250I0J-500000D01*
G01*
X246062500Y-59531250D02*
G75*
G02*
X246562500Y-59031250I500000J0D01*
G01*
X20506250Y-97131249D02*
G75*
G02*
X21006250Y-97631249I0J-500000D01*
G01*
X127500000Y-111131250D02*
X140500000Y-111131250D01*
X33843750Y-78581250D02*
X33843750Y-91581249D01*
X41774999Y-92081250D02*
X54775000Y-92081250D01*
X227512500Y-73031249D02*
X240512500Y-73031249D01*
X46537500Y-116181250D02*
X59537499Y-116181250D01*
X121006750Y-114681249D02*
G75*
G02*
X121506750Y-114181249I500000J0D01*
G01*
X128006750Y-128681250D02*
G75*
G02*
X127506750Y-129181250I-500000J0D01*
G01*
X51299999Y-111131250D02*
G75*
G02*
X50799999Y-110631250I0J500000D01*
G01*
X175125000Y-78081250D02*
X188125000Y-78081250D01*
X88612499Y-59531250D02*
X88612499Y-72531249D01*
X169575000Y-91581249D02*
G75*
G02*
X169075000Y-92081249I-500000J0D01*
G01*
X137025000Y-92081250D02*
X150024999Y-92081250D01*
X155575000Y-78581250D02*
G75*
G02*
X156075000Y-78081250I500000J0D01*
G01*
X169575000Y-78581250D02*
X169575000Y-91581249D01*
X107950000Y-97631249D02*
X107950000Y-110631250D01*
X88900000Y-97631249D02*
G75*
G02*
X89400000Y-97131249I500000J0D01*
G01*
X175131749Y-129181250D02*
X169131750Y-129181250D01*
X95318750Y-129681249D02*
G75*
G02*
X94818750Y-130181249I-500000J0D01*
G01*
X179443750Y-129681249D02*
X179443750Y-116681250D01*
X65637499Y-129681249D02*
G75*
G02*
X65137499Y-130181249I-500000J0D01*
G01*
X141443750Y-130181249D02*
G75*
G02*
X140943750Y-129681249I0J500000D01*
G01*
X168631750Y-114681249D02*
G75*
G02*
X169131750Y-114181249I500000J0D01*
G01*
X126212499Y-59031249D02*
G75*
G02*
X126712500Y-59531250I0J-500001D01*
G01*
X164312500Y-59031250D02*
G75*
G02*
X164812500Y-59531250I0J-500000D01*
G01*
X279112499Y-110631250D02*
G75*
G02*
X278612500Y-111131249I-499999J0D01*
G01*
X265112499Y-97631249D02*
X265112499Y-110631250D01*
X20343750Y-130181249D02*
X33343750Y-130181249D01*
X153693750Y-116181250D02*
X166693750Y-116181250D01*
X144755750Y-114681249D02*
G75*
G02*
X145255750Y-114181249I500000J0D01*
G01*
X191293750Y-116681250D02*
X191293750Y-129681249D01*
X33343750Y-78081250D02*
G75*
G02*
X33843750Y-78581250I0J-500000D01*
G01*
X41774999Y-92081249D02*
G75*
G02*
X41274999Y-91581249I0J500000D01*
G01*
X151755750Y-128681250D02*
X151755750Y-114681249D01*
X60037499Y-129681249D02*
G75*
G02*
X59537499Y-130181249I-500000J0D01*
G01*
X151755749Y-128681250D02*
G75*
G02*
X151255749Y-129181250I-500000J0D01*
G01*
X112712500Y-59531250D02*
X112712500Y-72531249D01*
X235087500Y-116681250D02*
X235087500Y-129681249D01*
X257681249Y-129681249D02*
G75*
G02*
X257181249Y-130181249I-500000J0D01*
G01*
X243681250Y-116681250D02*
G75*
G02*
X244181250Y-116181250I500000J0D01*
G01*
X279112500Y-129681249D02*
G75*
G02*
X278612500Y-130181249I-500000J0D01*
G01*
X112712500Y-59531250D02*
G75*
G02*
X113212500Y-59031250I500000J0D01*
G01*
X170362500Y-73031249D02*
G75*
G02*
X169862500Y-72531249I0J500000D01*
G01*
X131762500Y-59531250D02*
G75*
G02*
X132262500Y-59031250I500000J0D01*
G01*
X207675000Y-78581250D02*
X207675000Y-91581249D01*
X232275000Y-92081250D02*
X245275000Y-92081250D01*
X42706250Y-111131250D02*
X43706250Y-111131250D01*
X108450000Y-97131250D02*
X121449999Y-97131250D01*
X56062499Y-73031250D02*
X69062500Y-73031250D01*
X108450000Y-111131250D02*
X121449999Y-111131250D01*
X50799999Y-97631249D02*
G75*
G02*
X51299999Y-97131249I500000J0D01*
G01*
X189412500Y-73031249D02*
X202412500Y-73031249D01*
X94162500Y-73031249D02*
G75*
G02*
X93662500Y-72531249I0J500000D01*
G01*
X42706250Y-97131250D02*
X43706250Y-97131250D01*
X42206250Y-97631249D02*
G75*
G02*
X42706250Y-97131249I500000J0D01*
G01*
X216700000Y-97131249D02*
G75*
G02*
X217200000Y-97631249I0J-500000D01*
G01*
X226225000Y-78081250D02*
G75*
G02*
X226725000Y-78581250I0J-500000D01*
G01*
X213225000Y-78081250D02*
X226225000Y-78081250D01*
X31462500Y-72531249D02*
G75*
G02*
X30962499Y-73031250I-500001J0D01*
G01*
X279112501Y-72531249D02*
G75*
G02*
X278612500Y-73031250I-500001J0D01*
G01*
X252868750Y-92081250D02*
X253868750Y-92081250D01*
X17462500Y-59531250D02*
X17462500Y-72531249D01*
X113212500Y-73031249D02*
X126212499Y-73031249D01*
X236249999Y-110631250D02*
G75*
G02*
X235750000Y-111131249I-499999J0D01*
G01*
X257968750Y-78581250D02*
X257968750Y-91581249D01*
X79375000Y-78581250D02*
G75*
G02*
X79875000Y-78081250I500000J0D01*
G01*
X193674999Y-78581250D02*
G75*
G02*
X194174999Y-78081250I500000J0D01*
G01*
X150524999Y-91581249D02*
G75*
G02*
X150024999Y-92081249I-500000J0D01*
G01*
X33843750Y-91581249D02*
G75*
G02*
X33343750Y-92081249I-500000J0D01*
G01*
X97130749Y-128681250D02*
X97130750Y-114681249D01*
X119068750Y-116181250D02*
G75*
G02*
X119568750Y-116681250I0J-500000D01*
G01*
X105568750Y-116681250D02*
G75*
G02*
X106068750Y-116181250I500000J0D01*
G01*
X156075000Y-92081250D02*
X169075000Y-92081250D01*
X117975000Y-92081249D02*
G75*
G02*
X117475000Y-91581249I0J500000D01*
G01*
X205293750Y-116681250D02*
X205293750Y-129681249D01*
X140943750Y-116681250D02*
G75*
G02*
X141443750Y-116181250I500000J0D01*
G01*
X153193750Y-116681250D02*
X153193750Y-129681249D01*
X131818750Y-129681249D02*
X131818750Y-116681250D01*
X265612499Y-73031249D02*
X278612500Y-73031249D01*
X183362500Y-59031250D02*
G75*
G02*
X183862500Y-59531250I0J-500000D01*
G01*
X258468750Y-78081250D02*
X271468750Y-78081250D01*
X232275000Y-78081250D02*
X245275000Y-78081250D01*
X226725000Y-78581250D02*
X226725000Y-91581249D01*
X276068750Y-78081250D02*
X277068750Y-78081250D01*
X213225000Y-92081249D02*
G75*
G02*
X212725000Y-91581249I0J500000D01*
G01*
X136524999Y-78581250D02*
X136524999Y-91581249D01*
X265112499Y-59531250D02*
X265112499Y-72531249D01*
X140999999Y-110631250D02*
G75*
G02*
X140500000Y-111131249I-499999J0D01*
G01*
X44206249Y-110631250D02*
G75*
G02*
X43706250Y-111131249I-499999J0D01*
G01*
X265612499Y-97131250D02*
X278612500Y-97131250D01*
X175631749Y-128681250D02*
X175631749Y-114681249D01*
X178943750Y-116181250D02*
X177943750Y-116181250D01*
X40937500Y-130181249D02*
X41937500Y-130181249D01*
X132262500Y-73031250D02*
X145262500Y-73031250D01*
X46537500Y-130181249D02*
X59537499Y-130181249D01*
X278612500Y-97131249D02*
G75*
G02*
X279112500Y-97631249I0J-500000D01*
G01*
X20343750Y-116181250D02*
X33343750Y-116181250D01*
X113212500Y-59031250D02*
X126212499Y-59031250D01*
X160050000Y-97631249D02*
X160050000Y-110631250D01*
X46037500Y-116681250D02*
G75*
G02*
X46537500Y-116181250I500000J0D01*
G01*
X60037499Y-116681250D02*
X60037499Y-129681249D01*
X131762499Y-59531250D02*
X131762499Y-72531249D01*
X74612500Y-59531250D02*
G75*
G02*
X75112500Y-59031250I500000J0D01*
G01*
X94162500Y-73031249D02*
X107162500Y-73031249D01*
X33843750Y-129681249D02*
G75*
G02*
X33343750Y-130181249I-500000J0D01*
G01*
X184650000Y-97131250D02*
X197649999Y-97131250D01*
X42437500Y-116681250D02*
X42437500Y-129681249D01*
X246562500Y-73031249D02*
X259562500Y-73031249D01*
X17962500Y-73031249D02*
G75*
G02*
X17462500Y-72531249I0J500000D01*
G01*
X17962500Y-59031250D02*
X30962499Y-59031250D01*
X222750000Y-111131250D02*
G75*
G02*
X222250000Y-110631250I0J500000D01*
G01*
X69850000Y-97631249D02*
X69850000Y-110631250D01*
X222750000Y-111131250D02*
X235750000Y-111131250D01*
X155575000Y-78581250D02*
X155575000Y-91581249D01*
X174625000Y-78581250D02*
X174625000Y-91581249D01*
X243681250Y-97631249D02*
G75*
G02*
X244181250Y-97131249I500000J0D01*
G01*
X146550000Y-111131250D02*
X159550000Y-111131250D01*
X83849999Y-110631250D02*
G75*
G02*
X83350000Y-111131249I-499999J0D01*
G01*
X208462499Y-59031250D02*
X221462500Y-59031250D01*
X188912500Y-59531250D02*
X188912500Y-72531249D01*
X207962499Y-59531250D02*
X207962499Y-72531249D01*
X252368749Y-78581250D02*
X252368749Y-91581249D01*
X232275000Y-92081249D02*
G75*
G02*
X231775000Y-91581249I0J500000D01*
G01*
X150812500Y-59531250D02*
X150812500Y-72531249D01*
X254368750Y-91581249D02*
G75*
G02*
X253868750Y-92081249I-500000J0D01*
G01*
X24606250Y-97631249D02*
X24606250Y-110631250D01*
X246062500Y-59531250D02*
X246062500Y-72531249D01*
X117475000Y-78581250D02*
X117475000Y-91581249D01*
X142443750Y-116181250D02*
X141443750Y-116181250D01*
X95318750Y-129681249D02*
X95318750Y-116681250D01*
X145255750Y-129181251D02*
G75*
G02*
X144755749Y-128681250I0J500001D01*
G01*
X188912500Y-59531250D02*
G75*
G02*
X189412500Y-59031250I500000J0D01*
G01*
X111925000Y-78081250D02*
G75*
G02*
X112425000Y-78581250I0J-500000D01*
G01*
X203700000Y-111131250D02*
G75*
G02*
X203200000Y-110631250I0J500000D01*
G01*
X70349999Y-111131249D02*
G75*
G02*
X69850000Y-110631250I0J499999D01*
G01*
X178600000Y-97131249D02*
G75*
G02*
X179100000Y-97631249I0J-500000D01*
G01*
X222250000Y-97631249D02*
X222250000Y-110631250D01*
X19006250Y-97631249D02*
G75*
G02*
X19506250Y-97131249I500000J0D01*
G01*
X235750000Y-97131249D02*
G75*
G02*
X236250000Y-97631249I0J-500000D01*
G01*
X89400000Y-111131250D02*
X102400000Y-111131250D01*
X25106249Y-111131250D02*
X38106250Y-111131250D01*
X56062499Y-73031249D02*
G75*
G02*
X55562499Y-72531249I0J500000D01*
G01*
X165600000Y-97131250D02*
X178600000Y-97131250D01*
X257681249Y-97631249D02*
X257681249Y-110631250D01*
X184650000Y-111131250D02*
G75*
G02*
X184150000Y-110631250I0J500000D01*
G01*
X98425000Y-78581250D02*
G75*
G02*
X98925000Y-78081250I500000J0D01*
G01*
X126712500Y-59531250D02*
X126712500Y-72531249D01*
X38606249Y-110631250D02*
G75*
G02*
X38106250Y-111131249I-499999J0D01*
G01*
X194174999Y-92081249D02*
G75*
G02*
X193674999Y-91581249I0J500000D01*
G01*
X231775000Y-78581250D02*
X231775000Y-91581249D01*
X156075000Y-78081250D02*
X169075000Y-78081250D01*
X207962499Y-59531250D02*
G75*
G02*
X208462499Y-59031250I500000J0D01*
G01*
X203700000Y-111131250D02*
X216700000Y-111131250D01*
X19843750Y-116681250D02*
X19843750Y-129681249D01*
X236250000Y-97631249D02*
X236250000Y-110631250D01*
X175125000Y-92081250D02*
X188125000Y-92081250D01*
X194174999Y-78081250D02*
X207174999Y-78081250D01*
X191793749Y-130181249D02*
G75*
G02*
X191293749Y-129681249I0J500000D01*
G01*
X153193750Y-116681250D02*
G75*
G02*
X153693750Y-116181250I500000J0D01*
G01*
X94818750Y-116181250D02*
X93818750Y-116181250D01*
X117975000Y-92081250D02*
X130975000Y-92081250D01*
X51299999Y-97131250D02*
X64300000Y-97131250D01*
X64300000Y-97131249D02*
G75*
G02*
X64800000Y-97631249I0J-500000D01*
G01*
X51299999Y-111131250D02*
X64300000Y-111131250D01*
X102900000Y-97631249D02*
X102900000Y-110631250D01*
X75112500Y-73031249D02*
X88112499Y-73031249D01*
X112425000Y-91581249D02*
G75*
G02*
X111925000Y-92081249I-500000J0D01*
G01*
X103630750Y-129181250D02*
X97630750Y-129181250D01*
X265112499Y-97631249D02*
G75*
G02*
X265612499Y-97131249I500000J0D01*
G01*
X72231250Y-116681250D02*
X72231250Y-129681249D01*
X265112499Y-116681250D02*
G75*
G02*
X265612499Y-116181250I500000J0D01*
G01*
X236587499Y-116181249D02*
G75*
G02*
X237087500Y-116681250I0J-500001D01*
G01*
X244181250Y-116181250D02*
X257181249Y-116181250D01*
X212387500Y-116181250D02*
X213387500Y-116181250D01*
X189412500Y-73031249D02*
G75*
G02*
X188912500Y-72531249I0J500000D01*
G01*
X79875000Y-78081250D02*
X92875000Y-78081250D01*
X72731250Y-130181249D02*
X85731250Y-130181249D01*
X72231250Y-116681250D02*
G75*
G02*
X72731250Y-116181250I500000J0D01*
G01*
X72731250Y-116181250D02*
X85731250Y-116181250D01*
X93818750Y-130181249D02*
G75*
G02*
X93318750Y-129681249I0J500000D01*
G01*
X217987500Y-116181250D02*
X230987500Y-116181250D01*
X179443750Y-129681249D02*
G75*
G02*
X178943750Y-130181249I-500000J0D01*
G01*
X86231250Y-129681249D02*
G75*
G02*
X85731250Y-130181249I-500000J0D01*
G01*
X275568750Y-78581250D02*
G75*
G02*
X276068750Y-78081250I500000J0D01*
G01*
X276068750Y-92081250D02*
X277068750Y-92081250D01*
X245775000Y-91581249D02*
G75*
G02*
X245275000Y-92081249I-500000J0D01*
G01*
X277568750Y-91581249D02*
G75*
G02*
X277068750Y-92081249I-500000J0D01*
G01*
X98925000Y-92081250D02*
X111925000Y-92081250D01*
X40437500Y-116681250D02*
G75*
G02*
X40937500Y-116181250I500000J0D01*
G01*
X59537499Y-116181250D02*
G75*
G02*
X60037499Y-116681250I0J-500000D01*
G01*
X103630750Y-114181249D02*
G75*
G02*
X104130750Y-114681249I0J-500000D01*
G01*
X277068750Y-78081250D02*
G75*
G02*
X277568750Y-78581250I0J-500000D01*
G01*
X60325000Y-78581250D02*
X60325000Y-91581249D01*
X107950000Y-97631249D02*
G75*
G02*
X108450000Y-97131249I500000J0D01*
G01*
X19006250Y-97631249D02*
X19006250Y-110631250D01*
X145762499Y-59531250D02*
X145762499Y-72531249D01*
X271968750Y-78581250D02*
X271968750Y-91581249D01*
X188625000Y-91581249D02*
G75*
G02*
X188125000Y-92081249I-500000J0D01*
G01*
X253868750Y-78081250D02*
G75*
G02*
X254368750Y-78581250I0J-500000D01*
G01*
X257968750Y-78581250D02*
G75*
G02*
X258468750Y-78081250I500000J0D01*
G01*
X69849999Y-97631249D02*
G75*
G02*
X70349999Y-97131249I500000J0D01*
G01*
X160049999Y-110631250D02*
G75*
G02*
X159550000Y-111131249I-499999J0D01*
G01*
X217199999Y-110631250D02*
G75*
G02*
X216700000Y-111131249I-499999J0D01*
G01*
X42706250Y-111131250D02*
G75*
G02*
X42206250Y-110631250I0J500000D01*
G01*
X89400000Y-111131250D02*
G75*
G02*
X88900000Y-110631250I0J500000D01*
G01*
X108450000Y-111131251D02*
G75*
G02*
X107949999Y-110631250I0J500001D01*
G01*
X38606249Y-97631249D02*
X38606249Y-110631250D01*
X79375000Y-78581250D02*
X79375000Y-91581249D01*
X213887500Y-129681249D02*
G75*
G02*
X213387500Y-130181249I-500000J0D01*
G01*
X177443750Y-116681250D02*
G75*
G02*
X177943750Y-116181250I500000J0D01*
G01*
X211887500Y-116681250D02*
G75*
G02*
X212387500Y-116181250I500000J0D01*
G01*
X153693750Y-130181249D02*
G75*
G02*
X153193750Y-129681249I0J500000D01*
G01*
X130975000Y-78081250D02*
G75*
G02*
X131475000Y-78581250I0J-500000D01*
G01*
X265612499Y-73031249D02*
G75*
G02*
X265112499Y-72531249I0J500000D01*
G01*
X240512500Y-59031250D02*
G75*
G02*
X241012500Y-59531250I0J-500000D01*
G01*
X46037499Y-116681250D02*
X46037499Y-129681249D01*
X33843750Y-116681250D02*
X33843750Y-129681249D01*
X265612499Y-111131250D02*
G75*
G02*
X265112499Y-110631250I0J500000D01*
G01*
X276068750Y-92081249D02*
G75*
G02*
X275568750Y-91581249I0J500000D01*
G01*
X188125000Y-78081250D02*
G75*
G02*
X188625000Y-78581250I0J-500000D01*
G01*
X142943750Y-129681249D02*
X142943750Y-116681250D01*
X205293750Y-129681249D02*
G75*
G02*
X204793750Y-130181249I-500000J0D01*
G01*
X191293749Y-116681250D02*
G75*
G02*
X191793749Y-116181250I500000J0D01*
G01*
X126712500Y-72531249D02*
G75*
G02*
X126212499Y-73031250I-500001J0D01*
G01*
X93662500Y-59531250D02*
X93662500Y-72531249D01*
X64799999Y-110631250D02*
G75*
G02*
X64300000Y-111131249I-499999J0D01*
G01*
X102400000Y-97131249D02*
G75*
G02*
X102900000Y-97631249I0J-500000D01*
G01*
X183862501Y-72531249D02*
G75*
G02*
X183362500Y-73031250I-500001J0D01*
G01*
X166693750Y-116181250D02*
G75*
G02*
X167193750Y-116681250I0J-500000D01*
G01*
X20343750Y-130181249D02*
G75*
G02*
X19843750Y-129681249I0J500000D01*
G01*
X93318750Y-129681249D02*
X93318750Y-116681250D01*
X151312500Y-73031249D02*
G75*
G02*
X150812500Y-72531249I0J500000D01*
G01*
X41937500Y-116181250D02*
G75*
G02*
X42437500Y-116681250I0J-500000D01*
G01*
X127506750Y-114181250D02*
X121506750Y-114181250D01*
X86231249Y-116681250D02*
X86231249Y-129681249D01*
X55275000Y-78581250D02*
X55275000Y-91581249D01*
X150525000Y-78581250D02*
X150525000Y-91581249D01*
X188625000Y-78581250D02*
X188625000Y-91581249D01*
X202912501Y-72531249D02*
G75*
G02*
X202412500Y-73031250I-500001J0D01*
G01*
X217987500Y-130181250D02*
G75*
G02*
X217487499Y-129681249I0J500001D01*
G01*
X231487500Y-116681250D02*
X231487500Y-129681249D01*
X257181249Y-116181250D02*
G75*
G02*
X257681249Y-116681250I0J-500000D01*
G01*
X265612499Y-130181249D02*
G75*
G02*
X265112499Y-129681249I0J500000D01*
G01*
X208462499Y-73031250D02*
X221462500Y-73031250D01*
X227512500Y-59031250D02*
X240512500Y-59031250D01*
X244181250Y-111131250D02*
X257181249Y-111131250D01*
X83850000Y-97631249D02*
X83850000Y-110631250D01*
X184150000Y-97631249D02*
X184150000Y-110631250D01*
X170362500Y-59031250D02*
X183362500Y-59031250D01*
X169862500Y-59531250D02*
G75*
G02*
X170362500Y-59031250I500000J0D01*
G01*
X235587500Y-130181249D02*
G75*
G02*
X235087500Y-129681249I0J500000D01*
G01*
X175131749Y-114181249D02*
G75*
G02*
X175631749Y-114681249I0J-500000D01*
G01*
X231487500Y-129681249D02*
G75*
G02*
X230987500Y-130181249I-500000J0D01*
G01*
X142443750Y-130181249D02*
X141443750Y-130181249D01*
X85731250Y-116181251D02*
G75*
G02*
X86231249Y-116681250I0J-499999D01*
G01*
X128006750Y-128681250D02*
X128006750Y-114681249D01*
X65637500Y-116681250D02*
X65637500Y-129681249D01*
X79875000Y-92081249D02*
G75*
G02*
X79375000Y-91581249I0J500000D01*
G01*
X41774999Y-78081250D02*
X54775000Y-78081250D01*
X20343750Y-78081250D02*
X33343750Y-78081250D01*
X69562500Y-59531250D02*
X69562500Y-72531249D01*
X129818750Y-116681250D02*
G75*
G02*
X130318750Y-116181250I500000J0D01*
G01*
X94818750Y-116181250D02*
G75*
G02*
X95318750Y-116681250I0J-500000D01*
G01*
X217987500Y-130181249D02*
X230987500Y-130181249D01*
X222750000Y-97131250D02*
X235750000Y-97131250D01*
X244181250Y-111131250D02*
G75*
G02*
X243681250Y-110631250I0J500000D01*
G01*
X159550000Y-97131249D02*
G75*
G02*
X160050000Y-97631249I0J-500000D01*
G01*
X132262500Y-73031250D02*
G75*
G02*
X131762499Y-72531249I0J500001D01*
G01*
X93662500Y-59531250D02*
G75*
G02*
X94162500Y-59031250I500000J0D01*
G01*
X189412500Y-59031250D02*
X202412500Y-59031250D01*
X93375000Y-78581250D02*
X93375000Y-91581249D01*
X203200000Y-97631249D02*
X203200000Y-110631250D01*
X165600000Y-111131250D02*
X178600000Y-111131250D01*
X165100000Y-97631249D02*
X165100000Y-110631250D01*
X227512500Y-73031249D02*
G75*
G02*
X227012500Y-72531249I0J500000D01*
G01*
X227012500Y-59531250D02*
X227012500Y-72531249D01*
X25106249Y-97131250D02*
X38106250Y-97131250D01*
X275568750Y-78581250D02*
X275568750Y-91581249D01*
X246562500Y-59031250D02*
X259562500Y-59031250D01*
X178943750Y-116181250D02*
G75*
G02*
X179443750Y-116681250I0J-500000D01*
G01*
X230987500Y-116181250D02*
G75*
G02*
X231487500Y-116681250I0J-500000D01*
G01*
X235587500Y-116181250D02*
X236587499Y-116181250D01*
X213387500Y-116181250D02*
G75*
G02*
X213887500Y-116681250I0J-500000D01*
G01*
X50512500Y-72531249D02*
G75*
G02*
X50012499Y-73031250I-500001J0D01*
G01*
X64137500Y-116181250D02*
X65137499Y-116181250D01*
X94818750Y-130181249D02*
X93818750Y-130181249D01*
X131318750Y-116181250D02*
G75*
G02*
X131818750Y-116681250I0J-500000D01*
G01*
X98925000Y-78081250D02*
X111925000Y-78081250D01*
X93375000Y-91581249D02*
G75*
G02*
X92875000Y-92081249I-500000J0D01*
G01*
X55562500Y-59531250D02*
X55562500Y-72531249D01*
X191793749Y-116181250D02*
X204793750Y-116181250D01*
X142443750Y-116181250D02*
G75*
G02*
X142943750Y-116681250I0J-500000D01*
G01*
X40937500Y-116181250D02*
X41937500Y-116181250D01*
X94162500Y-59031250D02*
X107162500Y-59031250D01*
X25106249Y-111131250D02*
G75*
G02*
X24606249Y-110631250I0J500000D01*
G01*
X121449999Y-97131248D02*
G75*
G02*
X121950000Y-97631249I0J-500001D01*
G01*
X17962500Y-73031250D02*
X30962499Y-73031250D01*
X254368749Y-78581250D02*
X254368749Y-91581249D01*
X277568750Y-78581250D02*
X277568750Y-91581249D01*
X146550000Y-111131250D02*
G75*
G02*
X146050000Y-110631250I0J500000D01*
G01*
X184150000Y-97631249D02*
G75*
G02*
X184650000Y-97131249I500000J0D01*
G01*
X140500000Y-97131249D02*
G75*
G02*
X141000000Y-97631249I0J-500000D01*
G01*
X167193750Y-116681250D02*
X167193750Y-129681249D01*
X144755750Y-128681250D02*
X144755750Y-114681249D01*
X104130750Y-128681250D02*
X104130750Y-114681249D01*
X175131749Y-114181250D02*
X169131750Y-114181250D01*
X265612499Y-59031250D02*
X278612500Y-59031250D01*
X207174999Y-78081249D02*
G75*
G02*
X207675000Y-78581250I0J-500001D01*
G01*
X127000000Y-97631249D02*
X127000000Y-110631250D01*
X212725000Y-78581250D02*
G75*
G02*
X213225000Y-78081250I500000J0D01*
G01*
X60825000Y-78081250D02*
X73825000Y-78081250D01*
X88612500Y-72531249D02*
G75*
G02*
X88112499Y-73031250I-500001J0D01*
G01*
X221962500Y-59531250D02*
X221962500Y-72531249D01*
X17462500Y-59531250D02*
G75*
G02*
X17962500Y-59031250I500000J0D01*
G01*
X241012500Y-59531250D02*
X241012500Y-72531249D01*
X19506250Y-111131250D02*
X20506250Y-111131250D01*
X19506250Y-111131250D02*
G75*
G02*
X19006250Y-110631250I0J500000D01*
G01*
X38106250Y-97131249D02*
G75*
G02*
X38606250Y-97631249I0J-500000D01*
G01*
X146050000Y-97631249D02*
X146050000Y-110631250D01*
X43706250Y-97131250D02*
G75*
G02*
X44206249Y-97631249I0J-499999D01*
G01*
X183862499Y-59531250D02*
X183862499Y-72531249D01*
X252868750Y-78081250D02*
X253868750Y-78081250D01*
X258468750Y-92081250D02*
X271468750Y-92081250D01*
X252868750Y-92081249D02*
G75*
G02*
X252368750Y-91581249I0J500000D01*
G01*
X24606249Y-97631249D02*
G75*
G02*
X25106249Y-97131249I500000J0D01*
G01*
X146550000Y-97131250D02*
X159550000Y-97131250D01*
X64137500Y-130181249D02*
X65137499Y-130181249D01*
X184650000Y-111131250D02*
X197649999Y-111131250D01*
X151312500Y-59031250D02*
X164312500Y-59031250D01*
X207674999Y-91581249D02*
G75*
G02*
X207174999Y-92081249I-500000J0D01*
G01*
X50799999Y-97631249D02*
X50800000Y-110631250D01*
X63637500Y-116681250D02*
G75*
G02*
X64137500Y-116181250I500000J0D01*
G01*
X19843750Y-116681250D02*
G75*
G02*
X20343750Y-116181250I500000J0D01*
G01*
X106068750Y-116181250D02*
X119068750Y-116181250D01*
X21006250Y-97631249D02*
X21006250Y-110631250D01*
X222250000Y-97631249D02*
G75*
G02*
X222750000Y-97131249I500000J0D01*
G01*
X203700000Y-97131250D02*
X216700000Y-97131250D01*
X137025000Y-78081250D02*
X150024999Y-78081250D01*
X231775000Y-78581250D02*
G75*
G02*
X232275000Y-78081250I500000J0D01*
G01*
X44206249Y-97631249D02*
X44206249Y-110631250D01*
X42206250Y-97631249D02*
X42206250Y-110631250D01*
X127500000Y-97131250D02*
X140500000Y-97131250D01*
X127500000Y-111131251D02*
G75*
G02*
X126999999Y-110631250I0J500001D01*
G01*
X265612499Y-111131250D02*
X278612500Y-111131250D01*
X145762501Y-72531249D02*
G75*
G02*
X145262500Y-73031250I-500001J0D01*
G01*
X36512500Y-59531250D02*
X36512500Y-72531249D01*
M02*
