G04 #@! TF.GenerationSoftware,KiCad,Pcbnew,5.1.10*
G04 #@! TF.CreationDate,2021-06-17T00:43:33+09:00*
G04 #@! TF.ProjectId,bakeneko40,62616b65-6e65-46b6-9f34-302e6b696361,rev?*
G04 #@! TF.SameCoordinates,Original*
G04 #@! TF.FileFunction,Copper,L2,Bot*
G04 #@! TF.FilePolarity,Positive*
%FSLAX46Y46*%
G04 Gerber Fmt 4.6, Leading zero omitted, Abs format (unit mm)*
G04 Created by KiCad (PCBNEW 5.1.10) date 2021-06-17 00:43:33*
%MOMM*%
%LPD*%
G01*
G04 APERTURE LIST*
G04 #@! TA.AperFunction,SMDPad,CuDef*
%ADD10R,3.100000X3.100000*%
G04 #@! TD*
G04 #@! TA.AperFunction,ComponentPad*
%ADD11C,2.250000*%
G04 #@! TD*
G04 #@! TA.AperFunction,SMDPad,CuDef*
%ADD12R,1.400000X1.200000*%
G04 #@! TD*
G04 #@! TA.AperFunction,SMDPad,CuDef*
%ADD13R,0.650000X1.060000*%
G04 #@! TD*
G04 #@! TA.AperFunction,SMDPad,CuDef*
%ADD14R,1.800000X1.100000*%
G04 #@! TD*
G04 #@! TA.AperFunction,ComponentPad*
%ADD15R,1.700000X1.700000*%
G04 #@! TD*
G04 #@! TA.AperFunction,ComponentPad*
%ADD16C,1.700000*%
G04 #@! TD*
G04 #@! TA.AperFunction,SMDPad,CuDef*
%ADD17R,0.600000X1.550000*%
G04 #@! TD*
G04 #@! TA.AperFunction,SMDPad,CuDef*
%ADD18R,1.200000X1.800000*%
G04 #@! TD*
G04 #@! TA.AperFunction,SMDPad,CuDef*
%ADD19R,1.200000X0.900000*%
G04 #@! TD*
G04 #@! TA.AperFunction,ViaPad*
%ADD20C,0.800000*%
G04 #@! TD*
G04 #@! TA.AperFunction,Conductor*
%ADD21C,0.299720*%
G04 #@! TD*
G04 #@! TA.AperFunction,Conductor*
%ADD22C,0.254000*%
G04 #@! TD*
G04 #@! TA.AperFunction,Conductor*
%ADD23C,0.030000*%
G04 #@! TD*
G04 #@! TA.AperFunction,Conductor*
%ADD24C,0.100000*%
G04 #@! TD*
G04 #@! TA.AperFunction,NonConductor*
%ADD25C,0.025400*%
G04 #@! TD*
G04 #@! TA.AperFunction,NonConductor*
%ADD26C,0.100000*%
G04 #@! TD*
G04 APERTURE END LIST*
D10*
G04 #@! TO.P,U1,33*
G04 #@! TO.N,GND*
X138875800Y-111092180D03*
G04 #@! TO.P,U1,32*
G04 #@! TO.N,+5V*
G04 #@! TA.AperFunction,SMDPad,CuDef*
G36*
G01*
X141688300Y-112967180D02*
X140938300Y-112967180D01*
G75*
G02*
X140875800Y-112904680I0J62500D01*
G01*
X140875800Y-112779680D01*
G75*
G02*
X140938300Y-112717180I62500J0D01*
G01*
X141688300Y-112717180D01*
G75*
G02*
X141750800Y-112779680I0J-62500D01*
G01*
X141750800Y-112904680D01*
G75*
G02*
X141688300Y-112967180I-62500J0D01*
G01*
G37*
G04 #@! TD.AperFunction*
G04 #@! TO.P,U1,31*
G04 #@! TA.AperFunction,SMDPad,CuDef*
G36*
G01*
X141688300Y-112467180D02*
X140938300Y-112467180D01*
G75*
G02*
X140875800Y-112404680I0J62500D01*
G01*
X140875800Y-112279680D01*
G75*
G02*
X140938300Y-112217180I62500J0D01*
G01*
X141688300Y-112217180D01*
G75*
G02*
X141750800Y-112279680I0J-62500D01*
G01*
X141750800Y-112404680D01*
G75*
G02*
X141688300Y-112467180I-62500J0D01*
G01*
G37*
G04 #@! TD.AperFunction*
G04 #@! TO.P,U1,30*
G04 #@! TO.N,Net-(R3-Pad1)*
G04 #@! TA.AperFunction,SMDPad,CuDef*
G36*
G01*
X141688300Y-111967180D02*
X140938300Y-111967180D01*
G75*
G02*
X140875800Y-111904680I0J62500D01*
G01*
X140875800Y-111779680D01*
G75*
G02*
X140938300Y-111717180I62500J0D01*
G01*
X141688300Y-111717180D01*
G75*
G02*
X141750800Y-111779680I0J-62500D01*
G01*
X141750800Y-111904680D01*
G75*
G02*
X141688300Y-111967180I-62500J0D01*
G01*
G37*
G04 #@! TD.AperFunction*
G04 #@! TO.P,U1,29*
G04 #@! TO.N,Net-(R2-Pad1)*
G04 #@! TA.AperFunction,SMDPad,CuDef*
G36*
G01*
X141688300Y-111467180D02*
X140938300Y-111467180D01*
G75*
G02*
X140875800Y-111404680I0J62500D01*
G01*
X140875800Y-111279680D01*
G75*
G02*
X140938300Y-111217180I62500J0D01*
G01*
X141688300Y-111217180D01*
G75*
G02*
X141750800Y-111279680I0J-62500D01*
G01*
X141750800Y-111404680D01*
G75*
G02*
X141688300Y-111467180I-62500J0D01*
G01*
G37*
G04 #@! TD.AperFunction*
G04 #@! TO.P,U1,28*
G04 #@! TO.N,GND*
G04 #@! TA.AperFunction,SMDPad,CuDef*
G36*
G01*
X141688300Y-110967180D02*
X140938300Y-110967180D01*
G75*
G02*
X140875800Y-110904680I0J62500D01*
G01*
X140875800Y-110779680D01*
G75*
G02*
X140938300Y-110717180I62500J0D01*
G01*
X141688300Y-110717180D01*
G75*
G02*
X141750800Y-110779680I0J-62500D01*
G01*
X141750800Y-110904680D01*
G75*
G02*
X141688300Y-110967180I-62500J0D01*
G01*
G37*
G04 #@! TD.AperFunction*
G04 #@! TO.P,U1,27*
G04 #@! TO.N,Net-(C1-Pad1)*
G04 #@! TA.AperFunction,SMDPad,CuDef*
G36*
G01*
X141688300Y-110467180D02*
X140938300Y-110467180D01*
G75*
G02*
X140875800Y-110404680I0J62500D01*
G01*
X140875800Y-110279680D01*
G75*
G02*
X140938300Y-110217180I62500J0D01*
G01*
X141688300Y-110217180D01*
G75*
G02*
X141750800Y-110279680I0J-62500D01*
G01*
X141750800Y-110404680D01*
G75*
G02*
X141688300Y-110467180I-62500J0D01*
G01*
G37*
G04 #@! TD.AperFunction*
G04 #@! TO.P,U1,26*
G04 #@! TO.N,COL6*
G04 #@! TA.AperFunction,SMDPad,CuDef*
G36*
G01*
X141688300Y-109967180D02*
X140938300Y-109967180D01*
G75*
G02*
X140875800Y-109904680I0J62500D01*
G01*
X140875800Y-109779680D01*
G75*
G02*
X140938300Y-109717180I62500J0D01*
G01*
X141688300Y-109717180D01*
G75*
G02*
X141750800Y-109779680I0J-62500D01*
G01*
X141750800Y-109904680D01*
G75*
G02*
X141688300Y-109967180I-62500J0D01*
G01*
G37*
G04 #@! TD.AperFunction*
G04 #@! TO.P,U1,25*
G04 #@! TO.N,COL5*
G04 #@! TA.AperFunction,SMDPad,CuDef*
G36*
G01*
X141688300Y-109467180D02*
X140938300Y-109467180D01*
G75*
G02*
X140875800Y-109404680I0J62500D01*
G01*
X140875800Y-109279680D01*
G75*
G02*
X140938300Y-109217180I62500J0D01*
G01*
X141688300Y-109217180D01*
G75*
G02*
X141750800Y-109279680I0J-62500D01*
G01*
X141750800Y-109404680D01*
G75*
G02*
X141688300Y-109467180I-62500J0D01*
G01*
G37*
G04 #@! TD.AperFunction*
G04 #@! TO.P,U1,24*
G04 #@! TO.N,Net-(J2-Pad5)*
G04 #@! TA.AperFunction,SMDPad,CuDef*
G36*
G01*
X140688300Y-109092180D02*
X140563300Y-109092180D01*
G75*
G02*
X140500800Y-109029680I0J62500D01*
G01*
X140500800Y-108279680D01*
G75*
G02*
X140563300Y-108217180I62500J0D01*
G01*
X140688300Y-108217180D01*
G75*
G02*
X140750800Y-108279680I0J-62500D01*
G01*
X140750800Y-109029680D01*
G75*
G02*
X140688300Y-109092180I-62500J0D01*
G01*
G37*
G04 #@! TD.AperFunction*
G04 #@! TO.P,U1,23*
G04 #@! TO.N,COL4*
G04 #@! TA.AperFunction,SMDPad,CuDef*
G36*
G01*
X140188300Y-109092180D02*
X140063300Y-109092180D01*
G75*
G02*
X140000800Y-109029680I0J62500D01*
G01*
X140000800Y-108279680D01*
G75*
G02*
X140063300Y-108217180I62500J0D01*
G01*
X140188300Y-108217180D01*
G75*
G02*
X140250800Y-108279680I0J-62500D01*
G01*
X140250800Y-109029680D01*
G75*
G02*
X140188300Y-109092180I-62500J0D01*
G01*
G37*
G04 #@! TD.AperFunction*
G04 #@! TO.P,U1,22*
G04 #@! TO.N,ROW5*
G04 #@! TA.AperFunction,SMDPad,CuDef*
G36*
G01*
X139688300Y-109092180D02*
X139563300Y-109092180D01*
G75*
G02*
X139500800Y-109029680I0J62500D01*
G01*
X139500800Y-108279680D01*
G75*
G02*
X139563300Y-108217180I62500J0D01*
G01*
X139688300Y-108217180D01*
G75*
G02*
X139750800Y-108279680I0J-62500D01*
G01*
X139750800Y-109029680D01*
G75*
G02*
X139688300Y-109092180I-62500J0D01*
G01*
G37*
G04 #@! TD.AperFunction*
G04 #@! TO.P,U1,21*
G04 #@! TO.N,Net-(U1-Pad21)*
G04 #@! TA.AperFunction,SMDPad,CuDef*
G36*
G01*
X139188300Y-109092180D02*
X139063300Y-109092180D01*
G75*
G02*
X139000800Y-109029680I0J62500D01*
G01*
X139000800Y-108279680D01*
G75*
G02*
X139063300Y-108217180I62500J0D01*
G01*
X139188300Y-108217180D01*
G75*
G02*
X139250800Y-108279680I0J-62500D01*
G01*
X139250800Y-109029680D01*
G75*
G02*
X139188300Y-109092180I-62500J0D01*
G01*
G37*
G04 #@! TD.AperFunction*
G04 #@! TO.P,U1,20*
G04 #@! TO.N,ROW4*
G04 #@! TA.AperFunction,SMDPad,CuDef*
G36*
G01*
X138688300Y-109092180D02*
X138563300Y-109092180D01*
G75*
G02*
X138500800Y-109029680I0J62500D01*
G01*
X138500800Y-108279680D01*
G75*
G02*
X138563300Y-108217180I62500J0D01*
G01*
X138688300Y-108217180D01*
G75*
G02*
X138750800Y-108279680I0J-62500D01*
G01*
X138750800Y-109029680D01*
G75*
G02*
X138688300Y-109092180I-62500J0D01*
G01*
G37*
G04 #@! TD.AperFunction*
G04 #@! TO.P,U1,19*
G04 #@! TO.N,ROW3*
G04 #@! TA.AperFunction,SMDPad,CuDef*
G36*
G01*
X138188300Y-109092180D02*
X138063300Y-109092180D01*
G75*
G02*
X138000800Y-109029680I0J62500D01*
G01*
X138000800Y-108279680D01*
G75*
G02*
X138063300Y-108217180I62500J0D01*
G01*
X138188300Y-108217180D01*
G75*
G02*
X138250800Y-108279680I0J-62500D01*
G01*
X138250800Y-109029680D01*
G75*
G02*
X138188300Y-109092180I-62500J0D01*
G01*
G37*
G04 #@! TD.AperFunction*
G04 #@! TO.P,U1,18*
G04 #@! TO.N,ROW1*
G04 #@! TA.AperFunction,SMDPad,CuDef*
G36*
G01*
X137688300Y-109092180D02*
X137563300Y-109092180D01*
G75*
G02*
X137500800Y-109029680I0J62500D01*
G01*
X137500800Y-108279680D01*
G75*
G02*
X137563300Y-108217180I62500J0D01*
G01*
X137688300Y-108217180D01*
G75*
G02*
X137750800Y-108279680I0J-62500D01*
G01*
X137750800Y-109029680D01*
G75*
G02*
X137688300Y-109092180I-62500J0D01*
G01*
G37*
G04 #@! TD.AperFunction*
G04 #@! TO.P,U1,17*
G04 #@! TO.N,Net-(U1-Pad17)*
G04 #@! TA.AperFunction,SMDPad,CuDef*
G36*
G01*
X137188300Y-109092180D02*
X137063300Y-109092180D01*
G75*
G02*
X137000800Y-109029680I0J62500D01*
G01*
X137000800Y-108279680D01*
G75*
G02*
X137063300Y-108217180I62500J0D01*
G01*
X137188300Y-108217180D01*
G75*
G02*
X137250800Y-108279680I0J-62500D01*
G01*
X137250800Y-109029680D01*
G75*
G02*
X137188300Y-109092180I-62500J0D01*
G01*
G37*
G04 #@! TD.AperFunction*
G04 #@! TO.P,U1,16*
G04 #@! TO.N,ROW2*
G04 #@! TA.AperFunction,SMDPad,CuDef*
G36*
G01*
X136813300Y-109467180D02*
X136063300Y-109467180D01*
G75*
G02*
X136000800Y-109404680I0J62500D01*
G01*
X136000800Y-109279680D01*
G75*
G02*
X136063300Y-109217180I62500J0D01*
G01*
X136813300Y-109217180D01*
G75*
G02*
X136875800Y-109279680I0J-62500D01*
G01*
X136875800Y-109404680D01*
G75*
G02*
X136813300Y-109467180I-62500J0D01*
G01*
G37*
G04 #@! TD.AperFunction*
G04 #@! TO.P,U1,15*
G04 #@! TO.N,ROW6*
G04 #@! TA.AperFunction,SMDPad,CuDef*
G36*
G01*
X136813300Y-109967180D02*
X136063300Y-109967180D01*
G75*
G02*
X136000800Y-109904680I0J62500D01*
G01*
X136000800Y-109779680D01*
G75*
G02*
X136063300Y-109717180I62500J0D01*
G01*
X136813300Y-109717180D01*
G75*
G02*
X136875800Y-109779680I0J-62500D01*
G01*
X136875800Y-109904680D01*
G75*
G02*
X136813300Y-109967180I-62500J0D01*
G01*
G37*
G04 #@! TD.AperFunction*
G04 #@! TO.P,U1,14*
G04 #@! TO.N,COL3*
G04 #@! TA.AperFunction,SMDPad,CuDef*
G36*
G01*
X136813300Y-110467180D02*
X136063300Y-110467180D01*
G75*
G02*
X136000800Y-110404680I0J62500D01*
G01*
X136000800Y-110279680D01*
G75*
G02*
X136063300Y-110217180I62500J0D01*
G01*
X136813300Y-110217180D01*
G75*
G02*
X136875800Y-110279680I0J-62500D01*
G01*
X136875800Y-110404680D01*
G75*
G02*
X136813300Y-110467180I-62500J0D01*
G01*
G37*
G04 #@! TD.AperFunction*
G04 #@! TO.P,U1,13*
G04 #@! TO.N,Net-(R1-Pad2)*
G04 #@! TA.AperFunction,SMDPad,CuDef*
G36*
G01*
X136813300Y-110967180D02*
X136063300Y-110967180D01*
G75*
G02*
X136000800Y-110904680I0J62500D01*
G01*
X136000800Y-110779680D01*
G75*
G02*
X136063300Y-110717180I62500J0D01*
G01*
X136813300Y-110717180D01*
G75*
G02*
X136875800Y-110779680I0J-62500D01*
G01*
X136875800Y-110904680D01*
G75*
G02*
X136813300Y-110967180I-62500J0D01*
G01*
G37*
G04 #@! TD.AperFunction*
G04 #@! TO.P,U1,12*
G04 #@! TO.N,COL2*
G04 #@! TA.AperFunction,SMDPad,CuDef*
G36*
G01*
X136813300Y-111467180D02*
X136063300Y-111467180D01*
G75*
G02*
X136000800Y-111404680I0J62500D01*
G01*
X136000800Y-111279680D01*
G75*
G02*
X136063300Y-111217180I62500J0D01*
G01*
X136813300Y-111217180D01*
G75*
G02*
X136875800Y-111279680I0J-62500D01*
G01*
X136875800Y-111404680D01*
G75*
G02*
X136813300Y-111467180I-62500J0D01*
G01*
G37*
G04 #@! TD.AperFunction*
G04 #@! TO.P,U1,11*
G04 #@! TO.N,COL1*
G04 #@! TA.AperFunction,SMDPad,CuDef*
G36*
G01*
X136813300Y-111967180D02*
X136063300Y-111967180D01*
G75*
G02*
X136000800Y-111904680I0J62500D01*
G01*
X136000800Y-111779680D01*
G75*
G02*
X136063300Y-111717180I62500J0D01*
G01*
X136813300Y-111717180D01*
G75*
G02*
X136875800Y-111779680I0J-62500D01*
G01*
X136875800Y-111904680D01*
G75*
G02*
X136813300Y-111967180I-62500J0D01*
G01*
G37*
G04 #@! TD.AperFunction*
G04 #@! TO.P,U1,10*
G04 #@! TO.N,SCK*
G04 #@! TA.AperFunction,SMDPad,CuDef*
G36*
G01*
X136813300Y-112467180D02*
X136063300Y-112467180D01*
G75*
G02*
X136000800Y-112404680I0J62500D01*
G01*
X136000800Y-112279680D01*
G75*
G02*
X136063300Y-112217180I62500J0D01*
G01*
X136813300Y-112217180D01*
G75*
G02*
X136875800Y-112279680I0J-62500D01*
G01*
X136875800Y-112404680D01*
G75*
G02*
X136813300Y-112467180I-62500J0D01*
G01*
G37*
G04 #@! TD.AperFunction*
G04 #@! TO.P,U1,9*
G04 #@! TO.N,MISO*
G04 #@! TA.AperFunction,SMDPad,CuDef*
G36*
G01*
X136813300Y-112967180D02*
X136063300Y-112967180D01*
G75*
G02*
X136000800Y-112904680I0J62500D01*
G01*
X136000800Y-112779680D01*
G75*
G02*
X136063300Y-112717180I62500J0D01*
G01*
X136813300Y-112717180D01*
G75*
G02*
X136875800Y-112779680I0J-62500D01*
G01*
X136875800Y-112904680D01*
G75*
G02*
X136813300Y-112967180I-62500J0D01*
G01*
G37*
G04 #@! TD.AperFunction*
G04 #@! TO.P,U1,8*
G04 #@! TO.N,MOSI*
G04 #@! TA.AperFunction,SMDPad,CuDef*
G36*
G01*
X137188300Y-113967180D02*
X137063300Y-113967180D01*
G75*
G02*
X137000800Y-113904680I0J62500D01*
G01*
X137000800Y-113154680D01*
G75*
G02*
X137063300Y-113092180I62500J0D01*
G01*
X137188300Y-113092180D01*
G75*
G02*
X137250800Y-113154680I0J-62500D01*
G01*
X137250800Y-113904680D01*
G75*
G02*
X137188300Y-113967180I-62500J0D01*
G01*
G37*
G04 #@! TD.AperFunction*
G04 #@! TO.P,U1,7*
G04 #@! TO.N,ROW8*
G04 #@! TA.AperFunction,SMDPad,CuDef*
G36*
G01*
X137688300Y-113967180D02*
X137563300Y-113967180D01*
G75*
G02*
X137500800Y-113904680I0J62500D01*
G01*
X137500800Y-113154680D01*
G75*
G02*
X137563300Y-113092180I62500J0D01*
G01*
X137688300Y-113092180D01*
G75*
G02*
X137750800Y-113154680I0J-62500D01*
G01*
X137750800Y-113904680D01*
G75*
G02*
X137688300Y-113967180I-62500J0D01*
G01*
G37*
G04 #@! TD.AperFunction*
G04 #@! TO.P,U1,6*
G04 #@! TO.N,ROW7*
G04 #@! TA.AperFunction,SMDPad,CuDef*
G36*
G01*
X138188300Y-113967180D02*
X138063300Y-113967180D01*
G75*
G02*
X138000800Y-113904680I0J62500D01*
G01*
X138000800Y-113154680D01*
G75*
G02*
X138063300Y-113092180I62500J0D01*
G01*
X138188300Y-113092180D01*
G75*
G02*
X138250800Y-113154680I0J-62500D01*
G01*
X138250800Y-113904680D01*
G75*
G02*
X138188300Y-113967180I-62500J0D01*
G01*
G37*
G04 #@! TD.AperFunction*
G04 #@! TO.P,U1,5*
G04 #@! TO.N,COL7*
G04 #@! TA.AperFunction,SMDPad,CuDef*
G36*
G01*
X138688300Y-113967180D02*
X138563300Y-113967180D01*
G75*
G02*
X138500800Y-113904680I0J62500D01*
G01*
X138500800Y-113154680D01*
G75*
G02*
X138563300Y-113092180I62500J0D01*
G01*
X138688300Y-113092180D01*
G75*
G02*
X138750800Y-113154680I0J-62500D01*
G01*
X138750800Y-113904680D01*
G75*
G02*
X138688300Y-113967180I-62500J0D01*
G01*
G37*
G04 #@! TD.AperFunction*
G04 #@! TO.P,U1,4*
G04 #@! TO.N,+5V*
G04 #@! TA.AperFunction,SMDPad,CuDef*
G36*
G01*
X139188300Y-113967180D02*
X139063300Y-113967180D01*
G75*
G02*
X139000800Y-113904680I0J62500D01*
G01*
X139000800Y-113154680D01*
G75*
G02*
X139063300Y-113092180I62500J0D01*
G01*
X139188300Y-113092180D01*
G75*
G02*
X139250800Y-113154680I0J-62500D01*
G01*
X139250800Y-113904680D01*
G75*
G02*
X139188300Y-113967180I-62500J0D01*
G01*
G37*
G04 #@! TD.AperFunction*
G04 #@! TO.P,U1,3*
G04 #@! TO.N,GND*
G04 #@! TA.AperFunction,SMDPad,CuDef*
G36*
G01*
X139688300Y-113967180D02*
X139563300Y-113967180D01*
G75*
G02*
X139500800Y-113904680I0J62500D01*
G01*
X139500800Y-113154680D01*
G75*
G02*
X139563300Y-113092180I62500J0D01*
G01*
X139688300Y-113092180D01*
G75*
G02*
X139750800Y-113154680I0J-62500D01*
G01*
X139750800Y-113904680D01*
G75*
G02*
X139688300Y-113967180I-62500J0D01*
G01*
G37*
G04 #@! TD.AperFunction*
G04 #@! TO.P,U1,2*
G04 #@! TO.N,Net-(C7-Pad1)*
G04 #@! TA.AperFunction,SMDPad,CuDef*
G36*
G01*
X140188300Y-113967180D02*
X140063300Y-113967180D01*
G75*
G02*
X140000800Y-113904680I0J62500D01*
G01*
X140000800Y-113154680D01*
G75*
G02*
X140063300Y-113092180I62500J0D01*
G01*
X140188300Y-113092180D01*
G75*
G02*
X140250800Y-113154680I0J-62500D01*
G01*
X140250800Y-113904680D01*
G75*
G02*
X140188300Y-113967180I-62500J0D01*
G01*
G37*
G04 #@! TD.AperFunction*
G04 #@! TO.P,U1,1*
G04 #@! TO.N,Net-(C6-Pad1)*
G04 #@! TA.AperFunction,SMDPad,CuDef*
G36*
G01*
X140688300Y-113967180D02*
X140563300Y-113967180D01*
G75*
G02*
X140500800Y-113904680I0J62500D01*
G01*
X140500800Y-113154680D01*
G75*
G02*
X140563300Y-113092180I62500J0D01*
G01*
X140688300Y-113092180D01*
G75*
G02*
X140750800Y-113154680I0J-62500D01*
G01*
X140750800Y-113904680D01*
G75*
G02*
X140688300Y-113967180I-62500J0D01*
G01*
G37*
G04 #@! TD.AperFunction*
G04 #@! TD*
D11*
G04 #@! TO.P,MX45,2*
G04 #@! TO.N,Net-(D45-Pad2)*
X163671250Y-109220000D03*
G04 #@! TO.P,MX45,1*
G04 #@! TO.N,COL4*
X157321250Y-111760000D03*
G04 #@! TD*
G04 #@! TO.P,MX44,2*
G04 #@! TO.N,Net-(D44-Pad2)*
X116046250Y-109220000D03*
G04 #@! TO.P,MX44,1*
G04 #@! TO.N,COL3*
X109696250Y-111760000D03*
G04 #@! TD*
G04 #@! TO.P,MX32,2*
G04 #@! TO.N,Net-(D32-Pad2)*
X118427500Y-90170000D03*
G04 #@! TO.P,MX32,1*
G04 #@! TO.N,COL3*
X112077500Y-92710000D03*
G04 #@! TD*
G04 #@! TO.P,MX41,2*
G04 #@! TO.N,Net-(D41-Pad2)*
X30321250Y-109220000D03*
G04 #@! TO.P,MX41,1*
G04 #@! TO.N,COL1*
X23971250Y-111760000D03*
G04 #@! TD*
G04 #@! TO.P,MX49,2*
G04 #@! TO.N,Net-(D49-Pad2)*
X275590000Y-109220000D03*
G04 #@! TO.P,MX49,1*
G04 #@! TO.N,COL7*
X269240000Y-111760000D03*
G04 #@! TD*
G04 #@! TO.P,MX21,2*
G04 #@! TO.N,Net-(D21-Pad2)*
X147002500Y-71120000D03*
G04 #@! TO.P,MX21,1*
G04 #@! TO.N,COL4*
X140652500Y-73660000D03*
G04 #@! TD*
G04 #@! TO.P,MX35,2*
G04 #@! TO.N,Net-(D35-Pad2)*
X175577500Y-90170000D03*
G04 #@! TO.P,MX35,1*
G04 #@! TO.N,COL4*
X169227500Y-92710000D03*
G04 #@! TD*
G04 #@! TO.P,MX14,2*
G04 #@! TO.N,Net-(D14-Pad2)*
X275590000Y-52070000D03*
G04 #@! TO.P,MX14,1*
G04 #@! TO.N,COL7*
X269240000Y-54610000D03*
G04 #@! TD*
G04 #@! TO.P,MX3,2*
G04 #@! TO.N,Net-(D3-Pad2)*
X66040000Y-52070000D03*
G04 #@! TO.P,MX3,1*
G04 #@! TO.N,COL2*
X59690000Y-54610000D03*
G04 #@! TD*
G04 #@! TO.P,MX30,2*
G04 #@! TO.N,Net-(D30-Pad2)*
X80327500Y-90170000D03*
G04 #@! TO.P,MX30,1*
G04 #@! TO.N,COL2*
X73977500Y-92710000D03*
G04 #@! TD*
G04 #@! TO.P,MX42,2*
G04 #@! TO.N,Net-(D42-Pad2)*
X56515000Y-109220000D03*
G04 #@! TO.P,MX42,1*
G04 #@! TO.N,COL1*
X50165000Y-111760000D03*
G04 #@! TD*
D12*
G04 #@! TO.P,Y1,4*
G04 #@! TO.N,GND*
X137500000Y-121430077D03*
G04 #@! TO.P,Y1,3*
G04 #@! TO.N,Net-(C7-Pad1)*
X139700000Y-121430077D03*
G04 #@! TO.P,Y1,2*
G04 #@! TO.N,GND*
X139700000Y-119730077D03*
G04 #@! TO.P,Y1,1*
G04 #@! TO.N,Net-(C6-Pad1)*
X137500000Y-119730077D03*
G04 #@! TD*
D13*
G04 #@! TO.P,U2,5*
G04 #@! TO.N,VBUS*
X166049999Y-105534811D03*
G04 #@! TO.P,U2,6*
G04 #@! TO.N,D-*
X165099999Y-105534811D03*
G04 #@! TO.P,U2,4*
G04 #@! TO.N,Net-(U2-Pad4)*
X166999999Y-105534811D03*
G04 #@! TO.P,U2,3*
G04 #@! TO.N,Net-(U2-Pad3)*
X166999999Y-103334811D03*
G04 #@! TO.P,U2,2*
G04 #@! TO.N,GND*
X166049999Y-103334811D03*
G04 #@! TO.P,U2,1*
G04 #@! TO.N,D+*
X165099999Y-103334811D03*
G04 #@! TD*
D14*
G04 #@! TO.P,SW1,4*
G04 #@! TO.N,N/C*
X150887500Y-83081250D03*
G04 #@! TO.P,SW1,3*
X157087500Y-86781250D03*
G04 #@! TO.P,SW1,2*
G04 #@! TO.N,Net-(J2-Pad5)*
X150887500Y-86781250D03*
G04 #@! TO.P,SW1,1*
G04 #@! TO.N,GND*
X157087500Y-83081250D03*
G04 #@! TD*
G04 #@! TO.P,R4,2*
G04 #@! TO.N,Net-(J2-Pad5)*
G04 #@! TA.AperFunction,SMDPad,CuDef*
G36*
G01*
X138456248Y-102912500D02*
X139356252Y-102912500D01*
G75*
G02*
X139606250Y-103162498I0J-249998D01*
G01*
X139606250Y-103687502D01*
G75*
G02*
X139356252Y-103937500I-249998J0D01*
G01*
X138456248Y-103937500D01*
G75*
G02*
X138206250Y-103687502I0J249998D01*
G01*
X138206250Y-103162498D01*
G75*
G02*
X138456248Y-102912500I249998J0D01*
G01*
G37*
G04 #@! TD.AperFunction*
G04 #@! TO.P,R4,1*
G04 #@! TO.N,+5V*
G04 #@! TA.AperFunction,SMDPad,CuDef*
G36*
G01*
X138456248Y-101087500D02*
X139356252Y-101087500D01*
G75*
G02*
X139606250Y-101337498I0J-249998D01*
G01*
X139606250Y-101862502D01*
G75*
G02*
X139356252Y-102112500I-249998J0D01*
G01*
X138456248Y-102112500D01*
G75*
G02*
X138206250Y-101862502I0J249998D01*
G01*
X138206250Y-101337498D01*
G75*
G02*
X138456248Y-101087500I249998J0D01*
G01*
G37*
G04 #@! TD.AperFunction*
G04 #@! TD*
G04 #@! TO.P,R3,2*
G04 #@! TO.N,D-*
G04 #@! TA.AperFunction,SMDPad,CuDef*
G36*
G01*
X158356250Y-106018752D02*
X158356250Y-105118748D01*
G75*
G02*
X158606248Y-104868750I249998J0D01*
G01*
X159131252Y-104868750D01*
G75*
G02*
X159381250Y-105118748I0J-249998D01*
G01*
X159381250Y-106018752D01*
G75*
G02*
X159131252Y-106268750I-249998J0D01*
G01*
X158606248Y-106268750D01*
G75*
G02*
X158356250Y-106018752I0J249998D01*
G01*
G37*
G04 #@! TD.AperFunction*
G04 #@! TO.P,R3,1*
G04 #@! TO.N,Net-(R3-Pad1)*
G04 #@! TA.AperFunction,SMDPad,CuDef*
G36*
G01*
X156531250Y-106018752D02*
X156531250Y-105118748D01*
G75*
G02*
X156781248Y-104868750I249998J0D01*
G01*
X157306252Y-104868750D01*
G75*
G02*
X157556250Y-105118748I0J-249998D01*
G01*
X157556250Y-106018752D01*
G75*
G02*
X157306252Y-106268750I-249998J0D01*
G01*
X156781248Y-106268750D01*
G75*
G02*
X156531250Y-106018752I0J249998D01*
G01*
G37*
G04 #@! TD.AperFunction*
G04 #@! TD*
G04 #@! TO.P,R2,2*
G04 #@! TO.N,D+*
G04 #@! TA.AperFunction,SMDPad,CuDef*
G36*
G01*
X158356250Y-103637502D02*
X158356250Y-102737498D01*
G75*
G02*
X158606248Y-102487500I249998J0D01*
G01*
X159131252Y-102487500D01*
G75*
G02*
X159381250Y-102737498I0J-249998D01*
G01*
X159381250Y-103637502D01*
G75*
G02*
X159131252Y-103887500I-249998J0D01*
G01*
X158606248Y-103887500D01*
G75*
G02*
X158356250Y-103637502I0J249998D01*
G01*
G37*
G04 #@! TD.AperFunction*
G04 #@! TO.P,R2,1*
G04 #@! TO.N,Net-(R2-Pad1)*
G04 #@! TA.AperFunction,SMDPad,CuDef*
G36*
G01*
X156531250Y-103637502D02*
X156531250Y-102737498D01*
G75*
G02*
X156781248Y-102487500I249998J0D01*
G01*
X157306252Y-102487500D01*
G75*
G02*
X157556250Y-102737498I0J-249998D01*
G01*
X157556250Y-103637502D01*
G75*
G02*
X157306252Y-103887500I-249998J0D01*
G01*
X156781248Y-103887500D01*
G75*
G02*
X156531250Y-103637502I0J249998D01*
G01*
G37*
G04 #@! TD.AperFunction*
G04 #@! TD*
G04 #@! TO.P,R1,2*
G04 #@! TO.N,Net-(R1-Pad2)*
G04 #@! TA.AperFunction,SMDPad,CuDef*
G36*
G01*
X131250000Y-106812502D02*
X131250000Y-105912498D01*
G75*
G02*
X131499998Y-105662500I249998J0D01*
G01*
X132025002Y-105662500D01*
G75*
G02*
X132275000Y-105912498I0J-249998D01*
G01*
X132275000Y-106812502D01*
G75*
G02*
X132025002Y-107062500I-249998J0D01*
G01*
X131499998Y-107062500D01*
G75*
G02*
X131250000Y-106812502I0J249998D01*
G01*
G37*
G04 #@! TD.AperFunction*
G04 #@! TO.P,R1,1*
G04 #@! TO.N,GND*
G04 #@! TA.AperFunction,SMDPad,CuDef*
G36*
G01*
X129425000Y-106812502D02*
X129425000Y-105912498D01*
G75*
G02*
X129674998Y-105662500I249998J0D01*
G01*
X130200002Y-105662500D01*
G75*
G02*
X130450000Y-105912498I0J-249998D01*
G01*
X130450000Y-106812502D01*
G75*
G02*
X130200002Y-107062500I-249998J0D01*
G01*
X129674998Y-107062500D01*
G75*
G02*
X129425000Y-106812502I0J249998D01*
G01*
G37*
G04 #@! TD.AperFunction*
G04 #@! TD*
D11*
G04 #@! TO.P,MX48,2*
G04 #@! TO.N,Net-(D48-Pad2)*
X254158750Y-109220000D03*
G04 #@! TO.P,MX48,1*
G04 #@! TO.N,COL6*
X247808750Y-111760000D03*
G04 #@! TD*
G04 #@! TO.P,MX47,2*
G04 #@! TO.N,Net-(D47-Pad2)*
X227965000Y-109220000D03*
G04 #@! TO.P,MX47,1*
G04 #@! TO.N,COL6*
X221615000Y-111760000D03*
G04 #@! TD*
G04 #@! TO.P,MX46,2*
G04 #@! TO.N,Net-(D46-Pad2)*
X201771250Y-109220000D03*
G04 #@! TO.P,MX46,1*
G04 #@! TO.N,COL5*
X195421250Y-111760000D03*
G04 #@! TD*
G04 #@! TO.P,MX43,2*
G04 #@! TO.N,Net-(D43-Pad2)*
X82708750Y-109220000D03*
G04 #@! TO.P,MX43,1*
G04 #@! TO.N,COL2*
X76358750Y-111760000D03*
G04 #@! TD*
G04 #@! TO.P,MX40,2*
G04 #@! TO.N,Net-(D40-Pad2)*
X275590000Y-90170000D03*
G04 #@! TO.P,MX40,1*
G04 #@! TO.N,COL7*
X269240000Y-92710000D03*
G04 #@! TD*
G04 #@! TO.P,MX39,2*
G04 #@! TO.N,Net-(D39-Pad2)*
X254158750Y-90170000D03*
G04 #@! TO.P,MX39,1*
G04 #@! TO.N,COL6*
X247808750Y-92710000D03*
G04 #@! TD*
G04 #@! TO.P,MX38,2*
G04 #@! TO.N,Net-(D38-Pad2)*
X232727500Y-90170000D03*
G04 #@! TO.P,MX38,1*
G04 #@! TO.N,COL6*
X226377500Y-92710000D03*
G04 #@! TD*
G04 #@! TO.P,MX37,2*
G04 #@! TO.N,Net-(D37-Pad2)*
X213677500Y-90170000D03*
G04 #@! TO.P,MX37,1*
G04 #@! TO.N,COL5*
X207327500Y-92710000D03*
G04 #@! TD*
G04 #@! TO.P,MX36,2*
G04 #@! TO.N,Net-(D36-Pad2)*
X194627500Y-90170000D03*
G04 #@! TO.P,MX36,1*
G04 #@! TO.N,COL5*
X188277500Y-92710000D03*
G04 #@! TD*
G04 #@! TO.P,MX34,2*
G04 #@! TO.N,Net-(D34-Pad2)*
X156527500Y-90170000D03*
G04 #@! TO.P,MX34,1*
G04 #@! TO.N,COL4*
X150177500Y-92710000D03*
G04 #@! TD*
G04 #@! TO.P,MX33,2*
G04 #@! TO.N,Net-(D33-Pad2)*
X137477500Y-90170000D03*
G04 #@! TO.P,MX33,1*
G04 #@! TO.N,COL3*
X131127500Y-92710000D03*
G04 #@! TD*
G04 #@! TO.P,MX31,2*
G04 #@! TO.N,Net-(D31-Pad2)*
X99377500Y-90170000D03*
G04 #@! TO.P,MX31,1*
G04 #@! TO.N,COL2*
X93027500Y-92710000D03*
G04 #@! TD*
G04 #@! TO.P,MX29,2*
G04 #@! TO.N,Net-(D29-Pad2)*
X61277500Y-90170000D03*
G04 #@! TO.P,MX29,1*
G04 #@! TO.N,COL1*
X54927500Y-92710000D03*
G04 #@! TD*
G04 #@! TO.P,MX28,2*
G04 #@! TO.N,Net-(D28-Pad2)*
X35083750Y-90170000D03*
G04 #@! TO.P,MX28,1*
G04 #@! TO.N,COL1*
X28733750Y-92710000D03*
G04 #@! TD*
G04 #@! TO.P,MX27,2*
G04 #@! TO.N,Net-(D27-Pad2)*
X268446250Y-71120000D03*
G04 #@! TO.P,MX27,1*
G04 #@! TO.N,COL7*
X262096250Y-73660000D03*
G04 #@! TD*
G04 #@! TO.P,MX26,2*
G04 #@! TO.N,Net-(D26-Pad2)*
X242252500Y-71120000D03*
G04 #@! TO.P,MX26,1*
G04 #@! TO.N,COL6*
X235902500Y-73660000D03*
G04 #@! TD*
G04 #@! TO.P,MX25,2*
G04 #@! TO.N,Net-(D25-Pad2)*
X223202500Y-71120000D03*
G04 #@! TO.P,MX25,1*
G04 #@! TO.N,COL6*
X216852500Y-73660000D03*
G04 #@! TD*
G04 #@! TO.P,MX24,2*
G04 #@! TO.N,Net-(D24-Pad2)*
X204152500Y-71120000D03*
G04 #@! TO.P,MX24,1*
G04 #@! TO.N,COL5*
X197802500Y-73660000D03*
G04 #@! TD*
G04 #@! TO.P,MX23,2*
G04 #@! TO.N,Net-(D23-Pad2)*
X185102500Y-71120000D03*
G04 #@! TO.P,MX23,1*
G04 #@! TO.N,COL5*
X178752500Y-73660000D03*
G04 #@! TD*
G04 #@! TO.P,MX22,2*
G04 #@! TO.N,Net-(D22-Pad2)*
X166052500Y-71120000D03*
G04 #@! TO.P,MX22,1*
G04 #@! TO.N,COL4*
X159702500Y-73660000D03*
G04 #@! TD*
G04 #@! TO.P,MX20,2*
G04 #@! TO.N,Net-(D20-Pad2)*
X127952500Y-71120000D03*
G04 #@! TO.P,MX20,1*
G04 #@! TO.N,COL3*
X121602500Y-73660000D03*
G04 #@! TD*
G04 #@! TO.P,MX19,2*
G04 #@! TO.N,Net-(D19-Pad2)*
X108902500Y-71120000D03*
G04 #@! TO.P,MX19,1*
G04 #@! TO.N,COL3*
X102552500Y-73660000D03*
G04 #@! TD*
G04 #@! TO.P,MX18,2*
G04 #@! TO.N,Net-(D18-Pad2)*
X89852500Y-71120000D03*
G04 #@! TO.P,MX18,1*
G04 #@! TO.N,COL2*
X83502500Y-73660000D03*
G04 #@! TD*
G04 #@! TO.P,MX17,2*
G04 #@! TO.N,Net-(D17-Pad2)*
X70802500Y-71120000D03*
G04 #@! TO.P,MX17,1*
G04 #@! TO.N,COL2*
X64452500Y-73660000D03*
G04 #@! TD*
G04 #@! TO.P,MX16,2*
G04 #@! TO.N,Net-(D16-Pad2)*
X51752500Y-71120000D03*
G04 #@! TO.P,MX16,1*
G04 #@! TO.N,COL1*
X45402500Y-73660000D03*
G04 #@! TD*
G04 #@! TO.P,MX15,2*
G04 #@! TO.N,Net-(D15-Pad2)*
X30321250Y-71120000D03*
G04 #@! TO.P,MX15,1*
G04 #@! TO.N,COL1*
X23971250Y-73660000D03*
G04 #@! TD*
G04 #@! TO.P,MX13,2*
G04 #@! TO.N,Net-(D13-Pad2)*
X256540000Y-52070000D03*
G04 #@! TO.P,MX13,1*
G04 #@! TO.N,COL7*
X250190000Y-54610000D03*
G04 #@! TD*
G04 #@! TO.P,MX12,2*
G04 #@! TO.N,Net-(D12-Pad2)*
X237490000Y-52070000D03*
G04 #@! TO.P,MX12,1*
G04 #@! TO.N,COL6*
X231140000Y-54610000D03*
G04 #@! TD*
G04 #@! TO.P,MX11,2*
G04 #@! TO.N,Net-(D11-Pad2)*
X218440000Y-52070000D03*
G04 #@! TO.P,MX11,1*
G04 #@! TO.N,COL6*
X212090000Y-54610000D03*
G04 #@! TD*
G04 #@! TO.P,MX10,2*
G04 #@! TO.N,Net-(D10-Pad2)*
X199390000Y-52070000D03*
G04 #@! TO.P,MX10,1*
G04 #@! TO.N,COL5*
X193040000Y-54610000D03*
G04 #@! TD*
G04 #@! TO.P,MX9,2*
G04 #@! TO.N,Net-(D9-Pad2)*
X180340000Y-52070000D03*
G04 #@! TO.P,MX9,1*
G04 #@! TO.N,COL5*
X173990000Y-54610000D03*
G04 #@! TD*
G04 #@! TO.P,MX8,2*
G04 #@! TO.N,Net-(D8-Pad2)*
X161290000Y-52070000D03*
G04 #@! TO.P,MX8,1*
G04 #@! TO.N,COL4*
X154940000Y-54610000D03*
G04 #@! TD*
G04 #@! TO.P,MX7,2*
G04 #@! TO.N,Net-(D7-Pad2)*
X142240000Y-52070000D03*
G04 #@! TO.P,MX7,1*
G04 #@! TO.N,COL4*
X135890000Y-54610000D03*
G04 #@! TD*
G04 #@! TO.P,MX6,2*
G04 #@! TO.N,Net-(D6-Pad2)*
X123190000Y-52070000D03*
G04 #@! TO.P,MX6,1*
G04 #@! TO.N,COL3*
X116840000Y-54610000D03*
G04 #@! TD*
G04 #@! TO.P,MX5,2*
G04 #@! TO.N,Net-(D5-Pad2)*
X104140000Y-52070000D03*
G04 #@! TO.P,MX5,1*
G04 #@! TO.N,COL3*
X97790000Y-54610000D03*
G04 #@! TD*
G04 #@! TO.P,MX4,2*
G04 #@! TO.N,Net-(D4-Pad2)*
X85090000Y-52070000D03*
G04 #@! TO.P,MX4,1*
G04 #@! TO.N,COL2*
X78740000Y-54610000D03*
G04 #@! TD*
G04 #@! TO.P,MX2,2*
G04 #@! TO.N,Net-(D2-Pad2)*
X46990000Y-52070000D03*
G04 #@! TO.P,MX2,1*
G04 #@! TO.N,COL1*
X40640000Y-54610000D03*
G04 #@! TD*
G04 #@! TO.P,MX1,2*
G04 #@! TO.N,Net-(D1-Pad2)*
X27940000Y-52070000D03*
G04 #@! TO.P,MX1,1*
G04 #@! TO.N,COL1*
X21590000Y-54610000D03*
G04 #@! TD*
D15*
G04 #@! TO.P,J2,6*
G04 #@! TO.N,GND*
X97790000Y-113823750D03*
D16*
G04 #@! TO.P,J2,5*
G04 #@! TO.N,Net-(J2-Pad5)*
X95250000Y-113823750D03*
G04 #@! TO.P,J2,4*
G04 #@! TO.N,MOSI*
X97790000Y-111283750D03*
G04 #@! TO.P,J2,3*
G04 #@! TO.N,SCK*
X95250000Y-111283750D03*
G04 #@! TO.P,J2,2*
G04 #@! TO.N,+5V*
X97790000Y-108743750D03*
G04 #@! TO.P,J2,1*
G04 #@! TO.N,MISO*
X95250000Y-108743750D03*
G04 #@! TD*
D17*
G04 #@! TO.P,J1,3*
G04 #@! TO.N,D+*
X182268750Y-106375000D03*
G04 #@! TO.P,J1,4*
G04 #@! TO.N,GND*
X183268750Y-106375000D03*
G04 #@! TO.P,J1,2*
G04 #@! TO.N,D-*
X181268750Y-106375000D03*
G04 #@! TO.P,J1,1*
G04 #@! TO.N,VBUS*
X180268750Y-106375000D03*
D18*
G04 #@! TO.P,J1,*
G04 #@! TO.N,*
X178968750Y-102500000D03*
X184568750Y-102500000D03*
G04 #@! TD*
G04 #@! TO.P,F1,2*
G04 #@! TO.N,VBUS*
G04 #@! TA.AperFunction,SMDPad,CuDef*
G36*
G01*
X163681250Y-101431250D02*
X163681250Y-100181250D01*
G75*
G02*
X163931250Y-99931250I250000J0D01*
G01*
X164681250Y-99931250D01*
G75*
G02*
X164931250Y-100181250I0J-250000D01*
G01*
X164931250Y-101431250D01*
G75*
G02*
X164681250Y-101681250I-250000J0D01*
G01*
X163931250Y-101681250D01*
G75*
G02*
X163681250Y-101431250I0J250000D01*
G01*
G37*
G04 #@! TD.AperFunction*
G04 #@! TO.P,F1,1*
G04 #@! TO.N,+5V*
G04 #@! TA.AperFunction,SMDPad,CuDef*
G36*
G01*
X160881250Y-101431250D02*
X160881250Y-100181250D01*
G75*
G02*
X161131250Y-99931250I250000J0D01*
G01*
X161881250Y-99931250D01*
G75*
G02*
X162131250Y-100181250I0J-250000D01*
G01*
X162131250Y-101431250D01*
G75*
G02*
X161881250Y-101681250I-250000J0D01*
G01*
X161131250Y-101681250D01*
G75*
G02*
X160881250Y-101431250I0J250000D01*
G01*
G37*
G04 #@! TD.AperFunction*
G04 #@! TD*
D19*
G04 #@! TO.P,D49,2*
G04 #@! TO.N,Net-(D49-Pad2)*
X280987500Y-112650000D03*
G04 #@! TO.P,D49,1*
G04 #@! TO.N,ROW7*
X280987500Y-115950000D03*
G04 #@! TD*
G04 #@! TO.P,D48,2*
G04 #@! TO.N,Net-(D48-Pad2)*
X259556250Y-112650000D03*
G04 #@! TO.P,D48,1*
G04 #@! TO.N,ROW8*
X259556250Y-115950000D03*
G04 #@! TD*
G04 #@! TO.P,D47,2*
G04 #@! TO.N,Net-(D47-Pad2)*
X233362500Y-112650000D03*
G04 #@! TO.P,D47,1*
G04 #@! TO.N,ROW7*
X233362500Y-115950000D03*
G04 #@! TD*
G04 #@! TO.P,D46,2*
G04 #@! TO.N,Net-(D46-Pad2)*
X207168750Y-112650000D03*
G04 #@! TO.P,D46,1*
G04 #@! TO.N,ROW8*
X207168750Y-115950000D03*
G04 #@! TD*
G04 #@! TO.P,D45,2*
G04 #@! TO.N,Net-(D45-Pad2)*
X169068750Y-112650000D03*
G04 #@! TO.P,D45,1*
G04 #@! TO.N,ROW7*
X169068750Y-115950000D03*
G04 #@! TD*
G04 #@! TO.P,D44,2*
G04 #@! TO.N,Net-(D44-Pad2)*
X121443750Y-112650000D03*
G04 #@! TO.P,D44,1*
G04 #@! TO.N,ROW8*
X121443750Y-115950000D03*
G04 #@! TD*
G04 #@! TO.P,D43,2*
G04 #@! TO.N,Net-(D43-Pad2)*
X88106250Y-112650000D03*
G04 #@! TO.P,D43,1*
G04 #@! TO.N,ROW7*
X88106250Y-115950000D03*
G04 #@! TD*
G04 #@! TO.P,D42,2*
G04 #@! TO.N,Net-(D42-Pad2)*
X61912500Y-112650000D03*
G04 #@! TO.P,D42,1*
G04 #@! TO.N,ROW8*
X61912500Y-115950000D03*
G04 #@! TD*
G04 #@! TO.P,D41,2*
G04 #@! TO.N,Net-(D41-Pad2)*
X35718750Y-112650000D03*
G04 #@! TO.P,D41,1*
G04 #@! TO.N,ROW7*
X35718750Y-115950000D03*
G04 #@! TD*
G04 #@! TO.P,D40,2*
G04 #@! TO.N,Net-(D40-Pad2)*
X280987500Y-93600000D03*
G04 #@! TO.P,D40,1*
G04 #@! TO.N,ROW5*
X280987500Y-96900000D03*
G04 #@! TD*
G04 #@! TO.P,D39,2*
G04 #@! TO.N,Net-(D39-Pad2)*
X259556250Y-93600000D03*
G04 #@! TO.P,D39,1*
G04 #@! TO.N,ROW6*
X259556250Y-96900000D03*
G04 #@! TD*
G04 #@! TO.P,D38,2*
G04 #@! TO.N,Net-(D38-Pad2)*
X238125000Y-93600000D03*
G04 #@! TO.P,D38,1*
G04 #@! TO.N,ROW5*
X238125000Y-96900000D03*
G04 #@! TD*
G04 #@! TO.P,D37,2*
G04 #@! TO.N,Net-(D37-Pad2)*
X219075000Y-93600000D03*
G04 #@! TO.P,D37,1*
G04 #@! TO.N,ROW6*
X219075000Y-96900000D03*
G04 #@! TD*
G04 #@! TO.P,D36,2*
G04 #@! TO.N,Net-(D36-Pad2)*
X200025000Y-93600000D03*
G04 #@! TO.P,D36,1*
G04 #@! TO.N,ROW5*
X200025000Y-96900000D03*
G04 #@! TD*
G04 #@! TO.P,D35,2*
G04 #@! TO.N,Net-(D35-Pad2)*
X180975000Y-93600000D03*
G04 #@! TO.P,D35,1*
G04 #@! TO.N,ROW6*
X180975000Y-96900000D03*
G04 #@! TD*
G04 #@! TO.P,D34,2*
G04 #@! TO.N,Net-(D34-Pad2)*
X161925000Y-93600000D03*
G04 #@! TO.P,D34,1*
G04 #@! TO.N,ROW5*
X161925000Y-96900000D03*
G04 #@! TD*
G04 #@! TO.P,D33,2*
G04 #@! TO.N,Net-(D33-Pad2)*
X142875000Y-93600000D03*
G04 #@! TO.P,D33,1*
G04 #@! TO.N,ROW6*
X142875000Y-96900000D03*
G04 #@! TD*
G04 #@! TO.P,D32,2*
G04 #@! TO.N,Net-(D32-Pad2)*
X123825000Y-93600000D03*
G04 #@! TO.P,D32,1*
G04 #@! TO.N,ROW5*
X123825000Y-96900000D03*
G04 #@! TD*
G04 #@! TO.P,D31,2*
G04 #@! TO.N,Net-(D31-Pad2)*
X104775000Y-93600000D03*
G04 #@! TO.P,D31,1*
G04 #@! TO.N,ROW6*
X104775000Y-96900000D03*
G04 #@! TD*
G04 #@! TO.P,D30,2*
G04 #@! TO.N,Net-(D30-Pad2)*
X85725000Y-93600000D03*
G04 #@! TO.P,D30,1*
G04 #@! TO.N,ROW5*
X85725000Y-96900000D03*
G04 #@! TD*
G04 #@! TO.P,D29,2*
G04 #@! TO.N,Net-(D29-Pad2)*
X66675000Y-93600000D03*
G04 #@! TO.P,D29,1*
G04 #@! TO.N,ROW6*
X66675000Y-96900000D03*
G04 #@! TD*
G04 #@! TO.P,D28,2*
G04 #@! TO.N,Net-(D28-Pad2)*
X40481250Y-93600000D03*
G04 #@! TO.P,D28,1*
G04 #@! TO.N,ROW5*
X40481250Y-96900000D03*
G04 #@! TD*
G04 #@! TO.P,D27,2*
G04 #@! TO.N,Net-(D27-Pad2)*
X273843750Y-74550000D03*
G04 #@! TO.P,D27,1*
G04 #@! TO.N,ROW3*
X273843750Y-77850000D03*
G04 #@! TD*
G04 #@! TO.P,D26,2*
G04 #@! TO.N,Net-(D26-Pad2)*
X247650000Y-74550000D03*
G04 #@! TO.P,D26,1*
G04 #@! TO.N,ROW4*
X247650000Y-77850000D03*
G04 #@! TD*
G04 #@! TO.P,D25,2*
G04 #@! TO.N,Net-(D25-Pad2)*
X228600000Y-74550000D03*
G04 #@! TO.P,D25,1*
G04 #@! TO.N,ROW3*
X228600000Y-77850000D03*
G04 #@! TD*
G04 #@! TO.P,D24,2*
G04 #@! TO.N,Net-(D24-Pad2)*
X209550000Y-74550000D03*
G04 #@! TO.P,D24,1*
G04 #@! TO.N,ROW4*
X209550000Y-77850000D03*
G04 #@! TD*
G04 #@! TO.P,D23,2*
G04 #@! TO.N,Net-(D23-Pad2)*
X190500000Y-74550000D03*
G04 #@! TO.P,D23,1*
G04 #@! TO.N,ROW3*
X190500000Y-77850000D03*
G04 #@! TD*
G04 #@! TO.P,D22,2*
G04 #@! TO.N,Net-(D22-Pad2)*
X171450000Y-74550000D03*
G04 #@! TO.P,D22,1*
G04 #@! TO.N,ROW4*
X171450000Y-77850000D03*
G04 #@! TD*
G04 #@! TO.P,D21,2*
G04 #@! TO.N,Net-(D21-Pad2)*
X152400000Y-74550000D03*
G04 #@! TO.P,D21,1*
G04 #@! TO.N,ROW3*
X152400000Y-77850000D03*
G04 #@! TD*
G04 #@! TO.P,D20,2*
G04 #@! TO.N,Net-(D20-Pad2)*
X133350000Y-74550000D03*
G04 #@! TO.P,D20,1*
G04 #@! TO.N,ROW4*
X133350000Y-77850000D03*
G04 #@! TD*
G04 #@! TO.P,D19,2*
G04 #@! TO.N,Net-(D19-Pad2)*
X114300000Y-74550000D03*
G04 #@! TO.P,D19,1*
G04 #@! TO.N,ROW3*
X114300000Y-77850000D03*
G04 #@! TD*
G04 #@! TO.P,D18,2*
G04 #@! TO.N,Net-(D18-Pad2)*
X95250000Y-74550000D03*
G04 #@! TO.P,D18,1*
G04 #@! TO.N,ROW4*
X95250000Y-77850000D03*
G04 #@! TD*
G04 #@! TO.P,D17,2*
G04 #@! TO.N,Net-(D17-Pad2)*
X76200000Y-74550000D03*
G04 #@! TO.P,D17,1*
G04 #@! TO.N,ROW3*
X76200000Y-77850000D03*
G04 #@! TD*
G04 #@! TO.P,D16,2*
G04 #@! TO.N,Net-(D16-Pad2)*
X57150000Y-74550000D03*
G04 #@! TO.P,D16,1*
G04 #@! TO.N,ROW4*
X57150000Y-77850000D03*
G04 #@! TD*
G04 #@! TO.P,D15,2*
G04 #@! TO.N,Net-(D15-Pad2)*
X35718750Y-74550000D03*
G04 #@! TO.P,D15,1*
G04 #@! TO.N,ROW3*
X35718750Y-77850000D03*
G04 #@! TD*
G04 #@! TO.P,D14,2*
G04 #@! TO.N,Net-(D14-Pad2)*
X280987500Y-55500000D03*
G04 #@! TO.P,D14,1*
G04 #@! TO.N,ROW2*
X280987500Y-58800000D03*
G04 #@! TD*
G04 #@! TO.P,D13,2*
G04 #@! TO.N,Net-(D13-Pad2)*
X261937500Y-55500000D03*
G04 #@! TO.P,D13,1*
G04 #@! TO.N,ROW1*
X261937500Y-58800000D03*
G04 #@! TD*
G04 #@! TO.P,D12,2*
G04 #@! TO.N,Net-(D12-Pad2)*
X242887500Y-55500000D03*
G04 #@! TO.P,D12,1*
G04 #@! TO.N,ROW2*
X242887500Y-58800000D03*
G04 #@! TD*
G04 #@! TO.P,D11,2*
G04 #@! TO.N,Net-(D11-Pad2)*
X223837500Y-55500000D03*
G04 #@! TO.P,D11,1*
G04 #@! TO.N,ROW1*
X223837500Y-58800000D03*
G04 #@! TD*
G04 #@! TO.P,D10,2*
G04 #@! TO.N,Net-(D10-Pad2)*
X204787500Y-55500000D03*
G04 #@! TO.P,D10,1*
G04 #@! TO.N,ROW2*
X204787500Y-58800000D03*
G04 #@! TD*
G04 #@! TO.P,D9,2*
G04 #@! TO.N,Net-(D9-Pad2)*
X185737500Y-55500000D03*
G04 #@! TO.P,D9,1*
G04 #@! TO.N,ROW1*
X185737500Y-58800000D03*
G04 #@! TD*
G04 #@! TO.P,D8,2*
G04 #@! TO.N,Net-(D8-Pad2)*
X166687500Y-55500000D03*
G04 #@! TO.P,D8,1*
G04 #@! TO.N,ROW2*
X166687500Y-58800000D03*
G04 #@! TD*
G04 #@! TO.P,D7,2*
G04 #@! TO.N,Net-(D7-Pad2)*
X147637500Y-55500000D03*
G04 #@! TO.P,D7,1*
G04 #@! TO.N,ROW1*
X147637500Y-58800000D03*
G04 #@! TD*
G04 #@! TO.P,D6,2*
G04 #@! TO.N,Net-(D6-Pad2)*
X128587500Y-55500000D03*
G04 #@! TO.P,D6,1*
G04 #@! TO.N,ROW2*
X128587500Y-58800000D03*
G04 #@! TD*
G04 #@! TO.P,D5,2*
G04 #@! TO.N,Net-(D5-Pad2)*
X109537500Y-55500000D03*
G04 #@! TO.P,D5,1*
G04 #@! TO.N,ROW1*
X109537500Y-58800000D03*
G04 #@! TD*
G04 #@! TO.P,D4,2*
G04 #@! TO.N,Net-(D4-Pad2)*
X90487500Y-55500000D03*
G04 #@! TO.P,D4,1*
G04 #@! TO.N,ROW2*
X90487500Y-58800000D03*
G04 #@! TD*
G04 #@! TO.P,D3,2*
G04 #@! TO.N,Net-(D3-Pad2)*
X71437500Y-55500000D03*
G04 #@! TO.P,D3,1*
G04 #@! TO.N,ROW1*
X71437500Y-58800000D03*
G04 #@! TD*
G04 #@! TO.P,D2,2*
G04 #@! TO.N,Net-(D2-Pad2)*
X52387500Y-55500000D03*
G04 #@! TO.P,D2,1*
G04 #@! TO.N,ROW2*
X52387500Y-58800000D03*
G04 #@! TD*
G04 #@! TO.P,D1,2*
G04 #@! TO.N,Net-(D1-Pad2)*
X33337500Y-55500000D03*
G04 #@! TO.P,D1,1*
G04 #@! TO.N,ROW1*
X33337500Y-58800000D03*
G04 #@! TD*
G04 #@! TO.P,C7,2*
G04 #@! TO.N,GND*
G04 #@! TA.AperFunction,SMDPad,CuDef*
G36*
G01*
X141606250Y-121100000D02*
X142556250Y-121100000D01*
G75*
G02*
X142806250Y-121350000I0J-250000D01*
G01*
X142806250Y-121850000D01*
G75*
G02*
X142556250Y-122100000I-250000J0D01*
G01*
X141606250Y-122100000D01*
G75*
G02*
X141356250Y-121850000I0J250000D01*
G01*
X141356250Y-121350000D01*
G75*
G02*
X141606250Y-121100000I250000J0D01*
G01*
G37*
G04 #@! TD.AperFunction*
G04 #@! TO.P,C7,1*
G04 #@! TO.N,Net-(C7-Pad1)*
G04 #@! TA.AperFunction,SMDPad,CuDef*
G36*
G01*
X141606250Y-119200000D02*
X142556250Y-119200000D01*
G75*
G02*
X142806250Y-119450000I0J-250000D01*
G01*
X142806250Y-119950000D01*
G75*
G02*
X142556250Y-120200000I-250000J0D01*
G01*
X141606250Y-120200000D01*
G75*
G02*
X141356250Y-119950000I0J250000D01*
G01*
X141356250Y-119450000D01*
G75*
G02*
X141606250Y-119200000I250000J0D01*
G01*
G37*
G04 #@! TD.AperFunction*
G04 #@! TD*
G04 #@! TO.P,C6,2*
G04 #@! TO.N,GND*
G04 #@! TA.AperFunction,SMDPad,CuDef*
G36*
G01*
X143987500Y-121100000D02*
X144937500Y-121100000D01*
G75*
G02*
X145187500Y-121350000I0J-250000D01*
G01*
X145187500Y-121850000D01*
G75*
G02*
X144937500Y-122100000I-250000J0D01*
G01*
X143987500Y-122100000D01*
G75*
G02*
X143737500Y-121850000I0J250000D01*
G01*
X143737500Y-121350000D01*
G75*
G02*
X143987500Y-121100000I250000J0D01*
G01*
G37*
G04 #@! TD.AperFunction*
G04 #@! TO.P,C6,1*
G04 #@! TO.N,Net-(C6-Pad1)*
G04 #@! TA.AperFunction,SMDPad,CuDef*
G36*
G01*
X143987500Y-119200000D02*
X144937500Y-119200000D01*
G75*
G02*
X145187500Y-119450000I0J-250000D01*
G01*
X145187500Y-119950000D01*
G75*
G02*
X144937500Y-120200000I-250000J0D01*
G01*
X143987500Y-120200000D01*
G75*
G02*
X143737500Y-119950000I0J250000D01*
G01*
X143737500Y-119450000D01*
G75*
G02*
X143987500Y-119200000I250000J0D01*
G01*
G37*
G04 #@! TD.AperFunction*
G04 #@! TD*
G04 #@! TO.P,C5,2*
G04 #@! TO.N,GND*
G04 #@! TA.AperFunction,SMDPad,CuDef*
G36*
G01*
X151156250Y-101918750D02*
X151156250Y-102868750D01*
G75*
G02*
X150906250Y-103118750I-250000J0D01*
G01*
X150406250Y-103118750D01*
G75*
G02*
X150156250Y-102868750I0J250000D01*
G01*
X150156250Y-101918750D01*
G75*
G02*
X150406250Y-101668750I250000J0D01*
G01*
X150906250Y-101668750D01*
G75*
G02*
X151156250Y-101918750I0J-250000D01*
G01*
G37*
G04 #@! TD.AperFunction*
G04 #@! TO.P,C5,1*
G04 #@! TO.N,+5V*
G04 #@! TA.AperFunction,SMDPad,CuDef*
G36*
G01*
X153056250Y-101918750D02*
X153056250Y-102868750D01*
G75*
G02*
X152806250Y-103118750I-250000J0D01*
G01*
X152306250Y-103118750D01*
G75*
G02*
X152056250Y-102868750I0J250000D01*
G01*
X152056250Y-101918750D01*
G75*
G02*
X152306250Y-101668750I250000J0D01*
G01*
X152806250Y-101668750D01*
G75*
G02*
X153056250Y-101918750I0J-250000D01*
G01*
G37*
G04 #@! TD.AperFunction*
G04 #@! TD*
G04 #@! TO.P,C4,2*
G04 #@! TO.N,GND*
G04 #@! TA.AperFunction,SMDPad,CuDef*
G36*
G01*
X152509657Y-117625476D02*
X152509657Y-116675476D01*
G75*
G02*
X152759657Y-116425476I250000J0D01*
G01*
X153259657Y-116425476D01*
G75*
G02*
X153509657Y-116675476I0J-250000D01*
G01*
X153509657Y-117625476D01*
G75*
G02*
X153259657Y-117875476I-250000J0D01*
G01*
X152759657Y-117875476D01*
G75*
G02*
X152509657Y-117625476I0J250000D01*
G01*
G37*
G04 #@! TD.AperFunction*
G04 #@! TO.P,C4,1*
G04 #@! TO.N,+5V*
G04 #@! TA.AperFunction,SMDPad,CuDef*
G36*
G01*
X150609657Y-117625476D02*
X150609657Y-116675476D01*
G75*
G02*
X150859657Y-116425476I250000J0D01*
G01*
X151359657Y-116425476D01*
G75*
G02*
X151609657Y-116675476I0J-250000D01*
G01*
X151609657Y-117625476D01*
G75*
G02*
X151359657Y-117875476I-250000J0D01*
G01*
X150859657Y-117875476D01*
G75*
G02*
X150609657Y-117625476I0J250000D01*
G01*
G37*
G04 #@! TD.AperFunction*
G04 #@! TD*
G04 #@! TO.P,C3,2*
G04 #@! TO.N,GND*
G04 #@! TA.AperFunction,SMDPad,CuDef*
G36*
G01*
X148725000Y-116362500D02*
X148725000Y-115412500D01*
G75*
G02*
X148975000Y-115162500I250000J0D01*
G01*
X149475000Y-115162500D01*
G75*
G02*
X149725000Y-115412500I0J-250000D01*
G01*
X149725000Y-116362500D01*
G75*
G02*
X149475000Y-116612500I-250000J0D01*
G01*
X148975000Y-116612500D01*
G75*
G02*
X148725000Y-116362500I0J250000D01*
G01*
G37*
G04 #@! TD.AperFunction*
G04 #@! TO.P,C3,1*
G04 #@! TO.N,+5V*
G04 #@! TA.AperFunction,SMDPad,CuDef*
G36*
G01*
X146825000Y-116362500D02*
X146825000Y-115412500D01*
G75*
G02*
X147075000Y-115162500I250000J0D01*
G01*
X147575000Y-115162500D01*
G75*
G02*
X147825000Y-115412500I0J-250000D01*
G01*
X147825000Y-116362500D01*
G75*
G02*
X147575000Y-116612500I-250000J0D01*
G01*
X147075000Y-116612500D01*
G75*
G02*
X146825000Y-116362500I0J250000D01*
G01*
G37*
G04 #@! TD.AperFunction*
G04 #@! TD*
G04 #@! TO.P,C2,2*
G04 #@! TO.N,GND*
G04 #@! TA.AperFunction,SMDPad,CuDef*
G36*
G01*
X131950000Y-119381250D02*
X131950000Y-120331250D01*
G75*
G02*
X131700000Y-120581250I-250000J0D01*
G01*
X131200000Y-120581250D01*
G75*
G02*
X130950000Y-120331250I0J250000D01*
G01*
X130950000Y-119381250D01*
G75*
G02*
X131200000Y-119131250I250000J0D01*
G01*
X131700000Y-119131250D01*
G75*
G02*
X131950000Y-119381250I0J-250000D01*
G01*
G37*
G04 #@! TD.AperFunction*
G04 #@! TO.P,C2,1*
G04 #@! TO.N,+5V*
G04 #@! TA.AperFunction,SMDPad,CuDef*
G36*
G01*
X133850000Y-119381250D02*
X133850000Y-120331250D01*
G75*
G02*
X133600000Y-120581250I-250000J0D01*
G01*
X133100000Y-120581250D01*
G75*
G02*
X132850000Y-120331250I0J250000D01*
G01*
X132850000Y-119381250D01*
G75*
G02*
X133100000Y-119131250I250000J0D01*
G01*
X133600000Y-119131250D01*
G75*
G02*
X133850000Y-119381250I0J-250000D01*
G01*
G37*
G04 #@! TD.AperFunction*
G04 #@! TD*
G04 #@! TO.P,C1,2*
G04 #@! TO.N,GND*
G04 #@! TA.AperFunction,SMDPad,CuDef*
G36*
G01*
X146525000Y-105912500D02*
X145575000Y-105912500D01*
G75*
G02*
X145325000Y-105662500I0J250000D01*
G01*
X145325000Y-105162500D01*
G75*
G02*
X145575000Y-104912500I250000J0D01*
G01*
X146525000Y-104912500D01*
G75*
G02*
X146775000Y-105162500I0J-250000D01*
G01*
X146775000Y-105662500D01*
G75*
G02*
X146525000Y-105912500I-250000J0D01*
G01*
G37*
G04 #@! TD.AperFunction*
G04 #@! TO.P,C1,1*
G04 #@! TO.N,Net-(C1-Pad1)*
G04 #@! TA.AperFunction,SMDPad,CuDef*
G36*
G01*
X146525000Y-107812500D02*
X145575000Y-107812500D01*
G75*
G02*
X145325000Y-107562500I0J250000D01*
G01*
X145325000Y-107062500D01*
G75*
G02*
X145575000Y-106812500I250000J0D01*
G01*
X146525000Y-106812500D01*
G75*
G02*
X146775000Y-107062500I0J-250000D01*
G01*
X146775000Y-107562500D01*
G75*
G02*
X146525000Y-107812500I-250000J0D01*
G01*
G37*
G04 #@! TD.AperFunction*
G04 #@! TD*
D20*
G04 #@! TO.N,GND*
X151606250Y-100012500D03*
X155575000Y-108743750D03*
X144462500Y-111125000D03*
X144462500Y-106362500D03*
X165893750Y-92868750D03*
X141224414Y-118205664D03*
X131762500Y-121443750D03*
G04 #@! TO.N,Net-(C1-Pad1)*
X145256250Y-111918750D03*
X146960949Y-109420301D03*
G04 #@! TO.N,+5V*
X143668750Y-103187500D03*
X130487500Y-101912500D03*
X114300000Y-103981250D03*
X145256250Y-115093750D03*
X133350000Y-118268750D03*
X154781250Y-115571455D03*
G04 #@! TO.N,ROW1*
X136525000Y-78581250D03*
X137318750Y-106362500D03*
G04 #@! TO.N,ROW2*
X127825000Y-59562500D03*
X136525000Y-107156250D03*
G04 #@! TO.N,ROW3*
X138112500Y-105568750D03*
X146050000Y-97631250D03*
G04 #@! TO.N,VBUS*
X177800000Y-106362500D03*
X167481250Y-100806250D03*
G04 #@! TO.N,COL1*
X132556250Y-111918750D03*
G04 #@! TO.N,COL2*
X131762500Y-111125000D03*
G04 #@! TO.N,COL3*
X133350000Y-107156250D03*
G04 #@! TO.N,COL4*
X149860000Y-111760000D03*
G04 #@! TO.N,COL5*
X146843750Y-111918750D03*
G04 #@! TO.N,COL6*
X146050000Y-112712500D03*
G04 #@! TO.N,COL7*
X138112500Y-115887500D03*
G04 #@! TO.N,ROW4*
X149225000Y-79375000D03*
X144462500Y-84703185D03*
X138906250Y-104775000D03*
X147637500Y-97631250D03*
G04 #@! TO.N,ROW5*
X160368750Y-98456250D03*
X153193750Y-100012500D03*
X146050000Y-100806250D03*
X139700000Y-106362500D03*
G04 #@! TO.N,ROW6*
X126206250Y-97631250D03*
X134143750Y-108743750D03*
G04 #@! TO.N,ROW7*
X135731250Y-116681250D03*
X152400000Y-119856250D03*
G04 #@! TO.N,ROW8*
X143668750Y-116681250D03*
X136525000Y-115887500D03*
X128587500Y-116681250D03*
X132556250Y-115887500D03*
G04 #@! TO.N,Net-(J2-Pad5)*
X130968750Y-104775000D03*
X142081250Y-105568750D03*
X141964051Y-107832801D03*
X149225000Y-97631250D03*
X113506250Y-104775000D03*
G04 #@! TD*
D21*
G04 #@! TO.N,GND*
X148887500Y-100012500D02*
X146506250Y-102393750D01*
X151606250Y-100012500D02*
X148887500Y-100012500D01*
X166050000Y-107312500D02*
X162562500Y-107312500D01*
X162562500Y-107312500D02*
X161131250Y-108743750D01*
X161131250Y-108743750D02*
X155575000Y-108743750D01*
D22*
X140156250Y-110896815D02*
X140156250Y-111850000D01*
D21*
X145412500Y-105412500D02*
X146050000Y-105412500D01*
X145300139Y-102827566D02*
X145300139Y-104662639D01*
X145733955Y-102393750D02*
X145300139Y-102827566D01*
X146506250Y-102393750D02*
X145733955Y-102393750D01*
X139125800Y-110842180D02*
X138875800Y-111092180D01*
X141313300Y-110842180D02*
X139125800Y-110842180D01*
X145300139Y-104662639D02*
X146050000Y-105412500D01*
X144179680Y-110842180D02*
X144462500Y-111125000D01*
X141313300Y-110842180D02*
X144179680Y-110842180D01*
X144462500Y-105500278D02*
X145300139Y-104662639D01*
X144462500Y-106362500D02*
X144462500Y-105500278D01*
X94306993Y-101074861D02*
X92928427Y-102453427D01*
X122762639Y-101074861D02*
X94306993Y-101074861D01*
X93781854Y-101600000D02*
X92928427Y-102453427D01*
X139300000Y-119730077D02*
X139700000Y-119730077D01*
X137600000Y-121430077D02*
X139300000Y-119730077D01*
X137500000Y-121430077D02*
X137600000Y-121430077D01*
X141669923Y-121600000D02*
X142081250Y-121600000D01*
X139800000Y-119730077D02*
X141669923Y-121600000D01*
X139700000Y-119730077D02*
X139800000Y-119730077D01*
X142081250Y-121600000D02*
X144462500Y-121600000D01*
X158487500Y-83081250D02*
X157087500Y-83081250D01*
X165893750Y-90487500D02*
X158487500Y-83081250D01*
X165893750Y-92868750D02*
X165893750Y-90487500D01*
X166050000Y-107312500D02*
X168275000Y-109537500D01*
X92928427Y-102453427D02*
X90487500Y-104894354D01*
X123670250Y-100167250D02*
X122762639Y-101074861D01*
X129737639Y-106162639D02*
X129937500Y-106362500D01*
X129737639Y-100759361D02*
X129737639Y-106162639D01*
X130329750Y-100167250D02*
X129737639Y-100759361D01*
X130329750Y-100167250D02*
X123670250Y-100167250D01*
X151606250Y-101443750D02*
X150656250Y-102393750D01*
X151606250Y-100012500D02*
X151606250Y-101443750D01*
X142237500Y-102393750D02*
X140011000Y-100167250D01*
X146506250Y-102393750D02*
X142237500Y-102393750D01*
X139545250Y-100167250D02*
X140011000Y-100167250D01*
X139700000Y-100167250D02*
X139545250Y-100167250D01*
X139545250Y-100167250D02*
X130329750Y-100167250D01*
X141287500Y-118142577D02*
X141224414Y-118205664D01*
X139699164Y-114389598D02*
X141287500Y-115977934D01*
X141287500Y-115977934D02*
X141287500Y-118142577D01*
X139632850Y-114389598D02*
X139699164Y-114389598D01*
X139632850Y-111849230D02*
X139632850Y-114389598D01*
X138875800Y-111092180D02*
X139632850Y-111849230D01*
X141224414Y-118205664D02*
X139700000Y-119730077D01*
X131762500Y-120168750D02*
X131450000Y-119856250D01*
X131762500Y-121443750D02*
X131762500Y-120168750D01*
X153162003Y-116998130D02*
X153009657Y-117150476D01*
X164306250Y-116681250D02*
X163989370Y-116998130D01*
X163989370Y-116998130D02*
X153162003Y-116998130D01*
X161925000Y-110331250D02*
X164306250Y-112712500D01*
X161925000Y-109656545D02*
X161925000Y-110331250D01*
X164306250Y-112712500D02*
X164306250Y-116681250D01*
X161131250Y-108862795D02*
X161925000Y-109656545D01*
X161131250Y-108743750D02*
X161131250Y-108862795D01*
X168275000Y-109537500D02*
X181768750Y-109537500D01*
X181768750Y-109537500D02*
X183268750Y-108037500D01*
X183268750Y-108037500D02*
X183268750Y-106375000D01*
X166049999Y-102800061D02*
X166049999Y-103334811D01*
X166593439Y-102256621D02*
X166049999Y-102800061D01*
X175010583Y-102256621D02*
X166593439Y-102256621D01*
X176598080Y-103844120D02*
X175010583Y-102256621D01*
X181812590Y-103844120D02*
X176598080Y-103844120D01*
X183268750Y-105300280D02*
X181812590Y-103844120D01*
X183268750Y-106375000D02*
X183268750Y-105300280D01*
X90487500Y-104894354D02*
X90487500Y-111918750D01*
X90487500Y-111918750D02*
X93662500Y-115093750D01*
X93662500Y-115093750D02*
X96520000Y-115093750D01*
X96520000Y-115093750D02*
X97532177Y-114081573D01*
X152304183Y-115575876D02*
X151992559Y-115887500D01*
X153987500Y-111244354D02*
X154464370Y-111721224D01*
X151992559Y-115887500D02*
X149225000Y-115887500D01*
X152592271Y-115575875D02*
X152304183Y-115575876D01*
X153987500Y-109537500D02*
X153987500Y-111244354D01*
X155575000Y-108743750D02*
X154781250Y-108743750D01*
X154464370Y-111721224D02*
X154464369Y-113703777D01*
X154464369Y-113703777D02*
X152592271Y-115575875D01*
X154781250Y-108743750D02*
X153987500Y-109537500D01*
D22*
G04 #@! TO.N,Net-(C1-Pad1)*
X146960949Y-109420301D02*
X146050000Y-108509352D01*
X146050000Y-108509352D02*
X146050000Y-107312500D01*
X145256250Y-110842788D02*
X145256250Y-111918750D01*
X144755642Y-110342180D02*
X145256250Y-110842788D01*
X141313300Y-110342180D02*
X144755642Y-110342180D01*
D21*
G04 #@! TO.N,+5V*
X141346120Y-112375000D02*
X141313300Y-112342180D01*
X141313300Y-112842180D02*
X141951570Y-112842180D01*
X132868750Y-101600000D02*
X138906250Y-101600000D01*
X132556250Y-101912500D02*
X132868750Y-101600000D01*
X130487500Y-101912500D02*
X132556250Y-101912500D01*
X108743750Y-103981250D02*
X114300000Y-103981250D01*
X103981250Y-108743750D02*
X108743750Y-103981250D01*
X154143750Y-100806250D02*
X152556250Y-102393750D01*
X161506250Y-100806250D02*
X154143750Y-100806250D01*
X139543750Y-101600000D02*
X138906250Y-101600000D01*
X138906250Y-101600000D02*
X140493750Y-101600000D01*
X142081250Y-103187500D02*
X143668750Y-103187500D01*
X140493750Y-101600000D02*
X142081250Y-103187500D01*
X146531250Y-115093750D02*
X147325000Y-115887500D01*
X145256250Y-115093750D02*
X146531250Y-115093750D01*
X147325000Y-115887500D02*
X145256250Y-115887500D01*
X145256250Y-115887500D02*
X144462500Y-115093750D01*
X143287256Y-112342180D02*
X141313300Y-112342180D01*
X144462500Y-113517424D02*
X143287256Y-112342180D01*
X133350000Y-118268750D02*
X133350000Y-119856250D01*
X143005870Y-112842180D02*
X141313300Y-112842180D01*
X143668750Y-113505060D02*
X143005870Y-112842180D01*
X143668750Y-115213104D02*
X143668750Y-113505060D01*
X145606122Y-117150476D02*
X143668750Y-115213104D01*
X151109657Y-117150476D02*
X145606122Y-117150476D01*
X139133120Y-113529680D02*
X139133120Y-114596592D01*
X139133120Y-115976675D02*
X139133120Y-113529680D01*
X137634795Y-117475000D02*
X139133120Y-115976675D01*
X134937500Y-117475000D02*
X137634795Y-117475000D01*
X134143750Y-118268750D02*
X134937500Y-117475000D01*
X134143750Y-119062500D02*
X134143750Y-118268750D01*
X133350000Y-119856250D02*
X134143750Y-119062500D01*
X97790000Y-108743750D02*
X103981250Y-108743750D01*
X151436309Y-117150476D02*
X151109657Y-117150476D01*
X152511179Y-116075606D02*
X151436309Y-117150476D01*
X154781250Y-115571455D02*
X154277099Y-116075606D01*
X154277099Y-116075606D02*
X152511179Y-116075606D01*
X157554728Y-102137630D02*
X152812370Y-102137630D01*
X157906120Y-102489022D02*
X157554728Y-102137630D01*
X157654988Y-106618620D02*
X157906120Y-106367488D01*
X152812370Y-102137630D02*
X152556250Y-102393750D01*
X156199656Y-106618620D02*
X157654988Y-106618620D01*
X153487770Y-109330506D02*
X156199656Y-106618620D01*
X153487770Y-112941193D02*
X153487770Y-109330506D01*
X151991834Y-114437129D02*
X153487770Y-112941193D01*
X157906120Y-106367488D02*
X157906120Y-102489022D01*
X144462500Y-114300000D02*
X144599629Y-114437129D01*
X144462500Y-115093750D02*
X144462500Y-114300000D01*
X144462500Y-114300000D02*
X144462500Y-113517424D01*
X145912871Y-114437129D02*
X145256250Y-115093750D01*
X144599629Y-114437129D02*
X145912871Y-114437129D01*
X145912871Y-114437129D02*
X151991834Y-114437129D01*
D22*
G04 #@! TO.N,Net-(C6-Pad1)*
X140633258Y-113537138D02*
X140671120Y-113575000D01*
X140633258Y-113529680D02*
X140633258Y-113537138D01*
X136651173Y-119730077D02*
X137500000Y-119730077D01*
X135731250Y-120650000D02*
X136651173Y-119730077D01*
X135731250Y-121549929D02*
X135731250Y-120650000D01*
X136538399Y-122357078D02*
X135731250Y-121549929D01*
X139700000Y-123031250D02*
X139025828Y-122357078D01*
X145256250Y-123031250D02*
X139700000Y-123031250D01*
X146050000Y-122237500D02*
X145256250Y-123031250D01*
X139025828Y-122357078D02*
X136538399Y-122357078D01*
X146050000Y-120650000D02*
X146050000Y-122237500D01*
X145100000Y-119700000D02*
X146050000Y-120650000D01*
X144462500Y-119700000D02*
X145100000Y-119700000D01*
X140625800Y-113529680D02*
X142535260Y-115439140D01*
X142535260Y-117772760D02*
X144462500Y-119700000D01*
X142535260Y-115439140D02*
X142535260Y-117772760D01*
G04 #@! TO.N,Net-(C7-Pad1)*
X140133258Y-113537138D02*
X140125800Y-113529680D01*
X142081250Y-115973482D02*
X142081250Y-119700000D01*
X140125800Y-114018032D02*
X142081250Y-115973482D01*
X140125800Y-113529680D02*
X140125800Y-114018032D01*
X140351173Y-121430077D02*
X139700000Y-121430077D01*
X145514510Y-122089008D02*
X145176508Y-122427010D01*
X145514510Y-121110992D02*
X145514510Y-122089008D01*
X145176508Y-122427010D02*
X139889510Y-122427010D01*
X145176508Y-120772990D02*
X145514510Y-121110992D01*
X143154240Y-120772990D02*
X145176508Y-120772990D01*
X142081250Y-119700000D02*
X143154240Y-120772990D01*
X139700000Y-122237500D02*
X139700000Y-121430077D01*
X139889510Y-122427010D02*
X139700000Y-122237500D01*
G04 #@! TO.N,Net-(D1-Pad2)*
X29907500Y-52070000D02*
X33337500Y-55500000D01*
X27940000Y-52070000D02*
X29907500Y-52070000D01*
G04 #@! TO.N,Net-(D2-Pad2)*
X48957500Y-52070000D02*
X52387500Y-55500000D01*
X46990000Y-52070000D02*
X48957500Y-52070000D01*
G04 #@! TO.N,Net-(D3-Pad2)*
X68007500Y-52070000D02*
X71437500Y-55500000D01*
X66040000Y-52070000D02*
X68007500Y-52070000D01*
G04 #@! TO.N,Net-(D4-Pad2)*
X87057500Y-52070000D02*
X90487500Y-55500000D01*
X85090000Y-52070000D02*
X87057500Y-52070000D01*
G04 #@! TO.N,Net-(D5-Pad2)*
X104140000Y-52070000D02*
X106045000Y-52070000D01*
X109475000Y-55500000D02*
X109537500Y-55500000D01*
X106045000Y-52070000D02*
X109475000Y-55500000D01*
G04 #@! TO.N,Net-(D6-Pad2)*
X125157500Y-52070000D02*
X128587500Y-55500000D01*
X123190000Y-52070000D02*
X125157500Y-52070000D01*
G04 #@! TO.N,Net-(D7-Pad2)*
X144207500Y-52070000D02*
X147637500Y-55500000D01*
X142240000Y-52070000D02*
X144207500Y-52070000D01*
G04 #@! TO.N,Net-(D8-Pad2)*
X163257500Y-52070000D02*
X166687500Y-55500000D01*
X161290000Y-52070000D02*
X163257500Y-52070000D01*
G04 #@! TO.N,Net-(D9-Pad2)*
X182307500Y-52070000D02*
X185737500Y-55500000D01*
X180340000Y-52070000D02*
X182307500Y-52070000D01*
G04 #@! TO.N,Net-(D10-Pad2)*
X201357500Y-52070000D02*
X204787500Y-55500000D01*
X199390000Y-52070000D02*
X201357500Y-52070000D01*
G04 #@! TO.N,Net-(D11-Pad2)*
X220407500Y-52070000D02*
X223837500Y-55500000D01*
X218440000Y-52070000D02*
X220407500Y-52070000D01*
G04 #@! TO.N,Net-(D12-Pad2)*
X239457500Y-52070000D02*
X242887500Y-55500000D01*
X237490000Y-52070000D02*
X239457500Y-52070000D01*
G04 #@! TO.N,Net-(D13-Pad2)*
X258507500Y-52070000D02*
X261937500Y-55500000D01*
X256540000Y-52070000D02*
X258507500Y-52070000D01*
G04 #@! TO.N,Net-(D14-Pad2)*
X277557500Y-52070000D02*
X280987500Y-55500000D01*
X275590000Y-52070000D02*
X277557500Y-52070000D01*
G04 #@! TO.N,Net-(D15-Pad2)*
X32288750Y-71120000D02*
X35718750Y-74550000D01*
X30321250Y-71120000D02*
X32288750Y-71120000D01*
G04 #@! TO.N,ROW1*
X107610260Y-60779010D02*
X107610260Y-60727240D01*
X107610260Y-60727240D02*
X109537500Y-58800000D01*
X147637500Y-58800000D02*
X147700000Y-58800000D01*
X183758490Y-60779010D02*
X185737500Y-58800000D01*
X221858490Y-60779010D02*
X223837500Y-58800000D01*
X149564740Y-60779010D02*
X183758490Y-60779010D01*
X185737500Y-58800000D02*
X185800000Y-58800000D01*
X145710260Y-60779010D02*
X145710260Y-60727240D01*
X145710260Y-60727240D02*
X147637500Y-58800000D01*
X111516510Y-60779010D02*
X145710260Y-60779010D01*
X149564740Y-60779010D02*
X149564740Y-60727240D01*
X259958490Y-60779010D02*
X261937500Y-58800000D01*
X187779010Y-60779010D02*
X221858490Y-60779010D01*
X223837500Y-58800000D02*
X223837500Y-58851770D01*
X225764740Y-60779010D02*
X259958490Y-60779010D01*
X33337500Y-58851770D02*
X35264740Y-60779010D01*
X33337500Y-58800000D02*
X33337500Y-58851770D01*
X71375000Y-58800000D02*
X69395990Y-60779010D01*
X71437500Y-58800000D02*
X71375000Y-58800000D01*
X69395990Y-60779010D02*
X35264740Y-60779010D01*
X106816510Y-60779010D02*
X69395990Y-60779010D01*
X106816510Y-60779010D02*
X107610260Y-60779010D01*
X125866510Y-60779010D02*
X125866510Y-63954010D01*
X106816510Y-60779010D02*
X125866510Y-60779010D01*
X125866510Y-60779010D02*
X225879010Y-60779010D01*
X125866510Y-63954010D02*
X136525000Y-74612500D01*
X136525000Y-74612500D02*
X136525000Y-78581250D01*
X137625800Y-106669550D02*
X137625800Y-108654680D01*
X137318750Y-106362500D02*
X137625800Y-106669550D01*
G04 #@! TO.N,Net-(D16-Pad2)*
X53720000Y-71120000D02*
X57150000Y-74550000D01*
X51752500Y-71120000D02*
X53720000Y-71120000D01*
G04 #@! TO.N,Net-(D17-Pad2)*
X72770000Y-71120000D02*
X76200000Y-74550000D01*
X70802500Y-71120000D02*
X72770000Y-71120000D01*
G04 #@! TO.N,Net-(D18-Pad2)*
X91820000Y-71120000D02*
X95250000Y-74550000D01*
X89852500Y-71120000D02*
X91820000Y-71120000D01*
G04 #@! TO.N,Net-(D19-Pad2)*
X110870000Y-71120000D02*
X114300000Y-74550000D01*
X108902500Y-71120000D02*
X110870000Y-71120000D01*
G04 #@! TO.N,Net-(D20-Pad2)*
X129920000Y-71120000D02*
X133350000Y-74550000D01*
X127952500Y-71120000D02*
X129920000Y-71120000D01*
G04 #@! TO.N,Net-(D21-Pad2)*
X148970000Y-71120000D02*
X152400000Y-74550000D01*
X147002500Y-71120000D02*
X148970000Y-71120000D01*
G04 #@! TO.N,Net-(D22-Pad2)*
X168020000Y-71120000D02*
X171450000Y-74550000D01*
X166052500Y-71120000D02*
X168020000Y-71120000D01*
G04 #@! TO.N,Net-(D23-Pad2)*
X187070000Y-71120000D02*
X190500000Y-74550000D01*
X185102500Y-71120000D02*
X187070000Y-71120000D01*
G04 #@! TO.N,Net-(D24-Pad2)*
X206120000Y-71120000D02*
X209550000Y-74550000D01*
X204152500Y-71120000D02*
X206120000Y-71120000D01*
G04 #@! TO.N,Net-(D25-Pad2)*
X225170000Y-71120000D02*
X228600000Y-74550000D01*
X223202500Y-71120000D02*
X225170000Y-71120000D01*
G04 #@! TO.N,Net-(D26-Pad2)*
X244220000Y-71120000D02*
X247650000Y-74550000D01*
X242252500Y-71120000D02*
X244220000Y-71120000D01*
G04 #@! TO.N,Net-(D27-Pad2)*
X270413750Y-71120000D02*
X273843750Y-74550000D01*
X268446250Y-71120000D02*
X270413750Y-71120000D01*
G04 #@! TO.N,Net-(D28-Pad2)*
X37051250Y-90170000D02*
X40481250Y-93600000D01*
X35083750Y-90170000D02*
X37051250Y-90170000D01*
G04 #@! TO.N,ROW2*
X72310499Y-58022999D02*
X74612500Y-60325000D01*
X90487500Y-58800000D02*
X90550000Y-58800000D01*
X110399101Y-58022999D02*
X111918750Y-59542648D01*
X108675899Y-58022999D02*
X110399101Y-58022999D01*
X106373898Y-60325000D02*
X108675899Y-58022999D01*
X111918750Y-59542648D02*
X111930148Y-59542648D01*
X111930148Y-59542648D02*
X112712500Y-60325000D01*
X127062500Y-60325000D02*
X127825000Y-59562500D01*
X128587500Y-58800000D02*
X128650000Y-58800000D01*
X165162500Y-60325000D02*
X166687500Y-58800000D01*
X148431250Y-57943750D02*
X150812500Y-60325000D01*
X146843750Y-57943750D02*
X148431250Y-57943750D01*
X144514270Y-60273230D02*
X146843750Y-57943750D01*
X166687500Y-58800000D02*
X166750000Y-58800000D01*
X182562500Y-60325000D02*
X184943750Y-57943750D01*
X186519852Y-57943750D02*
X188901102Y-60325000D01*
X184943750Y-57943750D02*
X186519852Y-57943750D01*
X203262500Y-60325000D02*
X204787500Y-58800000D01*
X188901102Y-60325000D02*
X203262500Y-60325000D01*
X204787500Y-58800000D02*
X204850000Y-58800000D01*
X206375000Y-60325000D02*
X220662500Y-60325000D01*
X220662500Y-60325000D02*
X223043750Y-57943750D01*
X223043750Y-57943750D02*
X224631250Y-57943750D01*
X224631250Y-57943750D02*
X227012500Y-60325000D01*
X241362500Y-60325000D02*
X242887500Y-58800000D01*
X240506250Y-60325000D02*
X241362500Y-60325000D01*
X279462500Y-60325000D02*
X280987500Y-58800000D01*
X262719852Y-57943750D02*
X265101102Y-60325000D01*
X261155148Y-57943750D02*
X262719852Y-57943750D01*
X265101102Y-60325000D02*
X279462500Y-60325000D01*
X258773898Y-60325000D02*
X261155148Y-57943750D01*
X242887500Y-58800000D02*
X242950000Y-58800000D01*
X52387500Y-58800000D02*
X52450000Y-58800000D01*
X70564501Y-58022999D02*
X70722999Y-58022999D01*
X70722999Y-58022999D02*
X72310499Y-58022999D01*
X52450000Y-58800000D02*
X53975000Y-60325000D01*
X70575899Y-58022999D02*
X70722999Y-58022999D01*
X68273898Y-60325000D02*
X70575899Y-58022999D01*
X53975000Y-60325000D02*
X68273898Y-60325000D01*
X88900000Y-60325000D02*
X92868750Y-60325000D01*
X92868750Y-60325000D02*
X106373898Y-60325000D01*
X91281250Y-60325000D02*
X92868750Y-60325000D01*
X74612500Y-60325000D02*
X88900000Y-60325000D01*
X88900000Y-60325000D02*
X89693750Y-60325000D01*
X88962500Y-60325000D02*
X90487500Y-58800000D01*
X88900000Y-60325000D02*
X88962500Y-60325000D01*
X131658960Y-60325000D02*
X131710730Y-60273230D01*
X126206250Y-60325000D02*
X131658960Y-60325000D01*
X112712500Y-60325000D02*
X126206250Y-60325000D01*
X131710730Y-60273230D02*
X144514270Y-60273230D01*
X126206250Y-60325000D02*
X127062500Y-60325000D01*
X169068750Y-60325000D02*
X182562500Y-60325000D01*
X164306250Y-60325000D02*
X169068750Y-60325000D01*
X168275000Y-60325000D02*
X169068750Y-60325000D01*
X150812500Y-60325000D02*
X164306250Y-60325000D01*
X164306250Y-60325000D02*
X165162500Y-60325000D01*
X240506250Y-60325000D02*
X245268750Y-60325000D01*
X245268750Y-60325000D02*
X258773898Y-60325000D01*
X244475000Y-60325000D02*
X245268750Y-60325000D01*
X227012500Y-60325000D02*
X240506250Y-60325000D01*
X203262500Y-60325000D02*
X207168750Y-60325000D01*
X127825000Y-59562500D02*
X128587500Y-58800000D01*
X136525000Y-109306250D02*
X136456250Y-109375000D01*
X136525000Y-107156250D02*
X136525000Y-109390170D01*
G04 #@! TO.N,Net-(D29-Pad2)*
X63245000Y-90170000D02*
X66675000Y-93600000D01*
X61277500Y-90170000D02*
X63245000Y-90170000D01*
G04 #@! TO.N,Net-(D30-Pad2)*
X82295000Y-90170000D02*
X85725000Y-93600000D01*
X80327500Y-90170000D02*
X82295000Y-90170000D01*
G04 #@! TO.N,Net-(D31-Pad2)*
X101345000Y-90170000D02*
X104775000Y-93600000D01*
X99377500Y-90170000D02*
X101345000Y-90170000D01*
G04 #@! TO.N,Net-(D32-Pad2)*
X120395000Y-90170000D02*
X123825000Y-93600000D01*
X118427500Y-90170000D02*
X120395000Y-90170000D01*
G04 #@! TO.N,Net-(D33-Pad2)*
X139445000Y-90170000D02*
X142875000Y-93600000D01*
X137477500Y-90170000D02*
X139445000Y-90170000D01*
G04 #@! TO.N,Net-(D34-Pad2)*
X158495000Y-90170000D02*
X161925000Y-93600000D01*
X156527500Y-90170000D02*
X158495000Y-90170000D01*
G04 #@! TO.N,Net-(D35-Pad2)*
X177545000Y-90170000D02*
X180975000Y-93600000D01*
X175577500Y-90170000D02*
X177545000Y-90170000D01*
G04 #@! TO.N,Net-(D36-Pad2)*
X196595000Y-90170000D02*
X200025000Y-93600000D01*
X194627500Y-90170000D02*
X196595000Y-90170000D01*
G04 #@! TO.N,Net-(D37-Pad2)*
X215645000Y-90170000D02*
X219075000Y-93600000D01*
X213677500Y-90170000D02*
X215645000Y-90170000D01*
G04 #@! TO.N,Net-(D38-Pad2)*
X234695000Y-90170000D02*
X238125000Y-93600000D01*
X232727500Y-90170000D02*
X234695000Y-90170000D01*
G04 #@! TO.N,Net-(D39-Pad2)*
X256126250Y-90170000D02*
X259556250Y-93600000D01*
X254158750Y-90170000D02*
X256126250Y-90170000D01*
G04 #@! TO.N,Net-(D40-Pad2)*
X277557500Y-90170000D02*
X280987500Y-93600000D01*
X275590000Y-90170000D02*
X277557500Y-90170000D01*
G04 #@! TO.N,Net-(D41-Pad2)*
X32288750Y-109220000D02*
X35718750Y-112650000D01*
X30321250Y-109220000D02*
X32288750Y-109220000D01*
G04 #@! TO.N,ROW3*
X35718750Y-77850000D02*
X38037500Y-80168750D01*
X73818750Y-80168750D02*
X73881250Y-80168750D01*
X38037500Y-80168750D02*
X73818750Y-80168750D01*
X73881250Y-80168750D02*
X76200000Y-77850000D01*
X111981250Y-80168750D02*
X114300000Y-77850000D01*
X114300000Y-77850000D02*
X114362500Y-77850000D01*
X150081250Y-80168750D02*
X152400000Y-77850000D01*
X152400000Y-77850000D02*
X152462500Y-77850000D01*
X188181250Y-80168750D02*
X190500000Y-77850000D01*
X150081250Y-80168750D02*
X188181250Y-80168750D01*
X190500000Y-77850000D02*
X190562500Y-77850000D01*
X226281250Y-80168750D02*
X228600000Y-77850000D01*
X271525000Y-80168750D02*
X273843750Y-77850000D01*
X79375000Y-80168750D02*
X111981250Y-80168750D01*
X73818750Y-80168750D02*
X79375000Y-80168750D01*
X78518750Y-80168750D02*
X79375000Y-80168750D01*
X111981250Y-80168750D02*
X137318750Y-80168750D01*
X194468750Y-80168750D02*
X226281250Y-80168750D01*
X188181250Y-80168750D02*
X194468750Y-80168750D01*
X192881250Y-80168750D02*
X194468750Y-80168750D01*
X226281250Y-80168750D02*
X232568750Y-80168750D01*
X232568750Y-80168750D02*
X271525000Y-80168750D01*
X230918750Y-80168750D02*
X232568750Y-80168750D01*
X137318750Y-80168750D02*
X150081250Y-80168750D01*
X138112500Y-108641380D02*
X138125800Y-108654680D01*
X138112500Y-105568750D02*
X138112500Y-108641380D01*
X137318750Y-80168750D02*
X144802239Y-87652239D01*
X144802239Y-96383489D02*
X146050000Y-97631250D01*
X144802239Y-87652239D02*
X144802239Y-96383489D01*
G04 #@! TO.N,Net-(D42-Pad2)*
X58482500Y-109220000D02*
X61912500Y-112650000D01*
X56515000Y-109220000D02*
X58482500Y-109220000D01*
G04 #@! TO.N,Net-(D43-Pad2)*
X84676250Y-109220000D02*
X88106250Y-112650000D01*
X82708750Y-109220000D02*
X84676250Y-109220000D01*
G04 #@! TO.N,Net-(D44-Pad2)*
X118013750Y-109220000D02*
X121443750Y-112650000D01*
X116046250Y-109220000D02*
X118013750Y-109220000D01*
G04 #@! TO.N,Net-(D45-Pad2)*
X165638750Y-109220000D02*
X169068750Y-112650000D01*
X163671250Y-109220000D02*
X165638750Y-109220000D01*
G04 #@! TO.N,Net-(D46-Pad2)*
X203738750Y-109220000D02*
X207168750Y-112650000D01*
X201771250Y-109220000D02*
X203738750Y-109220000D01*
G04 #@! TO.N,Net-(D47-Pad2)*
X229932500Y-109220000D02*
X233362500Y-112650000D01*
X227965000Y-109220000D02*
X229932500Y-109220000D01*
G04 #@! TO.N,Net-(D48-Pad2)*
X256126250Y-109220000D02*
X259556250Y-112650000D01*
X254158750Y-109220000D02*
X256126250Y-109220000D01*
G04 #@! TO.N,Net-(D49-Pad2)*
X277557500Y-109220000D02*
X280987500Y-112650000D01*
X275590000Y-109220000D02*
X277557500Y-109220000D01*
D21*
G04 #@! TO.N,VBUS*
X166050000Y-105922250D02*
X166050000Y-105387500D01*
X164462500Y-100962500D02*
X164306250Y-100806250D01*
X180268750Y-106375000D02*
X180268750Y-107068750D01*
X180268750Y-107068750D02*
X179387500Y-107950000D01*
X179387500Y-107950000D02*
X178593750Y-107950000D01*
X178593750Y-107950000D02*
X177800000Y-107156250D01*
X177800000Y-107156250D02*
X177800000Y-106362500D01*
X167481250Y-100806250D02*
X164306250Y-100806250D01*
X178593750Y-107950000D02*
X177505980Y-109037770D01*
X166049999Y-106364531D02*
X168723238Y-109037770D01*
X166049999Y-105534811D02*
X166049999Y-106364531D01*
X168723238Y-109037770D02*
X177505980Y-109037770D01*
D22*
G04 #@! TO.N,D-*
X165066060Y-105568750D02*
X165099999Y-105534811D01*
X158868750Y-105568750D02*
X165066060Y-105568750D01*
X165173000Y-104677810D02*
X168177810Y-104677810D01*
X165099999Y-104750811D02*
X165173000Y-104677810D01*
X165099999Y-105534811D02*
X165099999Y-104750811D01*
X168177810Y-104645822D02*
X168252495Y-104645822D01*
X168177810Y-104677810D02*
X168177810Y-104645822D01*
X168252495Y-104645822D02*
X168729010Y-104169307D01*
X168729010Y-104169307D02*
X168729010Y-103527240D01*
X168729010Y-103527240D02*
X169068750Y-103187500D01*
X169068750Y-103187500D02*
X174625000Y-103187500D01*
X174625000Y-103187500D02*
X176212500Y-104775000D01*
X181268750Y-105711398D02*
X181268750Y-106375000D01*
X179387500Y-104775000D02*
X180332352Y-104775000D01*
X176212500Y-104775000D02*
X179387500Y-104775000D01*
X180332352Y-104775000D02*
X181268750Y-105711398D01*
X179387500Y-104775000D02*
X180181250Y-104775000D01*
G04 #@! TO.N,D+*
X164952688Y-103187500D02*
X165099999Y-103334811D01*
X158868750Y-103187500D02*
X164952688Y-103187500D01*
X180878342Y-104320990D02*
X182268750Y-105711398D01*
X176400556Y-104320990D02*
X180878342Y-104320990D01*
X174813057Y-102733490D02*
X176400556Y-104320990D01*
X168880693Y-102733490D02*
X174813057Y-102733490D01*
X168275000Y-103339183D02*
X168880693Y-102733490D01*
X182268750Y-105711398D02*
X182268750Y-106375000D01*
X168275000Y-103981250D02*
X168275000Y-103339183D01*
X168064438Y-104191812D02*
X168275000Y-103981250D01*
X165173000Y-104191812D02*
X168064438Y-104191812D01*
X165099999Y-104118811D02*
X165173000Y-104191812D01*
X165099999Y-103334811D02*
X165099999Y-104118811D01*
G04 #@! TO.N,MOSI*
X136398316Y-113575000D02*
X136013057Y-113960260D01*
X136398316Y-113575000D02*
X137173790Y-113575000D01*
X132237664Y-113960258D02*
X128133490Y-109856085D01*
X136013057Y-113960260D02*
X132237664Y-113960258D01*
X128133490Y-103527240D02*
X127114270Y-102508020D01*
X128133490Y-109856085D02*
X128133490Y-103527240D01*
X116849192Y-102508020D02*
X113788462Y-105568750D01*
X127114270Y-102508020D02*
X116849192Y-102508020D01*
X113788462Y-105568750D02*
X108743750Y-105568750D01*
X108743750Y-105568750D02*
X103187500Y-111125000D01*
X97948750Y-111125000D02*
X97790000Y-111283750D01*
X98100434Y-110973316D02*
X97790000Y-111283750D01*
X103187500Y-111125000D02*
X97948750Y-111125000D01*
G04 #@! TO.N,SCK*
X94456250Y-101600000D02*
X91281250Y-104775000D01*
X135100010Y-113052240D02*
X132613778Y-113052240D01*
X127793750Y-101600000D02*
X116681250Y-101600000D01*
X135777250Y-112375000D02*
X135100010Y-113052240D01*
X136405480Y-112375000D02*
X135777250Y-112375000D01*
X136438300Y-112342180D02*
X136405480Y-112375000D01*
X116681250Y-101600000D02*
X94456250Y-101600000D01*
X116958018Y-101600000D02*
X116681250Y-101600000D01*
X129260769Y-103067019D02*
X127793750Y-101600000D01*
X129097990Y-104264510D02*
X129260769Y-104101731D01*
X129097990Y-109536452D02*
X129097990Y-104264510D01*
X132613778Y-113052240D02*
X129097990Y-109536452D01*
X129260769Y-104101731D02*
X129260769Y-103067019D01*
X92233750Y-111283750D02*
X95250000Y-111283750D01*
X91281250Y-110331250D02*
X92233750Y-111283750D01*
X91281250Y-104775000D02*
X91281250Y-110331250D01*
G04 #@! TO.N,MISO*
X94644306Y-102054010D02*
X91735260Y-104963056D01*
X127454010Y-102054010D02*
X94644306Y-102054010D01*
X128587500Y-103187500D02*
X127454010Y-102054010D01*
X128587500Y-109668028D02*
X128587500Y-103187500D01*
X135288067Y-113506250D02*
X132425721Y-113506249D01*
X132425721Y-113506249D02*
X128587500Y-109668028D01*
X135942309Y-112852008D02*
X135288067Y-113506250D01*
X136438300Y-112852008D02*
X135942309Y-112852008D01*
X92868750Y-108743750D02*
X95250000Y-108743750D01*
X91735260Y-107610260D02*
X92868750Y-108743750D01*
X91735260Y-104963056D02*
X91735260Y-107610260D01*
G04 #@! TO.N,COL1*
X132556250Y-111918750D02*
X132600000Y-111875000D01*
X132632820Y-111842180D02*
X136438300Y-111842180D01*
X132556250Y-111918750D02*
X132632820Y-111842180D01*
G04 #@! TO.N,COL2*
X134143750Y-111125000D02*
X134393750Y-111375000D01*
X131762500Y-111125000D02*
X134143750Y-111125000D01*
X136405480Y-111375000D02*
X136438300Y-111342180D01*
X134393750Y-111375000D02*
X136405480Y-111375000D01*
G04 #@! TO.N,COL3*
X133350000Y-109047116D02*
X133350000Y-107156250D01*
X134677884Y-110375000D02*
X133350000Y-109047116D01*
X134677884Y-110375000D02*
X136481250Y-110375000D01*
X136481250Y-110375000D02*
X136525000Y-110331250D01*
G04 #@! TO.N,COL4*
X140127800Y-107750265D02*
X140127800Y-108654680D01*
X140772266Y-107105799D02*
X140127800Y-107750265D01*
X143618299Y-107105799D02*
X140772266Y-107105799D01*
X148272500Y-111760000D02*
X143618299Y-107105799D01*
X148272500Y-111760000D02*
X149860000Y-111760000D01*
G04 #@! TO.N,COL5*
X141482820Y-109342180D02*
X141313300Y-109342180D01*
X146843750Y-111146155D02*
X146843750Y-111918750D01*
X145039775Y-109342180D02*
X146843750Y-111146155D01*
X141313300Y-109342180D02*
X145039775Y-109342180D01*
G04 #@! TO.N,COL6*
X144897708Y-109842180D02*
X146050000Y-110994472D01*
X146050000Y-110994472D02*
X146050000Y-112712500D01*
X141313300Y-109842180D02*
X144897708Y-109842180D01*
G04 #@! TO.N,COL7*
X138656250Y-114550000D02*
X138112500Y-115093750D01*
X138112500Y-115093750D02*
X138112500Y-115887500D01*
X138656250Y-113560130D02*
X138625800Y-113529680D01*
X138656250Y-114550000D02*
X138656250Y-113560130D01*
G04 #@! TO.N,Net-(R1-Pad2)*
X131762500Y-106860250D02*
X131762500Y-106362500D01*
X131762500Y-109537500D02*
X131762500Y-106362500D01*
X132895990Y-110670990D02*
X131762500Y-109537500D01*
X134331807Y-110670990D02*
X132895990Y-110670990D01*
X134535817Y-110875000D02*
X134331807Y-110670990D01*
X136405480Y-110875000D02*
X136438300Y-110842180D01*
X134535817Y-110875000D02*
X136405480Y-110875000D01*
G04 #@! TO.N,Net-(R2-Pad1)*
X156250000Y-103981250D02*
X157043750Y-103187500D01*
X153987500Y-103981250D02*
X156250000Y-103981250D01*
X151606250Y-113506250D02*
X152400000Y-112712500D01*
X145767788Y-113506250D02*
X151606250Y-113506250D01*
X143636538Y-111375000D02*
X145767788Y-113506250D01*
X152400000Y-112712500D02*
X152400000Y-105568750D01*
X141537500Y-111375000D02*
X143636538Y-111375000D01*
X141504680Y-111342180D02*
X141537500Y-111375000D01*
X152400000Y-105568750D02*
X153987500Y-103981250D01*
X141313300Y-111342180D02*
X141504680Y-111342180D01*
G04 #@! TO.N,Net-(R3-Pad1)*
X143461652Y-111842180D02*
X141313300Y-111842180D01*
X143603486Y-111984014D02*
X143461652Y-111842180D01*
X143494472Y-111875000D02*
X143603486Y-111984014D01*
X153987500Y-104775000D02*
X156250000Y-104775000D01*
X152854010Y-105908490D02*
X153987500Y-104775000D01*
X152854010Y-112900557D02*
X152854010Y-105908490D01*
X151794307Y-113960260D02*
X152854010Y-112900557D01*
X145579731Y-113960260D02*
X151794307Y-113960260D01*
X156250000Y-104775000D02*
X157043750Y-105568750D01*
X143603486Y-111984014D02*
X145579731Y-113960260D01*
G04 #@! TO.N,ROW4*
X57150000Y-77850000D02*
X57212500Y-77850000D01*
X57212500Y-77850000D02*
X59077240Y-79714740D01*
X59077240Y-79714740D02*
X72685260Y-79714740D01*
X72685260Y-79714740D02*
X75406250Y-76993750D01*
X75406250Y-76993750D02*
X76993750Y-76993750D01*
X76993750Y-76993750D02*
X79714740Y-79714740D01*
X93385260Y-79714740D02*
X95250000Y-77850000D01*
X92414740Y-79714740D02*
X93385260Y-79714740D01*
X95250000Y-77850000D02*
X95312500Y-77850000D01*
X110785260Y-79714740D02*
X113506250Y-76993750D01*
X115082352Y-76993750D02*
X117803342Y-79714740D01*
X113506250Y-76993750D02*
X115082352Y-76993750D01*
X131485260Y-79714740D02*
X133350000Y-77850000D01*
X129720990Y-79714740D02*
X131485260Y-79714740D01*
X133350000Y-77850000D02*
X133412500Y-77850000D01*
X135277240Y-79714740D02*
X148885260Y-79714740D01*
X148885260Y-79714740D02*
X149225000Y-79375000D01*
X153182352Y-76993750D02*
X155903342Y-79714740D01*
X151606250Y-76993750D02*
X153182352Y-76993750D01*
X169585260Y-79714740D02*
X171450000Y-77850000D01*
X171450000Y-77850000D02*
X171512500Y-77850000D01*
X191361601Y-77072999D02*
X194003342Y-79714740D01*
X189638399Y-77072999D02*
X191361601Y-77072999D01*
X186996658Y-79714740D02*
X189638399Y-77072999D01*
X173377240Y-79714740D02*
X186996658Y-79714740D01*
X207685260Y-79714740D02*
X209550000Y-77850000D01*
X209550000Y-77850000D02*
X209612500Y-77850000D01*
X229461601Y-77072999D02*
X232103342Y-79714740D01*
X227738399Y-77072999D02*
X229461601Y-77072999D01*
X225096658Y-79714740D02*
X227738399Y-77072999D01*
X245785260Y-79714740D02*
X247650000Y-77850000D01*
X232103342Y-79714740D02*
X245785260Y-79714740D01*
X247650000Y-77850000D02*
X247712500Y-77850000D01*
X92414740Y-79714740D02*
X98085260Y-79714740D01*
X97177240Y-79714740D02*
X98085260Y-79714740D01*
X79714740Y-79714740D02*
X92414740Y-79714740D01*
X98085260Y-79714740D02*
X110785260Y-79714740D01*
X129720990Y-79714740D02*
X136185260Y-79714740D01*
X117803342Y-79714740D02*
X129720990Y-79714740D01*
X167935260Y-79714740D02*
X175079010Y-79714740D01*
X155903342Y-79714740D02*
X167935260Y-79714740D01*
X167935260Y-79714740D02*
X169585260Y-79714740D01*
X206714740Y-79714740D02*
X213972760Y-79714740D01*
X213972760Y-79714740D02*
X225096658Y-79714740D01*
X211477240Y-79714740D02*
X213972760Y-79714740D01*
X194003342Y-79714740D02*
X206714740Y-79714740D01*
X206714740Y-79714740D02*
X207685260Y-79714740D01*
X149225000Y-79375000D02*
X151606250Y-76993750D01*
X138625800Y-108166328D02*
X138625800Y-108654680D01*
X138906250Y-107885878D02*
X138625800Y-108166328D01*
X138906250Y-104775000D02*
X138906250Y-107885878D01*
X145256250Y-85496935D02*
X144462500Y-84703185D01*
X145256250Y-94456250D02*
X145256250Y-85496935D01*
X145256250Y-94967788D02*
X145256250Y-94456250D01*
X147637500Y-97631250D02*
X145256250Y-95250000D01*
X145256250Y-95250000D02*
X145256250Y-94456250D01*
G04 #@! TO.N,ROW5*
X40481250Y-96900000D02*
X40481250Y-97631250D01*
X121845990Y-98879010D02*
X123825000Y-96900000D01*
X123825000Y-96900000D02*
X123887500Y-96900000D01*
X159945990Y-98879010D02*
X160368750Y-98456250D01*
X120989740Y-98879010D02*
X159945990Y-98879010D01*
X120989740Y-98879010D02*
X121845990Y-98879010D01*
X279008490Y-98879010D02*
X280987500Y-96900000D01*
X236197760Y-98827240D02*
X238125000Y-96900000D01*
X236197760Y-98879010D02*
X236197760Y-98827240D01*
X236197760Y-98879010D02*
X279008490Y-98879010D01*
X198045990Y-98879010D02*
X200025000Y-96900000D01*
X159945990Y-98879010D02*
X236197760Y-98879010D01*
X40481250Y-97631250D02*
X41729010Y-98879010D01*
X85662500Y-96900000D02*
X83683490Y-98879010D01*
X85725000Y-96900000D02*
X85662500Y-96900000D01*
X83683490Y-98879010D02*
X41729010Y-98879010D01*
X120989740Y-98879010D02*
X83683490Y-98879010D01*
X160368750Y-98456250D02*
X161925000Y-96900000D01*
X153193750Y-100012500D02*
X152466749Y-99285499D01*
X152466749Y-99285499D02*
X146777001Y-99285499D01*
X146777001Y-99285499D02*
X146050000Y-100012500D01*
X146050000Y-100012500D02*
X146050000Y-100806250D01*
X139625800Y-106436700D02*
X139625800Y-108654680D01*
X139700000Y-106362500D02*
X139625800Y-106436700D01*
G04 #@! TO.N,ROW6*
X103250000Y-98425000D02*
X104775000Y-96900000D01*
X88888602Y-98425000D02*
X103250000Y-98425000D01*
X86507352Y-96043750D02*
X88888602Y-98425000D01*
X84931250Y-96043750D02*
X86507352Y-96043750D01*
X66675000Y-96900000D02*
X66737500Y-96900000D01*
X66737500Y-96900000D02*
X68262500Y-98425000D01*
X68262500Y-98425000D02*
X82550000Y-98425000D01*
X84931250Y-96043750D02*
X82550000Y-98425000D01*
X120650000Y-98425000D02*
X123031250Y-96043750D01*
X162718750Y-96043750D02*
X165100000Y-98425000D01*
X123031250Y-96043750D02*
X124618750Y-96043750D01*
X124618750Y-96043750D02*
X126206250Y-97631250D01*
X127000000Y-98425000D02*
X158750000Y-98425000D01*
X217550000Y-98425000D02*
X219075000Y-96900000D01*
X196861398Y-98425000D02*
X199242648Y-96043750D01*
X161131250Y-96043750D02*
X162718750Y-96043750D01*
X158750000Y-98425000D02*
X161131250Y-96043750D01*
X199242648Y-96043750D02*
X200818750Y-96043750D01*
X200818750Y-96043750D02*
X203200000Y-98425000D01*
X219075000Y-96900000D02*
X219137500Y-96900000D01*
X237263399Y-96122999D02*
X238997999Y-96122999D01*
X234961398Y-98425000D02*
X237263399Y-96122999D01*
X238997999Y-96122999D02*
X241300000Y-98425000D01*
X258031250Y-98425000D02*
X259556250Y-96900000D01*
X241300000Y-98425000D02*
X258031250Y-98425000D01*
X221456250Y-98425000D02*
X234961398Y-98425000D01*
X220662500Y-98425000D02*
X221456250Y-98425000D01*
X203200000Y-98425000D02*
X216693750Y-98425000D01*
X216693750Y-98425000D02*
X221456250Y-98425000D01*
X216693750Y-98425000D02*
X217550000Y-98425000D01*
X103250000Y-98425000D02*
X120650000Y-98425000D01*
X142875000Y-96900000D02*
X142812500Y-96900000D01*
X142812500Y-96900000D02*
X141287500Y-98425000D01*
X126206250Y-97631250D02*
X127000000Y-98425000D01*
X134143750Y-108743750D02*
X135275000Y-109875000D01*
X136101570Y-109842180D02*
X136438300Y-109842180D01*
X136068750Y-109875000D02*
X136101570Y-109842180D01*
X135275000Y-109875000D02*
X136068750Y-109875000D01*
X178593750Y-98425000D02*
X179450000Y-98425000D01*
X179450000Y-98425000D02*
X180975000Y-96900000D01*
X165100000Y-98425000D02*
X178593750Y-98425000D01*
X178593750Y-98425000D02*
X196861398Y-98425000D01*
G04 #@! TO.N,ROW7*
X35718750Y-115950000D02*
X35781250Y-115950000D01*
X35781250Y-115950000D02*
X38100000Y-118268750D01*
X85787500Y-118268750D02*
X88106250Y-115950000D01*
X38100000Y-118268750D02*
X85787500Y-118268750D01*
X169006250Y-115950000D02*
X166687500Y-118268750D01*
X169068750Y-115950000D02*
X169006250Y-115950000D01*
X231043750Y-118268750D02*
X233362500Y-115950000D01*
X166687500Y-118268750D02*
X231043750Y-118268750D01*
X278668750Y-118268750D02*
X280987500Y-115950000D01*
X231043750Y-118268750D02*
X278668750Y-118268750D01*
X123031250Y-118268750D02*
X123825000Y-117475000D01*
X123825000Y-117475000D02*
X129381250Y-117475000D01*
X138156250Y-114396067D02*
X138156250Y-113560130D01*
X137684037Y-114868280D02*
X138156250Y-114396067D01*
X138156250Y-113560130D02*
X138125800Y-113529680D01*
X85787500Y-118268750D02*
X123031250Y-118268750D01*
X135956720Y-114868280D02*
X137684037Y-114868280D01*
X135674508Y-114868280D02*
X135956720Y-114868280D01*
X131987970Y-114868280D02*
X135956720Y-114868280D01*
X130175000Y-116681250D02*
X135731250Y-116681250D01*
X129381250Y-117475000D02*
X130175000Y-116681250D01*
X130175000Y-116681250D02*
X131987970Y-114868280D01*
X152400000Y-119856250D02*
X153193750Y-119856250D01*
X153193750Y-119856250D02*
X154781250Y-118268750D01*
X154781250Y-118268750D02*
X166687500Y-118268750D01*
G04 #@! TO.N,ROW8*
X87244649Y-115172999D02*
X88979249Y-115172999D01*
X84602908Y-117814740D02*
X87244649Y-115172999D01*
X63839740Y-117814740D02*
X84602908Y-117814740D01*
X119918750Y-117475000D02*
X121443750Y-115950000D01*
X61975000Y-115950000D02*
X63839740Y-117814740D01*
X61912500Y-115950000D02*
X61975000Y-115950000D01*
X205643750Y-117475000D02*
X207168750Y-115950000D01*
X258031250Y-117475000D02*
X259556250Y-115950000D01*
X234167648Y-115105148D02*
X236537500Y-117475000D01*
X232568750Y-115105148D02*
X234167648Y-115105148D01*
X230198898Y-117475000D02*
X232568750Y-115105148D01*
X236537500Y-117475000D02*
X258031250Y-117475000D01*
X205643750Y-117475000D02*
X230198898Y-117475000D01*
X119918750Y-117475000D02*
X123031250Y-117475000D01*
X123031250Y-117475000D02*
X123825000Y-116681250D01*
X123825000Y-116681250D02*
X128587500Y-116681250D01*
X137656250Y-114254000D02*
X137495980Y-114414270D01*
X137495980Y-114414270D02*
X131648230Y-114414270D01*
X137656250Y-113560130D02*
X137625800Y-113529680D01*
X137656250Y-114254000D02*
X137656250Y-113560130D01*
X91281250Y-117475000D02*
X119918750Y-117475000D01*
X88979249Y-115172999D02*
X91281250Y-117475000D01*
X129381250Y-116681250D02*
X131648230Y-114414270D01*
X128587500Y-116681250D02*
X129381250Y-116681250D01*
X172243750Y-117475000D02*
X205643750Y-117475000D01*
X169862500Y-115093750D02*
X172243750Y-117475000D01*
X168275000Y-115093750D02*
X169862500Y-115093750D01*
X165893750Y-117475000D02*
X168275000Y-115093750D01*
X154781250Y-117475000D02*
X165893750Y-117475000D01*
X153987500Y-118268750D02*
X154781250Y-117475000D01*
X143668750Y-116681250D02*
X144462500Y-116681250D01*
X132556250Y-115887500D02*
X136525000Y-115887500D01*
X144462500Y-116681250D02*
X145408596Y-117627346D01*
X145408596Y-117627346D02*
X149377346Y-117627346D01*
X149377346Y-117627346D02*
X150018750Y-118268750D01*
X150018750Y-118268750D02*
X153987500Y-118268750D01*
G04 #@! TO.N,Net-(J2-Pad5)*
X98579462Y-110331250D02*
X98168963Y-109920751D01*
X96427001Y-112646749D02*
X95250000Y-113823750D01*
X96427001Y-110741749D02*
X96427001Y-112646749D01*
X97247999Y-109920751D02*
X96427001Y-110741749D01*
X98168963Y-109920751D02*
X97247999Y-109920751D01*
X138906250Y-103425000D02*
X137556250Y-104775000D01*
X137556250Y-104775000D02*
X130968750Y-104775000D01*
X140625800Y-108654680D02*
X141142172Y-108654680D01*
X141142172Y-108654680D02*
X141964051Y-107832801D01*
X149225000Y-97631250D02*
X149225000Y-97346462D01*
X150887500Y-86781250D02*
X150550000Y-86781250D01*
X150550000Y-86781250D02*
X146050000Y-91281250D01*
X148995674Y-97631250D02*
X149225000Y-97631250D01*
X146050000Y-94685576D02*
X148995674Y-97631250D01*
X146050000Y-91281250D02*
X146050000Y-94685576D01*
X108743750Y-104775000D02*
X103187500Y-110331250D01*
X113506250Y-104775000D02*
X108743750Y-104775000D01*
X142081250Y-105568750D02*
X142081250Y-104775000D01*
X140731250Y-103425000D02*
X138906250Y-103425000D01*
X142081250Y-104775000D02*
X140731250Y-103425000D01*
X103187500Y-110331250D02*
X98579462Y-110331250D01*
G04 #@! TD*
D23*
G04 #@! TO.N,GND*
X141739251Y-118983960D02*
X141606250Y-118983960D01*
X141515330Y-118992915D01*
X141427904Y-119019435D01*
X141347332Y-119062502D01*
X141276710Y-119120460D01*
X141218752Y-119191082D01*
X141175685Y-119271654D01*
X141149165Y-119359080D01*
X141140210Y-119450000D01*
X141140210Y-119950000D01*
X141149165Y-120040920D01*
X141175685Y-120128346D01*
X141218752Y-120208918D01*
X141276710Y-120279540D01*
X141347332Y-120337498D01*
X141427904Y-120380565D01*
X141515330Y-120407085D01*
X141606250Y-120416040D01*
X142313630Y-120416040D01*
X142474423Y-120576833D01*
X142451000Y-120577000D01*
X142320250Y-120707750D01*
X142320250Y-121361000D01*
X143198500Y-121361000D01*
X143271875Y-121287625D01*
X143345250Y-121361000D01*
X144223500Y-121361000D01*
X144223500Y-121341000D01*
X144701500Y-121341000D01*
X144701500Y-121361000D01*
X144721500Y-121361000D01*
X144721500Y-121839000D01*
X144701500Y-121839000D01*
X144701500Y-121859000D01*
X144223500Y-121859000D01*
X144223500Y-121839000D01*
X143345250Y-121839000D01*
X143271875Y-121912375D01*
X143198500Y-121839000D01*
X142320250Y-121839000D01*
X142320250Y-121859000D01*
X141842250Y-121859000D01*
X141842250Y-121839000D01*
X140964000Y-121839000D01*
X140833250Y-121969750D01*
X140831010Y-122085010D01*
X140608010Y-122085010D01*
X140611889Y-122072224D01*
X140616040Y-122030077D01*
X140616040Y-121646432D01*
X140636911Y-121621001D01*
X140668668Y-121561588D01*
X140688224Y-121497121D01*
X140694827Y-121430077D01*
X140688224Y-121363033D01*
X140668668Y-121298566D01*
X140636911Y-121239153D01*
X140616040Y-121213722D01*
X140616040Y-121100000D01*
X140830719Y-121100000D01*
X140833250Y-121230250D01*
X140964000Y-121361000D01*
X141842250Y-121361000D01*
X141842250Y-120707750D01*
X141711500Y-120577000D01*
X141356250Y-120574469D01*
X141253724Y-120584567D01*
X141155138Y-120614473D01*
X141064281Y-120663037D01*
X140984643Y-120728393D01*
X140919287Y-120808031D01*
X140870723Y-120898888D01*
X140840817Y-120997474D01*
X140830719Y-121100000D01*
X140616040Y-121100000D01*
X140616040Y-120830077D01*
X140613939Y-120808748D01*
X140691969Y-120767040D01*
X140771607Y-120701684D01*
X140836963Y-120622046D01*
X140885527Y-120531189D01*
X140915433Y-120432603D01*
X140925531Y-120330077D01*
X140923000Y-120099827D01*
X140792250Y-119969077D01*
X139939000Y-119969077D01*
X139939000Y-119989077D01*
X139461000Y-119989077D01*
X139461000Y-119969077D01*
X138607750Y-119969077D01*
X138477000Y-120099827D01*
X138474469Y-120330077D01*
X138480050Y-120386743D01*
X138413939Y-120351406D01*
X138416040Y-120330077D01*
X138416040Y-119130077D01*
X138474469Y-119130077D01*
X138477000Y-119360327D01*
X138607750Y-119491077D01*
X139461000Y-119491077D01*
X139461000Y-118737827D01*
X139939000Y-118737827D01*
X139939000Y-119491077D01*
X140792250Y-119491077D01*
X140923000Y-119360327D01*
X140925531Y-119130077D01*
X140915433Y-119027551D01*
X140885527Y-118928965D01*
X140836963Y-118838108D01*
X140771607Y-118758470D01*
X140691969Y-118693114D01*
X140601112Y-118644550D01*
X140502526Y-118614644D01*
X140400000Y-118604546D01*
X140069750Y-118607077D01*
X139939000Y-118737827D01*
X139461000Y-118737827D01*
X139330250Y-118607077D01*
X139000000Y-118604546D01*
X138897474Y-118614644D01*
X138798888Y-118644550D01*
X138708031Y-118693114D01*
X138628393Y-118758470D01*
X138563037Y-118838108D01*
X138514473Y-118928965D01*
X138484567Y-119027551D01*
X138474469Y-119130077D01*
X138416040Y-119130077D01*
X138411889Y-119087930D01*
X138399595Y-119047402D01*
X138379631Y-119010052D01*
X138352763Y-118977314D01*
X138320025Y-118950446D01*
X138282675Y-118930482D01*
X138242147Y-118918188D01*
X138200000Y-118914037D01*
X136800000Y-118914037D01*
X136757853Y-118918188D01*
X136717325Y-118930482D01*
X136679975Y-118950446D01*
X136647237Y-118977314D01*
X136620369Y-119010052D01*
X136600405Y-119047402D01*
X136588111Y-119087930D01*
X136583960Y-119130077D01*
X136583960Y-119393077D01*
X136519662Y-119412582D01*
X136460249Y-119444339D01*
X136408173Y-119487077D01*
X136397468Y-119500121D01*
X135501295Y-120396295D01*
X135488251Y-120407000D01*
X135477546Y-120420044D01*
X135477545Y-120420045D01*
X135445512Y-120459077D01*
X135413755Y-120518490D01*
X135394200Y-120582957D01*
X135387597Y-120650000D01*
X135389251Y-120666793D01*
X135389250Y-121533145D01*
X135387597Y-121549929D01*
X135389250Y-121566713D01*
X135389250Y-121566722D01*
X135394199Y-121616972D01*
X135413755Y-121681439D01*
X135445512Y-121740852D01*
X135488250Y-121792928D01*
X135501295Y-121803634D01*
X136284693Y-122587033D01*
X136295399Y-122600078D01*
X136347475Y-122642816D01*
X136406888Y-122674573D01*
X136471355Y-122694129D01*
X136521605Y-122699078D01*
X136521614Y-122699078D01*
X136538398Y-122700731D01*
X136555182Y-122699078D01*
X138884168Y-122699078D01*
X139446295Y-123261206D01*
X139457000Y-123274250D01*
X139509076Y-123316988D01*
X139568489Y-123348745D01*
X139632956Y-123368301D01*
X139683206Y-123373250D01*
X139683215Y-123373250D01*
X139699999Y-123374903D01*
X139716783Y-123373250D01*
X145239466Y-123373250D01*
X145256250Y-123374903D01*
X145273034Y-123373250D01*
X145273044Y-123373250D01*
X145323294Y-123368301D01*
X145387761Y-123348745D01*
X145447174Y-123316988D01*
X145499250Y-123274250D01*
X145509960Y-123261200D01*
X146279956Y-122491205D01*
X146293000Y-122480500D01*
X146335738Y-122428424D01*
X146367495Y-122369011D01*
X146387051Y-122304544D01*
X146392000Y-122254294D01*
X146392000Y-122254285D01*
X146393653Y-122237501D01*
X146392000Y-122220717D01*
X146392000Y-120666786D01*
X146393653Y-120650000D01*
X146392000Y-120633214D01*
X146392000Y-120633206D01*
X146387051Y-120582956D01*
X146367495Y-120518489D01*
X146335738Y-120459076D01*
X146318299Y-120437827D01*
X146303705Y-120420044D01*
X146303701Y-120420040D01*
X146292999Y-120407000D01*
X146279960Y-120396299D01*
X145403540Y-119519880D01*
X145403540Y-119450000D01*
X145394585Y-119359080D01*
X145368065Y-119271654D01*
X145324998Y-119191082D01*
X145267040Y-119120460D01*
X145196418Y-119062502D01*
X145115846Y-119019435D01*
X145028420Y-118992915D01*
X144937500Y-118983960D01*
X144230121Y-118983960D01*
X143529911Y-118283750D01*
X146828750Y-118283750D01*
X146828750Y-123715000D01*
X134952500Y-123715000D01*
X134952500Y-118283750D01*
X141739251Y-118283750D01*
X141739251Y-118983960D01*
G04 #@! TA.AperFunction,Conductor*
D24*
G36*
X141739251Y-118983960D02*
G01*
X141606250Y-118983960D01*
X141515330Y-118992915D01*
X141427904Y-119019435D01*
X141347332Y-119062502D01*
X141276710Y-119120460D01*
X141218752Y-119191082D01*
X141175685Y-119271654D01*
X141149165Y-119359080D01*
X141140210Y-119450000D01*
X141140210Y-119950000D01*
X141149165Y-120040920D01*
X141175685Y-120128346D01*
X141218752Y-120208918D01*
X141276710Y-120279540D01*
X141347332Y-120337498D01*
X141427904Y-120380565D01*
X141515330Y-120407085D01*
X141606250Y-120416040D01*
X142313630Y-120416040D01*
X142474423Y-120576833D01*
X142451000Y-120577000D01*
X142320250Y-120707750D01*
X142320250Y-121361000D01*
X143198500Y-121361000D01*
X143271875Y-121287625D01*
X143345250Y-121361000D01*
X144223500Y-121361000D01*
X144223500Y-121341000D01*
X144701500Y-121341000D01*
X144701500Y-121361000D01*
X144721500Y-121361000D01*
X144721500Y-121839000D01*
X144701500Y-121839000D01*
X144701500Y-121859000D01*
X144223500Y-121859000D01*
X144223500Y-121839000D01*
X143345250Y-121839000D01*
X143271875Y-121912375D01*
X143198500Y-121839000D01*
X142320250Y-121839000D01*
X142320250Y-121859000D01*
X141842250Y-121859000D01*
X141842250Y-121839000D01*
X140964000Y-121839000D01*
X140833250Y-121969750D01*
X140831010Y-122085010D01*
X140608010Y-122085010D01*
X140611889Y-122072224D01*
X140616040Y-122030077D01*
X140616040Y-121646432D01*
X140636911Y-121621001D01*
X140668668Y-121561588D01*
X140688224Y-121497121D01*
X140694827Y-121430077D01*
X140688224Y-121363033D01*
X140668668Y-121298566D01*
X140636911Y-121239153D01*
X140616040Y-121213722D01*
X140616040Y-121100000D01*
X140830719Y-121100000D01*
X140833250Y-121230250D01*
X140964000Y-121361000D01*
X141842250Y-121361000D01*
X141842250Y-120707750D01*
X141711500Y-120577000D01*
X141356250Y-120574469D01*
X141253724Y-120584567D01*
X141155138Y-120614473D01*
X141064281Y-120663037D01*
X140984643Y-120728393D01*
X140919287Y-120808031D01*
X140870723Y-120898888D01*
X140840817Y-120997474D01*
X140830719Y-121100000D01*
X140616040Y-121100000D01*
X140616040Y-120830077D01*
X140613939Y-120808748D01*
X140691969Y-120767040D01*
X140771607Y-120701684D01*
X140836963Y-120622046D01*
X140885527Y-120531189D01*
X140915433Y-120432603D01*
X140925531Y-120330077D01*
X140923000Y-120099827D01*
X140792250Y-119969077D01*
X139939000Y-119969077D01*
X139939000Y-119989077D01*
X139461000Y-119989077D01*
X139461000Y-119969077D01*
X138607750Y-119969077D01*
X138477000Y-120099827D01*
X138474469Y-120330077D01*
X138480050Y-120386743D01*
X138413939Y-120351406D01*
X138416040Y-120330077D01*
X138416040Y-119130077D01*
X138474469Y-119130077D01*
X138477000Y-119360327D01*
X138607750Y-119491077D01*
X139461000Y-119491077D01*
X139461000Y-118737827D01*
X139939000Y-118737827D01*
X139939000Y-119491077D01*
X140792250Y-119491077D01*
X140923000Y-119360327D01*
X140925531Y-119130077D01*
X140915433Y-119027551D01*
X140885527Y-118928965D01*
X140836963Y-118838108D01*
X140771607Y-118758470D01*
X140691969Y-118693114D01*
X140601112Y-118644550D01*
X140502526Y-118614644D01*
X140400000Y-118604546D01*
X140069750Y-118607077D01*
X139939000Y-118737827D01*
X139461000Y-118737827D01*
X139330250Y-118607077D01*
X139000000Y-118604546D01*
X138897474Y-118614644D01*
X138798888Y-118644550D01*
X138708031Y-118693114D01*
X138628393Y-118758470D01*
X138563037Y-118838108D01*
X138514473Y-118928965D01*
X138484567Y-119027551D01*
X138474469Y-119130077D01*
X138416040Y-119130077D01*
X138411889Y-119087930D01*
X138399595Y-119047402D01*
X138379631Y-119010052D01*
X138352763Y-118977314D01*
X138320025Y-118950446D01*
X138282675Y-118930482D01*
X138242147Y-118918188D01*
X138200000Y-118914037D01*
X136800000Y-118914037D01*
X136757853Y-118918188D01*
X136717325Y-118930482D01*
X136679975Y-118950446D01*
X136647237Y-118977314D01*
X136620369Y-119010052D01*
X136600405Y-119047402D01*
X136588111Y-119087930D01*
X136583960Y-119130077D01*
X136583960Y-119393077D01*
X136519662Y-119412582D01*
X136460249Y-119444339D01*
X136408173Y-119487077D01*
X136397468Y-119500121D01*
X135501295Y-120396295D01*
X135488251Y-120407000D01*
X135477546Y-120420044D01*
X135477545Y-120420045D01*
X135445512Y-120459077D01*
X135413755Y-120518490D01*
X135394200Y-120582957D01*
X135387597Y-120650000D01*
X135389251Y-120666793D01*
X135389250Y-121533145D01*
X135387597Y-121549929D01*
X135389250Y-121566713D01*
X135389250Y-121566722D01*
X135394199Y-121616972D01*
X135413755Y-121681439D01*
X135445512Y-121740852D01*
X135488250Y-121792928D01*
X135501295Y-121803634D01*
X136284693Y-122587033D01*
X136295399Y-122600078D01*
X136347475Y-122642816D01*
X136406888Y-122674573D01*
X136471355Y-122694129D01*
X136521605Y-122699078D01*
X136521614Y-122699078D01*
X136538398Y-122700731D01*
X136555182Y-122699078D01*
X138884168Y-122699078D01*
X139446295Y-123261206D01*
X139457000Y-123274250D01*
X139509076Y-123316988D01*
X139568489Y-123348745D01*
X139632956Y-123368301D01*
X139683206Y-123373250D01*
X139683215Y-123373250D01*
X139699999Y-123374903D01*
X139716783Y-123373250D01*
X145239466Y-123373250D01*
X145256250Y-123374903D01*
X145273034Y-123373250D01*
X145273044Y-123373250D01*
X145323294Y-123368301D01*
X145387761Y-123348745D01*
X145447174Y-123316988D01*
X145499250Y-123274250D01*
X145509960Y-123261200D01*
X146279956Y-122491205D01*
X146293000Y-122480500D01*
X146335738Y-122428424D01*
X146367495Y-122369011D01*
X146387051Y-122304544D01*
X146392000Y-122254294D01*
X146392000Y-122254285D01*
X146393653Y-122237501D01*
X146392000Y-122220717D01*
X146392000Y-120666786D01*
X146393653Y-120650000D01*
X146392000Y-120633214D01*
X146392000Y-120633206D01*
X146387051Y-120582956D01*
X146367495Y-120518489D01*
X146335738Y-120459076D01*
X146318299Y-120437827D01*
X146303705Y-120420044D01*
X146303701Y-120420040D01*
X146292999Y-120407000D01*
X146279960Y-120396299D01*
X145403540Y-119519880D01*
X145403540Y-119450000D01*
X145394585Y-119359080D01*
X145368065Y-119271654D01*
X145324998Y-119191082D01*
X145267040Y-119120460D01*
X145196418Y-119062502D01*
X145115846Y-119019435D01*
X145028420Y-118992915D01*
X144937500Y-118983960D01*
X144230121Y-118983960D01*
X143529911Y-118283750D01*
X146828750Y-118283750D01*
X146828750Y-123715000D01*
X134952500Y-123715000D01*
X134952500Y-118283750D01*
X141739251Y-118283750D01*
X141739251Y-118983960D01*
G37*
G04 #@! TD.AperFunction*
D23*
X136583960Y-120330077D02*
X136586061Y-120351406D01*
X136508031Y-120393114D01*
X136428393Y-120458470D01*
X136363037Y-120538108D01*
X136314473Y-120628965D01*
X136284567Y-120727551D01*
X136274469Y-120830077D01*
X136277000Y-121060327D01*
X136407750Y-121191077D01*
X137261000Y-121191077D01*
X137261000Y-121171077D01*
X137739000Y-121171077D01*
X137739000Y-121191077D01*
X138592250Y-121191077D01*
X138723000Y-121060327D01*
X138725531Y-120830077D01*
X138719950Y-120773411D01*
X138786061Y-120808748D01*
X138783960Y-120830077D01*
X138783960Y-122015078D01*
X138725366Y-122015078D01*
X138723000Y-121799827D01*
X138592250Y-121669077D01*
X137739000Y-121669077D01*
X137739000Y-121689077D01*
X137261000Y-121689077D01*
X137261000Y-121669077D01*
X136407750Y-121669077D01*
X136370904Y-121705923D01*
X136073250Y-121408269D01*
X136073250Y-120791660D01*
X136583960Y-120280951D01*
X136583960Y-120330077D01*
G04 #@! TA.AperFunction,Conductor*
D24*
G36*
X136583960Y-120330077D02*
G01*
X136586061Y-120351406D01*
X136508031Y-120393114D01*
X136428393Y-120458470D01*
X136363037Y-120538108D01*
X136314473Y-120628965D01*
X136284567Y-120727551D01*
X136274469Y-120830077D01*
X136277000Y-121060327D01*
X136407750Y-121191077D01*
X137261000Y-121191077D01*
X137261000Y-121171077D01*
X137739000Y-121171077D01*
X137739000Y-121191077D01*
X138592250Y-121191077D01*
X138723000Y-121060327D01*
X138725531Y-120830077D01*
X138719950Y-120773411D01*
X138786061Y-120808748D01*
X138783960Y-120830077D01*
X138783960Y-122015078D01*
X138725366Y-122015078D01*
X138723000Y-121799827D01*
X138592250Y-121669077D01*
X137739000Y-121669077D01*
X137739000Y-121689077D01*
X137261000Y-121689077D01*
X137261000Y-121669077D01*
X136407750Y-121669077D01*
X136370904Y-121705923D01*
X136073250Y-121408269D01*
X136073250Y-120791660D01*
X136583960Y-120280951D01*
X136583960Y-120330077D01*
G37*
G04 #@! TD.AperFunction*
G04 #@! TD*
D25*
X141242226Y-113199494D02*
X141295491Y-113204740D01*
X142068550Y-113204740D01*
X142068550Y-114287300D01*
X141863828Y-114287300D01*
X140964529Y-113388002D01*
X140964529Y-113180909D01*
X141180961Y-113180909D01*
X141242226Y-113199494D01*
G04 #@! TA.AperFunction,NonConductor*
D26*
G36*
X141242226Y-113199494D02*
G01*
X141295491Y-113204740D01*
X142068550Y-113204740D01*
X142068550Y-114287300D01*
X141863828Y-114287300D01*
X140964529Y-113388002D01*
X140964529Y-113180909D01*
X141180961Y-113180909D01*
X141242226Y-113199494D01*
G37*
G04 #@! TD.AperFunction*
D25*
X140903012Y-114287300D02*
X140875475Y-114287300D01*
X140758752Y-114170577D01*
X140779880Y-114164168D01*
X140903012Y-114287300D01*
G04 #@! TA.AperFunction,NonConductor*
D26*
G36*
X140903012Y-114287300D02*
G01*
X140875475Y-114287300D01*
X140758752Y-114170577D01*
X140779880Y-114164168D01*
X140903012Y-114287300D01*
G37*
G04 #@! TD.AperFunction*
D25*
X136792379Y-113958570D02*
X136808098Y-114010388D01*
X136833624Y-114058145D01*
X136847104Y-114074570D01*
X136379155Y-114074570D01*
X136539024Y-113914700D01*
X136788058Y-113914700D01*
X136792379Y-113958570D01*
G04 #@! TA.AperFunction,NonConductor*
D26*
G36*
X136792379Y-113958570D02*
G01*
X136808098Y-114010388D01*
X136833624Y-114058145D01*
X136847104Y-114074570D01*
X136379155Y-114074570D01*
X136539024Y-113914700D01*
X136788058Y-113914700D01*
X136792379Y-113958570D01*
G37*
G04 #@! TD.AperFunction*
D25*
X136787071Y-113235300D02*
X136414986Y-113235300D01*
X136398315Y-113233658D01*
X136381644Y-113235300D01*
X136381635Y-113235300D01*
X136331723Y-113240216D01*
X136267690Y-113259640D01*
X136267688Y-113259641D01*
X136208675Y-113291184D01*
X136192768Y-113304239D01*
X136156950Y-113333634D01*
X136146316Y-113346592D01*
X135872349Y-113620561D01*
X135743950Y-113620561D01*
X135743950Y-113530774D01*
X136083017Y-113191708D01*
X136454981Y-113191708D01*
X136504893Y-113186792D01*
X136524287Y-113180909D01*
X136787071Y-113180909D01*
X136787071Y-113235300D01*
G04 #@! TA.AperFunction,NonConductor*
D26*
G36*
X136787071Y-113235300D02*
G01*
X136414986Y-113235300D01*
X136398315Y-113233658D01*
X136381644Y-113235300D01*
X136381635Y-113235300D01*
X136331723Y-113240216D01*
X136267690Y-113259640D01*
X136267688Y-113259641D01*
X136208675Y-113291184D01*
X136192768Y-113304239D01*
X136156950Y-113333634D01*
X136146316Y-113346592D01*
X135872349Y-113620561D01*
X135743950Y-113620561D01*
X135743950Y-113530774D01*
X136083017Y-113191708D01*
X136454981Y-113191708D01*
X136504893Y-113186792D01*
X136524287Y-113180909D01*
X136787071Y-113180909D01*
X136787071Y-113235300D01*
G37*
G04 #@! TD.AperFunction*
D25*
X140667379Y-111225790D02*
X140662071Y-111279680D01*
X140662071Y-111404680D01*
X140667379Y-111458570D01*
X140683098Y-111510388D01*
X140708624Y-111558145D01*
X140736557Y-111592180D01*
X140708624Y-111626215D01*
X140683098Y-111673972D01*
X140667379Y-111725790D01*
X140662071Y-111779680D01*
X140662071Y-111904680D01*
X140667379Y-111958570D01*
X140683098Y-112010388D01*
X140708624Y-112058145D01*
X140736557Y-112092180D01*
X140708624Y-112126215D01*
X140683098Y-112173972D01*
X140667379Y-112225790D01*
X140662071Y-112279680D01*
X140662071Y-112404680D01*
X140667379Y-112458570D01*
X140683098Y-112510388D01*
X140708624Y-112558145D01*
X140736557Y-112592180D01*
X140708624Y-112626215D01*
X140683098Y-112673972D01*
X140667379Y-112725790D01*
X140662071Y-112779680D01*
X140662071Y-112878451D01*
X140563300Y-112878451D01*
X140509410Y-112883759D01*
X140457592Y-112899478D01*
X140409835Y-112925004D01*
X140375800Y-112952937D01*
X140341765Y-112925004D01*
X140294008Y-112899478D01*
X140242190Y-112883759D01*
X140188300Y-112878451D01*
X140063300Y-112878451D01*
X140009410Y-112883759D01*
X139995410Y-112888006D01*
X139995410Y-112855909D01*
X140425800Y-112855909D01*
X140467496Y-112851802D01*
X140507591Y-112839640D01*
X140544541Y-112819889D01*
X140576929Y-112793309D01*
X140603509Y-112760921D01*
X140623260Y-112723971D01*
X140635422Y-112683876D01*
X140639529Y-112642180D01*
X140639529Y-111204740D01*
X140673765Y-111204740D01*
X140667379Y-111225790D01*
G04 #@! TA.AperFunction,NonConductor*
D26*
G36*
X140667379Y-111225790D02*
G01*
X140662071Y-111279680D01*
X140662071Y-111404680D01*
X140667379Y-111458570D01*
X140683098Y-111510388D01*
X140708624Y-111558145D01*
X140736557Y-111592180D01*
X140708624Y-111626215D01*
X140683098Y-111673972D01*
X140667379Y-111725790D01*
X140662071Y-111779680D01*
X140662071Y-111904680D01*
X140667379Y-111958570D01*
X140683098Y-112010388D01*
X140708624Y-112058145D01*
X140736557Y-112092180D01*
X140708624Y-112126215D01*
X140683098Y-112173972D01*
X140667379Y-112225790D01*
X140662071Y-112279680D01*
X140662071Y-112404680D01*
X140667379Y-112458570D01*
X140683098Y-112510388D01*
X140708624Y-112558145D01*
X140736557Y-112592180D01*
X140708624Y-112626215D01*
X140683098Y-112673972D01*
X140667379Y-112725790D01*
X140662071Y-112779680D01*
X140662071Y-112878451D01*
X140563300Y-112878451D01*
X140509410Y-112883759D01*
X140457592Y-112899478D01*
X140409835Y-112925004D01*
X140375800Y-112952937D01*
X140341765Y-112925004D01*
X140294008Y-112899478D01*
X140242190Y-112883759D01*
X140188300Y-112878451D01*
X140063300Y-112878451D01*
X140009410Y-112883759D01*
X139995410Y-112888006D01*
X139995410Y-112855909D01*
X140425800Y-112855909D01*
X140467496Y-112851802D01*
X140507591Y-112839640D01*
X140544541Y-112819889D01*
X140576929Y-112793309D01*
X140603509Y-112760921D01*
X140623260Y-112723971D01*
X140635422Y-112683876D01*
X140639529Y-112642180D01*
X140639529Y-111204740D01*
X140673765Y-111204740D01*
X140667379Y-111225790D01*
G37*
G04 #@! TD.AperFunction*
D25*
X140409835Y-109259356D02*
X140457592Y-109284882D01*
X140509410Y-109300601D01*
X140563300Y-109305909D01*
X140662071Y-109305909D01*
X140662071Y-109404680D01*
X140667379Y-109458570D01*
X140683098Y-109510388D01*
X140708624Y-109558145D01*
X140736557Y-109592180D01*
X140708624Y-109626215D01*
X140683098Y-109673972D01*
X140667379Y-109725790D01*
X140662071Y-109779680D01*
X140662071Y-109904680D01*
X140667379Y-109958570D01*
X140683098Y-110010388D01*
X140708624Y-110058145D01*
X140736557Y-110092180D01*
X140708624Y-110126215D01*
X140683098Y-110173972D01*
X140667379Y-110225790D01*
X140662071Y-110279680D01*
X140662071Y-110404680D01*
X140667379Y-110458570D01*
X140673765Y-110479620D01*
X140639529Y-110479620D01*
X140639529Y-109542180D01*
X140635422Y-109500484D01*
X140623260Y-109460389D01*
X140603509Y-109423439D01*
X140576929Y-109391051D01*
X140544541Y-109364471D01*
X140507591Y-109344720D01*
X140467496Y-109332558D01*
X140425800Y-109328451D01*
X137325800Y-109328451D01*
X137284104Y-109332558D01*
X137244009Y-109344720D01*
X137207059Y-109364471D01*
X137174671Y-109391051D01*
X137148091Y-109423439D01*
X137128340Y-109460389D01*
X137116178Y-109500484D01*
X137112071Y-109542180D01*
X137112071Y-112642180D01*
X137116178Y-112683876D01*
X137128340Y-112723971D01*
X137148091Y-112760921D01*
X137174671Y-112793309D01*
X137207059Y-112819889D01*
X137244009Y-112839640D01*
X137284104Y-112851802D01*
X137325800Y-112855909D01*
X139270290Y-112855909D01*
X139270290Y-112892283D01*
X139242190Y-112883759D01*
X139188300Y-112878451D01*
X139063300Y-112878451D01*
X139009410Y-112883759D01*
X138957592Y-112899478D01*
X138909835Y-112925004D01*
X138875800Y-112952937D01*
X138841765Y-112925004D01*
X138794008Y-112899478D01*
X138742190Y-112883759D01*
X138688300Y-112878451D01*
X138563300Y-112878451D01*
X138509410Y-112883759D01*
X138457592Y-112899478D01*
X138409835Y-112925004D01*
X138375800Y-112952937D01*
X138341765Y-112925004D01*
X138294008Y-112899478D01*
X138242190Y-112883759D01*
X138188300Y-112878451D01*
X138063300Y-112878451D01*
X138009410Y-112883759D01*
X137957592Y-112899478D01*
X137909835Y-112925004D01*
X137875800Y-112952937D01*
X137841765Y-112925004D01*
X137794008Y-112899478D01*
X137742190Y-112883759D01*
X137688300Y-112878451D01*
X137563300Y-112878451D01*
X137509410Y-112883759D01*
X137457592Y-112899478D01*
X137409835Y-112925004D01*
X137375800Y-112952937D01*
X137341765Y-112925004D01*
X137294008Y-112899478D01*
X137242190Y-112883759D01*
X137188300Y-112878451D01*
X137089529Y-112878451D01*
X137089529Y-112779680D01*
X137084221Y-112725790D01*
X137068502Y-112673972D01*
X137042976Y-112626215D01*
X137015043Y-112592180D01*
X137042976Y-112558145D01*
X137068502Y-112510388D01*
X137084221Y-112458570D01*
X137089529Y-112404680D01*
X137089529Y-112279680D01*
X137084221Y-112225790D01*
X137068502Y-112173972D01*
X137042976Y-112126215D01*
X137015043Y-112092180D01*
X137042976Y-112058145D01*
X137068502Y-112010388D01*
X137084221Y-111958570D01*
X137089529Y-111904680D01*
X137089529Y-111779680D01*
X137084221Y-111725790D01*
X137068502Y-111673972D01*
X137042976Y-111626215D01*
X137015043Y-111592180D01*
X137042976Y-111558145D01*
X137068502Y-111510388D01*
X137084221Y-111458570D01*
X137089529Y-111404680D01*
X137089529Y-111279680D01*
X137084221Y-111225790D01*
X137068502Y-111173972D01*
X137042976Y-111126215D01*
X137015043Y-111092180D01*
X137042976Y-111058145D01*
X137068502Y-111010388D01*
X137084221Y-110958570D01*
X137089529Y-110904680D01*
X137089529Y-110779680D01*
X137084221Y-110725790D01*
X137068502Y-110673972D01*
X137042976Y-110626215D01*
X137015043Y-110592180D01*
X137042976Y-110558145D01*
X137068502Y-110510388D01*
X137084221Y-110458570D01*
X137089529Y-110404680D01*
X137089529Y-110279680D01*
X137084221Y-110225790D01*
X137068502Y-110173972D01*
X137042976Y-110126215D01*
X137015043Y-110092180D01*
X137042976Y-110058145D01*
X137068502Y-110010388D01*
X137084221Y-109958570D01*
X137089529Y-109904680D01*
X137089529Y-109779680D01*
X137084221Y-109725790D01*
X137068502Y-109673972D01*
X137042976Y-109626215D01*
X137015043Y-109592180D01*
X137042976Y-109558145D01*
X137068502Y-109510388D01*
X137084221Y-109458570D01*
X137089529Y-109404680D01*
X137089529Y-109305909D01*
X137188300Y-109305909D01*
X137242190Y-109300601D01*
X137294008Y-109284882D01*
X137341765Y-109259356D01*
X137375800Y-109231423D01*
X137409835Y-109259356D01*
X137457592Y-109284882D01*
X137509410Y-109300601D01*
X137563300Y-109305909D01*
X137688300Y-109305909D01*
X137742190Y-109300601D01*
X137794008Y-109284882D01*
X137841765Y-109259356D01*
X137875800Y-109231423D01*
X137909835Y-109259356D01*
X137957592Y-109284882D01*
X138009410Y-109300601D01*
X138063300Y-109305909D01*
X138188300Y-109305909D01*
X138242190Y-109300601D01*
X138294008Y-109284882D01*
X138341765Y-109259356D01*
X138375800Y-109231423D01*
X138409835Y-109259356D01*
X138457592Y-109284882D01*
X138509410Y-109300601D01*
X138563300Y-109305909D01*
X138688300Y-109305909D01*
X138742190Y-109300601D01*
X138794008Y-109284882D01*
X138841765Y-109259356D01*
X138875800Y-109231423D01*
X138909835Y-109259356D01*
X138957592Y-109284882D01*
X139009410Y-109300601D01*
X139063300Y-109305909D01*
X139188300Y-109305909D01*
X139242190Y-109300601D01*
X139294008Y-109284882D01*
X139341765Y-109259356D01*
X139375800Y-109231423D01*
X139409835Y-109259356D01*
X139457592Y-109284882D01*
X139509410Y-109300601D01*
X139563300Y-109305909D01*
X139688300Y-109305909D01*
X139742190Y-109300601D01*
X139794008Y-109284882D01*
X139841765Y-109259356D01*
X139875800Y-109231423D01*
X139909835Y-109259356D01*
X139957592Y-109284882D01*
X140009410Y-109300601D01*
X140063300Y-109305909D01*
X140188300Y-109305909D01*
X140242190Y-109300601D01*
X140294008Y-109284882D01*
X140341765Y-109259356D01*
X140375800Y-109231423D01*
X140409835Y-109259356D01*
G04 #@! TA.AperFunction,NonConductor*
D26*
G36*
X140409835Y-109259356D02*
G01*
X140457592Y-109284882D01*
X140509410Y-109300601D01*
X140563300Y-109305909D01*
X140662071Y-109305909D01*
X140662071Y-109404680D01*
X140667379Y-109458570D01*
X140683098Y-109510388D01*
X140708624Y-109558145D01*
X140736557Y-109592180D01*
X140708624Y-109626215D01*
X140683098Y-109673972D01*
X140667379Y-109725790D01*
X140662071Y-109779680D01*
X140662071Y-109904680D01*
X140667379Y-109958570D01*
X140683098Y-110010388D01*
X140708624Y-110058145D01*
X140736557Y-110092180D01*
X140708624Y-110126215D01*
X140683098Y-110173972D01*
X140667379Y-110225790D01*
X140662071Y-110279680D01*
X140662071Y-110404680D01*
X140667379Y-110458570D01*
X140673765Y-110479620D01*
X140639529Y-110479620D01*
X140639529Y-109542180D01*
X140635422Y-109500484D01*
X140623260Y-109460389D01*
X140603509Y-109423439D01*
X140576929Y-109391051D01*
X140544541Y-109364471D01*
X140507591Y-109344720D01*
X140467496Y-109332558D01*
X140425800Y-109328451D01*
X137325800Y-109328451D01*
X137284104Y-109332558D01*
X137244009Y-109344720D01*
X137207059Y-109364471D01*
X137174671Y-109391051D01*
X137148091Y-109423439D01*
X137128340Y-109460389D01*
X137116178Y-109500484D01*
X137112071Y-109542180D01*
X137112071Y-112642180D01*
X137116178Y-112683876D01*
X137128340Y-112723971D01*
X137148091Y-112760921D01*
X137174671Y-112793309D01*
X137207059Y-112819889D01*
X137244009Y-112839640D01*
X137284104Y-112851802D01*
X137325800Y-112855909D01*
X139270290Y-112855909D01*
X139270290Y-112892283D01*
X139242190Y-112883759D01*
X139188300Y-112878451D01*
X139063300Y-112878451D01*
X139009410Y-112883759D01*
X138957592Y-112899478D01*
X138909835Y-112925004D01*
X138875800Y-112952937D01*
X138841765Y-112925004D01*
X138794008Y-112899478D01*
X138742190Y-112883759D01*
X138688300Y-112878451D01*
X138563300Y-112878451D01*
X138509410Y-112883759D01*
X138457592Y-112899478D01*
X138409835Y-112925004D01*
X138375800Y-112952937D01*
X138341765Y-112925004D01*
X138294008Y-112899478D01*
X138242190Y-112883759D01*
X138188300Y-112878451D01*
X138063300Y-112878451D01*
X138009410Y-112883759D01*
X137957592Y-112899478D01*
X137909835Y-112925004D01*
X137875800Y-112952937D01*
X137841765Y-112925004D01*
X137794008Y-112899478D01*
X137742190Y-112883759D01*
X137688300Y-112878451D01*
X137563300Y-112878451D01*
X137509410Y-112883759D01*
X137457592Y-112899478D01*
X137409835Y-112925004D01*
X137375800Y-112952937D01*
X137341765Y-112925004D01*
X137294008Y-112899478D01*
X137242190Y-112883759D01*
X137188300Y-112878451D01*
X137089529Y-112878451D01*
X137089529Y-112779680D01*
X137084221Y-112725790D01*
X137068502Y-112673972D01*
X137042976Y-112626215D01*
X137015043Y-112592180D01*
X137042976Y-112558145D01*
X137068502Y-112510388D01*
X137084221Y-112458570D01*
X137089529Y-112404680D01*
X137089529Y-112279680D01*
X137084221Y-112225790D01*
X137068502Y-112173972D01*
X137042976Y-112126215D01*
X137015043Y-112092180D01*
X137042976Y-112058145D01*
X137068502Y-112010388D01*
X137084221Y-111958570D01*
X137089529Y-111904680D01*
X137089529Y-111779680D01*
X137084221Y-111725790D01*
X137068502Y-111673972D01*
X137042976Y-111626215D01*
X137015043Y-111592180D01*
X137042976Y-111558145D01*
X137068502Y-111510388D01*
X137084221Y-111458570D01*
X137089529Y-111404680D01*
X137089529Y-111279680D01*
X137084221Y-111225790D01*
X137068502Y-111173972D01*
X137042976Y-111126215D01*
X137015043Y-111092180D01*
X137042976Y-111058145D01*
X137068502Y-111010388D01*
X137084221Y-110958570D01*
X137089529Y-110904680D01*
X137089529Y-110779680D01*
X137084221Y-110725790D01*
X137068502Y-110673972D01*
X137042976Y-110626215D01*
X137015043Y-110592180D01*
X137042976Y-110558145D01*
X137068502Y-110510388D01*
X137084221Y-110458570D01*
X137089529Y-110404680D01*
X137089529Y-110279680D01*
X137084221Y-110225790D01*
X137068502Y-110173972D01*
X137042976Y-110126215D01*
X137015043Y-110092180D01*
X137042976Y-110058145D01*
X137068502Y-110010388D01*
X137084221Y-109958570D01*
X137089529Y-109904680D01*
X137089529Y-109779680D01*
X137084221Y-109725790D01*
X137068502Y-109673972D01*
X137042976Y-109626215D01*
X137015043Y-109592180D01*
X137042976Y-109558145D01*
X137068502Y-109510388D01*
X137084221Y-109458570D01*
X137089529Y-109404680D01*
X137089529Y-109305909D01*
X137188300Y-109305909D01*
X137242190Y-109300601D01*
X137294008Y-109284882D01*
X137341765Y-109259356D01*
X137375800Y-109231423D01*
X137409835Y-109259356D01*
X137457592Y-109284882D01*
X137509410Y-109300601D01*
X137563300Y-109305909D01*
X137688300Y-109305909D01*
X137742190Y-109300601D01*
X137794008Y-109284882D01*
X137841765Y-109259356D01*
X137875800Y-109231423D01*
X137909835Y-109259356D01*
X137957592Y-109284882D01*
X138009410Y-109300601D01*
X138063300Y-109305909D01*
X138188300Y-109305909D01*
X138242190Y-109300601D01*
X138294008Y-109284882D01*
X138341765Y-109259356D01*
X138375800Y-109231423D01*
X138409835Y-109259356D01*
X138457592Y-109284882D01*
X138509410Y-109300601D01*
X138563300Y-109305909D01*
X138688300Y-109305909D01*
X138742190Y-109300601D01*
X138794008Y-109284882D01*
X138841765Y-109259356D01*
X138875800Y-109231423D01*
X138909835Y-109259356D01*
X138957592Y-109284882D01*
X139009410Y-109300601D01*
X139063300Y-109305909D01*
X139188300Y-109305909D01*
X139242190Y-109300601D01*
X139294008Y-109284882D01*
X139341765Y-109259356D01*
X139375800Y-109231423D01*
X139409835Y-109259356D01*
X139457592Y-109284882D01*
X139509410Y-109300601D01*
X139563300Y-109305909D01*
X139688300Y-109305909D01*
X139742190Y-109300601D01*
X139794008Y-109284882D01*
X139841765Y-109259356D01*
X139875800Y-109231423D01*
X139909835Y-109259356D01*
X139957592Y-109284882D01*
X140009410Y-109300601D01*
X140063300Y-109305909D01*
X140188300Y-109305909D01*
X140242190Y-109300601D01*
X140294008Y-109284882D01*
X140341765Y-109259356D01*
X140375800Y-109231423D01*
X140409835Y-109259356D01*
G37*
G04 #@! TD.AperFunction*
D25*
X136185301Y-109003451D02*
X136063300Y-109003451D01*
X136009410Y-109008759D01*
X135957592Y-109024478D01*
X135909835Y-109050004D01*
X135867977Y-109084357D01*
X135833624Y-109126215D01*
X135808098Y-109173972D01*
X135792379Y-109225790D01*
X135787071Y-109279680D01*
X135787071Y-109404680D01*
X135792379Y-109458570D01*
X135808098Y-109510388D01*
X135821413Y-109535300D01*
X135743950Y-109535300D01*
X135743950Y-107962700D01*
X136185300Y-107962700D01*
X136185301Y-109003451D01*
G04 #@! TA.AperFunction,NonConductor*
D26*
G36*
X136185301Y-109003451D02*
G01*
X136063300Y-109003451D01*
X136009410Y-109008759D01*
X135957592Y-109024478D01*
X135909835Y-109050004D01*
X135867977Y-109084357D01*
X135833624Y-109126215D01*
X135808098Y-109173972D01*
X135792379Y-109225790D01*
X135787071Y-109279680D01*
X135787071Y-109404680D01*
X135792379Y-109458570D01*
X135808098Y-109510388D01*
X135821413Y-109535300D01*
X135743950Y-109535300D01*
X135743950Y-107962700D01*
X136185300Y-107962700D01*
X136185301Y-109003451D01*
G37*
G04 #@! TD.AperFunction*
D25*
X141903705Y-108445501D02*
X142024397Y-108445501D01*
X142068550Y-108436719D01*
X142068550Y-109002480D01*
X141296619Y-109002480D01*
X141286760Y-109003451D01*
X140964529Y-109003451D01*
X140964529Y-108994380D01*
X141125494Y-108994380D01*
X141142172Y-108996023D01*
X141158850Y-108994380D01*
X141158853Y-108994380D01*
X141208765Y-108989464D01*
X141272798Y-108970040D01*
X141331812Y-108938496D01*
X141383538Y-108896046D01*
X141394178Y-108883081D01*
X141843695Y-108433565D01*
X141903705Y-108445501D01*
G04 #@! TA.AperFunction,NonConductor*
D26*
G36*
X141903705Y-108445501D02*
G01*
X142024397Y-108445501D01*
X142068550Y-108436719D01*
X142068550Y-109002480D01*
X141296619Y-109002480D01*
X141286760Y-109003451D01*
X140964529Y-109003451D01*
X140964529Y-108994380D01*
X141125494Y-108994380D01*
X141142172Y-108996023D01*
X141158850Y-108994380D01*
X141158853Y-108994380D01*
X141208765Y-108989464D01*
X141272798Y-108970040D01*
X141331812Y-108938496D01*
X141383538Y-108896046D01*
X141394178Y-108883081D01*
X141843695Y-108433565D01*
X141903705Y-108445501D01*
G37*
G04 #@! TD.AperFunction*
D25*
X141001465Y-108314980D02*
X140964529Y-108314980D01*
X140964529Y-108279680D01*
X140959221Y-108225790D01*
X140943502Y-108173972D01*
X140917976Y-108126215D01*
X140883623Y-108084357D01*
X140841765Y-108050004D01*
X140794008Y-108024478D01*
X140742190Y-108008759D01*
X140688300Y-108003451D01*
X140563300Y-108003451D01*
X140509410Y-108008759D01*
X140467500Y-108021472D01*
X140467500Y-107962700D01*
X141353744Y-107962700D01*
X141001465Y-108314980D01*
G04 #@! TA.AperFunction,NonConductor*
D26*
G36*
X141001465Y-108314980D02*
G01*
X140964529Y-108314980D01*
X140964529Y-108279680D01*
X140959221Y-108225790D01*
X140943502Y-108173972D01*
X140917976Y-108126215D01*
X140883623Y-108084357D01*
X140841765Y-108050004D01*
X140794008Y-108024478D01*
X140742190Y-108008759D01*
X140688300Y-108003451D01*
X140563300Y-108003451D01*
X140509410Y-108008759D01*
X140467500Y-108021472D01*
X140467500Y-107962700D01*
X141353744Y-107962700D01*
X141001465Y-108314980D01*
G37*
G04 #@! TD.AperFunction*
D25*
X137286101Y-108022079D02*
X137242190Y-108008759D01*
X137188300Y-108003451D01*
X137063300Y-108003451D01*
X137009410Y-108008759D01*
X136957592Y-108024478D01*
X136909835Y-108050004D01*
X136867977Y-108084357D01*
X136864700Y-108088350D01*
X136864700Y-107962700D01*
X137286101Y-107962700D01*
X137286101Y-108022079D01*
G04 #@! TA.AperFunction,NonConductor*
D26*
G36*
X137286101Y-108022079D02*
G01*
X137242190Y-108008759D01*
X137188300Y-108003451D01*
X137063300Y-108003451D01*
X137009410Y-108008759D01*
X136957592Y-108024478D01*
X136909835Y-108050004D01*
X136867977Y-108084357D01*
X136864700Y-108088350D01*
X136864700Y-107962700D01*
X137286101Y-107962700D01*
X137286101Y-108022079D01*
G37*
G04 #@! TD.AperFunction*
D25*
X139286101Y-108022079D02*
X139242190Y-108008759D01*
X139224488Y-108007015D01*
X139237931Y-107962700D01*
X139286101Y-107962700D01*
X139286101Y-108022079D01*
G04 #@! TA.AperFunction,NonConductor*
D26*
G36*
X139286101Y-108022079D02*
G01*
X139242190Y-108008759D01*
X139224488Y-108007015D01*
X139237931Y-107962700D01*
X139286101Y-107962700D01*
X139286101Y-108022079D01*
G37*
G04 #@! TD.AperFunction*
M02*
