G04 #@! TF.GenerationSoftware,KiCad,Pcbnew,5.1.10*
G04 #@! TF.CreationDate,2021-06-17T00:43:33+09:00*
G04 #@! TF.ProjectId,bakeneko40,62616b65-6e65-46b6-9f34-302e6b696361,rev?*
G04 #@! TF.SameCoordinates,Original*
G04 #@! TF.FileFunction,Soldermask,Bot*
G04 #@! TF.FilePolarity,Negative*
%FSLAX46Y46*%
G04 Gerber Fmt 4.6, Leading zero omitted, Abs format (unit mm)*
G04 Created by KiCad (PCBNEW 5.1.10) date 2021-06-17 00:43:33*
%MOMM*%
%LPD*%
G01*
G04 APERTURE LIST*
%ADD10R,3.100000X3.100000*%
%ADD11C,2.250000*%
%ADD12C,3.987800*%
%ADD13C,1.750000*%
%ADD14C,3.048000*%
%ADD15R,1.400000X1.200000*%
%ADD16R,0.650000X1.060000*%
%ADD17R,1.800000X1.100000*%
%ADD18R,0.600000X1.550000*%
%ADD19R,1.200000X1.800000*%
%ADD20R,1.200000X0.900000*%
G04 APERTURE END LIST*
D10*
G04 #@! TO.C,U1*
X138875800Y-111092180D03*
G36*
G01*
X141688300Y-112967180D02*
X140938300Y-112967180D01*
G75*
G02*
X140875800Y-112904680I0J62500D01*
G01*
X140875800Y-112779680D01*
G75*
G02*
X140938300Y-112717180I62500J0D01*
G01*
X141688300Y-112717180D01*
G75*
G02*
X141750800Y-112779680I0J-62500D01*
G01*
X141750800Y-112904680D01*
G75*
G02*
X141688300Y-112967180I-62500J0D01*
G01*
G37*
G36*
G01*
X141688300Y-112467180D02*
X140938300Y-112467180D01*
G75*
G02*
X140875800Y-112404680I0J62500D01*
G01*
X140875800Y-112279680D01*
G75*
G02*
X140938300Y-112217180I62500J0D01*
G01*
X141688300Y-112217180D01*
G75*
G02*
X141750800Y-112279680I0J-62500D01*
G01*
X141750800Y-112404680D01*
G75*
G02*
X141688300Y-112467180I-62500J0D01*
G01*
G37*
G36*
G01*
X141688300Y-111967180D02*
X140938300Y-111967180D01*
G75*
G02*
X140875800Y-111904680I0J62500D01*
G01*
X140875800Y-111779680D01*
G75*
G02*
X140938300Y-111717180I62500J0D01*
G01*
X141688300Y-111717180D01*
G75*
G02*
X141750800Y-111779680I0J-62500D01*
G01*
X141750800Y-111904680D01*
G75*
G02*
X141688300Y-111967180I-62500J0D01*
G01*
G37*
G36*
G01*
X141688300Y-111467180D02*
X140938300Y-111467180D01*
G75*
G02*
X140875800Y-111404680I0J62500D01*
G01*
X140875800Y-111279680D01*
G75*
G02*
X140938300Y-111217180I62500J0D01*
G01*
X141688300Y-111217180D01*
G75*
G02*
X141750800Y-111279680I0J-62500D01*
G01*
X141750800Y-111404680D01*
G75*
G02*
X141688300Y-111467180I-62500J0D01*
G01*
G37*
G36*
G01*
X141688300Y-110967180D02*
X140938300Y-110967180D01*
G75*
G02*
X140875800Y-110904680I0J62500D01*
G01*
X140875800Y-110779680D01*
G75*
G02*
X140938300Y-110717180I62500J0D01*
G01*
X141688300Y-110717180D01*
G75*
G02*
X141750800Y-110779680I0J-62500D01*
G01*
X141750800Y-110904680D01*
G75*
G02*
X141688300Y-110967180I-62500J0D01*
G01*
G37*
G36*
G01*
X141688300Y-110467180D02*
X140938300Y-110467180D01*
G75*
G02*
X140875800Y-110404680I0J62500D01*
G01*
X140875800Y-110279680D01*
G75*
G02*
X140938300Y-110217180I62500J0D01*
G01*
X141688300Y-110217180D01*
G75*
G02*
X141750800Y-110279680I0J-62500D01*
G01*
X141750800Y-110404680D01*
G75*
G02*
X141688300Y-110467180I-62500J0D01*
G01*
G37*
G36*
G01*
X141688300Y-109967180D02*
X140938300Y-109967180D01*
G75*
G02*
X140875800Y-109904680I0J62500D01*
G01*
X140875800Y-109779680D01*
G75*
G02*
X140938300Y-109717180I62500J0D01*
G01*
X141688300Y-109717180D01*
G75*
G02*
X141750800Y-109779680I0J-62500D01*
G01*
X141750800Y-109904680D01*
G75*
G02*
X141688300Y-109967180I-62500J0D01*
G01*
G37*
G36*
G01*
X141688300Y-109467180D02*
X140938300Y-109467180D01*
G75*
G02*
X140875800Y-109404680I0J62500D01*
G01*
X140875800Y-109279680D01*
G75*
G02*
X140938300Y-109217180I62500J0D01*
G01*
X141688300Y-109217180D01*
G75*
G02*
X141750800Y-109279680I0J-62500D01*
G01*
X141750800Y-109404680D01*
G75*
G02*
X141688300Y-109467180I-62500J0D01*
G01*
G37*
G36*
G01*
X140688300Y-109092180D02*
X140563300Y-109092180D01*
G75*
G02*
X140500800Y-109029680I0J62500D01*
G01*
X140500800Y-108279680D01*
G75*
G02*
X140563300Y-108217180I62500J0D01*
G01*
X140688300Y-108217180D01*
G75*
G02*
X140750800Y-108279680I0J-62500D01*
G01*
X140750800Y-109029680D01*
G75*
G02*
X140688300Y-109092180I-62500J0D01*
G01*
G37*
G36*
G01*
X140188300Y-109092180D02*
X140063300Y-109092180D01*
G75*
G02*
X140000800Y-109029680I0J62500D01*
G01*
X140000800Y-108279680D01*
G75*
G02*
X140063300Y-108217180I62500J0D01*
G01*
X140188300Y-108217180D01*
G75*
G02*
X140250800Y-108279680I0J-62500D01*
G01*
X140250800Y-109029680D01*
G75*
G02*
X140188300Y-109092180I-62500J0D01*
G01*
G37*
G36*
G01*
X139688300Y-109092180D02*
X139563300Y-109092180D01*
G75*
G02*
X139500800Y-109029680I0J62500D01*
G01*
X139500800Y-108279680D01*
G75*
G02*
X139563300Y-108217180I62500J0D01*
G01*
X139688300Y-108217180D01*
G75*
G02*
X139750800Y-108279680I0J-62500D01*
G01*
X139750800Y-109029680D01*
G75*
G02*
X139688300Y-109092180I-62500J0D01*
G01*
G37*
G36*
G01*
X139188300Y-109092180D02*
X139063300Y-109092180D01*
G75*
G02*
X139000800Y-109029680I0J62500D01*
G01*
X139000800Y-108279680D01*
G75*
G02*
X139063300Y-108217180I62500J0D01*
G01*
X139188300Y-108217180D01*
G75*
G02*
X139250800Y-108279680I0J-62500D01*
G01*
X139250800Y-109029680D01*
G75*
G02*
X139188300Y-109092180I-62500J0D01*
G01*
G37*
G36*
G01*
X138688300Y-109092180D02*
X138563300Y-109092180D01*
G75*
G02*
X138500800Y-109029680I0J62500D01*
G01*
X138500800Y-108279680D01*
G75*
G02*
X138563300Y-108217180I62500J0D01*
G01*
X138688300Y-108217180D01*
G75*
G02*
X138750800Y-108279680I0J-62500D01*
G01*
X138750800Y-109029680D01*
G75*
G02*
X138688300Y-109092180I-62500J0D01*
G01*
G37*
G36*
G01*
X138188300Y-109092180D02*
X138063300Y-109092180D01*
G75*
G02*
X138000800Y-109029680I0J62500D01*
G01*
X138000800Y-108279680D01*
G75*
G02*
X138063300Y-108217180I62500J0D01*
G01*
X138188300Y-108217180D01*
G75*
G02*
X138250800Y-108279680I0J-62500D01*
G01*
X138250800Y-109029680D01*
G75*
G02*
X138188300Y-109092180I-62500J0D01*
G01*
G37*
G36*
G01*
X137688300Y-109092180D02*
X137563300Y-109092180D01*
G75*
G02*
X137500800Y-109029680I0J62500D01*
G01*
X137500800Y-108279680D01*
G75*
G02*
X137563300Y-108217180I62500J0D01*
G01*
X137688300Y-108217180D01*
G75*
G02*
X137750800Y-108279680I0J-62500D01*
G01*
X137750800Y-109029680D01*
G75*
G02*
X137688300Y-109092180I-62500J0D01*
G01*
G37*
G36*
G01*
X137188300Y-109092180D02*
X137063300Y-109092180D01*
G75*
G02*
X137000800Y-109029680I0J62500D01*
G01*
X137000800Y-108279680D01*
G75*
G02*
X137063300Y-108217180I62500J0D01*
G01*
X137188300Y-108217180D01*
G75*
G02*
X137250800Y-108279680I0J-62500D01*
G01*
X137250800Y-109029680D01*
G75*
G02*
X137188300Y-109092180I-62500J0D01*
G01*
G37*
G36*
G01*
X136813300Y-109467180D02*
X136063300Y-109467180D01*
G75*
G02*
X136000800Y-109404680I0J62500D01*
G01*
X136000800Y-109279680D01*
G75*
G02*
X136063300Y-109217180I62500J0D01*
G01*
X136813300Y-109217180D01*
G75*
G02*
X136875800Y-109279680I0J-62500D01*
G01*
X136875800Y-109404680D01*
G75*
G02*
X136813300Y-109467180I-62500J0D01*
G01*
G37*
G36*
G01*
X136813300Y-109967180D02*
X136063300Y-109967180D01*
G75*
G02*
X136000800Y-109904680I0J62500D01*
G01*
X136000800Y-109779680D01*
G75*
G02*
X136063300Y-109717180I62500J0D01*
G01*
X136813300Y-109717180D01*
G75*
G02*
X136875800Y-109779680I0J-62500D01*
G01*
X136875800Y-109904680D01*
G75*
G02*
X136813300Y-109967180I-62500J0D01*
G01*
G37*
G36*
G01*
X136813300Y-110467180D02*
X136063300Y-110467180D01*
G75*
G02*
X136000800Y-110404680I0J62500D01*
G01*
X136000800Y-110279680D01*
G75*
G02*
X136063300Y-110217180I62500J0D01*
G01*
X136813300Y-110217180D01*
G75*
G02*
X136875800Y-110279680I0J-62500D01*
G01*
X136875800Y-110404680D01*
G75*
G02*
X136813300Y-110467180I-62500J0D01*
G01*
G37*
G36*
G01*
X136813300Y-110967180D02*
X136063300Y-110967180D01*
G75*
G02*
X136000800Y-110904680I0J62500D01*
G01*
X136000800Y-110779680D01*
G75*
G02*
X136063300Y-110717180I62500J0D01*
G01*
X136813300Y-110717180D01*
G75*
G02*
X136875800Y-110779680I0J-62500D01*
G01*
X136875800Y-110904680D01*
G75*
G02*
X136813300Y-110967180I-62500J0D01*
G01*
G37*
G36*
G01*
X136813300Y-111467180D02*
X136063300Y-111467180D01*
G75*
G02*
X136000800Y-111404680I0J62500D01*
G01*
X136000800Y-111279680D01*
G75*
G02*
X136063300Y-111217180I62500J0D01*
G01*
X136813300Y-111217180D01*
G75*
G02*
X136875800Y-111279680I0J-62500D01*
G01*
X136875800Y-111404680D01*
G75*
G02*
X136813300Y-111467180I-62500J0D01*
G01*
G37*
G36*
G01*
X136813300Y-111967180D02*
X136063300Y-111967180D01*
G75*
G02*
X136000800Y-111904680I0J62500D01*
G01*
X136000800Y-111779680D01*
G75*
G02*
X136063300Y-111717180I62500J0D01*
G01*
X136813300Y-111717180D01*
G75*
G02*
X136875800Y-111779680I0J-62500D01*
G01*
X136875800Y-111904680D01*
G75*
G02*
X136813300Y-111967180I-62500J0D01*
G01*
G37*
G36*
G01*
X136813300Y-112467180D02*
X136063300Y-112467180D01*
G75*
G02*
X136000800Y-112404680I0J62500D01*
G01*
X136000800Y-112279680D01*
G75*
G02*
X136063300Y-112217180I62500J0D01*
G01*
X136813300Y-112217180D01*
G75*
G02*
X136875800Y-112279680I0J-62500D01*
G01*
X136875800Y-112404680D01*
G75*
G02*
X136813300Y-112467180I-62500J0D01*
G01*
G37*
G36*
G01*
X136813300Y-112967180D02*
X136063300Y-112967180D01*
G75*
G02*
X136000800Y-112904680I0J62500D01*
G01*
X136000800Y-112779680D01*
G75*
G02*
X136063300Y-112717180I62500J0D01*
G01*
X136813300Y-112717180D01*
G75*
G02*
X136875800Y-112779680I0J-62500D01*
G01*
X136875800Y-112904680D01*
G75*
G02*
X136813300Y-112967180I-62500J0D01*
G01*
G37*
G36*
G01*
X137188300Y-113967180D02*
X137063300Y-113967180D01*
G75*
G02*
X137000800Y-113904680I0J62500D01*
G01*
X137000800Y-113154680D01*
G75*
G02*
X137063300Y-113092180I62500J0D01*
G01*
X137188300Y-113092180D01*
G75*
G02*
X137250800Y-113154680I0J-62500D01*
G01*
X137250800Y-113904680D01*
G75*
G02*
X137188300Y-113967180I-62500J0D01*
G01*
G37*
G36*
G01*
X137688300Y-113967180D02*
X137563300Y-113967180D01*
G75*
G02*
X137500800Y-113904680I0J62500D01*
G01*
X137500800Y-113154680D01*
G75*
G02*
X137563300Y-113092180I62500J0D01*
G01*
X137688300Y-113092180D01*
G75*
G02*
X137750800Y-113154680I0J-62500D01*
G01*
X137750800Y-113904680D01*
G75*
G02*
X137688300Y-113967180I-62500J0D01*
G01*
G37*
G36*
G01*
X138188300Y-113967180D02*
X138063300Y-113967180D01*
G75*
G02*
X138000800Y-113904680I0J62500D01*
G01*
X138000800Y-113154680D01*
G75*
G02*
X138063300Y-113092180I62500J0D01*
G01*
X138188300Y-113092180D01*
G75*
G02*
X138250800Y-113154680I0J-62500D01*
G01*
X138250800Y-113904680D01*
G75*
G02*
X138188300Y-113967180I-62500J0D01*
G01*
G37*
G36*
G01*
X138688300Y-113967180D02*
X138563300Y-113967180D01*
G75*
G02*
X138500800Y-113904680I0J62500D01*
G01*
X138500800Y-113154680D01*
G75*
G02*
X138563300Y-113092180I62500J0D01*
G01*
X138688300Y-113092180D01*
G75*
G02*
X138750800Y-113154680I0J-62500D01*
G01*
X138750800Y-113904680D01*
G75*
G02*
X138688300Y-113967180I-62500J0D01*
G01*
G37*
G36*
G01*
X139188300Y-113967180D02*
X139063300Y-113967180D01*
G75*
G02*
X139000800Y-113904680I0J62500D01*
G01*
X139000800Y-113154680D01*
G75*
G02*
X139063300Y-113092180I62500J0D01*
G01*
X139188300Y-113092180D01*
G75*
G02*
X139250800Y-113154680I0J-62500D01*
G01*
X139250800Y-113904680D01*
G75*
G02*
X139188300Y-113967180I-62500J0D01*
G01*
G37*
G36*
G01*
X139688300Y-113967180D02*
X139563300Y-113967180D01*
G75*
G02*
X139500800Y-113904680I0J62500D01*
G01*
X139500800Y-113154680D01*
G75*
G02*
X139563300Y-113092180I62500J0D01*
G01*
X139688300Y-113092180D01*
G75*
G02*
X139750800Y-113154680I0J-62500D01*
G01*
X139750800Y-113904680D01*
G75*
G02*
X139688300Y-113967180I-62500J0D01*
G01*
G37*
G36*
G01*
X140188300Y-113967180D02*
X140063300Y-113967180D01*
G75*
G02*
X140000800Y-113904680I0J62500D01*
G01*
X140000800Y-113154680D01*
G75*
G02*
X140063300Y-113092180I62500J0D01*
G01*
X140188300Y-113092180D01*
G75*
G02*
X140250800Y-113154680I0J-62500D01*
G01*
X140250800Y-113904680D01*
G75*
G02*
X140188300Y-113967180I-62500J0D01*
G01*
G37*
G36*
G01*
X140688300Y-113967180D02*
X140563300Y-113967180D01*
G75*
G02*
X140500800Y-113904680I0J62500D01*
G01*
X140500800Y-113154680D01*
G75*
G02*
X140563300Y-113092180I62500J0D01*
G01*
X140688300Y-113092180D01*
G75*
G02*
X140750800Y-113154680I0J-62500D01*
G01*
X140750800Y-113904680D01*
G75*
G02*
X140688300Y-113967180I-62500J0D01*
G01*
G37*
G04 #@! TD*
D11*
G04 #@! TO.C,MX45*
X163671250Y-109220000D03*
D12*
X161131250Y-114300000D03*
D11*
X157321250Y-111760000D03*
D13*
X156051250Y-114300000D03*
X166211250Y-114300000D03*
D14*
X149225000Y-121285000D03*
X173037500Y-121285000D03*
D12*
X149225000Y-106045000D03*
X173037500Y-106045000D03*
G04 #@! TD*
D11*
G04 #@! TO.C,MX44*
X116046250Y-109220000D03*
D12*
X113506250Y-114300000D03*
D11*
X109696250Y-111760000D03*
D13*
X108426250Y-114300000D03*
X118586250Y-114300000D03*
D14*
X101600000Y-121285000D03*
X125412500Y-121285000D03*
D12*
X101600000Y-106045000D03*
X125412500Y-106045000D03*
G04 #@! TD*
D11*
G04 #@! TO.C,MX32*
X118427500Y-90170000D03*
D12*
X115887500Y-95250000D03*
D11*
X112077500Y-92710000D03*
D13*
X110807500Y-95250000D03*
X120967500Y-95250000D03*
G04 #@! TD*
D11*
G04 #@! TO.C,MX41*
X30321250Y-109220000D03*
D12*
X27781250Y-114300000D03*
D11*
X23971250Y-111760000D03*
D13*
X22701250Y-114300000D03*
X32861250Y-114300000D03*
G04 #@! TD*
D11*
G04 #@! TO.C,MX49*
X275590000Y-109220000D03*
D12*
X273050000Y-114300000D03*
D11*
X269240000Y-111760000D03*
D13*
X267970000Y-114300000D03*
X278130000Y-114300000D03*
G04 #@! TD*
D11*
G04 #@! TO.C,MX21*
X147002500Y-71120000D03*
D12*
X144462500Y-76200000D03*
D11*
X140652500Y-73660000D03*
D13*
X139382500Y-76200000D03*
X149542500Y-76200000D03*
G04 #@! TD*
D11*
G04 #@! TO.C,MX35*
X175577500Y-90170000D03*
D12*
X173037500Y-95250000D03*
D11*
X169227500Y-92710000D03*
D13*
X167957500Y-95250000D03*
X178117500Y-95250000D03*
G04 #@! TD*
D11*
G04 #@! TO.C,MX14*
X275590000Y-52070000D03*
D12*
X273050000Y-57150000D03*
D11*
X269240000Y-54610000D03*
D13*
X267970000Y-57150000D03*
X278130000Y-57150000D03*
G04 #@! TD*
D11*
G04 #@! TO.C,MX3*
X66040000Y-52070000D03*
D12*
X63500000Y-57150000D03*
D11*
X59690000Y-54610000D03*
D13*
X58420000Y-57150000D03*
X68580000Y-57150000D03*
G04 #@! TD*
D11*
G04 #@! TO.C,MX30*
X80327500Y-90170000D03*
D12*
X77787500Y-95250000D03*
D11*
X73977500Y-92710000D03*
D13*
X72707500Y-95250000D03*
X82867500Y-95250000D03*
G04 #@! TD*
D11*
G04 #@! TO.C,MX42*
X56515000Y-109220000D03*
D12*
X53975000Y-114300000D03*
D11*
X50165000Y-111760000D03*
D13*
X48895000Y-114300000D03*
X59055000Y-114300000D03*
G04 #@! TD*
D15*
G04 #@! TO.C,Y1*
X137500000Y-121430077D03*
X139700000Y-121430077D03*
X139700000Y-119730077D03*
X137500000Y-119730077D03*
G04 #@! TD*
D16*
G04 #@! TO.C,U2*
X166049999Y-105534811D03*
X165099999Y-105534811D03*
X166999999Y-105534811D03*
X166999999Y-103334811D03*
X166049999Y-103334811D03*
X165099999Y-103334811D03*
G04 #@! TD*
D17*
G04 #@! TO.C,SW1*
X150887500Y-83081250D03*
X157087500Y-86781250D03*
X150887500Y-86781250D03*
X157087500Y-83081250D03*
G04 #@! TD*
G04 #@! TO.C,R4*
G36*
G01*
X138456248Y-102912500D02*
X139356252Y-102912500D01*
G75*
G02*
X139606250Y-103162498I0J-249998D01*
G01*
X139606250Y-103687502D01*
G75*
G02*
X139356252Y-103937500I-249998J0D01*
G01*
X138456248Y-103937500D01*
G75*
G02*
X138206250Y-103687502I0J249998D01*
G01*
X138206250Y-103162498D01*
G75*
G02*
X138456248Y-102912500I249998J0D01*
G01*
G37*
G36*
G01*
X138456248Y-101087500D02*
X139356252Y-101087500D01*
G75*
G02*
X139606250Y-101337498I0J-249998D01*
G01*
X139606250Y-101862502D01*
G75*
G02*
X139356252Y-102112500I-249998J0D01*
G01*
X138456248Y-102112500D01*
G75*
G02*
X138206250Y-101862502I0J249998D01*
G01*
X138206250Y-101337498D01*
G75*
G02*
X138456248Y-101087500I249998J0D01*
G01*
G37*
G04 #@! TD*
G04 #@! TO.C,R3*
G36*
G01*
X158356250Y-106018752D02*
X158356250Y-105118748D01*
G75*
G02*
X158606248Y-104868750I249998J0D01*
G01*
X159131252Y-104868750D01*
G75*
G02*
X159381250Y-105118748I0J-249998D01*
G01*
X159381250Y-106018752D01*
G75*
G02*
X159131252Y-106268750I-249998J0D01*
G01*
X158606248Y-106268750D01*
G75*
G02*
X158356250Y-106018752I0J249998D01*
G01*
G37*
G36*
G01*
X156531250Y-106018752D02*
X156531250Y-105118748D01*
G75*
G02*
X156781248Y-104868750I249998J0D01*
G01*
X157306252Y-104868750D01*
G75*
G02*
X157556250Y-105118748I0J-249998D01*
G01*
X157556250Y-106018752D01*
G75*
G02*
X157306252Y-106268750I-249998J0D01*
G01*
X156781248Y-106268750D01*
G75*
G02*
X156531250Y-106018752I0J249998D01*
G01*
G37*
G04 #@! TD*
G04 #@! TO.C,R2*
G36*
G01*
X158356250Y-103637502D02*
X158356250Y-102737498D01*
G75*
G02*
X158606248Y-102487500I249998J0D01*
G01*
X159131252Y-102487500D01*
G75*
G02*
X159381250Y-102737498I0J-249998D01*
G01*
X159381250Y-103637502D01*
G75*
G02*
X159131252Y-103887500I-249998J0D01*
G01*
X158606248Y-103887500D01*
G75*
G02*
X158356250Y-103637502I0J249998D01*
G01*
G37*
G36*
G01*
X156531250Y-103637502D02*
X156531250Y-102737498D01*
G75*
G02*
X156781248Y-102487500I249998J0D01*
G01*
X157306252Y-102487500D01*
G75*
G02*
X157556250Y-102737498I0J-249998D01*
G01*
X157556250Y-103637502D01*
G75*
G02*
X157306252Y-103887500I-249998J0D01*
G01*
X156781248Y-103887500D01*
G75*
G02*
X156531250Y-103637502I0J249998D01*
G01*
G37*
G04 #@! TD*
G04 #@! TO.C,R1*
G36*
G01*
X131250000Y-106812502D02*
X131250000Y-105912498D01*
G75*
G02*
X131499998Y-105662500I249998J0D01*
G01*
X132025002Y-105662500D01*
G75*
G02*
X132275000Y-105912498I0J-249998D01*
G01*
X132275000Y-106812502D01*
G75*
G02*
X132025002Y-107062500I-249998J0D01*
G01*
X131499998Y-107062500D01*
G75*
G02*
X131250000Y-106812502I0J249998D01*
G01*
G37*
G36*
G01*
X129425000Y-106812502D02*
X129425000Y-105912498D01*
G75*
G02*
X129674998Y-105662500I249998J0D01*
G01*
X130200002Y-105662500D01*
G75*
G02*
X130450000Y-105912498I0J-249998D01*
G01*
X130450000Y-106812502D01*
G75*
G02*
X130200002Y-107062500I-249998J0D01*
G01*
X129674998Y-107062500D01*
G75*
G02*
X129425000Y-106812502I0J249998D01*
G01*
G37*
G04 #@! TD*
D11*
G04 #@! TO.C,MX48*
X254158750Y-109220000D03*
D12*
X251618750Y-114300000D03*
D11*
X247808750Y-111760000D03*
D13*
X246538750Y-114300000D03*
X256698750Y-114300000D03*
G04 #@! TD*
D11*
G04 #@! TO.C,MX47*
X227965000Y-109220000D03*
D12*
X225425000Y-114300000D03*
D11*
X221615000Y-111760000D03*
D13*
X220345000Y-114300000D03*
X230505000Y-114300000D03*
G04 #@! TD*
D11*
G04 #@! TO.C,MX46*
X201771250Y-109220000D03*
D12*
X199231250Y-114300000D03*
D11*
X195421250Y-111760000D03*
D13*
X194151250Y-114300000D03*
X204311250Y-114300000D03*
G04 #@! TD*
D11*
G04 #@! TO.C,MX43*
X82708750Y-109220000D03*
D12*
X80168750Y-114300000D03*
D11*
X76358750Y-111760000D03*
D13*
X75088750Y-114300000D03*
X85248750Y-114300000D03*
G04 #@! TD*
D11*
G04 #@! TO.C,MX40*
X275590000Y-90170000D03*
D12*
X273050000Y-95250000D03*
D11*
X269240000Y-92710000D03*
D13*
X267970000Y-95250000D03*
X278130000Y-95250000D03*
G04 #@! TD*
D11*
G04 #@! TO.C,MX39*
X254158750Y-90170000D03*
D12*
X251618750Y-95250000D03*
D11*
X247808750Y-92710000D03*
D13*
X246538750Y-95250000D03*
X256698750Y-95250000D03*
G04 #@! TD*
D11*
G04 #@! TO.C,MX38*
X232727500Y-90170000D03*
D12*
X230187500Y-95250000D03*
D11*
X226377500Y-92710000D03*
D13*
X225107500Y-95250000D03*
X235267500Y-95250000D03*
G04 #@! TD*
D11*
G04 #@! TO.C,MX37*
X213677500Y-90170000D03*
D12*
X211137500Y-95250000D03*
D11*
X207327500Y-92710000D03*
D13*
X206057500Y-95250000D03*
X216217500Y-95250000D03*
G04 #@! TD*
D11*
G04 #@! TO.C,MX36*
X194627500Y-90170000D03*
D12*
X192087500Y-95250000D03*
D11*
X188277500Y-92710000D03*
D13*
X187007500Y-95250000D03*
X197167500Y-95250000D03*
G04 #@! TD*
D11*
G04 #@! TO.C,MX34*
X156527500Y-90170000D03*
D12*
X153987500Y-95250000D03*
D11*
X150177500Y-92710000D03*
D13*
X148907500Y-95250000D03*
X159067500Y-95250000D03*
G04 #@! TD*
D11*
G04 #@! TO.C,MX33*
X137477500Y-90170000D03*
D12*
X134937500Y-95250000D03*
D11*
X131127500Y-92710000D03*
D13*
X129857500Y-95250000D03*
X140017500Y-95250000D03*
G04 #@! TD*
D11*
G04 #@! TO.C,MX31*
X99377500Y-90170000D03*
D12*
X96837500Y-95250000D03*
D11*
X93027500Y-92710000D03*
D13*
X91757500Y-95250000D03*
X101917500Y-95250000D03*
G04 #@! TD*
D11*
G04 #@! TO.C,MX29*
X61277500Y-90170000D03*
D12*
X58737500Y-95250000D03*
D11*
X54927500Y-92710000D03*
D13*
X53657500Y-95250000D03*
X63817500Y-95250000D03*
G04 #@! TD*
D11*
G04 #@! TO.C,MX28*
X35083750Y-90170000D03*
D12*
X32543750Y-95250000D03*
D11*
X28733750Y-92710000D03*
D13*
X27463750Y-95250000D03*
X37623750Y-95250000D03*
G04 #@! TD*
D11*
G04 #@! TO.C,MX27*
X268446250Y-71120000D03*
D12*
X265906250Y-76200000D03*
D11*
X262096250Y-73660000D03*
D13*
X260826250Y-76200000D03*
X270986250Y-76200000D03*
G04 #@! TD*
D11*
G04 #@! TO.C,MX26*
X242252500Y-71120000D03*
D12*
X239712500Y-76200000D03*
D11*
X235902500Y-73660000D03*
D13*
X234632500Y-76200000D03*
X244792500Y-76200000D03*
G04 #@! TD*
D11*
G04 #@! TO.C,MX25*
X223202500Y-71120000D03*
D12*
X220662500Y-76200000D03*
D11*
X216852500Y-73660000D03*
D13*
X215582500Y-76200000D03*
X225742500Y-76200000D03*
G04 #@! TD*
D11*
G04 #@! TO.C,MX24*
X204152500Y-71120000D03*
D12*
X201612500Y-76200000D03*
D11*
X197802500Y-73660000D03*
D13*
X196532500Y-76200000D03*
X206692500Y-76200000D03*
G04 #@! TD*
D11*
G04 #@! TO.C,MX23*
X185102500Y-71120000D03*
D12*
X182562500Y-76200000D03*
D11*
X178752500Y-73660000D03*
D13*
X177482500Y-76200000D03*
X187642500Y-76200000D03*
G04 #@! TD*
D11*
G04 #@! TO.C,MX22*
X166052500Y-71120000D03*
D12*
X163512500Y-76200000D03*
D11*
X159702500Y-73660000D03*
D13*
X158432500Y-76200000D03*
X168592500Y-76200000D03*
G04 #@! TD*
D11*
G04 #@! TO.C,MX20*
X127952500Y-71120000D03*
D12*
X125412500Y-76200000D03*
D11*
X121602500Y-73660000D03*
D13*
X120332500Y-76200000D03*
X130492500Y-76200000D03*
G04 #@! TD*
D11*
G04 #@! TO.C,MX19*
X108902500Y-71120000D03*
D12*
X106362500Y-76200000D03*
D11*
X102552500Y-73660000D03*
D13*
X101282500Y-76200000D03*
X111442500Y-76200000D03*
G04 #@! TD*
D11*
G04 #@! TO.C,MX18*
X89852500Y-71120000D03*
D12*
X87312500Y-76200000D03*
D11*
X83502500Y-73660000D03*
D13*
X82232500Y-76200000D03*
X92392500Y-76200000D03*
G04 #@! TD*
D11*
G04 #@! TO.C,MX17*
X70802500Y-71120000D03*
D12*
X68262500Y-76200000D03*
D11*
X64452500Y-73660000D03*
D13*
X63182500Y-76200000D03*
X73342500Y-76200000D03*
G04 #@! TD*
D11*
G04 #@! TO.C,MX16*
X51752500Y-71120000D03*
D12*
X49212500Y-76200000D03*
D11*
X45402500Y-73660000D03*
D13*
X44132500Y-76200000D03*
X54292500Y-76200000D03*
G04 #@! TD*
D11*
G04 #@! TO.C,MX15*
X30321250Y-71120000D03*
D12*
X27781250Y-76200000D03*
D11*
X23971250Y-73660000D03*
D13*
X22701250Y-76200000D03*
X32861250Y-76200000D03*
G04 #@! TD*
D11*
G04 #@! TO.C,MX13*
X256540000Y-52070000D03*
D12*
X254000000Y-57150000D03*
D11*
X250190000Y-54610000D03*
D13*
X248920000Y-57150000D03*
X259080000Y-57150000D03*
G04 #@! TD*
D11*
G04 #@! TO.C,MX12*
X237490000Y-52070000D03*
D12*
X234950000Y-57150000D03*
D11*
X231140000Y-54610000D03*
D13*
X229870000Y-57150000D03*
X240030000Y-57150000D03*
G04 #@! TD*
D11*
G04 #@! TO.C,MX11*
X218440000Y-52070000D03*
D12*
X215900000Y-57150000D03*
D11*
X212090000Y-54610000D03*
D13*
X210820000Y-57150000D03*
X220980000Y-57150000D03*
G04 #@! TD*
D11*
G04 #@! TO.C,MX10*
X199390000Y-52070000D03*
D12*
X196850000Y-57150000D03*
D11*
X193040000Y-54610000D03*
D13*
X191770000Y-57150000D03*
X201930000Y-57150000D03*
G04 #@! TD*
D11*
G04 #@! TO.C,MX9*
X180340000Y-52070000D03*
D12*
X177800000Y-57150000D03*
D11*
X173990000Y-54610000D03*
D13*
X172720000Y-57150000D03*
X182880000Y-57150000D03*
G04 #@! TD*
D11*
G04 #@! TO.C,MX8*
X161290000Y-52070000D03*
D12*
X158750000Y-57150000D03*
D11*
X154940000Y-54610000D03*
D13*
X153670000Y-57150000D03*
X163830000Y-57150000D03*
G04 #@! TD*
D11*
G04 #@! TO.C,MX7*
X142240000Y-52070000D03*
D12*
X139700000Y-57150000D03*
D11*
X135890000Y-54610000D03*
D13*
X134620000Y-57150000D03*
X144780000Y-57150000D03*
G04 #@! TD*
D11*
G04 #@! TO.C,MX6*
X123190000Y-52070000D03*
D12*
X120650000Y-57150000D03*
D11*
X116840000Y-54610000D03*
D13*
X115570000Y-57150000D03*
X125730000Y-57150000D03*
G04 #@! TD*
D11*
G04 #@! TO.C,MX5*
X104140000Y-52070000D03*
D12*
X101600000Y-57150000D03*
D11*
X97790000Y-54610000D03*
D13*
X96520000Y-57150000D03*
X106680000Y-57150000D03*
G04 #@! TD*
D11*
G04 #@! TO.C,MX4*
X85090000Y-52070000D03*
D12*
X82550000Y-57150000D03*
D11*
X78740000Y-54610000D03*
D13*
X77470000Y-57150000D03*
X87630000Y-57150000D03*
G04 #@! TD*
D11*
G04 #@! TO.C,MX2*
X46990000Y-52070000D03*
D12*
X44450000Y-57150000D03*
D11*
X40640000Y-54610000D03*
D13*
X39370000Y-57150000D03*
X49530000Y-57150000D03*
G04 #@! TD*
D11*
G04 #@! TO.C,MX1*
X27940000Y-52070000D03*
D12*
X25400000Y-57150000D03*
D11*
X21590000Y-54610000D03*
D13*
X20320000Y-57150000D03*
X30480000Y-57150000D03*
G04 #@! TD*
D18*
G04 #@! TO.C,J1*
X182268750Y-106375000D03*
X183268750Y-106375000D03*
X181268750Y-106375000D03*
X180268750Y-106375000D03*
D19*
X178968750Y-102500000D03*
X184568750Y-102500000D03*
G04 #@! TD*
G04 #@! TO.C,F1*
G36*
G01*
X163681250Y-101431250D02*
X163681250Y-100181250D01*
G75*
G02*
X163931250Y-99931250I250000J0D01*
G01*
X164681250Y-99931250D01*
G75*
G02*
X164931250Y-100181250I0J-250000D01*
G01*
X164931250Y-101431250D01*
G75*
G02*
X164681250Y-101681250I-250000J0D01*
G01*
X163931250Y-101681250D01*
G75*
G02*
X163681250Y-101431250I0J250000D01*
G01*
G37*
G36*
G01*
X160881250Y-101431250D02*
X160881250Y-100181250D01*
G75*
G02*
X161131250Y-99931250I250000J0D01*
G01*
X161881250Y-99931250D01*
G75*
G02*
X162131250Y-100181250I0J-250000D01*
G01*
X162131250Y-101431250D01*
G75*
G02*
X161881250Y-101681250I-250000J0D01*
G01*
X161131250Y-101681250D01*
G75*
G02*
X160881250Y-101431250I0J250000D01*
G01*
G37*
G04 #@! TD*
D20*
G04 #@! TO.C,D49*
X280987500Y-112650000D03*
X280987500Y-115950000D03*
G04 #@! TD*
G04 #@! TO.C,D48*
X259556250Y-112650000D03*
X259556250Y-115950000D03*
G04 #@! TD*
G04 #@! TO.C,D47*
X233362500Y-112650000D03*
X233362500Y-115950000D03*
G04 #@! TD*
G04 #@! TO.C,D46*
X207168750Y-112650000D03*
X207168750Y-115950000D03*
G04 #@! TD*
G04 #@! TO.C,D45*
X169068750Y-112650000D03*
X169068750Y-115950000D03*
G04 #@! TD*
G04 #@! TO.C,D44*
X121443750Y-112650000D03*
X121443750Y-115950000D03*
G04 #@! TD*
G04 #@! TO.C,D43*
X88106250Y-112650000D03*
X88106250Y-115950000D03*
G04 #@! TD*
G04 #@! TO.C,D42*
X61912500Y-112650000D03*
X61912500Y-115950000D03*
G04 #@! TD*
G04 #@! TO.C,D41*
X35718750Y-112650000D03*
X35718750Y-115950000D03*
G04 #@! TD*
G04 #@! TO.C,D40*
X280987500Y-93600000D03*
X280987500Y-96900000D03*
G04 #@! TD*
G04 #@! TO.C,D39*
X259556250Y-93600000D03*
X259556250Y-96900000D03*
G04 #@! TD*
G04 #@! TO.C,D38*
X238125000Y-93600000D03*
X238125000Y-96900000D03*
G04 #@! TD*
G04 #@! TO.C,D37*
X219075000Y-93600000D03*
X219075000Y-96900000D03*
G04 #@! TD*
G04 #@! TO.C,D36*
X200025000Y-93600000D03*
X200025000Y-96900000D03*
G04 #@! TD*
G04 #@! TO.C,D35*
X180975000Y-93600000D03*
X180975000Y-96900000D03*
G04 #@! TD*
G04 #@! TO.C,D34*
X161925000Y-93600000D03*
X161925000Y-96900000D03*
G04 #@! TD*
G04 #@! TO.C,D33*
X142875000Y-93600000D03*
X142875000Y-96900000D03*
G04 #@! TD*
G04 #@! TO.C,D32*
X123825000Y-93600000D03*
X123825000Y-96900000D03*
G04 #@! TD*
G04 #@! TO.C,D31*
X104775000Y-93600000D03*
X104775000Y-96900000D03*
G04 #@! TD*
G04 #@! TO.C,D30*
X85725000Y-93600000D03*
X85725000Y-96900000D03*
G04 #@! TD*
G04 #@! TO.C,D29*
X66675000Y-93600000D03*
X66675000Y-96900000D03*
G04 #@! TD*
G04 #@! TO.C,D28*
X40481250Y-93600000D03*
X40481250Y-96900000D03*
G04 #@! TD*
G04 #@! TO.C,D27*
X273843750Y-74550000D03*
X273843750Y-77850000D03*
G04 #@! TD*
G04 #@! TO.C,D26*
X247650000Y-74550000D03*
X247650000Y-77850000D03*
G04 #@! TD*
G04 #@! TO.C,D25*
X228600000Y-74550000D03*
X228600000Y-77850000D03*
G04 #@! TD*
G04 #@! TO.C,D24*
X209550000Y-74550000D03*
X209550000Y-77850000D03*
G04 #@! TD*
G04 #@! TO.C,D23*
X190500000Y-74550000D03*
X190500000Y-77850000D03*
G04 #@! TD*
G04 #@! TO.C,D22*
X171450000Y-74550000D03*
X171450000Y-77850000D03*
G04 #@! TD*
G04 #@! TO.C,D21*
X152400000Y-74550000D03*
X152400000Y-77850000D03*
G04 #@! TD*
G04 #@! TO.C,D20*
X133350000Y-74550000D03*
X133350000Y-77850000D03*
G04 #@! TD*
G04 #@! TO.C,D19*
X114300000Y-74550000D03*
X114300000Y-77850000D03*
G04 #@! TD*
G04 #@! TO.C,D18*
X95250000Y-74550000D03*
X95250000Y-77850000D03*
G04 #@! TD*
G04 #@! TO.C,D17*
X76200000Y-74550000D03*
X76200000Y-77850000D03*
G04 #@! TD*
G04 #@! TO.C,D16*
X57150000Y-74550000D03*
X57150000Y-77850000D03*
G04 #@! TD*
G04 #@! TO.C,D15*
X35718750Y-74550000D03*
X35718750Y-77850000D03*
G04 #@! TD*
G04 #@! TO.C,D14*
X280987500Y-55500000D03*
X280987500Y-58800000D03*
G04 #@! TD*
G04 #@! TO.C,D13*
X261937500Y-55500000D03*
X261937500Y-58800000D03*
G04 #@! TD*
G04 #@! TO.C,D12*
X242887500Y-55500000D03*
X242887500Y-58800000D03*
G04 #@! TD*
G04 #@! TO.C,D11*
X223837500Y-55500000D03*
X223837500Y-58800000D03*
G04 #@! TD*
G04 #@! TO.C,D10*
X204787500Y-55500000D03*
X204787500Y-58800000D03*
G04 #@! TD*
G04 #@! TO.C,D9*
X185737500Y-55500000D03*
X185737500Y-58800000D03*
G04 #@! TD*
G04 #@! TO.C,D8*
X166687500Y-55500000D03*
X166687500Y-58800000D03*
G04 #@! TD*
G04 #@! TO.C,D7*
X147637500Y-55500000D03*
X147637500Y-58800000D03*
G04 #@! TD*
G04 #@! TO.C,D6*
X128587500Y-55500000D03*
X128587500Y-58800000D03*
G04 #@! TD*
G04 #@! TO.C,D5*
X109537500Y-55500000D03*
X109537500Y-58800000D03*
G04 #@! TD*
G04 #@! TO.C,D4*
X90487500Y-55500000D03*
X90487500Y-58800000D03*
G04 #@! TD*
G04 #@! TO.C,D3*
X71437500Y-55500000D03*
X71437500Y-58800000D03*
G04 #@! TD*
G04 #@! TO.C,D2*
X52387500Y-55500000D03*
X52387500Y-58800000D03*
G04 #@! TD*
G04 #@! TO.C,D1*
X33337500Y-55500000D03*
X33337500Y-58800000D03*
G04 #@! TD*
G04 #@! TO.C,C7*
G36*
G01*
X141606250Y-121100000D02*
X142556250Y-121100000D01*
G75*
G02*
X142806250Y-121350000I0J-250000D01*
G01*
X142806250Y-121850000D01*
G75*
G02*
X142556250Y-122100000I-250000J0D01*
G01*
X141606250Y-122100000D01*
G75*
G02*
X141356250Y-121850000I0J250000D01*
G01*
X141356250Y-121350000D01*
G75*
G02*
X141606250Y-121100000I250000J0D01*
G01*
G37*
G36*
G01*
X141606250Y-119200000D02*
X142556250Y-119200000D01*
G75*
G02*
X142806250Y-119450000I0J-250000D01*
G01*
X142806250Y-119950000D01*
G75*
G02*
X142556250Y-120200000I-250000J0D01*
G01*
X141606250Y-120200000D01*
G75*
G02*
X141356250Y-119950000I0J250000D01*
G01*
X141356250Y-119450000D01*
G75*
G02*
X141606250Y-119200000I250000J0D01*
G01*
G37*
G04 #@! TD*
G04 #@! TO.C,C6*
G36*
G01*
X143987500Y-121100000D02*
X144937500Y-121100000D01*
G75*
G02*
X145187500Y-121350000I0J-250000D01*
G01*
X145187500Y-121850000D01*
G75*
G02*
X144937500Y-122100000I-250000J0D01*
G01*
X143987500Y-122100000D01*
G75*
G02*
X143737500Y-121850000I0J250000D01*
G01*
X143737500Y-121350000D01*
G75*
G02*
X143987500Y-121100000I250000J0D01*
G01*
G37*
G36*
G01*
X143987500Y-119200000D02*
X144937500Y-119200000D01*
G75*
G02*
X145187500Y-119450000I0J-250000D01*
G01*
X145187500Y-119950000D01*
G75*
G02*
X144937500Y-120200000I-250000J0D01*
G01*
X143987500Y-120200000D01*
G75*
G02*
X143737500Y-119950000I0J250000D01*
G01*
X143737500Y-119450000D01*
G75*
G02*
X143987500Y-119200000I250000J0D01*
G01*
G37*
G04 #@! TD*
G04 #@! TO.C,C5*
G36*
G01*
X151156250Y-101918750D02*
X151156250Y-102868750D01*
G75*
G02*
X150906250Y-103118750I-250000J0D01*
G01*
X150406250Y-103118750D01*
G75*
G02*
X150156250Y-102868750I0J250000D01*
G01*
X150156250Y-101918750D01*
G75*
G02*
X150406250Y-101668750I250000J0D01*
G01*
X150906250Y-101668750D01*
G75*
G02*
X151156250Y-101918750I0J-250000D01*
G01*
G37*
G36*
G01*
X153056250Y-101918750D02*
X153056250Y-102868750D01*
G75*
G02*
X152806250Y-103118750I-250000J0D01*
G01*
X152306250Y-103118750D01*
G75*
G02*
X152056250Y-102868750I0J250000D01*
G01*
X152056250Y-101918750D01*
G75*
G02*
X152306250Y-101668750I250000J0D01*
G01*
X152806250Y-101668750D01*
G75*
G02*
X153056250Y-101918750I0J-250000D01*
G01*
G37*
G04 #@! TD*
G04 #@! TO.C,C4*
G36*
G01*
X152509657Y-117625476D02*
X152509657Y-116675476D01*
G75*
G02*
X152759657Y-116425476I250000J0D01*
G01*
X153259657Y-116425476D01*
G75*
G02*
X153509657Y-116675476I0J-250000D01*
G01*
X153509657Y-117625476D01*
G75*
G02*
X153259657Y-117875476I-250000J0D01*
G01*
X152759657Y-117875476D01*
G75*
G02*
X152509657Y-117625476I0J250000D01*
G01*
G37*
G36*
G01*
X150609657Y-117625476D02*
X150609657Y-116675476D01*
G75*
G02*
X150859657Y-116425476I250000J0D01*
G01*
X151359657Y-116425476D01*
G75*
G02*
X151609657Y-116675476I0J-250000D01*
G01*
X151609657Y-117625476D01*
G75*
G02*
X151359657Y-117875476I-250000J0D01*
G01*
X150859657Y-117875476D01*
G75*
G02*
X150609657Y-117625476I0J250000D01*
G01*
G37*
G04 #@! TD*
G04 #@! TO.C,C3*
G36*
G01*
X148725000Y-116362500D02*
X148725000Y-115412500D01*
G75*
G02*
X148975000Y-115162500I250000J0D01*
G01*
X149475000Y-115162500D01*
G75*
G02*
X149725000Y-115412500I0J-250000D01*
G01*
X149725000Y-116362500D01*
G75*
G02*
X149475000Y-116612500I-250000J0D01*
G01*
X148975000Y-116612500D01*
G75*
G02*
X148725000Y-116362500I0J250000D01*
G01*
G37*
G36*
G01*
X146825000Y-116362500D02*
X146825000Y-115412500D01*
G75*
G02*
X147075000Y-115162500I250000J0D01*
G01*
X147575000Y-115162500D01*
G75*
G02*
X147825000Y-115412500I0J-250000D01*
G01*
X147825000Y-116362500D01*
G75*
G02*
X147575000Y-116612500I-250000J0D01*
G01*
X147075000Y-116612500D01*
G75*
G02*
X146825000Y-116362500I0J250000D01*
G01*
G37*
G04 #@! TD*
G04 #@! TO.C,C2*
G36*
G01*
X131950000Y-119381250D02*
X131950000Y-120331250D01*
G75*
G02*
X131700000Y-120581250I-250000J0D01*
G01*
X131200000Y-120581250D01*
G75*
G02*
X130950000Y-120331250I0J250000D01*
G01*
X130950000Y-119381250D01*
G75*
G02*
X131200000Y-119131250I250000J0D01*
G01*
X131700000Y-119131250D01*
G75*
G02*
X131950000Y-119381250I0J-250000D01*
G01*
G37*
G36*
G01*
X133850000Y-119381250D02*
X133850000Y-120331250D01*
G75*
G02*
X133600000Y-120581250I-250000J0D01*
G01*
X133100000Y-120581250D01*
G75*
G02*
X132850000Y-120331250I0J250000D01*
G01*
X132850000Y-119381250D01*
G75*
G02*
X133100000Y-119131250I250000J0D01*
G01*
X133600000Y-119131250D01*
G75*
G02*
X133850000Y-119381250I0J-250000D01*
G01*
G37*
G04 #@! TD*
G04 #@! TO.C,C1*
G36*
G01*
X146525000Y-105912500D02*
X145575000Y-105912500D01*
G75*
G02*
X145325000Y-105662500I0J250000D01*
G01*
X145325000Y-105162500D01*
G75*
G02*
X145575000Y-104912500I250000J0D01*
G01*
X146525000Y-104912500D01*
G75*
G02*
X146775000Y-105162500I0J-250000D01*
G01*
X146775000Y-105662500D01*
G75*
G02*
X146525000Y-105912500I-250000J0D01*
G01*
G37*
G36*
G01*
X146525000Y-107812500D02*
X145575000Y-107812500D01*
G75*
G02*
X145325000Y-107562500I0J250000D01*
G01*
X145325000Y-107062500D01*
G75*
G02*
X145575000Y-106812500I250000J0D01*
G01*
X146525000Y-106812500D01*
G75*
G02*
X146775000Y-107062500I0J-250000D01*
G01*
X146775000Y-107562500D01*
G75*
G02*
X146525000Y-107812500I-250000J0D01*
G01*
G37*
G04 #@! TD*
M02*
