M48
; DRILL file {KiCad 5.1.10} date Thu Jun 17 00:43:36 2021
; FORMAT={-:-/ absolute / inch / decimal}
; #@! TF.CreationDate,2021-06-17T00:43:36+09:00
; #@! TF.GenerationSoftware,Kicad,Pcbnew,5.1.10
; #@! TF.FileFunction,Plated,1,2,PTH
FMAT,2
INCH
T1C0.0157
T2C0.0394
T3C0.0579
%
G90
G05
T1
X4.4688Y-4.125
X4.5Y-4.0938
X4.9688Y-3.8438
X5.0325Y-2.345
X5.0625Y-4.5938
X5.1373Y-4.0123
X5.1562Y-4.125
X5.1875Y-4.375
X5.1875Y-4.7812
X5.2188Y-4.4062
X5.2188Y-4.5625
X5.25Y-4.2188
X5.25Y-4.6562
X5.2812Y-4.2812
X5.3438Y-4.5938
X5.375Y-3.0938
X5.375Y-4.2188
X5.375Y-4.5625
X5.4062Y-4.1875
X5.4375Y-4.1562
X5.4375Y-4.5625
X5.4688Y-4.125
X5.5Y-4.1875
X5.56Y-4.6538
X5.5891Y-4.2454
X5.5938Y-4.1562
X5.6562Y-4.0625
X5.6562Y-4.5938
X5.6875Y-3.3348
X5.6875Y-4.1875
X5.6875Y-4.375
X5.7188Y-4.4062
X5.7188Y-4.5312
X5.75Y-3.8438
X5.75Y-3.9688
X5.75Y-4.4375
X5.7812Y-4.4062
X5.7859Y-4.3079
X5.8125Y-3.8438
X5.875Y-3.125
X5.875Y-3.8438
X5.9Y-4.4
X5.9688Y-3.9375
X6.0Y-4.7188
X6.0312Y-3.9375
X6.0938Y-4.5501
X6.125Y-4.2812
X6.3137Y-3.8762
X6.5312Y-3.6562
X6.5938Y-3.9688
X7.0Y-4.1875
T2
X3.75Y-4.2812
X3.75Y-4.3812
X3.75Y-4.4813
X3.85Y-4.2812
X3.85Y-4.3812
X3.85Y-4.4813
T3
X0.85Y-2.15
X0.9437Y-2.9
X0.9437Y-4.4
X1.1Y-2.05
X1.1312Y-3.65
X1.1937Y-2.8
X1.1937Y-4.3
X1.3812Y-3.55
X1.6Y-2.15
X1.7875Y-2.9
X1.85Y-2.05
X1.975Y-4.4
X2.0375Y-2.8
X2.1625Y-3.65
X2.225Y-4.3
X2.35Y-2.15
X2.4125Y-3.55
X2.5375Y-2.9
X2.6Y-2.05
X2.7875Y-2.8
X2.9125Y-3.65
X3.0063Y-4.4
X3.1Y-2.15
X3.1625Y-3.55
X3.2563Y-4.3
X3.2875Y-2.9
X3.35Y-2.05
X3.5375Y-2.8
X3.6625Y-3.65
X3.85Y-2.15
X3.9125Y-3.55
X4.0375Y-2.9
X4.1Y-2.05
X4.2875Y-2.8
X4.3187Y-4.4
X4.4125Y-3.65
X4.5687Y-4.3
X4.6Y-2.15
X4.6625Y-3.55
X4.7875Y-2.9
X4.85Y-2.05
X5.0375Y-2.8
X5.1625Y-3.65
X5.35Y-2.15
X5.4125Y-3.55
X5.5375Y-2.9
X5.6Y-2.05
X5.7875Y-2.8
X5.9125Y-3.65
X6.1Y-2.15
X6.1625Y-3.55
X6.1937Y-4.4
X6.2875Y-2.9
X6.35Y-2.05
X6.4437Y-4.3
X6.5375Y-2.8
X6.6625Y-3.65
X6.85Y-2.15
X6.9125Y-3.55
X7.0375Y-2.9
X7.1Y-2.05
X7.2875Y-2.8
X7.4125Y-3.65
X7.6Y-2.15
X7.6625Y-3.55
X7.6937Y-4.4
X7.7875Y-2.9
X7.85Y-2.05
X7.9437Y-4.3
X8.0375Y-2.8
X8.1625Y-3.65
X8.35Y-2.15
X8.4125Y-3.55
X8.5375Y-2.9
X8.6Y-2.05
X8.725Y-4.4
X8.7875Y-2.8
X8.9125Y-3.65
X8.975Y-4.3
X9.1Y-2.15
X9.1625Y-3.55
X9.2875Y-2.9
X9.35Y-2.05
X9.5375Y-2.8
X9.7562Y-3.65
X9.7562Y-4.4
X9.85Y-2.15
X10.0062Y-3.55
X10.0062Y-4.3
X10.1Y-2.05
X10.3187Y-2.9
X10.5687Y-2.8
X10.6Y-2.15
X10.6Y-3.65
X10.6Y-4.4
X10.85Y-2.05
X10.85Y-3.55
X10.85Y-4.3
T0
M30
