G04 #@! TF.GenerationSoftware,KiCad,Pcbnew,5.1.10*
G04 #@! TF.CreationDate,2021-06-17T00:43:33+09:00*
G04 #@! TF.ProjectId,bakeneko40,62616b65-6e65-46b6-9f34-302e6b696361,rev?*
G04 #@! TF.SameCoordinates,Original*
G04 #@! TF.FileFunction,Legend,Bot*
G04 #@! TF.FilePolarity,Positive*
%FSLAX46Y46*%
G04 Gerber Fmt 4.6, Leading zero omitted, Abs format (unit mm)*
G04 Created by KiCad (PCBNEW 5.1.10) date 2021-06-17 00:43:33*
%MOMM*%
%LPD*%
G01*
G04 APERTURE LIST*
%ADD10C,0.120000*%
%ADD11C,0.150000*%
%ADD12R,3.100000X3.100000*%
%ADD13C,2.250000*%
%ADD14C,3.987800*%
%ADD15C,1.750000*%
%ADD16C,3.048000*%
%ADD17R,1.400000X1.200000*%
%ADD18R,0.650000X1.060000*%
%ADD19R,1.800000X1.100000*%
%ADD20R,0.600000X1.550000*%
%ADD21R,1.200000X1.800000*%
%ADD22R,1.200000X0.900000*%
G04 APERTURE END LIST*
D10*
G04 #@! TO.C,U1*
X141485800Y-108957180D02*
X141485800Y-108482180D01*
X141485800Y-108482180D02*
X141010800Y-108482180D01*
X136265800Y-113227180D02*
X136265800Y-113702180D01*
X136265800Y-113702180D02*
X136740800Y-113702180D01*
X136265800Y-108957180D02*
X136265800Y-108482180D01*
X136265800Y-108482180D02*
X136740800Y-108482180D01*
X141485800Y-113227180D02*
X141485800Y-113702180D01*
G04 #@! TO.C,Y1*
X136600000Y-122230077D02*
X136600000Y-118930077D01*
X136600000Y-118930077D02*
X140600000Y-118930077D01*
G04 #@! TO.C,U2*
X167659999Y-103534811D02*
X167659999Y-105334811D01*
X164439999Y-105334811D02*
X164439999Y-102884811D01*
D11*
G04 #@! TO.C,SW1*
X154987500Y-84931250D02*
G75*
G03*
X154987500Y-84931250I-1000000J0D01*
G01*
X151387500Y-82331250D02*
X151387500Y-87531250D01*
X156587500Y-82331250D02*
X151387500Y-82331250D01*
X156587500Y-87531250D02*
X156587500Y-82331250D01*
X151387500Y-87531250D02*
X156587500Y-87531250D01*
D10*
G04 #@! TO.C,R4*
X138171250Y-102285436D02*
X138171250Y-102739564D01*
X139641250Y-102285436D02*
X139641250Y-102739564D01*
G04 #@! TO.C,R3*
X157729186Y-106303750D02*
X158183314Y-106303750D01*
X157729186Y-104833750D02*
X158183314Y-104833750D01*
G04 #@! TO.C,R2*
X157729186Y-103922500D02*
X158183314Y-103922500D01*
X157729186Y-102452500D02*
X158183314Y-102452500D01*
G04 #@! TO.C,R1*
X130622936Y-107097500D02*
X131077064Y-107097500D01*
X130622936Y-105627500D02*
X131077064Y-105627500D01*
D11*
G04 #@! TO.C,J1*
X178768750Y-106000000D02*
X179768750Y-106000000D01*
X178768750Y-103600000D02*
X178768750Y-106000000D01*
X183768750Y-101800000D02*
X179768750Y-101800000D01*
X184768750Y-106000000D02*
X184768750Y-103600000D01*
X183768750Y-106000000D02*
X184768750Y-106000000D01*
D10*
G04 #@! TO.C,F1*
X162304186Y-101716250D02*
X163508314Y-101716250D01*
X162304186Y-99896250D02*
X163508314Y-99896250D01*
G04 #@! TO.C,D49*
X281987500Y-116550000D02*
X279987500Y-116550000D01*
X279987500Y-116550000D02*
X279987500Y-112650000D01*
X281987500Y-116550000D02*
X281987500Y-112650000D01*
G04 #@! TO.C,D48*
X260556250Y-116550000D02*
X258556250Y-116550000D01*
X258556250Y-116550000D02*
X258556250Y-112650000D01*
X260556250Y-116550000D02*
X260556250Y-112650000D01*
G04 #@! TO.C,D47*
X234362500Y-116550000D02*
X232362500Y-116550000D01*
X232362500Y-116550000D02*
X232362500Y-112650000D01*
X234362500Y-116550000D02*
X234362500Y-112650000D01*
G04 #@! TO.C,D46*
X208168750Y-116550000D02*
X206168750Y-116550000D01*
X206168750Y-116550000D02*
X206168750Y-112650000D01*
X208168750Y-116550000D02*
X208168750Y-112650000D01*
G04 #@! TO.C,D45*
X170068750Y-116550000D02*
X168068750Y-116550000D01*
X168068750Y-116550000D02*
X168068750Y-112650000D01*
X170068750Y-116550000D02*
X170068750Y-112650000D01*
G04 #@! TO.C,D44*
X122443750Y-116550000D02*
X120443750Y-116550000D01*
X120443750Y-116550000D02*
X120443750Y-112650000D01*
X122443750Y-116550000D02*
X122443750Y-112650000D01*
G04 #@! TO.C,D43*
X89106250Y-116550000D02*
X87106250Y-116550000D01*
X87106250Y-116550000D02*
X87106250Y-112650000D01*
X89106250Y-116550000D02*
X89106250Y-112650000D01*
G04 #@! TO.C,D42*
X62912500Y-116550000D02*
X60912500Y-116550000D01*
X60912500Y-116550000D02*
X60912500Y-112650000D01*
X62912500Y-116550000D02*
X62912500Y-112650000D01*
G04 #@! TO.C,D41*
X36718750Y-116550000D02*
X34718750Y-116550000D01*
X34718750Y-116550000D02*
X34718750Y-112650000D01*
X36718750Y-116550000D02*
X36718750Y-112650000D01*
G04 #@! TO.C,D40*
X281987500Y-97500000D02*
X279987500Y-97500000D01*
X279987500Y-97500000D02*
X279987500Y-93600000D01*
X281987500Y-97500000D02*
X281987500Y-93600000D01*
G04 #@! TO.C,D39*
X260556250Y-97500000D02*
X258556250Y-97500000D01*
X258556250Y-97500000D02*
X258556250Y-93600000D01*
X260556250Y-97500000D02*
X260556250Y-93600000D01*
G04 #@! TO.C,D38*
X239125000Y-97500000D02*
X237125000Y-97500000D01*
X237125000Y-97500000D02*
X237125000Y-93600000D01*
X239125000Y-97500000D02*
X239125000Y-93600000D01*
G04 #@! TO.C,D37*
X220075000Y-97500000D02*
X218075000Y-97500000D01*
X218075000Y-97500000D02*
X218075000Y-93600000D01*
X220075000Y-97500000D02*
X220075000Y-93600000D01*
G04 #@! TO.C,D36*
X201025000Y-97500000D02*
X199025000Y-97500000D01*
X199025000Y-97500000D02*
X199025000Y-93600000D01*
X201025000Y-97500000D02*
X201025000Y-93600000D01*
G04 #@! TO.C,D35*
X181975000Y-97500000D02*
X179975000Y-97500000D01*
X179975000Y-97500000D02*
X179975000Y-93600000D01*
X181975000Y-97500000D02*
X181975000Y-93600000D01*
G04 #@! TO.C,D34*
X162925000Y-97500000D02*
X160925000Y-97500000D01*
X160925000Y-97500000D02*
X160925000Y-93600000D01*
X162925000Y-97500000D02*
X162925000Y-93600000D01*
G04 #@! TO.C,D33*
X143875000Y-97500000D02*
X141875000Y-97500000D01*
X141875000Y-97500000D02*
X141875000Y-93600000D01*
X143875000Y-97500000D02*
X143875000Y-93600000D01*
G04 #@! TO.C,D32*
X124825000Y-97500000D02*
X122825000Y-97500000D01*
X122825000Y-97500000D02*
X122825000Y-93600000D01*
X124825000Y-97500000D02*
X124825000Y-93600000D01*
G04 #@! TO.C,D31*
X105775000Y-97500000D02*
X103775000Y-97500000D01*
X103775000Y-97500000D02*
X103775000Y-93600000D01*
X105775000Y-97500000D02*
X105775000Y-93600000D01*
G04 #@! TO.C,D30*
X86725000Y-97500000D02*
X84725000Y-97500000D01*
X84725000Y-97500000D02*
X84725000Y-93600000D01*
X86725000Y-97500000D02*
X86725000Y-93600000D01*
G04 #@! TO.C,D29*
X67675000Y-97500000D02*
X65675000Y-97500000D01*
X65675000Y-97500000D02*
X65675000Y-93600000D01*
X67675000Y-97500000D02*
X67675000Y-93600000D01*
G04 #@! TO.C,D28*
X41481250Y-97500000D02*
X39481250Y-97500000D01*
X39481250Y-97500000D02*
X39481250Y-93600000D01*
X41481250Y-97500000D02*
X41481250Y-93600000D01*
G04 #@! TO.C,D27*
X274843750Y-78450000D02*
X272843750Y-78450000D01*
X272843750Y-78450000D02*
X272843750Y-74550000D01*
X274843750Y-78450000D02*
X274843750Y-74550000D01*
G04 #@! TO.C,D26*
X248650000Y-78450000D02*
X246650000Y-78450000D01*
X246650000Y-78450000D02*
X246650000Y-74550000D01*
X248650000Y-78450000D02*
X248650000Y-74550000D01*
G04 #@! TO.C,D25*
X229600000Y-78450000D02*
X227600000Y-78450000D01*
X227600000Y-78450000D02*
X227600000Y-74550000D01*
X229600000Y-78450000D02*
X229600000Y-74550000D01*
G04 #@! TO.C,D24*
X210550000Y-78450000D02*
X208550000Y-78450000D01*
X208550000Y-78450000D02*
X208550000Y-74550000D01*
X210550000Y-78450000D02*
X210550000Y-74550000D01*
G04 #@! TO.C,D23*
X191500000Y-78450000D02*
X189500000Y-78450000D01*
X189500000Y-78450000D02*
X189500000Y-74550000D01*
X191500000Y-78450000D02*
X191500000Y-74550000D01*
G04 #@! TO.C,D22*
X172450000Y-78450000D02*
X170450000Y-78450000D01*
X170450000Y-78450000D02*
X170450000Y-74550000D01*
X172450000Y-78450000D02*
X172450000Y-74550000D01*
G04 #@! TO.C,D21*
X153400000Y-78450000D02*
X151400000Y-78450000D01*
X151400000Y-78450000D02*
X151400000Y-74550000D01*
X153400000Y-78450000D02*
X153400000Y-74550000D01*
G04 #@! TO.C,D20*
X134350000Y-78450000D02*
X132350000Y-78450000D01*
X132350000Y-78450000D02*
X132350000Y-74550000D01*
X134350000Y-78450000D02*
X134350000Y-74550000D01*
G04 #@! TO.C,D19*
X115300000Y-78450000D02*
X113300000Y-78450000D01*
X113300000Y-78450000D02*
X113300000Y-74550000D01*
X115300000Y-78450000D02*
X115300000Y-74550000D01*
G04 #@! TO.C,D18*
X96250000Y-78450000D02*
X94250000Y-78450000D01*
X94250000Y-78450000D02*
X94250000Y-74550000D01*
X96250000Y-78450000D02*
X96250000Y-74550000D01*
G04 #@! TO.C,D17*
X77200000Y-78450000D02*
X75200000Y-78450000D01*
X75200000Y-78450000D02*
X75200000Y-74550000D01*
X77200000Y-78450000D02*
X77200000Y-74550000D01*
G04 #@! TO.C,D16*
X58150000Y-78450000D02*
X56150000Y-78450000D01*
X56150000Y-78450000D02*
X56150000Y-74550000D01*
X58150000Y-78450000D02*
X58150000Y-74550000D01*
G04 #@! TO.C,D15*
X36718750Y-78450000D02*
X34718750Y-78450000D01*
X34718750Y-78450000D02*
X34718750Y-74550000D01*
X36718750Y-78450000D02*
X36718750Y-74550000D01*
G04 #@! TO.C,D14*
X281987500Y-59400000D02*
X279987500Y-59400000D01*
X279987500Y-59400000D02*
X279987500Y-55500000D01*
X281987500Y-59400000D02*
X281987500Y-55500000D01*
G04 #@! TO.C,D13*
X262937500Y-59400000D02*
X260937500Y-59400000D01*
X260937500Y-59400000D02*
X260937500Y-55500000D01*
X262937500Y-59400000D02*
X262937500Y-55500000D01*
G04 #@! TO.C,D12*
X243887500Y-59400000D02*
X241887500Y-59400000D01*
X241887500Y-59400000D02*
X241887500Y-55500000D01*
X243887500Y-59400000D02*
X243887500Y-55500000D01*
G04 #@! TO.C,D11*
X224837500Y-59400000D02*
X222837500Y-59400000D01*
X222837500Y-59400000D02*
X222837500Y-55500000D01*
X224837500Y-59400000D02*
X224837500Y-55500000D01*
G04 #@! TO.C,D10*
X205787500Y-59400000D02*
X203787500Y-59400000D01*
X203787500Y-59400000D02*
X203787500Y-55500000D01*
X205787500Y-59400000D02*
X205787500Y-55500000D01*
G04 #@! TO.C,D9*
X186737500Y-59400000D02*
X184737500Y-59400000D01*
X184737500Y-59400000D02*
X184737500Y-55500000D01*
X186737500Y-59400000D02*
X186737500Y-55500000D01*
G04 #@! TO.C,D8*
X167687500Y-59400000D02*
X165687500Y-59400000D01*
X165687500Y-59400000D02*
X165687500Y-55500000D01*
X167687500Y-59400000D02*
X167687500Y-55500000D01*
G04 #@! TO.C,D7*
X148637500Y-59400000D02*
X146637500Y-59400000D01*
X146637500Y-59400000D02*
X146637500Y-55500000D01*
X148637500Y-59400000D02*
X148637500Y-55500000D01*
G04 #@! TO.C,D6*
X129587500Y-59400000D02*
X127587500Y-59400000D01*
X127587500Y-59400000D02*
X127587500Y-55500000D01*
X129587500Y-59400000D02*
X129587500Y-55500000D01*
G04 #@! TO.C,D5*
X110537500Y-59400000D02*
X108537500Y-59400000D01*
X108537500Y-59400000D02*
X108537500Y-55500000D01*
X110537500Y-59400000D02*
X110537500Y-55500000D01*
G04 #@! TO.C,D4*
X91487500Y-59400000D02*
X89487500Y-59400000D01*
X89487500Y-59400000D02*
X89487500Y-55500000D01*
X91487500Y-59400000D02*
X91487500Y-55500000D01*
G04 #@! TO.C,D3*
X72437500Y-59400000D02*
X70437500Y-59400000D01*
X70437500Y-59400000D02*
X70437500Y-55500000D01*
X72437500Y-59400000D02*
X72437500Y-55500000D01*
G04 #@! TO.C,D2*
X53387500Y-59400000D02*
X51387500Y-59400000D01*
X51387500Y-59400000D02*
X51387500Y-55500000D01*
X53387500Y-59400000D02*
X53387500Y-55500000D01*
G04 #@! TO.C,D1*
X34337500Y-59400000D02*
X32337500Y-59400000D01*
X32337500Y-59400000D02*
X32337500Y-55500000D01*
X34337500Y-59400000D02*
X34337500Y-55500000D01*
G04 #@! TO.C,C7*
X141346250Y-120388748D02*
X141346250Y-120911252D01*
X142816250Y-120388748D02*
X142816250Y-120911252D01*
G04 #@! TO.C,C6*
X143727500Y-120388748D02*
X143727500Y-120911252D01*
X145197500Y-120388748D02*
X145197500Y-120911252D01*
G04 #@! TO.C,C5*
X151867502Y-101658750D02*
X151344998Y-101658750D01*
X151867502Y-103128750D02*
X151344998Y-103128750D01*
G04 #@! TO.C,C4*
X151798405Y-117885476D02*
X152320909Y-117885476D01*
X151798405Y-116415476D02*
X152320909Y-116415476D01*
G04 #@! TO.C,C3*
X148013748Y-116622500D02*
X148536252Y-116622500D01*
X148013748Y-115152500D02*
X148536252Y-115152500D01*
G04 #@! TO.C,C2*
X132661252Y-119121250D02*
X132138748Y-119121250D01*
X132661252Y-120591250D02*
X132138748Y-120591250D01*
G04 #@! TO.C,C1*
X146785000Y-106623752D02*
X146785000Y-106101248D01*
X145315000Y-106623752D02*
X145315000Y-106101248D01*
G04 #@! TO.C,U1*
D11*
X142148180Y-110330275D02*
X142957704Y-110330275D01*
X143052942Y-110377894D01*
X143100561Y-110425513D01*
X143148180Y-110520751D01*
X143148180Y-110711227D01*
X143100561Y-110806465D01*
X143052942Y-110854084D01*
X142957704Y-110901703D01*
X142148180Y-110901703D01*
X143148180Y-111901703D02*
X143148180Y-111330275D01*
X143148180Y-111615989D02*
X142148180Y-111615989D01*
X142291038Y-111520751D01*
X142386276Y-111425513D01*
X142433895Y-111330275D01*
G04 #@! TO.C,Y1*
X139076190Y-123006267D02*
X139076190Y-123482457D01*
X139409523Y-122482457D02*
X139076190Y-123006267D01*
X138742857Y-122482457D01*
X137885714Y-123482457D02*
X138457142Y-123482457D01*
X138171428Y-123482457D02*
X138171428Y-122482457D01*
X138266666Y-122625315D01*
X138361904Y-122720553D01*
X138457142Y-122768172D01*
G04 #@! TO.C,U2*
X162602379Y-103672906D02*
X163411903Y-103672906D01*
X163507141Y-103720525D01*
X163554760Y-103768144D01*
X163602379Y-103863382D01*
X163602379Y-104053858D01*
X163554760Y-104149096D01*
X163507141Y-104196715D01*
X163411903Y-104244334D01*
X162602379Y-104244334D01*
X162697618Y-104672906D02*
X162649999Y-104720525D01*
X162602379Y-104815763D01*
X162602379Y-105053858D01*
X162649999Y-105149096D01*
X162697618Y-105196715D01*
X162792856Y-105244334D01*
X162888094Y-105244334D01*
X163030951Y-105196715D01*
X163602379Y-104625287D01*
X163602379Y-105244334D01*
G04 #@! TO.C,SW1*
X155320833Y-81272011D02*
X155177976Y-81319630D01*
X154939880Y-81319630D01*
X154844642Y-81272011D01*
X154797023Y-81224392D01*
X154749404Y-81129154D01*
X154749404Y-81033916D01*
X154797023Y-80938678D01*
X154844642Y-80891059D01*
X154939880Y-80843440D01*
X155130357Y-80795821D01*
X155225595Y-80748202D01*
X155273214Y-80700583D01*
X155320833Y-80605345D01*
X155320833Y-80510107D01*
X155273214Y-80414869D01*
X155225595Y-80367250D01*
X155130357Y-80319630D01*
X154892261Y-80319630D01*
X154749404Y-80367250D01*
X154416071Y-80319630D02*
X154177976Y-81319630D01*
X153987500Y-80605345D01*
X153797023Y-81319630D01*
X153558928Y-80319630D01*
X152654166Y-81319630D02*
X153225595Y-81319630D01*
X152939880Y-81319630D02*
X152939880Y-80319630D01*
X153035119Y-80462488D01*
X153130357Y-80557726D01*
X153225595Y-80605345D01*
G04 #@! TO.C,R4*
X137708630Y-102345833D02*
X137232440Y-102012500D01*
X137708630Y-101774404D02*
X136708630Y-101774404D01*
X136708630Y-102155357D01*
X136756250Y-102250595D01*
X136803869Y-102298214D01*
X136899107Y-102345833D01*
X137041964Y-102345833D01*
X137137202Y-102298214D01*
X137184821Y-102250595D01*
X137232440Y-102155357D01*
X137232440Y-101774404D01*
X137041964Y-103202976D02*
X137708630Y-103202976D01*
X136661011Y-102964880D02*
X137375297Y-102726785D01*
X137375297Y-103345833D01*
G04 #@! TO.C,R3*
X158122916Y-107671130D02*
X158456250Y-107194940D01*
X158694345Y-107671130D02*
X158694345Y-106671130D01*
X158313392Y-106671130D01*
X158218154Y-106718750D01*
X158170535Y-106766369D01*
X158122916Y-106861607D01*
X158122916Y-107004464D01*
X158170535Y-107099702D01*
X158218154Y-107147321D01*
X158313392Y-107194940D01*
X158694345Y-107194940D01*
X157789583Y-106671130D02*
X157170535Y-106671130D01*
X157503869Y-107052083D01*
X157361011Y-107052083D01*
X157265773Y-107099702D01*
X157218154Y-107147321D01*
X157170535Y-107242559D01*
X157170535Y-107480654D01*
X157218154Y-107575892D01*
X157265773Y-107623511D01*
X157361011Y-107671130D01*
X157646726Y-107671130D01*
X157741964Y-107623511D01*
X157789583Y-107575892D01*
G04 #@! TO.C,R2*
X158122916Y-105289880D02*
X158456250Y-104813690D01*
X158694345Y-105289880D02*
X158694345Y-104289880D01*
X158313392Y-104289880D01*
X158218154Y-104337500D01*
X158170535Y-104385119D01*
X158122916Y-104480357D01*
X158122916Y-104623214D01*
X158170535Y-104718452D01*
X158218154Y-104766071D01*
X158313392Y-104813690D01*
X158694345Y-104813690D01*
X157741964Y-104385119D02*
X157694345Y-104337500D01*
X157599107Y-104289880D01*
X157361011Y-104289880D01*
X157265773Y-104337500D01*
X157218154Y-104385119D01*
X157170535Y-104480357D01*
X157170535Y-104575595D01*
X157218154Y-104718452D01*
X157789583Y-105289880D01*
X157170535Y-105289880D01*
G04 #@! TO.C,R1*
X131016666Y-108464880D02*
X131350000Y-107988690D01*
X131588095Y-108464880D02*
X131588095Y-107464880D01*
X131207142Y-107464880D01*
X131111904Y-107512500D01*
X131064285Y-107560119D01*
X131016666Y-107655357D01*
X131016666Y-107798214D01*
X131064285Y-107893452D01*
X131111904Y-107941071D01*
X131207142Y-107988690D01*
X131588095Y-107988690D01*
X130064285Y-108464880D02*
X130635714Y-108464880D01*
X130350000Y-108464880D02*
X130350000Y-107464880D01*
X130445238Y-107607738D01*
X130540476Y-107702976D01*
X130635714Y-107750595D01*
G04 #@! TO.C,J1*
X182102083Y-107552380D02*
X182102083Y-108266666D01*
X182149702Y-108409523D01*
X182244940Y-108504761D01*
X182387797Y-108552380D01*
X182483035Y-108552380D01*
X181102083Y-108552380D02*
X181673511Y-108552380D01*
X181387797Y-108552380D02*
X181387797Y-107552380D01*
X181483035Y-107695238D01*
X181578273Y-107790476D01*
X181673511Y-107838095D01*
G04 #@! TO.C,F1*
X163239583Y-102554821D02*
X163572916Y-102554821D01*
X163572916Y-103078630D02*
X163572916Y-102078630D01*
X163096726Y-102078630D01*
X162191964Y-103078630D02*
X162763392Y-103078630D01*
X162477678Y-103078630D02*
X162477678Y-102078630D01*
X162572916Y-102221488D01*
X162668154Y-102316726D01*
X162763392Y-102364345D01*
G04 #@! TO.C,D49*
X283439880Y-113085714D02*
X282439880Y-113085714D01*
X282439880Y-113323809D01*
X282487500Y-113466666D01*
X282582738Y-113561904D01*
X282677976Y-113609523D01*
X282868452Y-113657142D01*
X283011309Y-113657142D01*
X283201785Y-113609523D01*
X283297023Y-113561904D01*
X283392261Y-113466666D01*
X283439880Y-113323809D01*
X283439880Y-113085714D01*
X282773214Y-114514285D02*
X283439880Y-114514285D01*
X282392261Y-114276190D02*
X283106547Y-114038095D01*
X283106547Y-114657142D01*
X283439880Y-115085714D02*
X283439880Y-115276190D01*
X283392261Y-115371428D01*
X283344642Y-115419047D01*
X283201785Y-115514285D01*
X283011309Y-115561904D01*
X282630357Y-115561904D01*
X282535119Y-115514285D01*
X282487500Y-115466666D01*
X282439880Y-115371428D01*
X282439880Y-115180952D01*
X282487500Y-115085714D01*
X282535119Y-115038095D01*
X282630357Y-114990476D01*
X282868452Y-114990476D01*
X282963690Y-115038095D01*
X283011309Y-115085714D01*
X283058928Y-115180952D01*
X283058928Y-115371428D01*
X283011309Y-115466666D01*
X282963690Y-115514285D01*
X282868452Y-115561904D01*
G04 #@! TO.C,D48*
X262008630Y-113085714D02*
X261008630Y-113085714D01*
X261008630Y-113323809D01*
X261056250Y-113466666D01*
X261151488Y-113561904D01*
X261246726Y-113609523D01*
X261437202Y-113657142D01*
X261580059Y-113657142D01*
X261770535Y-113609523D01*
X261865773Y-113561904D01*
X261961011Y-113466666D01*
X262008630Y-113323809D01*
X262008630Y-113085714D01*
X261341964Y-114514285D02*
X262008630Y-114514285D01*
X260961011Y-114276190D02*
X261675297Y-114038095D01*
X261675297Y-114657142D01*
X261437202Y-115180952D02*
X261389583Y-115085714D01*
X261341964Y-115038095D01*
X261246726Y-114990476D01*
X261199107Y-114990476D01*
X261103869Y-115038095D01*
X261056250Y-115085714D01*
X261008630Y-115180952D01*
X261008630Y-115371428D01*
X261056250Y-115466666D01*
X261103869Y-115514285D01*
X261199107Y-115561904D01*
X261246726Y-115561904D01*
X261341964Y-115514285D01*
X261389583Y-115466666D01*
X261437202Y-115371428D01*
X261437202Y-115180952D01*
X261484821Y-115085714D01*
X261532440Y-115038095D01*
X261627678Y-114990476D01*
X261818154Y-114990476D01*
X261913392Y-115038095D01*
X261961011Y-115085714D01*
X262008630Y-115180952D01*
X262008630Y-115371428D01*
X261961011Y-115466666D01*
X261913392Y-115514285D01*
X261818154Y-115561904D01*
X261627678Y-115561904D01*
X261532440Y-115514285D01*
X261484821Y-115466666D01*
X261437202Y-115371428D01*
G04 #@! TO.C,D47*
X235814880Y-113085714D02*
X234814880Y-113085714D01*
X234814880Y-113323809D01*
X234862500Y-113466666D01*
X234957738Y-113561904D01*
X235052976Y-113609523D01*
X235243452Y-113657142D01*
X235386309Y-113657142D01*
X235576785Y-113609523D01*
X235672023Y-113561904D01*
X235767261Y-113466666D01*
X235814880Y-113323809D01*
X235814880Y-113085714D01*
X235148214Y-114514285D02*
X235814880Y-114514285D01*
X234767261Y-114276190D02*
X235481547Y-114038095D01*
X235481547Y-114657142D01*
X234814880Y-114942857D02*
X234814880Y-115609523D01*
X235814880Y-115180952D01*
G04 #@! TO.C,D46*
X209621130Y-113085714D02*
X208621130Y-113085714D01*
X208621130Y-113323809D01*
X208668750Y-113466666D01*
X208763988Y-113561904D01*
X208859226Y-113609523D01*
X209049702Y-113657142D01*
X209192559Y-113657142D01*
X209383035Y-113609523D01*
X209478273Y-113561904D01*
X209573511Y-113466666D01*
X209621130Y-113323809D01*
X209621130Y-113085714D01*
X208954464Y-114514285D02*
X209621130Y-114514285D01*
X208573511Y-114276190D02*
X209287797Y-114038095D01*
X209287797Y-114657142D01*
X208621130Y-115466666D02*
X208621130Y-115276190D01*
X208668750Y-115180952D01*
X208716369Y-115133333D01*
X208859226Y-115038095D01*
X209049702Y-114990476D01*
X209430654Y-114990476D01*
X209525892Y-115038095D01*
X209573511Y-115085714D01*
X209621130Y-115180952D01*
X209621130Y-115371428D01*
X209573511Y-115466666D01*
X209525892Y-115514285D01*
X209430654Y-115561904D01*
X209192559Y-115561904D01*
X209097321Y-115514285D01*
X209049702Y-115466666D01*
X209002083Y-115371428D01*
X209002083Y-115180952D01*
X209049702Y-115085714D01*
X209097321Y-115038095D01*
X209192559Y-114990476D01*
G04 #@! TO.C,D45*
X171521130Y-113085714D02*
X170521130Y-113085714D01*
X170521130Y-113323809D01*
X170568750Y-113466666D01*
X170663988Y-113561904D01*
X170759226Y-113609523D01*
X170949702Y-113657142D01*
X171092559Y-113657142D01*
X171283035Y-113609523D01*
X171378273Y-113561904D01*
X171473511Y-113466666D01*
X171521130Y-113323809D01*
X171521130Y-113085714D01*
X170854464Y-114514285D02*
X171521130Y-114514285D01*
X170473511Y-114276190D02*
X171187797Y-114038095D01*
X171187797Y-114657142D01*
X170521130Y-115514285D02*
X170521130Y-115038095D01*
X170997321Y-114990476D01*
X170949702Y-115038095D01*
X170902083Y-115133333D01*
X170902083Y-115371428D01*
X170949702Y-115466666D01*
X170997321Y-115514285D01*
X171092559Y-115561904D01*
X171330654Y-115561904D01*
X171425892Y-115514285D01*
X171473511Y-115466666D01*
X171521130Y-115371428D01*
X171521130Y-115133333D01*
X171473511Y-115038095D01*
X171425892Y-114990476D01*
G04 #@! TO.C,D44*
X123896130Y-113085714D02*
X122896130Y-113085714D01*
X122896130Y-113323809D01*
X122943750Y-113466666D01*
X123038988Y-113561904D01*
X123134226Y-113609523D01*
X123324702Y-113657142D01*
X123467559Y-113657142D01*
X123658035Y-113609523D01*
X123753273Y-113561904D01*
X123848511Y-113466666D01*
X123896130Y-113323809D01*
X123896130Y-113085714D01*
X123229464Y-114514285D02*
X123896130Y-114514285D01*
X122848511Y-114276190D02*
X123562797Y-114038095D01*
X123562797Y-114657142D01*
X123229464Y-115466666D02*
X123896130Y-115466666D01*
X122848511Y-115228571D02*
X123562797Y-114990476D01*
X123562797Y-115609523D01*
G04 #@! TO.C,D43*
X90558630Y-113085714D02*
X89558630Y-113085714D01*
X89558630Y-113323809D01*
X89606250Y-113466666D01*
X89701488Y-113561904D01*
X89796726Y-113609523D01*
X89987202Y-113657142D01*
X90130059Y-113657142D01*
X90320535Y-113609523D01*
X90415773Y-113561904D01*
X90511011Y-113466666D01*
X90558630Y-113323809D01*
X90558630Y-113085714D01*
X89891964Y-114514285D02*
X90558630Y-114514285D01*
X89511011Y-114276190D02*
X90225297Y-114038095D01*
X90225297Y-114657142D01*
X89558630Y-114942857D02*
X89558630Y-115561904D01*
X89939583Y-115228571D01*
X89939583Y-115371428D01*
X89987202Y-115466666D01*
X90034821Y-115514285D01*
X90130059Y-115561904D01*
X90368154Y-115561904D01*
X90463392Y-115514285D01*
X90511011Y-115466666D01*
X90558630Y-115371428D01*
X90558630Y-115085714D01*
X90511011Y-114990476D01*
X90463392Y-114942857D01*
G04 #@! TO.C,D42*
X64364880Y-113085714D02*
X63364880Y-113085714D01*
X63364880Y-113323809D01*
X63412500Y-113466666D01*
X63507738Y-113561904D01*
X63602976Y-113609523D01*
X63793452Y-113657142D01*
X63936309Y-113657142D01*
X64126785Y-113609523D01*
X64222023Y-113561904D01*
X64317261Y-113466666D01*
X64364880Y-113323809D01*
X64364880Y-113085714D01*
X63698214Y-114514285D02*
X64364880Y-114514285D01*
X63317261Y-114276190D02*
X64031547Y-114038095D01*
X64031547Y-114657142D01*
X63460119Y-114990476D02*
X63412500Y-115038095D01*
X63364880Y-115133333D01*
X63364880Y-115371428D01*
X63412500Y-115466666D01*
X63460119Y-115514285D01*
X63555357Y-115561904D01*
X63650595Y-115561904D01*
X63793452Y-115514285D01*
X64364880Y-114942857D01*
X64364880Y-115561904D01*
G04 #@! TO.C,D41*
X38171130Y-113085714D02*
X37171130Y-113085714D01*
X37171130Y-113323809D01*
X37218750Y-113466666D01*
X37313988Y-113561904D01*
X37409226Y-113609523D01*
X37599702Y-113657142D01*
X37742559Y-113657142D01*
X37933035Y-113609523D01*
X38028273Y-113561904D01*
X38123511Y-113466666D01*
X38171130Y-113323809D01*
X38171130Y-113085714D01*
X37504464Y-114514285D02*
X38171130Y-114514285D01*
X37123511Y-114276190D02*
X37837797Y-114038095D01*
X37837797Y-114657142D01*
X38171130Y-115561904D02*
X38171130Y-114990476D01*
X38171130Y-115276190D02*
X37171130Y-115276190D01*
X37313988Y-115180952D01*
X37409226Y-115085714D01*
X37456845Y-114990476D01*
G04 #@! TO.C,D40*
X283439880Y-94035714D02*
X282439880Y-94035714D01*
X282439880Y-94273809D01*
X282487500Y-94416666D01*
X282582738Y-94511904D01*
X282677976Y-94559523D01*
X282868452Y-94607142D01*
X283011309Y-94607142D01*
X283201785Y-94559523D01*
X283297023Y-94511904D01*
X283392261Y-94416666D01*
X283439880Y-94273809D01*
X283439880Y-94035714D01*
X282773214Y-95464285D02*
X283439880Y-95464285D01*
X282392261Y-95226190D02*
X283106547Y-94988095D01*
X283106547Y-95607142D01*
X282439880Y-96178571D02*
X282439880Y-96273809D01*
X282487500Y-96369047D01*
X282535119Y-96416666D01*
X282630357Y-96464285D01*
X282820833Y-96511904D01*
X283058928Y-96511904D01*
X283249404Y-96464285D01*
X283344642Y-96416666D01*
X283392261Y-96369047D01*
X283439880Y-96273809D01*
X283439880Y-96178571D01*
X283392261Y-96083333D01*
X283344642Y-96035714D01*
X283249404Y-95988095D01*
X283058928Y-95940476D01*
X282820833Y-95940476D01*
X282630357Y-95988095D01*
X282535119Y-96035714D01*
X282487500Y-96083333D01*
X282439880Y-96178571D01*
G04 #@! TO.C,D39*
X262008630Y-94035714D02*
X261008630Y-94035714D01*
X261008630Y-94273809D01*
X261056250Y-94416666D01*
X261151488Y-94511904D01*
X261246726Y-94559523D01*
X261437202Y-94607142D01*
X261580059Y-94607142D01*
X261770535Y-94559523D01*
X261865773Y-94511904D01*
X261961011Y-94416666D01*
X262008630Y-94273809D01*
X262008630Y-94035714D01*
X261008630Y-94940476D02*
X261008630Y-95559523D01*
X261389583Y-95226190D01*
X261389583Y-95369047D01*
X261437202Y-95464285D01*
X261484821Y-95511904D01*
X261580059Y-95559523D01*
X261818154Y-95559523D01*
X261913392Y-95511904D01*
X261961011Y-95464285D01*
X262008630Y-95369047D01*
X262008630Y-95083333D01*
X261961011Y-94988095D01*
X261913392Y-94940476D01*
X262008630Y-96035714D02*
X262008630Y-96226190D01*
X261961011Y-96321428D01*
X261913392Y-96369047D01*
X261770535Y-96464285D01*
X261580059Y-96511904D01*
X261199107Y-96511904D01*
X261103869Y-96464285D01*
X261056250Y-96416666D01*
X261008630Y-96321428D01*
X261008630Y-96130952D01*
X261056250Y-96035714D01*
X261103869Y-95988095D01*
X261199107Y-95940476D01*
X261437202Y-95940476D01*
X261532440Y-95988095D01*
X261580059Y-96035714D01*
X261627678Y-96130952D01*
X261627678Y-96321428D01*
X261580059Y-96416666D01*
X261532440Y-96464285D01*
X261437202Y-96511904D01*
G04 #@! TO.C,D38*
X240577380Y-94035714D02*
X239577380Y-94035714D01*
X239577380Y-94273809D01*
X239625000Y-94416666D01*
X239720238Y-94511904D01*
X239815476Y-94559523D01*
X240005952Y-94607142D01*
X240148809Y-94607142D01*
X240339285Y-94559523D01*
X240434523Y-94511904D01*
X240529761Y-94416666D01*
X240577380Y-94273809D01*
X240577380Y-94035714D01*
X239577380Y-94940476D02*
X239577380Y-95559523D01*
X239958333Y-95226190D01*
X239958333Y-95369047D01*
X240005952Y-95464285D01*
X240053571Y-95511904D01*
X240148809Y-95559523D01*
X240386904Y-95559523D01*
X240482142Y-95511904D01*
X240529761Y-95464285D01*
X240577380Y-95369047D01*
X240577380Y-95083333D01*
X240529761Y-94988095D01*
X240482142Y-94940476D01*
X240005952Y-96130952D02*
X239958333Y-96035714D01*
X239910714Y-95988095D01*
X239815476Y-95940476D01*
X239767857Y-95940476D01*
X239672619Y-95988095D01*
X239625000Y-96035714D01*
X239577380Y-96130952D01*
X239577380Y-96321428D01*
X239625000Y-96416666D01*
X239672619Y-96464285D01*
X239767857Y-96511904D01*
X239815476Y-96511904D01*
X239910714Y-96464285D01*
X239958333Y-96416666D01*
X240005952Y-96321428D01*
X240005952Y-96130952D01*
X240053571Y-96035714D01*
X240101190Y-95988095D01*
X240196428Y-95940476D01*
X240386904Y-95940476D01*
X240482142Y-95988095D01*
X240529761Y-96035714D01*
X240577380Y-96130952D01*
X240577380Y-96321428D01*
X240529761Y-96416666D01*
X240482142Y-96464285D01*
X240386904Y-96511904D01*
X240196428Y-96511904D01*
X240101190Y-96464285D01*
X240053571Y-96416666D01*
X240005952Y-96321428D01*
G04 #@! TO.C,D37*
X221527380Y-94035714D02*
X220527380Y-94035714D01*
X220527380Y-94273809D01*
X220575000Y-94416666D01*
X220670238Y-94511904D01*
X220765476Y-94559523D01*
X220955952Y-94607142D01*
X221098809Y-94607142D01*
X221289285Y-94559523D01*
X221384523Y-94511904D01*
X221479761Y-94416666D01*
X221527380Y-94273809D01*
X221527380Y-94035714D01*
X220527380Y-94940476D02*
X220527380Y-95559523D01*
X220908333Y-95226190D01*
X220908333Y-95369047D01*
X220955952Y-95464285D01*
X221003571Y-95511904D01*
X221098809Y-95559523D01*
X221336904Y-95559523D01*
X221432142Y-95511904D01*
X221479761Y-95464285D01*
X221527380Y-95369047D01*
X221527380Y-95083333D01*
X221479761Y-94988095D01*
X221432142Y-94940476D01*
X220527380Y-95892857D02*
X220527380Y-96559523D01*
X221527380Y-96130952D01*
G04 #@! TO.C,D36*
X202477380Y-94035714D02*
X201477380Y-94035714D01*
X201477380Y-94273809D01*
X201525000Y-94416666D01*
X201620238Y-94511904D01*
X201715476Y-94559523D01*
X201905952Y-94607142D01*
X202048809Y-94607142D01*
X202239285Y-94559523D01*
X202334523Y-94511904D01*
X202429761Y-94416666D01*
X202477380Y-94273809D01*
X202477380Y-94035714D01*
X201477380Y-94940476D02*
X201477380Y-95559523D01*
X201858333Y-95226190D01*
X201858333Y-95369047D01*
X201905952Y-95464285D01*
X201953571Y-95511904D01*
X202048809Y-95559523D01*
X202286904Y-95559523D01*
X202382142Y-95511904D01*
X202429761Y-95464285D01*
X202477380Y-95369047D01*
X202477380Y-95083333D01*
X202429761Y-94988095D01*
X202382142Y-94940476D01*
X201477380Y-96416666D02*
X201477380Y-96226190D01*
X201525000Y-96130952D01*
X201572619Y-96083333D01*
X201715476Y-95988095D01*
X201905952Y-95940476D01*
X202286904Y-95940476D01*
X202382142Y-95988095D01*
X202429761Y-96035714D01*
X202477380Y-96130952D01*
X202477380Y-96321428D01*
X202429761Y-96416666D01*
X202382142Y-96464285D01*
X202286904Y-96511904D01*
X202048809Y-96511904D01*
X201953571Y-96464285D01*
X201905952Y-96416666D01*
X201858333Y-96321428D01*
X201858333Y-96130952D01*
X201905952Y-96035714D01*
X201953571Y-95988095D01*
X202048809Y-95940476D01*
G04 #@! TO.C,D35*
X183427380Y-94035714D02*
X182427380Y-94035714D01*
X182427380Y-94273809D01*
X182475000Y-94416666D01*
X182570238Y-94511904D01*
X182665476Y-94559523D01*
X182855952Y-94607142D01*
X182998809Y-94607142D01*
X183189285Y-94559523D01*
X183284523Y-94511904D01*
X183379761Y-94416666D01*
X183427380Y-94273809D01*
X183427380Y-94035714D01*
X182427380Y-94940476D02*
X182427380Y-95559523D01*
X182808333Y-95226190D01*
X182808333Y-95369047D01*
X182855952Y-95464285D01*
X182903571Y-95511904D01*
X182998809Y-95559523D01*
X183236904Y-95559523D01*
X183332142Y-95511904D01*
X183379761Y-95464285D01*
X183427380Y-95369047D01*
X183427380Y-95083333D01*
X183379761Y-94988095D01*
X183332142Y-94940476D01*
X182427380Y-96464285D02*
X182427380Y-95988095D01*
X182903571Y-95940476D01*
X182855952Y-95988095D01*
X182808333Y-96083333D01*
X182808333Y-96321428D01*
X182855952Y-96416666D01*
X182903571Y-96464285D01*
X182998809Y-96511904D01*
X183236904Y-96511904D01*
X183332142Y-96464285D01*
X183379761Y-96416666D01*
X183427380Y-96321428D01*
X183427380Y-96083333D01*
X183379761Y-95988095D01*
X183332142Y-95940476D01*
G04 #@! TO.C,D34*
X164377380Y-94035714D02*
X163377380Y-94035714D01*
X163377380Y-94273809D01*
X163425000Y-94416666D01*
X163520238Y-94511904D01*
X163615476Y-94559523D01*
X163805952Y-94607142D01*
X163948809Y-94607142D01*
X164139285Y-94559523D01*
X164234523Y-94511904D01*
X164329761Y-94416666D01*
X164377380Y-94273809D01*
X164377380Y-94035714D01*
X163377380Y-94940476D02*
X163377380Y-95559523D01*
X163758333Y-95226190D01*
X163758333Y-95369047D01*
X163805952Y-95464285D01*
X163853571Y-95511904D01*
X163948809Y-95559523D01*
X164186904Y-95559523D01*
X164282142Y-95511904D01*
X164329761Y-95464285D01*
X164377380Y-95369047D01*
X164377380Y-95083333D01*
X164329761Y-94988095D01*
X164282142Y-94940476D01*
X163710714Y-96416666D02*
X164377380Y-96416666D01*
X163329761Y-96178571D02*
X164044047Y-95940476D01*
X164044047Y-96559523D01*
G04 #@! TO.C,D33*
X145327380Y-94035714D02*
X144327380Y-94035714D01*
X144327380Y-94273809D01*
X144375000Y-94416666D01*
X144470238Y-94511904D01*
X144565476Y-94559523D01*
X144755952Y-94607142D01*
X144898809Y-94607142D01*
X145089285Y-94559523D01*
X145184523Y-94511904D01*
X145279761Y-94416666D01*
X145327380Y-94273809D01*
X145327380Y-94035714D01*
X144327380Y-94940476D02*
X144327380Y-95559523D01*
X144708333Y-95226190D01*
X144708333Y-95369047D01*
X144755952Y-95464285D01*
X144803571Y-95511904D01*
X144898809Y-95559523D01*
X145136904Y-95559523D01*
X145232142Y-95511904D01*
X145279761Y-95464285D01*
X145327380Y-95369047D01*
X145327380Y-95083333D01*
X145279761Y-94988095D01*
X145232142Y-94940476D01*
X144327380Y-95892857D02*
X144327380Y-96511904D01*
X144708333Y-96178571D01*
X144708333Y-96321428D01*
X144755952Y-96416666D01*
X144803571Y-96464285D01*
X144898809Y-96511904D01*
X145136904Y-96511904D01*
X145232142Y-96464285D01*
X145279761Y-96416666D01*
X145327380Y-96321428D01*
X145327380Y-96035714D01*
X145279761Y-95940476D01*
X145232142Y-95892857D01*
G04 #@! TO.C,D32*
X126277380Y-94035714D02*
X125277380Y-94035714D01*
X125277380Y-94273809D01*
X125325000Y-94416666D01*
X125420238Y-94511904D01*
X125515476Y-94559523D01*
X125705952Y-94607142D01*
X125848809Y-94607142D01*
X126039285Y-94559523D01*
X126134523Y-94511904D01*
X126229761Y-94416666D01*
X126277380Y-94273809D01*
X126277380Y-94035714D01*
X125277380Y-94940476D02*
X125277380Y-95559523D01*
X125658333Y-95226190D01*
X125658333Y-95369047D01*
X125705952Y-95464285D01*
X125753571Y-95511904D01*
X125848809Y-95559523D01*
X126086904Y-95559523D01*
X126182142Y-95511904D01*
X126229761Y-95464285D01*
X126277380Y-95369047D01*
X126277380Y-95083333D01*
X126229761Y-94988095D01*
X126182142Y-94940476D01*
X125372619Y-95940476D02*
X125325000Y-95988095D01*
X125277380Y-96083333D01*
X125277380Y-96321428D01*
X125325000Y-96416666D01*
X125372619Y-96464285D01*
X125467857Y-96511904D01*
X125563095Y-96511904D01*
X125705952Y-96464285D01*
X126277380Y-95892857D01*
X126277380Y-96511904D01*
G04 #@! TO.C,D31*
X107227380Y-94035714D02*
X106227380Y-94035714D01*
X106227380Y-94273809D01*
X106275000Y-94416666D01*
X106370238Y-94511904D01*
X106465476Y-94559523D01*
X106655952Y-94607142D01*
X106798809Y-94607142D01*
X106989285Y-94559523D01*
X107084523Y-94511904D01*
X107179761Y-94416666D01*
X107227380Y-94273809D01*
X107227380Y-94035714D01*
X106227380Y-94940476D02*
X106227380Y-95559523D01*
X106608333Y-95226190D01*
X106608333Y-95369047D01*
X106655952Y-95464285D01*
X106703571Y-95511904D01*
X106798809Y-95559523D01*
X107036904Y-95559523D01*
X107132142Y-95511904D01*
X107179761Y-95464285D01*
X107227380Y-95369047D01*
X107227380Y-95083333D01*
X107179761Y-94988095D01*
X107132142Y-94940476D01*
X107227380Y-96511904D02*
X107227380Y-95940476D01*
X107227380Y-96226190D02*
X106227380Y-96226190D01*
X106370238Y-96130952D01*
X106465476Y-96035714D01*
X106513095Y-95940476D01*
G04 #@! TO.C,D30*
X88177380Y-94035714D02*
X87177380Y-94035714D01*
X87177380Y-94273809D01*
X87225000Y-94416666D01*
X87320238Y-94511904D01*
X87415476Y-94559523D01*
X87605952Y-94607142D01*
X87748809Y-94607142D01*
X87939285Y-94559523D01*
X88034523Y-94511904D01*
X88129761Y-94416666D01*
X88177380Y-94273809D01*
X88177380Y-94035714D01*
X87177380Y-94940476D02*
X87177380Y-95559523D01*
X87558333Y-95226190D01*
X87558333Y-95369047D01*
X87605952Y-95464285D01*
X87653571Y-95511904D01*
X87748809Y-95559523D01*
X87986904Y-95559523D01*
X88082142Y-95511904D01*
X88129761Y-95464285D01*
X88177380Y-95369047D01*
X88177380Y-95083333D01*
X88129761Y-94988095D01*
X88082142Y-94940476D01*
X87177380Y-96178571D02*
X87177380Y-96273809D01*
X87225000Y-96369047D01*
X87272619Y-96416666D01*
X87367857Y-96464285D01*
X87558333Y-96511904D01*
X87796428Y-96511904D01*
X87986904Y-96464285D01*
X88082142Y-96416666D01*
X88129761Y-96369047D01*
X88177380Y-96273809D01*
X88177380Y-96178571D01*
X88129761Y-96083333D01*
X88082142Y-96035714D01*
X87986904Y-95988095D01*
X87796428Y-95940476D01*
X87558333Y-95940476D01*
X87367857Y-95988095D01*
X87272619Y-96035714D01*
X87225000Y-96083333D01*
X87177380Y-96178571D01*
G04 #@! TO.C,D29*
X69127380Y-94035714D02*
X68127380Y-94035714D01*
X68127380Y-94273809D01*
X68175000Y-94416666D01*
X68270238Y-94511904D01*
X68365476Y-94559523D01*
X68555952Y-94607142D01*
X68698809Y-94607142D01*
X68889285Y-94559523D01*
X68984523Y-94511904D01*
X69079761Y-94416666D01*
X69127380Y-94273809D01*
X69127380Y-94035714D01*
X68222619Y-94988095D02*
X68175000Y-95035714D01*
X68127380Y-95130952D01*
X68127380Y-95369047D01*
X68175000Y-95464285D01*
X68222619Y-95511904D01*
X68317857Y-95559523D01*
X68413095Y-95559523D01*
X68555952Y-95511904D01*
X69127380Y-94940476D01*
X69127380Y-95559523D01*
X69127380Y-96035714D02*
X69127380Y-96226190D01*
X69079761Y-96321428D01*
X69032142Y-96369047D01*
X68889285Y-96464285D01*
X68698809Y-96511904D01*
X68317857Y-96511904D01*
X68222619Y-96464285D01*
X68175000Y-96416666D01*
X68127380Y-96321428D01*
X68127380Y-96130952D01*
X68175000Y-96035714D01*
X68222619Y-95988095D01*
X68317857Y-95940476D01*
X68555952Y-95940476D01*
X68651190Y-95988095D01*
X68698809Y-96035714D01*
X68746428Y-96130952D01*
X68746428Y-96321428D01*
X68698809Y-96416666D01*
X68651190Y-96464285D01*
X68555952Y-96511904D01*
G04 #@! TO.C,D28*
X42933630Y-94035714D02*
X41933630Y-94035714D01*
X41933630Y-94273809D01*
X41981250Y-94416666D01*
X42076488Y-94511904D01*
X42171726Y-94559523D01*
X42362202Y-94607142D01*
X42505059Y-94607142D01*
X42695535Y-94559523D01*
X42790773Y-94511904D01*
X42886011Y-94416666D01*
X42933630Y-94273809D01*
X42933630Y-94035714D01*
X42028869Y-94988095D02*
X41981250Y-95035714D01*
X41933630Y-95130952D01*
X41933630Y-95369047D01*
X41981250Y-95464285D01*
X42028869Y-95511904D01*
X42124107Y-95559523D01*
X42219345Y-95559523D01*
X42362202Y-95511904D01*
X42933630Y-94940476D01*
X42933630Y-95559523D01*
X42362202Y-96130952D02*
X42314583Y-96035714D01*
X42266964Y-95988095D01*
X42171726Y-95940476D01*
X42124107Y-95940476D01*
X42028869Y-95988095D01*
X41981250Y-96035714D01*
X41933630Y-96130952D01*
X41933630Y-96321428D01*
X41981250Y-96416666D01*
X42028869Y-96464285D01*
X42124107Y-96511904D01*
X42171726Y-96511904D01*
X42266964Y-96464285D01*
X42314583Y-96416666D01*
X42362202Y-96321428D01*
X42362202Y-96130952D01*
X42409821Y-96035714D01*
X42457440Y-95988095D01*
X42552678Y-95940476D01*
X42743154Y-95940476D01*
X42838392Y-95988095D01*
X42886011Y-96035714D01*
X42933630Y-96130952D01*
X42933630Y-96321428D01*
X42886011Y-96416666D01*
X42838392Y-96464285D01*
X42743154Y-96511904D01*
X42552678Y-96511904D01*
X42457440Y-96464285D01*
X42409821Y-96416666D01*
X42362202Y-96321428D01*
G04 #@! TO.C,D27*
X275391369Y-77414285D02*
X276391369Y-77414285D01*
X276391369Y-77176190D01*
X276343750Y-77033333D01*
X276248511Y-76938095D01*
X276153273Y-76890476D01*
X275962797Y-76842857D01*
X275819940Y-76842857D01*
X275629464Y-76890476D01*
X275534226Y-76938095D01*
X275438988Y-77033333D01*
X275391369Y-77176190D01*
X275391369Y-77414285D01*
X276296130Y-76461904D02*
X276343750Y-76414285D01*
X276391369Y-76319047D01*
X276391369Y-76080952D01*
X276343750Y-75985714D01*
X276296130Y-75938095D01*
X276200892Y-75890476D01*
X276105654Y-75890476D01*
X275962797Y-75938095D01*
X275391369Y-76509523D01*
X275391369Y-75890476D01*
X276391369Y-75557142D02*
X276391369Y-74890476D01*
X275391369Y-75319047D01*
G04 #@! TO.C,D26*
X250102380Y-74985714D02*
X249102380Y-74985714D01*
X249102380Y-75223809D01*
X249150000Y-75366666D01*
X249245238Y-75461904D01*
X249340476Y-75509523D01*
X249530952Y-75557142D01*
X249673809Y-75557142D01*
X249864285Y-75509523D01*
X249959523Y-75461904D01*
X250054761Y-75366666D01*
X250102380Y-75223809D01*
X250102380Y-74985714D01*
X249197619Y-75938095D02*
X249150000Y-75985714D01*
X249102380Y-76080952D01*
X249102380Y-76319047D01*
X249150000Y-76414285D01*
X249197619Y-76461904D01*
X249292857Y-76509523D01*
X249388095Y-76509523D01*
X249530952Y-76461904D01*
X250102380Y-75890476D01*
X250102380Y-76509523D01*
X249102380Y-77366666D02*
X249102380Y-77176190D01*
X249150000Y-77080952D01*
X249197619Y-77033333D01*
X249340476Y-76938095D01*
X249530952Y-76890476D01*
X249911904Y-76890476D01*
X250007142Y-76938095D01*
X250054761Y-76985714D01*
X250102380Y-77080952D01*
X250102380Y-77271428D01*
X250054761Y-77366666D01*
X250007142Y-77414285D01*
X249911904Y-77461904D01*
X249673809Y-77461904D01*
X249578571Y-77414285D01*
X249530952Y-77366666D01*
X249483333Y-77271428D01*
X249483333Y-77080952D01*
X249530952Y-76985714D01*
X249578571Y-76938095D01*
X249673809Y-76890476D01*
G04 #@! TO.C,D25*
X231052380Y-74985714D02*
X230052380Y-74985714D01*
X230052380Y-75223809D01*
X230100000Y-75366666D01*
X230195238Y-75461904D01*
X230290476Y-75509523D01*
X230480952Y-75557142D01*
X230623809Y-75557142D01*
X230814285Y-75509523D01*
X230909523Y-75461904D01*
X231004761Y-75366666D01*
X231052380Y-75223809D01*
X231052380Y-74985714D01*
X230147619Y-75938095D02*
X230100000Y-75985714D01*
X230052380Y-76080952D01*
X230052380Y-76319047D01*
X230100000Y-76414285D01*
X230147619Y-76461904D01*
X230242857Y-76509523D01*
X230338095Y-76509523D01*
X230480952Y-76461904D01*
X231052380Y-75890476D01*
X231052380Y-76509523D01*
X230052380Y-77414285D02*
X230052380Y-76938095D01*
X230528571Y-76890476D01*
X230480952Y-76938095D01*
X230433333Y-77033333D01*
X230433333Y-77271428D01*
X230480952Y-77366666D01*
X230528571Y-77414285D01*
X230623809Y-77461904D01*
X230861904Y-77461904D01*
X230957142Y-77414285D01*
X231004761Y-77366666D01*
X231052380Y-77271428D01*
X231052380Y-77033333D01*
X231004761Y-76938095D01*
X230957142Y-76890476D01*
G04 #@! TO.C,D24*
X212002380Y-74985714D02*
X211002380Y-74985714D01*
X211002380Y-75223809D01*
X211050000Y-75366666D01*
X211145238Y-75461904D01*
X211240476Y-75509523D01*
X211430952Y-75557142D01*
X211573809Y-75557142D01*
X211764285Y-75509523D01*
X211859523Y-75461904D01*
X211954761Y-75366666D01*
X212002380Y-75223809D01*
X212002380Y-74985714D01*
X211097619Y-75938095D02*
X211050000Y-75985714D01*
X211002380Y-76080952D01*
X211002380Y-76319047D01*
X211050000Y-76414285D01*
X211097619Y-76461904D01*
X211192857Y-76509523D01*
X211288095Y-76509523D01*
X211430952Y-76461904D01*
X212002380Y-75890476D01*
X212002380Y-76509523D01*
X211335714Y-77366666D02*
X212002380Y-77366666D01*
X210954761Y-77128571D02*
X211669047Y-76890476D01*
X211669047Y-77509523D01*
G04 #@! TO.C,D23*
X192952380Y-74985714D02*
X191952380Y-74985714D01*
X191952380Y-75223809D01*
X192000000Y-75366666D01*
X192095238Y-75461904D01*
X192190476Y-75509523D01*
X192380952Y-75557142D01*
X192523809Y-75557142D01*
X192714285Y-75509523D01*
X192809523Y-75461904D01*
X192904761Y-75366666D01*
X192952380Y-75223809D01*
X192952380Y-74985714D01*
X192047619Y-75938095D02*
X192000000Y-75985714D01*
X191952380Y-76080952D01*
X191952380Y-76319047D01*
X192000000Y-76414285D01*
X192047619Y-76461904D01*
X192142857Y-76509523D01*
X192238095Y-76509523D01*
X192380952Y-76461904D01*
X192952380Y-75890476D01*
X192952380Y-76509523D01*
X191952380Y-76842857D02*
X191952380Y-77461904D01*
X192333333Y-77128571D01*
X192333333Y-77271428D01*
X192380952Y-77366666D01*
X192428571Y-77414285D01*
X192523809Y-77461904D01*
X192761904Y-77461904D01*
X192857142Y-77414285D01*
X192904761Y-77366666D01*
X192952380Y-77271428D01*
X192952380Y-76985714D01*
X192904761Y-76890476D01*
X192857142Y-76842857D01*
G04 #@! TO.C,D22*
X173902380Y-74985714D02*
X172902380Y-74985714D01*
X172902380Y-75223809D01*
X172950000Y-75366666D01*
X173045238Y-75461904D01*
X173140476Y-75509523D01*
X173330952Y-75557142D01*
X173473809Y-75557142D01*
X173664285Y-75509523D01*
X173759523Y-75461904D01*
X173854761Y-75366666D01*
X173902380Y-75223809D01*
X173902380Y-74985714D01*
X172997619Y-75938095D02*
X172950000Y-75985714D01*
X172902380Y-76080952D01*
X172902380Y-76319047D01*
X172950000Y-76414285D01*
X172997619Y-76461904D01*
X173092857Y-76509523D01*
X173188095Y-76509523D01*
X173330952Y-76461904D01*
X173902380Y-75890476D01*
X173902380Y-76509523D01*
X172997619Y-76890476D02*
X172950000Y-76938095D01*
X172902380Y-77033333D01*
X172902380Y-77271428D01*
X172950000Y-77366666D01*
X172997619Y-77414285D01*
X173092857Y-77461904D01*
X173188095Y-77461904D01*
X173330952Y-77414285D01*
X173902380Y-76842857D01*
X173902380Y-77461904D01*
G04 #@! TO.C,D21*
X154852380Y-74985714D02*
X153852380Y-74985714D01*
X153852380Y-75223809D01*
X153900000Y-75366666D01*
X153995238Y-75461904D01*
X154090476Y-75509523D01*
X154280952Y-75557142D01*
X154423809Y-75557142D01*
X154614285Y-75509523D01*
X154709523Y-75461904D01*
X154804761Y-75366666D01*
X154852380Y-75223809D01*
X154852380Y-74985714D01*
X153947619Y-75938095D02*
X153900000Y-75985714D01*
X153852380Y-76080952D01*
X153852380Y-76319047D01*
X153900000Y-76414285D01*
X153947619Y-76461904D01*
X154042857Y-76509523D01*
X154138095Y-76509523D01*
X154280952Y-76461904D01*
X154852380Y-75890476D01*
X154852380Y-76509523D01*
X154852380Y-77461904D02*
X154852380Y-76890476D01*
X154852380Y-77176190D02*
X153852380Y-77176190D01*
X153995238Y-77080952D01*
X154090476Y-76985714D01*
X154138095Y-76890476D01*
G04 #@! TO.C,D20*
X135802380Y-74985714D02*
X134802380Y-74985714D01*
X134802380Y-75223809D01*
X134850000Y-75366666D01*
X134945238Y-75461904D01*
X135040476Y-75509523D01*
X135230952Y-75557142D01*
X135373809Y-75557142D01*
X135564285Y-75509523D01*
X135659523Y-75461904D01*
X135754761Y-75366666D01*
X135802380Y-75223809D01*
X135802380Y-74985714D01*
X134897619Y-75938095D02*
X134850000Y-75985714D01*
X134802380Y-76080952D01*
X134802380Y-76319047D01*
X134850000Y-76414285D01*
X134897619Y-76461904D01*
X134992857Y-76509523D01*
X135088095Y-76509523D01*
X135230952Y-76461904D01*
X135802380Y-75890476D01*
X135802380Y-76509523D01*
X134802380Y-77128571D02*
X134802380Y-77223809D01*
X134850000Y-77319047D01*
X134897619Y-77366666D01*
X134992857Y-77414285D01*
X135183333Y-77461904D01*
X135421428Y-77461904D01*
X135611904Y-77414285D01*
X135707142Y-77366666D01*
X135754761Y-77319047D01*
X135802380Y-77223809D01*
X135802380Y-77128571D01*
X135754761Y-77033333D01*
X135707142Y-76985714D01*
X135611904Y-76938095D01*
X135421428Y-76890476D01*
X135183333Y-76890476D01*
X134992857Y-76938095D01*
X134897619Y-76985714D01*
X134850000Y-77033333D01*
X134802380Y-77128571D01*
G04 #@! TO.C,D19*
X116752380Y-74985714D02*
X115752380Y-74985714D01*
X115752380Y-75223809D01*
X115800000Y-75366666D01*
X115895238Y-75461904D01*
X115990476Y-75509523D01*
X116180952Y-75557142D01*
X116323809Y-75557142D01*
X116514285Y-75509523D01*
X116609523Y-75461904D01*
X116704761Y-75366666D01*
X116752380Y-75223809D01*
X116752380Y-74985714D01*
X116752380Y-76509523D02*
X116752380Y-75938095D01*
X116752380Y-76223809D02*
X115752380Y-76223809D01*
X115895238Y-76128571D01*
X115990476Y-76033333D01*
X116038095Y-75938095D01*
X116752380Y-76985714D02*
X116752380Y-77176190D01*
X116704761Y-77271428D01*
X116657142Y-77319047D01*
X116514285Y-77414285D01*
X116323809Y-77461904D01*
X115942857Y-77461904D01*
X115847619Y-77414285D01*
X115800000Y-77366666D01*
X115752380Y-77271428D01*
X115752380Y-77080952D01*
X115800000Y-76985714D01*
X115847619Y-76938095D01*
X115942857Y-76890476D01*
X116180952Y-76890476D01*
X116276190Y-76938095D01*
X116323809Y-76985714D01*
X116371428Y-77080952D01*
X116371428Y-77271428D01*
X116323809Y-77366666D01*
X116276190Y-77414285D01*
X116180952Y-77461904D01*
G04 #@! TO.C,D18*
X97702380Y-74985714D02*
X96702380Y-74985714D01*
X96702380Y-75223809D01*
X96750000Y-75366666D01*
X96845238Y-75461904D01*
X96940476Y-75509523D01*
X97130952Y-75557142D01*
X97273809Y-75557142D01*
X97464285Y-75509523D01*
X97559523Y-75461904D01*
X97654761Y-75366666D01*
X97702380Y-75223809D01*
X97702380Y-74985714D01*
X97702380Y-76509523D02*
X97702380Y-75938095D01*
X97702380Y-76223809D02*
X96702380Y-76223809D01*
X96845238Y-76128571D01*
X96940476Y-76033333D01*
X96988095Y-75938095D01*
X97130952Y-77080952D02*
X97083333Y-76985714D01*
X97035714Y-76938095D01*
X96940476Y-76890476D01*
X96892857Y-76890476D01*
X96797619Y-76938095D01*
X96750000Y-76985714D01*
X96702380Y-77080952D01*
X96702380Y-77271428D01*
X96750000Y-77366666D01*
X96797619Y-77414285D01*
X96892857Y-77461904D01*
X96940476Y-77461904D01*
X97035714Y-77414285D01*
X97083333Y-77366666D01*
X97130952Y-77271428D01*
X97130952Y-77080952D01*
X97178571Y-76985714D01*
X97226190Y-76938095D01*
X97321428Y-76890476D01*
X97511904Y-76890476D01*
X97607142Y-76938095D01*
X97654761Y-76985714D01*
X97702380Y-77080952D01*
X97702380Y-77271428D01*
X97654761Y-77366666D01*
X97607142Y-77414285D01*
X97511904Y-77461904D01*
X97321428Y-77461904D01*
X97226190Y-77414285D01*
X97178571Y-77366666D01*
X97130952Y-77271428D01*
G04 #@! TO.C,D17*
X78652380Y-74985714D02*
X77652380Y-74985714D01*
X77652380Y-75223809D01*
X77700000Y-75366666D01*
X77795238Y-75461904D01*
X77890476Y-75509523D01*
X78080952Y-75557142D01*
X78223809Y-75557142D01*
X78414285Y-75509523D01*
X78509523Y-75461904D01*
X78604761Y-75366666D01*
X78652380Y-75223809D01*
X78652380Y-74985714D01*
X78652380Y-76509523D02*
X78652380Y-75938095D01*
X78652380Y-76223809D02*
X77652380Y-76223809D01*
X77795238Y-76128571D01*
X77890476Y-76033333D01*
X77938095Y-75938095D01*
X77652380Y-76842857D02*
X77652380Y-77509523D01*
X78652380Y-77080952D01*
G04 #@! TO.C,D16*
X59602380Y-74985714D02*
X58602380Y-74985714D01*
X58602380Y-75223809D01*
X58650000Y-75366666D01*
X58745238Y-75461904D01*
X58840476Y-75509523D01*
X59030952Y-75557142D01*
X59173809Y-75557142D01*
X59364285Y-75509523D01*
X59459523Y-75461904D01*
X59554761Y-75366666D01*
X59602380Y-75223809D01*
X59602380Y-74985714D01*
X59602380Y-76509523D02*
X59602380Y-75938095D01*
X59602380Y-76223809D02*
X58602380Y-76223809D01*
X58745238Y-76128571D01*
X58840476Y-76033333D01*
X58888095Y-75938095D01*
X58602380Y-77366666D02*
X58602380Y-77176190D01*
X58650000Y-77080952D01*
X58697619Y-77033333D01*
X58840476Y-76938095D01*
X59030952Y-76890476D01*
X59411904Y-76890476D01*
X59507142Y-76938095D01*
X59554761Y-76985714D01*
X59602380Y-77080952D01*
X59602380Y-77271428D01*
X59554761Y-77366666D01*
X59507142Y-77414285D01*
X59411904Y-77461904D01*
X59173809Y-77461904D01*
X59078571Y-77414285D01*
X59030952Y-77366666D01*
X58983333Y-77271428D01*
X58983333Y-77080952D01*
X59030952Y-76985714D01*
X59078571Y-76938095D01*
X59173809Y-76890476D01*
G04 #@! TO.C,D15*
X38171130Y-74985714D02*
X37171130Y-74985714D01*
X37171130Y-75223809D01*
X37218750Y-75366666D01*
X37313988Y-75461904D01*
X37409226Y-75509523D01*
X37599702Y-75557142D01*
X37742559Y-75557142D01*
X37933035Y-75509523D01*
X38028273Y-75461904D01*
X38123511Y-75366666D01*
X38171130Y-75223809D01*
X38171130Y-74985714D01*
X38171130Y-76509523D02*
X38171130Y-75938095D01*
X38171130Y-76223809D02*
X37171130Y-76223809D01*
X37313988Y-76128571D01*
X37409226Y-76033333D01*
X37456845Y-75938095D01*
X37171130Y-77414285D02*
X37171130Y-76938095D01*
X37647321Y-76890476D01*
X37599702Y-76938095D01*
X37552083Y-77033333D01*
X37552083Y-77271428D01*
X37599702Y-77366666D01*
X37647321Y-77414285D01*
X37742559Y-77461904D01*
X37980654Y-77461904D01*
X38075892Y-77414285D01*
X38123511Y-77366666D01*
X38171130Y-77271428D01*
X38171130Y-77033333D01*
X38123511Y-76938095D01*
X38075892Y-76890476D01*
G04 #@! TO.C,D14*
X283439880Y-55935714D02*
X282439880Y-55935714D01*
X282439880Y-56173809D01*
X282487500Y-56316666D01*
X282582738Y-56411904D01*
X282677976Y-56459523D01*
X282868452Y-56507142D01*
X283011309Y-56507142D01*
X283201785Y-56459523D01*
X283297023Y-56411904D01*
X283392261Y-56316666D01*
X283439880Y-56173809D01*
X283439880Y-55935714D01*
X283439880Y-57459523D02*
X283439880Y-56888095D01*
X283439880Y-57173809D02*
X282439880Y-57173809D01*
X282582738Y-57078571D01*
X282677976Y-56983333D01*
X282725595Y-56888095D01*
X282773214Y-58316666D02*
X283439880Y-58316666D01*
X282392261Y-58078571D02*
X283106547Y-57840476D01*
X283106547Y-58459523D01*
G04 #@! TO.C,D13*
X264389880Y-55935714D02*
X263389880Y-55935714D01*
X263389880Y-56173809D01*
X263437500Y-56316666D01*
X263532738Y-56411904D01*
X263627976Y-56459523D01*
X263818452Y-56507142D01*
X263961309Y-56507142D01*
X264151785Y-56459523D01*
X264247023Y-56411904D01*
X264342261Y-56316666D01*
X264389880Y-56173809D01*
X264389880Y-55935714D01*
X264389880Y-57459523D02*
X264389880Y-56888095D01*
X264389880Y-57173809D02*
X263389880Y-57173809D01*
X263532738Y-57078571D01*
X263627976Y-56983333D01*
X263675595Y-56888095D01*
X263389880Y-57792857D02*
X263389880Y-58411904D01*
X263770833Y-58078571D01*
X263770833Y-58221428D01*
X263818452Y-58316666D01*
X263866071Y-58364285D01*
X263961309Y-58411904D01*
X264199404Y-58411904D01*
X264294642Y-58364285D01*
X264342261Y-58316666D01*
X264389880Y-58221428D01*
X264389880Y-57935714D01*
X264342261Y-57840476D01*
X264294642Y-57792857D01*
G04 #@! TO.C,D12*
X245339880Y-55935714D02*
X244339880Y-55935714D01*
X244339880Y-56173809D01*
X244387500Y-56316666D01*
X244482738Y-56411904D01*
X244577976Y-56459523D01*
X244768452Y-56507142D01*
X244911309Y-56507142D01*
X245101785Y-56459523D01*
X245197023Y-56411904D01*
X245292261Y-56316666D01*
X245339880Y-56173809D01*
X245339880Y-55935714D01*
X245339880Y-57459523D02*
X245339880Y-56888095D01*
X245339880Y-57173809D02*
X244339880Y-57173809D01*
X244482738Y-57078571D01*
X244577976Y-56983333D01*
X244625595Y-56888095D01*
X244435119Y-57840476D02*
X244387500Y-57888095D01*
X244339880Y-57983333D01*
X244339880Y-58221428D01*
X244387500Y-58316666D01*
X244435119Y-58364285D01*
X244530357Y-58411904D01*
X244625595Y-58411904D01*
X244768452Y-58364285D01*
X245339880Y-57792857D01*
X245339880Y-58411904D01*
G04 #@! TO.C,D11*
X226289880Y-55935714D02*
X225289880Y-55935714D01*
X225289880Y-56173809D01*
X225337500Y-56316666D01*
X225432738Y-56411904D01*
X225527976Y-56459523D01*
X225718452Y-56507142D01*
X225861309Y-56507142D01*
X226051785Y-56459523D01*
X226147023Y-56411904D01*
X226242261Y-56316666D01*
X226289880Y-56173809D01*
X226289880Y-55935714D01*
X226289880Y-57459523D02*
X226289880Y-56888095D01*
X226289880Y-57173809D02*
X225289880Y-57173809D01*
X225432738Y-57078571D01*
X225527976Y-56983333D01*
X225575595Y-56888095D01*
X226289880Y-58411904D02*
X226289880Y-57840476D01*
X226289880Y-58126190D02*
X225289880Y-58126190D01*
X225432738Y-58030952D01*
X225527976Y-57935714D01*
X225575595Y-57840476D01*
G04 #@! TO.C,D10*
X207239880Y-55935714D02*
X206239880Y-55935714D01*
X206239880Y-56173809D01*
X206287500Y-56316666D01*
X206382738Y-56411904D01*
X206477976Y-56459523D01*
X206668452Y-56507142D01*
X206811309Y-56507142D01*
X207001785Y-56459523D01*
X207097023Y-56411904D01*
X207192261Y-56316666D01*
X207239880Y-56173809D01*
X207239880Y-55935714D01*
X207239880Y-57459523D02*
X207239880Y-56888095D01*
X207239880Y-57173809D02*
X206239880Y-57173809D01*
X206382738Y-57078571D01*
X206477976Y-56983333D01*
X206525595Y-56888095D01*
X206239880Y-58078571D02*
X206239880Y-58173809D01*
X206287500Y-58269047D01*
X206335119Y-58316666D01*
X206430357Y-58364285D01*
X206620833Y-58411904D01*
X206858928Y-58411904D01*
X207049404Y-58364285D01*
X207144642Y-58316666D01*
X207192261Y-58269047D01*
X207239880Y-58173809D01*
X207239880Y-58078571D01*
X207192261Y-57983333D01*
X207144642Y-57935714D01*
X207049404Y-57888095D01*
X206858928Y-57840476D01*
X206620833Y-57840476D01*
X206430357Y-57888095D01*
X206335119Y-57935714D01*
X206287500Y-57983333D01*
X206239880Y-58078571D01*
G04 #@! TO.C,D9*
X188189880Y-56411904D02*
X187189880Y-56411904D01*
X187189880Y-56650000D01*
X187237500Y-56792857D01*
X187332738Y-56888095D01*
X187427976Y-56935714D01*
X187618452Y-56983333D01*
X187761309Y-56983333D01*
X187951785Y-56935714D01*
X188047023Y-56888095D01*
X188142261Y-56792857D01*
X188189880Y-56650000D01*
X188189880Y-56411904D01*
X188189880Y-57459523D02*
X188189880Y-57650000D01*
X188142261Y-57745238D01*
X188094642Y-57792857D01*
X187951785Y-57888095D01*
X187761309Y-57935714D01*
X187380357Y-57935714D01*
X187285119Y-57888095D01*
X187237500Y-57840476D01*
X187189880Y-57745238D01*
X187189880Y-57554761D01*
X187237500Y-57459523D01*
X187285119Y-57411904D01*
X187380357Y-57364285D01*
X187618452Y-57364285D01*
X187713690Y-57411904D01*
X187761309Y-57459523D01*
X187808928Y-57554761D01*
X187808928Y-57745238D01*
X187761309Y-57840476D01*
X187713690Y-57888095D01*
X187618452Y-57935714D01*
G04 #@! TO.C,D8*
X169139880Y-56411904D02*
X168139880Y-56411904D01*
X168139880Y-56650000D01*
X168187500Y-56792857D01*
X168282738Y-56888095D01*
X168377976Y-56935714D01*
X168568452Y-56983333D01*
X168711309Y-56983333D01*
X168901785Y-56935714D01*
X168997023Y-56888095D01*
X169092261Y-56792857D01*
X169139880Y-56650000D01*
X169139880Y-56411904D01*
X168568452Y-57554761D02*
X168520833Y-57459523D01*
X168473214Y-57411904D01*
X168377976Y-57364285D01*
X168330357Y-57364285D01*
X168235119Y-57411904D01*
X168187500Y-57459523D01*
X168139880Y-57554761D01*
X168139880Y-57745238D01*
X168187500Y-57840476D01*
X168235119Y-57888095D01*
X168330357Y-57935714D01*
X168377976Y-57935714D01*
X168473214Y-57888095D01*
X168520833Y-57840476D01*
X168568452Y-57745238D01*
X168568452Y-57554761D01*
X168616071Y-57459523D01*
X168663690Y-57411904D01*
X168758928Y-57364285D01*
X168949404Y-57364285D01*
X169044642Y-57411904D01*
X169092261Y-57459523D01*
X169139880Y-57554761D01*
X169139880Y-57745238D01*
X169092261Y-57840476D01*
X169044642Y-57888095D01*
X168949404Y-57935714D01*
X168758928Y-57935714D01*
X168663690Y-57888095D01*
X168616071Y-57840476D01*
X168568452Y-57745238D01*
G04 #@! TO.C,D7*
X150089880Y-56411904D02*
X149089880Y-56411904D01*
X149089880Y-56650000D01*
X149137500Y-56792857D01*
X149232738Y-56888095D01*
X149327976Y-56935714D01*
X149518452Y-56983333D01*
X149661309Y-56983333D01*
X149851785Y-56935714D01*
X149947023Y-56888095D01*
X150042261Y-56792857D01*
X150089880Y-56650000D01*
X150089880Y-56411904D01*
X149089880Y-57316666D02*
X149089880Y-57983333D01*
X150089880Y-57554761D01*
G04 #@! TO.C,D6*
X131039880Y-56411904D02*
X130039880Y-56411904D01*
X130039880Y-56650000D01*
X130087500Y-56792857D01*
X130182738Y-56888095D01*
X130277976Y-56935714D01*
X130468452Y-56983333D01*
X130611309Y-56983333D01*
X130801785Y-56935714D01*
X130897023Y-56888095D01*
X130992261Y-56792857D01*
X131039880Y-56650000D01*
X131039880Y-56411904D01*
X130039880Y-57840476D02*
X130039880Y-57650000D01*
X130087500Y-57554761D01*
X130135119Y-57507142D01*
X130277976Y-57411904D01*
X130468452Y-57364285D01*
X130849404Y-57364285D01*
X130944642Y-57411904D01*
X130992261Y-57459523D01*
X131039880Y-57554761D01*
X131039880Y-57745238D01*
X130992261Y-57840476D01*
X130944642Y-57888095D01*
X130849404Y-57935714D01*
X130611309Y-57935714D01*
X130516071Y-57888095D01*
X130468452Y-57840476D01*
X130420833Y-57745238D01*
X130420833Y-57554761D01*
X130468452Y-57459523D01*
X130516071Y-57411904D01*
X130611309Y-57364285D01*
G04 #@! TO.C,D5*
X111989880Y-56411904D02*
X110989880Y-56411904D01*
X110989880Y-56650000D01*
X111037500Y-56792857D01*
X111132738Y-56888095D01*
X111227976Y-56935714D01*
X111418452Y-56983333D01*
X111561309Y-56983333D01*
X111751785Y-56935714D01*
X111847023Y-56888095D01*
X111942261Y-56792857D01*
X111989880Y-56650000D01*
X111989880Y-56411904D01*
X110989880Y-57888095D02*
X110989880Y-57411904D01*
X111466071Y-57364285D01*
X111418452Y-57411904D01*
X111370833Y-57507142D01*
X111370833Y-57745238D01*
X111418452Y-57840476D01*
X111466071Y-57888095D01*
X111561309Y-57935714D01*
X111799404Y-57935714D01*
X111894642Y-57888095D01*
X111942261Y-57840476D01*
X111989880Y-57745238D01*
X111989880Y-57507142D01*
X111942261Y-57411904D01*
X111894642Y-57364285D01*
G04 #@! TO.C,D4*
X92939880Y-56411904D02*
X91939880Y-56411904D01*
X91939880Y-56650000D01*
X91987500Y-56792857D01*
X92082738Y-56888095D01*
X92177976Y-56935714D01*
X92368452Y-56983333D01*
X92511309Y-56983333D01*
X92701785Y-56935714D01*
X92797023Y-56888095D01*
X92892261Y-56792857D01*
X92939880Y-56650000D01*
X92939880Y-56411904D01*
X92273214Y-57840476D02*
X92939880Y-57840476D01*
X91892261Y-57602380D02*
X92606547Y-57364285D01*
X92606547Y-57983333D01*
G04 #@! TO.C,D3*
X73889880Y-56411904D02*
X72889880Y-56411904D01*
X72889880Y-56650000D01*
X72937500Y-56792857D01*
X73032738Y-56888095D01*
X73127976Y-56935714D01*
X73318452Y-56983333D01*
X73461309Y-56983333D01*
X73651785Y-56935714D01*
X73747023Y-56888095D01*
X73842261Y-56792857D01*
X73889880Y-56650000D01*
X73889880Y-56411904D01*
X72889880Y-57316666D02*
X72889880Y-57935714D01*
X73270833Y-57602380D01*
X73270833Y-57745238D01*
X73318452Y-57840476D01*
X73366071Y-57888095D01*
X73461309Y-57935714D01*
X73699404Y-57935714D01*
X73794642Y-57888095D01*
X73842261Y-57840476D01*
X73889880Y-57745238D01*
X73889880Y-57459523D01*
X73842261Y-57364285D01*
X73794642Y-57316666D01*
G04 #@! TO.C,D2*
X54839880Y-56411904D02*
X53839880Y-56411904D01*
X53839880Y-56650000D01*
X53887500Y-56792857D01*
X53982738Y-56888095D01*
X54077976Y-56935714D01*
X54268452Y-56983333D01*
X54411309Y-56983333D01*
X54601785Y-56935714D01*
X54697023Y-56888095D01*
X54792261Y-56792857D01*
X54839880Y-56650000D01*
X54839880Y-56411904D01*
X53935119Y-57364285D02*
X53887500Y-57411904D01*
X53839880Y-57507142D01*
X53839880Y-57745238D01*
X53887500Y-57840476D01*
X53935119Y-57888095D01*
X54030357Y-57935714D01*
X54125595Y-57935714D01*
X54268452Y-57888095D01*
X54839880Y-57316666D01*
X54839880Y-57935714D01*
G04 #@! TO.C,D1*
X35789880Y-56411904D02*
X34789880Y-56411904D01*
X34789880Y-56650000D01*
X34837500Y-56792857D01*
X34932738Y-56888095D01*
X35027976Y-56935714D01*
X35218452Y-56983333D01*
X35361309Y-56983333D01*
X35551785Y-56935714D01*
X35647023Y-56888095D01*
X35742261Y-56792857D01*
X35789880Y-56650000D01*
X35789880Y-56411904D01*
X35789880Y-57935714D02*
X35789880Y-57364285D01*
X35789880Y-57650000D02*
X34789880Y-57650000D01*
X34932738Y-57554761D01*
X35027976Y-57459523D01*
X35075595Y-57364285D01*
G04 #@! TO.C,C7*
X140758392Y-120483333D02*
X140806011Y-120435714D01*
X140853630Y-120292857D01*
X140853630Y-120197619D01*
X140806011Y-120054761D01*
X140710773Y-119959523D01*
X140615535Y-119911904D01*
X140425059Y-119864285D01*
X140282202Y-119864285D01*
X140091726Y-119911904D01*
X139996488Y-119959523D01*
X139901250Y-120054761D01*
X139853630Y-120197619D01*
X139853630Y-120292857D01*
X139901250Y-120435714D01*
X139948869Y-120483333D01*
X139853630Y-120816666D02*
X139853630Y-121483333D01*
X140853630Y-121054761D01*
G04 #@! TO.C,C6*
X143139642Y-120483333D02*
X143187261Y-120435714D01*
X143234880Y-120292857D01*
X143234880Y-120197619D01*
X143187261Y-120054761D01*
X143092023Y-119959523D01*
X142996785Y-119911904D01*
X142806309Y-119864285D01*
X142663452Y-119864285D01*
X142472976Y-119911904D01*
X142377738Y-119959523D01*
X142282500Y-120054761D01*
X142234880Y-120197619D01*
X142234880Y-120292857D01*
X142282500Y-120435714D01*
X142330119Y-120483333D01*
X142234880Y-121340476D02*
X142234880Y-121150000D01*
X142282500Y-121054761D01*
X142330119Y-121007142D01*
X142472976Y-120911904D01*
X142663452Y-120864285D01*
X143044404Y-120864285D01*
X143139642Y-120911904D01*
X143187261Y-120959523D01*
X143234880Y-121054761D01*
X143234880Y-121245238D01*
X143187261Y-121340476D01*
X143139642Y-121388095D01*
X143044404Y-121435714D01*
X142806309Y-121435714D01*
X142711071Y-121388095D01*
X142663452Y-121340476D01*
X142615833Y-121245238D01*
X142615833Y-121054761D01*
X142663452Y-120959523D01*
X142711071Y-120911904D01*
X142806309Y-120864285D01*
G04 #@! TO.C,C5*
X151772916Y-101070892D02*
X151820535Y-101118511D01*
X151963392Y-101166130D01*
X152058630Y-101166130D01*
X152201488Y-101118511D01*
X152296726Y-101023273D01*
X152344345Y-100928035D01*
X152391964Y-100737559D01*
X152391964Y-100594702D01*
X152344345Y-100404226D01*
X152296726Y-100308988D01*
X152201488Y-100213750D01*
X152058630Y-100166130D01*
X151963392Y-100166130D01*
X151820535Y-100213750D01*
X151772916Y-100261369D01*
X150868154Y-100166130D02*
X151344345Y-100166130D01*
X151391964Y-100642321D01*
X151344345Y-100594702D01*
X151249107Y-100547083D01*
X151011011Y-100547083D01*
X150915773Y-100594702D01*
X150868154Y-100642321D01*
X150820535Y-100737559D01*
X150820535Y-100975654D01*
X150868154Y-101070892D01*
X150915773Y-101118511D01*
X151011011Y-101166130D01*
X151249107Y-101166130D01*
X151344345Y-101118511D01*
X151391964Y-101070892D01*
G04 #@! TO.C,C4*
X152226323Y-119187618D02*
X152273942Y-119235237D01*
X152416799Y-119282856D01*
X152512037Y-119282856D01*
X152654895Y-119235237D01*
X152750133Y-119139999D01*
X152797752Y-119044761D01*
X152845371Y-118854285D01*
X152845371Y-118711428D01*
X152797752Y-118520952D01*
X152750133Y-118425714D01*
X152654895Y-118330476D01*
X152512037Y-118282856D01*
X152416799Y-118282856D01*
X152273942Y-118330476D01*
X152226323Y-118378095D01*
X151369180Y-118616190D02*
X151369180Y-119282856D01*
X151607276Y-118235237D02*
X151845371Y-118949523D01*
X151226323Y-118949523D01*
G04 #@! TO.C,C3*
X148441666Y-117924642D02*
X148489285Y-117972261D01*
X148632142Y-118019880D01*
X148727380Y-118019880D01*
X148870238Y-117972261D01*
X148965476Y-117877023D01*
X149013095Y-117781785D01*
X149060714Y-117591309D01*
X149060714Y-117448452D01*
X149013095Y-117257976D01*
X148965476Y-117162738D01*
X148870238Y-117067500D01*
X148727380Y-117019880D01*
X148632142Y-117019880D01*
X148489285Y-117067500D01*
X148441666Y-117115119D01*
X148108333Y-117019880D02*
X147489285Y-117019880D01*
X147822619Y-117400833D01*
X147679761Y-117400833D01*
X147584523Y-117448452D01*
X147536904Y-117496071D01*
X147489285Y-117591309D01*
X147489285Y-117829404D01*
X147536904Y-117924642D01*
X147584523Y-117972261D01*
X147679761Y-118019880D01*
X147965476Y-118019880D01*
X148060714Y-117972261D01*
X148108333Y-117924642D01*
G04 #@! TO.C,C2*
X132566666Y-118533392D02*
X132614285Y-118581011D01*
X132757142Y-118628630D01*
X132852380Y-118628630D01*
X132995238Y-118581011D01*
X133090476Y-118485773D01*
X133138095Y-118390535D01*
X133185714Y-118200059D01*
X133185714Y-118057202D01*
X133138095Y-117866726D01*
X133090476Y-117771488D01*
X132995238Y-117676250D01*
X132852380Y-117628630D01*
X132757142Y-117628630D01*
X132614285Y-117676250D01*
X132566666Y-117723869D01*
X132185714Y-117723869D02*
X132138095Y-117676250D01*
X132042857Y-117628630D01*
X131804761Y-117628630D01*
X131709523Y-117676250D01*
X131661904Y-117723869D01*
X131614285Y-117819107D01*
X131614285Y-117914345D01*
X131661904Y-118057202D01*
X132233333Y-118628630D01*
X131614285Y-118628630D01*
G04 #@! TO.C,C1*
X148087142Y-106195833D02*
X148134761Y-106148214D01*
X148182380Y-106005357D01*
X148182380Y-105910119D01*
X148134761Y-105767261D01*
X148039523Y-105672023D01*
X147944285Y-105624404D01*
X147753809Y-105576785D01*
X147610952Y-105576785D01*
X147420476Y-105624404D01*
X147325238Y-105672023D01*
X147230000Y-105767261D01*
X147182380Y-105910119D01*
X147182380Y-106005357D01*
X147230000Y-106148214D01*
X147277619Y-106195833D01*
X148182380Y-107148214D02*
X148182380Y-106576785D01*
X148182380Y-106862500D02*
X147182380Y-106862500D01*
X147325238Y-106767261D01*
X147420476Y-106672023D01*
X147468095Y-106576785D01*
G04 #@! TD*
%LPC*%
D12*
G04 #@! TO.C,U1*
X138875800Y-111092180D03*
G36*
G01*
X141688300Y-112967180D02*
X140938300Y-112967180D01*
G75*
G02*
X140875800Y-112904680I0J62500D01*
G01*
X140875800Y-112779680D01*
G75*
G02*
X140938300Y-112717180I62500J0D01*
G01*
X141688300Y-112717180D01*
G75*
G02*
X141750800Y-112779680I0J-62500D01*
G01*
X141750800Y-112904680D01*
G75*
G02*
X141688300Y-112967180I-62500J0D01*
G01*
G37*
G36*
G01*
X141688300Y-112467180D02*
X140938300Y-112467180D01*
G75*
G02*
X140875800Y-112404680I0J62500D01*
G01*
X140875800Y-112279680D01*
G75*
G02*
X140938300Y-112217180I62500J0D01*
G01*
X141688300Y-112217180D01*
G75*
G02*
X141750800Y-112279680I0J-62500D01*
G01*
X141750800Y-112404680D01*
G75*
G02*
X141688300Y-112467180I-62500J0D01*
G01*
G37*
G36*
G01*
X141688300Y-111967180D02*
X140938300Y-111967180D01*
G75*
G02*
X140875800Y-111904680I0J62500D01*
G01*
X140875800Y-111779680D01*
G75*
G02*
X140938300Y-111717180I62500J0D01*
G01*
X141688300Y-111717180D01*
G75*
G02*
X141750800Y-111779680I0J-62500D01*
G01*
X141750800Y-111904680D01*
G75*
G02*
X141688300Y-111967180I-62500J0D01*
G01*
G37*
G36*
G01*
X141688300Y-111467180D02*
X140938300Y-111467180D01*
G75*
G02*
X140875800Y-111404680I0J62500D01*
G01*
X140875800Y-111279680D01*
G75*
G02*
X140938300Y-111217180I62500J0D01*
G01*
X141688300Y-111217180D01*
G75*
G02*
X141750800Y-111279680I0J-62500D01*
G01*
X141750800Y-111404680D01*
G75*
G02*
X141688300Y-111467180I-62500J0D01*
G01*
G37*
G36*
G01*
X141688300Y-110967180D02*
X140938300Y-110967180D01*
G75*
G02*
X140875800Y-110904680I0J62500D01*
G01*
X140875800Y-110779680D01*
G75*
G02*
X140938300Y-110717180I62500J0D01*
G01*
X141688300Y-110717180D01*
G75*
G02*
X141750800Y-110779680I0J-62500D01*
G01*
X141750800Y-110904680D01*
G75*
G02*
X141688300Y-110967180I-62500J0D01*
G01*
G37*
G36*
G01*
X141688300Y-110467180D02*
X140938300Y-110467180D01*
G75*
G02*
X140875800Y-110404680I0J62500D01*
G01*
X140875800Y-110279680D01*
G75*
G02*
X140938300Y-110217180I62500J0D01*
G01*
X141688300Y-110217180D01*
G75*
G02*
X141750800Y-110279680I0J-62500D01*
G01*
X141750800Y-110404680D01*
G75*
G02*
X141688300Y-110467180I-62500J0D01*
G01*
G37*
G36*
G01*
X141688300Y-109967180D02*
X140938300Y-109967180D01*
G75*
G02*
X140875800Y-109904680I0J62500D01*
G01*
X140875800Y-109779680D01*
G75*
G02*
X140938300Y-109717180I62500J0D01*
G01*
X141688300Y-109717180D01*
G75*
G02*
X141750800Y-109779680I0J-62500D01*
G01*
X141750800Y-109904680D01*
G75*
G02*
X141688300Y-109967180I-62500J0D01*
G01*
G37*
G36*
G01*
X141688300Y-109467180D02*
X140938300Y-109467180D01*
G75*
G02*
X140875800Y-109404680I0J62500D01*
G01*
X140875800Y-109279680D01*
G75*
G02*
X140938300Y-109217180I62500J0D01*
G01*
X141688300Y-109217180D01*
G75*
G02*
X141750800Y-109279680I0J-62500D01*
G01*
X141750800Y-109404680D01*
G75*
G02*
X141688300Y-109467180I-62500J0D01*
G01*
G37*
G36*
G01*
X140688300Y-109092180D02*
X140563300Y-109092180D01*
G75*
G02*
X140500800Y-109029680I0J62500D01*
G01*
X140500800Y-108279680D01*
G75*
G02*
X140563300Y-108217180I62500J0D01*
G01*
X140688300Y-108217180D01*
G75*
G02*
X140750800Y-108279680I0J-62500D01*
G01*
X140750800Y-109029680D01*
G75*
G02*
X140688300Y-109092180I-62500J0D01*
G01*
G37*
G36*
G01*
X140188300Y-109092180D02*
X140063300Y-109092180D01*
G75*
G02*
X140000800Y-109029680I0J62500D01*
G01*
X140000800Y-108279680D01*
G75*
G02*
X140063300Y-108217180I62500J0D01*
G01*
X140188300Y-108217180D01*
G75*
G02*
X140250800Y-108279680I0J-62500D01*
G01*
X140250800Y-109029680D01*
G75*
G02*
X140188300Y-109092180I-62500J0D01*
G01*
G37*
G36*
G01*
X139688300Y-109092180D02*
X139563300Y-109092180D01*
G75*
G02*
X139500800Y-109029680I0J62500D01*
G01*
X139500800Y-108279680D01*
G75*
G02*
X139563300Y-108217180I62500J0D01*
G01*
X139688300Y-108217180D01*
G75*
G02*
X139750800Y-108279680I0J-62500D01*
G01*
X139750800Y-109029680D01*
G75*
G02*
X139688300Y-109092180I-62500J0D01*
G01*
G37*
G36*
G01*
X139188300Y-109092180D02*
X139063300Y-109092180D01*
G75*
G02*
X139000800Y-109029680I0J62500D01*
G01*
X139000800Y-108279680D01*
G75*
G02*
X139063300Y-108217180I62500J0D01*
G01*
X139188300Y-108217180D01*
G75*
G02*
X139250800Y-108279680I0J-62500D01*
G01*
X139250800Y-109029680D01*
G75*
G02*
X139188300Y-109092180I-62500J0D01*
G01*
G37*
G36*
G01*
X138688300Y-109092180D02*
X138563300Y-109092180D01*
G75*
G02*
X138500800Y-109029680I0J62500D01*
G01*
X138500800Y-108279680D01*
G75*
G02*
X138563300Y-108217180I62500J0D01*
G01*
X138688300Y-108217180D01*
G75*
G02*
X138750800Y-108279680I0J-62500D01*
G01*
X138750800Y-109029680D01*
G75*
G02*
X138688300Y-109092180I-62500J0D01*
G01*
G37*
G36*
G01*
X138188300Y-109092180D02*
X138063300Y-109092180D01*
G75*
G02*
X138000800Y-109029680I0J62500D01*
G01*
X138000800Y-108279680D01*
G75*
G02*
X138063300Y-108217180I62500J0D01*
G01*
X138188300Y-108217180D01*
G75*
G02*
X138250800Y-108279680I0J-62500D01*
G01*
X138250800Y-109029680D01*
G75*
G02*
X138188300Y-109092180I-62500J0D01*
G01*
G37*
G36*
G01*
X137688300Y-109092180D02*
X137563300Y-109092180D01*
G75*
G02*
X137500800Y-109029680I0J62500D01*
G01*
X137500800Y-108279680D01*
G75*
G02*
X137563300Y-108217180I62500J0D01*
G01*
X137688300Y-108217180D01*
G75*
G02*
X137750800Y-108279680I0J-62500D01*
G01*
X137750800Y-109029680D01*
G75*
G02*
X137688300Y-109092180I-62500J0D01*
G01*
G37*
G36*
G01*
X137188300Y-109092180D02*
X137063300Y-109092180D01*
G75*
G02*
X137000800Y-109029680I0J62500D01*
G01*
X137000800Y-108279680D01*
G75*
G02*
X137063300Y-108217180I62500J0D01*
G01*
X137188300Y-108217180D01*
G75*
G02*
X137250800Y-108279680I0J-62500D01*
G01*
X137250800Y-109029680D01*
G75*
G02*
X137188300Y-109092180I-62500J0D01*
G01*
G37*
G36*
G01*
X136813300Y-109467180D02*
X136063300Y-109467180D01*
G75*
G02*
X136000800Y-109404680I0J62500D01*
G01*
X136000800Y-109279680D01*
G75*
G02*
X136063300Y-109217180I62500J0D01*
G01*
X136813300Y-109217180D01*
G75*
G02*
X136875800Y-109279680I0J-62500D01*
G01*
X136875800Y-109404680D01*
G75*
G02*
X136813300Y-109467180I-62500J0D01*
G01*
G37*
G36*
G01*
X136813300Y-109967180D02*
X136063300Y-109967180D01*
G75*
G02*
X136000800Y-109904680I0J62500D01*
G01*
X136000800Y-109779680D01*
G75*
G02*
X136063300Y-109717180I62500J0D01*
G01*
X136813300Y-109717180D01*
G75*
G02*
X136875800Y-109779680I0J-62500D01*
G01*
X136875800Y-109904680D01*
G75*
G02*
X136813300Y-109967180I-62500J0D01*
G01*
G37*
G36*
G01*
X136813300Y-110467180D02*
X136063300Y-110467180D01*
G75*
G02*
X136000800Y-110404680I0J62500D01*
G01*
X136000800Y-110279680D01*
G75*
G02*
X136063300Y-110217180I62500J0D01*
G01*
X136813300Y-110217180D01*
G75*
G02*
X136875800Y-110279680I0J-62500D01*
G01*
X136875800Y-110404680D01*
G75*
G02*
X136813300Y-110467180I-62500J0D01*
G01*
G37*
G36*
G01*
X136813300Y-110967180D02*
X136063300Y-110967180D01*
G75*
G02*
X136000800Y-110904680I0J62500D01*
G01*
X136000800Y-110779680D01*
G75*
G02*
X136063300Y-110717180I62500J0D01*
G01*
X136813300Y-110717180D01*
G75*
G02*
X136875800Y-110779680I0J-62500D01*
G01*
X136875800Y-110904680D01*
G75*
G02*
X136813300Y-110967180I-62500J0D01*
G01*
G37*
G36*
G01*
X136813300Y-111467180D02*
X136063300Y-111467180D01*
G75*
G02*
X136000800Y-111404680I0J62500D01*
G01*
X136000800Y-111279680D01*
G75*
G02*
X136063300Y-111217180I62500J0D01*
G01*
X136813300Y-111217180D01*
G75*
G02*
X136875800Y-111279680I0J-62500D01*
G01*
X136875800Y-111404680D01*
G75*
G02*
X136813300Y-111467180I-62500J0D01*
G01*
G37*
G36*
G01*
X136813300Y-111967180D02*
X136063300Y-111967180D01*
G75*
G02*
X136000800Y-111904680I0J62500D01*
G01*
X136000800Y-111779680D01*
G75*
G02*
X136063300Y-111717180I62500J0D01*
G01*
X136813300Y-111717180D01*
G75*
G02*
X136875800Y-111779680I0J-62500D01*
G01*
X136875800Y-111904680D01*
G75*
G02*
X136813300Y-111967180I-62500J0D01*
G01*
G37*
G36*
G01*
X136813300Y-112467180D02*
X136063300Y-112467180D01*
G75*
G02*
X136000800Y-112404680I0J62500D01*
G01*
X136000800Y-112279680D01*
G75*
G02*
X136063300Y-112217180I62500J0D01*
G01*
X136813300Y-112217180D01*
G75*
G02*
X136875800Y-112279680I0J-62500D01*
G01*
X136875800Y-112404680D01*
G75*
G02*
X136813300Y-112467180I-62500J0D01*
G01*
G37*
G36*
G01*
X136813300Y-112967180D02*
X136063300Y-112967180D01*
G75*
G02*
X136000800Y-112904680I0J62500D01*
G01*
X136000800Y-112779680D01*
G75*
G02*
X136063300Y-112717180I62500J0D01*
G01*
X136813300Y-112717180D01*
G75*
G02*
X136875800Y-112779680I0J-62500D01*
G01*
X136875800Y-112904680D01*
G75*
G02*
X136813300Y-112967180I-62500J0D01*
G01*
G37*
G36*
G01*
X137188300Y-113967180D02*
X137063300Y-113967180D01*
G75*
G02*
X137000800Y-113904680I0J62500D01*
G01*
X137000800Y-113154680D01*
G75*
G02*
X137063300Y-113092180I62500J0D01*
G01*
X137188300Y-113092180D01*
G75*
G02*
X137250800Y-113154680I0J-62500D01*
G01*
X137250800Y-113904680D01*
G75*
G02*
X137188300Y-113967180I-62500J0D01*
G01*
G37*
G36*
G01*
X137688300Y-113967180D02*
X137563300Y-113967180D01*
G75*
G02*
X137500800Y-113904680I0J62500D01*
G01*
X137500800Y-113154680D01*
G75*
G02*
X137563300Y-113092180I62500J0D01*
G01*
X137688300Y-113092180D01*
G75*
G02*
X137750800Y-113154680I0J-62500D01*
G01*
X137750800Y-113904680D01*
G75*
G02*
X137688300Y-113967180I-62500J0D01*
G01*
G37*
G36*
G01*
X138188300Y-113967180D02*
X138063300Y-113967180D01*
G75*
G02*
X138000800Y-113904680I0J62500D01*
G01*
X138000800Y-113154680D01*
G75*
G02*
X138063300Y-113092180I62500J0D01*
G01*
X138188300Y-113092180D01*
G75*
G02*
X138250800Y-113154680I0J-62500D01*
G01*
X138250800Y-113904680D01*
G75*
G02*
X138188300Y-113967180I-62500J0D01*
G01*
G37*
G36*
G01*
X138688300Y-113967180D02*
X138563300Y-113967180D01*
G75*
G02*
X138500800Y-113904680I0J62500D01*
G01*
X138500800Y-113154680D01*
G75*
G02*
X138563300Y-113092180I62500J0D01*
G01*
X138688300Y-113092180D01*
G75*
G02*
X138750800Y-113154680I0J-62500D01*
G01*
X138750800Y-113904680D01*
G75*
G02*
X138688300Y-113967180I-62500J0D01*
G01*
G37*
G36*
G01*
X139188300Y-113967180D02*
X139063300Y-113967180D01*
G75*
G02*
X139000800Y-113904680I0J62500D01*
G01*
X139000800Y-113154680D01*
G75*
G02*
X139063300Y-113092180I62500J0D01*
G01*
X139188300Y-113092180D01*
G75*
G02*
X139250800Y-113154680I0J-62500D01*
G01*
X139250800Y-113904680D01*
G75*
G02*
X139188300Y-113967180I-62500J0D01*
G01*
G37*
G36*
G01*
X139688300Y-113967180D02*
X139563300Y-113967180D01*
G75*
G02*
X139500800Y-113904680I0J62500D01*
G01*
X139500800Y-113154680D01*
G75*
G02*
X139563300Y-113092180I62500J0D01*
G01*
X139688300Y-113092180D01*
G75*
G02*
X139750800Y-113154680I0J-62500D01*
G01*
X139750800Y-113904680D01*
G75*
G02*
X139688300Y-113967180I-62500J0D01*
G01*
G37*
G36*
G01*
X140188300Y-113967180D02*
X140063300Y-113967180D01*
G75*
G02*
X140000800Y-113904680I0J62500D01*
G01*
X140000800Y-113154680D01*
G75*
G02*
X140063300Y-113092180I62500J0D01*
G01*
X140188300Y-113092180D01*
G75*
G02*
X140250800Y-113154680I0J-62500D01*
G01*
X140250800Y-113904680D01*
G75*
G02*
X140188300Y-113967180I-62500J0D01*
G01*
G37*
G36*
G01*
X140688300Y-113967180D02*
X140563300Y-113967180D01*
G75*
G02*
X140500800Y-113904680I0J62500D01*
G01*
X140500800Y-113154680D01*
G75*
G02*
X140563300Y-113092180I62500J0D01*
G01*
X140688300Y-113092180D01*
G75*
G02*
X140750800Y-113154680I0J-62500D01*
G01*
X140750800Y-113904680D01*
G75*
G02*
X140688300Y-113967180I-62500J0D01*
G01*
G37*
G04 #@! TD*
D13*
G04 #@! TO.C,MX45*
X163671250Y-109220000D03*
D14*
X161131250Y-114300000D03*
D13*
X157321250Y-111760000D03*
D15*
X156051250Y-114300000D03*
X166211250Y-114300000D03*
D16*
X149225000Y-121285000D03*
X173037500Y-121285000D03*
D14*
X149225000Y-106045000D03*
X173037500Y-106045000D03*
G04 #@! TD*
D13*
G04 #@! TO.C,MX44*
X116046250Y-109220000D03*
D14*
X113506250Y-114300000D03*
D13*
X109696250Y-111760000D03*
D15*
X108426250Y-114300000D03*
X118586250Y-114300000D03*
D16*
X101600000Y-121285000D03*
X125412500Y-121285000D03*
D14*
X101600000Y-106045000D03*
X125412500Y-106045000D03*
G04 #@! TD*
D13*
G04 #@! TO.C,MX32*
X118427500Y-90170000D03*
D14*
X115887500Y-95250000D03*
D13*
X112077500Y-92710000D03*
D15*
X110807500Y-95250000D03*
X120967500Y-95250000D03*
G04 #@! TD*
D13*
G04 #@! TO.C,MX41*
X30321250Y-109220000D03*
D14*
X27781250Y-114300000D03*
D13*
X23971250Y-111760000D03*
D15*
X22701250Y-114300000D03*
X32861250Y-114300000D03*
G04 #@! TD*
D13*
G04 #@! TO.C,MX49*
X275590000Y-109220000D03*
D14*
X273050000Y-114300000D03*
D13*
X269240000Y-111760000D03*
D15*
X267970000Y-114300000D03*
X278130000Y-114300000D03*
G04 #@! TD*
D13*
G04 #@! TO.C,MX21*
X147002500Y-71120000D03*
D14*
X144462500Y-76200000D03*
D13*
X140652500Y-73660000D03*
D15*
X139382500Y-76200000D03*
X149542500Y-76200000D03*
G04 #@! TD*
D13*
G04 #@! TO.C,MX35*
X175577500Y-90170000D03*
D14*
X173037500Y-95250000D03*
D13*
X169227500Y-92710000D03*
D15*
X167957500Y-95250000D03*
X178117500Y-95250000D03*
G04 #@! TD*
D13*
G04 #@! TO.C,MX14*
X275590000Y-52070000D03*
D14*
X273050000Y-57150000D03*
D13*
X269240000Y-54610000D03*
D15*
X267970000Y-57150000D03*
X278130000Y-57150000D03*
G04 #@! TD*
D13*
G04 #@! TO.C,MX3*
X66040000Y-52070000D03*
D14*
X63500000Y-57150000D03*
D13*
X59690000Y-54610000D03*
D15*
X58420000Y-57150000D03*
X68580000Y-57150000D03*
G04 #@! TD*
D13*
G04 #@! TO.C,MX30*
X80327500Y-90170000D03*
D14*
X77787500Y-95250000D03*
D13*
X73977500Y-92710000D03*
D15*
X72707500Y-95250000D03*
X82867500Y-95250000D03*
G04 #@! TD*
D13*
G04 #@! TO.C,MX42*
X56515000Y-109220000D03*
D14*
X53975000Y-114300000D03*
D13*
X50165000Y-111760000D03*
D15*
X48895000Y-114300000D03*
X59055000Y-114300000D03*
G04 #@! TD*
D17*
G04 #@! TO.C,Y1*
X137500000Y-121430077D03*
X139700000Y-121430077D03*
X139700000Y-119730077D03*
X137500000Y-119730077D03*
G04 #@! TD*
D18*
G04 #@! TO.C,U2*
X166049999Y-105534811D03*
X165099999Y-105534811D03*
X166999999Y-105534811D03*
X166999999Y-103334811D03*
X166049999Y-103334811D03*
X165099999Y-103334811D03*
G04 #@! TD*
D19*
G04 #@! TO.C,SW1*
X150887500Y-83081250D03*
X157087500Y-86781250D03*
X150887500Y-86781250D03*
X157087500Y-83081250D03*
G04 #@! TD*
G04 #@! TO.C,R4*
G36*
G01*
X138456248Y-102912500D02*
X139356252Y-102912500D01*
G75*
G02*
X139606250Y-103162498I0J-249998D01*
G01*
X139606250Y-103687502D01*
G75*
G02*
X139356252Y-103937500I-249998J0D01*
G01*
X138456248Y-103937500D01*
G75*
G02*
X138206250Y-103687502I0J249998D01*
G01*
X138206250Y-103162498D01*
G75*
G02*
X138456248Y-102912500I249998J0D01*
G01*
G37*
G36*
G01*
X138456248Y-101087500D02*
X139356252Y-101087500D01*
G75*
G02*
X139606250Y-101337498I0J-249998D01*
G01*
X139606250Y-101862502D01*
G75*
G02*
X139356252Y-102112500I-249998J0D01*
G01*
X138456248Y-102112500D01*
G75*
G02*
X138206250Y-101862502I0J249998D01*
G01*
X138206250Y-101337498D01*
G75*
G02*
X138456248Y-101087500I249998J0D01*
G01*
G37*
G04 #@! TD*
G04 #@! TO.C,R3*
G36*
G01*
X158356250Y-106018752D02*
X158356250Y-105118748D01*
G75*
G02*
X158606248Y-104868750I249998J0D01*
G01*
X159131252Y-104868750D01*
G75*
G02*
X159381250Y-105118748I0J-249998D01*
G01*
X159381250Y-106018752D01*
G75*
G02*
X159131252Y-106268750I-249998J0D01*
G01*
X158606248Y-106268750D01*
G75*
G02*
X158356250Y-106018752I0J249998D01*
G01*
G37*
G36*
G01*
X156531250Y-106018752D02*
X156531250Y-105118748D01*
G75*
G02*
X156781248Y-104868750I249998J0D01*
G01*
X157306252Y-104868750D01*
G75*
G02*
X157556250Y-105118748I0J-249998D01*
G01*
X157556250Y-106018752D01*
G75*
G02*
X157306252Y-106268750I-249998J0D01*
G01*
X156781248Y-106268750D01*
G75*
G02*
X156531250Y-106018752I0J249998D01*
G01*
G37*
G04 #@! TD*
G04 #@! TO.C,R2*
G36*
G01*
X158356250Y-103637502D02*
X158356250Y-102737498D01*
G75*
G02*
X158606248Y-102487500I249998J0D01*
G01*
X159131252Y-102487500D01*
G75*
G02*
X159381250Y-102737498I0J-249998D01*
G01*
X159381250Y-103637502D01*
G75*
G02*
X159131252Y-103887500I-249998J0D01*
G01*
X158606248Y-103887500D01*
G75*
G02*
X158356250Y-103637502I0J249998D01*
G01*
G37*
G36*
G01*
X156531250Y-103637502D02*
X156531250Y-102737498D01*
G75*
G02*
X156781248Y-102487500I249998J0D01*
G01*
X157306252Y-102487500D01*
G75*
G02*
X157556250Y-102737498I0J-249998D01*
G01*
X157556250Y-103637502D01*
G75*
G02*
X157306252Y-103887500I-249998J0D01*
G01*
X156781248Y-103887500D01*
G75*
G02*
X156531250Y-103637502I0J249998D01*
G01*
G37*
G04 #@! TD*
G04 #@! TO.C,R1*
G36*
G01*
X131250000Y-106812502D02*
X131250000Y-105912498D01*
G75*
G02*
X131499998Y-105662500I249998J0D01*
G01*
X132025002Y-105662500D01*
G75*
G02*
X132275000Y-105912498I0J-249998D01*
G01*
X132275000Y-106812502D01*
G75*
G02*
X132025002Y-107062500I-249998J0D01*
G01*
X131499998Y-107062500D01*
G75*
G02*
X131250000Y-106812502I0J249998D01*
G01*
G37*
G36*
G01*
X129425000Y-106812502D02*
X129425000Y-105912498D01*
G75*
G02*
X129674998Y-105662500I249998J0D01*
G01*
X130200002Y-105662500D01*
G75*
G02*
X130450000Y-105912498I0J-249998D01*
G01*
X130450000Y-106812502D01*
G75*
G02*
X130200002Y-107062500I-249998J0D01*
G01*
X129674998Y-107062500D01*
G75*
G02*
X129425000Y-106812502I0J249998D01*
G01*
G37*
G04 #@! TD*
D13*
G04 #@! TO.C,MX48*
X254158750Y-109220000D03*
D14*
X251618750Y-114300000D03*
D13*
X247808750Y-111760000D03*
D15*
X246538750Y-114300000D03*
X256698750Y-114300000D03*
G04 #@! TD*
D13*
G04 #@! TO.C,MX47*
X227965000Y-109220000D03*
D14*
X225425000Y-114300000D03*
D13*
X221615000Y-111760000D03*
D15*
X220345000Y-114300000D03*
X230505000Y-114300000D03*
G04 #@! TD*
D13*
G04 #@! TO.C,MX46*
X201771250Y-109220000D03*
D14*
X199231250Y-114300000D03*
D13*
X195421250Y-111760000D03*
D15*
X194151250Y-114300000D03*
X204311250Y-114300000D03*
G04 #@! TD*
D13*
G04 #@! TO.C,MX43*
X82708750Y-109220000D03*
D14*
X80168750Y-114300000D03*
D13*
X76358750Y-111760000D03*
D15*
X75088750Y-114300000D03*
X85248750Y-114300000D03*
G04 #@! TD*
D13*
G04 #@! TO.C,MX40*
X275590000Y-90170000D03*
D14*
X273050000Y-95250000D03*
D13*
X269240000Y-92710000D03*
D15*
X267970000Y-95250000D03*
X278130000Y-95250000D03*
G04 #@! TD*
D13*
G04 #@! TO.C,MX39*
X254158750Y-90170000D03*
D14*
X251618750Y-95250000D03*
D13*
X247808750Y-92710000D03*
D15*
X246538750Y-95250000D03*
X256698750Y-95250000D03*
G04 #@! TD*
D13*
G04 #@! TO.C,MX38*
X232727500Y-90170000D03*
D14*
X230187500Y-95250000D03*
D13*
X226377500Y-92710000D03*
D15*
X225107500Y-95250000D03*
X235267500Y-95250000D03*
G04 #@! TD*
D13*
G04 #@! TO.C,MX37*
X213677500Y-90170000D03*
D14*
X211137500Y-95250000D03*
D13*
X207327500Y-92710000D03*
D15*
X206057500Y-95250000D03*
X216217500Y-95250000D03*
G04 #@! TD*
D13*
G04 #@! TO.C,MX36*
X194627500Y-90170000D03*
D14*
X192087500Y-95250000D03*
D13*
X188277500Y-92710000D03*
D15*
X187007500Y-95250000D03*
X197167500Y-95250000D03*
G04 #@! TD*
D13*
G04 #@! TO.C,MX34*
X156527500Y-90170000D03*
D14*
X153987500Y-95250000D03*
D13*
X150177500Y-92710000D03*
D15*
X148907500Y-95250000D03*
X159067500Y-95250000D03*
G04 #@! TD*
D13*
G04 #@! TO.C,MX33*
X137477500Y-90170000D03*
D14*
X134937500Y-95250000D03*
D13*
X131127500Y-92710000D03*
D15*
X129857500Y-95250000D03*
X140017500Y-95250000D03*
G04 #@! TD*
D13*
G04 #@! TO.C,MX31*
X99377500Y-90170000D03*
D14*
X96837500Y-95250000D03*
D13*
X93027500Y-92710000D03*
D15*
X91757500Y-95250000D03*
X101917500Y-95250000D03*
G04 #@! TD*
D13*
G04 #@! TO.C,MX29*
X61277500Y-90170000D03*
D14*
X58737500Y-95250000D03*
D13*
X54927500Y-92710000D03*
D15*
X53657500Y-95250000D03*
X63817500Y-95250000D03*
G04 #@! TD*
D13*
G04 #@! TO.C,MX28*
X35083750Y-90170000D03*
D14*
X32543750Y-95250000D03*
D13*
X28733750Y-92710000D03*
D15*
X27463750Y-95250000D03*
X37623750Y-95250000D03*
G04 #@! TD*
D13*
G04 #@! TO.C,MX27*
X268446250Y-71120000D03*
D14*
X265906250Y-76200000D03*
D13*
X262096250Y-73660000D03*
D15*
X260826250Y-76200000D03*
X270986250Y-76200000D03*
G04 #@! TD*
D13*
G04 #@! TO.C,MX26*
X242252500Y-71120000D03*
D14*
X239712500Y-76200000D03*
D13*
X235902500Y-73660000D03*
D15*
X234632500Y-76200000D03*
X244792500Y-76200000D03*
G04 #@! TD*
D13*
G04 #@! TO.C,MX25*
X223202500Y-71120000D03*
D14*
X220662500Y-76200000D03*
D13*
X216852500Y-73660000D03*
D15*
X215582500Y-76200000D03*
X225742500Y-76200000D03*
G04 #@! TD*
D13*
G04 #@! TO.C,MX24*
X204152500Y-71120000D03*
D14*
X201612500Y-76200000D03*
D13*
X197802500Y-73660000D03*
D15*
X196532500Y-76200000D03*
X206692500Y-76200000D03*
G04 #@! TD*
D13*
G04 #@! TO.C,MX23*
X185102500Y-71120000D03*
D14*
X182562500Y-76200000D03*
D13*
X178752500Y-73660000D03*
D15*
X177482500Y-76200000D03*
X187642500Y-76200000D03*
G04 #@! TD*
D13*
G04 #@! TO.C,MX22*
X166052500Y-71120000D03*
D14*
X163512500Y-76200000D03*
D13*
X159702500Y-73660000D03*
D15*
X158432500Y-76200000D03*
X168592500Y-76200000D03*
G04 #@! TD*
D13*
G04 #@! TO.C,MX20*
X127952500Y-71120000D03*
D14*
X125412500Y-76200000D03*
D13*
X121602500Y-73660000D03*
D15*
X120332500Y-76200000D03*
X130492500Y-76200000D03*
G04 #@! TD*
D13*
G04 #@! TO.C,MX19*
X108902500Y-71120000D03*
D14*
X106362500Y-76200000D03*
D13*
X102552500Y-73660000D03*
D15*
X101282500Y-76200000D03*
X111442500Y-76200000D03*
G04 #@! TD*
D13*
G04 #@! TO.C,MX18*
X89852500Y-71120000D03*
D14*
X87312500Y-76200000D03*
D13*
X83502500Y-73660000D03*
D15*
X82232500Y-76200000D03*
X92392500Y-76200000D03*
G04 #@! TD*
D13*
G04 #@! TO.C,MX17*
X70802500Y-71120000D03*
D14*
X68262500Y-76200000D03*
D13*
X64452500Y-73660000D03*
D15*
X63182500Y-76200000D03*
X73342500Y-76200000D03*
G04 #@! TD*
D13*
G04 #@! TO.C,MX16*
X51752500Y-71120000D03*
D14*
X49212500Y-76200000D03*
D13*
X45402500Y-73660000D03*
D15*
X44132500Y-76200000D03*
X54292500Y-76200000D03*
G04 #@! TD*
D13*
G04 #@! TO.C,MX15*
X30321250Y-71120000D03*
D14*
X27781250Y-76200000D03*
D13*
X23971250Y-73660000D03*
D15*
X22701250Y-76200000D03*
X32861250Y-76200000D03*
G04 #@! TD*
D13*
G04 #@! TO.C,MX13*
X256540000Y-52070000D03*
D14*
X254000000Y-57150000D03*
D13*
X250190000Y-54610000D03*
D15*
X248920000Y-57150000D03*
X259080000Y-57150000D03*
G04 #@! TD*
D13*
G04 #@! TO.C,MX12*
X237490000Y-52070000D03*
D14*
X234950000Y-57150000D03*
D13*
X231140000Y-54610000D03*
D15*
X229870000Y-57150000D03*
X240030000Y-57150000D03*
G04 #@! TD*
D13*
G04 #@! TO.C,MX11*
X218440000Y-52070000D03*
D14*
X215900000Y-57150000D03*
D13*
X212090000Y-54610000D03*
D15*
X210820000Y-57150000D03*
X220980000Y-57150000D03*
G04 #@! TD*
D13*
G04 #@! TO.C,MX10*
X199390000Y-52070000D03*
D14*
X196850000Y-57150000D03*
D13*
X193040000Y-54610000D03*
D15*
X191770000Y-57150000D03*
X201930000Y-57150000D03*
G04 #@! TD*
D13*
G04 #@! TO.C,MX9*
X180340000Y-52070000D03*
D14*
X177800000Y-57150000D03*
D13*
X173990000Y-54610000D03*
D15*
X172720000Y-57150000D03*
X182880000Y-57150000D03*
G04 #@! TD*
D13*
G04 #@! TO.C,MX8*
X161290000Y-52070000D03*
D14*
X158750000Y-57150000D03*
D13*
X154940000Y-54610000D03*
D15*
X153670000Y-57150000D03*
X163830000Y-57150000D03*
G04 #@! TD*
D13*
G04 #@! TO.C,MX7*
X142240000Y-52070000D03*
D14*
X139700000Y-57150000D03*
D13*
X135890000Y-54610000D03*
D15*
X134620000Y-57150000D03*
X144780000Y-57150000D03*
G04 #@! TD*
D13*
G04 #@! TO.C,MX6*
X123190000Y-52070000D03*
D14*
X120650000Y-57150000D03*
D13*
X116840000Y-54610000D03*
D15*
X115570000Y-57150000D03*
X125730000Y-57150000D03*
G04 #@! TD*
D13*
G04 #@! TO.C,MX5*
X104140000Y-52070000D03*
D14*
X101600000Y-57150000D03*
D13*
X97790000Y-54610000D03*
D15*
X96520000Y-57150000D03*
X106680000Y-57150000D03*
G04 #@! TD*
D13*
G04 #@! TO.C,MX4*
X85090000Y-52070000D03*
D14*
X82550000Y-57150000D03*
D13*
X78740000Y-54610000D03*
D15*
X77470000Y-57150000D03*
X87630000Y-57150000D03*
G04 #@! TD*
D13*
G04 #@! TO.C,MX2*
X46990000Y-52070000D03*
D14*
X44450000Y-57150000D03*
D13*
X40640000Y-54610000D03*
D15*
X39370000Y-57150000D03*
X49530000Y-57150000D03*
G04 #@! TD*
D13*
G04 #@! TO.C,MX1*
X27940000Y-52070000D03*
D14*
X25400000Y-57150000D03*
D13*
X21590000Y-54610000D03*
D15*
X20320000Y-57150000D03*
X30480000Y-57150000D03*
G04 #@! TD*
D20*
G04 #@! TO.C,J1*
X182268750Y-106375000D03*
X183268750Y-106375000D03*
X181268750Y-106375000D03*
X180268750Y-106375000D03*
D21*
X178968750Y-102500000D03*
X184568750Y-102500000D03*
G04 #@! TD*
G04 #@! TO.C,F1*
G36*
G01*
X163681250Y-101431250D02*
X163681250Y-100181250D01*
G75*
G02*
X163931250Y-99931250I250000J0D01*
G01*
X164681250Y-99931250D01*
G75*
G02*
X164931250Y-100181250I0J-250000D01*
G01*
X164931250Y-101431250D01*
G75*
G02*
X164681250Y-101681250I-250000J0D01*
G01*
X163931250Y-101681250D01*
G75*
G02*
X163681250Y-101431250I0J250000D01*
G01*
G37*
G36*
G01*
X160881250Y-101431250D02*
X160881250Y-100181250D01*
G75*
G02*
X161131250Y-99931250I250000J0D01*
G01*
X161881250Y-99931250D01*
G75*
G02*
X162131250Y-100181250I0J-250000D01*
G01*
X162131250Y-101431250D01*
G75*
G02*
X161881250Y-101681250I-250000J0D01*
G01*
X161131250Y-101681250D01*
G75*
G02*
X160881250Y-101431250I0J250000D01*
G01*
G37*
G04 #@! TD*
D22*
G04 #@! TO.C,D49*
X280987500Y-112650000D03*
X280987500Y-115950000D03*
G04 #@! TD*
G04 #@! TO.C,D48*
X259556250Y-112650000D03*
X259556250Y-115950000D03*
G04 #@! TD*
G04 #@! TO.C,D47*
X233362500Y-112650000D03*
X233362500Y-115950000D03*
G04 #@! TD*
G04 #@! TO.C,D46*
X207168750Y-112650000D03*
X207168750Y-115950000D03*
G04 #@! TD*
G04 #@! TO.C,D45*
X169068750Y-112650000D03*
X169068750Y-115950000D03*
G04 #@! TD*
G04 #@! TO.C,D44*
X121443750Y-112650000D03*
X121443750Y-115950000D03*
G04 #@! TD*
G04 #@! TO.C,D43*
X88106250Y-112650000D03*
X88106250Y-115950000D03*
G04 #@! TD*
G04 #@! TO.C,D42*
X61912500Y-112650000D03*
X61912500Y-115950000D03*
G04 #@! TD*
G04 #@! TO.C,D41*
X35718750Y-112650000D03*
X35718750Y-115950000D03*
G04 #@! TD*
G04 #@! TO.C,D40*
X280987500Y-93600000D03*
X280987500Y-96900000D03*
G04 #@! TD*
G04 #@! TO.C,D39*
X259556250Y-93600000D03*
X259556250Y-96900000D03*
G04 #@! TD*
G04 #@! TO.C,D38*
X238125000Y-93600000D03*
X238125000Y-96900000D03*
G04 #@! TD*
G04 #@! TO.C,D37*
X219075000Y-93600000D03*
X219075000Y-96900000D03*
G04 #@! TD*
G04 #@! TO.C,D36*
X200025000Y-93600000D03*
X200025000Y-96900000D03*
G04 #@! TD*
G04 #@! TO.C,D35*
X180975000Y-93600000D03*
X180975000Y-96900000D03*
G04 #@! TD*
G04 #@! TO.C,D34*
X161925000Y-93600000D03*
X161925000Y-96900000D03*
G04 #@! TD*
G04 #@! TO.C,D33*
X142875000Y-93600000D03*
X142875000Y-96900000D03*
G04 #@! TD*
G04 #@! TO.C,D32*
X123825000Y-93600000D03*
X123825000Y-96900000D03*
G04 #@! TD*
G04 #@! TO.C,D31*
X104775000Y-93600000D03*
X104775000Y-96900000D03*
G04 #@! TD*
G04 #@! TO.C,D30*
X85725000Y-93600000D03*
X85725000Y-96900000D03*
G04 #@! TD*
G04 #@! TO.C,D29*
X66675000Y-93600000D03*
X66675000Y-96900000D03*
G04 #@! TD*
G04 #@! TO.C,D28*
X40481250Y-93600000D03*
X40481250Y-96900000D03*
G04 #@! TD*
G04 #@! TO.C,D27*
X273843750Y-74550000D03*
X273843750Y-77850000D03*
G04 #@! TD*
G04 #@! TO.C,D26*
X247650000Y-74550000D03*
X247650000Y-77850000D03*
G04 #@! TD*
G04 #@! TO.C,D25*
X228600000Y-74550000D03*
X228600000Y-77850000D03*
G04 #@! TD*
G04 #@! TO.C,D24*
X209550000Y-74550000D03*
X209550000Y-77850000D03*
G04 #@! TD*
G04 #@! TO.C,D23*
X190500000Y-74550000D03*
X190500000Y-77850000D03*
G04 #@! TD*
G04 #@! TO.C,D22*
X171450000Y-74550000D03*
X171450000Y-77850000D03*
G04 #@! TD*
G04 #@! TO.C,D21*
X152400000Y-74550000D03*
X152400000Y-77850000D03*
G04 #@! TD*
G04 #@! TO.C,D20*
X133350000Y-74550000D03*
X133350000Y-77850000D03*
G04 #@! TD*
G04 #@! TO.C,D19*
X114300000Y-74550000D03*
X114300000Y-77850000D03*
G04 #@! TD*
G04 #@! TO.C,D18*
X95250000Y-74550000D03*
X95250000Y-77850000D03*
G04 #@! TD*
G04 #@! TO.C,D17*
X76200000Y-74550000D03*
X76200000Y-77850000D03*
G04 #@! TD*
G04 #@! TO.C,D16*
X57150000Y-74550000D03*
X57150000Y-77850000D03*
G04 #@! TD*
G04 #@! TO.C,D15*
X35718750Y-74550000D03*
X35718750Y-77850000D03*
G04 #@! TD*
G04 #@! TO.C,D14*
X280987500Y-55500000D03*
X280987500Y-58800000D03*
G04 #@! TD*
G04 #@! TO.C,D13*
X261937500Y-55500000D03*
X261937500Y-58800000D03*
G04 #@! TD*
G04 #@! TO.C,D12*
X242887500Y-55500000D03*
X242887500Y-58800000D03*
G04 #@! TD*
G04 #@! TO.C,D11*
X223837500Y-55500000D03*
X223837500Y-58800000D03*
G04 #@! TD*
G04 #@! TO.C,D10*
X204787500Y-55500000D03*
X204787500Y-58800000D03*
G04 #@! TD*
G04 #@! TO.C,D9*
X185737500Y-55500000D03*
X185737500Y-58800000D03*
G04 #@! TD*
G04 #@! TO.C,D8*
X166687500Y-55500000D03*
X166687500Y-58800000D03*
G04 #@! TD*
G04 #@! TO.C,D7*
X147637500Y-55500000D03*
X147637500Y-58800000D03*
G04 #@! TD*
G04 #@! TO.C,D6*
X128587500Y-55500000D03*
X128587500Y-58800000D03*
G04 #@! TD*
G04 #@! TO.C,D5*
X109537500Y-55500000D03*
X109537500Y-58800000D03*
G04 #@! TD*
G04 #@! TO.C,D4*
X90487500Y-55500000D03*
X90487500Y-58800000D03*
G04 #@! TD*
G04 #@! TO.C,D3*
X71437500Y-55500000D03*
X71437500Y-58800000D03*
G04 #@! TD*
G04 #@! TO.C,D2*
X52387500Y-55500000D03*
X52387500Y-58800000D03*
G04 #@! TD*
G04 #@! TO.C,D1*
X33337500Y-55500000D03*
X33337500Y-58800000D03*
G04 #@! TD*
G04 #@! TO.C,C7*
G36*
G01*
X141606250Y-121100000D02*
X142556250Y-121100000D01*
G75*
G02*
X142806250Y-121350000I0J-250000D01*
G01*
X142806250Y-121850000D01*
G75*
G02*
X142556250Y-122100000I-250000J0D01*
G01*
X141606250Y-122100000D01*
G75*
G02*
X141356250Y-121850000I0J250000D01*
G01*
X141356250Y-121350000D01*
G75*
G02*
X141606250Y-121100000I250000J0D01*
G01*
G37*
G36*
G01*
X141606250Y-119200000D02*
X142556250Y-119200000D01*
G75*
G02*
X142806250Y-119450000I0J-250000D01*
G01*
X142806250Y-119950000D01*
G75*
G02*
X142556250Y-120200000I-250000J0D01*
G01*
X141606250Y-120200000D01*
G75*
G02*
X141356250Y-119950000I0J250000D01*
G01*
X141356250Y-119450000D01*
G75*
G02*
X141606250Y-119200000I250000J0D01*
G01*
G37*
G04 #@! TD*
G04 #@! TO.C,C6*
G36*
G01*
X143987500Y-121100000D02*
X144937500Y-121100000D01*
G75*
G02*
X145187500Y-121350000I0J-250000D01*
G01*
X145187500Y-121850000D01*
G75*
G02*
X144937500Y-122100000I-250000J0D01*
G01*
X143987500Y-122100000D01*
G75*
G02*
X143737500Y-121850000I0J250000D01*
G01*
X143737500Y-121350000D01*
G75*
G02*
X143987500Y-121100000I250000J0D01*
G01*
G37*
G36*
G01*
X143987500Y-119200000D02*
X144937500Y-119200000D01*
G75*
G02*
X145187500Y-119450000I0J-250000D01*
G01*
X145187500Y-119950000D01*
G75*
G02*
X144937500Y-120200000I-250000J0D01*
G01*
X143987500Y-120200000D01*
G75*
G02*
X143737500Y-119950000I0J250000D01*
G01*
X143737500Y-119450000D01*
G75*
G02*
X143987500Y-119200000I250000J0D01*
G01*
G37*
G04 #@! TD*
G04 #@! TO.C,C5*
G36*
G01*
X151156250Y-101918750D02*
X151156250Y-102868750D01*
G75*
G02*
X150906250Y-103118750I-250000J0D01*
G01*
X150406250Y-103118750D01*
G75*
G02*
X150156250Y-102868750I0J250000D01*
G01*
X150156250Y-101918750D01*
G75*
G02*
X150406250Y-101668750I250000J0D01*
G01*
X150906250Y-101668750D01*
G75*
G02*
X151156250Y-101918750I0J-250000D01*
G01*
G37*
G36*
G01*
X153056250Y-101918750D02*
X153056250Y-102868750D01*
G75*
G02*
X152806250Y-103118750I-250000J0D01*
G01*
X152306250Y-103118750D01*
G75*
G02*
X152056250Y-102868750I0J250000D01*
G01*
X152056250Y-101918750D01*
G75*
G02*
X152306250Y-101668750I250000J0D01*
G01*
X152806250Y-101668750D01*
G75*
G02*
X153056250Y-101918750I0J-250000D01*
G01*
G37*
G04 #@! TD*
G04 #@! TO.C,C4*
G36*
G01*
X152509657Y-117625476D02*
X152509657Y-116675476D01*
G75*
G02*
X152759657Y-116425476I250000J0D01*
G01*
X153259657Y-116425476D01*
G75*
G02*
X153509657Y-116675476I0J-250000D01*
G01*
X153509657Y-117625476D01*
G75*
G02*
X153259657Y-117875476I-250000J0D01*
G01*
X152759657Y-117875476D01*
G75*
G02*
X152509657Y-117625476I0J250000D01*
G01*
G37*
G36*
G01*
X150609657Y-117625476D02*
X150609657Y-116675476D01*
G75*
G02*
X150859657Y-116425476I250000J0D01*
G01*
X151359657Y-116425476D01*
G75*
G02*
X151609657Y-116675476I0J-250000D01*
G01*
X151609657Y-117625476D01*
G75*
G02*
X151359657Y-117875476I-250000J0D01*
G01*
X150859657Y-117875476D01*
G75*
G02*
X150609657Y-117625476I0J250000D01*
G01*
G37*
G04 #@! TD*
G04 #@! TO.C,C3*
G36*
G01*
X148725000Y-116362500D02*
X148725000Y-115412500D01*
G75*
G02*
X148975000Y-115162500I250000J0D01*
G01*
X149475000Y-115162500D01*
G75*
G02*
X149725000Y-115412500I0J-250000D01*
G01*
X149725000Y-116362500D01*
G75*
G02*
X149475000Y-116612500I-250000J0D01*
G01*
X148975000Y-116612500D01*
G75*
G02*
X148725000Y-116362500I0J250000D01*
G01*
G37*
G36*
G01*
X146825000Y-116362500D02*
X146825000Y-115412500D01*
G75*
G02*
X147075000Y-115162500I250000J0D01*
G01*
X147575000Y-115162500D01*
G75*
G02*
X147825000Y-115412500I0J-250000D01*
G01*
X147825000Y-116362500D01*
G75*
G02*
X147575000Y-116612500I-250000J0D01*
G01*
X147075000Y-116612500D01*
G75*
G02*
X146825000Y-116362500I0J250000D01*
G01*
G37*
G04 #@! TD*
G04 #@! TO.C,C2*
G36*
G01*
X131950000Y-119381250D02*
X131950000Y-120331250D01*
G75*
G02*
X131700000Y-120581250I-250000J0D01*
G01*
X131200000Y-120581250D01*
G75*
G02*
X130950000Y-120331250I0J250000D01*
G01*
X130950000Y-119381250D01*
G75*
G02*
X131200000Y-119131250I250000J0D01*
G01*
X131700000Y-119131250D01*
G75*
G02*
X131950000Y-119381250I0J-250000D01*
G01*
G37*
G36*
G01*
X133850000Y-119381250D02*
X133850000Y-120331250D01*
G75*
G02*
X133600000Y-120581250I-250000J0D01*
G01*
X133100000Y-120581250D01*
G75*
G02*
X132850000Y-120331250I0J250000D01*
G01*
X132850000Y-119381250D01*
G75*
G02*
X133100000Y-119131250I250000J0D01*
G01*
X133600000Y-119131250D01*
G75*
G02*
X133850000Y-119381250I0J-250000D01*
G01*
G37*
G04 #@! TD*
G04 #@! TO.C,C1*
G36*
G01*
X146525000Y-105912500D02*
X145575000Y-105912500D01*
G75*
G02*
X145325000Y-105662500I0J250000D01*
G01*
X145325000Y-105162500D01*
G75*
G02*
X145575000Y-104912500I250000J0D01*
G01*
X146525000Y-104912500D01*
G75*
G02*
X146775000Y-105162500I0J-250000D01*
G01*
X146775000Y-105662500D01*
G75*
G02*
X146525000Y-105912500I-250000J0D01*
G01*
G37*
G36*
G01*
X146525000Y-107812500D02*
X145575000Y-107812500D01*
G75*
G02*
X145325000Y-107562500I0J250000D01*
G01*
X145325000Y-107062500D01*
G75*
G02*
X145575000Y-106812500I250000J0D01*
G01*
X146525000Y-106812500D01*
G75*
G02*
X146775000Y-107062500I0J-250000D01*
G01*
X146775000Y-107562500D01*
G75*
G02*
X146525000Y-107812500I-250000J0D01*
G01*
G37*
G04 #@! TD*
M02*
