G04 #@! TF.GenerationSoftware,KiCad,Pcbnew,5.1.10*
G04 #@! TF.CreationDate,2021-06-17T00:43:33+09:00*
G04 #@! TF.ProjectId,bakeneko40,62616b65-6e65-46b6-9f34-302e6b696361,rev?*
G04 #@! TF.SameCoordinates,Original*
G04 #@! TF.FileFunction,Legend,Top*
G04 #@! TF.FilePolarity,Positive*
%FSLAX46Y46*%
G04 Gerber Fmt 4.6, Leading zero omitted, Abs format (unit mm)*
G04 Created by KiCad (PCBNEW 5.1.10) date 2021-06-17 00:43:33*
%MOMM*%
%LPD*%
G01*
G04 APERTURE LIST*
%ADD10C,0.250000*%
%ADD11C,0.150000*%
%ADD12C,3.987800*%
%ADD13C,1.750000*%
%ADD14C,3.048000*%
%ADD15R,1.700000X1.700000*%
%ADD16C,1.700000*%
G04 APERTURE END LIST*
D10*
G04 #@! TO.C,J2*
X94020000Y-115033750D02*
X94020000Y-112533750D01*
X99020000Y-115033750D02*
X94020000Y-115033750D01*
X99020000Y-112533750D02*
X99020000Y-115033750D01*
X94020000Y-112533750D02*
X99020000Y-112533750D01*
D11*
X90698571Y-109236130D02*
X90698571Y-108236130D01*
X91031904Y-108950416D01*
X91365238Y-108236130D01*
X91365238Y-109236130D01*
X91841428Y-109236130D02*
X91841428Y-108236130D01*
X92270000Y-109188511D02*
X92412857Y-109236130D01*
X92650952Y-109236130D01*
X92746190Y-109188511D01*
X92793809Y-109140892D01*
X92841428Y-109045654D01*
X92841428Y-108950416D01*
X92793809Y-108855178D01*
X92746190Y-108807559D01*
X92650952Y-108759940D01*
X92460476Y-108712321D01*
X92365238Y-108664702D01*
X92317619Y-108617083D01*
X92270000Y-108521845D01*
X92270000Y-108426607D01*
X92317619Y-108331369D01*
X92365238Y-108283750D01*
X92460476Y-108236130D01*
X92698571Y-108236130D01*
X92841428Y-108283750D01*
X93460476Y-108236130D02*
X93650952Y-108236130D01*
X93746190Y-108283750D01*
X93841428Y-108378988D01*
X93889047Y-108569464D01*
X93889047Y-108902797D01*
X93841428Y-109093273D01*
X93746190Y-109188511D01*
X93650952Y-109236130D01*
X93460476Y-109236130D01*
X93365238Y-109188511D01*
X93270000Y-109093273D01*
X93222380Y-108902797D01*
X93222380Y-108569464D01*
X93270000Y-108378988D01*
X93365238Y-108283750D01*
X93460476Y-108236130D01*
X99186666Y-108236130D02*
X99520000Y-109236130D01*
X99853333Y-108236130D01*
X100758095Y-109140892D02*
X100710476Y-109188511D01*
X100567619Y-109236130D01*
X100472380Y-109236130D01*
X100329523Y-109188511D01*
X100234285Y-109093273D01*
X100186666Y-108998035D01*
X100139047Y-108807559D01*
X100139047Y-108664702D01*
X100186666Y-108474226D01*
X100234285Y-108378988D01*
X100329523Y-108283750D01*
X100472380Y-108236130D01*
X100567619Y-108236130D01*
X100710476Y-108283750D01*
X100758095Y-108331369D01*
X101758095Y-109140892D02*
X101710476Y-109188511D01*
X101567619Y-109236130D01*
X101472380Y-109236130D01*
X101329523Y-109188511D01*
X101234285Y-109093273D01*
X101186666Y-108998035D01*
X101139047Y-108807559D01*
X101139047Y-108664702D01*
X101186666Y-108474226D01*
X101234285Y-108378988D01*
X101329523Y-108283750D01*
X101472380Y-108236130D01*
X101567619Y-108236130D01*
X101710476Y-108283750D01*
X101758095Y-108331369D01*
X91234285Y-111688511D02*
X91377142Y-111736130D01*
X91615238Y-111736130D01*
X91710476Y-111688511D01*
X91758095Y-111640892D01*
X91805714Y-111545654D01*
X91805714Y-111450416D01*
X91758095Y-111355178D01*
X91710476Y-111307559D01*
X91615238Y-111259940D01*
X91424761Y-111212321D01*
X91329523Y-111164702D01*
X91281904Y-111117083D01*
X91234285Y-111021845D01*
X91234285Y-110926607D01*
X91281904Y-110831369D01*
X91329523Y-110783750D01*
X91424761Y-110736130D01*
X91662857Y-110736130D01*
X91805714Y-110783750D01*
X92805714Y-111640892D02*
X92758095Y-111688511D01*
X92615238Y-111736130D01*
X92520000Y-111736130D01*
X92377142Y-111688511D01*
X92281904Y-111593273D01*
X92234285Y-111498035D01*
X92186666Y-111307559D01*
X92186666Y-111164702D01*
X92234285Y-110974226D01*
X92281904Y-110878988D01*
X92377142Y-110783750D01*
X92520000Y-110736130D01*
X92615238Y-110736130D01*
X92758095Y-110783750D01*
X92805714Y-110831369D01*
X93234285Y-111736130D02*
X93234285Y-110736130D01*
X93805714Y-111736130D02*
X93377142Y-111164702D01*
X93805714Y-110736130D02*
X93234285Y-111307559D01*
X99198571Y-111736130D02*
X99198571Y-110736130D01*
X99531904Y-111450416D01*
X99865238Y-110736130D01*
X99865238Y-111736130D01*
X100531904Y-110736130D02*
X100722380Y-110736130D01*
X100817619Y-110783750D01*
X100912857Y-110878988D01*
X100960476Y-111069464D01*
X100960476Y-111402797D01*
X100912857Y-111593273D01*
X100817619Y-111688511D01*
X100722380Y-111736130D01*
X100531904Y-111736130D01*
X100436666Y-111688511D01*
X100341428Y-111593273D01*
X100293809Y-111402797D01*
X100293809Y-111069464D01*
X100341428Y-110878988D01*
X100436666Y-110783750D01*
X100531904Y-110736130D01*
X101341428Y-111688511D02*
X101484285Y-111736130D01*
X101722380Y-111736130D01*
X101817619Y-111688511D01*
X101865238Y-111640892D01*
X101912857Y-111545654D01*
X101912857Y-111450416D01*
X101865238Y-111355178D01*
X101817619Y-111307559D01*
X101722380Y-111259940D01*
X101531904Y-111212321D01*
X101436666Y-111164702D01*
X101389047Y-111117083D01*
X101341428Y-111021845D01*
X101341428Y-110926607D01*
X101389047Y-110831369D01*
X101436666Y-110783750D01*
X101531904Y-110736130D01*
X101770000Y-110736130D01*
X101912857Y-110783750D01*
X102341428Y-111736130D02*
X102341428Y-110736130D01*
X91722380Y-114236130D02*
X91389047Y-113759940D01*
X91150952Y-114236130D02*
X91150952Y-113236130D01*
X91531904Y-113236130D01*
X91627142Y-113283750D01*
X91674761Y-113331369D01*
X91722380Y-113426607D01*
X91722380Y-113569464D01*
X91674761Y-113664702D01*
X91627142Y-113712321D01*
X91531904Y-113759940D01*
X91150952Y-113759940D01*
X92103333Y-114188511D02*
X92246190Y-114236130D01*
X92484285Y-114236130D01*
X92579523Y-114188511D01*
X92627142Y-114140892D01*
X92674761Y-114045654D01*
X92674761Y-113950416D01*
X92627142Y-113855178D01*
X92579523Y-113807559D01*
X92484285Y-113759940D01*
X92293809Y-113712321D01*
X92198571Y-113664702D01*
X92150952Y-113617083D01*
X92103333Y-113521845D01*
X92103333Y-113426607D01*
X92150952Y-113331369D01*
X92198571Y-113283750D01*
X92293809Y-113236130D01*
X92531904Y-113236130D01*
X92674761Y-113283750D01*
X92960476Y-113236130D02*
X93531904Y-113236130D01*
X93246190Y-114236130D02*
X93246190Y-113236130D01*
X100008095Y-113283750D02*
X99912857Y-113236130D01*
X99770000Y-113236130D01*
X99627142Y-113283750D01*
X99531904Y-113378988D01*
X99484285Y-113474226D01*
X99436666Y-113664702D01*
X99436666Y-113807559D01*
X99484285Y-113998035D01*
X99531904Y-114093273D01*
X99627142Y-114188511D01*
X99770000Y-114236130D01*
X99865238Y-114236130D01*
X100008095Y-114188511D01*
X100055714Y-114140892D01*
X100055714Y-113807559D01*
X99865238Y-113807559D01*
X100484285Y-114236130D02*
X100484285Y-113236130D01*
X101055714Y-114236130D01*
X101055714Y-113236130D01*
X101531904Y-114236130D02*
X101531904Y-113236130D01*
X101770000Y-113236130D01*
X101912857Y-113283750D01*
X102008095Y-113378988D01*
X102055714Y-113474226D01*
X102103333Y-113664702D01*
X102103333Y-113807559D01*
X102055714Y-113998035D01*
X102008095Y-114093273D01*
X101912857Y-114188511D01*
X101770000Y-114236130D01*
X101531904Y-114236130D01*
G04 #@! TD*
%LPC*%
D12*
G04 #@! TO.C,MX45*
X161131250Y-114300000D03*
D13*
X156051250Y-114300000D03*
X166211250Y-114300000D03*
D14*
X149225000Y-121285000D03*
X173037500Y-121285000D03*
D12*
X149225000Y-106045000D03*
X173037500Y-106045000D03*
G04 #@! TD*
G04 #@! TO.C,MX44*
X113506250Y-114300000D03*
D13*
X108426250Y-114300000D03*
X118586250Y-114300000D03*
D14*
X101600000Y-121285000D03*
X125412500Y-121285000D03*
D12*
X101600000Y-106045000D03*
X125412500Y-106045000D03*
G04 #@! TD*
G04 #@! TO.C,MX32*
X115887500Y-95250000D03*
D13*
X110807500Y-95250000D03*
X120967500Y-95250000D03*
G04 #@! TD*
D12*
G04 #@! TO.C,MX41*
X27781250Y-114300000D03*
D13*
X22701250Y-114300000D03*
X32861250Y-114300000D03*
G04 #@! TD*
D12*
G04 #@! TO.C,MX49*
X273050000Y-114300000D03*
D13*
X267970000Y-114300000D03*
X278130000Y-114300000D03*
G04 #@! TD*
D12*
G04 #@! TO.C,MX21*
X144462500Y-76200000D03*
D13*
X139382500Y-76200000D03*
X149542500Y-76200000D03*
G04 #@! TD*
D12*
G04 #@! TO.C,MX35*
X173037500Y-95250000D03*
D13*
X167957500Y-95250000D03*
X178117500Y-95250000D03*
G04 #@! TD*
D12*
G04 #@! TO.C,MX14*
X273050000Y-57150000D03*
D13*
X267970000Y-57150000D03*
X278130000Y-57150000D03*
G04 #@! TD*
D12*
G04 #@! TO.C,MX3*
X63500000Y-57150000D03*
D13*
X58420000Y-57150000D03*
X68580000Y-57150000D03*
G04 #@! TD*
D12*
G04 #@! TO.C,MX30*
X77787500Y-95250000D03*
D13*
X72707500Y-95250000D03*
X82867500Y-95250000D03*
G04 #@! TD*
D12*
G04 #@! TO.C,MX42*
X53975000Y-114300000D03*
D13*
X48895000Y-114300000D03*
X59055000Y-114300000D03*
G04 #@! TD*
D12*
G04 #@! TO.C,MX48*
X251618750Y-114300000D03*
D13*
X246538750Y-114300000D03*
X256698750Y-114300000D03*
G04 #@! TD*
D12*
G04 #@! TO.C,MX47*
X225425000Y-114300000D03*
D13*
X220345000Y-114300000D03*
X230505000Y-114300000D03*
G04 #@! TD*
D12*
G04 #@! TO.C,MX46*
X199231250Y-114300000D03*
D13*
X194151250Y-114300000D03*
X204311250Y-114300000D03*
G04 #@! TD*
D12*
G04 #@! TO.C,MX43*
X80168750Y-114300000D03*
D13*
X75088750Y-114300000D03*
X85248750Y-114300000D03*
G04 #@! TD*
D12*
G04 #@! TO.C,MX40*
X273050000Y-95250000D03*
D13*
X267970000Y-95250000D03*
X278130000Y-95250000D03*
G04 #@! TD*
D12*
G04 #@! TO.C,MX39*
X251618750Y-95250000D03*
D13*
X246538750Y-95250000D03*
X256698750Y-95250000D03*
G04 #@! TD*
D12*
G04 #@! TO.C,MX38*
X230187500Y-95250000D03*
D13*
X225107500Y-95250000D03*
X235267500Y-95250000D03*
G04 #@! TD*
D12*
G04 #@! TO.C,MX37*
X211137500Y-95250000D03*
D13*
X206057500Y-95250000D03*
X216217500Y-95250000D03*
G04 #@! TD*
D12*
G04 #@! TO.C,MX36*
X192087500Y-95250000D03*
D13*
X187007500Y-95250000D03*
X197167500Y-95250000D03*
G04 #@! TD*
D12*
G04 #@! TO.C,MX34*
X153987500Y-95250000D03*
D13*
X148907500Y-95250000D03*
X159067500Y-95250000D03*
G04 #@! TD*
D12*
G04 #@! TO.C,MX33*
X134937500Y-95250000D03*
D13*
X129857500Y-95250000D03*
X140017500Y-95250000D03*
G04 #@! TD*
D12*
G04 #@! TO.C,MX31*
X96837500Y-95250000D03*
D13*
X91757500Y-95250000D03*
X101917500Y-95250000D03*
G04 #@! TD*
D12*
G04 #@! TO.C,MX29*
X58737500Y-95250000D03*
D13*
X53657500Y-95250000D03*
X63817500Y-95250000D03*
G04 #@! TD*
D12*
G04 #@! TO.C,MX28*
X32543750Y-95250000D03*
D13*
X27463750Y-95250000D03*
X37623750Y-95250000D03*
G04 #@! TD*
D12*
G04 #@! TO.C,MX27*
X265906250Y-76200000D03*
D13*
X260826250Y-76200000D03*
X270986250Y-76200000D03*
G04 #@! TD*
D12*
G04 #@! TO.C,MX26*
X239712500Y-76200000D03*
D13*
X234632500Y-76200000D03*
X244792500Y-76200000D03*
G04 #@! TD*
D12*
G04 #@! TO.C,MX25*
X220662500Y-76200000D03*
D13*
X215582500Y-76200000D03*
X225742500Y-76200000D03*
G04 #@! TD*
D12*
G04 #@! TO.C,MX24*
X201612500Y-76200000D03*
D13*
X196532500Y-76200000D03*
X206692500Y-76200000D03*
G04 #@! TD*
D12*
G04 #@! TO.C,MX23*
X182562500Y-76200000D03*
D13*
X177482500Y-76200000D03*
X187642500Y-76200000D03*
G04 #@! TD*
D12*
G04 #@! TO.C,MX22*
X163512500Y-76200000D03*
D13*
X158432500Y-76200000D03*
X168592500Y-76200000D03*
G04 #@! TD*
D12*
G04 #@! TO.C,MX20*
X125412500Y-76200000D03*
D13*
X120332500Y-76200000D03*
X130492500Y-76200000D03*
G04 #@! TD*
D12*
G04 #@! TO.C,MX19*
X106362500Y-76200000D03*
D13*
X101282500Y-76200000D03*
X111442500Y-76200000D03*
G04 #@! TD*
D12*
G04 #@! TO.C,MX18*
X87312500Y-76200000D03*
D13*
X82232500Y-76200000D03*
X92392500Y-76200000D03*
G04 #@! TD*
D12*
G04 #@! TO.C,MX17*
X68262500Y-76200000D03*
D13*
X63182500Y-76200000D03*
X73342500Y-76200000D03*
G04 #@! TD*
D12*
G04 #@! TO.C,MX16*
X49212500Y-76200000D03*
D13*
X44132500Y-76200000D03*
X54292500Y-76200000D03*
G04 #@! TD*
D12*
G04 #@! TO.C,MX15*
X27781250Y-76200000D03*
D13*
X22701250Y-76200000D03*
X32861250Y-76200000D03*
G04 #@! TD*
D12*
G04 #@! TO.C,MX13*
X254000000Y-57150000D03*
D13*
X248920000Y-57150000D03*
X259080000Y-57150000D03*
G04 #@! TD*
D12*
G04 #@! TO.C,MX12*
X234950000Y-57150000D03*
D13*
X229870000Y-57150000D03*
X240030000Y-57150000D03*
G04 #@! TD*
D12*
G04 #@! TO.C,MX11*
X215900000Y-57150000D03*
D13*
X210820000Y-57150000D03*
X220980000Y-57150000D03*
G04 #@! TD*
D12*
G04 #@! TO.C,MX10*
X196850000Y-57150000D03*
D13*
X191770000Y-57150000D03*
X201930000Y-57150000D03*
G04 #@! TD*
D12*
G04 #@! TO.C,MX9*
X177800000Y-57150000D03*
D13*
X172720000Y-57150000D03*
X182880000Y-57150000D03*
G04 #@! TD*
D12*
G04 #@! TO.C,MX8*
X158750000Y-57150000D03*
D13*
X153670000Y-57150000D03*
X163830000Y-57150000D03*
G04 #@! TD*
D12*
G04 #@! TO.C,MX7*
X139700000Y-57150000D03*
D13*
X134620000Y-57150000D03*
X144780000Y-57150000D03*
G04 #@! TD*
D12*
G04 #@! TO.C,MX6*
X120650000Y-57150000D03*
D13*
X115570000Y-57150000D03*
X125730000Y-57150000D03*
G04 #@! TD*
D12*
G04 #@! TO.C,MX5*
X101600000Y-57150000D03*
D13*
X96520000Y-57150000D03*
X106680000Y-57150000D03*
G04 #@! TD*
D12*
G04 #@! TO.C,MX4*
X82550000Y-57150000D03*
D13*
X77470000Y-57150000D03*
X87630000Y-57150000D03*
G04 #@! TD*
D12*
G04 #@! TO.C,MX2*
X44450000Y-57150000D03*
D13*
X39370000Y-57150000D03*
X49530000Y-57150000D03*
G04 #@! TD*
D12*
G04 #@! TO.C,MX1*
X25400000Y-57150000D03*
D13*
X20320000Y-57150000D03*
X30480000Y-57150000D03*
G04 #@! TD*
D15*
G04 #@! TO.C,J2*
X97790000Y-113823750D03*
D16*
X95250000Y-113823750D03*
X97790000Y-111283750D03*
X95250000Y-111283750D03*
X97790000Y-108743750D03*
X95250000Y-108743750D03*
G04 #@! TD*
M02*
