G04 #@! TF.GenerationSoftware,KiCad,Pcbnew,5.1.10*
G04 #@! TF.CreationDate,2021-06-15T23:35:37+09:00*
G04 #@! TF.ProjectId,bakeneko40,62616b65-6e65-46b6-9f34-302e6b696361,rev?*
G04 #@! TF.SameCoordinates,Original*
G04 #@! TF.FileFunction,Copper,L1,Top*
G04 #@! TF.FilePolarity,Positive*
%FSLAX46Y46*%
G04 Gerber Fmt 4.6, Leading zero omitted, Abs format (unit mm)*
G04 Created by KiCad (PCBNEW 5.1.10) date 2021-06-15 23:35:37*
%MOMM*%
%LPD*%
G01*
G04 APERTURE LIST*
G04 #@! TA.AperFunction,ComponentPad*
%ADD10C,2.250000*%
G04 #@! TD*
G04 #@! TA.AperFunction,ComponentPad*
%ADD11R,1.700000X1.700000*%
G04 #@! TD*
G04 #@! TA.AperFunction,ComponentPad*
%ADD12C,1.700000*%
G04 #@! TD*
G04 #@! TA.AperFunction,ViaPad*
%ADD13C,0.800000*%
G04 #@! TD*
G04 #@! TA.AperFunction,Conductor*
%ADD14C,0.299720*%
G04 #@! TD*
G04 #@! TA.AperFunction,Conductor*
%ADD15C,0.254000*%
G04 #@! TD*
G04 APERTURE END LIST*
D10*
G04 #@! TO.P,MX45,2*
G04 #@! TO.N,Net-(D45-Pad2)*
X163671250Y-109220000D03*
G04 #@! TO.P,MX45,1*
G04 #@! TO.N,COL4*
X157321250Y-111760000D03*
G04 #@! TD*
G04 #@! TO.P,MX44,2*
G04 #@! TO.N,Net-(D44-Pad2)*
X116046250Y-109220000D03*
G04 #@! TO.P,MX44,1*
G04 #@! TO.N,COL3*
X109696250Y-111760000D03*
G04 #@! TD*
G04 #@! TO.P,MX32,2*
G04 #@! TO.N,Net-(D32-Pad2)*
X118427500Y-90170000D03*
G04 #@! TO.P,MX32,1*
G04 #@! TO.N,COL3*
X112077500Y-92710000D03*
G04 #@! TD*
G04 #@! TO.P,MX41,2*
G04 #@! TO.N,Net-(D41-Pad2)*
X30321250Y-109220000D03*
G04 #@! TO.P,MX41,1*
G04 #@! TO.N,COL1*
X23971250Y-111760000D03*
G04 #@! TD*
G04 #@! TO.P,MX49,2*
G04 #@! TO.N,Net-(D49-Pad2)*
X275590000Y-109220000D03*
G04 #@! TO.P,MX49,1*
G04 #@! TO.N,COL7*
X269240000Y-111760000D03*
G04 #@! TD*
G04 #@! TO.P,MX21,2*
G04 #@! TO.N,Net-(D21-Pad2)*
X147002500Y-71120000D03*
G04 #@! TO.P,MX21,1*
G04 #@! TO.N,COL4*
X140652500Y-73660000D03*
G04 #@! TD*
G04 #@! TO.P,MX35,2*
G04 #@! TO.N,Net-(D35-Pad2)*
X175577500Y-90170000D03*
G04 #@! TO.P,MX35,1*
G04 #@! TO.N,COL4*
X169227500Y-92710000D03*
G04 #@! TD*
G04 #@! TO.P,MX14,2*
G04 #@! TO.N,Net-(D14-Pad2)*
X275590000Y-52070000D03*
G04 #@! TO.P,MX14,1*
G04 #@! TO.N,COL7*
X269240000Y-54610000D03*
G04 #@! TD*
G04 #@! TO.P,MX3,2*
G04 #@! TO.N,Net-(D3-Pad2)*
X66040000Y-52070000D03*
G04 #@! TO.P,MX3,1*
G04 #@! TO.N,COL2*
X59690000Y-54610000D03*
G04 #@! TD*
G04 #@! TO.P,MX30,2*
G04 #@! TO.N,Net-(D30-Pad2)*
X80327500Y-90170000D03*
G04 #@! TO.P,MX30,1*
G04 #@! TO.N,COL2*
X73977500Y-92710000D03*
G04 #@! TD*
G04 #@! TO.P,MX42,2*
G04 #@! TO.N,Net-(D42-Pad2)*
X56515000Y-109220000D03*
G04 #@! TO.P,MX42,1*
G04 #@! TO.N,COL1*
X50165000Y-111760000D03*
G04 #@! TD*
G04 #@! TO.P,MX48,2*
G04 #@! TO.N,Net-(D48-Pad2)*
X254158750Y-109220000D03*
G04 #@! TO.P,MX48,1*
G04 #@! TO.N,COL6*
X247808750Y-111760000D03*
G04 #@! TD*
G04 #@! TO.P,MX47,2*
G04 #@! TO.N,Net-(D47-Pad2)*
X227965000Y-109220000D03*
G04 #@! TO.P,MX47,1*
G04 #@! TO.N,COL6*
X221615000Y-111760000D03*
G04 #@! TD*
G04 #@! TO.P,MX46,2*
G04 #@! TO.N,Net-(D46-Pad2)*
X201771250Y-109220000D03*
G04 #@! TO.P,MX46,1*
G04 #@! TO.N,COL5*
X195421250Y-111760000D03*
G04 #@! TD*
G04 #@! TO.P,MX43,2*
G04 #@! TO.N,Net-(D43-Pad2)*
X82708750Y-109220000D03*
G04 #@! TO.P,MX43,1*
G04 #@! TO.N,COL2*
X76358750Y-111760000D03*
G04 #@! TD*
G04 #@! TO.P,MX40,2*
G04 #@! TO.N,Net-(D40-Pad2)*
X275590000Y-90170000D03*
G04 #@! TO.P,MX40,1*
G04 #@! TO.N,COL7*
X269240000Y-92710000D03*
G04 #@! TD*
G04 #@! TO.P,MX39,2*
G04 #@! TO.N,Net-(D39-Pad2)*
X254158750Y-90170000D03*
G04 #@! TO.P,MX39,1*
G04 #@! TO.N,COL6*
X247808750Y-92710000D03*
G04 #@! TD*
G04 #@! TO.P,MX38,2*
G04 #@! TO.N,Net-(D38-Pad2)*
X232727500Y-90170000D03*
G04 #@! TO.P,MX38,1*
G04 #@! TO.N,COL6*
X226377500Y-92710000D03*
G04 #@! TD*
G04 #@! TO.P,MX37,2*
G04 #@! TO.N,Net-(D37-Pad2)*
X213677500Y-90170000D03*
G04 #@! TO.P,MX37,1*
G04 #@! TO.N,COL5*
X207327500Y-92710000D03*
G04 #@! TD*
G04 #@! TO.P,MX36,2*
G04 #@! TO.N,Net-(D36-Pad2)*
X194627500Y-90170000D03*
G04 #@! TO.P,MX36,1*
G04 #@! TO.N,COL5*
X188277500Y-92710000D03*
G04 #@! TD*
G04 #@! TO.P,MX34,2*
G04 #@! TO.N,Net-(D34-Pad2)*
X156527500Y-90170000D03*
G04 #@! TO.P,MX34,1*
G04 #@! TO.N,COL4*
X150177500Y-92710000D03*
G04 #@! TD*
G04 #@! TO.P,MX33,2*
G04 #@! TO.N,Net-(D33-Pad2)*
X137477500Y-90170000D03*
G04 #@! TO.P,MX33,1*
G04 #@! TO.N,COL3*
X131127500Y-92710000D03*
G04 #@! TD*
G04 #@! TO.P,MX31,2*
G04 #@! TO.N,Net-(D31-Pad2)*
X99377500Y-90170000D03*
G04 #@! TO.P,MX31,1*
G04 #@! TO.N,COL2*
X93027500Y-92710000D03*
G04 #@! TD*
G04 #@! TO.P,MX29,2*
G04 #@! TO.N,Net-(D29-Pad2)*
X61277500Y-90170000D03*
G04 #@! TO.P,MX29,1*
G04 #@! TO.N,COL1*
X54927500Y-92710000D03*
G04 #@! TD*
G04 #@! TO.P,MX28,2*
G04 #@! TO.N,Net-(D28-Pad2)*
X35083750Y-90170000D03*
G04 #@! TO.P,MX28,1*
G04 #@! TO.N,COL1*
X28733750Y-92710000D03*
G04 #@! TD*
G04 #@! TO.P,MX27,2*
G04 #@! TO.N,Net-(D27-Pad2)*
X268446250Y-71120000D03*
G04 #@! TO.P,MX27,1*
G04 #@! TO.N,COL7*
X262096250Y-73660000D03*
G04 #@! TD*
G04 #@! TO.P,MX26,2*
G04 #@! TO.N,Net-(D26-Pad2)*
X242252500Y-71120000D03*
G04 #@! TO.P,MX26,1*
G04 #@! TO.N,COL6*
X235902500Y-73660000D03*
G04 #@! TD*
G04 #@! TO.P,MX25,2*
G04 #@! TO.N,Net-(D25-Pad2)*
X223202500Y-71120000D03*
G04 #@! TO.P,MX25,1*
G04 #@! TO.N,COL6*
X216852500Y-73660000D03*
G04 #@! TD*
G04 #@! TO.P,MX24,2*
G04 #@! TO.N,Net-(D24-Pad2)*
X204152500Y-71120000D03*
G04 #@! TO.P,MX24,1*
G04 #@! TO.N,COL5*
X197802500Y-73660000D03*
G04 #@! TD*
G04 #@! TO.P,MX23,2*
G04 #@! TO.N,Net-(D23-Pad2)*
X185102500Y-71120000D03*
G04 #@! TO.P,MX23,1*
G04 #@! TO.N,COL5*
X178752500Y-73660000D03*
G04 #@! TD*
G04 #@! TO.P,MX22,2*
G04 #@! TO.N,Net-(D22-Pad2)*
X166052500Y-71120000D03*
G04 #@! TO.P,MX22,1*
G04 #@! TO.N,COL4*
X159702500Y-73660000D03*
G04 #@! TD*
G04 #@! TO.P,MX20,2*
G04 #@! TO.N,Net-(D20-Pad2)*
X127952500Y-71120000D03*
G04 #@! TO.P,MX20,1*
G04 #@! TO.N,COL3*
X121602500Y-73660000D03*
G04 #@! TD*
G04 #@! TO.P,MX19,2*
G04 #@! TO.N,Net-(D19-Pad2)*
X108902500Y-71120000D03*
G04 #@! TO.P,MX19,1*
G04 #@! TO.N,COL3*
X102552500Y-73660000D03*
G04 #@! TD*
G04 #@! TO.P,MX18,2*
G04 #@! TO.N,Net-(D18-Pad2)*
X89852500Y-71120000D03*
G04 #@! TO.P,MX18,1*
G04 #@! TO.N,COL2*
X83502500Y-73660000D03*
G04 #@! TD*
G04 #@! TO.P,MX17,2*
G04 #@! TO.N,Net-(D17-Pad2)*
X70802500Y-71120000D03*
G04 #@! TO.P,MX17,1*
G04 #@! TO.N,COL2*
X64452500Y-73660000D03*
G04 #@! TD*
G04 #@! TO.P,MX16,2*
G04 #@! TO.N,Net-(D16-Pad2)*
X51752500Y-71120000D03*
G04 #@! TO.P,MX16,1*
G04 #@! TO.N,COL1*
X45402500Y-73660000D03*
G04 #@! TD*
G04 #@! TO.P,MX15,2*
G04 #@! TO.N,Net-(D15-Pad2)*
X30321250Y-71120000D03*
G04 #@! TO.P,MX15,1*
G04 #@! TO.N,COL1*
X23971250Y-73660000D03*
G04 #@! TD*
G04 #@! TO.P,MX13,2*
G04 #@! TO.N,Net-(D13-Pad2)*
X256540000Y-52070000D03*
G04 #@! TO.P,MX13,1*
G04 #@! TO.N,COL7*
X250190000Y-54610000D03*
G04 #@! TD*
G04 #@! TO.P,MX12,2*
G04 #@! TO.N,Net-(D12-Pad2)*
X237490000Y-52070000D03*
G04 #@! TO.P,MX12,1*
G04 #@! TO.N,COL6*
X231140000Y-54610000D03*
G04 #@! TD*
G04 #@! TO.P,MX11,2*
G04 #@! TO.N,Net-(D11-Pad2)*
X218440000Y-52070000D03*
G04 #@! TO.P,MX11,1*
G04 #@! TO.N,COL6*
X212090000Y-54610000D03*
G04 #@! TD*
G04 #@! TO.P,MX10,2*
G04 #@! TO.N,Net-(D10-Pad2)*
X199390000Y-52070000D03*
G04 #@! TO.P,MX10,1*
G04 #@! TO.N,COL5*
X193040000Y-54610000D03*
G04 #@! TD*
G04 #@! TO.P,MX9,2*
G04 #@! TO.N,Net-(D9-Pad2)*
X180340000Y-52070000D03*
G04 #@! TO.P,MX9,1*
G04 #@! TO.N,COL5*
X173990000Y-54610000D03*
G04 #@! TD*
G04 #@! TO.P,MX8,2*
G04 #@! TO.N,Net-(D8-Pad2)*
X161290000Y-52070000D03*
G04 #@! TO.P,MX8,1*
G04 #@! TO.N,COL4*
X154940000Y-54610000D03*
G04 #@! TD*
G04 #@! TO.P,MX7,2*
G04 #@! TO.N,Net-(D7-Pad2)*
X142240000Y-52070000D03*
G04 #@! TO.P,MX7,1*
G04 #@! TO.N,COL4*
X135890000Y-54610000D03*
G04 #@! TD*
G04 #@! TO.P,MX6,2*
G04 #@! TO.N,Net-(D6-Pad2)*
X123190000Y-52070000D03*
G04 #@! TO.P,MX6,1*
G04 #@! TO.N,COL3*
X116840000Y-54610000D03*
G04 #@! TD*
G04 #@! TO.P,MX5,2*
G04 #@! TO.N,Net-(D5-Pad2)*
X104140000Y-52070000D03*
G04 #@! TO.P,MX5,1*
G04 #@! TO.N,COL3*
X97790000Y-54610000D03*
G04 #@! TD*
G04 #@! TO.P,MX4,2*
G04 #@! TO.N,Net-(D4-Pad2)*
X85090000Y-52070000D03*
G04 #@! TO.P,MX4,1*
G04 #@! TO.N,COL2*
X78740000Y-54610000D03*
G04 #@! TD*
G04 #@! TO.P,MX2,2*
G04 #@! TO.N,Net-(D2-Pad2)*
X46990000Y-52070000D03*
G04 #@! TO.P,MX2,1*
G04 #@! TO.N,COL1*
X40640000Y-54610000D03*
G04 #@! TD*
G04 #@! TO.P,MX1,2*
G04 #@! TO.N,Net-(D1-Pad2)*
X27940000Y-52070000D03*
G04 #@! TO.P,MX1,1*
G04 #@! TO.N,COL1*
X21590000Y-54610000D03*
G04 #@! TD*
D11*
G04 #@! TO.P,J2,6*
G04 #@! TO.N,GND*
X97790000Y-113823750D03*
D12*
G04 #@! TO.P,J2,5*
G04 #@! TO.N,Net-(J2-Pad5)*
X95250000Y-113823750D03*
G04 #@! TO.P,J2,4*
G04 #@! TO.N,MOSI*
X97790000Y-111283750D03*
G04 #@! TO.P,J2,3*
G04 #@! TO.N,SCK*
X95250000Y-111283750D03*
G04 #@! TO.P,J2,2*
G04 #@! TO.N,+5V*
X97790000Y-108743750D03*
G04 #@! TO.P,J2,1*
G04 #@! TO.N,MISO*
X95250000Y-108743750D03*
G04 #@! TD*
D13*
G04 #@! TO.N,GND*
X151606250Y-100012500D03*
X155575000Y-108743750D03*
X144462500Y-111125000D03*
X144462500Y-106362500D03*
X165893750Y-92868750D03*
X141224414Y-118205664D03*
X131762500Y-121443750D03*
G04 #@! TO.N,Net-(C1-Pad1)*
X145256250Y-111918750D03*
X146960949Y-109420301D03*
G04 #@! TO.N,+5V*
X143668750Y-103187500D03*
X130487500Y-101912500D03*
X114300000Y-103981250D03*
X145256250Y-115093750D03*
X133350000Y-118268750D03*
X154781250Y-115571455D03*
G04 #@! TO.N,ROW1*
X136525000Y-78581250D03*
X137318750Y-106362500D03*
G04 #@! TO.N,ROW2*
X127825000Y-59562500D03*
X136525000Y-107156250D03*
G04 #@! TO.N,ROW3*
X138112500Y-105568750D03*
X146050000Y-97631250D03*
G04 #@! TO.N,VBUS*
X177800000Y-106362500D03*
X167481250Y-100806250D03*
G04 #@! TO.N,COL1*
X132556250Y-111918750D03*
G04 #@! TO.N,COL2*
X131762500Y-111125000D03*
G04 #@! TO.N,COL3*
X133350000Y-107156250D03*
G04 #@! TO.N,COL5*
X146843750Y-111918750D03*
G04 #@! TO.N,COL6*
X146050000Y-112712500D03*
G04 #@! TO.N,COL7*
X138112500Y-115887500D03*
G04 #@! TO.N,ROW4*
X149225000Y-79375000D03*
X144462500Y-84703185D03*
X138906250Y-104775000D03*
X147637500Y-97631250D03*
G04 #@! TO.N,ROW5*
X160368750Y-98456250D03*
X153193750Y-100012500D03*
X146050000Y-100806250D03*
X139700000Y-106362500D03*
G04 #@! TO.N,ROW6*
X126206250Y-97631250D03*
X134143750Y-108743750D03*
G04 #@! TO.N,ROW7*
X135731250Y-116681250D03*
X152400000Y-119856250D03*
G04 #@! TO.N,ROW8*
X143668750Y-116681250D03*
X136525000Y-115887500D03*
X128587500Y-116681250D03*
X132556250Y-115887500D03*
G04 #@! TO.N,Net-(J2-Pad5)*
X130968750Y-104775000D03*
X142081250Y-105568750D03*
X141964051Y-107832801D03*
X149225000Y-97631250D03*
X113506250Y-104775000D03*
G04 #@! TO.N,COL4*
X149860000Y-111760000D03*
G04 #@! TD*
D14*
G04 #@! TO.N,GND*
X155037370Y-108206120D02*
X155575000Y-108743750D01*
X155037370Y-103443620D02*
X155037370Y-108206120D01*
X151606250Y-100012500D02*
X155037370Y-103443620D01*
X151606250Y-100012500D02*
X153193750Y-98425000D01*
X153193750Y-98425000D02*
X158750000Y-98425000D01*
X158750000Y-98425000D02*
X161131250Y-96043750D01*
X161131250Y-96043750D02*
X162718750Y-96043750D01*
X162718750Y-96043750D02*
X165893750Y-92868750D01*
X141224414Y-118205664D02*
X137986328Y-121443750D01*
X137986328Y-121443750D02*
X131762500Y-121443750D01*
X144462500Y-111125000D02*
X145256250Y-111125000D01*
X144462500Y-107950000D02*
X144462500Y-106362500D01*
X146050000Y-109537500D02*
X144462500Y-107950000D01*
X146050000Y-110331250D02*
X146050000Y-109537500D01*
X145256250Y-111125000D02*
X146050000Y-110331250D01*
D15*
G04 #@! TO.N,Net-(C1-Pad1)*
X146960949Y-110214051D02*
X146960949Y-109420301D01*
X145256250Y-111918750D02*
X146960949Y-110214051D01*
D14*
G04 #@! TO.N,+5V*
X142875000Y-106362500D02*
X142875000Y-109537500D01*
X142875000Y-109537500D02*
X143668750Y-110331250D01*
X123512500Y-101912500D02*
X130487500Y-101912500D01*
X123512500Y-101912500D02*
X121443750Y-103981250D01*
X121443750Y-103981250D02*
X114300000Y-103981250D01*
X145256250Y-103981250D02*
X142875000Y-106362500D01*
X143668750Y-111441045D02*
X145256250Y-113028545D01*
X143668750Y-110331250D02*
X143668750Y-111441045D01*
X145256250Y-113028545D02*
X145256250Y-115093750D01*
X145256250Y-115093750D02*
X134143750Y-115093750D01*
X134143750Y-115093750D02*
X133350000Y-115887500D01*
X133350000Y-115887500D02*
X133350000Y-118268750D01*
X151966184Y-112756389D02*
X154781250Y-115571455D01*
X146770440Y-108670440D02*
X147564190Y-108670440D01*
X146050000Y-107950000D02*
X146770440Y-108670440D01*
X146050000Y-106362500D02*
X146050000Y-107950000D01*
X145256250Y-105568750D02*
X146050000Y-106362500D01*
X145256250Y-103981250D02*
X145256250Y-105568750D01*
X149268889Y-112756389D02*
X151966184Y-112756389D01*
X148431250Y-111918750D02*
X149268889Y-112756389D01*
X148431250Y-109537500D02*
X148431250Y-111918750D01*
X147564190Y-108670440D02*
X148431250Y-109537500D01*
X145256250Y-103981250D02*
X144462500Y-103187500D01*
X144462500Y-103187500D02*
X143668750Y-103187500D01*
D15*
G04 #@! TO.N,ROW1*
X136525000Y-106362500D02*
X137318750Y-106362500D01*
X135391510Y-100352240D02*
X135391510Y-105229010D01*
X135391510Y-105229010D02*
X136525000Y-106362500D01*
X143856807Y-99672760D02*
X136070990Y-99672760D01*
X145256250Y-98273317D02*
X143856807Y-99672760D01*
X136525000Y-78581250D02*
X136525000Y-84137500D01*
X145256250Y-92868750D02*
X145256250Y-98273317D01*
X136070990Y-99672760D02*
X135391510Y-100352240D01*
X136525000Y-84137500D02*
X145256250Y-92868750D01*
G04 #@! TO.N,ROW2*
X135731250Y-99218750D02*
X134937500Y-100012500D01*
X144462500Y-98424999D02*
X143668750Y-99218749D01*
X134937500Y-105568750D02*
X136525000Y-107156250D01*
X143668750Y-99218749D02*
X135731250Y-99218750D01*
X144462500Y-92868750D02*
X144462500Y-98424999D01*
X135731250Y-74612500D02*
X135731250Y-84137500D01*
X127825000Y-59562500D02*
X127825000Y-66706250D01*
X135731250Y-84137500D02*
X144462500Y-92868750D01*
X127825000Y-66706250D02*
X135731250Y-74612500D01*
X134937500Y-100012500D02*
X134937500Y-105568750D01*
G04 #@! TO.N,ROW3*
X135845520Y-104775000D02*
X135845520Y-104889270D01*
X136639270Y-105568750D02*
X138112500Y-105568750D01*
X135845520Y-104775000D02*
X136639270Y-105568750D01*
X146050000Y-98196935D02*
X146050000Y-97631250D01*
X136410730Y-100126770D02*
X144120165Y-100126770D01*
X135845520Y-100691980D02*
X136410730Y-100126770D01*
X135845520Y-104775000D02*
X135845520Y-100691980D01*
X144120165Y-100126770D02*
X146050000Y-98196935D01*
D14*
G04 #@! TO.N,VBUS*
X177800000Y-106362500D02*
X177800000Y-101600000D01*
X177800000Y-101600000D02*
X177006250Y-100806250D01*
X177006250Y-100806250D02*
X167481250Y-100806250D01*
D15*
G04 #@! TO.N,COL1*
X21590000Y-71278750D02*
X23971250Y-73660000D01*
X21590000Y-54610000D02*
X21590000Y-71278750D01*
X23971250Y-87947500D02*
X28733750Y-92710000D01*
X23971250Y-73660000D02*
X23971250Y-87947500D01*
X28733750Y-106997500D02*
X23971250Y-111760000D01*
X28733750Y-92710000D02*
X28733750Y-106997500D01*
X50097001Y-111827999D02*
X50165000Y-111760000D01*
X40640000Y-68897500D02*
X45402500Y-73660000D01*
X40640000Y-54610000D02*
X40640000Y-68897500D01*
X52896462Y-92710000D02*
X54927500Y-92710000D01*
X45402500Y-85216038D02*
X52896462Y-92710000D01*
X45402500Y-73660000D02*
X45402500Y-85216038D01*
X54927500Y-106997500D02*
X50165000Y-111760000D01*
X54927500Y-92710000D02*
X54927500Y-106997500D01*
X23971250Y-111760000D02*
X23971250Y-116840000D01*
X23971250Y-116840000D02*
X28575000Y-121443750D01*
X28575000Y-121443750D02*
X38893750Y-121443750D01*
X38893750Y-121443750D02*
X44450000Y-115887500D01*
X44450000Y-115887500D02*
X44450000Y-112712500D01*
X45402500Y-111760000D02*
X50165000Y-111760000D01*
X44450000Y-112712500D02*
X45402500Y-111760000D01*
X125412500Y-118268750D02*
X131762500Y-111918750D01*
X51117500Y-118268750D02*
X125412500Y-118268750D01*
X131762500Y-111918750D02*
X132556250Y-111918750D01*
X50165000Y-117316250D02*
X51117500Y-118268750D01*
X50165000Y-111760000D02*
X50165000Y-117316250D01*
G04 #@! TO.N,COL2*
X59690000Y-54610000D02*
X59690000Y-69215000D01*
X64135000Y-73660000D02*
X64452500Y-73660000D01*
X59690000Y-69215000D02*
X64135000Y-73660000D01*
X64452500Y-83185000D02*
X73977500Y-92710000D01*
X64452500Y-73660000D02*
X64452500Y-83185000D01*
X73977500Y-109378750D02*
X76358750Y-111760000D01*
X73977500Y-92710000D02*
X73977500Y-109378750D01*
X78740000Y-68897500D02*
X83502500Y-73660000D01*
X78740000Y-54610000D02*
X78740000Y-68897500D01*
X83502500Y-83185000D02*
X93027500Y-92710000D01*
X83502500Y-73660000D02*
X83502500Y-83185000D01*
X91436510Y-92710000D02*
X88900000Y-95246510D01*
X93027500Y-92710000D02*
X91436510Y-92710000D01*
X88900000Y-95246510D02*
X88900000Y-103187500D01*
X80350751Y-107767999D02*
X76358750Y-111760000D01*
X84319501Y-107767999D02*
X80350751Y-107767999D01*
X88900000Y-103187500D02*
X84319501Y-107767999D01*
X125412500Y-117475000D02*
X131762500Y-111125000D01*
X77787500Y-117475000D02*
X125412500Y-117475000D01*
X76358750Y-116046250D02*
X77787500Y-117475000D01*
X76358750Y-111760000D02*
X76358750Y-116046250D01*
G04 #@! TO.N,COL3*
X97790000Y-68897500D02*
X102552500Y-73660000D01*
X97790000Y-54610000D02*
X97790000Y-68897500D01*
X102552500Y-83185000D02*
X112077500Y-92710000D01*
X102552500Y-73660000D02*
X102552500Y-83185000D01*
X116840000Y-68897500D02*
X121602500Y-73660000D01*
X116840000Y-54610000D02*
X116840000Y-68897500D01*
X121602500Y-83185000D02*
X131127500Y-92710000D01*
X112077500Y-109378750D02*
X109696250Y-111760000D01*
X112077500Y-92710000D02*
X112077500Y-99377500D01*
X112077500Y-99377500D02*
X112077500Y-109378750D01*
X133350000Y-106080288D02*
X133350000Y-107156250D01*
X121602500Y-83185000D02*
X112077500Y-92710000D01*
X121602500Y-73660000D02*
X121602500Y-83185000D01*
X113506250Y-100806250D02*
X112077500Y-99377500D01*
X130968750Y-100806250D02*
X113506250Y-100806250D01*
X133350000Y-103187500D02*
X130968750Y-100806250D01*
X133350000Y-107156250D02*
X133350000Y-103187500D01*
G04 #@! TO.N,COL4*
X135890000Y-68897500D02*
X140652500Y-73660000D01*
X135890000Y-54610000D02*
X135890000Y-68897500D01*
X140652500Y-83185000D02*
X150177500Y-92710000D01*
X140652500Y-73660000D02*
X140652500Y-83185000D01*
X154940000Y-68897500D02*
X159702500Y-73660000D01*
X154940000Y-54610000D02*
X154940000Y-68897500D01*
X159702500Y-83185000D02*
X169227500Y-92710000D01*
X159702500Y-73660000D02*
X159702500Y-83185000D01*
X157321250Y-111760000D02*
X156686250Y-111125000D01*
X167636510Y-92710000D02*
X163512500Y-96834010D01*
X169227500Y-92710000D02*
X167636510Y-92710000D01*
X163512500Y-105568750D02*
X157321250Y-111760000D01*
X163512500Y-96834010D02*
X163512500Y-105568750D01*
X150177500Y-99659712D02*
X152911538Y-102393750D01*
X150177500Y-92710000D02*
X150177500Y-99659712D01*
X152911538Y-107350288D02*
X157321250Y-111760000D01*
X152911538Y-102393750D02*
X152911538Y-107350288D01*
G04 #@! TO.N,COL5*
X173990000Y-68897500D02*
X178752500Y-73660000D01*
X173990000Y-54610000D02*
X173990000Y-68897500D01*
X178752500Y-83185000D02*
X188277500Y-92710000D01*
X178752500Y-73660000D02*
X178752500Y-83185000D01*
X193040000Y-68897500D02*
X197802500Y-73660000D01*
X193040000Y-54610000D02*
X193040000Y-68897500D01*
X197802500Y-83185000D02*
X207327500Y-92710000D01*
X197802500Y-73660000D02*
X197802500Y-83185000D01*
X188277500Y-104616250D02*
X195421250Y-111760000D01*
X188277500Y-92710000D02*
X188277500Y-104616250D01*
X193830260Y-111760000D02*
X188118750Y-117471510D01*
X195421250Y-111760000D02*
X193830260Y-111760000D01*
X188118750Y-117471510D02*
X149228490Y-117471510D01*
X149228490Y-117471510D02*
X149221510Y-117471510D01*
X149228490Y-117471510D02*
X146843750Y-115086770D01*
X146843750Y-115086770D02*
X146843750Y-111918750D01*
X203200000Y-103981250D02*
X195421250Y-111760000D01*
X203200000Y-95246510D02*
X203200000Y-103981250D01*
X204784010Y-93662500D02*
X203200000Y-95246510D01*
X206375000Y-93662500D02*
X204784010Y-93662500D01*
X207327500Y-92710000D02*
X206375000Y-93662500D01*
G04 #@! TO.N,COL6*
X212090000Y-68897500D02*
X216852500Y-73660000D01*
X212090000Y-54610000D02*
X212090000Y-68897500D01*
X216852500Y-83185000D02*
X226377500Y-92710000D01*
X216852500Y-73660000D02*
X216852500Y-83185000D01*
X233871462Y-73660000D02*
X235902500Y-73660000D01*
X231140000Y-70928538D02*
X233871462Y-73660000D01*
X231140000Y-54610000D02*
X231140000Y-70928538D01*
X235902500Y-80803750D02*
X247808750Y-92710000D01*
X235902500Y-73660000D02*
X235902500Y-80803750D01*
X226377500Y-106997500D02*
X221615000Y-111760000D01*
X226377500Y-92710000D02*
X226377500Y-106997500D01*
X247808750Y-92710000D02*
X247808750Y-111760000D01*
X221615000Y-111760000D02*
X220027500Y-111760000D01*
X213452001Y-118335499D02*
X148497999Y-118335499D01*
X220027500Y-111760000D02*
X213452001Y-118335499D01*
X148497999Y-118335499D02*
X146050000Y-115887500D01*
X146050000Y-115887500D02*
X146050000Y-112712500D01*
X246174789Y-93834999D02*
X241300000Y-98709788D01*
X246683751Y-93834999D02*
X246174789Y-93834999D01*
X247808750Y-92710000D02*
X246683751Y-93834999D01*
X241300000Y-98709788D02*
X241300000Y-103187500D01*
X241300000Y-103187500D02*
X237331250Y-107156250D01*
X237331250Y-107156250D02*
X226218750Y-107156250D01*
G04 #@! TO.N,COL7*
X250190000Y-61753750D02*
X262096250Y-73660000D01*
X250190000Y-54610000D02*
X250190000Y-61753750D01*
X262096250Y-85566250D02*
X269240000Y-92710000D01*
X262096250Y-73660000D02*
X262096250Y-85566250D01*
X269240000Y-54610000D02*
X269240000Y-65722500D01*
X262096250Y-72866250D02*
X262096250Y-73660000D01*
X269240000Y-65722500D02*
X262096250Y-72866250D01*
X269240000Y-92710000D02*
X269240000Y-111760000D01*
X138452239Y-116227239D02*
X138112500Y-115887500D01*
X142535261Y-116227239D02*
X138452239Y-116227239D01*
X142875000Y-115887500D02*
X142535261Y-116227239D01*
X145256250Y-115887500D02*
X142875000Y-115887500D01*
X269240000Y-111760000D02*
X267649010Y-111760000D01*
X260619501Y-118789509D02*
X267649010Y-111760000D01*
X148158259Y-118789509D02*
X260619501Y-118789509D01*
X145256250Y-115887500D02*
X148158259Y-118789509D01*
G04 #@! TO.N,ROW4*
X149225000Y-79940685D02*
X144462500Y-84703185D01*
X149225000Y-79375000D02*
X149225000Y-79940685D01*
X144536287Y-100580780D02*
X136750470Y-100580780D01*
X146692066Y-98425000D02*
X144536287Y-100580780D01*
X136750470Y-100580780D02*
X136525000Y-100806250D01*
X136525000Y-100806250D02*
X136525000Y-103981250D01*
X137318750Y-104775000D02*
X136525000Y-103981250D01*
X137318750Y-104775000D02*
X138906250Y-104775000D01*
X146692066Y-98425000D02*
X146843750Y-98425000D01*
X146843750Y-98425000D02*
X147637500Y-97631250D01*
G04 #@! TO.N,ROW5*
X160368750Y-98456250D02*
X158812500Y-100012500D01*
X158812500Y-100012500D02*
X153193750Y-100012500D01*
X144862499Y-101206249D02*
X144691040Y-101034790D01*
X145650001Y-101206249D02*
X144862499Y-101206249D01*
X146050000Y-100806250D02*
X145650001Y-101206249D01*
X144691040Y-101034790D02*
X137883960Y-101034790D01*
X137883960Y-101034790D02*
X137318750Y-101600000D01*
X137318750Y-101600000D02*
X137318750Y-103187500D01*
X137318750Y-103187500D02*
X138112500Y-103981250D01*
X139188462Y-103981250D02*
X139700000Y-104492788D01*
X138112500Y-103981250D02*
X139188462Y-103981250D01*
X139700000Y-104492788D02*
X139700000Y-106362500D01*
G04 #@! TO.N,ROW6*
X126206250Y-97631250D02*
X126206250Y-98425000D01*
X126206250Y-98425000D02*
X127000000Y-99218750D01*
X127000000Y-99218750D02*
X133350000Y-99218750D01*
X133350000Y-99218750D02*
X134143750Y-100012500D01*
X134143750Y-100012500D02*
X134143750Y-108743750D01*
G04 #@! TO.N,ROW7*
X136528663Y-117478663D02*
X146205347Y-117478663D01*
X146205347Y-117478663D02*
X147970202Y-119243519D01*
X135731250Y-116681250D02*
X136528663Y-117478663D01*
X147970202Y-119243519D02*
X151787269Y-119243519D01*
X151787269Y-119243519D02*
X152400000Y-119856250D01*
G04 #@! TO.N,ROW8*
X137318750Y-116681250D02*
X143668750Y-116681250D01*
X136525000Y-115887500D02*
X137318750Y-116681250D01*
X128587500Y-116681250D02*
X129381250Y-115887500D01*
X129381250Y-115887500D02*
X132556250Y-115887500D01*
G04 #@! TO.N,Net-(J2-Pad5)*
X142081250Y-105568750D02*
X142081250Y-107715602D01*
X142081250Y-107715602D02*
X141964051Y-107832801D01*
X142081250Y-105568750D02*
X142875000Y-104775000D01*
X146271953Y-101660259D02*
X149225000Y-98707212D01*
X144120029Y-101660259D02*
X146271953Y-101660259D01*
X142875000Y-102905288D02*
X144120029Y-101660259D01*
X142875000Y-104775000D02*
X142875000Y-102905288D01*
X149225000Y-98707212D02*
X149225000Y-97631250D01*
X129381250Y-104775000D02*
X127793750Y-103187500D01*
X130968750Y-104775000D02*
X129381250Y-104775000D01*
X127793750Y-103187500D02*
X123825000Y-103187500D01*
X123825000Y-103187500D02*
X122237500Y-104775000D01*
X122237500Y-104775000D02*
X113506250Y-104775000D01*
G04 #@! TO.N,COL4*
X157321250Y-111760000D02*
X149860000Y-111760000D01*
G04 #@! TD*
M02*
