G04 #@! TF.GenerationSoftware,KiCad,Pcbnew,5.1.10*
G04 #@! TF.CreationDate,2021-07-09T15:37:11+09:00*
G04 #@! TF.ProjectId,bakeneko40,62616b65-6e65-46b6-9f34-302e6b696361,rev?*
G04 #@! TF.SameCoordinates,Original*
G04 #@! TF.FileFunction,Legend,Bot*
G04 #@! TF.FilePolarity,Positive*
%FSLAX46Y46*%
G04 Gerber Fmt 4.6, Leading zero omitted, Abs format (unit mm)*
G04 Created by KiCad (PCBNEW 5.1.10) date 2021-07-09 15:37:11*
%MOMM*%
%LPD*%
G01*
G04 APERTURE LIST*
%ADD10C,0.120000*%
%ADD11C,0.150000*%
%ADD12C,2.350000*%
%ADD13C,4.087800*%
%ADD14C,1.850000*%
%ADD15C,3.148000*%
G04 APERTURE END LIST*
D10*
G04 #@! TO.C,C4*
X49065000Y-82058748D02*
X49065000Y-82581252D01*
X50535000Y-82058748D02*
X50535000Y-82581252D01*
D11*
G04 #@! TO.C,U1*
X46225000Y-83495000D02*
X46225000Y-83720000D01*
X38975000Y-83495000D02*
X38975000Y-83820000D01*
X38975000Y-90745000D02*
X38975000Y-90420000D01*
X46225000Y-90745000D02*
X46225000Y-90420000D01*
X46225000Y-83495000D02*
X45900000Y-83495000D01*
X46225000Y-90745000D02*
X45900000Y-90745000D01*
X38975000Y-90745000D02*
X39300000Y-90745000D01*
X38975000Y-83495000D02*
X39300000Y-83495000D01*
X46225000Y-83720000D02*
X47650000Y-83720000D01*
D10*
G04 #@! TO.C,C5*
X44738748Y-70265000D02*
X45261252Y-70265000D01*
X44738748Y-71735000D02*
X45261252Y-71735000D01*
G04 #@! TO.C,U2*
X60384999Y-65109811D02*
X60384999Y-66909811D01*
X57164999Y-66909811D02*
X57164999Y-64459811D01*
G04 #@! TO.C,R4*
X32845000Y-80275436D02*
X32845000Y-80729564D01*
X34315000Y-80275436D02*
X34315000Y-80729564D01*
D11*
G04 #@! TO.C,J1*
X71400000Y-62950000D02*
X71400000Y-63950000D01*
X73800000Y-62950000D02*
X71400000Y-62950000D01*
X75600000Y-67950000D02*
X75600000Y-63950000D01*
X71400000Y-68950000D02*
X73800000Y-68950000D01*
X71400000Y-67950000D02*
X71400000Y-68950000D01*
D10*
G04 #@! TO.C,Y1*
X57435000Y-83855000D02*
X57435000Y-87855000D01*
X54135000Y-83855000D02*
X57435000Y-83855000D01*
D11*
G04 #@! TO.C,SW1*
X38075000Y-65725000D02*
G75*
G03*
X38075000Y-65725000I-1000000J0D01*
G01*
X34475000Y-63125000D02*
X34475000Y-68325000D01*
X39675000Y-63125000D02*
X34475000Y-63125000D01*
X39675000Y-68325000D02*
X39675000Y-63125000D01*
X34475000Y-68325000D02*
X39675000Y-68325000D01*
D10*
G04 #@! TO.C,R3*
X50454186Y-67878750D02*
X50908314Y-67878750D01*
X50454186Y-66408750D02*
X50908314Y-66408750D01*
G04 #@! TO.C,R2*
X50454186Y-64027500D02*
X50908314Y-64027500D01*
X50454186Y-65497500D02*
X50908314Y-65497500D01*
G04 #@! TO.C,R1*
X49995000Y-93212936D02*
X49995000Y-93667064D01*
X51465000Y-93212936D02*
X51465000Y-93667064D01*
G04 #@! TO.C,F1*
X55497936Y-72160000D02*
X56702064Y-72160000D01*
X55497936Y-70340000D02*
X56702064Y-70340000D01*
G04 #@! TO.C,D49*
X281987500Y-116550000D02*
X279987500Y-116550000D01*
X279987500Y-116550000D02*
X279987500Y-112650000D01*
X281987500Y-116550000D02*
X281987500Y-112650000D01*
G04 #@! TO.C,D48*
X260556250Y-116550000D02*
X258556250Y-116550000D01*
X258556250Y-116550000D02*
X258556250Y-112650000D01*
X260556250Y-116550000D02*
X260556250Y-112650000D01*
G04 #@! TO.C,D47*
X234362500Y-116550000D02*
X232362500Y-116550000D01*
X232362500Y-116550000D02*
X232362500Y-112650000D01*
X234362500Y-116550000D02*
X234362500Y-112650000D01*
G04 #@! TO.C,D46*
X208168750Y-116550000D02*
X206168750Y-116550000D01*
X206168750Y-116550000D02*
X206168750Y-112650000D01*
X208168750Y-116550000D02*
X208168750Y-112650000D01*
G04 #@! TO.C,D45*
X170068750Y-116550000D02*
X168068750Y-116550000D01*
X168068750Y-116550000D02*
X168068750Y-112650000D01*
X170068750Y-116550000D02*
X170068750Y-112650000D01*
G04 #@! TO.C,D44*
X122443750Y-116550000D02*
X120443750Y-116550000D01*
X120443750Y-116550000D02*
X120443750Y-112650000D01*
X122443750Y-116550000D02*
X122443750Y-112650000D01*
G04 #@! TO.C,D43*
X89106250Y-116550000D02*
X87106250Y-116550000D01*
X87106250Y-116550000D02*
X87106250Y-112650000D01*
X89106250Y-116550000D02*
X89106250Y-112650000D01*
G04 #@! TO.C,D42*
X62912500Y-116550000D02*
X60912500Y-116550000D01*
X60912500Y-116550000D02*
X60912500Y-112650000D01*
X62912500Y-116550000D02*
X62912500Y-112650000D01*
G04 #@! TO.C,D41*
X36718750Y-116550000D02*
X34718750Y-116550000D01*
X34718750Y-116550000D02*
X34718750Y-112650000D01*
X36718750Y-116550000D02*
X36718750Y-112650000D01*
G04 #@! TO.C,D40*
X281987500Y-97500000D02*
X279987500Y-97500000D01*
X279987500Y-97500000D02*
X279987500Y-93600000D01*
X281987500Y-97500000D02*
X281987500Y-93600000D01*
G04 #@! TO.C,D39*
X260556250Y-97500000D02*
X258556250Y-97500000D01*
X258556250Y-97500000D02*
X258556250Y-93600000D01*
X260556250Y-97500000D02*
X260556250Y-93600000D01*
G04 #@! TO.C,D38*
X239125000Y-97500000D02*
X237125000Y-97500000D01*
X237125000Y-97500000D02*
X237125000Y-93600000D01*
X239125000Y-97500000D02*
X239125000Y-93600000D01*
G04 #@! TO.C,D37*
X220075000Y-97500000D02*
X218075000Y-97500000D01*
X218075000Y-97500000D02*
X218075000Y-93600000D01*
X220075000Y-97500000D02*
X220075000Y-93600000D01*
G04 #@! TO.C,D36*
X201025000Y-97500000D02*
X199025000Y-97500000D01*
X199025000Y-97500000D02*
X199025000Y-93600000D01*
X201025000Y-97500000D02*
X201025000Y-93600000D01*
G04 #@! TO.C,D35*
X181975000Y-97500000D02*
X179975000Y-97500000D01*
X179975000Y-97500000D02*
X179975000Y-93600000D01*
X181975000Y-97500000D02*
X181975000Y-93600000D01*
G04 #@! TO.C,D34*
X162925000Y-97500000D02*
X160925000Y-97500000D01*
X160925000Y-97500000D02*
X160925000Y-93600000D01*
X162925000Y-97500000D02*
X162925000Y-93600000D01*
G04 #@! TO.C,D33*
X143875000Y-97500000D02*
X141875000Y-97500000D01*
X141875000Y-97500000D02*
X141875000Y-93600000D01*
X143875000Y-97500000D02*
X143875000Y-93600000D01*
G04 #@! TO.C,D32*
X124825000Y-97500000D02*
X122825000Y-97500000D01*
X122825000Y-97500000D02*
X122825000Y-93600000D01*
X124825000Y-97500000D02*
X124825000Y-93600000D01*
G04 #@! TO.C,D31*
X105775000Y-97500000D02*
X103775000Y-97500000D01*
X103775000Y-97500000D02*
X103775000Y-93600000D01*
X105775000Y-97500000D02*
X105775000Y-93600000D01*
G04 #@! TO.C,D30*
X86725000Y-97500000D02*
X84725000Y-97500000D01*
X84725000Y-97500000D02*
X84725000Y-93600000D01*
X86725000Y-97500000D02*
X86725000Y-93600000D01*
G04 #@! TO.C,D29*
X67675000Y-97500000D02*
X65675000Y-97500000D01*
X65675000Y-97500000D02*
X65675000Y-93600000D01*
X67675000Y-97500000D02*
X67675000Y-93600000D01*
G04 #@! TO.C,D28*
X25500000Y-97500000D02*
X23500000Y-97500000D01*
X23500000Y-97500000D02*
X23500000Y-93600000D01*
X25500000Y-97500000D02*
X25500000Y-93600000D01*
G04 #@! TO.C,D27*
X274843750Y-78450000D02*
X272843750Y-78450000D01*
X272843750Y-78450000D02*
X272843750Y-74550000D01*
X274843750Y-78450000D02*
X274843750Y-74550000D01*
G04 #@! TO.C,D26*
X248650000Y-78450000D02*
X246650000Y-78450000D01*
X246650000Y-78450000D02*
X246650000Y-74550000D01*
X248650000Y-78450000D02*
X248650000Y-74550000D01*
G04 #@! TO.C,D25*
X229600000Y-78450000D02*
X227600000Y-78450000D01*
X227600000Y-78450000D02*
X227600000Y-74550000D01*
X229600000Y-78450000D02*
X229600000Y-74550000D01*
G04 #@! TO.C,D24*
X210550000Y-78450000D02*
X208550000Y-78450000D01*
X208550000Y-78450000D02*
X208550000Y-74550000D01*
X210550000Y-78450000D02*
X210550000Y-74550000D01*
G04 #@! TO.C,D23*
X191500000Y-78450000D02*
X189500000Y-78450000D01*
X189500000Y-78450000D02*
X189500000Y-74550000D01*
X191500000Y-78450000D02*
X191500000Y-74550000D01*
G04 #@! TO.C,D22*
X172450000Y-78450000D02*
X170450000Y-78450000D01*
X170450000Y-78450000D02*
X170450000Y-74550000D01*
X172450000Y-78450000D02*
X172450000Y-74550000D01*
G04 #@! TO.C,D21*
X153400000Y-78450000D02*
X151400000Y-78450000D01*
X151400000Y-78450000D02*
X151400000Y-74550000D01*
X153400000Y-78450000D02*
X153400000Y-74550000D01*
G04 #@! TO.C,D20*
X134350000Y-78450000D02*
X132350000Y-78450000D01*
X132350000Y-78450000D02*
X132350000Y-74550000D01*
X134350000Y-78450000D02*
X134350000Y-74550000D01*
G04 #@! TO.C,D19*
X115300000Y-78450000D02*
X113300000Y-78450000D01*
X113300000Y-78450000D02*
X113300000Y-74550000D01*
X115300000Y-78450000D02*
X115300000Y-74550000D01*
G04 #@! TO.C,D18*
X96250000Y-78450000D02*
X94250000Y-78450000D01*
X94250000Y-78450000D02*
X94250000Y-74550000D01*
X96250000Y-78450000D02*
X96250000Y-74550000D01*
G04 #@! TO.C,D17*
X77200000Y-78450000D02*
X75200000Y-78450000D01*
X75200000Y-78450000D02*
X75200000Y-74550000D01*
X77200000Y-78450000D02*
X77200000Y-74550000D01*
G04 #@! TO.C,D16*
X58150000Y-78450000D02*
X56150000Y-78450000D01*
X56150000Y-78450000D02*
X56150000Y-74550000D01*
X58150000Y-78450000D02*
X58150000Y-74550000D01*
G04 #@! TO.C,D15*
X36718750Y-78450000D02*
X34718750Y-78450000D01*
X34718750Y-78450000D02*
X34718750Y-74550000D01*
X36718750Y-78450000D02*
X36718750Y-74550000D01*
G04 #@! TO.C,D14*
X281987500Y-59400000D02*
X279987500Y-59400000D01*
X279987500Y-59400000D02*
X279987500Y-55500000D01*
X281987500Y-59400000D02*
X281987500Y-55500000D01*
G04 #@! TO.C,D13*
X262937500Y-59400000D02*
X260937500Y-59400000D01*
X260937500Y-59400000D02*
X260937500Y-55500000D01*
X262937500Y-59400000D02*
X262937500Y-55500000D01*
G04 #@! TO.C,D12*
X243887500Y-59400000D02*
X241887500Y-59400000D01*
X241887500Y-59400000D02*
X241887500Y-55500000D01*
X243887500Y-59400000D02*
X243887500Y-55500000D01*
G04 #@! TO.C,D11*
X224837500Y-59400000D02*
X222837500Y-59400000D01*
X222837500Y-59400000D02*
X222837500Y-55500000D01*
X224837500Y-59400000D02*
X224837500Y-55500000D01*
G04 #@! TO.C,D10*
X205787500Y-59400000D02*
X203787500Y-59400000D01*
X203787500Y-59400000D02*
X203787500Y-55500000D01*
X205787500Y-59400000D02*
X205787500Y-55500000D01*
G04 #@! TO.C,D9*
X186737500Y-59400000D02*
X184737500Y-59400000D01*
X184737500Y-59400000D02*
X184737500Y-55500000D01*
X186737500Y-59400000D02*
X186737500Y-55500000D01*
G04 #@! TO.C,D8*
X167687500Y-59400000D02*
X165687500Y-59400000D01*
X165687500Y-59400000D02*
X165687500Y-55500000D01*
X167687500Y-59400000D02*
X167687500Y-55500000D01*
G04 #@! TO.C,D7*
X148637500Y-59400000D02*
X146637500Y-59400000D01*
X146637500Y-59400000D02*
X146637500Y-55500000D01*
X148637500Y-59400000D02*
X148637500Y-55500000D01*
G04 #@! TO.C,D6*
X129587500Y-59400000D02*
X127587500Y-59400000D01*
X127587500Y-59400000D02*
X127587500Y-55500000D01*
X129587500Y-59400000D02*
X129587500Y-55500000D01*
G04 #@! TO.C,D5*
X110537500Y-59400000D02*
X108537500Y-59400000D01*
X108537500Y-59400000D02*
X108537500Y-55500000D01*
X110537500Y-59400000D02*
X110537500Y-55500000D01*
G04 #@! TO.C,D4*
X91487500Y-59400000D02*
X89487500Y-59400000D01*
X89487500Y-59400000D02*
X89487500Y-55500000D01*
X91487500Y-59400000D02*
X91487500Y-55500000D01*
G04 #@! TO.C,D3*
X72437500Y-59400000D02*
X70437500Y-59400000D01*
X70437500Y-59400000D02*
X70437500Y-55500000D01*
X72437500Y-59400000D02*
X72437500Y-55500000D01*
G04 #@! TO.C,D2*
X53387500Y-59400000D02*
X51387500Y-59400000D01*
X51387500Y-59400000D02*
X51387500Y-55500000D01*
X53387500Y-59400000D02*
X53387500Y-55500000D01*
G04 #@! TO.C,D1*
X34337500Y-59400000D02*
X32337500Y-59400000D01*
X32337500Y-59400000D02*
X32337500Y-55500000D01*
X34337500Y-59400000D02*
X34337500Y-55500000D01*
G04 #@! TO.C,C7*
X55498748Y-88495000D02*
X56021252Y-88495000D01*
X55498748Y-89965000D02*
X56021252Y-89965000D01*
G04 #@! TO.C,C6*
X55498748Y-81745000D02*
X56021252Y-81745000D01*
X55498748Y-83215000D02*
X56021252Y-83215000D01*
G04 #@! TO.C,C3*
X49395000Y-88788748D02*
X49395000Y-89311252D01*
X50865000Y-88788748D02*
X50865000Y-89311252D01*
G04 #@! TO.C,C2*
X45378748Y-80905000D02*
X45901252Y-80905000D01*
X45378748Y-79435000D02*
X45901252Y-79435000D01*
G04 #@! TO.C,C1*
X36935000Y-71661252D02*
X36935000Y-71138748D01*
X35465000Y-71661252D02*
X35465000Y-71138748D01*
G04 #@! TO.C,C4*
D11*
X48477142Y-82153333D02*
X48524761Y-82105714D01*
X48572380Y-81962857D01*
X48572380Y-81867619D01*
X48524761Y-81724761D01*
X48429523Y-81629523D01*
X48334285Y-81581904D01*
X48143809Y-81534285D01*
X48000952Y-81534285D01*
X47810476Y-81581904D01*
X47715238Y-81629523D01*
X47620000Y-81724761D01*
X47572380Y-81867619D01*
X47572380Y-81962857D01*
X47620000Y-82105714D01*
X47667619Y-82153333D01*
X47905714Y-83010476D02*
X48572380Y-83010476D01*
X47524761Y-82772380D02*
X48239047Y-82534285D01*
X48239047Y-83153333D01*
G04 #@! TO.C,U1*
X43361904Y-80522380D02*
X43361904Y-81331904D01*
X43314285Y-81427142D01*
X43266666Y-81474761D01*
X43171428Y-81522380D01*
X42980952Y-81522380D01*
X42885714Y-81474761D01*
X42838095Y-81427142D01*
X42790476Y-81331904D01*
X42790476Y-80522380D01*
X41790476Y-81522380D02*
X42361904Y-81522380D01*
X42076190Y-81522380D02*
X42076190Y-80522380D01*
X42171428Y-80665238D01*
X42266666Y-80760476D01*
X42361904Y-80808095D01*
G04 #@! TO.C,C5*
X45166666Y-73037142D02*
X45214285Y-73084761D01*
X45357142Y-73132380D01*
X45452380Y-73132380D01*
X45595238Y-73084761D01*
X45690476Y-72989523D01*
X45738095Y-72894285D01*
X45785714Y-72703809D01*
X45785714Y-72560952D01*
X45738095Y-72370476D01*
X45690476Y-72275238D01*
X45595238Y-72180000D01*
X45452380Y-72132380D01*
X45357142Y-72132380D01*
X45214285Y-72180000D01*
X45166666Y-72227619D01*
X44261904Y-72132380D02*
X44738095Y-72132380D01*
X44785714Y-72608571D01*
X44738095Y-72560952D01*
X44642857Y-72513333D01*
X44404761Y-72513333D01*
X44309523Y-72560952D01*
X44261904Y-72608571D01*
X44214285Y-72703809D01*
X44214285Y-72941904D01*
X44261904Y-73037142D01*
X44309523Y-73084761D01*
X44404761Y-73132380D01*
X44642857Y-73132380D01*
X44738095Y-73084761D01*
X44785714Y-73037142D01*
G04 #@! TO.C,U2*
X55327379Y-65247906D02*
X56136903Y-65247906D01*
X56232141Y-65295525D01*
X56279760Y-65343144D01*
X56327379Y-65438382D01*
X56327379Y-65628858D01*
X56279760Y-65724096D01*
X56232141Y-65771715D01*
X56136903Y-65819334D01*
X55327379Y-65819334D01*
X55422618Y-66247906D02*
X55374999Y-66295525D01*
X55327379Y-66390763D01*
X55327379Y-66628858D01*
X55374999Y-66724096D01*
X55422618Y-66771715D01*
X55517856Y-66819334D01*
X55613094Y-66819334D01*
X55755951Y-66771715D01*
X56327379Y-66200287D01*
X56327379Y-66819334D01*
G04 #@! TO.C,R4*
X32382380Y-80335833D02*
X31906190Y-80002500D01*
X32382380Y-79764404D02*
X31382380Y-79764404D01*
X31382380Y-80145357D01*
X31430000Y-80240595D01*
X31477619Y-80288214D01*
X31572857Y-80335833D01*
X31715714Y-80335833D01*
X31810952Y-80288214D01*
X31858571Y-80240595D01*
X31906190Y-80145357D01*
X31906190Y-79764404D01*
X31715714Y-81192976D02*
X32382380Y-81192976D01*
X31334761Y-80954880D02*
X32049047Y-80716785D01*
X32049047Y-81335833D01*
G04 #@! TO.C,J1*
X68752380Y-65616666D02*
X69466666Y-65616666D01*
X69609523Y-65569047D01*
X69704761Y-65473809D01*
X69752380Y-65330952D01*
X69752380Y-65235714D01*
X69752380Y-66616666D02*
X69752380Y-66045238D01*
X69752380Y-66330952D02*
X68752380Y-66330952D01*
X68895238Y-66235714D01*
X68990476Y-66140476D01*
X69038095Y-66045238D01*
G04 #@! TO.C,Y1*
X53311190Y-85378809D02*
X53787380Y-85378809D01*
X52787380Y-85045476D02*
X53311190Y-85378809D01*
X52787380Y-85712142D01*
X53787380Y-86569285D02*
X53787380Y-85997857D01*
X53787380Y-86283571D02*
X52787380Y-86283571D01*
X52930238Y-86188333D01*
X53025476Y-86093095D01*
X53073095Y-85997857D01*
G04 #@! TO.C,SW1*
X38408333Y-62065761D02*
X38265476Y-62113380D01*
X38027380Y-62113380D01*
X37932142Y-62065761D01*
X37884523Y-62018142D01*
X37836904Y-61922904D01*
X37836904Y-61827666D01*
X37884523Y-61732428D01*
X37932142Y-61684809D01*
X38027380Y-61637190D01*
X38217857Y-61589571D01*
X38313095Y-61541952D01*
X38360714Y-61494333D01*
X38408333Y-61399095D01*
X38408333Y-61303857D01*
X38360714Y-61208619D01*
X38313095Y-61161000D01*
X38217857Y-61113380D01*
X37979761Y-61113380D01*
X37836904Y-61161000D01*
X37503571Y-61113380D02*
X37265476Y-62113380D01*
X37075000Y-61399095D01*
X36884523Y-62113380D01*
X36646428Y-61113380D01*
X35741666Y-62113380D02*
X36313095Y-62113380D01*
X36027380Y-62113380D02*
X36027380Y-61113380D01*
X36122619Y-61256238D01*
X36217857Y-61351476D01*
X36313095Y-61399095D01*
G04 #@! TO.C,R3*
X50847916Y-69246130D02*
X51181250Y-68769940D01*
X51419345Y-69246130D02*
X51419345Y-68246130D01*
X51038392Y-68246130D01*
X50943154Y-68293750D01*
X50895535Y-68341369D01*
X50847916Y-68436607D01*
X50847916Y-68579464D01*
X50895535Y-68674702D01*
X50943154Y-68722321D01*
X51038392Y-68769940D01*
X51419345Y-68769940D01*
X50514583Y-68246130D02*
X49895535Y-68246130D01*
X50228869Y-68627083D01*
X50086011Y-68627083D01*
X49990773Y-68674702D01*
X49943154Y-68722321D01*
X49895535Y-68817559D01*
X49895535Y-69055654D01*
X49943154Y-69150892D01*
X49990773Y-69198511D01*
X50086011Y-69246130D01*
X50371726Y-69246130D01*
X50466964Y-69198511D01*
X50514583Y-69150892D01*
G04 #@! TO.C,R2*
X50847916Y-66864880D02*
X51181250Y-66388690D01*
X51419345Y-66864880D02*
X51419345Y-65864880D01*
X51038392Y-65864880D01*
X50943154Y-65912500D01*
X50895535Y-65960119D01*
X50847916Y-66055357D01*
X50847916Y-66198214D01*
X50895535Y-66293452D01*
X50943154Y-66341071D01*
X51038392Y-66388690D01*
X51419345Y-66388690D01*
X50466964Y-65960119D02*
X50419345Y-65912500D01*
X50324107Y-65864880D01*
X50086011Y-65864880D01*
X49990773Y-65912500D01*
X49943154Y-65960119D01*
X49895535Y-66055357D01*
X49895535Y-66150595D01*
X49943154Y-66293452D01*
X50514583Y-66864880D01*
X49895535Y-66864880D01*
G04 #@! TO.C,R1*
X49532380Y-93273333D02*
X49056190Y-92940000D01*
X49532380Y-92701904D02*
X48532380Y-92701904D01*
X48532380Y-93082857D01*
X48580000Y-93178095D01*
X48627619Y-93225714D01*
X48722857Y-93273333D01*
X48865714Y-93273333D01*
X48960952Y-93225714D01*
X49008571Y-93178095D01*
X49056190Y-93082857D01*
X49056190Y-92701904D01*
X49532380Y-94225714D02*
X49532380Y-93654285D01*
X49532380Y-93940000D02*
X48532380Y-93940000D01*
X48675238Y-93844761D01*
X48770476Y-93749523D01*
X48818095Y-93654285D01*
G04 #@! TO.C,F1*
X56433333Y-72998571D02*
X56766666Y-72998571D01*
X56766666Y-73522380D02*
X56766666Y-72522380D01*
X56290476Y-72522380D01*
X55385714Y-73522380D02*
X55957142Y-73522380D01*
X55671428Y-73522380D02*
X55671428Y-72522380D01*
X55766666Y-72665238D01*
X55861904Y-72760476D01*
X55957142Y-72808095D01*
G04 #@! TO.C,D49*
X283439880Y-113085714D02*
X282439880Y-113085714D01*
X282439880Y-113323809D01*
X282487500Y-113466666D01*
X282582738Y-113561904D01*
X282677976Y-113609523D01*
X282868452Y-113657142D01*
X283011309Y-113657142D01*
X283201785Y-113609523D01*
X283297023Y-113561904D01*
X283392261Y-113466666D01*
X283439880Y-113323809D01*
X283439880Y-113085714D01*
X282773214Y-114514285D02*
X283439880Y-114514285D01*
X282392261Y-114276190D02*
X283106547Y-114038095D01*
X283106547Y-114657142D01*
X283439880Y-115085714D02*
X283439880Y-115276190D01*
X283392261Y-115371428D01*
X283344642Y-115419047D01*
X283201785Y-115514285D01*
X283011309Y-115561904D01*
X282630357Y-115561904D01*
X282535119Y-115514285D01*
X282487500Y-115466666D01*
X282439880Y-115371428D01*
X282439880Y-115180952D01*
X282487500Y-115085714D01*
X282535119Y-115038095D01*
X282630357Y-114990476D01*
X282868452Y-114990476D01*
X282963690Y-115038095D01*
X283011309Y-115085714D01*
X283058928Y-115180952D01*
X283058928Y-115371428D01*
X283011309Y-115466666D01*
X282963690Y-115514285D01*
X282868452Y-115561904D01*
G04 #@! TO.C,D48*
X262008630Y-113085714D02*
X261008630Y-113085714D01*
X261008630Y-113323809D01*
X261056250Y-113466666D01*
X261151488Y-113561904D01*
X261246726Y-113609523D01*
X261437202Y-113657142D01*
X261580059Y-113657142D01*
X261770535Y-113609523D01*
X261865773Y-113561904D01*
X261961011Y-113466666D01*
X262008630Y-113323809D01*
X262008630Y-113085714D01*
X261341964Y-114514285D02*
X262008630Y-114514285D01*
X260961011Y-114276190D02*
X261675297Y-114038095D01*
X261675297Y-114657142D01*
X261437202Y-115180952D02*
X261389583Y-115085714D01*
X261341964Y-115038095D01*
X261246726Y-114990476D01*
X261199107Y-114990476D01*
X261103869Y-115038095D01*
X261056250Y-115085714D01*
X261008630Y-115180952D01*
X261008630Y-115371428D01*
X261056250Y-115466666D01*
X261103869Y-115514285D01*
X261199107Y-115561904D01*
X261246726Y-115561904D01*
X261341964Y-115514285D01*
X261389583Y-115466666D01*
X261437202Y-115371428D01*
X261437202Y-115180952D01*
X261484821Y-115085714D01*
X261532440Y-115038095D01*
X261627678Y-114990476D01*
X261818154Y-114990476D01*
X261913392Y-115038095D01*
X261961011Y-115085714D01*
X262008630Y-115180952D01*
X262008630Y-115371428D01*
X261961011Y-115466666D01*
X261913392Y-115514285D01*
X261818154Y-115561904D01*
X261627678Y-115561904D01*
X261532440Y-115514285D01*
X261484821Y-115466666D01*
X261437202Y-115371428D01*
G04 #@! TO.C,D47*
X235814880Y-113085714D02*
X234814880Y-113085714D01*
X234814880Y-113323809D01*
X234862500Y-113466666D01*
X234957738Y-113561904D01*
X235052976Y-113609523D01*
X235243452Y-113657142D01*
X235386309Y-113657142D01*
X235576785Y-113609523D01*
X235672023Y-113561904D01*
X235767261Y-113466666D01*
X235814880Y-113323809D01*
X235814880Y-113085714D01*
X235148214Y-114514285D02*
X235814880Y-114514285D01*
X234767261Y-114276190D02*
X235481547Y-114038095D01*
X235481547Y-114657142D01*
X234814880Y-114942857D02*
X234814880Y-115609523D01*
X235814880Y-115180952D01*
G04 #@! TO.C,D46*
X209621130Y-113085714D02*
X208621130Y-113085714D01*
X208621130Y-113323809D01*
X208668750Y-113466666D01*
X208763988Y-113561904D01*
X208859226Y-113609523D01*
X209049702Y-113657142D01*
X209192559Y-113657142D01*
X209383035Y-113609523D01*
X209478273Y-113561904D01*
X209573511Y-113466666D01*
X209621130Y-113323809D01*
X209621130Y-113085714D01*
X208954464Y-114514285D02*
X209621130Y-114514285D01*
X208573511Y-114276190D02*
X209287797Y-114038095D01*
X209287797Y-114657142D01*
X208621130Y-115466666D02*
X208621130Y-115276190D01*
X208668750Y-115180952D01*
X208716369Y-115133333D01*
X208859226Y-115038095D01*
X209049702Y-114990476D01*
X209430654Y-114990476D01*
X209525892Y-115038095D01*
X209573511Y-115085714D01*
X209621130Y-115180952D01*
X209621130Y-115371428D01*
X209573511Y-115466666D01*
X209525892Y-115514285D01*
X209430654Y-115561904D01*
X209192559Y-115561904D01*
X209097321Y-115514285D01*
X209049702Y-115466666D01*
X209002083Y-115371428D01*
X209002083Y-115180952D01*
X209049702Y-115085714D01*
X209097321Y-115038095D01*
X209192559Y-114990476D01*
G04 #@! TO.C,D45*
X171521130Y-113085714D02*
X170521130Y-113085714D01*
X170521130Y-113323809D01*
X170568750Y-113466666D01*
X170663988Y-113561904D01*
X170759226Y-113609523D01*
X170949702Y-113657142D01*
X171092559Y-113657142D01*
X171283035Y-113609523D01*
X171378273Y-113561904D01*
X171473511Y-113466666D01*
X171521130Y-113323809D01*
X171521130Y-113085714D01*
X170854464Y-114514285D02*
X171521130Y-114514285D01*
X170473511Y-114276190D02*
X171187797Y-114038095D01*
X171187797Y-114657142D01*
X170521130Y-115514285D02*
X170521130Y-115038095D01*
X170997321Y-114990476D01*
X170949702Y-115038095D01*
X170902083Y-115133333D01*
X170902083Y-115371428D01*
X170949702Y-115466666D01*
X170997321Y-115514285D01*
X171092559Y-115561904D01*
X171330654Y-115561904D01*
X171425892Y-115514285D01*
X171473511Y-115466666D01*
X171521130Y-115371428D01*
X171521130Y-115133333D01*
X171473511Y-115038095D01*
X171425892Y-114990476D01*
G04 #@! TO.C,D44*
X123896130Y-113085714D02*
X122896130Y-113085714D01*
X122896130Y-113323809D01*
X122943750Y-113466666D01*
X123038988Y-113561904D01*
X123134226Y-113609523D01*
X123324702Y-113657142D01*
X123467559Y-113657142D01*
X123658035Y-113609523D01*
X123753273Y-113561904D01*
X123848511Y-113466666D01*
X123896130Y-113323809D01*
X123896130Y-113085714D01*
X123229464Y-114514285D02*
X123896130Y-114514285D01*
X122848511Y-114276190D02*
X123562797Y-114038095D01*
X123562797Y-114657142D01*
X123229464Y-115466666D02*
X123896130Y-115466666D01*
X122848511Y-115228571D02*
X123562797Y-114990476D01*
X123562797Y-115609523D01*
G04 #@! TO.C,D43*
X90558630Y-113085714D02*
X89558630Y-113085714D01*
X89558630Y-113323809D01*
X89606250Y-113466666D01*
X89701488Y-113561904D01*
X89796726Y-113609523D01*
X89987202Y-113657142D01*
X90130059Y-113657142D01*
X90320535Y-113609523D01*
X90415773Y-113561904D01*
X90511011Y-113466666D01*
X90558630Y-113323809D01*
X90558630Y-113085714D01*
X89891964Y-114514285D02*
X90558630Y-114514285D01*
X89511011Y-114276190D02*
X90225297Y-114038095D01*
X90225297Y-114657142D01*
X89558630Y-114942857D02*
X89558630Y-115561904D01*
X89939583Y-115228571D01*
X89939583Y-115371428D01*
X89987202Y-115466666D01*
X90034821Y-115514285D01*
X90130059Y-115561904D01*
X90368154Y-115561904D01*
X90463392Y-115514285D01*
X90511011Y-115466666D01*
X90558630Y-115371428D01*
X90558630Y-115085714D01*
X90511011Y-114990476D01*
X90463392Y-114942857D01*
G04 #@! TO.C,D42*
X64364880Y-113085714D02*
X63364880Y-113085714D01*
X63364880Y-113323809D01*
X63412500Y-113466666D01*
X63507738Y-113561904D01*
X63602976Y-113609523D01*
X63793452Y-113657142D01*
X63936309Y-113657142D01*
X64126785Y-113609523D01*
X64222023Y-113561904D01*
X64317261Y-113466666D01*
X64364880Y-113323809D01*
X64364880Y-113085714D01*
X63698214Y-114514285D02*
X64364880Y-114514285D01*
X63317261Y-114276190D02*
X64031547Y-114038095D01*
X64031547Y-114657142D01*
X63460119Y-114990476D02*
X63412500Y-115038095D01*
X63364880Y-115133333D01*
X63364880Y-115371428D01*
X63412500Y-115466666D01*
X63460119Y-115514285D01*
X63555357Y-115561904D01*
X63650595Y-115561904D01*
X63793452Y-115514285D01*
X64364880Y-114942857D01*
X64364880Y-115561904D01*
G04 #@! TO.C,D41*
X38171130Y-113085714D02*
X37171130Y-113085714D01*
X37171130Y-113323809D01*
X37218750Y-113466666D01*
X37313988Y-113561904D01*
X37409226Y-113609523D01*
X37599702Y-113657142D01*
X37742559Y-113657142D01*
X37933035Y-113609523D01*
X38028273Y-113561904D01*
X38123511Y-113466666D01*
X38171130Y-113323809D01*
X38171130Y-113085714D01*
X37504464Y-114514285D02*
X38171130Y-114514285D01*
X37123511Y-114276190D02*
X37837797Y-114038095D01*
X37837797Y-114657142D01*
X38171130Y-115561904D02*
X38171130Y-114990476D01*
X38171130Y-115276190D02*
X37171130Y-115276190D01*
X37313988Y-115180952D01*
X37409226Y-115085714D01*
X37456845Y-114990476D01*
G04 #@! TO.C,D40*
X283439880Y-94035714D02*
X282439880Y-94035714D01*
X282439880Y-94273809D01*
X282487500Y-94416666D01*
X282582738Y-94511904D01*
X282677976Y-94559523D01*
X282868452Y-94607142D01*
X283011309Y-94607142D01*
X283201785Y-94559523D01*
X283297023Y-94511904D01*
X283392261Y-94416666D01*
X283439880Y-94273809D01*
X283439880Y-94035714D01*
X282773214Y-95464285D02*
X283439880Y-95464285D01*
X282392261Y-95226190D02*
X283106547Y-94988095D01*
X283106547Y-95607142D01*
X282439880Y-96178571D02*
X282439880Y-96273809D01*
X282487500Y-96369047D01*
X282535119Y-96416666D01*
X282630357Y-96464285D01*
X282820833Y-96511904D01*
X283058928Y-96511904D01*
X283249404Y-96464285D01*
X283344642Y-96416666D01*
X283392261Y-96369047D01*
X283439880Y-96273809D01*
X283439880Y-96178571D01*
X283392261Y-96083333D01*
X283344642Y-96035714D01*
X283249404Y-95988095D01*
X283058928Y-95940476D01*
X282820833Y-95940476D01*
X282630357Y-95988095D01*
X282535119Y-96035714D01*
X282487500Y-96083333D01*
X282439880Y-96178571D01*
G04 #@! TO.C,D39*
X262008630Y-94035714D02*
X261008630Y-94035714D01*
X261008630Y-94273809D01*
X261056250Y-94416666D01*
X261151488Y-94511904D01*
X261246726Y-94559523D01*
X261437202Y-94607142D01*
X261580059Y-94607142D01*
X261770535Y-94559523D01*
X261865773Y-94511904D01*
X261961011Y-94416666D01*
X262008630Y-94273809D01*
X262008630Y-94035714D01*
X261008630Y-94940476D02*
X261008630Y-95559523D01*
X261389583Y-95226190D01*
X261389583Y-95369047D01*
X261437202Y-95464285D01*
X261484821Y-95511904D01*
X261580059Y-95559523D01*
X261818154Y-95559523D01*
X261913392Y-95511904D01*
X261961011Y-95464285D01*
X262008630Y-95369047D01*
X262008630Y-95083333D01*
X261961011Y-94988095D01*
X261913392Y-94940476D01*
X262008630Y-96035714D02*
X262008630Y-96226190D01*
X261961011Y-96321428D01*
X261913392Y-96369047D01*
X261770535Y-96464285D01*
X261580059Y-96511904D01*
X261199107Y-96511904D01*
X261103869Y-96464285D01*
X261056250Y-96416666D01*
X261008630Y-96321428D01*
X261008630Y-96130952D01*
X261056250Y-96035714D01*
X261103869Y-95988095D01*
X261199107Y-95940476D01*
X261437202Y-95940476D01*
X261532440Y-95988095D01*
X261580059Y-96035714D01*
X261627678Y-96130952D01*
X261627678Y-96321428D01*
X261580059Y-96416666D01*
X261532440Y-96464285D01*
X261437202Y-96511904D01*
G04 #@! TO.C,D38*
X240577380Y-94035714D02*
X239577380Y-94035714D01*
X239577380Y-94273809D01*
X239625000Y-94416666D01*
X239720238Y-94511904D01*
X239815476Y-94559523D01*
X240005952Y-94607142D01*
X240148809Y-94607142D01*
X240339285Y-94559523D01*
X240434523Y-94511904D01*
X240529761Y-94416666D01*
X240577380Y-94273809D01*
X240577380Y-94035714D01*
X239577380Y-94940476D02*
X239577380Y-95559523D01*
X239958333Y-95226190D01*
X239958333Y-95369047D01*
X240005952Y-95464285D01*
X240053571Y-95511904D01*
X240148809Y-95559523D01*
X240386904Y-95559523D01*
X240482142Y-95511904D01*
X240529761Y-95464285D01*
X240577380Y-95369047D01*
X240577380Y-95083333D01*
X240529761Y-94988095D01*
X240482142Y-94940476D01*
X240005952Y-96130952D02*
X239958333Y-96035714D01*
X239910714Y-95988095D01*
X239815476Y-95940476D01*
X239767857Y-95940476D01*
X239672619Y-95988095D01*
X239625000Y-96035714D01*
X239577380Y-96130952D01*
X239577380Y-96321428D01*
X239625000Y-96416666D01*
X239672619Y-96464285D01*
X239767857Y-96511904D01*
X239815476Y-96511904D01*
X239910714Y-96464285D01*
X239958333Y-96416666D01*
X240005952Y-96321428D01*
X240005952Y-96130952D01*
X240053571Y-96035714D01*
X240101190Y-95988095D01*
X240196428Y-95940476D01*
X240386904Y-95940476D01*
X240482142Y-95988095D01*
X240529761Y-96035714D01*
X240577380Y-96130952D01*
X240577380Y-96321428D01*
X240529761Y-96416666D01*
X240482142Y-96464285D01*
X240386904Y-96511904D01*
X240196428Y-96511904D01*
X240101190Y-96464285D01*
X240053571Y-96416666D01*
X240005952Y-96321428D01*
G04 #@! TO.C,D37*
X221527380Y-94035714D02*
X220527380Y-94035714D01*
X220527380Y-94273809D01*
X220575000Y-94416666D01*
X220670238Y-94511904D01*
X220765476Y-94559523D01*
X220955952Y-94607142D01*
X221098809Y-94607142D01*
X221289285Y-94559523D01*
X221384523Y-94511904D01*
X221479761Y-94416666D01*
X221527380Y-94273809D01*
X221527380Y-94035714D01*
X220527380Y-94940476D02*
X220527380Y-95559523D01*
X220908333Y-95226190D01*
X220908333Y-95369047D01*
X220955952Y-95464285D01*
X221003571Y-95511904D01*
X221098809Y-95559523D01*
X221336904Y-95559523D01*
X221432142Y-95511904D01*
X221479761Y-95464285D01*
X221527380Y-95369047D01*
X221527380Y-95083333D01*
X221479761Y-94988095D01*
X221432142Y-94940476D01*
X220527380Y-95892857D02*
X220527380Y-96559523D01*
X221527380Y-96130952D01*
G04 #@! TO.C,D36*
X202477380Y-94035714D02*
X201477380Y-94035714D01*
X201477380Y-94273809D01*
X201525000Y-94416666D01*
X201620238Y-94511904D01*
X201715476Y-94559523D01*
X201905952Y-94607142D01*
X202048809Y-94607142D01*
X202239285Y-94559523D01*
X202334523Y-94511904D01*
X202429761Y-94416666D01*
X202477380Y-94273809D01*
X202477380Y-94035714D01*
X201477380Y-94940476D02*
X201477380Y-95559523D01*
X201858333Y-95226190D01*
X201858333Y-95369047D01*
X201905952Y-95464285D01*
X201953571Y-95511904D01*
X202048809Y-95559523D01*
X202286904Y-95559523D01*
X202382142Y-95511904D01*
X202429761Y-95464285D01*
X202477380Y-95369047D01*
X202477380Y-95083333D01*
X202429761Y-94988095D01*
X202382142Y-94940476D01*
X201477380Y-96416666D02*
X201477380Y-96226190D01*
X201525000Y-96130952D01*
X201572619Y-96083333D01*
X201715476Y-95988095D01*
X201905952Y-95940476D01*
X202286904Y-95940476D01*
X202382142Y-95988095D01*
X202429761Y-96035714D01*
X202477380Y-96130952D01*
X202477380Y-96321428D01*
X202429761Y-96416666D01*
X202382142Y-96464285D01*
X202286904Y-96511904D01*
X202048809Y-96511904D01*
X201953571Y-96464285D01*
X201905952Y-96416666D01*
X201858333Y-96321428D01*
X201858333Y-96130952D01*
X201905952Y-96035714D01*
X201953571Y-95988095D01*
X202048809Y-95940476D01*
G04 #@! TO.C,D35*
X183427380Y-94035714D02*
X182427380Y-94035714D01*
X182427380Y-94273809D01*
X182475000Y-94416666D01*
X182570238Y-94511904D01*
X182665476Y-94559523D01*
X182855952Y-94607142D01*
X182998809Y-94607142D01*
X183189285Y-94559523D01*
X183284523Y-94511904D01*
X183379761Y-94416666D01*
X183427380Y-94273809D01*
X183427380Y-94035714D01*
X182427380Y-94940476D02*
X182427380Y-95559523D01*
X182808333Y-95226190D01*
X182808333Y-95369047D01*
X182855952Y-95464285D01*
X182903571Y-95511904D01*
X182998809Y-95559523D01*
X183236904Y-95559523D01*
X183332142Y-95511904D01*
X183379761Y-95464285D01*
X183427380Y-95369047D01*
X183427380Y-95083333D01*
X183379761Y-94988095D01*
X183332142Y-94940476D01*
X182427380Y-96464285D02*
X182427380Y-95988095D01*
X182903571Y-95940476D01*
X182855952Y-95988095D01*
X182808333Y-96083333D01*
X182808333Y-96321428D01*
X182855952Y-96416666D01*
X182903571Y-96464285D01*
X182998809Y-96511904D01*
X183236904Y-96511904D01*
X183332142Y-96464285D01*
X183379761Y-96416666D01*
X183427380Y-96321428D01*
X183427380Y-96083333D01*
X183379761Y-95988095D01*
X183332142Y-95940476D01*
G04 #@! TO.C,D34*
X164377380Y-94035714D02*
X163377380Y-94035714D01*
X163377380Y-94273809D01*
X163425000Y-94416666D01*
X163520238Y-94511904D01*
X163615476Y-94559523D01*
X163805952Y-94607142D01*
X163948809Y-94607142D01*
X164139285Y-94559523D01*
X164234523Y-94511904D01*
X164329761Y-94416666D01*
X164377380Y-94273809D01*
X164377380Y-94035714D01*
X163377380Y-94940476D02*
X163377380Y-95559523D01*
X163758333Y-95226190D01*
X163758333Y-95369047D01*
X163805952Y-95464285D01*
X163853571Y-95511904D01*
X163948809Y-95559523D01*
X164186904Y-95559523D01*
X164282142Y-95511904D01*
X164329761Y-95464285D01*
X164377380Y-95369047D01*
X164377380Y-95083333D01*
X164329761Y-94988095D01*
X164282142Y-94940476D01*
X163710714Y-96416666D02*
X164377380Y-96416666D01*
X163329761Y-96178571D02*
X164044047Y-95940476D01*
X164044047Y-96559523D01*
G04 #@! TO.C,D33*
X145327380Y-94035714D02*
X144327380Y-94035714D01*
X144327380Y-94273809D01*
X144375000Y-94416666D01*
X144470238Y-94511904D01*
X144565476Y-94559523D01*
X144755952Y-94607142D01*
X144898809Y-94607142D01*
X145089285Y-94559523D01*
X145184523Y-94511904D01*
X145279761Y-94416666D01*
X145327380Y-94273809D01*
X145327380Y-94035714D01*
X144327380Y-94940476D02*
X144327380Y-95559523D01*
X144708333Y-95226190D01*
X144708333Y-95369047D01*
X144755952Y-95464285D01*
X144803571Y-95511904D01*
X144898809Y-95559523D01*
X145136904Y-95559523D01*
X145232142Y-95511904D01*
X145279761Y-95464285D01*
X145327380Y-95369047D01*
X145327380Y-95083333D01*
X145279761Y-94988095D01*
X145232142Y-94940476D01*
X144327380Y-95892857D02*
X144327380Y-96511904D01*
X144708333Y-96178571D01*
X144708333Y-96321428D01*
X144755952Y-96416666D01*
X144803571Y-96464285D01*
X144898809Y-96511904D01*
X145136904Y-96511904D01*
X145232142Y-96464285D01*
X145279761Y-96416666D01*
X145327380Y-96321428D01*
X145327380Y-96035714D01*
X145279761Y-95940476D01*
X145232142Y-95892857D01*
G04 #@! TO.C,D32*
X126277380Y-94035714D02*
X125277380Y-94035714D01*
X125277380Y-94273809D01*
X125325000Y-94416666D01*
X125420238Y-94511904D01*
X125515476Y-94559523D01*
X125705952Y-94607142D01*
X125848809Y-94607142D01*
X126039285Y-94559523D01*
X126134523Y-94511904D01*
X126229761Y-94416666D01*
X126277380Y-94273809D01*
X126277380Y-94035714D01*
X125277380Y-94940476D02*
X125277380Y-95559523D01*
X125658333Y-95226190D01*
X125658333Y-95369047D01*
X125705952Y-95464285D01*
X125753571Y-95511904D01*
X125848809Y-95559523D01*
X126086904Y-95559523D01*
X126182142Y-95511904D01*
X126229761Y-95464285D01*
X126277380Y-95369047D01*
X126277380Y-95083333D01*
X126229761Y-94988095D01*
X126182142Y-94940476D01*
X125372619Y-95940476D02*
X125325000Y-95988095D01*
X125277380Y-96083333D01*
X125277380Y-96321428D01*
X125325000Y-96416666D01*
X125372619Y-96464285D01*
X125467857Y-96511904D01*
X125563095Y-96511904D01*
X125705952Y-96464285D01*
X126277380Y-95892857D01*
X126277380Y-96511904D01*
G04 #@! TO.C,D31*
X107227380Y-94035714D02*
X106227380Y-94035714D01*
X106227380Y-94273809D01*
X106275000Y-94416666D01*
X106370238Y-94511904D01*
X106465476Y-94559523D01*
X106655952Y-94607142D01*
X106798809Y-94607142D01*
X106989285Y-94559523D01*
X107084523Y-94511904D01*
X107179761Y-94416666D01*
X107227380Y-94273809D01*
X107227380Y-94035714D01*
X106227380Y-94940476D02*
X106227380Y-95559523D01*
X106608333Y-95226190D01*
X106608333Y-95369047D01*
X106655952Y-95464285D01*
X106703571Y-95511904D01*
X106798809Y-95559523D01*
X107036904Y-95559523D01*
X107132142Y-95511904D01*
X107179761Y-95464285D01*
X107227380Y-95369047D01*
X107227380Y-95083333D01*
X107179761Y-94988095D01*
X107132142Y-94940476D01*
X107227380Y-96511904D02*
X107227380Y-95940476D01*
X107227380Y-96226190D02*
X106227380Y-96226190D01*
X106370238Y-96130952D01*
X106465476Y-96035714D01*
X106513095Y-95940476D01*
G04 #@! TO.C,D30*
X88177380Y-94035714D02*
X87177380Y-94035714D01*
X87177380Y-94273809D01*
X87225000Y-94416666D01*
X87320238Y-94511904D01*
X87415476Y-94559523D01*
X87605952Y-94607142D01*
X87748809Y-94607142D01*
X87939285Y-94559523D01*
X88034523Y-94511904D01*
X88129761Y-94416666D01*
X88177380Y-94273809D01*
X88177380Y-94035714D01*
X87177380Y-94940476D02*
X87177380Y-95559523D01*
X87558333Y-95226190D01*
X87558333Y-95369047D01*
X87605952Y-95464285D01*
X87653571Y-95511904D01*
X87748809Y-95559523D01*
X87986904Y-95559523D01*
X88082142Y-95511904D01*
X88129761Y-95464285D01*
X88177380Y-95369047D01*
X88177380Y-95083333D01*
X88129761Y-94988095D01*
X88082142Y-94940476D01*
X87177380Y-96178571D02*
X87177380Y-96273809D01*
X87225000Y-96369047D01*
X87272619Y-96416666D01*
X87367857Y-96464285D01*
X87558333Y-96511904D01*
X87796428Y-96511904D01*
X87986904Y-96464285D01*
X88082142Y-96416666D01*
X88129761Y-96369047D01*
X88177380Y-96273809D01*
X88177380Y-96178571D01*
X88129761Y-96083333D01*
X88082142Y-96035714D01*
X87986904Y-95988095D01*
X87796428Y-95940476D01*
X87558333Y-95940476D01*
X87367857Y-95988095D01*
X87272619Y-96035714D01*
X87225000Y-96083333D01*
X87177380Y-96178571D01*
G04 #@! TO.C,D29*
X69127380Y-94035714D02*
X68127380Y-94035714D01*
X68127380Y-94273809D01*
X68175000Y-94416666D01*
X68270238Y-94511904D01*
X68365476Y-94559523D01*
X68555952Y-94607142D01*
X68698809Y-94607142D01*
X68889285Y-94559523D01*
X68984523Y-94511904D01*
X69079761Y-94416666D01*
X69127380Y-94273809D01*
X69127380Y-94035714D01*
X68222619Y-94988095D02*
X68175000Y-95035714D01*
X68127380Y-95130952D01*
X68127380Y-95369047D01*
X68175000Y-95464285D01*
X68222619Y-95511904D01*
X68317857Y-95559523D01*
X68413095Y-95559523D01*
X68555952Y-95511904D01*
X69127380Y-94940476D01*
X69127380Y-95559523D01*
X69127380Y-96035714D02*
X69127380Y-96226190D01*
X69079761Y-96321428D01*
X69032142Y-96369047D01*
X68889285Y-96464285D01*
X68698809Y-96511904D01*
X68317857Y-96511904D01*
X68222619Y-96464285D01*
X68175000Y-96416666D01*
X68127380Y-96321428D01*
X68127380Y-96130952D01*
X68175000Y-96035714D01*
X68222619Y-95988095D01*
X68317857Y-95940476D01*
X68555952Y-95940476D01*
X68651190Y-95988095D01*
X68698809Y-96035714D01*
X68746428Y-96130952D01*
X68746428Y-96321428D01*
X68698809Y-96416666D01*
X68651190Y-96464285D01*
X68555952Y-96511904D01*
G04 #@! TO.C,D28*
X26952380Y-94035714D02*
X25952380Y-94035714D01*
X25952380Y-94273809D01*
X26000000Y-94416666D01*
X26095238Y-94511904D01*
X26190476Y-94559523D01*
X26380952Y-94607142D01*
X26523809Y-94607142D01*
X26714285Y-94559523D01*
X26809523Y-94511904D01*
X26904761Y-94416666D01*
X26952380Y-94273809D01*
X26952380Y-94035714D01*
X26047619Y-94988095D02*
X26000000Y-95035714D01*
X25952380Y-95130952D01*
X25952380Y-95369047D01*
X26000000Y-95464285D01*
X26047619Y-95511904D01*
X26142857Y-95559523D01*
X26238095Y-95559523D01*
X26380952Y-95511904D01*
X26952380Y-94940476D01*
X26952380Y-95559523D01*
X26380952Y-96130952D02*
X26333333Y-96035714D01*
X26285714Y-95988095D01*
X26190476Y-95940476D01*
X26142857Y-95940476D01*
X26047619Y-95988095D01*
X26000000Y-96035714D01*
X25952380Y-96130952D01*
X25952380Y-96321428D01*
X26000000Y-96416666D01*
X26047619Y-96464285D01*
X26142857Y-96511904D01*
X26190476Y-96511904D01*
X26285714Y-96464285D01*
X26333333Y-96416666D01*
X26380952Y-96321428D01*
X26380952Y-96130952D01*
X26428571Y-96035714D01*
X26476190Y-95988095D01*
X26571428Y-95940476D01*
X26761904Y-95940476D01*
X26857142Y-95988095D01*
X26904761Y-96035714D01*
X26952380Y-96130952D01*
X26952380Y-96321428D01*
X26904761Y-96416666D01*
X26857142Y-96464285D01*
X26761904Y-96511904D01*
X26571428Y-96511904D01*
X26476190Y-96464285D01*
X26428571Y-96416666D01*
X26380952Y-96321428D01*
G04 #@! TO.C,D27*
X275391369Y-77414285D02*
X276391369Y-77414285D01*
X276391369Y-77176190D01*
X276343750Y-77033333D01*
X276248511Y-76938095D01*
X276153273Y-76890476D01*
X275962797Y-76842857D01*
X275819940Y-76842857D01*
X275629464Y-76890476D01*
X275534226Y-76938095D01*
X275438988Y-77033333D01*
X275391369Y-77176190D01*
X275391369Y-77414285D01*
X276296130Y-76461904D02*
X276343750Y-76414285D01*
X276391369Y-76319047D01*
X276391369Y-76080952D01*
X276343750Y-75985714D01*
X276296130Y-75938095D01*
X276200892Y-75890476D01*
X276105654Y-75890476D01*
X275962797Y-75938095D01*
X275391369Y-76509523D01*
X275391369Y-75890476D01*
X276391369Y-75557142D02*
X276391369Y-74890476D01*
X275391369Y-75319047D01*
G04 #@! TO.C,D26*
X250102380Y-74985714D02*
X249102380Y-74985714D01*
X249102380Y-75223809D01*
X249150000Y-75366666D01*
X249245238Y-75461904D01*
X249340476Y-75509523D01*
X249530952Y-75557142D01*
X249673809Y-75557142D01*
X249864285Y-75509523D01*
X249959523Y-75461904D01*
X250054761Y-75366666D01*
X250102380Y-75223809D01*
X250102380Y-74985714D01*
X249197619Y-75938095D02*
X249150000Y-75985714D01*
X249102380Y-76080952D01*
X249102380Y-76319047D01*
X249150000Y-76414285D01*
X249197619Y-76461904D01*
X249292857Y-76509523D01*
X249388095Y-76509523D01*
X249530952Y-76461904D01*
X250102380Y-75890476D01*
X250102380Y-76509523D01*
X249102380Y-77366666D02*
X249102380Y-77176190D01*
X249150000Y-77080952D01*
X249197619Y-77033333D01*
X249340476Y-76938095D01*
X249530952Y-76890476D01*
X249911904Y-76890476D01*
X250007142Y-76938095D01*
X250054761Y-76985714D01*
X250102380Y-77080952D01*
X250102380Y-77271428D01*
X250054761Y-77366666D01*
X250007142Y-77414285D01*
X249911904Y-77461904D01*
X249673809Y-77461904D01*
X249578571Y-77414285D01*
X249530952Y-77366666D01*
X249483333Y-77271428D01*
X249483333Y-77080952D01*
X249530952Y-76985714D01*
X249578571Y-76938095D01*
X249673809Y-76890476D01*
G04 #@! TO.C,D25*
X231052380Y-74985714D02*
X230052380Y-74985714D01*
X230052380Y-75223809D01*
X230100000Y-75366666D01*
X230195238Y-75461904D01*
X230290476Y-75509523D01*
X230480952Y-75557142D01*
X230623809Y-75557142D01*
X230814285Y-75509523D01*
X230909523Y-75461904D01*
X231004761Y-75366666D01*
X231052380Y-75223809D01*
X231052380Y-74985714D01*
X230147619Y-75938095D02*
X230100000Y-75985714D01*
X230052380Y-76080952D01*
X230052380Y-76319047D01*
X230100000Y-76414285D01*
X230147619Y-76461904D01*
X230242857Y-76509523D01*
X230338095Y-76509523D01*
X230480952Y-76461904D01*
X231052380Y-75890476D01*
X231052380Y-76509523D01*
X230052380Y-77414285D02*
X230052380Y-76938095D01*
X230528571Y-76890476D01*
X230480952Y-76938095D01*
X230433333Y-77033333D01*
X230433333Y-77271428D01*
X230480952Y-77366666D01*
X230528571Y-77414285D01*
X230623809Y-77461904D01*
X230861904Y-77461904D01*
X230957142Y-77414285D01*
X231004761Y-77366666D01*
X231052380Y-77271428D01*
X231052380Y-77033333D01*
X231004761Y-76938095D01*
X230957142Y-76890476D01*
G04 #@! TO.C,D24*
X212002380Y-74985714D02*
X211002380Y-74985714D01*
X211002380Y-75223809D01*
X211050000Y-75366666D01*
X211145238Y-75461904D01*
X211240476Y-75509523D01*
X211430952Y-75557142D01*
X211573809Y-75557142D01*
X211764285Y-75509523D01*
X211859523Y-75461904D01*
X211954761Y-75366666D01*
X212002380Y-75223809D01*
X212002380Y-74985714D01*
X211097619Y-75938095D02*
X211050000Y-75985714D01*
X211002380Y-76080952D01*
X211002380Y-76319047D01*
X211050000Y-76414285D01*
X211097619Y-76461904D01*
X211192857Y-76509523D01*
X211288095Y-76509523D01*
X211430952Y-76461904D01*
X212002380Y-75890476D01*
X212002380Y-76509523D01*
X211335714Y-77366666D02*
X212002380Y-77366666D01*
X210954761Y-77128571D02*
X211669047Y-76890476D01*
X211669047Y-77509523D01*
G04 #@! TO.C,D23*
X192952380Y-74985714D02*
X191952380Y-74985714D01*
X191952380Y-75223809D01*
X192000000Y-75366666D01*
X192095238Y-75461904D01*
X192190476Y-75509523D01*
X192380952Y-75557142D01*
X192523809Y-75557142D01*
X192714285Y-75509523D01*
X192809523Y-75461904D01*
X192904761Y-75366666D01*
X192952380Y-75223809D01*
X192952380Y-74985714D01*
X192047619Y-75938095D02*
X192000000Y-75985714D01*
X191952380Y-76080952D01*
X191952380Y-76319047D01*
X192000000Y-76414285D01*
X192047619Y-76461904D01*
X192142857Y-76509523D01*
X192238095Y-76509523D01*
X192380952Y-76461904D01*
X192952380Y-75890476D01*
X192952380Y-76509523D01*
X191952380Y-76842857D02*
X191952380Y-77461904D01*
X192333333Y-77128571D01*
X192333333Y-77271428D01*
X192380952Y-77366666D01*
X192428571Y-77414285D01*
X192523809Y-77461904D01*
X192761904Y-77461904D01*
X192857142Y-77414285D01*
X192904761Y-77366666D01*
X192952380Y-77271428D01*
X192952380Y-76985714D01*
X192904761Y-76890476D01*
X192857142Y-76842857D01*
G04 #@! TO.C,D22*
X173902380Y-74985714D02*
X172902380Y-74985714D01*
X172902380Y-75223809D01*
X172950000Y-75366666D01*
X173045238Y-75461904D01*
X173140476Y-75509523D01*
X173330952Y-75557142D01*
X173473809Y-75557142D01*
X173664285Y-75509523D01*
X173759523Y-75461904D01*
X173854761Y-75366666D01*
X173902380Y-75223809D01*
X173902380Y-74985714D01*
X172997619Y-75938095D02*
X172950000Y-75985714D01*
X172902380Y-76080952D01*
X172902380Y-76319047D01*
X172950000Y-76414285D01*
X172997619Y-76461904D01*
X173092857Y-76509523D01*
X173188095Y-76509523D01*
X173330952Y-76461904D01*
X173902380Y-75890476D01*
X173902380Y-76509523D01*
X172997619Y-76890476D02*
X172950000Y-76938095D01*
X172902380Y-77033333D01*
X172902380Y-77271428D01*
X172950000Y-77366666D01*
X172997619Y-77414285D01*
X173092857Y-77461904D01*
X173188095Y-77461904D01*
X173330952Y-77414285D01*
X173902380Y-76842857D01*
X173902380Y-77461904D01*
G04 #@! TO.C,D21*
X154852380Y-74985714D02*
X153852380Y-74985714D01*
X153852380Y-75223809D01*
X153900000Y-75366666D01*
X153995238Y-75461904D01*
X154090476Y-75509523D01*
X154280952Y-75557142D01*
X154423809Y-75557142D01*
X154614285Y-75509523D01*
X154709523Y-75461904D01*
X154804761Y-75366666D01*
X154852380Y-75223809D01*
X154852380Y-74985714D01*
X153947619Y-75938095D02*
X153900000Y-75985714D01*
X153852380Y-76080952D01*
X153852380Y-76319047D01*
X153900000Y-76414285D01*
X153947619Y-76461904D01*
X154042857Y-76509523D01*
X154138095Y-76509523D01*
X154280952Y-76461904D01*
X154852380Y-75890476D01*
X154852380Y-76509523D01*
X154852380Y-77461904D02*
X154852380Y-76890476D01*
X154852380Y-77176190D02*
X153852380Y-77176190D01*
X153995238Y-77080952D01*
X154090476Y-76985714D01*
X154138095Y-76890476D01*
G04 #@! TO.C,D20*
X135802380Y-74985714D02*
X134802380Y-74985714D01*
X134802380Y-75223809D01*
X134850000Y-75366666D01*
X134945238Y-75461904D01*
X135040476Y-75509523D01*
X135230952Y-75557142D01*
X135373809Y-75557142D01*
X135564285Y-75509523D01*
X135659523Y-75461904D01*
X135754761Y-75366666D01*
X135802380Y-75223809D01*
X135802380Y-74985714D01*
X134897619Y-75938095D02*
X134850000Y-75985714D01*
X134802380Y-76080952D01*
X134802380Y-76319047D01*
X134850000Y-76414285D01*
X134897619Y-76461904D01*
X134992857Y-76509523D01*
X135088095Y-76509523D01*
X135230952Y-76461904D01*
X135802380Y-75890476D01*
X135802380Y-76509523D01*
X134802380Y-77128571D02*
X134802380Y-77223809D01*
X134850000Y-77319047D01*
X134897619Y-77366666D01*
X134992857Y-77414285D01*
X135183333Y-77461904D01*
X135421428Y-77461904D01*
X135611904Y-77414285D01*
X135707142Y-77366666D01*
X135754761Y-77319047D01*
X135802380Y-77223809D01*
X135802380Y-77128571D01*
X135754761Y-77033333D01*
X135707142Y-76985714D01*
X135611904Y-76938095D01*
X135421428Y-76890476D01*
X135183333Y-76890476D01*
X134992857Y-76938095D01*
X134897619Y-76985714D01*
X134850000Y-77033333D01*
X134802380Y-77128571D01*
G04 #@! TO.C,D19*
X116752380Y-74985714D02*
X115752380Y-74985714D01*
X115752380Y-75223809D01*
X115800000Y-75366666D01*
X115895238Y-75461904D01*
X115990476Y-75509523D01*
X116180952Y-75557142D01*
X116323809Y-75557142D01*
X116514285Y-75509523D01*
X116609523Y-75461904D01*
X116704761Y-75366666D01*
X116752380Y-75223809D01*
X116752380Y-74985714D01*
X116752380Y-76509523D02*
X116752380Y-75938095D01*
X116752380Y-76223809D02*
X115752380Y-76223809D01*
X115895238Y-76128571D01*
X115990476Y-76033333D01*
X116038095Y-75938095D01*
X116752380Y-76985714D02*
X116752380Y-77176190D01*
X116704761Y-77271428D01*
X116657142Y-77319047D01*
X116514285Y-77414285D01*
X116323809Y-77461904D01*
X115942857Y-77461904D01*
X115847619Y-77414285D01*
X115800000Y-77366666D01*
X115752380Y-77271428D01*
X115752380Y-77080952D01*
X115800000Y-76985714D01*
X115847619Y-76938095D01*
X115942857Y-76890476D01*
X116180952Y-76890476D01*
X116276190Y-76938095D01*
X116323809Y-76985714D01*
X116371428Y-77080952D01*
X116371428Y-77271428D01*
X116323809Y-77366666D01*
X116276190Y-77414285D01*
X116180952Y-77461904D01*
G04 #@! TO.C,D18*
X97702380Y-74985714D02*
X96702380Y-74985714D01*
X96702380Y-75223809D01*
X96750000Y-75366666D01*
X96845238Y-75461904D01*
X96940476Y-75509523D01*
X97130952Y-75557142D01*
X97273809Y-75557142D01*
X97464285Y-75509523D01*
X97559523Y-75461904D01*
X97654761Y-75366666D01*
X97702380Y-75223809D01*
X97702380Y-74985714D01*
X97702380Y-76509523D02*
X97702380Y-75938095D01*
X97702380Y-76223809D02*
X96702380Y-76223809D01*
X96845238Y-76128571D01*
X96940476Y-76033333D01*
X96988095Y-75938095D01*
X97130952Y-77080952D02*
X97083333Y-76985714D01*
X97035714Y-76938095D01*
X96940476Y-76890476D01*
X96892857Y-76890476D01*
X96797619Y-76938095D01*
X96750000Y-76985714D01*
X96702380Y-77080952D01*
X96702380Y-77271428D01*
X96750000Y-77366666D01*
X96797619Y-77414285D01*
X96892857Y-77461904D01*
X96940476Y-77461904D01*
X97035714Y-77414285D01*
X97083333Y-77366666D01*
X97130952Y-77271428D01*
X97130952Y-77080952D01*
X97178571Y-76985714D01*
X97226190Y-76938095D01*
X97321428Y-76890476D01*
X97511904Y-76890476D01*
X97607142Y-76938095D01*
X97654761Y-76985714D01*
X97702380Y-77080952D01*
X97702380Y-77271428D01*
X97654761Y-77366666D01*
X97607142Y-77414285D01*
X97511904Y-77461904D01*
X97321428Y-77461904D01*
X97226190Y-77414285D01*
X97178571Y-77366666D01*
X97130952Y-77271428D01*
G04 #@! TO.C,D17*
X78652380Y-74985714D02*
X77652380Y-74985714D01*
X77652380Y-75223809D01*
X77700000Y-75366666D01*
X77795238Y-75461904D01*
X77890476Y-75509523D01*
X78080952Y-75557142D01*
X78223809Y-75557142D01*
X78414285Y-75509523D01*
X78509523Y-75461904D01*
X78604761Y-75366666D01*
X78652380Y-75223809D01*
X78652380Y-74985714D01*
X78652380Y-76509523D02*
X78652380Y-75938095D01*
X78652380Y-76223809D02*
X77652380Y-76223809D01*
X77795238Y-76128571D01*
X77890476Y-76033333D01*
X77938095Y-75938095D01*
X77652380Y-76842857D02*
X77652380Y-77509523D01*
X78652380Y-77080952D01*
G04 #@! TO.C,D16*
X59602380Y-74985714D02*
X58602380Y-74985714D01*
X58602380Y-75223809D01*
X58650000Y-75366666D01*
X58745238Y-75461904D01*
X58840476Y-75509523D01*
X59030952Y-75557142D01*
X59173809Y-75557142D01*
X59364285Y-75509523D01*
X59459523Y-75461904D01*
X59554761Y-75366666D01*
X59602380Y-75223809D01*
X59602380Y-74985714D01*
X59602380Y-76509523D02*
X59602380Y-75938095D01*
X59602380Y-76223809D02*
X58602380Y-76223809D01*
X58745238Y-76128571D01*
X58840476Y-76033333D01*
X58888095Y-75938095D01*
X58602380Y-77366666D02*
X58602380Y-77176190D01*
X58650000Y-77080952D01*
X58697619Y-77033333D01*
X58840476Y-76938095D01*
X59030952Y-76890476D01*
X59411904Y-76890476D01*
X59507142Y-76938095D01*
X59554761Y-76985714D01*
X59602380Y-77080952D01*
X59602380Y-77271428D01*
X59554761Y-77366666D01*
X59507142Y-77414285D01*
X59411904Y-77461904D01*
X59173809Y-77461904D01*
X59078571Y-77414285D01*
X59030952Y-77366666D01*
X58983333Y-77271428D01*
X58983333Y-77080952D01*
X59030952Y-76985714D01*
X59078571Y-76938095D01*
X59173809Y-76890476D01*
G04 #@! TO.C,D15*
X38171130Y-74985714D02*
X37171130Y-74985714D01*
X37171130Y-75223809D01*
X37218750Y-75366666D01*
X37313988Y-75461904D01*
X37409226Y-75509523D01*
X37599702Y-75557142D01*
X37742559Y-75557142D01*
X37933035Y-75509523D01*
X38028273Y-75461904D01*
X38123511Y-75366666D01*
X38171130Y-75223809D01*
X38171130Y-74985714D01*
X38171130Y-76509523D02*
X38171130Y-75938095D01*
X38171130Y-76223809D02*
X37171130Y-76223809D01*
X37313988Y-76128571D01*
X37409226Y-76033333D01*
X37456845Y-75938095D01*
X37171130Y-77414285D02*
X37171130Y-76938095D01*
X37647321Y-76890476D01*
X37599702Y-76938095D01*
X37552083Y-77033333D01*
X37552083Y-77271428D01*
X37599702Y-77366666D01*
X37647321Y-77414285D01*
X37742559Y-77461904D01*
X37980654Y-77461904D01*
X38075892Y-77414285D01*
X38123511Y-77366666D01*
X38171130Y-77271428D01*
X38171130Y-77033333D01*
X38123511Y-76938095D01*
X38075892Y-76890476D01*
G04 #@! TO.C,D14*
X283439880Y-55935714D02*
X282439880Y-55935714D01*
X282439880Y-56173809D01*
X282487500Y-56316666D01*
X282582738Y-56411904D01*
X282677976Y-56459523D01*
X282868452Y-56507142D01*
X283011309Y-56507142D01*
X283201785Y-56459523D01*
X283297023Y-56411904D01*
X283392261Y-56316666D01*
X283439880Y-56173809D01*
X283439880Y-55935714D01*
X283439880Y-57459523D02*
X283439880Y-56888095D01*
X283439880Y-57173809D02*
X282439880Y-57173809D01*
X282582738Y-57078571D01*
X282677976Y-56983333D01*
X282725595Y-56888095D01*
X282773214Y-58316666D02*
X283439880Y-58316666D01*
X282392261Y-58078571D02*
X283106547Y-57840476D01*
X283106547Y-58459523D01*
G04 #@! TO.C,D13*
X264389880Y-55935714D02*
X263389880Y-55935714D01*
X263389880Y-56173809D01*
X263437500Y-56316666D01*
X263532738Y-56411904D01*
X263627976Y-56459523D01*
X263818452Y-56507142D01*
X263961309Y-56507142D01*
X264151785Y-56459523D01*
X264247023Y-56411904D01*
X264342261Y-56316666D01*
X264389880Y-56173809D01*
X264389880Y-55935714D01*
X264389880Y-57459523D02*
X264389880Y-56888095D01*
X264389880Y-57173809D02*
X263389880Y-57173809D01*
X263532738Y-57078571D01*
X263627976Y-56983333D01*
X263675595Y-56888095D01*
X263389880Y-57792857D02*
X263389880Y-58411904D01*
X263770833Y-58078571D01*
X263770833Y-58221428D01*
X263818452Y-58316666D01*
X263866071Y-58364285D01*
X263961309Y-58411904D01*
X264199404Y-58411904D01*
X264294642Y-58364285D01*
X264342261Y-58316666D01*
X264389880Y-58221428D01*
X264389880Y-57935714D01*
X264342261Y-57840476D01*
X264294642Y-57792857D01*
G04 #@! TO.C,D12*
X245339880Y-55935714D02*
X244339880Y-55935714D01*
X244339880Y-56173809D01*
X244387500Y-56316666D01*
X244482738Y-56411904D01*
X244577976Y-56459523D01*
X244768452Y-56507142D01*
X244911309Y-56507142D01*
X245101785Y-56459523D01*
X245197023Y-56411904D01*
X245292261Y-56316666D01*
X245339880Y-56173809D01*
X245339880Y-55935714D01*
X245339880Y-57459523D02*
X245339880Y-56888095D01*
X245339880Y-57173809D02*
X244339880Y-57173809D01*
X244482738Y-57078571D01*
X244577976Y-56983333D01*
X244625595Y-56888095D01*
X244435119Y-57840476D02*
X244387500Y-57888095D01*
X244339880Y-57983333D01*
X244339880Y-58221428D01*
X244387500Y-58316666D01*
X244435119Y-58364285D01*
X244530357Y-58411904D01*
X244625595Y-58411904D01*
X244768452Y-58364285D01*
X245339880Y-57792857D01*
X245339880Y-58411904D01*
G04 #@! TO.C,D11*
X226289880Y-55935714D02*
X225289880Y-55935714D01*
X225289880Y-56173809D01*
X225337500Y-56316666D01*
X225432738Y-56411904D01*
X225527976Y-56459523D01*
X225718452Y-56507142D01*
X225861309Y-56507142D01*
X226051785Y-56459523D01*
X226147023Y-56411904D01*
X226242261Y-56316666D01*
X226289880Y-56173809D01*
X226289880Y-55935714D01*
X226289880Y-57459523D02*
X226289880Y-56888095D01*
X226289880Y-57173809D02*
X225289880Y-57173809D01*
X225432738Y-57078571D01*
X225527976Y-56983333D01*
X225575595Y-56888095D01*
X226289880Y-58411904D02*
X226289880Y-57840476D01*
X226289880Y-58126190D02*
X225289880Y-58126190D01*
X225432738Y-58030952D01*
X225527976Y-57935714D01*
X225575595Y-57840476D01*
G04 #@! TO.C,D10*
X207239880Y-55935714D02*
X206239880Y-55935714D01*
X206239880Y-56173809D01*
X206287500Y-56316666D01*
X206382738Y-56411904D01*
X206477976Y-56459523D01*
X206668452Y-56507142D01*
X206811309Y-56507142D01*
X207001785Y-56459523D01*
X207097023Y-56411904D01*
X207192261Y-56316666D01*
X207239880Y-56173809D01*
X207239880Y-55935714D01*
X207239880Y-57459523D02*
X207239880Y-56888095D01*
X207239880Y-57173809D02*
X206239880Y-57173809D01*
X206382738Y-57078571D01*
X206477976Y-56983333D01*
X206525595Y-56888095D01*
X206239880Y-58078571D02*
X206239880Y-58173809D01*
X206287500Y-58269047D01*
X206335119Y-58316666D01*
X206430357Y-58364285D01*
X206620833Y-58411904D01*
X206858928Y-58411904D01*
X207049404Y-58364285D01*
X207144642Y-58316666D01*
X207192261Y-58269047D01*
X207239880Y-58173809D01*
X207239880Y-58078571D01*
X207192261Y-57983333D01*
X207144642Y-57935714D01*
X207049404Y-57888095D01*
X206858928Y-57840476D01*
X206620833Y-57840476D01*
X206430357Y-57888095D01*
X206335119Y-57935714D01*
X206287500Y-57983333D01*
X206239880Y-58078571D01*
G04 #@! TO.C,D9*
X188189880Y-56411904D02*
X187189880Y-56411904D01*
X187189880Y-56650000D01*
X187237500Y-56792857D01*
X187332738Y-56888095D01*
X187427976Y-56935714D01*
X187618452Y-56983333D01*
X187761309Y-56983333D01*
X187951785Y-56935714D01*
X188047023Y-56888095D01*
X188142261Y-56792857D01*
X188189880Y-56650000D01*
X188189880Y-56411904D01*
X188189880Y-57459523D02*
X188189880Y-57650000D01*
X188142261Y-57745238D01*
X188094642Y-57792857D01*
X187951785Y-57888095D01*
X187761309Y-57935714D01*
X187380357Y-57935714D01*
X187285119Y-57888095D01*
X187237500Y-57840476D01*
X187189880Y-57745238D01*
X187189880Y-57554761D01*
X187237500Y-57459523D01*
X187285119Y-57411904D01*
X187380357Y-57364285D01*
X187618452Y-57364285D01*
X187713690Y-57411904D01*
X187761309Y-57459523D01*
X187808928Y-57554761D01*
X187808928Y-57745238D01*
X187761309Y-57840476D01*
X187713690Y-57888095D01*
X187618452Y-57935714D01*
G04 #@! TO.C,D8*
X169139880Y-56411904D02*
X168139880Y-56411904D01*
X168139880Y-56650000D01*
X168187500Y-56792857D01*
X168282738Y-56888095D01*
X168377976Y-56935714D01*
X168568452Y-56983333D01*
X168711309Y-56983333D01*
X168901785Y-56935714D01*
X168997023Y-56888095D01*
X169092261Y-56792857D01*
X169139880Y-56650000D01*
X169139880Y-56411904D01*
X168568452Y-57554761D02*
X168520833Y-57459523D01*
X168473214Y-57411904D01*
X168377976Y-57364285D01*
X168330357Y-57364285D01*
X168235119Y-57411904D01*
X168187500Y-57459523D01*
X168139880Y-57554761D01*
X168139880Y-57745238D01*
X168187500Y-57840476D01*
X168235119Y-57888095D01*
X168330357Y-57935714D01*
X168377976Y-57935714D01*
X168473214Y-57888095D01*
X168520833Y-57840476D01*
X168568452Y-57745238D01*
X168568452Y-57554761D01*
X168616071Y-57459523D01*
X168663690Y-57411904D01*
X168758928Y-57364285D01*
X168949404Y-57364285D01*
X169044642Y-57411904D01*
X169092261Y-57459523D01*
X169139880Y-57554761D01*
X169139880Y-57745238D01*
X169092261Y-57840476D01*
X169044642Y-57888095D01*
X168949404Y-57935714D01*
X168758928Y-57935714D01*
X168663690Y-57888095D01*
X168616071Y-57840476D01*
X168568452Y-57745238D01*
G04 #@! TO.C,D7*
X150089880Y-56411904D02*
X149089880Y-56411904D01*
X149089880Y-56650000D01*
X149137500Y-56792857D01*
X149232738Y-56888095D01*
X149327976Y-56935714D01*
X149518452Y-56983333D01*
X149661309Y-56983333D01*
X149851785Y-56935714D01*
X149947023Y-56888095D01*
X150042261Y-56792857D01*
X150089880Y-56650000D01*
X150089880Y-56411904D01*
X149089880Y-57316666D02*
X149089880Y-57983333D01*
X150089880Y-57554761D01*
G04 #@! TO.C,D6*
X131039880Y-56411904D02*
X130039880Y-56411904D01*
X130039880Y-56650000D01*
X130087500Y-56792857D01*
X130182738Y-56888095D01*
X130277976Y-56935714D01*
X130468452Y-56983333D01*
X130611309Y-56983333D01*
X130801785Y-56935714D01*
X130897023Y-56888095D01*
X130992261Y-56792857D01*
X131039880Y-56650000D01*
X131039880Y-56411904D01*
X130039880Y-57840476D02*
X130039880Y-57650000D01*
X130087500Y-57554761D01*
X130135119Y-57507142D01*
X130277976Y-57411904D01*
X130468452Y-57364285D01*
X130849404Y-57364285D01*
X130944642Y-57411904D01*
X130992261Y-57459523D01*
X131039880Y-57554761D01*
X131039880Y-57745238D01*
X130992261Y-57840476D01*
X130944642Y-57888095D01*
X130849404Y-57935714D01*
X130611309Y-57935714D01*
X130516071Y-57888095D01*
X130468452Y-57840476D01*
X130420833Y-57745238D01*
X130420833Y-57554761D01*
X130468452Y-57459523D01*
X130516071Y-57411904D01*
X130611309Y-57364285D01*
G04 #@! TO.C,D5*
X111989880Y-56411904D02*
X110989880Y-56411904D01*
X110989880Y-56650000D01*
X111037500Y-56792857D01*
X111132738Y-56888095D01*
X111227976Y-56935714D01*
X111418452Y-56983333D01*
X111561309Y-56983333D01*
X111751785Y-56935714D01*
X111847023Y-56888095D01*
X111942261Y-56792857D01*
X111989880Y-56650000D01*
X111989880Y-56411904D01*
X110989880Y-57888095D02*
X110989880Y-57411904D01*
X111466071Y-57364285D01*
X111418452Y-57411904D01*
X111370833Y-57507142D01*
X111370833Y-57745238D01*
X111418452Y-57840476D01*
X111466071Y-57888095D01*
X111561309Y-57935714D01*
X111799404Y-57935714D01*
X111894642Y-57888095D01*
X111942261Y-57840476D01*
X111989880Y-57745238D01*
X111989880Y-57507142D01*
X111942261Y-57411904D01*
X111894642Y-57364285D01*
G04 #@! TO.C,D4*
X92939880Y-56411904D02*
X91939880Y-56411904D01*
X91939880Y-56650000D01*
X91987500Y-56792857D01*
X92082738Y-56888095D01*
X92177976Y-56935714D01*
X92368452Y-56983333D01*
X92511309Y-56983333D01*
X92701785Y-56935714D01*
X92797023Y-56888095D01*
X92892261Y-56792857D01*
X92939880Y-56650000D01*
X92939880Y-56411904D01*
X92273214Y-57840476D02*
X92939880Y-57840476D01*
X91892261Y-57602380D02*
X92606547Y-57364285D01*
X92606547Y-57983333D01*
G04 #@! TO.C,D3*
X73889880Y-56411904D02*
X72889880Y-56411904D01*
X72889880Y-56650000D01*
X72937500Y-56792857D01*
X73032738Y-56888095D01*
X73127976Y-56935714D01*
X73318452Y-56983333D01*
X73461309Y-56983333D01*
X73651785Y-56935714D01*
X73747023Y-56888095D01*
X73842261Y-56792857D01*
X73889880Y-56650000D01*
X73889880Y-56411904D01*
X72889880Y-57316666D02*
X72889880Y-57935714D01*
X73270833Y-57602380D01*
X73270833Y-57745238D01*
X73318452Y-57840476D01*
X73366071Y-57888095D01*
X73461309Y-57935714D01*
X73699404Y-57935714D01*
X73794642Y-57888095D01*
X73842261Y-57840476D01*
X73889880Y-57745238D01*
X73889880Y-57459523D01*
X73842261Y-57364285D01*
X73794642Y-57316666D01*
G04 #@! TO.C,D2*
X54839880Y-56411904D02*
X53839880Y-56411904D01*
X53839880Y-56650000D01*
X53887500Y-56792857D01*
X53982738Y-56888095D01*
X54077976Y-56935714D01*
X54268452Y-56983333D01*
X54411309Y-56983333D01*
X54601785Y-56935714D01*
X54697023Y-56888095D01*
X54792261Y-56792857D01*
X54839880Y-56650000D01*
X54839880Y-56411904D01*
X53935119Y-57364285D02*
X53887500Y-57411904D01*
X53839880Y-57507142D01*
X53839880Y-57745238D01*
X53887500Y-57840476D01*
X53935119Y-57888095D01*
X54030357Y-57935714D01*
X54125595Y-57935714D01*
X54268452Y-57888095D01*
X54839880Y-57316666D01*
X54839880Y-57935714D01*
G04 #@! TO.C,D1*
X35789880Y-56411904D02*
X34789880Y-56411904D01*
X34789880Y-56650000D01*
X34837500Y-56792857D01*
X34932738Y-56888095D01*
X35027976Y-56935714D01*
X35218452Y-56983333D01*
X35361309Y-56983333D01*
X35551785Y-56935714D01*
X35647023Y-56888095D01*
X35742261Y-56792857D01*
X35789880Y-56650000D01*
X35789880Y-56411904D01*
X35789880Y-57935714D02*
X35789880Y-57364285D01*
X35789880Y-57650000D02*
X34789880Y-57650000D01*
X34932738Y-57554761D01*
X35027976Y-57459523D01*
X35075595Y-57364285D01*
G04 #@! TO.C,C7*
X55926666Y-91267142D02*
X55974285Y-91314761D01*
X56117142Y-91362380D01*
X56212380Y-91362380D01*
X56355238Y-91314761D01*
X56450476Y-91219523D01*
X56498095Y-91124285D01*
X56545714Y-90933809D01*
X56545714Y-90790952D01*
X56498095Y-90600476D01*
X56450476Y-90505238D01*
X56355238Y-90410000D01*
X56212380Y-90362380D01*
X56117142Y-90362380D01*
X55974285Y-90410000D01*
X55926666Y-90457619D01*
X55593333Y-90362380D02*
X54926666Y-90362380D01*
X55355238Y-91362380D01*
G04 #@! TO.C,C6*
X55926666Y-84517142D02*
X55974285Y-84564761D01*
X56117142Y-84612380D01*
X56212380Y-84612380D01*
X56355238Y-84564761D01*
X56450476Y-84469523D01*
X56498095Y-84374285D01*
X56545714Y-84183809D01*
X56545714Y-84040952D01*
X56498095Y-83850476D01*
X56450476Y-83755238D01*
X56355238Y-83660000D01*
X56212380Y-83612380D01*
X56117142Y-83612380D01*
X55974285Y-83660000D01*
X55926666Y-83707619D01*
X55069523Y-83612380D02*
X55260000Y-83612380D01*
X55355238Y-83660000D01*
X55402857Y-83707619D01*
X55498095Y-83850476D01*
X55545714Y-84040952D01*
X55545714Y-84421904D01*
X55498095Y-84517142D01*
X55450476Y-84564761D01*
X55355238Y-84612380D01*
X55164761Y-84612380D01*
X55069523Y-84564761D01*
X55021904Y-84517142D01*
X54974285Y-84421904D01*
X54974285Y-84183809D01*
X55021904Y-84088571D01*
X55069523Y-84040952D01*
X55164761Y-83993333D01*
X55355238Y-83993333D01*
X55450476Y-84040952D01*
X55498095Y-84088571D01*
X55545714Y-84183809D01*
G04 #@! TO.C,C3*
X48807142Y-88883333D02*
X48854761Y-88835714D01*
X48902380Y-88692857D01*
X48902380Y-88597619D01*
X48854761Y-88454761D01*
X48759523Y-88359523D01*
X48664285Y-88311904D01*
X48473809Y-88264285D01*
X48330952Y-88264285D01*
X48140476Y-88311904D01*
X48045238Y-88359523D01*
X47950000Y-88454761D01*
X47902380Y-88597619D01*
X47902380Y-88692857D01*
X47950000Y-88835714D01*
X47997619Y-88883333D01*
X47902380Y-89216666D02*
X47902380Y-89835714D01*
X48283333Y-89502380D01*
X48283333Y-89645238D01*
X48330952Y-89740476D01*
X48378571Y-89788095D01*
X48473809Y-89835714D01*
X48711904Y-89835714D01*
X48807142Y-89788095D01*
X48854761Y-89740476D01*
X48902380Y-89645238D01*
X48902380Y-89359523D01*
X48854761Y-89264285D01*
X48807142Y-89216666D01*
G04 #@! TO.C,C2*
X45806666Y-82207142D02*
X45854285Y-82254761D01*
X45997142Y-82302380D01*
X46092380Y-82302380D01*
X46235238Y-82254761D01*
X46330476Y-82159523D01*
X46378095Y-82064285D01*
X46425714Y-81873809D01*
X46425714Y-81730952D01*
X46378095Y-81540476D01*
X46330476Y-81445238D01*
X46235238Y-81350000D01*
X46092380Y-81302380D01*
X45997142Y-81302380D01*
X45854285Y-81350000D01*
X45806666Y-81397619D01*
X45425714Y-81397619D02*
X45378095Y-81350000D01*
X45282857Y-81302380D01*
X45044761Y-81302380D01*
X44949523Y-81350000D01*
X44901904Y-81397619D01*
X44854285Y-81492857D01*
X44854285Y-81588095D01*
X44901904Y-81730952D01*
X45473333Y-82302380D01*
X44854285Y-82302380D01*
G04 #@! TO.C,C1*
X38237142Y-71233333D02*
X38284761Y-71185714D01*
X38332380Y-71042857D01*
X38332380Y-70947619D01*
X38284761Y-70804761D01*
X38189523Y-70709523D01*
X38094285Y-70661904D01*
X37903809Y-70614285D01*
X37760952Y-70614285D01*
X37570476Y-70661904D01*
X37475238Y-70709523D01*
X37380000Y-70804761D01*
X37332380Y-70947619D01*
X37332380Y-71042857D01*
X37380000Y-71185714D01*
X37427619Y-71233333D01*
X38332380Y-72185714D02*
X38332380Y-71614285D01*
X38332380Y-71900000D02*
X37332380Y-71900000D01*
X37475238Y-71804761D01*
X37570476Y-71709523D01*
X37618095Y-71614285D01*
G04 #@! TD*
%LPC*%
D12*
G04 #@! TO.C,MX44*
X116046250Y-109220000D03*
D13*
X113506250Y-114300000D03*
D12*
X109696250Y-111760000D03*
D14*
X108426250Y-114300000D03*
X118586250Y-114300000D03*
D15*
X101600000Y-121285000D03*
X125412500Y-121285000D03*
D13*
X101600000Y-106045000D03*
X125412500Y-106045000D03*
G04 #@! TD*
D12*
G04 #@! TO.C,MX43*
X82708750Y-109220000D03*
D13*
X80168750Y-114300000D03*
D12*
X76358750Y-111760000D03*
D14*
X75088750Y-114300000D03*
X85248750Y-114300000D03*
G04 #@! TD*
D12*
G04 #@! TO.C,MX16*
X51752500Y-71120000D03*
D13*
X49212500Y-76200000D03*
D12*
X45402500Y-73660000D03*
D14*
X44132500Y-76200000D03*
X54292500Y-76200000D03*
G04 #@! TD*
D12*
G04 #@! TO.C,MX2*
X46990000Y-52070000D03*
D13*
X44450000Y-57150000D03*
D12*
X40640000Y-54610000D03*
D14*
X39370000Y-57150000D03*
X49530000Y-57150000D03*
G04 #@! TD*
G04 #@! TO.C,C4*
G36*
G01*
X49300000Y-82720000D02*
X50300000Y-82720000D01*
G75*
G02*
X50575000Y-82995000I0J-275000D01*
G01*
X50575000Y-83545000D01*
G75*
G02*
X50300000Y-83820000I-275000J0D01*
G01*
X49300000Y-83820000D01*
G75*
G02*
X49025000Y-83545000I0J275000D01*
G01*
X49025000Y-82995000D01*
G75*
G02*
X49300000Y-82720000I275000J0D01*
G01*
G37*
G36*
G01*
X49300000Y-80820000D02*
X50300000Y-80820000D01*
G75*
G02*
X50575000Y-81095000I0J-275000D01*
G01*
X50575000Y-81645000D01*
G75*
G02*
X50300000Y-81920000I-275000J0D01*
G01*
X49300000Y-81920000D01*
G75*
G02*
X49025000Y-81645000I0J275000D01*
G01*
X49025000Y-81095000D01*
G75*
G02*
X49300000Y-80820000I275000J0D01*
G01*
G37*
G04 #@! TD*
G04 #@! TO.C,U1*
G36*
G01*
X47700000Y-84045000D02*
X47700000Y-84595000D01*
G75*
G02*
X47650000Y-84645000I-50000J0D01*
G01*
X46050000Y-84645000D01*
G75*
G02*
X46000000Y-84595000I0J50000D01*
G01*
X46000000Y-84045000D01*
G75*
G02*
X46050000Y-83995000I50000J0D01*
G01*
X47650000Y-83995000D01*
G75*
G02*
X47700000Y-84045000I0J-50000D01*
G01*
G37*
G36*
G01*
X47700000Y-84845000D02*
X47700000Y-85395000D01*
G75*
G02*
X47650000Y-85445000I-50000J0D01*
G01*
X46050000Y-85445000D01*
G75*
G02*
X46000000Y-85395000I0J50000D01*
G01*
X46000000Y-84845000D01*
G75*
G02*
X46050000Y-84795000I50000J0D01*
G01*
X47650000Y-84795000D01*
G75*
G02*
X47700000Y-84845000I0J-50000D01*
G01*
G37*
G36*
G01*
X47700000Y-85645000D02*
X47700000Y-86195000D01*
G75*
G02*
X47650000Y-86245000I-50000J0D01*
G01*
X46050000Y-86245000D01*
G75*
G02*
X46000000Y-86195000I0J50000D01*
G01*
X46000000Y-85645000D01*
G75*
G02*
X46050000Y-85595000I50000J0D01*
G01*
X47650000Y-85595000D01*
G75*
G02*
X47700000Y-85645000I0J-50000D01*
G01*
G37*
G36*
G01*
X47700000Y-86445000D02*
X47700000Y-86995000D01*
G75*
G02*
X47650000Y-87045000I-50000J0D01*
G01*
X46050000Y-87045000D01*
G75*
G02*
X46000000Y-86995000I0J50000D01*
G01*
X46000000Y-86445000D01*
G75*
G02*
X46050000Y-86395000I50000J0D01*
G01*
X47650000Y-86395000D01*
G75*
G02*
X47700000Y-86445000I0J-50000D01*
G01*
G37*
G36*
G01*
X47700000Y-87245000D02*
X47700000Y-87795000D01*
G75*
G02*
X47650000Y-87845000I-50000J0D01*
G01*
X46050000Y-87845000D01*
G75*
G02*
X46000000Y-87795000I0J50000D01*
G01*
X46000000Y-87245000D01*
G75*
G02*
X46050000Y-87195000I50000J0D01*
G01*
X47650000Y-87195000D01*
G75*
G02*
X47700000Y-87245000I0J-50000D01*
G01*
G37*
G36*
G01*
X47700000Y-88045000D02*
X47700000Y-88595000D01*
G75*
G02*
X47650000Y-88645000I-50000J0D01*
G01*
X46050000Y-88645000D01*
G75*
G02*
X46000000Y-88595000I0J50000D01*
G01*
X46000000Y-88045000D01*
G75*
G02*
X46050000Y-87995000I50000J0D01*
G01*
X47650000Y-87995000D01*
G75*
G02*
X47700000Y-88045000I0J-50000D01*
G01*
G37*
G36*
G01*
X47700000Y-88845000D02*
X47700000Y-89395000D01*
G75*
G02*
X47650000Y-89445000I-50000J0D01*
G01*
X46050000Y-89445000D01*
G75*
G02*
X46000000Y-89395000I0J50000D01*
G01*
X46000000Y-88845000D01*
G75*
G02*
X46050000Y-88795000I50000J0D01*
G01*
X47650000Y-88795000D01*
G75*
G02*
X47700000Y-88845000I0J-50000D01*
G01*
G37*
G36*
G01*
X47700000Y-89645000D02*
X47700000Y-90195000D01*
G75*
G02*
X47650000Y-90245000I-50000J0D01*
G01*
X46050000Y-90245000D01*
G75*
G02*
X46000000Y-90195000I0J50000D01*
G01*
X46000000Y-89645000D01*
G75*
G02*
X46050000Y-89595000I50000J0D01*
G01*
X47650000Y-89595000D01*
G75*
G02*
X47700000Y-89645000I0J-50000D01*
G01*
G37*
G36*
G01*
X45675000Y-92220000D02*
X45125000Y-92220000D01*
G75*
G02*
X45075000Y-92170000I0J50000D01*
G01*
X45075000Y-90570000D01*
G75*
G02*
X45125000Y-90520000I50000J0D01*
G01*
X45675000Y-90520000D01*
G75*
G02*
X45725000Y-90570000I0J-50000D01*
G01*
X45725000Y-92170000D01*
G75*
G02*
X45675000Y-92220000I-50000J0D01*
G01*
G37*
G36*
G01*
X44875000Y-92220000D02*
X44325000Y-92220000D01*
G75*
G02*
X44275000Y-92170000I0J50000D01*
G01*
X44275000Y-90570000D01*
G75*
G02*
X44325000Y-90520000I50000J0D01*
G01*
X44875000Y-90520000D01*
G75*
G02*
X44925000Y-90570000I0J-50000D01*
G01*
X44925000Y-92170000D01*
G75*
G02*
X44875000Y-92220000I-50000J0D01*
G01*
G37*
G36*
G01*
X44075000Y-92220000D02*
X43525000Y-92220000D01*
G75*
G02*
X43475000Y-92170000I0J50000D01*
G01*
X43475000Y-90570000D01*
G75*
G02*
X43525000Y-90520000I50000J0D01*
G01*
X44075000Y-90520000D01*
G75*
G02*
X44125000Y-90570000I0J-50000D01*
G01*
X44125000Y-92170000D01*
G75*
G02*
X44075000Y-92220000I-50000J0D01*
G01*
G37*
G36*
G01*
X43275000Y-92220000D02*
X42725000Y-92220000D01*
G75*
G02*
X42675000Y-92170000I0J50000D01*
G01*
X42675000Y-90570000D01*
G75*
G02*
X42725000Y-90520000I50000J0D01*
G01*
X43275000Y-90520000D01*
G75*
G02*
X43325000Y-90570000I0J-50000D01*
G01*
X43325000Y-92170000D01*
G75*
G02*
X43275000Y-92220000I-50000J0D01*
G01*
G37*
G36*
G01*
X42475000Y-92220000D02*
X41925000Y-92220000D01*
G75*
G02*
X41875000Y-92170000I0J50000D01*
G01*
X41875000Y-90570000D01*
G75*
G02*
X41925000Y-90520000I50000J0D01*
G01*
X42475000Y-90520000D01*
G75*
G02*
X42525000Y-90570000I0J-50000D01*
G01*
X42525000Y-92170000D01*
G75*
G02*
X42475000Y-92220000I-50000J0D01*
G01*
G37*
G36*
G01*
X41675000Y-92220000D02*
X41125000Y-92220000D01*
G75*
G02*
X41075000Y-92170000I0J50000D01*
G01*
X41075000Y-90570000D01*
G75*
G02*
X41125000Y-90520000I50000J0D01*
G01*
X41675000Y-90520000D01*
G75*
G02*
X41725000Y-90570000I0J-50000D01*
G01*
X41725000Y-92170000D01*
G75*
G02*
X41675000Y-92220000I-50000J0D01*
G01*
G37*
G36*
G01*
X40875000Y-92220000D02*
X40325000Y-92220000D01*
G75*
G02*
X40275000Y-92170000I0J50000D01*
G01*
X40275000Y-90570000D01*
G75*
G02*
X40325000Y-90520000I50000J0D01*
G01*
X40875000Y-90520000D01*
G75*
G02*
X40925000Y-90570000I0J-50000D01*
G01*
X40925000Y-92170000D01*
G75*
G02*
X40875000Y-92220000I-50000J0D01*
G01*
G37*
G36*
G01*
X40075000Y-92220000D02*
X39525000Y-92220000D01*
G75*
G02*
X39475000Y-92170000I0J50000D01*
G01*
X39475000Y-90570000D01*
G75*
G02*
X39525000Y-90520000I50000J0D01*
G01*
X40075000Y-90520000D01*
G75*
G02*
X40125000Y-90570000I0J-50000D01*
G01*
X40125000Y-92170000D01*
G75*
G02*
X40075000Y-92220000I-50000J0D01*
G01*
G37*
G36*
G01*
X39200000Y-89645000D02*
X39200000Y-90195000D01*
G75*
G02*
X39150000Y-90245000I-50000J0D01*
G01*
X37550000Y-90245000D01*
G75*
G02*
X37500000Y-90195000I0J50000D01*
G01*
X37500000Y-89645000D01*
G75*
G02*
X37550000Y-89595000I50000J0D01*
G01*
X39150000Y-89595000D01*
G75*
G02*
X39200000Y-89645000I0J-50000D01*
G01*
G37*
G36*
G01*
X39200000Y-88845000D02*
X39200000Y-89395000D01*
G75*
G02*
X39150000Y-89445000I-50000J0D01*
G01*
X37550000Y-89445000D01*
G75*
G02*
X37500000Y-89395000I0J50000D01*
G01*
X37500000Y-88845000D01*
G75*
G02*
X37550000Y-88795000I50000J0D01*
G01*
X39150000Y-88795000D01*
G75*
G02*
X39200000Y-88845000I0J-50000D01*
G01*
G37*
G36*
G01*
X39200000Y-88045000D02*
X39200000Y-88595000D01*
G75*
G02*
X39150000Y-88645000I-50000J0D01*
G01*
X37550000Y-88645000D01*
G75*
G02*
X37500000Y-88595000I0J50000D01*
G01*
X37500000Y-88045000D01*
G75*
G02*
X37550000Y-87995000I50000J0D01*
G01*
X39150000Y-87995000D01*
G75*
G02*
X39200000Y-88045000I0J-50000D01*
G01*
G37*
G36*
G01*
X39200000Y-87245000D02*
X39200000Y-87795000D01*
G75*
G02*
X39150000Y-87845000I-50000J0D01*
G01*
X37550000Y-87845000D01*
G75*
G02*
X37500000Y-87795000I0J50000D01*
G01*
X37500000Y-87245000D01*
G75*
G02*
X37550000Y-87195000I50000J0D01*
G01*
X39150000Y-87195000D01*
G75*
G02*
X39200000Y-87245000I0J-50000D01*
G01*
G37*
G36*
G01*
X39200000Y-86445000D02*
X39200000Y-86995000D01*
G75*
G02*
X39150000Y-87045000I-50000J0D01*
G01*
X37550000Y-87045000D01*
G75*
G02*
X37500000Y-86995000I0J50000D01*
G01*
X37500000Y-86445000D01*
G75*
G02*
X37550000Y-86395000I50000J0D01*
G01*
X39150000Y-86395000D01*
G75*
G02*
X39200000Y-86445000I0J-50000D01*
G01*
G37*
G36*
G01*
X39200000Y-85645000D02*
X39200000Y-86195000D01*
G75*
G02*
X39150000Y-86245000I-50000J0D01*
G01*
X37550000Y-86245000D01*
G75*
G02*
X37500000Y-86195000I0J50000D01*
G01*
X37500000Y-85645000D01*
G75*
G02*
X37550000Y-85595000I50000J0D01*
G01*
X39150000Y-85595000D01*
G75*
G02*
X39200000Y-85645000I0J-50000D01*
G01*
G37*
G36*
G01*
X39200000Y-84845000D02*
X39200000Y-85395000D01*
G75*
G02*
X39150000Y-85445000I-50000J0D01*
G01*
X37550000Y-85445000D01*
G75*
G02*
X37500000Y-85395000I0J50000D01*
G01*
X37500000Y-84845000D01*
G75*
G02*
X37550000Y-84795000I50000J0D01*
G01*
X39150000Y-84795000D01*
G75*
G02*
X39200000Y-84845000I0J-50000D01*
G01*
G37*
G36*
G01*
X39200000Y-84045000D02*
X39200000Y-84595000D01*
G75*
G02*
X39150000Y-84645000I-50000J0D01*
G01*
X37550000Y-84645000D01*
G75*
G02*
X37500000Y-84595000I0J50000D01*
G01*
X37500000Y-84045000D01*
G75*
G02*
X37550000Y-83995000I50000J0D01*
G01*
X39150000Y-83995000D01*
G75*
G02*
X39200000Y-84045000I0J-50000D01*
G01*
G37*
G36*
G01*
X40075000Y-83720000D02*
X39525000Y-83720000D01*
G75*
G02*
X39475000Y-83670000I0J50000D01*
G01*
X39475000Y-82070000D01*
G75*
G02*
X39525000Y-82020000I50000J0D01*
G01*
X40075000Y-82020000D01*
G75*
G02*
X40125000Y-82070000I0J-50000D01*
G01*
X40125000Y-83670000D01*
G75*
G02*
X40075000Y-83720000I-50000J0D01*
G01*
G37*
G36*
G01*
X40875000Y-83720000D02*
X40325000Y-83720000D01*
G75*
G02*
X40275000Y-83670000I0J50000D01*
G01*
X40275000Y-82070000D01*
G75*
G02*
X40325000Y-82020000I50000J0D01*
G01*
X40875000Y-82020000D01*
G75*
G02*
X40925000Y-82070000I0J-50000D01*
G01*
X40925000Y-83670000D01*
G75*
G02*
X40875000Y-83720000I-50000J0D01*
G01*
G37*
G36*
G01*
X41675000Y-83720000D02*
X41125000Y-83720000D01*
G75*
G02*
X41075000Y-83670000I0J50000D01*
G01*
X41075000Y-82070000D01*
G75*
G02*
X41125000Y-82020000I50000J0D01*
G01*
X41675000Y-82020000D01*
G75*
G02*
X41725000Y-82070000I0J-50000D01*
G01*
X41725000Y-83670000D01*
G75*
G02*
X41675000Y-83720000I-50000J0D01*
G01*
G37*
G36*
G01*
X42475000Y-83720000D02*
X41925000Y-83720000D01*
G75*
G02*
X41875000Y-83670000I0J50000D01*
G01*
X41875000Y-82070000D01*
G75*
G02*
X41925000Y-82020000I50000J0D01*
G01*
X42475000Y-82020000D01*
G75*
G02*
X42525000Y-82070000I0J-50000D01*
G01*
X42525000Y-83670000D01*
G75*
G02*
X42475000Y-83720000I-50000J0D01*
G01*
G37*
G36*
G01*
X43275000Y-83720000D02*
X42725000Y-83720000D01*
G75*
G02*
X42675000Y-83670000I0J50000D01*
G01*
X42675000Y-82070000D01*
G75*
G02*
X42725000Y-82020000I50000J0D01*
G01*
X43275000Y-82020000D01*
G75*
G02*
X43325000Y-82070000I0J-50000D01*
G01*
X43325000Y-83670000D01*
G75*
G02*
X43275000Y-83720000I-50000J0D01*
G01*
G37*
G36*
G01*
X44075000Y-83720000D02*
X43525000Y-83720000D01*
G75*
G02*
X43475000Y-83670000I0J50000D01*
G01*
X43475000Y-82070000D01*
G75*
G02*
X43525000Y-82020000I50000J0D01*
G01*
X44075000Y-82020000D01*
G75*
G02*
X44125000Y-82070000I0J-50000D01*
G01*
X44125000Y-83670000D01*
G75*
G02*
X44075000Y-83720000I-50000J0D01*
G01*
G37*
G36*
G01*
X44875000Y-83720000D02*
X44325000Y-83720000D01*
G75*
G02*
X44275000Y-83670000I0J50000D01*
G01*
X44275000Y-82070000D01*
G75*
G02*
X44325000Y-82020000I50000J0D01*
G01*
X44875000Y-82020000D01*
G75*
G02*
X44925000Y-82070000I0J-50000D01*
G01*
X44925000Y-83670000D01*
G75*
G02*
X44875000Y-83720000I-50000J0D01*
G01*
G37*
G36*
G01*
X45675000Y-83720000D02*
X45125000Y-83720000D01*
G75*
G02*
X45075000Y-83670000I0J50000D01*
G01*
X45075000Y-82070000D01*
G75*
G02*
X45125000Y-82020000I50000J0D01*
G01*
X45675000Y-82020000D01*
G75*
G02*
X45725000Y-82070000I0J-50000D01*
G01*
X45725000Y-83670000D01*
G75*
G02*
X45675000Y-83720000I-50000J0D01*
G01*
G37*
G04 #@! TD*
G04 #@! TO.C,C5*
G36*
G01*
X43500000Y-71500000D02*
X43500000Y-70500000D01*
G75*
G02*
X43775000Y-70225000I275000J0D01*
G01*
X44325000Y-70225000D01*
G75*
G02*
X44600000Y-70500000I0J-275000D01*
G01*
X44600000Y-71500000D01*
G75*
G02*
X44325000Y-71775000I-275000J0D01*
G01*
X43775000Y-71775000D01*
G75*
G02*
X43500000Y-71500000I0J275000D01*
G01*
G37*
G36*
G01*
X45400000Y-71500000D02*
X45400000Y-70500000D01*
G75*
G02*
X45675000Y-70225000I275000J0D01*
G01*
X46225000Y-70225000D01*
G75*
G02*
X46500000Y-70500000I0J-275000D01*
G01*
X46500000Y-71500000D01*
G75*
G02*
X46225000Y-71775000I-275000J0D01*
G01*
X45675000Y-71775000D01*
G75*
G02*
X45400000Y-71500000I0J275000D01*
G01*
G37*
G04 #@! TD*
D12*
G04 #@! TO.C,MX29*
X61277500Y-90170000D03*
D13*
X58737500Y-95250000D03*
D12*
X54927500Y-92710000D03*
D14*
X53657500Y-95250000D03*
X63817500Y-95250000D03*
G04 #@! TD*
D12*
G04 #@! TO.C,MX3*
X66040000Y-52070000D03*
D13*
X63500000Y-57150000D03*
D12*
X59690000Y-54610000D03*
D14*
X58420000Y-57150000D03*
X68580000Y-57150000D03*
G04 #@! TD*
G04 #@! TO.C,U2*
G36*
G01*
X58449999Y-66529811D02*
X59099999Y-66529811D01*
G75*
G02*
X59149999Y-66579811I0J-50000D01*
G01*
X59149999Y-67639811D01*
G75*
G02*
X59099999Y-67689811I-50000J0D01*
G01*
X58449999Y-67689811D01*
G75*
G02*
X58399999Y-67639811I0J50000D01*
G01*
X58399999Y-66579811D01*
G75*
G02*
X58449999Y-66529811I50000J0D01*
G01*
G37*
G36*
G01*
X57499999Y-66529811D02*
X58149999Y-66529811D01*
G75*
G02*
X58199999Y-66579811I0J-50000D01*
G01*
X58199999Y-67639811D01*
G75*
G02*
X58149999Y-67689811I-50000J0D01*
G01*
X57499999Y-67689811D01*
G75*
G02*
X57449999Y-67639811I0J50000D01*
G01*
X57449999Y-66579811D01*
G75*
G02*
X57499999Y-66529811I50000J0D01*
G01*
G37*
G36*
G01*
X59399999Y-66529811D02*
X60049999Y-66529811D01*
G75*
G02*
X60099999Y-66579811I0J-50000D01*
G01*
X60099999Y-67639811D01*
G75*
G02*
X60049999Y-67689811I-50000J0D01*
G01*
X59399999Y-67689811D01*
G75*
G02*
X59349999Y-67639811I0J50000D01*
G01*
X59349999Y-66579811D01*
G75*
G02*
X59399999Y-66529811I50000J0D01*
G01*
G37*
G36*
G01*
X59399999Y-64329811D02*
X60049999Y-64329811D01*
G75*
G02*
X60099999Y-64379811I0J-50000D01*
G01*
X60099999Y-65439811D01*
G75*
G02*
X60049999Y-65489811I-50000J0D01*
G01*
X59399999Y-65489811D01*
G75*
G02*
X59349999Y-65439811I0J50000D01*
G01*
X59349999Y-64379811D01*
G75*
G02*
X59399999Y-64329811I50000J0D01*
G01*
G37*
G36*
G01*
X58449999Y-64329811D02*
X59099999Y-64329811D01*
G75*
G02*
X59149999Y-64379811I0J-50000D01*
G01*
X59149999Y-65439811D01*
G75*
G02*
X59099999Y-65489811I-50000J0D01*
G01*
X58449999Y-65489811D01*
G75*
G02*
X58399999Y-65439811I0J50000D01*
G01*
X58399999Y-64379811D01*
G75*
G02*
X58449999Y-64329811I50000J0D01*
G01*
G37*
G36*
G01*
X57499999Y-64329811D02*
X58149999Y-64329811D01*
G75*
G02*
X58199999Y-64379811I0J-50000D01*
G01*
X58199999Y-65439811D01*
G75*
G02*
X58149999Y-65489811I-50000J0D01*
G01*
X57499999Y-65489811D01*
G75*
G02*
X57449999Y-65439811I0J50000D01*
G01*
X57449999Y-64379811D01*
G75*
G02*
X57499999Y-64329811I50000J0D01*
G01*
G37*
G04 #@! TD*
G04 #@! TO.C,R4*
G36*
G01*
X33104388Y-80852500D02*
X34055612Y-80852500D01*
G75*
G02*
X34330000Y-81126888I0J-274388D01*
G01*
X34330000Y-81703112D01*
G75*
G02*
X34055612Y-81977500I-274388J0D01*
G01*
X33104388Y-81977500D01*
G75*
G02*
X32830000Y-81703112I0J274388D01*
G01*
X32830000Y-81126888D01*
G75*
G02*
X33104388Y-80852500I274388J0D01*
G01*
G37*
G36*
G01*
X33104388Y-79027500D02*
X34055612Y-79027500D01*
G75*
G02*
X34330000Y-79301888I0J-274388D01*
G01*
X34330000Y-79878112D01*
G75*
G02*
X34055612Y-80152500I-274388J0D01*
G01*
X33104388Y-80152500D01*
G75*
G02*
X32830000Y-79878112I0J274388D01*
G01*
X32830000Y-79301888D01*
G75*
G02*
X33104388Y-79027500I274388J0D01*
G01*
G37*
G04 #@! TD*
D12*
G04 #@! TO.C,MX45*
X163671250Y-109220000D03*
D13*
X161131250Y-114300000D03*
D12*
X157321250Y-111760000D03*
D14*
X156051250Y-114300000D03*
X166211250Y-114300000D03*
D15*
X149225000Y-121285000D03*
X173037500Y-121285000D03*
D13*
X149225000Y-106045000D03*
X173037500Y-106045000D03*
G04 #@! TD*
G04 #@! TO.C,J1*
G36*
G01*
X70250000Y-66100000D02*
X71800000Y-66100000D01*
G75*
G02*
X71850000Y-66150000I0J-50000D01*
G01*
X71850000Y-66750000D01*
G75*
G02*
X71800000Y-66800000I-50000J0D01*
G01*
X70250000Y-66800000D01*
G75*
G02*
X70200000Y-66750000I0J50000D01*
G01*
X70200000Y-66150000D01*
G75*
G02*
X70250000Y-66100000I50000J0D01*
G01*
G37*
G36*
G01*
X70250000Y-67100000D02*
X71800000Y-67100000D01*
G75*
G02*
X71850000Y-67150000I0J-50000D01*
G01*
X71850000Y-67750000D01*
G75*
G02*
X71800000Y-67800000I-50000J0D01*
G01*
X70250000Y-67800000D01*
G75*
G02*
X70200000Y-67750000I0J50000D01*
G01*
X70200000Y-67150000D01*
G75*
G02*
X70250000Y-67100000I50000J0D01*
G01*
G37*
G36*
G01*
X70250000Y-65100000D02*
X71800000Y-65100000D01*
G75*
G02*
X71850000Y-65150000I0J-50000D01*
G01*
X71850000Y-65750000D01*
G75*
G02*
X71800000Y-65800000I-50000J0D01*
G01*
X70250000Y-65800000D01*
G75*
G02*
X70200000Y-65750000I0J50000D01*
G01*
X70200000Y-65150000D01*
G75*
G02*
X70250000Y-65100000I50000J0D01*
G01*
G37*
G36*
G01*
X70250000Y-64100000D02*
X71800000Y-64100000D01*
G75*
G02*
X71850000Y-64150000I0J-50000D01*
G01*
X71850000Y-64750000D01*
G75*
G02*
X71800000Y-64800000I-50000J0D01*
G01*
X70250000Y-64800000D01*
G75*
G02*
X70200000Y-64750000I0J50000D01*
G01*
X70200000Y-64150000D01*
G75*
G02*
X70250000Y-64100000I50000J0D01*
G01*
G37*
G36*
G01*
X74000000Y-62500000D02*
X75800000Y-62500000D01*
G75*
G02*
X75850000Y-62550000I0J-50000D01*
G01*
X75850000Y-63750000D01*
G75*
G02*
X75800000Y-63800000I-50000J0D01*
G01*
X74000000Y-63800000D01*
G75*
G02*
X73950000Y-63750000I0J50000D01*
G01*
X73950000Y-62550000D01*
G75*
G02*
X74000000Y-62500000I50000J0D01*
G01*
G37*
G36*
G01*
X74000000Y-68100000D02*
X75800000Y-68100000D01*
G75*
G02*
X75850000Y-68150000I0J-50000D01*
G01*
X75850000Y-69350000D01*
G75*
G02*
X75800000Y-69400000I-50000J0D01*
G01*
X74000000Y-69400000D01*
G75*
G02*
X73950000Y-69350000I0J50000D01*
G01*
X73950000Y-68150000D01*
G75*
G02*
X74000000Y-68100000I50000J0D01*
G01*
G37*
G04 #@! TD*
D12*
G04 #@! TO.C,MX35*
X175577500Y-90170000D03*
D13*
X173037500Y-95250000D03*
D12*
X169227500Y-92710000D03*
D14*
X167957500Y-95250000D03*
X178117500Y-95250000D03*
G04 #@! TD*
D12*
G04 #@! TO.C,MX32*
X118427500Y-90170000D03*
D13*
X115887500Y-95250000D03*
D12*
X112077500Y-92710000D03*
D14*
X110807500Y-95250000D03*
X120967500Y-95250000D03*
G04 #@! TD*
D12*
G04 #@! TO.C,MX41*
X30321250Y-109220000D03*
D13*
X27781250Y-114300000D03*
D12*
X23971250Y-111760000D03*
D14*
X22701250Y-114300000D03*
X32861250Y-114300000D03*
G04 #@! TD*
D12*
G04 #@! TO.C,MX49*
X275590000Y-109220000D03*
D13*
X273050000Y-114300000D03*
D12*
X269240000Y-111760000D03*
D14*
X267970000Y-114300000D03*
X278130000Y-114300000D03*
G04 #@! TD*
D12*
G04 #@! TO.C,MX21*
X147002500Y-71120000D03*
D13*
X144462500Y-76200000D03*
D12*
X140652500Y-73660000D03*
D14*
X139382500Y-76200000D03*
X149542500Y-76200000D03*
G04 #@! TD*
D12*
G04 #@! TO.C,MX14*
X275590000Y-52070000D03*
D13*
X273050000Y-57150000D03*
D12*
X269240000Y-54610000D03*
D14*
X267970000Y-57150000D03*
X278130000Y-57150000D03*
G04 #@! TD*
D12*
G04 #@! TO.C,MX30*
X80327500Y-90170000D03*
D13*
X77787500Y-95250000D03*
D12*
X73977500Y-92710000D03*
D14*
X72707500Y-95250000D03*
X82867500Y-95250000D03*
G04 #@! TD*
D12*
G04 #@! TO.C,MX42*
X56515000Y-109220000D03*
D13*
X53975000Y-114300000D03*
D12*
X50165000Y-111760000D03*
D14*
X48895000Y-114300000D03*
X59055000Y-114300000D03*
G04 #@! TD*
G04 #@! TO.C,Y1*
G36*
G01*
X56035000Y-84005000D02*
X57235000Y-84005000D01*
G75*
G02*
X57285000Y-84055000I0J-50000D01*
G01*
X57285000Y-85455000D01*
G75*
G02*
X57235000Y-85505000I-50000J0D01*
G01*
X56035000Y-85505000D01*
G75*
G02*
X55985000Y-85455000I0J50000D01*
G01*
X55985000Y-84055000D01*
G75*
G02*
X56035000Y-84005000I50000J0D01*
G01*
G37*
G36*
G01*
X56035000Y-86205000D02*
X57235000Y-86205000D01*
G75*
G02*
X57285000Y-86255000I0J-50000D01*
G01*
X57285000Y-87655000D01*
G75*
G02*
X57235000Y-87705000I-50000J0D01*
G01*
X56035000Y-87705000D01*
G75*
G02*
X55985000Y-87655000I0J50000D01*
G01*
X55985000Y-86255000D01*
G75*
G02*
X56035000Y-86205000I50000J0D01*
G01*
G37*
G36*
G01*
X54335000Y-86205000D02*
X55535000Y-86205000D01*
G75*
G02*
X55585000Y-86255000I0J-50000D01*
G01*
X55585000Y-87655000D01*
G75*
G02*
X55535000Y-87705000I-50000J0D01*
G01*
X54335000Y-87705000D01*
G75*
G02*
X54285000Y-87655000I0J50000D01*
G01*
X54285000Y-86255000D01*
G75*
G02*
X54335000Y-86205000I50000J0D01*
G01*
G37*
G36*
G01*
X54335000Y-84005000D02*
X55535000Y-84005000D01*
G75*
G02*
X55585000Y-84055000I0J-50000D01*
G01*
X55585000Y-85455000D01*
G75*
G02*
X55535000Y-85505000I-50000J0D01*
G01*
X54335000Y-85505000D01*
G75*
G02*
X54285000Y-85455000I0J50000D01*
G01*
X54285000Y-84055000D01*
G75*
G02*
X54335000Y-84005000I50000J0D01*
G01*
G37*
G04 #@! TD*
G04 #@! TO.C,SW1*
G36*
G01*
X33025000Y-64425000D02*
X33025000Y-63325000D01*
G75*
G02*
X33075000Y-63275000I50000J0D01*
G01*
X34875000Y-63275000D01*
G75*
G02*
X34925000Y-63325000I0J-50000D01*
G01*
X34925000Y-64425000D01*
G75*
G02*
X34875000Y-64475000I-50000J0D01*
G01*
X33075000Y-64475000D01*
G75*
G02*
X33025000Y-64425000I0J50000D01*
G01*
G37*
G36*
G01*
X39225000Y-68125000D02*
X39225000Y-67025000D01*
G75*
G02*
X39275000Y-66975000I50000J0D01*
G01*
X41075000Y-66975000D01*
G75*
G02*
X41125000Y-67025000I0J-50000D01*
G01*
X41125000Y-68125000D01*
G75*
G02*
X41075000Y-68175000I-50000J0D01*
G01*
X39275000Y-68175000D01*
G75*
G02*
X39225000Y-68125000I0J50000D01*
G01*
G37*
G36*
G01*
X33025000Y-68125000D02*
X33025000Y-67025000D01*
G75*
G02*
X33075000Y-66975000I50000J0D01*
G01*
X34875000Y-66975000D01*
G75*
G02*
X34925000Y-67025000I0J-50000D01*
G01*
X34925000Y-68125000D01*
G75*
G02*
X34875000Y-68175000I-50000J0D01*
G01*
X33075000Y-68175000D01*
G75*
G02*
X33025000Y-68125000I0J50000D01*
G01*
G37*
G36*
G01*
X39225000Y-64425000D02*
X39225000Y-63325000D01*
G75*
G02*
X39275000Y-63275000I50000J0D01*
G01*
X41075000Y-63275000D01*
G75*
G02*
X41125000Y-63325000I0J-50000D01*
G01*
X41125000Y-64425000D01*
G75*
G02*
X41075000Y-64475000I-50000J0D01*
G01*
X39275000Y-64475000D01*
G75*
G02*
X39225000Y-64425000I0J50000D01*
G01*
G37*
G04 #@! TD*
G04 #@! TO.C,R3*
G36*
G01*
X51031250Y-67619362D02*
X51031250Y-66668138D01*
G75*
G02*
X51305638Y-66393750I274388J0D01*
G01*
X51881862Y-66393750D01*
G75*
G02*
X52156250Y-66668138I0J-274388D01*
G01*
X52156250Y-67619362D01*
G75*
G02*
X51881862Y-67893750I-274388J0D01*
G01*
X51305638Y-67893750D01*
G75*
G02*
X51031250Y-67619362I0J274388D01*
G01*
G37*
G36*
G01*
X49206250Y-67619250D02*
X49206250Y-66668250D01*
G75*
G02*
X49480750Y-66393750I274500J0D01*
G01*
X50056750Y-66393750D01*
G75*
G02*
X50331250Y-66668250I0J-274500D01*
G01*
X50331250Y-67619250D01*
G75*
G02*
X50056750Y-67893750I-274500J0D01*
G01*
X49480750Y-67893750D01*
G75*
G02*
X49206250Y-67619250I0J274500D01*
G01*
G37*
G04 #@! TD*
G04 #@! TO.C,R2*
G36*
G01*
X49206250Y-65238000D02*
X49206250Y-64287000D01*
G75*
G02*
X49480750Y-64012500I274500J0D01*
G01*
X50056750Y-64012500D01*
G75*
G02*
X50331250Y-64287000I0J-274500D01*
G01*
X50331250Y-65238000D01*
G75*
G02*
X50056750Y-65512500I-274500J0D01*
G01*
X49480750Y-65512500D01*
G75*
G02*
X49206250Y-65238000I0J274500D01*
G01*
G37*
G36*
G01*
X51031250Y-65238112D02*
X51031250Y-64286888D01*
G75*
G02*
X51305638Y-64012500I274388J0D01*
G01*
X51881862Y-64012500D01*
G75*
G02*
X52156250Y-64286888I0J-274388D01*
G01*
X52156250Y-65238112D01*
G75*
G02*
X51881862Y-65512500I-274388J0D01*
G01*
X51305638Y-65512500D01*
G75*
G02*
X51031250Y-65238112I0J274388D01*
G01*
G37*
G04 #@! TD*
G04 #@! TO.C,R1*
G36*
G01*
X50254388Y-93790000D02*
X51205612Y-93790000D01*
G75*
G02*
X51480000Y-94064388I0J-274388D01*
G01*
X51480000Y-94640612D01*
G75*
G02*
X51205612Y-94915000I-274388J0D01*
G01*
X50254388Y-94915000D01*
G75*
G02*
X49980000Y-94640612I0J274388D01*
G01*
X49980000Y-94064388D01*
G75*
G02*
X50254388Y-93790000I274388J0D01*
G01*
G37*
G36*
G01*
X50254388Y-91965000D02*
X51205612Y-91965000D01*
G75*
G02*
X51480000Y-92239388I0J-274388D01*
G01*
X51480000Y-92815612D01*
G75*
G02*
X51205612Y-93090000I-274388J0D01*
G01*
X50254388Y-93090000D01*
G75*
G02*
X49980000Y-92815612I0J274388D01*
G01*
X49980000Y-92239388D01*
G75*
G02*
X50254388Y-91965000I274388J0D01*
G01*
G37*
G04 #@! TD*
D12*
G04 #@! TO.C,MX48*
X254158750Y-109220000D03*
D13*
X251618750Y-114300000D03*
D12*
X247808750Y-111760000D03*
D14*
X246538750Y-114300000D03*
X256698750Y-114300000D03*
G04 #@! TD*
D12*
G04 #@! TO.C,MX47*
X227965000Y-109220000D03*
D13*
X225425000Y-114300000D03*
D12*
X221615000Y-111760000D03*
D14*
X220345000Y-114300000D03*
X230505000Y-114300000D03*
G04 #@! TD*
D12*
G04 #@! TO.C,MX46*
X201771250Y-109220000D03*
D13*
X199231250Y-114300000D03*
D12*
X195421250Y-111760000D03*
D14*
X194151250Y-114300000D03*
X204311250Y-114300000D03*
G04 #@! TD*
D12*
G04 #@! TO.C,MX40*
X275590000Y-90170000D03*
D13*
X273050000Y-95250000D03*
D12*
X269240000Y-92710000D03*
D14*
X267970000Y-95250000D03*
X278130000Y-95250000D03*
G04 #@! TD*
D12*
G04 #@! TO.C,MX39*
X254158750Y-90170000D03*
D13*
X251618750Y-95250000D03*
D12*
X247808750Y-92710000D03*
D14*
X246538750Y-95250000D03*
X256698750Y-95250000D03*
G04 #@! TD*
D12*
G04 #@! TO.C,MX38*
X232727500Y-90170000D03*
D13*
X230187500Y-95250000D03*
D12*
X226377500Y-92710000D03*
D14*
X225107500Y-95250000D03*
X235267500Y-95250000D03*
G04 #@! TD*
D12*
G04 #@! TO.C,MX37*
X213677500Y-90170000D03*
D13*
X211137500Y-95250000D03*
D12*
X207327500Y-92710000D03*
D14*
X206057500Y-95250000D03*
X216217500Y-95250000D03*
G04 #@! TD*
D12*
G04 #@! TO.C,MX36*
X194627500Y-90170000D03*
D13*
X192087500Y-95250000D03*
D12*
X188277500Y-92710000D03*
D14*
X187007500Y-95250000D03*
X197167500Y-95250000D03*
G04 #@! TD*
D12*
G04 #@! TO.C,MX34*
X156527500Y-90170000D03*
D13*
X153987500Y-95250000D03*
D12*
X150177500Y-92710000D03*
D14*
X148907500Y-95250000D03*
X159067500Y-95250000D03*
G04 #@! TD*
D12*
G04 #@! TO.C,MX33*
X137477500Y-90170000D03*
D13*
X134937500Y-95250000D03*
D12*
X131127500Y-92710000D03*
D14*
X129857500Y-95250000D03*
X140017500Y-95250000D03*
G04 #@! TD*
D12*
G04 #@! TO.C,MX31*
X99377500Y-90170000D03*
D13*
X96837500Y-95250000D03*
D12*
X93027500Y-92710000D03*
D14*
X91757500Y-95250000D03*
X101917500Y-95250000D03*
G04 #@! TD*
D12*
G04 #@! TO.C,MX28*
X35083750Y-90170000D03*
D13*
X32543750Y-95250000D03*
D12*
X28733750Y-92710000D03*
D14*
X27463750Y-95250000D03*
X37623750Y-95250000D03*
G04 #@! TD*
D12*
G04 #@! TO.C,MX27*
X268446250Y-71120000D03*
D13*
X265906250Y-76200000D03*
D12*
X262096250Y-73660000D03*
D14*
X260826250Y-76200000D03*
X270986250Y-76200000D03*
G04 #@! TD*
D12*
G04 #@! TO.C,MX26*
X242252500Y-71120000D03*
D13*
X239712500Y-76200000D03*
D12*
X235902500Y-73660000D03*
D14*
X234632500Y-76200000D03*
X244792500Y-76200000D03*
G04 #@! TD*
D12*
G04 #@! TO.C,MX25*
X223202500Y-71120000D03*
D13*
X220662500Y-76200000D03*
D12*
X216852500Y-73660000D03*
D14*
X215582500Y-76200000D03*
X225742500Y-76200000D03*
G04 #@! TD*
D12*
G04 #@! TO.C,MX24*
X204152500Y-71120000D03*
D13*
X201612500Y-76200000D03*
D12*
X197802500Y-73660000D03*
D14*
X196532500Y-76200000D03*
X206692500Y-76200000D03*
G04 #@! TD*
D12*
G04 #@! TO.C,MX23*
X185102500Y-71120000D03*
D13*
X182562500Y-76200000D03*
D12*
X178752500Y-73660000D03*
D14*
X177482500Y-76200000D03*
X187642500Y-76200000D03*
G04 #@! TD*
D12*
G04 #@! TO.C,MX22*
X166052500Y-71120000D03*
D13*
X163512500Y-76200000D03*
D12*
X159702500Y-73660000D03*
D14*
X158432500Y-76200000D03*
X168592500Y-76200000D03*
G04 #@! TD*
D12*
G04 #@! TO.C,MX20*
X127952500Y-71120000D03*
D13*
X125412500Y-76200000D03*
D12*
X121602500Y-73660000D03*
D14*
X120332500Y-76200000D03*
X130492500Y-76200000D03*
G04 #@! TD*
D12*
G04 #@! TO.C,MX19*
X108902500Y-71120000D03*
D13*
X106362500Y-76200000D03*
D12*
X102552500Y-73660000D03*
D14*
X101282500Y-76200000D03*
X111442500Y-76200000D03*
G04 #@! TD*
D12*
G04 #@! TO.C,MX18*
X89852500Y-71120000D03*
D13*
X87312500Y-76200000D03*
D12*
X83502500Y-73660000D03*
D14*
X82232500Y-76200000D03*
X92392500Y-76200000D03*
G04 #@! TD*
D12*
G04 #@! TO.C,MX17*
X70802500Y-71120000D03*
D13*
X68262500Y-76200000D03*
D12*
X64452500Y-73660000D03*
D14*
X63182500Y-76200000D03*
X73342500Y-76200000D03*
G04 #@! TD*
D12*
G04 #@! TO.C,MX15*
X30321250Y-71120000D03*
D13*
X27781250Y-76200000D03*
D12*
X23971250Y-73660000D03*
D14*
X22701250Y-76200000D03*
X32861250Y-76200000D03*
G04 #@! TD*
D12*
G04 #@! TO.C,MX13*
X256540000Y-52070000D03*
D13*
X254000000Y-57150000D03*
D12*
X250190000Y-54610000D03*
D14*
X248920000Y-57150000D03*
X259080000Y-57150000D03*
G04 #@! TD*
D12*
G04 #@! TO.C,MX12*
X237490000Y-52070000D03*
D13*
X234950000Y-57150000D03*
D12*
X231140000Y-54610000D03*
D14*
X229870000Y-57150000D03*
X240030000Y-57150000D03*
G04 #@! TD*
D12*
G04 #@! TO.C,MX11*
X218440000Y-52070000D03*
D13*
X215900000Y-57150000D03*
D12*
X212090000Y-54610000D03*
D14*
X210820000Y-57150000D03*
X220980000Y-57150000D03*
G04 #@! TD*
D12*
G04 #@! TO.C,MX10*
X199390000Y-52070000D03*
D13*
X196850000Y-57150000D03*
D12*
X193040000Y-54610000D03*
D14*
X191770000Y-57150000D03*
X201930000Y-57150000D03*
G04 #@! TD*
D12*
G04 #@! TO.C,MX9*
X180340000Y-52070000D03*
D13*
X177800000Y-57150000D03*
D12*
X173990000Y-54610000D03*
D14*
X172720000Y-57150000D03*
X182880000Y-57150000D03*
G04 #@! TD*
D12*
G04 #@! TO.C,MX8*
X161290000Y-52070000D03*
D13*
X158750000Y-57150000D03*
D12*
X154940000Y-54610000D03*
D14*
X153670000Y-57150000D03*
X163830000Y-57150000D03*
G04 #@! TD*
D12*
G04 #@! TO.C,MX7*
X142240000Y-52070000D03*
D13*
X139700000Y-57150000D03*
D12*
X135890000Y-54610000D03*
D14*
X134620000Y-57150000D03*
X144780000Y-57150000D03*
G04 #@! TD*
D12*
G04 #@! TO.C,MX6*
X123190000Y-52070000D03*
D13*
X120650000Y-57150000D03*
D12*
X116840000Y-54610000D03*
D14*
X115570000Y-57150000D03*
X125730000Y-57150000D03*
G04 #@! TD*
D12*
G04 #@! TO.C,MX5*
X104140000Y-52070000D03*
D13*
X101600000Y-57150000D03*
D12*
X97790000Y-54610000D03*
D14*
X96520000Y-57150000D03*
X106680000Y-57150000D03*
G04 #@! TD*
D12*
G04 #@! TO.C,MX4*
X85090000Y-52070000D03*
D13*
X82550000Y-57150000D03*
D12*
X78740000Y-54610000D03*
D14*
X77470000Y-57150000D03*
X87630000Y-57150000D03*
G04 #@! TD*
D12*
G04 #@! TO.C,MX1*
X27940000Y-52070000D03*
D13*
X25400000Y-57150000D03*
D12*
X21590000Y-54610000D03*
D14*
X20320000Y-57150000D03*
X30480000Y-57150000D03*
G04 #@! TD*
G04 #@! TO.C,F1*
G36*
G01*
X56825000Y-71905000D02*
X56825000Y-70595000D01*
G75*
G02*
X57095000Y-70325000I270000J0D01*
G01*
X57905000Y-70325000D01*
G75*
G02*
X58175000Y-70595000I0J-270000D01*
G01*
X58175000Y-71905000D01*
G75*
G02*
X57905000Y-72175000I-270000J0D01*
G01*
X57095000Y-72175000D01*
G75*
G02*
X56825000Y-71905000I0J270000D01*
G01*
G37*
G36*
G01*
X54025000Y-71905000D02*
X54025000Y-70595000D01*
G75*
G02*
X54295000Y-70325000I270000J0D01*
G01*
X55105000Y-70325000D01*
G75*
G02*
X55375000Y-70595000I0J-270000D01*
G01*
X55375000Y-71905000D01*
G75*
G02*
X55105000Y-72175000I-270000J0D01*
G01*
X54295000Y-72175000D01*
G75*
G02*
X54025000Y-71905000I0J270000D01*
G01*
G37*
G04 #@! TD*
G04 #@! TO.C,D49*
G36*
G01*
X281587500Y-113150000D02*
X280387500Y-113150000D01*
G75*
G02*
X280337500Y-113100000I0J50000D01*
G01*
X280337500Y-112200000D01*
G75*
G02*
X280387500Y-112150000I50000J0D01*
G01*
X281587500Y-112150000D01*
G75*
G02*
X281637500Y-112200000I0J-50000D01*
G01*
X281637500Y-113100000D01*
G75*
G02*
X281587500Y-113150000I-50000J0D01*
G01*
G37*
G36*
G01*
X281587500Y-116450000D02*
X280387500Y-116450000D01*
G75*
G02*
X280337500Y-116400000I0J50000D01*
G01*
X280337500Y-115500000D01*
G75*
G02*
X280387500Y-115450000I50000J0D01*
G01*
X281587500Y-115450000D01*
G75*
G02*
X281637500Y-115500000I0J-50000D01*
G01*
X281637500Y-116400000D01*
G75*
G02*
X281587500Y-116450000I-50000J0D01*
G01*
G37*
G04 #@! TD*
G04 #@! TO.C,D48*
G36*
G01*
X260156250Y-113150000D02*
X258956250Y-113150000D01*
G75*
G02*
X258906250Y-113100000I0J50000D01*
G01*
X258906250Y-112200000D01*
G75*
G02*
X258956250Y-112150000I50000J0D01*
G01*
X260156250Y-112150000D01*
G75*
G02*
X260206250Y-112200000I0J-50000D01*
G01*
X260206250Y-113100000D01*
G75*
G02*
X260156250Y-113150000I-50000J0D01*
G01*
G37*
G36*
G01*
X260156250Y-116450000D02*
X258956250Y-116450000D01*
G75*
G02*
X258906250Y-116400000I0J50000D01*
G01*
X258906250Y-115500000D01*
G75*
G02*
X258956250Y-115450000I50000J0D01*
G01*
X260156250Y-115450000D01*
G75*
G02*
X260206250Y-115500000I0J-50000D01*
G01*
X260206250Y-116400000D01*
G75*
G02*
X260156250Y-116450000I-50000J0D01*
G01*
G37*
G04 #@! TD*
G04 #@! TO.C,D47*
G36*
G01*
X233962500Y-113150000D02*
X232762500Y-113150000D01*
G75*
G02*
X232712500Y-113100000I0J50000D01*
G01*
X232712500Y-112200000D01*
G75*
G02*
X232762500Y-112150000I50000J0D01*
G01*
X233962500Y-112150000D01*
G75*
G02*
X234012500Y-112200000I0J-50000D01*
G01*
X234012500Y-113100000D01*
G75*
G02*
X233962500Y-113150000I-50000J0D01*
G01*
G37*
G36*
G01*
X233962500Y-116450000D02*
X232762500Y-116450000D01*
G75*
G02*
X232712500Y-116400000I0J50000D01*
G01*
X232712500Y-115500000D01*
G75*
G02*
X232762500Y-115450000I50000J0D01*
G01*
X233962500Y-115450000D01*
G75*
G02*
X234012500Y-115500000I0J-50000D01*
G01*
X234012500Y-116400000D01*
G75*
G02*
X233962500Y-116450000I-50000J0D01*
G01*
G37*
G04 #@! TD*
G04 #@! TO.C,D46*
G36*
G01*
X207768750Y-113150000D02*
X206568750Y-113150000D01*
G75*
G02*
X206518750Y-113100000I0J50000D01*
G01*
X206518750Y-112200000D01*
G75*
G02*
X206568750Y-112150000I50000J0D01*
G01*
X207768750Y-112150000D01*
G75*
G02*
X207818750Y-112200000I0J-50000D01*
G01*
X207818750Y-113100000D01*
G75*
G02*
X207768750Y-113150000I-50000J0D01*
G01*
G37*
G36*
G01*
X207768750Y-116450000D02*
X206568750Y-116450000D01*
G75*
G02*
X206518750Y-116400000I0J50000D01*
G01*
X206518750Y-115500000D01*
G75*
G02*
X206568750Y-115450000I50000J0D01*
G01*
X207768750Y-115450000D01*
G75*
G02*
X207818750Y-115500000I0J-50000D01*
G01*
X207818750Y-116400000D01*
G75*
G02*
X207768750Y-116450000I-50000J0D01*
G01*
G37*
G04 #@! TD*
G04 #@! TO.C,D45*
G36*
G01*
X169668750Y-113150000D02*
X168468750Y-113150000D01*
G75*
G02*
X168418750Y-113100000I0J50000D01*
G01*
X168418750Y-112200000D01*
G75*
G02*
X168468750Y-112150000I50000J0D01*
G01*
X169668750Y-112150000D01*
G75*
G02*
X169718750Y-112200000I0J-50000D01*
G01*
X169718750Y-113100000D01*
G75*
G02*
X169668750Y-113150000I-50000J0D01*
G01*
G37*
G36*
G01*
X169668750Y-116450000D02*
X168468750Y-116450000D01*
G75*
G02*
X168418750Y-116400000I0J50000D01*
G01*
X168418750Y-115500000D01*
G75*
G02*
X168468750Y-115450000I50000J0D01*
G01*
X169668750Y-115450000D01*
G75*
G02*
X169718750Y-115500000I0J-50000D01*
G01*
X169718750Y-116400000D01*
G75*
G02*
X169668750Y-116450000I-50000J0D01*
G01*
G37*
G04 #@! TD*
G04 #@! TO.C,D44*
G36*
G01*
X122043750Y-113150000D02*
X120843750Y-113150000D01*
G75*
G02*
X120793750Y-113100000I0J50000D01*
G01*
X120793750Y-112200000D01*
G75*
G02*
X120843750Y-112150000I50000J0D01*
G01*
X122043750Y-112150000D01*
G75*
G02*
X122093750Y-112200000I0J-50000D01*
G01*
X122093750Y-113100000D01*
G75*
G02*
X122043750Y-113150000I-50000J0D01*
G01*
G37*
G36*
G01*
X122043750Y-116450000D02*
X120843750Y-116450000D01*
G75*
G02*
X120793750Y-116400000I0J50000D01*
G01*
X120793750Y-115500000D01*
G75*
G02*
X120843750Y-115450000I50000J0D01*
G01*
X122043750Y-115450000D01*
G75*
G02*
X122093750Y-115500000I0J-50000D01*
G01*
X122093750Y-116400000D01*
G75*
G02*
X122043750Y-116450000I-50000J0D01*
G01*
G37*
G04 #@! TD*
G04 #@! TO.C,D43*
G36*
G01*
X88706250Y-113150000D02*
X87506250Y-113150000D01*
G75*
G02*
X87456250Y-113100000I0J50000D01*
G01*
X87456250Y-112200000D01*
G75*
G02*
X87506250Y-112150000I50000J0D01*
G01*
X88706250Y-112150000D01*
G75*
G02*
X88756250Y-112200000I0J-50000D01*
G01*
X88756250Y-113100000D01*
G75*
G02*
X88706250Y-113150000I-50000J0D01*
G01*
G37*
G36*
G01*
X88706250Y-116450000D02*
X87506250Y-116450000D01*
G75*
G02*
X87456250Y-116400000I0J50000D01*
G01*
X87456250Y-115500000D01*
G75*
G02*
X87506250Y-115450000I50000J0D01*
G01*
X88706250Y-115450000D01*
G75*
G02*
X88756250Y-115500000I0J-50000D01*
G01*
X88756250Y-116400000D01*
G75*
G02*
X88706250Y-116450000I-50000J0D01*
G01*
G37*
G04 #@! TD*
G04 #@! TO.C,D42*
G36*
G01*
X62512500Y-113150000D02*
X61312500Y-113150000D01*
G75*
G02*
X61262500Y-113100000I0J50000D01*
G01*
X61262500Y-112200000D01*
G75*
G02*
X61312500Y-112150000I50000J0D01*
G01*
X62512500Y-112150000D01*
G75*
G02*
X62562500Y-112200000I0J-50000D01*
G01*
X62562500Y-113100000D01*
G75*
G02*
X62512500Y-113150000I-50000J0D01*
G01*
G37*
G36*
G01*
X62512500Y-116450000D02*
X61312500Y-116450000D01*
G75*
G02*
X61262500Y-116400000I0J50000D01*
G01*
X61262500Y-115500000D01*
G75*
G02*
X61312500Y-115450000I50000J0D01*
G01*
X62512500Y-115450000D01*
G75*
G02*
X62562500Y-115500000I0J-50000D01*
G01*
X62562500Y-116400000D01*
G75*
G02*
X62512500Y-116450000I-50000J0D01*
G01*
G37*
G04 #@! TD*
G04 #@! TO.C,D41*
G36*
G01*
X36318750Y-113150000D02*
X35118750Y-113150000D01*
G75*
G02*
X35068750Y-113100000I0J50000D01*
G01*
X35068750Y-112200000D01*
G75*
G02*
X35118750Y-112150000I50000J0D01*
G01*
X36318750Y-112150000D01*
G75*
G02*
X36368750Y-112200000I0J-50000D01*
G01*
X36368750Y-113100000D01*
G75*
G02*
X36318750Y-113150000I-50000J0D01*
G01*
G37*
G36*
G01*
X36318750Y-116450000D02*
X35118750Y-116450000D01*
G75*
G02*
X35068750Y-116400000I0J50000D01*
G01*
X35068750Y-115500000D01*
G75*
G02*
X35118750Y-115450000I50000J0D01*
G01*
X36318750Y-115450000D01*
G75*
G02*
X36368750Y-115500000I0J-50000D01*
G01*
X36368750Y-116400000D01*
G75*
G02*
X36318750Y-116450000I-50000J0D01*
G01*
G37*
G04 #@! TD*
G04 #@! TO.C,D40*
G36*
G01*
X281587500Y-94100000D02*
X280387500Y-94100000D01*
G75*
G02*
X280337500Y-94050000I0J50000D01*
G01*
X280337500Y-93150000D01*
G75*
G02*
X280387500Y-93100000I50000J0D01*
G01*
X281587500Y-93100000D01*
G75*
G02*
X281637500Y-93150000I0J-50000D01*
G01*
X281637500Y-94050000D01*
G75*
G02*
X281587500Y-94100000I-50000J0D01*
G01*
G37*
G36*
G01*
X281587500Y-97400000D02*
X280387500Y-97400000D01*
G75*
G02*
X280337500Y-97350000I0J50000D01*
G01*
X280337500Y-96450000D01*
G75*
G02*
X280387500Y-96400000I50000J0D01*
G01*
X281587500Y-96400000D01*
G75*
G02*
X281637500Y-96450000I0J-50000D01*
G01*
X281637500Y-97350000D01*
G75*
G02*
X281587500Y-97400000I-50000J0D01*
G01*
G37*
G04 #@! TD*
G04 #@! TO.C,D39*
G36*
G01*
X260156250Y-94100000D02*
X258956250Y-94100000D01*
G75*
G02*
X258906250Y-94050000I0J50000D01*
G01*
X258906250Y-93150000D01*
G75*
G02*
X258956250Y-93100000I50000J0D01*
G01*
X260156250Y-93100000D01*
G75*
G02*
X260206250Y-93150000I0J-50000D01*
G01*
X260206250Y-94050000D01*
G75*
G02*
X260156250Y-94100000I-50000J0D01*
G01*
G37*
G36*
G01*
X260156250Y-97400000D02*
X258956250Y-97400000D01*
G75*
G02*
X258906250Y-97350000I0J50000D01*
G01*
X258906250Y-96450000D01*
G75*
G02*
X258956250Y-96400000I50000J0D01*
G01*
X260156250Y-96400000D01*
G75*
G02*
X260206250Y-96450000I0J-50000D01*
G01*
X260206250Y-97350000D01*
G75*
G02*
X260156250Y-97400000I-50000J0D01*
G01*
G37*
G04 #@! TD*
G04 #@! TO.C,D38*
G36*
G01*
X238725000Y-94100000D02*
X237525000Y-94100000D01*
G75*
G02*
X237475000Y-94050000I0J50000D01*
G01*
X237475000Y-93150000D01*
G75*
G02*
X237525000Y-93100000I50000J0D01*
G01*
X238725000Y-93100000D01*
G75*
G02*
X238775000Y-93150000I0J-50000D01*
G01*
X238775000Y-94050000D01*
G75*
G02*
X238725000Y-94100000I-50000J0D01*
G01*
G37*
G36*
G01*
X238725000Y-97400000D02*
X237525000Y-97400000D01*
G75*
G02*
X237475000Y-97350000I0J50000D01*
G01*
X237475000Y-96450000D01*
G75*
G02*
X237525000Y-96400000I50000J0D01*
G01*
X238725000Y-96400000D01*
G75*
G02*
X238775000Y-96450000I0J-50000D01*
G01*
X238775000Y-97350000D01*
G75*
G02*
X238725000Y-97400000I-50000J0D01*
G01*
G37*
G04 #@! TD*
G04 #@! TO.C,D37*
G36*
G01*
X219675000Y-94100000D02*
X218475000Y-94100000D01*
G75*
G02*
X218425000Y-94050000I0J50000D01*
G01*
X218425000Y-93150000D01*
G75*
G02*
X218475000Y-93100000I50000J0D01*
G01*
X219675000Y-93100000D01*
G75*
G02*
X219725000Y-93150000I0J-50000D01*
G01*
X219725000Y-94050000D01*
G75*
G02*
X219675000Y-94100000I-50000J0D01*
G01*
G37*
G36*
G01*
X219675000Y-97400000D02*
X218475000Y-97400000D01*
G75*
G02*
X218425000Y-97350000I0J50000D01*
G01*
X218425000Y-96450000D01*
G75*
G02*
X218475000Y-96400000I50000J0D01*
G01*
X219675000Y-96400000D01*
G75*
G02*
X219725000Y-96450000I0J-50000D01*
G01*
X219725000Y-97350000D01*
G75*
G02*
X219675000Y-97400000I-50000J0D01*
G01*
G37*
G04 #@! TD*
G04 #@! TO.C,D36*
G36*
G01*
X200625000Y-94100000D02*
X199425000Y-94100000D01*
G75*
G02*
X199375000Y-94050000I0J50000D01*
G01*
X199375000Y-93150000D01*
G75*
G02*
X199425000Y-93100000I50000J0D01*
G01*
X200625000Y-93100000D01*
G75*
G02*
X200675000Y-93150000I0J-50000D01*
G01*
X200675000Y-94050000D01*
G75*
G02*
X200625000Y-94100000I-50000J0D01*
G01*
G37*
G36*
G01*
X200625000Y-97400000D02*
X199425000Y-97400000D01*
G75*
G02*
X199375000Y-97350000I0J50000D01*
G01*
X199375000Y-96450000D01*
G75*
G02*
X199425000Y-96400000I50000J0D01*
G01*
X200625000Y-96400000D01*
G75*
G02*
X200675000Y-96450000I0J-50000D01*
G01*
X200675000Y-97350000D01*
G75*
G02*
X200625000Y-97400000I-50000J0D01*
G01*
G37*
G04 #@! TD*
G04 #@! TO.C,D35*
G36*
G01*
X181575000Y-94100000D02*
X180375000Y-94100000D01*
G75*
G02*
X180325000Y-94050000I0J50000D01*
G01*
X180325000Y-93150000D01*
G75*
G02*
X180375000Y-93100000I50000J0D01*
G01*
X181575000Y-93100000D01*
G75*
G02*
X181625000Y-93150000I0J-50000D01*
G01*
X181625000Y-94050000D01*
G75*
G02*
X181575000Y-94100000I-50000J0D01*
G01*
G37*
G36*
G01*
X181575000Y-97400000D02*
X180375000Y-97400000D01*
G75*
G02*
X180325000Y-97350000I0J50000D01*
G01*
X180325000Y-96450000D01*
G75*
G02*
X180375000Y-96400000I50000J0D01*
G01*
X181575000Y-96400000D01*
G75*
G02*
X181625000Y-96450000I0J-50000D01*
G01*
X181625000Y-97350000D01*
G75*
G02*
X181575000Y-97400000I-50000J0D01*
G01*
G37*
G04 #@! TD*
G04 #@! TO.C,D34*
G36*
G01*
X162525000Y-94100000D02*
X161325000Y-94100000D01*
G75*
G02*
X161275000Y-94050000I0J50000D01*
G01*
X161275000Y-93150000D01*
G75*
G02*
X161325000Y-93100000I50000J0D01*
G01*
X162525000Y-93100000D01*
G75*
G02*
X162575000Y-93150000I0J-50000D01*
G01*
X162575000Y-94050000D01*
G75*
G02*
X162525000Y-94100000I-50000J0D01*
G01*
G37*
G36*
G01*
X162525000Y-97400000D02*
X161325000Y-97400000D01*
G75*
G02*
X161275000Y-97350000I0J50000D01*
G01*
X161275000Y-96450000D01*
G75*
G02*
X161325000Y-96400000I50000J0D01*
G01*
X162525000Y-96400000D01*
G75*
G02*
X162575000Y-96450000I0J-50000D01*
G01*
X162575000Y-97350000D01*
G75*
G02*
X162525000Y-97400000I-50000J0D01*
G01*
G37*
G04 #@! TD*
G04 #@! TO.C,D33*
G36*
G01*
X143475000Y-94100000D02*
X142275000Y-94100000D01*
G75*
G02*
X142225000Y-94050000I0J50000D01*
G01*
X142225000Y-93150000D01*
G75*
G02*
X142275000Y-93100000I50000J0D01*
G01*
X143475000Y-93100000D01*
G75*
G02*
X143525000Y-93150000I0J-50000D01*
G01*
X143525000Y-94050000D01*
G75*
G02*
X143475000Y-94100000I-50000J0D01*
G01*
G37*
G36*
G01*
X143475000Y-97400000D02*
X142275000Y-97400000D01*
G75*
G02*
X142225000Y-97350000I0J50000D01*
G01*
X142225000Y-96450000D01*
G75*
G02*
X142275000Y-96400000I50000J0D01*
G01*
X143475000Y-96400000D01*
G75*
G02*
X143525000Y-96450000I0J-50000D01*
G01*
X143525000Y-97350000D01*
G75*
G02*
X143475000Y-97400000I-50000J0D01*
G01*
G37*
G04 #@! TD*
G04 #@! TO.C,D32*
G36*
G01*
X124425000Y-94100000D02*
X123225000Y-94100000D01*
G75*
G02*
X123175000Y-94050000I0J50000D01*
G01*
X123175000Y-93150000D01*
G75*
G02*
X123225000Y-93100000I50000J0D01*
G01*
X124425000Y-93100000D01*
G75*
G02*
X124475000Y-93150000I0J-50000D01*
G01*
X124475000Y-94050000D01*
G75*
G02*
X124425000Y-94100000I-50000J0D01*
G01*
G37*
G36*
G01*
X124425000Y-97400000D02*
X123225000Y-97400000D01*
G75*
G02*
X123175000Y-97350000I0J50000D01*
G01*
X123175000Y-96450000D01*
G75*
G02*
X123225000Y-96400000I50000J0D01*
G01*
X124425000Y-96400000D01*
G75*
G02*
X124475000Y-96450000I0J-50000D01*
G01*
X124475000Y-97350000D01*
G75*
G02*
X124425000Y-97400000I-50000J0D01*
G01*
G37*
G04 #@! TD*
G04 #@! TO.C,D31*
G36*
G01*
X105375000Y-94100000D02*
X104175000Y-94100000D01*
G75*
G02*
X104125000Y-94050000I0J50000D01*
G01*
X104125000Y-93150000D01*
G75*
G02*
X104175000Y-93100000I50000J0D01*
G01*
X105375000Y-93100000D01*
G75*
G02*
X105425000Y-93150000I0J-50000D01*
G01*
X105425000Y-94050000D01*
G75*
G02*
X105375000Y-94100000I-50000J0D01*
G01*
G37*
G36*
G01*
X105375000Y-97400000D02*
X104175000Y-97400000D01*
G75*
G02*
X104125000Y-97350000I0J50000D01*
G01*
X104125000Y-96450000D01*
G75*
G02*
X104175000Y-96400000I50000J0D01*
G01*
X105375000Y-96400000D01*
G75*
G02*
X105425000Y-96450000I0J-50000D01*
G01*
X105425000Y-97350000D01*
G75*
G02*
X105375000Y-97400000I-50000J0D01*
G01*
G37*
G04 #@! TD*
G04 #@! TO.C,D30*
G36*
G01*
X86325000Y-94100000D02*
X85125000Y-94100000D01*
G75*
G02*
X85075000Y-94050000I0J50000D01*
G01*
X85075000Y-93150000D01*
G75*
G02*
X85125000Y-93100000I50000J0D01*
G01*
X86325000Y-93100000D01*
G75*
G02*
X86375000Y-93150000I0J-50000D01*
G01*
X86375000Y-94050000D01*
G75*
G02*
X86325000Y-94100000I-50000J0D01*
G01*
G37*
G36*
G01*
X86325000Y-97400000D02*
X85125000Y-97400000D01*
G75*
G02*
X85075000Y-97350000I0J50000D01*
G01*
X85075000Y-96450000D01*
G75*
G02*
X85125000Y-96400000I50000J0D01*
G01*
X86325000Y-96400000D01*
G75*
G02*
X86375000Y-96450000I0J-50000D01*
G01*
X86375000Y-97350000D01*
G75*
G02*
X86325000Y-97400000I-50000J0D01*
G01*
G37*
G04 #@! TD*
G04 #@! TO.C,D29*
G36*
G01*
X67275000Y-94100000D02*
X66075000Y-94100000D01*
G75*
G02*
X66025000Y-94050000I0J50000D01*
G01*
X66025000Y-93150000D01*
G75*
G02*
X66075000Y-93100000I50000J0D01*
G01*
X67275000Y-93100000D01*
G75*
G02*
X67325000Y-93150000I0J-50000D01*
G01*
X67325000Y-94050000D01*
G75*
G02*
X67275000Y-94100000I-50000J0D01*
G01*
G37*
G36*
G01*
X67275000Y-97400000D02*
X66075000Y-97400000D01*
G75*
G02*
X66025000Y-97350000I0J50000D01*
G01*
X66025000Y-96450000D01*
G75*
G02*
X66075000Y-96400000I50000J0D01*
G01*
X67275000Y-96400000D01*
G75*
G02*
X67325000Y-96450000I0J-50000D01*
G01*
X67325000Y-97350000D01*
G75*
G02*
X67275000Y-97400000I-50000J0D01*
G01*
G37*
G04 #@! TD*
G04 #@! TO.C,D28*
G36*
G01*
X25100000Y-94100000D02*
X23900000Y-94100000D01*
G75*
G02*
X23850000Y-94050000I0J50000D01*
G01*
X23850000Y-93150000D01*
G75*
G02*
X23900000Y-93100000I50000J0D01*
G01*
X25100000Y-93100000D01*
G75*
G02*
X25150000Y-93150000I0J-50000D01*
G01*
X25150000Y-94050000D01*
G75*
G02*
X25100000Y-94100000I-50000J0D01*
G01*
G37*
G36*
G01*
X25100000Y-97400000D02*
X23900000Y-97400000D01*
G75*
G02*
X23850000Y-97350000I0J50000D01*
G01*
X23850000Y-96450000D01*
G75*
G02*
X23900000Y-96400000I50000J0D01*
G01*
X25100000Y-96400000D01*
G75*
G02*
X25150000Y-96450000I0J-50000D01*
G01*
X25150000Y-97350000D01*
G75*
G02*
X25100000Y-97400000I-50000J0D01*
G01*
G37*
G04 #@! TD*
G04 #@! TO.C,D27*
G36*
G01*
X274443750Y-75050000D02*
X273243750Y-75050000D01*
G75*
G02*
X273193750Y-75000000I0J50000D01*
G01*
X273193750Y-74100000D01*
G75*
G02*
X273243750Y-74050000I50000J0D01*
G01*
X274443750Y-74050000D01*
G75*
G02*
X274493750Y-74100000I0J-50000D01*
G01*
X274493750Y-75000000D01*
G75*
G02*
X274443750Y-75050000I-50000J0D01*
G01*
G37*
G36*
G01*
X274443750Y-78350000D02*
X273243750Y-78350000D01*
G75*
G02*
X273193750Y-78300000I0J50000D01*
G01*
X273193750Y-77400000D01*
G75*
G02*
X273243750Y-77350000I50000J0D01*
G01*
X274443750Y-77350000D01*
G75*
G02*
X274493750Y-77400000I0J-50000D01*
G01*
X274493750Y-78300000D01*
G75*
G02*
X274443750Y-78350000I-50000J0D01*
G01*
G37*
G04 #@! TD*
G04 #@! TO.C,D26*
G36*
G01*
X248250000Y-75050000D02*
X247050000Y-75050000D01*
G75*
G02*
X247000000Y-75000000I0J50000D01*
G01*
X247000000Y-74100000D01*
G75*
G02*
X247050000Y-74050000I50000J0D01*
G01*
X248250000Y-74050000D01*
G75*
G02*
X248300000Y-74100000I0J-50000D01*
G01*
X248300000Y-75000000D01*
G75*
G02*
X248250000Y-75050000I-50000J0D01*
G01*
G37*
G36*
G01*
X248250000Y-78350000D02*
X247050000Y-78350000D01*
G75*
G02*
X247000000Y-78300000I0J50000D01*
G01*
X247000000Y-77400000D01*
G75*
G02*
X247050000Y-77350000I50000J0D01*
G01*
X248250000Y-77350000D01*
G75*
G02*
X248300000Y-77400000I0J-50000D01*
G01*
X248300000Y-78300000D01*
G75*
G02*
X248250000Y-78350000I-50000J0D01*
G01*
G37*
G04 #@! TD*
G04 #@! TO.C,D25*
G36*
G01*
X229200000Y-75050000D02*
X228000000Y-75050000D01*
G75*
G02*
X227950000Y-75000000I0J50000D01*
G01*
X227950000Y-74100000D01*
G75*
G02*
X228000000Y-74050000I50000J0D01*
G01*
X229200000Y-74050000D01*
G75*
G02*
X229250000Y-74100000I0J-50000D01*
G01*
X229250000Y-75000000D01*
G75*
G02*
X229200000Y-75050000I-50000J0D01*
G01*
G37*
G36*
G01*
X229200000Y-78350000D02*
X228000000Y-78350000D01*
G75*
G02*
X227950000Y-78300000I0J50000D01*
G01*
X227950000Y-77400000D01*
G75*
G02*
X228000000Y-77350000I50000J0D01*
G01*
X229200000Y-77350000D01*
G75*
G02*
X229250000Y-77400000I0J-50000D01*
G01*
X229250000Y-78300000D01*
G75*
G02*
X229200000Y-78350000I-50000J0D01*
G01*
G37*
G04 #@! TD*
G04 #@! TO.C,D24*
G36*
G01*
X210150000Y-75050000D02*
X208950000Y-75050000D01*
G75*
G02*
X208900000Y-75000000I0J50000D01*
G01*
X208900000Y-74100000D01*
G75*
G02*
X208950000Y-74050000I50000J0D01*
G01*
X210150000Y-74050000D01*
G75*
G02*
X210200000Y-74100000I0J-50000D01*
G01*
X210200000Y-75000000D01*
G75*
G02*
X210150000Y-75050000I-50000J0D01*
G01*
G37*
G36*
G01*
X210150000Y-78350000D02*
X208950000Y-78350000D01*
G75*
G02*
X208900000Y-78300000I0J50000D01*
G01*
X208900000Y-77400000D01*
G75*
G02*
X208950000Y-77350000I50000J0D01*
G01*
X210150000Y-77350000D01*
G75*
G02*
X210200000Y-77400000I0J-50000D01*
G01*
X210200000Y-78300000D01*
G75*
G02*
X210150000Y-78350000I-50000J0D01*
G01*
G37*
G04 #@! TD*
G04 #@! TO.C,D23*
G36*
G01*
X191100000Y-75050000D02*
X189900000Y-75050000D01*
G75*
G02*
X189850000Y-75000000I0J50000D01*
G01*
X189850000Y-74100000D01*
G75*
G02*
X189900000Y-74050000I50000J0D01*
G01*
X191100000Y-74050000D01*
G75*
G02*
X191150000Y-74100000I0J-50000D01*
G01*
X191150000Y-75000000D01*
G75*
G02*
X191100000Y-75050000I-50000J0D01*
G01*
G37*
G36*
G01*
X191100000Y-78350000D02*
X189900000Y-78350000D01*
G75*
G02*
X189850000Y-78300000I0J50000D01*
G01*
X189850000Y-77400000D01*
G75*
G02*
X189900000Y-77350000I50000J0D01*
G01*
X191100000Y-77350000D01*
G75*
G02*
X191150000Y-77400000I0J-50000D01*
G01*
X191150000Y-78300000D01*
G75*
G02*
X191100000Y-78350000I-50000J0D01*
G01*
G37*
G04 #@! TD*
G04 #@! TO.C,D22*
G36*
G01*
X172050000Y-75050000D02*
X170850000Y-75050000D01*
G75*
G02*
X170800000Y-75000000I0J50000D01*
G01*
X170800000Y-74100000D01*
G75*
G02*
X170850000Y-74050000I50000J0D01*
G01*
X172050000Y-74050000D01*
G75*
G02*
X172100000Y-74100000I0J-50000D01*
G01*
X172100000Y-75000000D01*
G75*
G02*
X172050000Y-75050000I-50000J0D01*
G01*
G37*
G36*
G01*
X172050000Y-78350000D02*
X170850000Y-78350000D01*
G75*
G02*
X170800000Y-78300000I0J50000D01*
G01*
X170800000Y-77400000D01*
G75*
G02*
X170850000Y-77350000I50000J0D01*
G01*
X172050000Y-77350000D01*
G75*
G02*
X172100000Y-77400000I0J-50000D01*
G01*
X172100000Y-78300000D01*
G75*
G02*
X172050000Y-78350000I-50000J0D01*
G01*
G37*
G04 #@! TD*
G04 #@! TO.C,D21*
G36*
G01*
X153000000Y-75050000D02*
X151800000Y-75050000D01*
G75*
G02*
X151750000Y-75000000I0J50000D01*
G01*
X151750000Y-74100000D01*
G75*
G02*
X151800000Y-74050000I50000J0D01*
G01*
X153000000Y-74050000D01*
G75*
G02*
X153050000Y-74100000I0J-50000D01*
G01*
X153050000Y-75000000D01*
G75*
G02*
X153000000Y-75050000I-50000J0D01*
G01*
G37*
G36*
G01*
X153000000Y-78350000D02*
X151800000Y-78350000D01*
G75*
G02*
X151750000Y-78300000I0J50000D01*
G01*
X151750000Y-77400000D01*
G75*
G02*
X151800000Y-77350000I50000J0D01*
G01*
X153000000Y-77350000D01*
G75*
G02*
X153050000Y-77400000I0J-50000D01*
G01*
X153050000Y-78300000D01*
G75*
G02*
X153000000Y-78350000I-50000J0D01*
G01*
G37*
G04 #@! TD*
G04 #@! TO.C,D20*
G36*
G01*
X133950000Y-75050000D02*
X132750000Y-75050000D01*
G75*
G02*
X132700000Y-75000000I0J50000D01*
G01*
X132700000Y-74100000D01*
G75*
G02*
X132750000Y-74050000I50000J0D01*
G01*
X133950000Y-74050000D01*
G75*
G02*
X134000000Y-74100000I0J-50000D01*
G01*
X134000000Y-75000000D01*
G75*
G02*
X133950000Y-75050000I-50000J0D01*
G01*
G37*
G36*
G01*
X133950000Y-78350000D02*
X132750000Y-78350000D01*
G75*
G02*
X132700000Y-78300000I0J50000D01*
G01*
X132700000Y-77400000D01*
G75*
G02*
X132750000Y-77350000I50000J0D01*
G01*
X133950000Y-77350000D01*
G75*
G02*
X134000000Y-77400000I0J-50000D01*
G01*
X134000000Y-78300000D01*
G75*
G02*
X133950000Y-78350000I-50000J0D01*
G01*
G37*
G04 #@! TD*
G04 #@! TO.C,D19*
G36*
G01*
X114900000Y-75050000D02*
X113700000Y-75050000D01*
G75*
G02*
X113650000Y-75000000I0J50000D01*
G01*
X113650000Y-74100000D01*
G75*
G02*
X113700000Y-74050000I50000J0D01*
G01*
X114900000Y-74050000D01*
G75*
G02*
X114950000Y-74100000I0J-50000D01*
G01*
X114950000Y-75000000D01*
G75*
G02*
X114900000Y-75050000I-50000J0D01*
G01*
G37*
G36*
G01*
X114900000Y-78350000D02*
X113700000Y-78350000D01*
G75*
G02*
X113650000Y-78300000I0J50000D01*
G01*
X113650000Y-77400000D01*
G75*
G02*
X113700000Y-77350000I50000J0D01*
G01*
X114900000Y-77350000D01*
G75*
G02*
X114950000Y-77400000I0J-50000D01*
G01*
X114950000Y-78300000D01*
G75*
G02*
X114900000Y-78350000I-50000J0D01*
G01*
G37*
G04 #@! TD*
G04 #@! TO.C,D18*
G36*
G01*
X95850000Y-75050000D02*
X94650000Y-75050000D01*
G75*
G02*
X94600000Y-75000000I0J50000D01*
G01*
X94600000Y-74100000D01*
G75*
G02*
X94650000Y-74050000I50000J0D01*
G01*
X95850000Y-74050000D01*
G75*
G02*
X95900000Y-74100000I0J-50000D01*
G01*
X95900000Y-75000000D01*
G75*
G02*
X95850000Y-75050000I-50000J0D01*
G01*
G37*
G36*
G01*
X95850000Y-78350000D02*
X94650000Y-78350000D01*
G75*
G02*
X94600000Y-78300000I0J50000D01*
G01*
X94600000Y-77400000D01*
G75*
G02*
X94650000Y-77350000I50000J0D01*
G01*
X95850000Y-77350000D01*
G75*
G02*
X95900000Y-77400000I0J-50000D01*
G01*
X95900000Y-78300000D01*
G75*
G02*
X95850000Y-78350000I-50000J0D01*
G01*
G37*
G04 #@! TD*
G04 #@! TO.C,D17*
G36*
G01*
X76800000Y-75050000D02*
X75600000Y-75050000D01*
G75*
G02*
X75550000Y-75000000I0J50000D01*
G01*
X75550000Y-74100000D01*
G75*
G02*
X75600000Y-74050000I50000J0D01*
G01*
X76800000Y-74050000D01*
G75*
G02*
X76850000Y-74100000I0J-50000D01*
G01*
X76850000Y-75000000D01*
G75*
G02*
X76800000Y-75050000I-50000J0D01*
G01*
G37*
G36*
G01*
X76800000Y-78350000D02*
X75600000Y-78350000D01*
G75*
G02*
X75550000Y-78300000I0J50000D01*
G01*
X75550000Y-77400000D01*
G75*
G02*
X75600000Y-77350000I50000J0D01*
G01*
X76800000Y-77350000D01*
G75*
G02*
X76850000Y-77400000I0J-50000D01*
G01*
X76850000Y-78300000D01*
G75*
G02*
X76800000Y-78350000I-50000J0D01*
G01*
G37*
G04 #@! TD*
G04 #@! TO.C,D16*
G36*
G01*
X57750000Y-75050000D02*
X56550000Y-75050000D01*
G75*
G02*
X56500000Y-75000000I0J50000D01*
G01*
X56500000Y-74100000D01*
G75*
G02*
X56550000Y-74050000I50000J0D01*
G01*
X57750000Y-74050000D01*
G75*
G02*
X57800000Y-74100000I0J-50000D01*
G01*
X57800000Y-75000000D01*
G75*
G02*
X57750000Y-75050000I-50000J0D01*
G01*
G37*
G36*
G01*
X57750000Y-78350000D02*
X56550000Y-78350000D01*
G75*
G02*
X56500000Y-78300000I0J50000D01*
G01*
X56500000Y-77400000D01*
G75*
G02*
X56550000Y-77350000I50000J0D01*
G01*
X57750000Y-77350000D01*
G75*
G02*
X57800000Y-77400000I0J-50000D01*
G01*
X57800000Y-78300000D01*
G75*
G02*
X57750000Y-78350000I-50000J0D01*
G01*
G37*
G04 #@! TD*
G04 #@! TO.C,D15*
G36*
G01*
X36318750Y-75050000D02*
X35118750Y-75050000D01*
G75*
G02*
X35068750Y-75000000I0J50000D01*
G01*
X35068750Y-74100000D01*
G75*
G02*
X35118750Y-74050000I50000J0D01*
G01*
X36318750Y-74050000D01*
G75*
G02*
X36368750Y-74100000I0J-50000D01*
G01*
X36368750Y-75000000D01*
G75*
G02*
X36318750Y-75050000I-50000J0D01*
G01*
G37*
G36*
G01*
X36318750Y-78350000D02*
X35118750Y-78350000D01*
G75*
G02*
X35068750Y-78300000I0J50000D01*
G01*
X35068750Y-77400000D01*
G75*
G02*
X35118750Y-77350000I50000J0D01*
G01*
X36318750Y-77350000D01*
G75*
G02*
X36368750Y-77400000I0J-50000D01*
G01*
X36368750Y-78300000D01*
G75*
G02*
X36318750Y-78350000I-50000J0D01*
G01*
G37*
G04 #@! TD*
G04 #@! TO.C,D14*
G36*
G01*
X281587500Y-56000000D02*
X280387500Y-56000000D01*
G75*
G02*
X280337500Y-55950000I0J50000D01*
G01*
X280337500Y-55050000D01*
G75*
G02*
X280387500Y-55000000I50000J0D01*
G01*
X281587500Y-55000000D01*
G75*
G02*
X281637500Y-55050000I0J-50000D01*
G01*
X281637500Y-55950000D01*
G75*
G02*
X281587500Y-56000000I-50000J0D01*
G01*
G37*
G36*
G01*
X281587500Y-59300000D02*
X280387500Y-59300000D01*
G75*
G02*
X280337500Y-59250000I0J50000D01*
G01*
X280337500Y-58350000D01*
G75*
G02*
X280387500Y-58300000I50000J0D01*
G01*
X281587500Y-58300000D01*
G75*
G02*
X281637500Y-58350000I0J-50000D01*
G01*
X281637500Y-59250000D01*
G75*
G02*
X281587500Y-59300000I-50000J0D01*
G01*
G37*
G04 #@! TD*
G04 #@! TO.C,D13*
G36*
G01*
X262537500Y-56000000D02*
X261337500Y-56000000D01*
G75*
G02*
X261287500Y-55950000I0J50000D01*
G01*
X261287500Y-55050000D01*
G75*
G02*
X261337500Y-55000000I50000J0D01*
G01*
X262537500Y-55000000D01*
G75*
G02*
X262587500Y-55050000I0J-50000D01*
G01*
X262587500Y-55950000D01*
G75*
G02*
X262537500Y-56000000I-50000J0D01*
G01*
G37*
G36*
G01*
X262537500Y-59300000D02*
X261337500Y-59300000D01*
G75*
G02*
X261287500Y-59250000I0J50000D01*
G01*
X261287500Y-58350000D01*
G75*
G02*
X261337500Y-58300000I50000J0D01*
G01*
X262537500Y-58300000D01*
G75*
G02*
X262587500Y-58350000I0J-50000D01*
G01*
X262587500Y-59250000D01*
G75*
G02*
X262537500Y-59300000I-50000J0D01*
G01*
G37*
G04 #@! TD*
G04 #@! TO.C,D12*
G36*
G01*
X243487500Y-56000000D02*
X242287500Y-56000000D01*
G75*
G02*
X242237500Y-55950000I0J50000D01*
G01*
X242237500Y-55050000D01*
G75*
G02*
X242287500Y-55000000I50000J0D01*
G01*
X243487500Y-55000000D01*
G75*
G02*
X243537500Y-55050000I0J-50000D01*
G01*
X243537500Y-55950000D01*
G75*
G02*
X243487500Y-56000000I-50000J0D01*
G01*
G37*
G36*
G01*
X243487500Y-59300000D02*
X242287500Y-59300000D01*
G75*
G02*
X242237500Y-59250000I0J50000D01*
G01*
X242237500Y-58350000D01*
G75*
G02*
X242287500Y-58300000I50000J0D01*
G01*
X243487500Y-58300000D01*
G75*
G02*
X243537500Y-58350000I0J-50000D01*
G01*
X243537500Y-59250000D01*
G75*
G02*
X243487500Y-59300000I-50000J0D01*
G01*
G37*
G04 #@! TD*
G04 #@! TO.C,D11*
G36*
G01*
X224437500Y-56000000D02*
X223237500Y-56000000D01*
G75*
G02*
X223187500Y-55950000I0J50000D01*
G01*
X223187500Y-55050000D01*
G75*
G02*
X223237500Y-55000000I50000J0D01*
G01*
X224437500Y-55000000D01*
G75*
G02*
X224487500Y-55050000I0J-50000D01*
G01*
X224487500Y-55950000D01*
G75*
G02*
X224437500Y-56000000I-50000J0D01*
G01*
G37*
G36*
G01*
X224437500Y-59300000D02*
X223237500Y-59300000D01*
G75*
G02*
X223187500Y-59250000I0J50000D01*
G01*
X223187500Y-58350000D01*
G75*
G02*
X223237500Y-58300000I50000J0D01*
G01*
X224437500Y-58300000D01*
G75*
G02*
X224487500Y-58350000I0J-50000D01*
G01*
X224487500Y-59250000D01*
G75*
G02*
X224437500Y-59300000I-50000J0D01*
G01*
G37*
G04 #@! TD*
G04 #@! TO.C,D10*
G36*
G01*
X205387500Y-56000000D02*
X204187500Y-56000000D01*
G75*
G02*
X204137500Y-55950000I0J50000D01*
G01*
X204137500Y-55050000D01*
G75*
G02*
X204187500Y-55000000I50000J0D01*
G01*
X205387500Y-55000000D01*
G75*
G02*
X205437500Y-55050000I0J-50000D01*
G01*
X205437500Y-55950000D01*
G75*
G02*
X205387500Y-56000000I-50000J0D01*
G01*
G37*
G36*
G01*
X205387500Y-59300000D02*
X204187500Y-59300000D01*
G75*
G02*
X204137500Y-59250000I0J50000D01*
G01*
X204137500Y-58350000D01*
G75*
G02*
X204187500Y-58300000I50000J0D01*
G01*
X205387500Y-58300000D01*
G75*
G02*
X205437500Y-58350000I0J-50000D01*
G01*
X205437500Y-59250000D01*
G75*
G02*
X205387500Y-59300000I-50000J0D01*
G01*
G37*
G04 #@! TD*
G04 #@! TO.C,D9*
G36*
G01*
X186337500Y-56000000D02*
X185137500Y-56000000D01*
G75*
G02*
X185087500Y-55950000I0J50000D01*
G01*
X185087500Y-55050000D01*
G75*
G02*
X185137500Y-55000000I50000J0D01*
G01*
X186337500Y-55000000D01*
G75*
G02*
X186387500Y-55050000I0J-50000D01*
G01*
X186387500Y-55950000D01*
G75*
G02*
X186337500Y-56000000I-50000J0D01*
G01*
G37*
G36*
G01*
X186337500Y-59300000D02*
X185137500Y-59300000D01*
G75*
G02*
X185087500Y-59250000I0J50000D01*
G01*
X185087500Y-58350000D01*
G75*
G02*
X185137500Y-58300000I50000J0D01*
G01*
X186337500Y-58300000D01*
G75*
G02*
X186387500Y-58350000I0J-50000D01*
G01*
X186387500Y-59250000D01*
G75*
G02*
X186337500Y-59300000I-50000J0D01*
G01*
G37*
G04 #@! TD*
G04 #@! TO.C,D8*
G36*
G01*
X167287500Y-56000000D02*
X166087500Y-56000000D01*
G75*
G02*
X166037500Y-55950000I0J50000D01*
G01*
X166037500Y-55050000D01*
G75*
G02*
X166087500Y-55000000I50000J0D01*
G01*
X167287500Y-55000000D01*
G75*
G02*
X167337500Y-55050000I0J-50000D01*
G01*
X167337500Y-55950000D01*
G75*
G02*
X167287500Y-56000000I-50000J0D01*
G01*
G37*
G36*
G01*
X167287500Y-59300000D02*
X166087500Y-59300000D01*
G75*
G02*
X166037500Y-59250000I0J50000D01*
G01*
X166037500Y-58350000D01*
G75*
G02*
X166087500Y-58300000I50000J0D01*
G01*
X167287500Y-58300000D01*
G75*
G02*
X167337500Y-58350000I0J-50000D01*
G01*
X167337500Y-59250000D01*
G75*
G02*
X167287500Y-59300000I-50000J0D01*
G01*
G37*
G04 #@! TD*
G04 #@! TO.C,D7*
G36*
G01*
X148237500Y-56000000D02*
X147037500Y-56000000D01*
G75*
G02*
X146987500Y-55950000I0J50000D01*
G01*
X146987500Y-55050000D01*
G75*
G02*
X147037500Y-55000000I50000J0D01*
G01*
X148237500Y-55000000D01*
G75*
G02*
X148287500Y-55050000I0J-50000D01*
G01*
X148287500Y-55950000D01*
G75*
G02*
X148237500Y-56000000I-50000J0D01*
G01*
G37*
G36*
G01*
X148237500Y-59300000D02*
X147037500Y-59300000D01*
G75*
G02*
X146987500Y-59250000I0J50000D01*
G01*
X146987500Y-58350000D01*
G75*
G02*
X147037500Y-58300000I50000J0D01*
G01*
X148237500Y-58300000D01*
G75*
G02*
X148287500Y-58350000I0J-50000D01*
G01*
X148287500Y-59250000D01*
G75*
G02*
X148237500Y-59300000I-50000J0D01*
G01*
G37*
G04 #@! TD*
G04 #@! TO.C,D6*
G36*
G01*
X129187500Y-56000000D02*
X127987500Y-56000000D01*
G75*
G02*
X127937500Y-55950000I0J50000D01*
G01*
X127937500Y-55050000D01*
G75*
G02*
X127987500Y-55000000I50000J0D01*
G01*
X129187500Y-55000000D01*
G75*
G02*
X129237500Y-55050000I0J-50000D01*
G01*
X129237500Y-55950000D01*
G75*
G02*
X129187500Y-56000000I-50000J0D01*
G01*
G37*
G36*
G01*
X129187500Y-59300000D02*
X127987500Y-59300000D01*
G75*
G02*
X127937500Y-59250000I0J50000D01*
G01*
X127937500Y-58350000D01*
G75*
G02*
X127987500Y-58300000I50000J0D01*
G01*
X129187500Y-58300000D01*
G75*
G02*
X129237500Y-58350000I0J-50000D01*
G01*
X129237500Y-59250000D01*
G75*
G02*
X129187500Y-59300000I-50000J0D01*
G01*
G37*
G04 #@! TD*
G04 #@! TO.C,D5*
G36*
G01*
X110137500Y-56000000D02*
X108937500Y-56000000D01*
G75*
G02*
X108887500Y-55950000I0J50000D01*
G01*
X108887500Y-55050000D01*
G75*
G02*
X108937500Y-55000000I50000J0D01*
G01*
X110137500Y-55000000D01*
G75*
G02*
X110187500Y-55050000I0J-50000D01*
G01*
X110187500Y-55950000D01*
G75*
G02*
X110137500Y-56000000I-50000J0D01*
G01*
G37*
G36*
G01*
X110137500Y-59300000D02*
X108937500Y-59300000D01*
G75*
G02*
X108887500Y-59250000I0J50000D01*
G01*
X108887500Y-58350000D01*
G75*
G02*
X108937500Y-58300000I50000J0D01*
G01*
X110137500Y-58300000D01*
G75*
G02*
X110187500Y-58350000I0J-50000D01*
G01*
X110187500Y-59250000D01*
G75*
G02*
X110137500Y-59300000I-50000J0D01*
G01*
G37*
G04 #@! TD*
G04 #@! TO.C,D4*
G36*
G01*
X91087500Y-56000000D02*
X89887500Y-56000000D01*
G75*
G02*
X89837500Y-55950000I0J50000D01*
G01*
X89837500Y-55050000D01*
G75*
G02*
X89887500Y-55000000I50000J0D01*
G01*
X91087500Y-55000000D01*
G75*
G02*
X91137500Y-55050000I0J-50000D01*
G01*
X91137500Y-55950000D01*
G75*
G02*
X91087500Y-56000000I-50000J0D01*
G01*
G37*
G36*
G01*
X91087500Y-59300000D02*
X89887500Y-59300000D01*
G75*
G02*
X89837500Y-59250000I0J50000D01*
G01*
X89837500Y-58350000D01*
G75*
G02*
X89887500Y-58300000I50000J0D01*
G01*
X91087500Y-58300000D01*
G75*
G02*
X91137500Y-58350000I0J-50000D01*
G01*
X91137500Y-59250000D01*
G75*
G02*
X91087500Y-59300000I-50000J0D01*
G01*
G37*
G04 #@! TD*
G04 #@! TO.C,D3*
G36*
G01*
X72037500Y-56000000D02*
X70837500Y-56000000D01*
G75*
G02*
X70787500Y-55950000I0J50000D01*
G01*
X70787500Y-55050000D01*
G75*
G02*
X70837500Y-55000000I50000J0D01*
G01*
X72037500Y-55000000D01*
G75*
G02*
X72087500Y-55050000I0J-50000D01*
G01*
X72087500Y-55950000D01*
G75*
G02*
X72037500Y-56000000I-50000J0D01*
G01*
G37*
G36*
G01*
X72037500Y-59300000D02*
X70837500Y-59300000D01*
G75*
G02*
X70787500Y-59250000I0J50000D01*
G01*
X70787500Y-58350000D01*
G75*
G02*
X70837500Y-58300000I50000J0D01*
G01*
X72037500Y-58300000D01*
G75*
G02*
X72087500Y-58350000I0J-50000D01*
G01*
X72087500Y-59250000D01*
G75*
G02*
X72037500Y-59300000I-50000J0D01*
G01*
G37*
G04 #@! TD*
G04 #@! TO.C,D2*
G36*
G01*
X52987500Y-56000000D02*
X51787500Y-56000000D01*
G75*
G02*
X51737500Y-55950000I0J50000D01*
G01*
X51737500Y-55050000D01*
G75*
G02*
X51787500Y-55000000I50000J0D01*
G01*
X52987500Y-55000000D01*
G75*
G02*
X53037500Y-55050000I0J-50000D01*
G01*
X53037500Y-55950000D01*
G75*
G02*
X52987500Y-56000000I-50000J0D01*
G01*
G37*
G36*
G01*
X52987500Y-59300000D02*
X51787500Y-59300000D01*
G75*
G02*
X51737500Y-59250000I0J50000D01*
G01*
X51737500Y-58350000D01*
G75*
G02*
X51787500Y-58300000I50000J0D01*
G01*
X52987500Y-58300000D01*
G75*
G02*
X53037500Y-58350000I0J-50000D01*
G01*
X53037500Y-59250000D01*
G75*
G02*
X52987500Y-59300000I-50000J0D01*
G01*
G37*
G04 #@! TD*
G04 #@! TO.C,D1*
G36*
G01*
X33937500Y-56000000D02*
X32737500Y-56000000D01*
G75*
G02*
X32687500Y-55950000I0J50000D01*
G01*
X32687500Y-55050000D01*
G75*
G02*
X32737500Y-55000000I50000J0D01*
G01*
X33937500Y-55000000D01*
G75*
G02*
X33987500Y-55050000I0J-50000D01*
G01*
X33987500Y-55950000D01*
G75*
G02*
X33937500Y-56000000I-50000J0D01*
G01*
G37*
G36*
G01*
X33937500Y-59300000D02*
X32737500Y-59300000D01*
G75*
G02*
X32687500Y-59250000I0J50000D01*
G01*
X32687500Y-58350000D01*
G75*
G02*
X32737500Y-58300000I50000J0D01*
G01*
X33937500Y-58300000D01*
G75*
G02*
X33987500Y-58350000I0J-50000D01*
G01*
X33987500Y-59250000D01*
G75*
G02*
X33937500Y-59300000I-50000J0D01*
G01*
G37*
G04 #@! TD*
G04 #@! TO.C,C7*
G36*
G01*
X54260000Y-89730000D02*
X54260000Y-88730000D01*
G75*
G02*
X54535000Y-88455000I275000J0D01*
G01*
X55085000Y-88455000D01*
G75*
G02*
X55360000Y-88730000I0J-275000D01*
G01*
X55360000Y-89730000D01*
G75*
G02*
X55085000Y-90005000I-275000J0D01*
G01*
X54535000Y-90005000D01*
G75*
G02*
X54260000Y-89730000I0J275000D01*
G01*
G37*
G36*
G01*
X56160000Y-89730000D02*
X56160000Y-88730000D01*
G75*
G02*
X56435000Y-88455000I275000J0D01*
G01*
X56985000Y-88455000D01*
G75*
G02*
X57260000Y-88730000I0J-275000D01*
G01*
X57260000Y-89730000D01*
G75*
G02*
X56985000Y-90005000I-275000J0D01*
G01*
X56435000Y-90005000D01*
G75*
G02*
X56160000Y-89730000I0J275000D01*
G01*
G37*
G04 #@! TD*
G04 #@! TO.C,C6*
G36*
G01*
X54260000Y-82980000D02*
X54260000Y-81980000D01*
G75*
G02*
X54535000Y-81705000I275000J0D01*
G01*
X55085000Y-81705000D01*
G75*
G02*
X55360000Y-81980000I0J-275000D01*
G01*
X55360000Y-82980000D01*
G75*
G02*
X55085000Y-83255000I-275000J0D01*
G01*
X54535000Y-83255000D01*
G75*
G02*
X54260000Y-82980000I0J275000D01*
G01*
G37*
G36*
G01*
X56160000Y-82980000D02*
X56160000Y-81980000D01*
G75*
G02*
X56435000Y-81705000I275000J0D01*
G01*
X56985000Y-81705000D01*
G75*
G02*
X57260000Y-81980000I0J-275000D01*
G01*
X57260000Y-82980000D01*
G75*
G02*
X56985000Y-83255000I-275000J0D01*
G01*
X56435000Y-83255000D01*
G75*
G02*
X56160000Y-82980000I0J275000D01*
G01*
G37*
G04 #@! TD*
G04 #@! TO.C,C3*
G36*
G01*
X49630000Y-89450000D02*
X50630000Y-89450000D01*
G75*
G02*
X50905000Y-89725000I0J-275000D01*
G01*
X50905000Y-90275000D01*
G75*
G02*
X50630000Y-90550000I-275000J0D01*
G01*
X49630000Y-90550000D01*
G75*
G02*
X49355000Y-90275000I0J275000D01*
G01*
X49355000Y-89725000D01*
G75*
G02*
X49630000Y-89450000I275000J0D01*
G01*
G37*
G36*
G01*
X49630000Y-87550000D02*
X50630000Y-87550000D01*
G75*
G02*
X50905000Y-87825000I0J-275000D01*
G01*
X50905000Y-88375000D01*
G75*
G02*
X50630000Y-88650000I-275000J0D01*
G01*
X49630000Y-88650000D01*
G75*
G02*
X49355000Y-88375000I0J275000D01*
G01*
X49355000Y-87825000D01*
G75*
G02*
X49630000Y-87550000I275000J0D01*
G01*
G37*
G04 #@! TD*
G04 #@! TO.C,C2*
G36*
G01*
X46040000Y-80670000D02*
X46040000Y-79670000D01*
G75*
G02*
X46315000Y-79395000I275000J0D01*
G01*
X46865000Y-79395000D01*
G75*
G02*
X47140000Y-79670000I0J-275000D01*
G01*
X47140000Y-80670000D01*
G75*
G02*
X46865000Y-80945000I-275000J0D01*
G01*
X46315000Y-80945000D01*
G75*
G02*
X46040000Y-80670000I0J275000D01*
G01*
G37*
G36*
G01*
X44140000Y-80670000D02*
X44140000Y-79670000D01*
G75*
G02*
X44415000Y-79395000I275000J0D01*
G01*
X44965000Y-79395000D01*
G75*
G02*
X45240000Y-79670000I0J-275000D01*
G01*
X45240000Y-80670000D01*
G75*
G02*
X44965000Y-80945000I-275000J0D01*
G01*
X44415000Y-80945000D01*
G75*
G02*
X44140000Y-80670000I0J275000D01*
G01*
G37*
G04 #@! TD*
G04 #@! TO.C,C1*
G36*
G01*
X36700000Y-71000000D02*
X35700000Y-71000000D01*
G75*
G02*
X35425000Y-70725000I0J275000D01*
G01*
X35425000Y-70175000D01*
G75*
G02*
X35700000Y-69900000I275000J0D01*
G01*
X36700000Y-69900000D01*
G75*
G02*
X36975000Y-70175000I0J-275000D01*
G01*
X36975000Y-70725000D01*
G75*
G02*
X36700000Y-71000000I-275000J0D01*
G01*
G37*
G36*
G01*
X36700000Y-72900000D02*
X35700000Y-72900000D01*
G75*
G02*
X35425000Y-72625000I0J275000D01*
G01*
X35425000Y-72075000D01*
G75*
G02*
X35700000Y-71800000I275000J0D01*
G01*
X36700000Y-71800000D01*
G75*
G02*
X36975000Y-72075000I0J-275000D01*
G01*
X36975000Y-72625000D01*
G75*
G02*
X36700000Y-72900000I-275000J0D01*
G01*
G37*
G04 #@! TD*
M02*
