G04 #@! TF.GenerationSoftware,KiCad,Pcbnew,5.1.10*
G04 #@! TF.CreationDate,2021-07-09T15:37:11+09:00*
G04 #@! TF.ProjectId,bakeneko40,62616b65-6e65-46b6-9f34-302e6b696361,rev?*
G04 #@! TF.SameCoordinates,Original*
G04 #@! TF.FileFunction,Profile,NP*
%FSLAX46Y46*%
G04 Gerber Fmt 4.6, Leading zero omitted, Abs format (unit mm)*
G04 Created by KiCad (PCBNEW 5.1.10) date 2021-07-09 15:37:11*
%MOMM*%
%LPD*%
G01*
G04 APERTURE LIST*
G04 #@! TA.AperFunction,Profile*
%ADD10C,0.100000*%
G04 #@! TD*
G04 APERTURE END LIST*
D10*
X68612899Y-123799999D02*
X230065645Y-123800000D01*
X279400000Y-123825000D02*
X238312899Y-123799999D01*
X19050000Y-123825000D02*
X60365645Y-123800000D01*
X55294356Y-47650000D02*
X131847101Y-47650000D01*
X243347101Y-47650000D02*
X140094356Y-47650000D01*
X280193750Y-47625000D02*
X251594356Y-47650000D01*
X18256250Y-47625000D02*
X47047101Y-47650000D01*
X231396161Y-122992623D02*
G75*
G02*
X230065645Y-123800000I-1330516J692623D01*
G01*
X238312899Y-123800000D02*
G75*
G02*
X236981822Y-122993548I-1043J1500000D01*
G01*
X231396193Y-122992560D02*
G75*
G02*
X236981822Y-122993548I2792557J-1457440D01*
G01*
X68612899Y-123800000D02*
G75*
G02*
X67281822Y-122993548I-1043J1500000D01*
G01*
X61696161Y-122992623D02*
G75*
G02*
X60365645Y-123800000I-1330516J692623D01*
G01*
X61696193Y-122992560D02*
G75*
G02*
X67281822Y-122993548I2792557J-1457440D01*
G01*
X250263840Y-48457377D02*
G75*
G02*
X251594356Y-47650000I1330516J-692623D01*
G01*
X243347101Y-47650000D02*
G75*
G02*
X244678179Y-48456451I1044J-1500000D01*
G01*
X250263805Y-48457440D02*
G75*
G02*
X244678179Y-48456451I-2792555J1457440D01*
G01*
X138763805Y-48457440D02*
G75*
G02*
X133178179Y-48456451I-2792555J1457440D01*
G01*
X131847101Y-47650000D02*
G75*
G02*
X133178179Y-48456451I1044J-1500000D01*
G01*
X138763840Y-48457377D02*
G75*
G02*
X140094356Y-47650000I1330516J-692623D01*
G01*
X53963840Y-48457377D02*
G75*
G02*
X55294356Y-47650000I1330516J-692623D01*
G01*
X53963805Y-48457440D02*
G75*
G02*
X48378179Y-48456451I-2792555J1457440D01*
G01*
X47047101Y-47650000D02*
G75*
G02*
X48378179Y-48456451I1044J-1500000D01*
G01*
X15875000Y-50006250D02*
X15875000Y-120650000D01*
X19050000Y-123825000D02*
G75*
G02*
X15875000Y-120650000I0J3175000D01*
G01*
X282575000Y-50006250D02*
X282575000Y-120650000D01*
X282575000Y-120650000D02*
G75*
G02*
X279400000Y-123825000I-3175000J0D01*
G01*
X280193750Y-47625000D02*
G75*
G02*
X282575000Y-50006250I0J-2381250D01*
G01*
X15875000Y-50006250D02*
G75*
G02*
X18256250Y-47625000I2381250J0D01*
G01*
M02*
