G04 #@! TF.GenerationSoftware,KiCad,Pcbnew,5.1.10*
G04 #@! TF.CreationDate,2021-07-09T15:37:11+09:00*
G04 #@! TF.ProjectId,bakeneko40,62616b65-6e65-46b6-9f34-302e6b696361,rev?*
G04 #@! TF.SameCoordinates,Original*
G04 #@! TF.FileFunction,Legend,Top*
G04 #@! TF.FilePolarity,Positive*
%FSLAX46Y46*%
G04 Gerber Fmt 4.6, Leading zero omitted, Abs format (unit mm)*
G04 Created by KiCad (PCBNEW 5.1.10) date 2021-07-09 15:37:11*
%MOMM*%
%LPD*%
G01*
G04 APERTURE LIST*
%ADD10C,0.250000*%
%ADD11C,0.150000*%
%ADD12C,4.087800*%
%ADD13C,1.850000*%
%ADD14C,3.148000*%
%ADD15C,1.800000*%
G04 APERTURE END LIST*
D10*
G04 #@! TO.C,J2*
X20205000Y-90960000D02*
X20205000Y-88460000D01*
X25205000Y-90960000D02*
X20205000Y-90960000D01*
X25205000Y-88460000D02*
X25205000Y-90960000D01*
X20205000Y-88460000D02*
X25205000Y-88460000D01*
D11*
X16883571Y-85162380D02*
X16883571Y-84162380D01*
X17216904Y-84876666D01*
X17550238Y-84162380D01*
X17550238Y-85162380D01*
X18026428Y-85162380D02*
X18026428Y-84162380D01*
X18455000Y-85114761D02*
X18597857Y-85162380D01*
X18835952Y-85162380D01*
X18931190Y-85114761D01*
X18978809Y-85067142D01*
X19026428Y-84971904D01*
X19026428Y-84876666D01*
X18978809Y-84781428D01*
X18931190Y-84733809D01*
X18835952Y-84686190D01*
X18645476Y-84638571D01*
X18550238Y-84590952D01*
X18502619Y-84543333D01*
X18455000Y-84448095D01*
X18455000Y-84352857D01*
X18502619Y-84257619D01*
X18550238Y-84210000D01*
X18645476Y-84162380D01*
X18883571Y-84162380D01*
X19026428Y-84210000D01*
X19645476Y-84162380D02*
X19835952Y-84162380D01*
X19931190Y-84210000D01*
X20026428Y-84305238D01*
X20074047Y-84495714D01*
X20074047Y-84829047D01*
X20026428Y-85019523D01*
X19931190Y-85114761D01*
X19835952Y-85162380D01*
X19645476Y-85162380D01*
X19550238Y-85114761D01*
X19455000Y-85019523D01*
X19407380Y-84829047D01*
X19407380Y-84495714D01*
X19455000Y-84305238D01*
X19550238Y-84210000D01*
X19645476Y-84162380D01*
X25371666Y-84162380D02*
X25705000Y-85162380D01*
X26038333Y-84162380D01*
X26943095Y-85067142D02*
X26895476Y-85114761D01*
X26752619Y-85162380D01*
X26657380Y-85162380D01*
X26514523Y-85114761D01*
X26419285Y-85019523D01*
X26371666Y-84924285D01*
X26324047Y-84733809D01*
X26324047Y-84590952D01*
X26371666Y-84400476D01*
X26419285Y-84305238D01*
X26514523Y-84210000D01*
X26657380Y-84162380D01*
X26752619Y-84162380D01*
X26895476Y-84210000D01*
X26943095Y-84257619D01*
X27943095Y-85067142D02*
X27895476Y-85114761D01*
X27752619Y-85162380D01*
X27657380Y-85162380D01*
X27514523Y-85114761D01*
X27419285Y-85019523D01*
X27371666Y-84924285D01*
X27324047Y-84733809D01*
X27324047Y-84590952D01*
X27371666Y-84400476D01*
X27419285Y-84305238D01*
X27514523Y-84210000D01*
X27657380Y-84162380D01*
X27752619Y-84162380D01*
X27895476Y-84210000D01*
X27943095Y-84257619D01*
X17419285Y-87614761D02*
X17562142Y-87662380D01*
X17800238Y-87662380D01*
X17895476Y-87614761D01*
X17943095Y-87567142D01*
X17990714Y-87471904D01*
X17990714Y-87376666D01*
X17943095Y-87281428D01*
X17895476Y-87233809D01*
X17800238Y-87186190D01*
X17609761Y-87138571D01*
X17514523Y-87090952D01*
X17466904Y-87043333D01*
X17419285Y-86948095D01*
X17419285Y-86852857D01*
X17466904Y-86757619D01*
X17514523Y-86710000D01*
X17609761Y-86662380D01*
X17847857Y-86662380D01*
X17990714Y-86710000D01*
X18990714Y-87567142D02*
X18943095Y-87614761D01*
X18800238Y-87662380D01*
X18705000Y-87662380D01*
X18562142Y-87614761D01*
X18466904Y-87519523D01*
X18419285Y-87424285D01*
X18371666Y-87233809D01*
X18371666Y-87090952D01*
X18419285Y-86900476D01*
X18466904Y-86805238D01*
X18562142Y-86710000D01*
X18705000Y-86662380D01*
X18800238Y-86662380D01*
X18943095Y-86710000D01*
X18990714Y-86757619D01*
X19419285Y-87662380D02*
X19419285Y-86662380D01*
X19990714Y-87662380D02*
X19562142Y-87090952D01*
X19990714Y-86662380D02*
X19419285Y-87233809D01*
X25383571Y-87662380D02*
X25383571Y-86662380D01*
X25716904Y-87376666D01*
X26050238Y-86662380D01*
X26050238Y-87662380D01*
X26716904Y-86662380D02*
X26907380Y-86662380D01*
X27002619Y-86710000D01*
X27097857Y-86805238D01*
X27145476Y-86995714D01*
X27145476Y-87329047D01*
X27097857Y-87519523D01*
X27002619Y-87614761D01*
X26907380Y-87662380D01*
X26716904Y-87662380D01*
X26621666Y-87614761D01*
X26526428Y-87519523D01*
X26478809Y-87329047D01*
X26478809Y-86995714D01*
X26526428Y-86805238D01*
X26621666Y-86710000D01*
X26716904Y-86662380D01*
X27526428Y-87614761D02*
X27669285Y-87662380D01*
X27907380Y-87662380D01*
X28002619Y-87614761D01*
X28050238Y-87567142D01*
X28097857Y-87471904D01*
X28097857Y-87376666D01*
X28050238Y-87281428D01*
X28002619Y-87233809D01*
X27907380Y-87186190D01*
X27716904Y-87138571D01*
X27621666Y-87090952D01*
X27574047Y-87043333D01*
X27526428Y-86948095D01*
X27526428Y-86852857D01*
X27574047Y-86757619D01*
X27621666Y-86710000D01*
X27716904Y-86662380D01*
X27955000Y-86662380D01*
X28097857Y-86710000D01*
X28526428Y-87662380D02*
X28526428Y-86662380D01*
X17907380Y-90162380D02*
X17574047Y-89686190D01*
X17335952Y-90162380D02*
X17335952Y-89162380D01*
X17716904Y-89162380D01*
X17812142Y-89210000D01*
X17859761Y-89257619D01*
X17907380Y-89352857D01*
X17907380Y-89495714D01*
X17859761Y-89590952D01*
X17812142Y-89638571D01*
X17716904Y-89686190D01*
X17335952Y-89686190D01*
X18288333Y-90114761D02*
X18431190Y-90162380D01*
X18669285Y-90162380D01*
X18764523Y-90114761D01*
X18812142Y-90067142D01*
X18859761Y-89971904D01*
X18859761Y-89876666D01*
X18812142Y-89781428D01*
X18764523Y-89733809D01*
X18669285Y-89686190D01*
X18478809Y-89638571D01*
X18383571Y-89590952D01*
X18335952Y-89543333D01*
X18288333Y-89448095D01*
X18288333Y-89352857D01*
X18335952Y-89257619D01*
X18383571Y-89210000D01*
X18478809Y-89162380D01*
X18716904Y-89162380D01*
X18859761Y-89210000D01*
X19145476Y-89162380D02*
X19716904Y-89162380D01*
X19431190Y-90162380D02*
X19431190Y-89162380D01*
X26193095Y-89210000D02*
X26097857Y-89162380D01*
X25955000Y-89162380D01*
X25812142Y-89210000D01*
X25716904Y-89305238D01*
X25669285Y-89400476D01*
X25621666Y-89590952D01*
X25621666Y-89733809D01*
X25669285Y-89924285D01*
X25716904Y-90019523D01*
X25812142Y-90114761D01*
X25955000Y-90162380D01*
X26050238Y-90162380D01*
X26193095Y-90114761D01*
X26240714Y-90067142D01*
X26240714Y-89733809D01*
X26050238Y-89733809D01*
X26669285Y-90162380D02*
X26669285Y-89162380D01*
X27240714Y-90162380D01*
X27240714Y-89162380D01*
X27716904Y-90162380D02*
X27716904Y-89162380D01*
X27955000Y-89162380D01*
X28097857Y-89210000D01*
X28193095Y-89305238D01*
X28240714Y-89400476D01*
X28288333Y-89590952D01*
X28288333Y-89733809D01*
X28240714Y-89924285D01*
X28193095Y-90019523D01*
X28097857Y-90114761D01*
X27955000Y-90162380D01*
X27716904Y-90162380D01*
G04 #@! TD*
%LPC*%
D12*
G04 #@! TO.C,MX44*
X113506250Y-114300000D03*
D13*
X108426250Y-114300000D03*
X118586250Y-114300000D03*
D14*
X101600000Y-121285000D03*
X125412500Y-121285000D03*
D12*
X101600000Y-106045000D03*
X125412500Y-106045000D03*
G04 #@! TD*
G04 #@! TO.C,MX43*
X80168750Y-114300000D03*
D13*
X75088750Y-114300000D03*
X85248750Y-114300000D03*
G04 #@! TD*
D12*
G04 #@! TO.C,MX16*
X49212500Y-76200000D03*
D13*
X44132500Y-76200000D03*
X54292500Y-76200000D03*
G04 #@! TD*
D12*
G04 #@! TO.C,MX2*
X44450000Y-57150000D03*
D13*
X39370000Y-57150000D03*
X49530000Y-57150000D03*
G04 #@! TD*
D12*
G04 #@! TO.C,MX29*
X58737500Y-95250000D03*
D13*
X53657500Y-95250000D03*
X63817500Y-95250000D03*
G04 #@! TD*
D12*
G04 #@! TO.C,MX3*
X63500000Y-57150000D03*
D13*
X58420000Y-57150000D03*
X68580000Y-57150000D03*
G04 #@! TD*
D12*
G04 #@! TO.C,MX45*
X161131250Y-114300000D03*
D13*
X156051250Y-114300000D03*
X166211250Y-114300000D03*
D14*
X149225000Y-121285000D03*
X173037500Y-121285000D03*
D12*
X149225000Y-106045000D03*
X173037500Y-106045000D03*
G04 #@! TD*
G04 #@! TO.C,MX35*
X173037500Y-95250000D03*
D13*
X167957500Y-95250000D03*
X178117500Y-95250000D03*
G04 #@! TD*
D12*
G04 #@! TO.C,MX32*
X115887500Y-95250000D03*
D13*
X110807500Y-95250000D03*
X120967500Y-95250000D03*
G04 #@! TD*
D12*
G04 #@! TO.C,MX41*
X27781250Y-114300000D03*
D13*
X22701250Y-114300000D03*
X32861250Y-114300000D03*
G04 #@! TD*
D12*
G04 #@! TO.C,MX49*
X273050000Y-114300000D03*
D13*
X267970000Y-114300000D03*
X278130000Y-114300000D03*
G04 #@! TD*
D12*
G04 #@! TO.C,MX21*
X144462500Y-76200000D03*
D13*
X139382500Y-76200000D03*
X149542500Y-76200000D03*
G04 #@! TD*
D12*
G04 #@! TO.C,MX14*
X273050000Y-57150000D03*
D13*
X267970000Y-57150000D03*
X278130000Y-57150000D03*
G04 #@! TD*
D12*
G04 #@! TO.C,MX30*
X77787500Y-95250000D03*
D13*
X72707500Y-95250000D03*
X82867500Y-95250000D03*
G04 #@! TD*
D12*
G04 #@! TO.C,MX42*
X53975000Y-114300000D03*
D13*
X48895000Y-114300000D03*
X59055000Y-114300000D03*
G04 #@! TD*
D12*
G04 #@! TO.C,MX48*
X251618750Y-114300000D03*
D13*
X246538750Y-114300000D03*
X256698750Y-114300000D03*
G04 #@! TD*
D12*
G04 #@! TO.C,MX47*
X225425000Y-114300000D03*
D13*
X220345000Y-114300000D03*
X230505000Y-114300000D03*
G04 #@! TD*
D12*
G04 #@! TO.C,MX46*
X199231250Y-114300000D03*
D13*
X194151250Y-114300000D03*
X204311250Y-114300000D03*
G04 #@! TD*
D12*
G04 #@! TO.C,MX40*
X273050000Y-95250000D03*
D13*
X267970000Y-95250000D03*
X278130000Y-95250000D03*
G04 #@! TD*
D12*
G04 #@! TO.C,MX39*
X251618750Y-95250000D03*
D13*
X246538750Y-95250000D03*
X256698750Y-95250000D03*
G04 #@! TD*
D12*
G04 #@! TO.C,MX38*
X230187500Y-95250000D03*
D13*
X225107500Y-95250000D03*
X235267500Y-95250000D03*
G04 #@! TD*
D12*
G04 #@! TO.C,MX37*
X211137500Y-95250000D03*
D13*
X206057500Y-95250000D03*
X216217500Y-95250000D03*
G04 #@! TD*
D12*
G04 #@! TO.C,MX36*
X192087500Y-95250000D03*
D13*
X187007500Y-95250000D03*
X197167500Y-95250000D03*
G04 #@! TD*
D12*
G04 #@! TO.C,MX34*
X153987500Y-95250000D03*
D13*
X148907500Y-95250000D03*
X159067500Y-95250000D03*
G04 #@! TD*
D12*
G04 #@! TO.C,MX33*
X134937500Y-95250000D03*
D13*
X129857500Y-95250000D03*
X140017500Y-95250000D03*
G04 #@! TD*
D12*
G04 #@! TO.C,MX31*
X96837500Y-95250000D03*
D13*
X91757500Y-95250000D03*
X101917500Y-95250000D03*
G04 #@! TD*
D12*
G04 #@! TO.C,MX28*
X32543750Y-95250000D03*
D13*
X27463750Y-95250000D03*
X37623750Y-95250000D03*
G04 #@! TD*
D12*
G04 #@! TO.C,MX27*
X265906250Y-76200000D03*
D13*
X260826250Y-76200000D03*
X270986250Y-76200000D03*
G04 #@! TD*
D12*
G04 #@! TO.C,MX26*
X239712500Y-76200000D03*
D13*
X234632500Y-76200000D03*
X244792500Y-76200000D03*
G04 #@! TD*
D12*
G04 #@! TO.C,MX25*
X220662500Y-76200000D03*
D13*
X215582500Y-76200000D03*
X225742500Y-76200000D03*
G04 #@! TD*
D12*
G04 #@! TO.C,MX24*
X201612500Y-76200000D03*
D13*
X196532500Y-76200000D03*
X206692500Y-76200000D03*
G04 #@! TD*
D12*
G04 #@! TO.C,MX23*
X182562500Y-76200000D03*
D13*
X177482500Y-76200000D03*
X187642500Y-76200000D03*
G04 #@! TD*
D12*
G04 #@! TO.C,MX22*
X163512500Y-76200000D03*
D13*
X158432500Y-76200000D03*
X168592500Y-76200000D03*
G04 #@! TD*
D12*
G04 #@! TO.C,MX20*
X125412500Y-76200000D03*
D13*
X120332500Y-76200000D03*
X130492500Y-76200000D03*
G04 #@! TD*
D12*
G04 #@! TO.C,MX19*
X106362500Y-76200000D03*
D13*
X101282500Y-76200000D03*
X111442500Y-76200000D03*
G04 #@! TD*
D12*
G04 #@! TO.C,MX18*
X87312500Y-76200000D03*
D13*
X82232500Y-76200000D03*
X92392500Y-76200000D03*
G04 #@! TD*
D12*
G04 #@! TO.C,MX17*
X68262500Y-76200000D03*
D13*
X63182500Y-76200000D03*
X73342500Y-76200000D03*
G04 #@! TD*
D12*
G04 #@! TO.C,MX15*
X27781250Y-76200000D03*
D13*
X22701250Y-76200000D03*
X32861250Y-76200000D03*
G04 #@! TD*
D12*
G04 #@! TO.C,MX13*
X254000000Y-57150000D03*
D13*
X248920000Y-57150000D03*
X259080000Y-57150000D03*
G04 #@! TD*
D12*
G04 #@! TO.C,MX12*
X234950000Y-57150000D03*
D13*
X229870000Y-57150000D03*
X240030000Y-57150000D03*
G04 #@! TD*
D12*
G04 #@! TO.C,MX11*
X215900000Y-57150000D03*
D13*
X210820000Y-57150000D03*
X220980000Y-57150000D03*
G04 #@! TD*
D12*
G04 #@! TO.C,MX10*
X196850000Y-57150000D03*
D13*
X191770000Y-57150000D03*
X201930000Y-57150000D03*
G04 #@! TD*
D12*
G04 #@! TO.C,MX9*
X177800000Y-57150000D03*
D13*
X172720000Y-57150000D03*
X182880000Y-57150000D03*
G04 #@! TD*
D12*
G04 #@! TO.C,MX8*
X158750000Y-57150000D03*
D13*
X153670000Y-57150000D03*
X163830000Y-57150000D03*
G04 #@! TD*
D12*
G04 #@! TO.C,MX7*
X139700000Y-57150000D03*
D13*
X134620000Y-57150000D03*
X144780000Y-57150000D03*
G04 #@! TD*
D12*
G04 #@! TO.C,MX6*
X120650000Y-57150000D03*
D13*
X115570000Y-57150000D03*
X125730000Y-57150000D03*
G04 #@! TD*
D12*
G04 #@! TO.C,MX5*
X101600000Y-57150000D03*
D13*
X96520000Y-57150000D03*
X106680000Y-57150000D03*
G04 #@! TD*
D12*
G04 #@! TO.C,MX4*
X82550000Y-57150000D03*
D13*
X77470000Y-57150000D03*
X87630000Y-57150000D03*
G04 #@! TD*
D12*
G04 #@! TO.C,MX1*
X25400000Y-57150000D03*
D13*
X20320000Y-57150000D03*
X30480000Y-57150000D03*
G04 #@! TD*
G04 #@! TO.C,J2*
G36*
G01*
X23075000Y-90600000D02*
X23075000Y-88900000D01*
G75*
G02*
X23125000Y-88850000I50000J0D01*
G01*
X24825000Y-88850000D01*
G75*
G02*
X24875000Y-88900000I0J-50000D01*
G01*
X24875000Y-90600000D01*
G75*
G02*
X24825000Y-90650000I-50000J0D01*
G01*
X23125000Y-90650000D01*
G75*
G02*
X23075000Y-90600000I0J50000D01*
G01*
G37*
D15*
X21435000Y-89750000D03*
X23975000Y-87210000D03*
X21435000Y-87210000D03*
X23975000Y-84670000D03*
X21435000Y-84670000D03*
G04 #@! TD*
M02*
