G04 #@! TF.GenerationSoftware,KiCad,Pcbnew,5.1.10*
G04 #@! TF.CreationDate,2021-07-09T15:37:11+09:00*
G04 #@! TF.ProjectId,bakeneko40,62616b65-6e65-46b6-9f34-302e6b696361,rev?*
G04 #@! TF.SameCoordinates,Original*
G04 #@! TF.FileFunction,Soldermask,Bot*
G04 #@! TF.FilePolarity,Negative*
%FSLAX46Y46*%
G04 Gerber Fmt 4.6, Leading zero omitted, Abs format (unit mm)*
G04 Created by KiCad (PCBNEW 5.1.10) date 2021-07-09 15:37:11*
%MOMM*%
%LPD*%
G01*
G04 APERTURE LIST*
%ADD10C,2.350000*%
%ADD11C,4.087800*%
%ADD12C,1.850000*%
%ADD13C,3.148000*%
G04 APERTURE END LIST*
D10*
G04 #@! TO.C,MX44*
X116046250Y-109220000D03*
D11*
X113506250Y-114300000D03*
D10*
X109696250Y-111760000D03*
D12*
X108426250Y-114300000D03*
X118586250Y-114300000D03*
D13*
X101600000Y-121285000D03*
X125412500Y-121285000D03*
D11*
X101600000Y-106045000D03*
X125412500Y-106045000D03*
G04 #@! TD*
D10*
G04 #@! TO.C,MX43*
X82708750Y-109220000D03*
D11*
X80168750Y-114300000D03*
D10*
X76358750Y-111760000D03*
D12*
X75088750Y-114300000D03*
X85248750Y-114300000D03*
G04 #@! TD*
D10*
G04 #@! TO.C,MX16*
X51752500Y-71120000D03*
D11*
X49212500Y-76200000D03*
D10*
X45402500Y-73660000D03*
D12*
X44132500Y-76200000D03*
X54292500Y-76200000D03*
G04 #@! TD*
D10*
G04 #@! TO.C,MX2*
X46990000Y-52070000D03*
D11*
X44450000Y-57150000D03*
D10*
X40640000Y-54610000D03*
D12*
X39370000Y-57150000D03*
X49530000Y-57150000D03*
G04 #@! TD*
G04 #@! TO.C,C4*
G36*
G01*
X49300000Y-82720000D02*
X50300000Y-82720000D01*
G75*
G02*
X50575000Y-82995000I0J-275000D01*
G01*
X50575000Y-83545000D01*
G75*
G02*
X50300000Y-83820000I-275000J0D01*
G01*
X49300000Y-83820000D01*
G75*
G02*
X49025000Y-83545000I0J275000D01*
G01*
X49025000Y-82995000D01*
G75*
G02*
X49300000Y-82720000I275000J0D01*
G01*
G37*
G36*
G01*
X49300000Y-80820000D02*
X50300000Y-80820000D01*
G75*
G02*
X50575000Y-81095000I0J-275000D01*
G01*
X50575000Y-81645000D01*
G75*
G02*
X50300000Y-81920000I-275000J0D01*
G01*
X49300000Y-81920000D01*
G75*
G02*
X49025000Y-81645000I0J275000D01*
G01*
X49025000Y-81095000D01*
G75*
G02*
X49300000Y-80820000I275000J0D01*
G01*
G37*
G04 #@! TD*
G04 #@! TO.C,U1*
G36*
G01*
X47700000Y-84045000D02*
X47700000Y-84595000D01*
G75*
G02*
X47650000Y-84645000I-50000J0D01*
G01*
X46050000Y-84645000D01*
G75*
G02*
X46000000Y-84595000I0J50000D01*
G01*
X46000000Y-84045000D01*
G75*
G02*
X46050000Y-83995000I50000J0D01*
G01*
X47650000Y-83995000D01*
G75*
G02*
X47700000Y-84045000I0J-50000D01*
G01*
G37*
G36*
G01*
X47700000Y-84845000D02*
X47700000Y-85395000D01*
G75*
G02*
X47650000Y-85445000I-50000J0D01*
G01*
X46050000Y-85445000D01*
G75*
G02*
X46000000Y-85395000I0J50000D01*
G01*
X46000000Y-84845000D01*
G75*
G02*
X46050000Y-84795000I50000J0D01*
G01*
X47650000Y-84795000D01*
G75*
G02*
X47700000Y-84845000I0J-50000D01*
G01*
G37*
G36*
G01*
X47700000Y-85645000D02*
X47700000Y-86195000D01*
G75*
G02*
X47650000Y-86245000I-50000J0D01*
G01*
X46050000Y-86245000D01*
G75*
G02*
X46000000Y-86195000I0J50000D01*
G01*
X46000000Y-85645000D01*
G75*
G02*
X46050000Y-85595000I50000J0D01*
G01*
X47650000Y-85595000D01*
G75*
G02*
X47700000Y-85645000I0J-50000D01*
G01*
G37*
G36*
G01*
X47700000Y-86445000D02*
X47700000Y-86995000D01*
G75*
G02*
X47650000Y-87045000I-50000J0D01*
G01*
X46050000Y-87045000D01*
G75*
G02*
X46000000Y-86995000I0J50000D01*
G01*
X46000000Y-86445000D01*
G75*
G02*
X46050000Y-86395000I50000J0D01*
G01*
X47650000Y-86395000D01*
G75*
G02*
X47700000Y-86445000I0J-50000D01*
G01*
G37*
G36*
G01*
X47700000Y-87245000D02*
X47700000Y-87795000D01*
G75*
G02*
X47650000Y-87845000I-50000J0D01*
G01*
X46050000Y-87845000D01*
G75*
G02*
X46000000Y-87795000I0J50000D01*
G01*
X46000000Y-87245000D01*
G75*
G02*
X46050000Y-87195000I50000J0D01*
G01*
X47650000Y-87195000D01*
G75*
G02*
X47700000Y-87245000I0J-50000D01*
G01*
G37*
G36*
G01*
X47700000Y-88045000D02*
X47700000Y-88595000D01*
G75*
G02*
X47650000Y-88645000I-50000J0D01*
G01*
X46050000Y-88645000D01*
G75*
G02*
X46000000Y-88595000I0J50000D01*
G01*
X46000000Y-88045000D01*
G75*
G02*
X46050000Y-87995000I50000J0D01*
G01*
X47650000Y-87995000D01*
G75*
G02*
X47700000Y-88045000I0J-50000D01*
G01*
G37*
G36*
G01*
X47700000Y-88845000D02*
X47700000Y-89395000D01*
G75*
G02*
X47650000Y-89445000I-50000J0D01*
G01*
X46050000Y-89445000D01*
G75*
G02*
X46000000Y-89395000I0J50000D01*
G01*
X46000000Y-88845000D01*
G75*
G02*
X46050000Y-88795000I50000J0D01*
G01*
X47650000Y-88795000D01*
G75*
G02*
X47700000Y-88845000I0J-50000D01*
G01*
G37*
G36*
G01*
X47700000Y-89645000D02*
X47700000Y-90195000D01*
G75*
G02*
X47650000Y-90245000I-50000J0D01*
G01*
X46050000Y-90245000D01*
G75*
G02*
X46000000Y-90195000I0J50000D01*
G01*
X46000000Y-89645000D01*
G75*
G02*
X46050000Y-89595000I50000J0D01*
G01*
X47650000Y-89595000D01*
G75*
G02*
X47700000Y-89645000I0J-50000D01*
G01*
G37*
G36*
G01*
X45675000Y-92220000D02*
X45125000Y-92220000D01*
G75*
G02*
X45075000Y-92170000I0J50000D01*
G01*
X45075000Y-90570000D01*
G75*
G02*
X45125000Y-90520000I50000J0D01*
G01*
X45675000Y-90520000D01*
G75*
G02*
X45725000Y-90570000I0J-50000D01*
G01*
X45725000Y-92170000D01*
G75*
G02*
X45675000Y-92220000I-50000J0D01*
G01*
G37*
G36*
G01*
X44875000Y-92220000D02*
X44325000Y-92220000D01*
G75*
G02*
X44275000Y-92170000I0J50000D01*
G01*
X44275000Y-90570000D01*
G75*
G02*
X44325000Y-90520000I50000J0D01*
G01*
X44875000Y-90520000D01*
G75*
G02*
X44925000Y-90570000I0J-50000D01*
G01*
X44925000Y-92170000D01*
G75*
G02*
X44875000Y-92220000I-50000J0D01*
G01*
G37*
G36*
G01*
X44075000Y-92220000D02*
X43525000Y-92220000D01*
G75*
G02*
X43475000Y-92170000I0J50000D01*
G01*
X43475000Y-90570000D01*
G75*
G02*
X43525000Y-90520000I50000J0D01*
G01*
X44075000Y-90520000D01*
G75*
G02*
X44125000Y-90570000I0J-50000D01*
G01*
X44125000Y-92170000D01*
G75*
G02*
X44075000Y-92220000I-50000J0D01*
G01*
G37*
G36*
G01*
X43275000Y-92220000D02*
X42725000Y-92220000D01*
G75*
G02*
X42675000Y-92170000I0J50000D01*
G01*
X42675000Y-90570000D01*
G75*
G02*
X42725000Y-90520000I50000J0D01*
G01*
X43275000Y-90520000D01*
G75*
G02*
X43325000Y-90570000I0J-50000D01*
G01*
X43325000Y-92170000D01*
G75*
G02*
X43275000Y-92220000I-50000J0D01*
G01*
G37*
G36*
G01*
X42475000Y-92220000D02*
X41925000Y-92220000D01*
G75*
G02*
X41875000Y-92170000I0J50000D01*
G01*
X41875000Y-90570000D01*
G75*
G02*
X41925000Y-90520000I50000J0D01*
G01*
X42475000Y-90520000D01*
G75*
G02*
X42525000Y-90570000I0J-50000D01*
G01*
X42525000Y-92170000D01*
G75*
G02*
X42475000Y-92220000I-50000J0D01*
G01*
G37*
G36*
G01*
X41675000Y-92220000D02*
X41125000Y-92220000D01*
G75*
G02*
X41075000Y-92170000I0J50000D01*
G01*
X41075000Y-90570000D01*
G75*
G02*
X41125000Y-90520000I50000J0D01*
G01*
X41675000Y-90520000D01*
G75*
G02*
X41725000Y-90570000I0J-50000D01*
G01*
X41725000Y-92170000D01*
G75*
G02*
X41675000Y-92220000I-50000J0D01*
G01*
G37*
G36*
G01*
X40875000Y-92220000D02*
X40325000Y-92220000D01*
G75*
G02*
X40275000Y-92170000I0J50000D01*
G01*
X40275000Y-90570000D01*
G75*
G02*
X40325000Y-90520000I50000J0D01*
G01*
X40875000Y-90520000D01*
G75*
G02*
X40925000Y-90570000I0J-50000D01*
G01*
X40925000Y-92170000D01*
G75*
G02*
X40875000Y-92220000I-50000J0D01*
G01*
G37*
G36*
G01*
X40075000Y-92220000D02*
X39525000Y-92220000D01*
G75*
G02*
X39475000Y-92170000I0J50000D01*
G01*
X39475000Y-90570000D01*
G75*
G02*
X39525000Y-90520000I50000J0D01*
G01*
X40075000Y-90520000D01*
G75*
G02*
X40125000Y-90570000I0J-50000D01*
G01*
X40125000Y-92170000D01*
G75*
G02*
X40075000Y-92220000I-50000J0D01*
G01*
G37*
G36*
G01*
X39200000Y-89645000D02*
X39200000Y-90195000D01*
G75*
G02*
X39150000Y-90245000I-50000J0D01*
G01*
X37550000Y-90245000D01*
G75*
G02*
X37500000Y-90195000I0J50000D01*
G01*
X37500000Y-89645000D01*
G75*
G02*
X37550000Y-89595000I50000J0D01*
G01*
X39150000Y-89595000D01*
G75*
G02*
X39200000Y-89645000I0J-50000D01*
G01*
G37*
G36*
G01*
X39200000Y-88845000D02*
X39200000Y-89395000D01*
G75*
G02*
X39150000Y-89445000I-50000J0D01*
G01*
X37550000Y-89445000D01*
G75*
G02*
X37500000Y-89395000I0J50000D01*
G01*
X37500000Y-88845000D01*
G75*
G02*
X37550000Y-88795000I50000J0D01*
G01*
X39150000Y-88795000D01*
G75*
G02*
X39200000Y-88845000I0J-50000D01*
G01*
G37*
G36*
G01*
X39200000Y-88045000D02*
X39200000Y-88595000D01*
G75*
G02*
X39150000Y-88645000I-50000J0D01*
G01*
X37550000Y-88645000D01*
G75*
G02*
X37500000Y-88595000I0J50000D01*
G01*
X37500000Y-88045000D01*
G75*
G02*
X37550000Y-87995000I50000J0D01*
G01*
X39150000Y-87995000D01*
G75*
G02*
X39200000Y-88045000I0J-50000D01*
G01*
G37*
G36*
G01*
X39200000Y-87245000D02*
X39200000Y-87795000D01*
G75*
G02*
X39150000Y-87845000I-50000J0D01*
G01*
X37550000Y-87845000D01*
G75*
G02*
X37500000Y-87795000I0J50000D01*
G01*
X37500000Y-87245000D01*
G75*
G02*
X37550000Y-87195000I50000J0D01*
G01*
X39150000Y-87195000D01*
G75*
G02*
X39200000Y-87245000I0J-50000D01*
G01*
G37*
G36*
G01*
X39200000Y-86445000D02*
X39200000Y-86995000D01*
G75*
G02*
X39150000Y-87045000I-50000J0D01*
G01*
X37550000Y-87045000D01*
G75*
G02*
X37500000Y-86995000I0J50000D01*
G01*
X37500000Y-86445000D01*
G75*
G02*
X37550000Y-86395000I50000J0D01*
G01*
X39150000Y-86395000D01*
G75*
G02*
X39200000Y-86445000I0J-50000D01*
G01*
G37*
G36*
G01*
X39200000Y-85645000D02*
X39200000Y-86195000D01*
G75*
G02*
X39150000Y-86245000I-50000J0D01*
G01*
X37550000Y-86245000D01*
G75*
G02*
X37500000Y-86195000I0J50000D01*
G01*
X37500000Y-85645000D01*
G75*
G02*
X37550000Y-85595000I50000J0D01*
G01*
X39150000Y-85595000D01*
G75*
G02*
X39200000Y-85645000I0J-50000D01*
G01*
G37*
G36*
G01*
X39200000Y-84845000D02*
X39200000Y-85395000D01*
G75*
G02*
X39150000Y-85445000I-50000J0D01*
G01*
X37550000Y-85445000D01*
G75*
G02*
X37500000Y-85395000I0J50000D01*
G01*
X37500000Y-84845000D01*
G75*
G02*
X37550000Y-84795000I50000J0D01*
G01*
X39150000Y-84795000D01*
G75*
G02*
X39200000Y-84845000I0J-50000D01*
G01*
G37*
G36*
G01*
X39200000Y-84045000D02*
X39200000Y-84595000D01*
G75*
G02*
X39150000Y-84645000I-50000J0D01*
G01*
X37550000Y-84645000D01*
G75*
G02*
X37500000Y-84595000I0J50000D01*
G01*
X37500000Y-84045000D01*
G75*
G02*
X37550000Y-83995000I50000J0D01*
G01*
X39150000Y-83995000D01*
G75*
G02*
X39200000Y-84045000I0J-50000D01*
G01*
G37*
G36*
G01*
X40075000Y-83720000D02*
X39525000Y-83720000D01*
G75*
G02*
X39475000Y-83670000I0J50000D01*
G01*
X39475000Y-82070000D01*
G75*
G02*
X39525000Y-82020000I50000J0D01*
G01*
X40075000Y-82020000D01*
G75*
G02*
X40125000Y-82070000I0J-50000D01*
G01*
X40125000Y-83670000D01*
G75*
G02*
X40075000Y-83720000I-50000J0D01*
G01*
G37*
G36*
G01*
X40875000Y-83720000D02*
X40325000Y-83720000D01*
G75*
G02*
X40275000Y-83670000I0J50000D01*
G01*
X40275000Y-82070000D01*
G75*
G02*
X40325000Y-82020000I50000J0D01*
G01*
X40875000Y-82020000D01*
G75*
G02*
X40925000Y-82070000I0J-50000D01*
G01*
X40925000Y-83670000D01*
G75*
G02*
X40875000Y-83720000I-50000J0D01*
G01*
G37*
G36*
G01*
X41675000Y-83720000D02*
X41125000Y-83720000D01*
G75*
G02*
X41075000Y-83670000I0J50000D01*
G01*
X41075000Y-82070000D01*
G75*
G02*
X41125000Y-82020000I50000J0D01*
G01*
X41675000Y-82020000D01*
G75*
G02*
X41725000Y-82070000I0J-50000D01*
G01*
X41725000Y-83670000D01*
G75*
G02*
X41675000Y-83720000I-50000J0D01*
G01*
G37*
G36*
G01*
X42475000Y-83720000D02*
X41925000Y-83720000D01*
G75*
G02*
X41875000Y-83670000I0J50000D01*
G01*
X41875000Y-82070000D01*
G75*
G02*
X41925000Y-82020000I50000J0D01*
G01*
X42475000Y-82020000D01*
G75*
G02*
X42525000Y-82070000I0J-50000D01*
G01*
X42525000Y-83670000D01*
G75*
G02*
X42475000Y-83720000I-50000J0D01*
G01*
G37*
G36*
G01*
X43275000Y-83720000D02*
X42725000Y-83720000D01*
G75*
G02*
X42675000Y-83670000I0J50000D01*
G01*
X42675000Y-82070000D01*
G75*
G02*
X42725000Y-82020000I50000J0D01*
G01*
X43275000Y-82020000D01*
G75*
G02*
X43325000Y-82070000I0J-50000D01*
G01*
X43325000Y-83670000D01*
G75*
G02*
X43275000Y-83720000I-50000J0D01*
G01*
G37*
G36*
G01*
X44075000Y-83720000D02*
X43525000Y-83720000D01*
G75*
G02*
X43475000Y-83670000I0J50000D01*
G01*
X43475000Y-82070000D01*
G75*
G02*
X43525000Y-82020000I50000J0D01*
G01*
X44075000Y-82020000D01*
G75*
G02*
X44125000Y-82070000I0J-50000D01*
G01*
X44125000Y-83670000D01*
G75*
G02*
X44075000Y-83720000I-50000J0D01*
G01*
G37*
G36*
G01*
X44875000Y-83720000D02*
X44325000Y-83720000D01*
G75*
G02*
X44275000Y-83670000I0J50000D01*
G01*
X44275000Y-82070000D01*
G75*
G02*
X44325000Y-82020000I50000J0D01*
G01*
X44875000Y-82020000D01*
G75*
G02*
X44925000Y-82070000I0J-50000D01*
G01*
X44925000Y-83670000D01*
G75*
G02*
X44875000Y-83720000I-50000J0D01*
G01*
G37*
G36*
G01*
X45675000Y-83720000D02*
X45125000Y-83720000D01*
G75*
G02*
X45075000Y-83670000I0J50000D01*
G01*
X45075000Y-82070000D01*
G75*
G02*
X45125000Y-82020000I50000J0D01*
G01*
X45675000Y-82020000D01*
G75*
G02*
X45725000Y-82070000I0J-50000D01*
G01*
X45725000Y-83670000D01*
G75*
G02*
X45675000Y-83720000I-50000J0D01*
G01*
G37*
G04 #@! TD*
G04 #@! TO.C,C5*
G36*
G01*
X43500000Y-71500000D02*
X43500000Y-70500000D01*
G75*
G02*
X43775000Y-70225000I275000J0D01*
G01*
X44325000Y-70225000D01*
G75*
G02*
X44600000Y-70500000I0J-275000D01*
G01*
X44600000Y-71500000D01*
G75*
G02*
X44325000Y-71775000I-275000J0D01*
G01*
X43775000Y-71775000D01*
G75*
G02*
X43500000Y-71500000I0J275000D01*
G01*
G37*
G36*
G01*
X45400000Y-71500000D02*
X45400000Y-70500000D01*
G75*
G02*
X45675000Y-70225000I275000J0D01*
G01*
X46225000Y-70225000D01*
G75*
G02*
X46500000Y-70500000I0J-275000D01*
G01*
X46500000Y-71500000D01*
G75*
G02*
X46225000Y-71775000I-275000J0D01*
G01*
X45675000Y-71775000D01*
G75*
G02*
X45400000Y-71500000I0J275000D01*
G01*
G37*
G04 #@! TD*
D10*
G04 #@! TO.C,MX29*
X61277500Y-90170000D03*
D11*
X58737500Y-95250000D03*
D10*
X54927500Y-92710000D03*
D12*
X53657500Y-95250000D03*
X63817500Y-95250000D03*
G04 #@! TD*
D10*
G04 #@! TO.C,MX3*
X66040000Y-52070000D03*
D11*
X63500000Y-57150000D03*
D10*
X59690000Y-54610000D03*
D12*
X58420000Y-57150000D03*
X68580000Y-57150000D03*
G04 #@! TD*
G04 #@! TO.C,U2*
G36*
G01*
X58449999Y-66529811D02*
X59099999Y-66529811D01*
G75*
G02*
X59149999Y-66579811I0J-50000D01*
G01*
X59149999Y-67639811D01*
G75*
G02*
X59099999Y-67689811I-50000J0D01*
G01*
X58449999Y-67689811D01*
G75*
G02*
X58399999Y-67639811I0J50000D01*
G01*
X58399999Y-66579811D01*
G75*
G02*
X58449999Y-66529811I50000J0D01*
G01*
G37*
G36*
G01*
X57499999Y-66529811D02*
X58149999Y-66529811D01*
G75*
G02*
X58199999Y-66579811I0J-50000D01*
G01*
X58199999Y-67639811D01*
G75*
G02*
X58149999Y-67689811I-50000J0D01*
G01*
X57499999Y-67689811D01*
G75*
G02*
X57449999Y-67639811I0J50000D01*
G01*
X57449999Y-66579811D01*
G75*
G02*
X57499999Y-66529811I50000J0D01*
G01*
G37*
G36*
G01*
X59399999Y-66529811D02*
X60049999Y-66529811D01*
G75*
G02*
X60099999Y-66579811I0J-50000D01*
G01*
X60099999Y-67639811D01*
G75*
G02*
X60049999Y-67689811I-50000J0D01*
G01*
X59399999Y-67689811D01*
G75*
G02*
X59349999Y-67639811I0J50000D01*
G01*
X59349999Y-66579811D01*
G75*
G02*
X59399999Y-66529811I50000J0D01*
G01*
G37*
G36*
G01*
X59399999Y-64329811D02*
X60049999Y-64329811D01*
G75*
G02*
X60099999Y-64379811I0J-50000D01*
G01*
X60099999Y-65439811D01*
G75*
G02*
X60049999Y-65489811I-50000J0D01*
G01*
X59399999Y-65489811D01*
G75*
G02*
X59349999Y-65439811I0J50000D01*
G01*
X59349999Y-64379811D01*
G75*
G02*
X59399999Y-64329811I50000J0D01*
G01*
G37*
G36*
G01*
X58449999Y-64329811D02*
X59099999Y-64329811D01*
G75*
G02*
X59149999Y-64379811I0J-50000D01*
G01*
X59149999Y-65439811D01*
G75*
G02*
X59099999Y-65489811I-50000J0D01*
G01*
X58449999Y-65489811D01*
G75*
G02*
X58399999Y-65439811I0J50000D01*
G01*
X58399999Y-64379811D01*
G75*
G02*
X58449999Y-64329811I50000J0D01*
G01*
G37*
G36*
G01*
X57499999Y-64329811D02*
X58149999Y-64329811D01*
G75*
G02*
X58199999Y-64379811I0J-50000D01*
G01*
X58199999Y-65439811D01*
G75*
G02*
X58149999Y-65489811I-50000J0D01*
G01*
X57499999Y-65489811D01*
G75*
G02*
X57449999Y-65439811I0J50000D01*
G01*
X57449999Y-64379811D01*
G75*
G02*
X57499999Y-64329811I50000J0D01*
G01*
G37*
G04 #@! TD*
G04 #@! TO.C,R4*
G36*
G01*
X33104388Y-80852500D02*
X34055612Y-80852500D01*
G75*
G02*
X34330000Y-81126888I0J-274388D01*
G01*
X34330000Y-81703112D01*
G75*
G02*
X34055612Y-81977500I-274388J0D01*
G01*
X33104388Y-81977500D01*
G75*
G02*
X32830000Y-81703112I0J274388D01*
G01*
X32830000Y-81126888D01*
G75*
G02*
X33104388Y-80852500I274388J0D01*
G01*
G37*
G36*
G01*
X33104388Y-79027500D02*
X34055612Y-79027500D01*
G75*
G02*
X34330000Y-79301888I0J-274388D01*
G01*
X34330000Y-79878112D01*
G75*
G02*
X34055612Y-80152500I-274388J0D01*
G01*
X33104388Y-80152500D01*
G75*
G02*
X32830000Y-79878112I0J274388D01*
G01*
X32830000Y-79301888D01*
G75*
G02*
X33104388Y-79027500I274388J0D01*
G01*
G37*
G04 #@! TD*
D10*
G04 #@! TO.C,MX45*
X163671250Y-109220000D03*
D11*
X161131250Y-114300000D03*
D10*
X157321250Y-111760000D03*
D12*
X156051250Y-114300000D03*
X166211250Y-114300000D03*
D13*
X149225000Y-121285000D03*
X173037500Y-121285000D03*
D11*
X149225000Y-106045000D03*
X173037500Y-106045000D03*
G04 #@! TD*
G04 #@! TO.C,J1*
G36*
G01*
X70250000Y-66100000D02*
X71800000Y-66100000D01*
G75*
G02*
X71850000Y-66150000I0J-50000D01*
G01*
X71850000Y-66750000D01*
G75*
G02*
X71800000Y-66800000I-50000J0D01*
G01*
X70250000Y-66800000D01*
G75*
G02*
X70200000Y-66750000I0J50000D01*
G01*
X70200000Y-66150000D01*
G75*
G02*
X70250000Y-66100000I50000J0D01*
G01*
G37*
G36*
G01*
X70250000Y-67100000D02*
X71800000Y-67100000D01*
G75*
G02*
X71850000Y-67150000I0J-50000D01*
G01*
X71850000Y-67750000D01*
G75*
G02*
X71800000Y-67800000I-50000J0D01*
G01*
X70250000Y-67800000D01*
G75*
G02*
X70200000Y-67750000I0J50000D01*
G01*
X70200000Y-67150000D01*
G75*
G02*
X70250000Y-67100000I50000J0D01*
G01*
G37*
G36*
G01*
X70250000Y-65100000D02*
X71800000Y-65100000D01*
G75*
G02*
X71850000Y-65150000I0J-50000D01*
G01*
X71850000Y-65750000D01*
G75*
G02*
X71800000Y-65800000I-50000J0D01*
G01*
X70250000Y-65800000D01*
G75*
G02*
X70200000Y-65750000I0J50000D01*
G01*
X70200000Y-65150000D01*
G75*
G02*
X70250000Y-65100000I50000J0D01*
G01*
G37*
G36*
G01*
X70250000Y-64100000D02*
X71800000Y-64100000D01*
G75*
G02*
X71850000Y-64150000I0J-50000D01*
G01*
X71850000Y-64750000D01*
G75*
G02*
X71800000Y-64800000I-50000J0D01*
G01*
X70250000Y-64800000D01*
G75*
G02*
X70200000Y-64750000I0J50000D01*
G01*
X70200000Y-64150000D01*
G75*
G02*
X70250000Y-64100000I50000J0D01*
G01*
G37*
G36*
G01*
X74000000Y-62500000D02*
X75800000Y-62500000D01*
G75*
G02*
X75850000Y-62550000I0J-50000D01*
G01*
X75850000Y-63750000D01*
G75*
G02*
X75800000Y-63800000I-50000J0D01*
G01*
X74000000Y-63800000D01*
G75*
G02*
X73950000Y-63750000I0J50000D01*
G01*
X73950000Y-62550000D01*
G75*
G02*
X74000000Y-62500000I50000J0D01*
G01*
G37*
G36*
G01*
X74000000Y-68100000D02*
X75800000Y-68100000D01*
G75*
G02*
X75850000Y-68150000I0J-50000D01*
G01*
X75850000Y-69350000D01*
G75*
G02*
X75800000Y-69400000I-50000J0D01*
G01*
X74000000Y-69400000D01*
G75*
G02*
X73950000Y-69350000I0J50000D01*
G01*
X73950000Y-68150000D01*
G75*
G02*
X74000000Y-68100000I50000J0D01*
G01*
G37*
G04 #@! TD*
D10*
G04 #@! TO.C,MX35*
X175577500Y-90170000D03*
D11*
X173037500Y-95250000D03*
D10*
X169227500Y-92710000D03*
D12*
X167957500Y-95250000D03*
X178117500Y-95250000D03*
G04 #@! TD*
D10*
G04 #@! TO.C,MX32*
X118427500Y-90170000D03*
D11*
X115887500Y-95250000D03*
D10*
X112077500Y-92710000D03*
D12*
X110807500Y-95250000D03*
X120967500Y-95250000D03*
G04 #@! TD*
D10*
G04 #@! TO.C,MX41*
X30321250Y-109220000D03*
D11*
X27781250Y-114300000D03*
D10*
X23971250Y-111760000D03*
D12*
X22701250Y-114300000D03*
X32861250Y-114300000D03*
G04 #@! TD*
D10*
G04 #@! TO.C,MX49*
X275590000Y-109220000D03*
D11*
X273050000Y-114300000D03*
D10*
X269240000Y-111760000D03*
D12*
X267970000Y-114300000D03*
X278130000Y-114300000D03*
G04 #@! TD*
D10*
G04 #@! TO.C,MX21*
X147002500Y-71120000D03*
D11*
X144462500Y-76200000D03*
D10*
X140652500Y-73660000D03*
D12*
X139382500Y-76200000D03*
X149542500Y-76200000D03*
G04 #@! TD*
D10*
G04 #@! TO.C,MX14*
X275590000Y-52070000D03*
D11*
X273050000Y-57150000D03*
D10*
X269240000Y-54610000D03*
D12*
X267970000Y-57150000D03*
X278130000Y-57150000D03*
G04 #@! TD*
D10*
G04 #@! TO.C,MX30*
X80327500Y-90170000D03*
D11*
X77787500Y-95250000D03*
D10*
X73977500Y-92710000D03*
D12*
X72707500Y-95250000D03*
X82867500Y-95250000D03*
G04 #@! TD*
D10*
G04 #@! TO.C,MX42*
X56515000Y-109220000D03*
D11*
X53975000Y-114300000D03*
D10*
X50165000Y-111760000D03*
D12*
X48895000Y-114300000D03*
X59055000Y-114300000D03*
G04 #@! TD*
G04 #@! TO.C,Y1*
G36*
G01*
X56035000Y-84005000D02*
X57235000Y-84005000D01*
G75*
G02*
X57285000Y-84055000I0J-50000D01*
G01*
X57285000Y-85455000D01*
G75*
G02*
X57235000Y-85505000I-50000J0D01*
G01*
X56035000Y-85505000D01*
G75*
G02*
X55985000Y-85455000I0J50000D01*
G01*
X55985000Y-84055000D01*
G75*
G02*
X56035000Y-84005000I50000J0D01*
G01*
G37*
G36*
G01*
X56035000Y-86205000D02*
X57235000Y-86205000D01*
G75*
G02*
X57285000Y-86255000I0J-50000D01*
G01*
X57285000Y-87655000D01*
G75*
G02*
X57235000Y-87705000I-50000J0D01*
G01*
X56035000Y-87705000D01*
G75*
G02*
X55985000Y-87655000I0J50000D01*
G01*
X55985000Y-86255000D01*
G75*
G02*
X56035000Y-86205000I50000J0D01*
G01*
G37*
G36*
G01*
X54335000Y-86205000D02*
X55535000Y-86205000D01*
G75*
G02*
X55585000Y-86255000I0J-50000D01*
G01*
X55585000Y-87655000D01*
G75*
G02*
X55535000Y-87705000I-50000J0D01*
G01*
X54335000Y-87705000D01*
G75*
G02*
X54285000Y-87655000I0J50000D01*
G01*
X54285000Y-86255000D01*
G75*
G02*
X54335000Y-86205000I50000J0D01*
G01*
G37*
G36*
G01*
X54335000Y-84005000D02*
X55535000Y-84005000D01*
G75*
G02*
X55585000Y-84055000I0J-50000D01*
G01*
X55585000Y-85455000D01*
G75*
G02*
X55535000Y-85505000I-50000J0D01*
G01*
X54335000Y-85505000D01*
G75*
G02*
X54285000Y-85455000I0J50000D01*
G01*
X54285000Y-84055000D01*
G75*
G02*
X54335000Y-84005000I50000J0D01*
G01*
G37*
G04 #@! TD*
G04 #@! TO.C,SW1*
G36*
G01*
X33025000Y-64425000D02*
X33025000Y-63325000D01*
G75*
G02*
X33075000Y-63275000I50000J0D01*
G01*
X34875000Y-63275000D01*
G75*
G02*
X34925000Y-63325000I0J-50000D01*
G01*
X34925000Y-64425000D01*
G75*
G02*
X34875000Y-64475000I-50000J0D01*
G01*
X33075000Y-64475000D01*
G75*
G02*
X33025000Y-64425000I0J50000D01*
G01*
G37*
G36*
G01*
X39225000Y-68125000D02*
X39225000Y-67025000D01*
G75*
G02*
X39275000Y-66975000I50000J0D01*
G01*
X41075000Y-66975000D01*
G75*
G02*
X41125000Y-67025000I0J-50000D01*
G01*
X41125000Y-68125000D01*
G75*
G02*
X41075000Y-68175000I-50000J0D01*
G01*
X39275000Y-68175000D01*
G75*
G02*
X39225000Y-68125000I0J50000D01*
G01*
G37*
G36*
G01*
X33025000Y-68125000D02*
X33025000Y-67025000D01*
G75*
G02*
X33075000Y-66975000I50000J0D01*
G01*
X34875000Y-66975000D01*
G75*
G02*
X34925000Y-67025000I0J-50000D01*
G01*
X34925000Y-68125000D01*
G75*
G02*
X34875000Y-68175000I-50000J0D01*
G01*
X33075000Y-68175000D01*
G75*
G02*
X33025000Y-68125000I0J50000D01*
G01*
G37*
G36*
G01*
X39225000Y-64425000D02*
X39225000Y-63325000D01*
G75*
G02*
X39275000Y-63275000I50000J0D01*
G01*
X41075000Y-63275000D01*
G75*
G02*
X41125000Y-63325000I0J-50000D01*
G01*
X41125000Y-64425000D01*
G75*
G02*
X41075000Y-64475000I-50000J0D01*
G01*
X39275000Y-64475000D01*
G75*
G02*
X39225000Y-64425000I0J50000D01*
G01*
G37*
G04 #@! TD*
G04 #@! TO.C,R3*
G36*
G01*
X51031250Y-67619362D02*
X51031250Y-66668138D01*
G75*
G02*
X51305638Y-66393750I274388J0D01*
G01*
X51881862Y-66393750D01*
G75*
G02*
X52156250Y-66668138I0J-274388D01*
G01*
X52156250Y-67619362D01*
G75*
G02*
X51881862Y-67893750I-274388J0D01*
G01*
X51305638Y-67893750D01*
G75*
G02*
X51031250Y-67619362I0J274388D01*
G01*
G37*
G36*
G01*
X49206250Y-67619250D02*
X49206250Y-66668250D01*
G75*
G02*
X49480750Y-66393750I274500J0D01*
G01*
X50056750Y-66393750D01*
G75*
G02*
X50331250Y-66668250I0J-274500D01*
G01*
X50331250Y-67619250D01*
G75*
G02*
X50056750Y-67893750I-274500J0D01*
G01*
X49480750Y-67893750D01*
G75*
G02*
X49206250Y-67619250I0J274500D01*
G01*
G37*
G04 #@! TD*
G04 #@! TO.C,R2*
G36*
G01*
X49206250Y-65238000D02*
X49206250Y-64287000D01*
G75*
G02*
X49480750Y-64012500I274500J0D01*
G01*
X50056750Y-64012500D01*
G75*
G02*
X50331250Y-64287000I0J-274500D01*
G01*
X50331250Y-65238000D01*
G75*
G02*
X50056750Y-65512500I-274500J0D01*
G01*
X49480750Y-65512500D01*
G75*
G02*
X49206250Y-65238000I0J274500D01*
G01*
G37*
G36*
G01*
X51031250Y-65238112D02*
X51031250Y-64286888D01*
G75*
G02*
X51305638Y-64012500I274388J0D01*
G01*
X51881862Y-64012500D01*
G75*
G02*
X52156250Y-64286888I0J-274388D01*
G01*
X52156250Y-65238112D01*
G75*
G02*
X51881862Y-65512500I-274388J0D01*
G01*
X51305638Y-65512500D01*
G75*
G02*
X51031250Y-65238112I0J274388D01*
G01*
G37*
G04 #@! TD*
G04 #@! TO.C,R1*
G36*
G01*
X50254388Y-93790000D02*
X51205612Y-93790000D01*
G75*
G02*
X51480000Y-94064388I0J-274388D01*
G01*
X51480000Y-94640612D01*
G75*
G02*
X51205612Y-94915000I-274388J0D01*
G01*
X50254388Y-94915000D01*
G75*
G02*
X49980000Y-94640612I0J274388D01*
G01*
X49980000Y-94064388D01*
G75*
G02*
X50254388Y-93790000I274388J0D01*
G01*
G37*
G36*
G01*
X50254388Y-91965000D02*
X51205612Y-91965000D01*
G75*
G02*
X51480000Y-92239388I0J-274388D01*
G01*
X51480000Y-92815612D01*
G75*
G02*
X51205612Y-93090000I-274388J0D01*
G01*
X50254388Y-93090000D01*
G75*
G02*
X49980000Y-92815612I0J274388D01*
G01*
X49980000Y-92239388D01*
G75*
G02*
X50254388Y-91965000I274388J0D01*
G01*
G37*
G04 #@! TD*
D10*
G04 #@! TO.C,MX48*
X254158750Y-109220000D03*
D11*
X251618750Y-114300000D03*
D10*
X247808750Y-111760000D03*
D12*
X246538750Y-114300000D03*
X256698750Y-114300000D03*
G04 #@! TD*
D10*
G04 #@! TO.C,MX47*
X227965000Y-109220000D03*
D11*
X225425000Y-114300000D03*
D10*
X221615000Y-111760000D03*
D12*
X220345000Y-114300000D03*
X230505000Y-114300000D03*
G04 #@! TD*
D10*
G04 #@! TO.C,MX46*
X201771250Y-109220000D03*
D11*
X199231250Y-114300000D03*
D10*
X195421250Y-111760000D03*
D12*
X194151250Y-114300000D03*
X204311250Y-114300000D03*
G04 #@! TD*
D10*
G04 #@! TO.C,MX40*
X275590000Y-90170000D03*
D11*
X273050000Y-95250000D03*
D10*
X269240000Y-92710000D03*
D12*
X267970000Y-95250000D03*
X278130000Y-95250000D03*
G04 #@! TD*
D10*
G04 #@! TO.C,MX39*
X254158750Y-90170000D03*
D11*
X251618750Y-95250000D03*
D10*
X247808750Y-92710000D03*
D12*
X246538750Y-95250000D03*
X256698750Y-95250000D03*
G04 #@! TD*
D10*
G04 #@! TO.C,MX38*
X232727500Y-90170000D03*
D11*
X230187500Y-95250000D03*
D10*
X226377500Y-92710000D03*
D12*
X225107500Y-95250000D03*
X235267500Y-95250000D03*
G04 #@! TD*
D10*
G04 #@! TO.C,MX37*
X213677500Y-90170000D03*
D11*
X211137500Y-95250000D03*
D10*
X207327500Y-92710000D03*
D12*
X206057500Y-95250000D03*
X216217500Y-95250000D03*
G04 #@! TD*
D10*
G04 #@! TO.C,MX36*
X194627500Y-90170000D03*
D11*
X192087500Y-95250000D03*
D10*
X188277500Y-92710000D03*
D12*
X187007500Y-95250000D03*
X197167500Y-95250000D03*
G04 #@! TD*
D10*
G04 #@! TO.C,MX34*
X156527500Y-90170000D03*
D11*
X153987500Y-95250000D03*
D10*
X150177500Y-92710000D03*
D12*
X148907500Y-95250000D03*
X159067500Y-95250000D03*
G04 #@! TD*
D10*
G04 #@! TO.C,MX33*
X137477500Y-90170000D03*
D11*
X134937500Y-95250000D03*
D10*
X131127500Y-92710000D03*
D12*
X129857500Y-95250000D03*
X140017500Y-95250000D03*
G04 #@! TD*
D10*
G04 #@! TO.C,MX31*
X99377500Y-90170000D03*
D11*
X96837500Y-95250000D03*
D10*
X93027500Y-92710000D03*
D12*
X91757500Y-95250000D03*
X101917500Y-95250000D03*
G04 #@! TD*
D10*
G04 #@! TO.C,MX28*
X35083750Y-90170000D03*
D11*
X32543750Y-95250000D03*
D10*
X28733750Y-92710000D03*
D12*
X27463750Y-95250000D03*
X37623750Y-95250000D03*
G04 #@! TD*
D10*
G04 #@! TO.C,MX27*
X268446250Y-71120000D03*
D11*
X265906250Y-76200000D03*
D10*
X262096250Y-73660000D03*
D12*
X260826250Y-76200000D03*
X270986250Y-76200000D03*
G04 #@! TD*
D10*
G04 #@! TO.C,MX26*
X242252500Y-71120000D03*
D11*
X239712500Y-76200000D03*
D10*
X235902500Y-73660000D03*
D12*
X234632500Y-76200000D03*
X244792500Y-76200000D03*
G04 #@! TD*
D10*
G04 #@! TO.C,MX25*
X223202500Y-71120000D03*
D11*
X220662500Y-76200000D03*
D10*
X216852500Y-73660000D03*
D12*
X215582500Y-76200000D03*
X225742500Y-76200000D03*
G04 #@! TD*
D10*
G04 #@! TO.C,MX24*
X204152500Y-71120000D03*
D11*
X201612500Y-76200000D03*
D10*
X197802500Y-73660000D03*
D12*
X196532500Y-76200000D03*
X206692500Y-76200000D03*
G04 #@! TD*
D10*
G04 #@! TO.C,MX23*
X185102500Y-71120000D03*
D11*
X182562500Y-76200000D03*
D10*
X178752500Y-73660000D03*
D12*
X177482500Y-76200000D03*
X187642500Y-76200000D03*
G04 #@! TD*
D10*
G04 #@! TO.C,MX22*
X166052500Y-71120000D03*
D11*
X163512500Y-76200000D03*
D10*
X159702500Y-73660000D03*
D12*
X158432500Y-76200000D03*
X168592500Y-76200000D03*
G04 #@! TD*
D10*
G04 #@! TO.C,MX20*
X127952500Y-71120000D03*
D11*
X125412500Y-76200000D03*
D10*
X121602500Y-73660000D03*
D12*
X120332500Y-76200000D03*
X130492500Y-76200000D03*
G04 #@! TD*
D10*
G04 #@! TO.C,MX19*
X108902500Y-71120000D03*
D11*
X106362500Y-76200000D03*
D10*
X102552500Y-73660000D03*
D12*
X101282500Y-76200000D03*
X111442500Y-76200000D03*
G04 #@! TD*
D10*
G04 #@! TO.C,MX18*
X89852500Y-71120000D03*
D11*
X87312500Y-76200000D03*
D10*
X83502500Y-73660000D03*
D12*
X82232500Y-76200000D03*
X92392500Y-76200000D03*
G04 #@! TD*
D10*
G04 #@! TO.C,MX17*
X70802500Y-71120000D03*
D11*
X68262500Y-76200000D03*
D10*
X64452500Y-73660000D03*
D12*
X63182500Y-76200000D03*
X73342500Y-76200000D03*
G04 #@! TD*
D10*
G04 #@! TO.C,MX15*
X30321250Y-71120000D03*
D11*
X27781250Y-76200000D03*
D10*
X23971250Y-73660000D03*
D12*
X22701250Y-76200000D03*
X32861250Y-76200000D03*
G04 #@! TD*
D10*
G04 #@! TO.C,MX13*
X256540000Y-52070000D03*
D11*
X254000000Y-57150000D03*
D10*
X250190000Y-54610000D03*
D12*
X248920000Y-57150000D03*
X259080000Y-57150000D03*
G04 #@! TD*
D10*
G04 #@! TO.C,MX12*
X237490000Y-52070000D03*
D11*
X234950000Y-57150000D03*
D10*
X231140000Y-54610000D03*
D12*
X229870000Y-57150000D03*
X240030000Y-57150000D03*
G04 #@! TD*
D10*
G04 #@! TO.C,MX11*
X218440000Y-52070000D03*
D11*
X215900000Y-57150000D03*
D10*
X212090000Y-54610000D03*
D12*
X210820000Y-57150000D03*
X220980000Y-57150000D03*
G04 #@! TD*
D10*
G04 #@! TO.C,MX10*
X199390000Y-52070000D03*
D11*
X196850000Y-57150000D03*
D10*
X193040000Y-54610000D03*
D12*
X191770000Y-57150000D03*
X201930000Y-57150000D03*
G04 #@! TD*
D10*
G04 #@! TO.C,MX9*
X180340000Y-52070000D03*
D11*
X177800000Y-57150000D03*
D10*
X173990000Y-54610000D03*
D12*
X172720000Y-57150000D03*
X182880000Y-57150000D03*
G04 #@! TD*
D10*
G04 #@! TO.C,MX8*
X161290000Y-52070000D03*
D11*
X158750000Y-57150000D03*
D10*
X154940000Y-54610000D03*
D12*
X153670000Y-57150000D03*
X163830000Y-57150000D03*
G04 #@! TD*
D10*
G04 #@! TO.C,MX7*
X142240000Y-52070000D03*
D11*
X139700000Y-57150000D03*
D10*
X135890000Y-54610000D03*
D12*
X134620000Y-57150000D03*
X144780000Y-57150000D03*
G04 #@! TD*
D10*
G04 #@! TO.C,MX6*
X123190000Y-52070000D03*
D11*
X120650000Y-57150000D03*
D10*
X116840000Y-54610000D03*
D12*
X115570000Y-57150000D03*
X125730000Y-57150000D03*
G04 #@! TD*
D10*
G04 #@! TO.C,MX5*
X104140000Y-52070000D03*
D11*
X101600000Y-57150000D03*
D10*
X97790000Y-54610000D03*
D12*
X96520000Y-57150000D03*
X106680000Y-57150000D03*
G04 #@! TD*
D10*
G04 #@! TO.C,MX4*
X85090000Y-52070000D03*
D11*
X82550000Y-57150000D03*
D10*
X78740000Y-54610000D03*
D12*
X77470000Y-57150000D03*
X87630000Y-57150000D03*
G04 #@! TD*
D10*
G04 #@! TO.C,MX1*
X27940000Y-52070000D03*
D11*
X25400000Y-57150000D03*
D10*
X21590000Y-54610000D03*
D12*
X20320000Y-57150000D03*
X30480000Y-57150000D03*
G04 #@! TD*
G04 #@! TO.C,F1*
G36*
G01*
X56825000Y-71905000D02*
X56825000Y-70595000D01*
G75*
G02*
X57095000Y-70325000I270000J0D01*
G01*
X57905000Y-70325000D01*
G75*
G02*
X58175000Y-70595000I0J-270000D01*
G01*
X58175000Y-71905000D01*
G75*
G02*
X57905000Y-72175000I-270000J0D01*
G01*
X57095000Y-72175000D01*
G75*
G02*
X56825000Y-71905000I0J270000D01*
G01*
G37*
G36*
G01*
X54025000Y-71905000D02*
X54025000Y-70595000D01*
G75*
G02*
X54295000Y-70325000I270000J0D01*
G01*
X55105000Y-70325000D01*
G75*
G02*
X55375000Y-70595000I0J-270000D01*
G01*
X55375000Y-71905000D01*
G75*
G02*
X55105000Y-72175000I-270000J0D01*
G01*
X54295000Y-72175000D01*
G75*
G02*
X54025000Y-71905000I0J270000D01*
G01*
G37*
G04 #@! TD*
G04 #@! TO.C,D49*
G36*
G01*
X281587500Y-113150000D02*
X280387500Y-113150000D01*
G75*
G02*
X280337500Y-113100000I0J50000D01*
G01*
X280337500Y-112200000D01*
G75*
G02*
X280387500Y-112150000I50000J0D01*
G01*
X281587500Y-112150000D01*
G75*
G02*
X281637500Y-112200000I0J-50000D01*
G01*
X281637500Y-113100000D01*
G75*
G02*
X281587500Y-113150000I-50000J0D01*
G01*
G37*
G36*
G01*
X281587500Y-116450000D02*
X280387500Y-116450000D01*
G75*
G02*
X280337500Y-116400000I0J50000D01*
G01*
X280337500Y-115500000D01*
G75*
G02*
X280387500Y-115450000I50000J0D01*
G01*
X281587500Y-115450000D01*
G75*
G02*
X281637500Y-115500000I0J-50000D01*
G01*
X281637500Y-116400000D01*
G75*
G02*
X281587500Y-116450000I-50000J0D01*
G01*
G37*
G04 #@! TD*
G04 #@! TO.C,D48*
G36*
G01*
X260156250Y-113150000D02*
X258956250Y-113150000D01*
G75*
G02*
X258906250Y-113100000I0J50000D01*
G01*
X258906250Y-112200000D01*
G75*
G02*
X258956250Y-112150000I50000J0D01*
G01*
X260156250Y-112150000D01*
G75*
G02*
X260206250Y-112200000I0J-50000D01*
G01*
X260206250Y-113100000D01*
G75*
G02*
X260156250Y-113150000I-50000J0D01*
G01*
G37*
G36*
G01*
X260156250Y-116450000D02*
X258956250Y-116450000D01*
G75*
G02*
X258906250Y-116400000I0J50000D01*
G01*
X258906250Y-115500000D01*
G75*
G02*
X258956250Y-115450000I50000J0D01*
G01*
X260156250Y-115450000D01*
G75*
G02*
X260206250Y-115500000I0J-50000D01*
G01*
X260206250Y-116400000D01*
G75*
G02*
X260156250Y-116450000I-50000J0D01*
G01*
G37*
G04 #@! TD*
G04 #@! TO.C,D47*
G36*
G01*
X233962500Y-113150000D02*
X232762500Y-113150000D01*
G75*
G02*
X232712500Y-113100000I0J50000D01*
G01*
X232712500Y-112200000D01*
G75*
G02*
X232762500Y-112150000I50000J0D01*
G01*
X233962500Y-112150000D01*
G75*
G02*
X234012500Y-112200000I0J-50000D01*
G01*
X234012500Y-113100000D01*
G75*
G02*
X233962500Y-113150000I-50000J0D01*
G01*
G37*
G36*
G01*
X233962500Y-116450000D02*
X232762500Y-116450000D01*
G75*
G02*
X232712500Y-116400000I0J50000D01*
G01*
X232712500Y-115500000D01*
G75*
G02*
X232762500Y-115450000I50000J0D01*
G01*
X233962500Y-115450000D01*
G75*
G02*
X234012500Y-115500000I0J-50000D01*
G01*
X234012500Y-116400000D01*
G75*
G02*
X233962500Y-116450000I-50000J0D01*
G01*
G37*
G04 #@! TD*
G04 #@! TO.C,D46*
G36*
G01*
X207768750Y-113150000D02*
X206568750Y-113150000D01*
G75*
G02*
X206518750Y-113100000I0J50000D01*
G01*
X206518750Y-112200000D01*
G75*
G02*
X206568750Y-112150000I50000J0D01*
G01*
X207768750Y-112150000D01*
G75*
G02*
X207818750Y-112200000I0J-50000D01*
G01*
X207818750Y-113100000D01*
G75*
G02*
X207768750Y-113150000I-50000J0D01*
G01*
G37*
G36*
G01*
X207768750Y-116450000D02*
X206568750Y-116450000D01*
G75*
G02*
X206518750Y-116400000I0J50000D01*
G01*
X206518750Y-115500000D01*
G75*
G02*
X206568750Y-115450000I50000J0D01*
G01*
X207768750Y-115450000D01*
G75*
G02*
X207818750Y-115500000I0J-50000D01*
G01*
X207818750Y-116400000D01*
G75*
G02*
X207768750Y-116450000I-50000J0D01*
G01*
G37*
G04 #@! TD*
G04 #@! TO.C,D45*
G36*
G01*
X169668750Y-113150000D02*
X168468750Y-113150000D01*
G75*
G02*
X168418750Y-113100000I0J50000D01*
G01*
X168418750Y-112200000D01*
G75*
G02*
X168468750Y-112150000I50000J0D01*
G01*
X169668750Y-112150000D01*
G75*
G02*
X169718750Y-112200000I0J-50000D01*
G01*
X169718750Y-113100000D01*
G75*
G02*
X169668750Y-113150000I-50000J0D01*
G01*
G37*
G36*
G01*
X169668750Y-116450000D02*
X168468750Y-116450000D01*
G75*
G02*
X168418750Y-116400000I0J50000D01*
G01*
X168418750Y-115500000D01*
G75*
G02*
X168468750Y-115450000I50000J0D01*
G01*
X169668750Y-115450000D01*
G75*
G02*
X169718750Y-115500000I0J-50000D01*
G01*
X169718750Y-116400000D01*
G75*
G02*
X169668750Y-116450000I-50000J0D01*
G01*
G37*
G04 #@! TD*
G04 #@! TO.C,D44*
G36*
G01*
X122043750Y-113150000D02*
X120843750Y-113150000D01*
G75*
G02*
X120793750Y-113100000I0J50000D01*
G01*
X120793750Y-112200000D01*
G75*
G02*
X120843750Y-112150000I50000J0D01*
G01*
X122043750Y-112150000D01*
G75*
G02*
X122093750Y-112200000I0J-50000D01*
G01*
X122093750Y-113100000D01*
G75*
G02*
X122043750Y-113150000I-50000J0D01*
G01*
G37*
G36*
G01*
X122043750Y-116450000D02*
X120843750Y-116450000D01*
G75*
G02*
X120793750Y-116400000I0J50000D01*
G01*
X120793750Y-115500000D01*
G75*
G02*
X120843750Y-115450000I50000J0D01*
G01*
X122043750Y-115450000D01*
G75*
G02*
X122093750Y-115500000I0J-50000D01*
G01*
X122093750Y-116400000D01*
G75*
G02*
X122043750Y-116450000I-50000J0D01*
G01*
G37*
G04 #@! TD*
G04 #@! TO.C,D43*
G36*
G01*
X88706250Y-113150000D02*
X87506250Y-113150000D01*
G75*
G02*
X87456250Y-113100000I0J50000D01*
G01*
X87456250Y-112200000D01*
G75*
G02*
X87506250Y-112150000I50000J0D01*
G01*
X88706250Y-112150000D01*
G75*
G02*
X88756250Y-112200000I0J-50000D01*
G01*
X88756250Y-113100000D01*
G75*
G02*
X88706250Y-113150000I-50000J0D01*
G01*
G37*
G36*
G01*
X88706250Y-116450000D02*
X87506250Y-116450000D01*
G75*
G02*
X87456250Y-116400000I0J50000D01*
G01*
X87456250Y-115500000D01*
G75*
G02*
X87506250Y-115450000I50000J0D01*
G01*
X88706250Y-115450000D01*
G75*
G02*
X88756250Y-115500000I0J-50000D01*
G01*
X88756250Y-116400000D01*
G75*
G02*
X88706250Y-116450000I-50000J0D01*
G01*
G37*
G04 #@! TD*
G04 #@! TO.C,D42*
G36*
G01*
X62512500Y-113150000D02*
X61312500Y-113150000D01*
G75*
G02*
X61262500Y-113100000I0J50000D01*
G01*
X61262500Y-112200000D01*
G75*
G02*
X61312500Y-112150000I50000J0D01*
G01*
X62512500Y-112150000D01*
G75*
G02*
X62562500Y-112200000I0J-50000D01*
G01*
X62562500Y-113100000D01*
G75*
G02*
X62512500Y-113150000I-50000J0D01*
G01*
G37*
G36*
G01*
X62512500Y-116450000D02*
X61312500Y-116450000D01*
G75*
G02*
X61262500Y-116400000I0J50000D01*
G01*
X61262500Y-115500000D01*
G75*
G02*
X61312500Y-115450000I50000J0D01*
G01*
X62512500Y-115450000D01*
G75*
G02*
X62562500Y-115500000I0J-50000D01*
G01*
X62562500Y-116400000D01*
G75*
G02*
X62512500Y-116450000I-50000J0D01*
G01*
G37*
G04 #@! TD*
G04 #@! TO.C,D41*
G36*
G01*
X36318750Y-113150000D02*
X35118750Y-113150000D01*
G75*
G02*
X35068750Y-113100000I0J50000D01*
G01*
X35068750Y-112200000D01*
G75*
G02*
X35118750Y-112150000I50000J0D01*
G01*
X36318750Y-112150000D01*
G75*
G02*
X36368750Y-112200000I0J-50000D01*
G01*
X36368750Y-113100000D01*
G75*
G02*
X36318750Y-113150000I-50000J0D01*
G01*
G37*
G36*
G01*
X36318750Y-116450000D02*
X35118750Y-116450000D01*
G75*
G02*
X35068750Y-116400000I0J50000D01*
G01*
X35068750Y-115500000D01*
G75*
G02*
X35118750Y-115450000I50000J0D01*
G01*
X36318750Y-115450000D01*
G75*
G02*
X36368750Y-115500000I0J-50000D01*
G01*
X36368750Y-116400000D01*
G75*
G02*
X36318750Y-116450000I-50000J0D01*
G01*
G37*
G04 #@! TD*
G04 #@! TO.C,D40*
G36*
G01*
X281587500Y-94100000D02*
X280387500Y-94100000D01*
G75*
G02*
X280337500Y-94050000I0J50000D01*
G01*
X280337500Y-93150000D01*
G75*
G02*
X280387500Y-93100000I50000J0D01*
G01*
X281587500Y-93100000D01*
G75*
G02*
X281637500Y-93150000I0J-50000D01*
G01*
X281637500Y-94050000D01*
G75*
G02*
X281587500Y-94100000I-50000J0D01*
G01*
G37*
G36*
G01*
X281587500Y-97400000D02*
X280387500Y-97400000D01*
G75*
G02*
X280337500Y-97350000I0J50000D01*
G01*
X280337500Y-96450000D01*
G75*
G02*
X280387500Y-96400000I50000J0D01*
G01*
X281587500Y-96400000D01*
G75*
G02*
X281637500Y-96450000I0J-50000D01*
G01*
X281637500Y-97350000D01*
G75*
G02*
X281587500Y-97400000I-50000J0D01*
G01*
G37*
G04 #@! TD*
G04 #@! TO.C,D39*
G36*
G01*
X260156250Y-94100000D02*
X258956250Y-94100000D01*
G75*
G02*
X258906250Y-94050000I0J50000D01*
G01*
X258906250Y-93150000D01*
G75*
G02*
X258956250Y-93100000I50000J0D01*
G01*
X260156250Y-93100000D01*
G75*
G02*
X260206250Y-93150000I0J-50000D01*
G01*
X260206250Y-94050000D01*
G75*
G02*
X260156250Y-94100000I-50000J0D01*
G01*
G37*
G36*
G01*
X260156250Y-97400000D02*
X258956250Y-97400000D01*
G75*
G02*
X258906250Y-97350000I0J50000D01*
G01*
X258906250Y-96450000D01*
G75*
G02*
X258956250Y-96400000I50000J0D01*
G01*
X260156250Y-96400000D01*
G75*
G02*
X260206250Y-96450000I0J-50000D01*
G01*
X260206250Y-97350000D01*
G75*
G02*
X260156250Y-97400000I-50000J0D01*
G01*
G37*
G04 #@! TD*
G04 #@! TO.C,D38*
G36*
G01*
X238725000Y-94100000D02*
X237525000Y-94100000D01*
G75*
G02*
X237475000Y-94050000I0J50000D01*
G01*
X237475000Y-93150000D01*
G75*
G02*
X237525000Y-93100000I50000J0D01*
G01*
X238725000Y-93100000D01*
G75*
G02*
X238775000Y-93150000I0J-50000D01*
G01*
X238775000Y-94050000D01*
G75*
G02*
X238725000Y-94100000I-50000J0D01*
G01*
G37*
G36*
G01*
X238725000Y-97400000D02*
X237525000Y-97400000D01*
G75*
G02*
X237475000Y-97350000I0J50000D01*
G01*
X237475000Y-96450000D01*
G75*
G02*
X237525000Y-96400000I50000J0D01*
G01*
X238725000Y-96400000D01*
G75*
G02*
X238775000Y-96450000I0J-50000D01*
G01*
X238775000Y-97350000D01*
G75*
G02*
X238725000Y-97400000I-50000J0D01*
G01*
G37*
G04 #@! TD*
G04 #@! TO.C,D37*
G36*
G01*
X219675000Y-94100000D02*
X218475000Y-94100000D01*
G75*
G02*
X218425000Y-94050000I0J50000D01*
G01*
X218425000Y-93150000D01*
G75*
G02*
X218475000Y-93100000I50000J0D01*
G01*
X219675000Y-93100000D01*
G75*
G02*
X219725000Y-93150000I0J-50000D01*
G01*
X219725000Y-94050000D01*
G75*
G02*
X219675000Y-94100000I-50000J0D01*
G01*
G37*
G36*
G01*
X219675000Y-97400000D02*
X218475000Y-97400000D01*
G75*
G02*
X218425000Y-97350000I0J50000D01*
G01*
X218425000Y-96450000D01*
G75*
G02*
X218475000Y-96400000I50000J0D01*
G01*
X219675000Y-96400000D01*
G75*
G02*
X219725000Y-96450000I0J-50000D01*
G01*
X219725000Y-97350000D01*
G75*
G02*
X219675000Y-97400000I-50000J0D01*
G01*
G37*
G04 #@! TD*
G04 #@! TO.C,D36*
G36*
G01*
X200625000Y-94100000D02*
X199425000Y-94100000D01*
G75*
G02*
X199375000Y-94050000I0J50000D01*
G01*
X199375000Y-93150000D01*
G75*
G02*
X199425000Y-93100000I50000J0D01*
G01*
X200625000Y-93100000D01*
G75*
G02*
X200675000Y-93150000I0J-50000D01*
G01*
X200675000Y-94050000D01*
G75*
G02*
X200625000Y-94100000I-50000J0D01*
G01*
G37*
G36*
G01*
X200625000Y-97400000D02*
X199425000Y-97400000D01*
G75*
G02*
X199375000Y-97350000I0J50000D01*
G01*
X199375000Y-96450000D01*
G75*
G02*
X199425000Y-96400000I50000J0D01*
G01*
X200625000Y-96400000D01*
G75*
G02*
X200675000Y-96450000I0J-50000D01*
G01*
X200675000Y-97350000D01*
G75*
G02*
X200625000Y-97400000I-50000J0D01*
G01*
G37*
G04 #@! TD*
G04 #@! TO.C,D35*
G36*
G01*
X181575000Y-94100000D02*
X180375000Y-94100000D01*
G75*
G02*
X180325000Y-94050000I0J50000D01*
G01*
X180325000Y-93150000D01*
G75*
G02*
X180375000Y-93100000I50000J0D01*
G01*
X181575000Y-93100000D01*
G75*
G02*
X181625000Y-93150000I0J-50000D01*
G01*
X181625000Y-94050000D01*
G75*
G02*
X181575000Y-94100000I-50000J0D01*
G01*
G37*
G36*
G01*
X181575000Y-97400000D02*
X180375000Y-97400000D01*
G75*
G02*
X180325000Y-97350000I0J50000D01*
G01*
X180325000Y-96450000D01*
G75*
G02*
X180375000Y-96400000I50000J0D01*
G01*
X181575000Y-96400000D01*
G75*
G02*
X181625000Y-96450000I0J-50000D01*
G01*
X181625000Y-97350000D01*
G75*
G02*
X181575000Y-97400000I-50000J0D01*
G01*
G37*
G04 #@! TD*
G04 #@! TO.C,D34*
G36*
G01*
X162525000Y-94100000D02*
X161325000Y-94100000D01*
G75*
G02*
X161275000Y-94050000I0J50000D01*
G01*
X161275000Y-93150000D01*
G75*
G02*
X161325000Y-93100000I50000J0D01*
G01*
X162525000Y-93100000D01*
G75*
G02*
X162575000Y-93150000I0J-50000D01*
G01*
X162575000Y-94050000D01*
G75*
G02*
X162525000Y-94100000I-50000J0D01*
G01*
G37*
G36*
G01*
X162525000Y-97400000D02*
X161325000Y-97400000D01*
G75*
G02*
X161275000Y-97350000I0J50000D01*
G01*
X161275000Y-96450000D01*
G75*
G02*
X161325000Y-96400000I50000J0D01*
G01*
X162525000Y-96400000D01*
G75*
G02*
X162575000Y-96450000I0J-50000D01*
G01*
X162575000Y-97350000D01*
G75*
G02*
X162525000Y-97400000I-50000J0D01*
G01*
G37*
G04 #@! TD*
G04 #@! TO.C,D33*
G36*
G01*
X143475000Y-94100000D02*
X142275000Y-94100000D01*
G75*
G02*
X142225000Y-94050000I0J50000D01*
G01*
X142225000Y-93150000D01*
G75*
G02*
X142275000Y-93100000I50000J0D01*
G01*
X143475000Y-93100000D01*
G75*
G02*
X143525000Y-93150000I0J-50000D01*
G01*
X143525000Y-94050000D01*
G75*
G02*
X143475000Y-94100000I-50000J0D01*
G01*
G37*
G36*
G01*
X143475000Y-97400000D02*
X142275000Y-97400000D01*
G75*
G02*
X142225000Y-97350000I0J50000D01*
G01*
X142225000Y-96450000D01*
G75*
G02*
X142275000Y-96400000I50000J0D01*
G01*
X143475000Y-96400000D01*
G75*
G02*
X143525000Y-96450000I0J-50000D01*
G01*
X143525000Y-97350000D01*
G75*
G02*
X143475000Y-97400000I-50000J0D01*
G01*
G37*
G04 #@! TD*
G04 #@! TO.C,D32*
G36*
G01*
X124425000Y-94100000D02*
X123225000Y-94100000D01*
G75*
G02*
X123175000Y-94050000I0J50000D01*
G01*
X123175000Y-93150000D01*
G75*
G02*
X123225000Y-93100000I50000J0D01*
G01*
X124425000Y-93100000D01*
G75*
G02*
X124475000Y-93150000I0J-50000D01*
G01*
X124475000Y-94050000D01*
G75*
G02*
X124425000Y-94100000I-50000J0D01*
G01*
G37*
G36*
G01*
X124425000Y-97400000D02*
X123225000Y-97400000D01*
G75*
G02*
X123175000Y-97350000I0J50000D01*
G01*
X123175000Y-96450000D01*
G75*
G02*
X123225000Y-96400000I50000J0D01*
G01*
X124425000Y-96400000D01*
G75*
G02*
X124475000Y-96450000I0J-50000D01*
G01*
X124475000Y-97350000D01*
G75*
G02*
X124425000Y-97400000I-50000J0D01*
G01*
G37*
G04 #@! TD*
G04 #@! TO.C,D31*
G36*
G01*
X105375000Y-94100000D02*
X104175000Y-94100000D01*
G75*
G02*
X104125000Y-94050000I0J50000D01*
G01*
X104125000Y-93150000D01*
G75*
G02*
X104175000Y-93100000I50000J0D01*
G01*
X105375000Y-93100000D01*
G75*
G02*
X105425000Y-93150000I0J-50000D01*
G01*
X105425000Y-94050000D01*
G75*
G02*
X105375000Y-94100000I-50000J0D01*
G01*
G37*
G36*
G01*
X105375000Y-97400000D02*
X104175000Y-97400000D01*
G75*
G02*
X104125000Y-97350000I0J50000D01*
G01*
X104125000Y-96450000D01*
G75*
G02*
X104175000Y-96400000I50000J0D01*
G01*
X105375000Y-96400000D01*
G75*
G02*
X105425000Y-96450000I0J-50000D01*
G01*
X105425000Y-97350000D01*
G75*
G02*
X105375000Y-97400000I-50000J0D01*
G01*
G37*
G04 #@! TD*
G04 #@! TO.C,D30*
G36*
G01*
X86325000Y-94100000D02*
X85125000Y-94100000D01*
G75*
G02*
X85075000Y-94050000I0J50000D01*
G01*
X85075000Y-93150000D01*
G75*
G02*
X85125000Y-93100000I50000J0D01*
G01*
X86325000Y-93100000D01*
G75*
G02*
X86375000Y-93150000I0J-50000D01*
G01*
X86375000Y-94050000D01*
G75*
G02*
X86325000Y-94100000I-50000J0D01*
G01*
G37*
G36*
G01*
X86325000Y-97400000D02*
X85125000Y-97400000D01*
G75*
G02*
X85075000Y-97350000I0J50000D01*
G01*
X85075000Y-96450000D01*
G75*
G02*
X85125000Y-96400000I50000J0D01*
G01*
X86325000Y-96400000D01*
G75*
G02*
X86375000Y-96450000I0J-50000D01*
G01*
X86375000Y-97350000D01*
G75*
G02*
X86325000Y-97400000I-50000J0D01*
G01*
G37*
G04 #@! TD*
G04 #@! TO.C,D29*
G36*
G01*
X67275000Y-94100000D02*
X66075000Y-94100000D01*
G75*
G02*
X66025000Y-94050000I0J50000D01*
G01*
X66025000Y-93150000D01*
G75*
G02*
X66075000Y-93100000I50000J0D01*
G01*
X67275000Y-93100000D01*
G75*
G02*
X67325000Y-93150000I0J-50000D01*
G01*
X67325000Y-94050000D01*
G75*
G02*
X67275000Y-94100000I-50000J0D01*
G01*
G37*
G36*
G01*
X67275000Y-97400000D02*
X66075000Y-97400000D01*
G75*
G02*
X66025000Y-97350000I0J50000D01*
G01*
X66025000Y-96450000D01*
G75*
G02*
X66075000Y-96400000I50000J0D01*
G01*
X67275000Y-96400000D01*
G75*
G02*
X67325000Y-96450000I0J-50000D01*
G01*
X67325000Y-97350000D01*
G75*
G02*
X67275000Y-97400000I-50000J0D01*
G01*
G37*
G04 #@! TD*
G04 #@! TO.C,D28*
G36*
G01*
X25100000Y-94100000D02*
X23900000Y-94100000D01*
G75*
G02*
X23850000Y-94050000I0J50000D01*
G01*
X23850000Y-93150000D01*
G75*
G02*
X23900000Y-93100000I50000J0D01*
G01*
X25100000Y-93100000D01*
G75*
G02*
X25150000Y-93150000I0J-50000D01*
G01*
X25150000Y-94050000D01*
G75*
G02*
X25100000Y-94100000I-50000J0D01*
G01*
G37*
G36*
G01*
X25100000Y-97400000D02*
X23900000Y-97400000D01*
G75*
G02*
X23850000Y-97350000I0J50000D01*
G01*
X23850000Y-96450000D01*
G75*
G02*
X23900000Y-96400000I50000J0D01*
G01*
X25100000Y-96400000D01*
G75*
G02*
X25150000Y-96450000I0J-50000D01*
G01*
X25150000Y-97350000D01*
G75*
G02*
X25100000Y-97400000I-50000J0D01*
G01*
G37*
G04 #@! TD*
G04 #@! TO.C,D27*
G36*
G01*
X274443750Y-75050000D02*
X273243750Y-75050000D01*
G75*
G02*
X273193750Y-75000000I0J50000D01*
G01*
X273193750Y-74100000D01*
G75*
G02*
X273243750Y-74050000I50000J0D01*
G01*
X274443750Y-74050000D01*
G75*
G02*
X274493750Y-74100000I0J-50000D01*
G01*
X274493750Y-75000000D01*
G75*
G02*
X274443750Y-75050000I-50000J0D01*
G01*
G37*
G36*
G01*
X274443750Y-78350000D02*
X273243750Y-78350000D01*
G75*
G02*
X273193750Y-78300000I0J50000D01*
G01*
X273193750Y-77400000D01*
G75*
G02*
X273243750Y-77350000I50000J0D01*
G01*
X274443750Y-77350000D01*
G75*
G02*
X274493750Y-77400000I0J-50000D01*
G01*
X274493750Y-78300000D01*
G75*
G02*
X274443750Y-78350000I-50000J0D01*
G01*
G37*
G04 #@! TD*
G04 #@! TO.C,D26*
G36*
G01*
X248250000Y-75050000D02*
X247050000Y-75050000D01*
G75*
G02*
X247000000Y-75000000I0J50000D01*
G01*
X247000000Y-74100000D01*
G75*
G02*
X247050000Y-74050000I50000J0D01*
G01*
X248250000Y-74050000D01*
G75*
G02*
X248300000Y-74100000I0J-50000D01*
G01*
X248300000Y-75000000D01*
G75*
G02*
X248250000Y-75050000I-50000J0D01*
G01*
G37*
G36*
G01*
X248250000Y-78350000D02*
X247050000Y-78350000D01*
G75*
G02*
X247000000Y-78300000I0J50000D01*
G01*
X247000000Y-77400000D01*
G75*
G02*
X247050000Y-77350000I50000J0D01*
G01*
X248250000Y-77350000D01*
G75*
G02*
X248300000Y-77400000I0J-50000D01*
G01*
X248300000Y-78300000D01*
G75*
G02*
X248250000Y-78350000I-50000J0D01*
G01*
G37*
G04 #@! TD*
G04 #@! TO.C,D25*
G36*
G01*
X229200000Y-75050000D02*
X228000000Y-75050000D01*
G75*
G02*
X227950000Y-75000000I0J50000D01*
G01*
X227950000Y-74100000D01*
G75*
G02*
X228000000Y-74050000I50000J0D01*
G01*
X229200000Y-74050000D01*
G75*
G02*
X229250000Y-74100000I0J-50000D01*
G01*
X229250000Y-75000000D01*
G75*
G02*
X229200000Y-75050000I-50000J0D01*
G01*
G37*
G36*
G01*
X229200000Y-78350000D02*
X228000000Y-78350000D01*
G75*
G02*
X227950000Y-78300000I0J50000D01*
G01*
X227950000Y-77400000D01*
G75*
G02*
X228000000Y-77350000I50000J0D01*
G01*
X229200000Y-77350000D01*
G75*
G02*
X229250000Y-77400000I0J-50000D01*
G01*
X229250000Y-78300000D01*
G75*
G02*
X229200000Y-78350000I-50000J0D01*
G01*
G37*
G04 #@! TD*
G04 #@! TO.C,D24*
G36*
G01*
X210150000Y-75050000D02*
X208950000Y-75050000D01*
G75*
G02*
X208900000Y-75000000I0J50000D01*
G01*
X208900000Y-74100000D01*
G75*
G02*
X208950000Y-74050000I50000J0D01*
G01*
X210150000Y-74050000D01*
G75*
G02*
X210200000Y-74100000I0J-50000D01*
G01*
X210200000Y-75000000D01*
G75*
G02*
X210150000Y-75050000I-50000J0D01*
G01*
G37*
G36*
G01*
X210150000Y-78350000D02*
X208950000Y-78350000D01*
G75*
G02*
X208900000Y-78300000I0J50000D01*
G01*
X208900000Y-77400000D01*
G75*
G02*
X208950000Y-77350000I50000J0D01*
G01*
X210150000Y-77350000D01*
G75*
G02*
X210200000Y-77400000I0J-50000D01*
G01*
X210200000Y-78300000D01*
G75*
G02*
X210150000Y-78350000I-50000J0D01*
G01*
G37*
G04 #@! TD*
G04 #@! TO.C,D23*
G36*
G01*
X191100000Y-75050000D02*
X189900000Y-75050000D01*
G75*
G02*
X189850000Y-75000000I0J50000D01*
G01*
X189850000Y-74100000D01*
G75*
G02*
X189900000Y-74050000I50000J0D01*
G01*
X191100000Y-74050000D01*
G75*
G02*
X191150000Y-74100000I0J-50000D01*
G01*
X191150000Y-75000000D01*
G75*
G02*
X191100000Y-75050000I-50000J0D01*
G01*
G37*
G36*
G01*
X191100000Y-78350000D02*
X189900000Y-78350000D01*
G75*
G02*
X189850000Y-78300000I0J50000D01*
G01*
X189850000Y-77400000D01*
G75*
G02*
X189900000Y-77350000I50000J0D01*
G01*
X191100000Y-77350000D01*
G75*
G02*
X191150000Y-77400000I0J-50000D01*
G01*
X191150000Y-78300000D01*
G75*
G02*
X191100000Y-78350000I-50000J0D01*
G01*
G37*
G04 #@! TD*
G04 #@! TO.C,D22*
G36*
G01*
X172050000Y-75050000D02*
X170850000Y-75050000D01*
G75*
G02*
X170800000Y-75000000I0J50000D01*
G01*
X170800000Y-74100000D01*
G75*
G02*
X170850000Y-74050000I50000J0D01*
G01*
X172050000Y-74050000D01*
G75*
G02*
X172100000Y-74100000I0J-50000D01*
G01*
X172100000Y-75000000D01*
G75*
G02*
X172050000Y-75050000I-50000J0D01*
G01*
G37*
G36*
G01*
X172050000Y-78350000D02*
X170850000Y-78350000D01*
G75*
G02*
X170800000Y-78300000I0J50000D01*
G01*
X170800000Y-77400000D01*
G75*
G02*
X170850000Y-77350000I50000J0D01*
G01*
X172050000Y-77350000D01*
G75*
G02*
X172100000Y-77400000I0J-50000D01*
G01*
X172100000Y-78300000D01*
G75*
G02*
X172050000Y-78350000I-50000J0D01*
G01*
G37*
G04 #@! TD*
G04 #@! TO.C,D21*
G36*
G01*
X153000000Y-75050000D02*
X151800000Y-75050000D01*
G75*
G02*
X151750000Y-75000000I0J50000D01*
G01*
X151750000Y-74100000D01*
G75*
G02*
X151800000Y-74050000I50000J0D01*
G01*
X153000000Y-74050000D01*
G75*
G02*
X153050000Y-74100000I0J-50000D01*
G01*
X153050000Y-75000000D01*
G75*
G02*
X153000000Y-75050000I-50000J0D01*
G01*
G37*
G36*
G01*
X153000000Y-78350000D02*
X151800000Y-78350000D01*
G75*
G02*
X151750000Y-78300000I0J50000D01*
G01*
X151750000Y-77400000D01*
G75*
G02*
X151800000Y-77350000I50000J0D01*
G01*
X153000000Y-77350000D01*
G75*
G02*
X153050000Y-77400000I0J-50000D01*
G01*
X153050000Y-78300000D01*
G75*
G02*
X153000000Y-78350000I-50000J0D01*
G01*
G37*
G04 #@! TD*
G04 #@! TO.C,D20*
G36*
G01*
X133950000Y-75050000D02*
X132750000Y-75050000D01*
G75*
G02*
X132700000Y-75000000I0J50000D01*
G01*
X132700000Y-74100000D01*
G75*
G02*
X132750000Y-74050000I50000J0D01*
G01*
X133950000Y-74050000D01*
G75*
G02*
X134000000Y-74100000I0J-50000D01*
G01*
X134000000Y-75000000D01*
G75*
G02*
X133950000Y-75050000I-50000J0D01*
G01*
G37*
G36*
G01*
X133950000Y-78350000D02*
X132750000Y-78350000D01*
G75*
G02*
X132700000Y-78300000I0J50000D01*
G01*
X132700000Y-77400000D01*
G75*
G02*
X132750000Y-77350000I50000J0D01*
G01*
X133950000Y-77350000D01*
G75*
G02*
X134000000Y-77400000I0J-50000D01*
G01*
X134000000Y-78300000D01*
G75*
G02*
X133950000Y-78350000I-50000J0D01*
G01*
G37*
G04 #@! TD*
G04 #@! TO.C,D19*
G36*
G01*
X114900000Y-75050000D02*
X113700000Y-75050000D01*
G75*
G02*
X113650000Y-75000000I0J50000D01*
G01*
X113650000Y-74100000D01*
G75*
G02*
X113700000Y-74050000I50000J0D01*
G01*
X114900000Y-74050000D01*
G75*
G02*
X114950000Y-74100000I0J-50000D01*
G01*
X114950000Y-75000000D01*
G75*
G02*
X114900000Y-75050000I-50000J0D01*
G01*
G37*
G36*
G01*
X114900000Y-78350000D02*
X113700000Y-78350000D01*
G75*
G02*
X113650000Y-78300000I0J50000D01*
G01*
X113650000Y-77400000D01*
G75*
G02*
X113700000Y-77350000I50000J0D01*
G01*
X114900000Y-77350000D01*
G75*
G02*
X114950000Y-77400000I0J-50000D01*
G01*
X114950000Y-78300000D01*
G75*
G02*
X114900000Y-78350000I-50000J0D01*
G01*
G37*
G04 #@! TD*
G04 #@! TO.C,D18*
G36*
G01*
X95850000Y-75050000D02*
X94650000Y-75050000D01*
G75*
G02*
X94600000Y-75000000I0J50000D01*
G01*
X94600000Y-74100000D01*
G75*
G02*
X94650000Y-74050000I50000J0D01*
G01*
X95850000Y-74050000D01*
G75*
G02*
X95900000Y-74100000I0J-50000D01*
G01*
X95900000Y-75000000D01*
G75*
G02*
X95850000Y-75050000I-50000J0D01*
G01*
G37*
G36*
G01*
X95850000Y-78350000D02*
X94650000Y-78350000D01*
G75*
G02*
X94600000Y-78300000I0J50000D01*
G01*
X94600000Y-77400000D01*
G75*
G02*
X94650000Y-77350000I50000J0D01*
G01*
X95850000Y-77350000D01*
G75*
G02*
X95900000Y-77400000I0J-50000D01*
G01*
X95900000Y-78300000D01*
G75*
G02*
X95850000Y-78350000I-50000J0D01*
G01*
G37*
G04 #@! TD*
G04 #@! TO.C,D17*
G36*
G01*
X76800000Y-75050000D02*
X75600000Y-75050000D01*
G75*
G02*
X75550000Y-75000000I0J50000D01*
G01*
X75550000Y-74100000D01*
G75*
G02*
X75600000Y-74050000I50000J0D01*
G01*
X76800000Y-74050000D01*
G75*
G02*
X76850000Y-74100000I0J-50000D01*
G01*
X76850000Y-75000000D01*
G75*
G02*
X76800000Y-75050000I-50000J0D01*
G01*
G37*
G36*
G01*
X76800000Y-78350000D02*
X75600000Y-78350000D01*
G75*
G02*
X75550000Y-78300000I0J50000D01*
G01*
X75550000Y-77400000D01*
G75*
G02*
X75600000Y-77350000I50000J0D01*
G01*
X76800000Y-77350000D01*
G75*
G02*
X76850000Y-77400000I0J-50000D01*
G01*
X76850000Y-78300000D01*
G75*
G02*
X76800000Y-78350000I-50000J0D01*
G01*
G37*
G04 #@! TD*
G04 #@! TO.C,D16*
G36*
G01*
X57750000Y-75050000D02*
X56550000Y-75050000D01*
G75*
G02*
X56500000Y-75000000I0J50000D01*
G01*
X56500000Y-74100000D01*
G75*
G02*
X56550000Y-74050000I50000J0D01*
G01*
X57750000Y-74050000D01*
G75*
G02*
X57800000Y-74100000I0J-50000D01*
G01*
X57800000Y-75000000D01*
G75*
G02*
X57750000Y-75050000I-50000J0D01*
G01*
G37*
G36*
G01*
X57750000Y-78350000D02*
X56550000Y-78350000D01*
G75*
G02*
X56500000Y-78300000I0J50000D01*
G01*
X56500000Y-77400000D01*
G75*
G02*
X56550000Y-77350000I50000J0D01*
G01*
X57750000Y-77350000D01*
G75*
G02*
X57800000Y-77400000I0J-50000D01*
G01*
X57800000Y-78300000D01*
G75*
G02*
X57750000Y-78350000I-50000J0D01*
G01*
G37*
G04 #@! TD*
G04 #@! TO.C,D15*
G36*
G01*
X36318750Y-75050000D02*
X35118750Y-75050000D01*
G75*
G02*
X35068750Y-75000000I0J50000D01*
G01*
X35068750Y-74100000D01*
G75*
G02*
X35118750Y-74050000I50000J0D01*
G01*
X36318750Y-74050000D01*
G75*
G02*
X36368750Y-74100000I0J-50000D01*
G01*
X36368750Y-75000000D01*
G75*
G02*
X36318750Y-75050000I-50000J0D01*
G01*
G37*
G36*
G01*
X36318750Y-78350000D02*
X35118750Y-78350000D01*
G75*
G02*
X35068750Y-78300000I0J50000D01*
G01*
X35068750Y-77400000D01*
G75*
G02*
X35118750Y-77350000I50000J0D01*
G01*
X36318750Y-77350000D01*
G75*
G02*
X36368750Y-77400000I0J-50000D01*
G01*
X36368750Y-78300000D01*
G75*
G02*
X36318750Y-78350000I-50000J0D01*
G01*
G37*
G04 #@! TD*
G04 #@! TO.C,D14*
G36*
G01*
X281587500Y-56000000D02*
X280387500Y-56000000D01*
G75*
G02*
X280337500Y-55950000I0J50000D01*
G01*
X280337500Y-55050000D01*
G75*
G02*
X280387500Y-55000000I50000J0D01*
G01*
X281587500Y-55000000D01*
G75*
G02*
X281637500Y-55050000I0J-50000D01*
G01*
X281637500Y-55950000D01*
G75*
G02*
X281587500Y-56000000I-50000J0D01*
G01*
G37*
G36*
G01*
X281587500Y-59300000D02*
X280387500Y-59300000D01*
G75*
G02*
X280337500Y-59250000I0J50000D01*
G01*
X280337500Y-58350000D01*
G75*
G02*
X280387500Y-58300000I50000J0D01*
G01*
X281587500Y-58300000D01*
G75*
G02*
X281637500Y-58350000I0J-50000D01*
G01*
X281637500Y-59250000D01*
G75*
G02*
X281587500Y-59300000I-50000J0D01*
G01*
G37*
G04 #@! TD*
G04 #@! TO.C,D13*
G36*
G01*
X262537500Y-56000000D02*
X261337500Y-56000000D01*
G75*
G02*
X261287500Y-55950000I0J50000D01*
G01*
X261287500Y-55050000D01*
G75*
G02*
X261337500Y-55000000I50000J0D01*
G01*
X262537500Y-55000000D01*
G75*
G02*
X262587500Y-55050000I0J-50000D01*
G01*
X262587500Y-55950000D01*
G75*
G02*
X262537500Y-56000000I-50000J0D01*
G01*
G37*
G36*
G01*
X262537500Y-59300000D02*
X261337500Y-59300000D01*
G75*
G02*
X261287500Y-59250000I0J50000D01*
G01*
X261287500Y-58350000D01*
G75*
G02*
X261337500Y-58300000I50000J0D01*
G01*
X262537500Y-58300000D01*
G75*
G02*
X262587500Y-58350000I0J-50000D01*
G01*
X262587500Y-59250000D01*
G75*
G02*
X262537500Y-59300000I-50000J0D01*
G01*
G37*
G04 #@! TD*
G04 #@! TO.C,D12*
G36*
G01*
X243487500Y-56000000D02*
X242287500Y-56000000D01*
G75*
G02*
X242237500Y-55950000I0J50000D01*
G01*
X242237500Y-55050000D01*
G75*
G02*
X242287500Y-55000000I50000J0D01*
G01*
X243487500Y-55000000D01*
G75*
G02*
X243537500Y-55050000I0J-50000D01*
G01*
X243537500Y-55950000D01*
G75*
G02*
X243487500Y-56000000I-50000J0D01*
G01*
G37*
G36*
G01*
X243487500Y-59300000D02*
X242287500Y-59300000D01*
G75*
G02*
X242237500Y-59250000I0J50000D01*
G01*
X242237500Y-58350000D01*
G75*
G02*
X242287500Y-58300000I50000J0D01*
G01*
X243487500Y-58300000D01*
G75*
G02*
X243537500Y-58350000I0J-50000D01*
G01*
X243537500Y-59250000D01*
G75*
G02*
X243487500Y-59300000I-50000J0D01*
G01*
G37*
G04 #@! TD*
G04 #@! TO.C,D11*
G36*
G01*
X224437500Y-56000000D02*
X223237500Y-56000000D01*
G75*
G02*
X223187500Y-55950000I0J50000D01*
G01*
X223187500Y-55050000D01*
G75*
G02*
X223237500Y-55000000I50000J0D01*
G01*
X224437500Y-55000000D01*
G75*
G02*
X224487500Y-55050000I0J-50000D01*
G01*
X224487500Y-55950000D01*
G75*
G02*
X224437500Y-56000000I-50000J0D01*
G01*
G37*
G36*
G01*
X224437500Y-59300000D02*
X223237500Y-59300000D01*
G75*
G02*
X223187500Y-59250000I0J50000D01*
G01*
X223187500Y-58350000D01*
G75*
G02*
X223237500Y-58300000I50000J0D01*
G01*
X224437500Y-58300000D01*
G75*
G02*
X224487500Y-58350000I0J-50000D01*
G01*
X224487500Y-59250000D01*
G75*
G02*
X224437500Y-59300000I-50000J0D01*
G01*
G37*
G04 #@! TD*
G04 #@! TO.C,D10*
G36*
G01*
X205387500Y-56000000D02*
X204187500Y-56000000D01*
G75*
G02*
X204137500Y-55950000I0J50000D01*
G01*
X204137500Y-55050000D01*
G75*
G02*
X204187500Y-55000000I50000J0D01*
G01*
X205387500Y-55000000D01*
G75*
G02*
X205437500Y-55050000I0J-50000D01*
G01*
X205437500Y-55950000D01*
G75*
G02*
X205387500Y-56000000I-50000J0D01*
G01*
G37*
G36*
G01*
X205387500Y-59300000D02*
X204187500Y-59300000D01*
G75*
G02*
X204137500Y-59250000I0J50000D01*
G01*
X204137500Y-58350000D01*
G75*
G02*
X204187500Y-58300000I50000J0D01*
G01*
X205387500Y-58300000D01*
G75*
G02*
X205437500Y-58350000I0J-50000D01*
G01*
X205437500Y-59250000D01*
G75*
G02*
X205387500Y-59300000I-50000J0D01*
G01*
G37*
G04 #@! TD*
G04 #@! TO.C,D9*
G36*
G01*
X186337500Y-56000000D02*
X185137500Y-56000000D01*
G75*
G02*
X185087500Y-55950000I0J50000D01*
G01*
X185087500Y-55050000D01*
G75*
G02*
X185137500Y-55000000I50000J0D01*
G01*
X186337500Y-55000000D01*
G75*
G02*
X186387500Y-55050000I0J-50000D01*
G01*
X186387500Y-55950000D01*
G75*
G02*
X186337500Y-56000000I-50000J0D01*
G01*
G37*
G36*
G01*
X186337500Y-59300000D02*
X185137500Y-59300000D01*
G75*
G02*
X185087500Y-59250000I0J50000D01*
G01*
X185087500Y-58350000D01*
G75*
G02*
X185137500Y-58300000I50000J0D01*
G01*
X186337500Y-58300000D01*
G75*
G02*
X186387500Y-58350000I0J-50000D01*
G01*
X186387500Y-59250000D01*
G75*
G02*
X186337500Y-59300000I-50000J0D01*
G01*
G37*
G04 #@! TD*
G04 #@! TO.C,D8*
G36*
G01*
X167287500Y-56000000D02*
X166087500Y-56000000D01*
G75*
G02*
X166037500Y-55950000I0J50000D01*
G01*
X166037500Y-55050000D01*
G75*
G02*
X166087500Y-55000000I50000J0D01*
G01*
X167287500Y-55000000D01*
G75*
G02*
X167337500Y-55050000I0J-50000D01*
G01*
X167337500Y-55950000D01*
G75*
G02*
X167287500Y-56000000I-50000J0D01*
G01*
G37*
G36*
G01*
X167287500Y-59300000D02*
X166087500Y-59300000D01*
G75*
G02*
X166037500Y-59250000I0J50000D01*
G01*
X166037500Y-58350000D01*
G75*
G02*
X166087500Y-58300000I50000J0D01*
G01*
X167287500Y-58300000D01*
G75*
G02*
X167337500Y-58350000I0J-50000D01*
G01*
X167337500Y-59250000D01*
G75*
G02*
X167287500Y-59300000I-50000J0D01*
G01*
G37*
G04 #@! TD*
G04 #@! TO.C,D7*
G36*
G01*
X148237500Y-56000000D02*
X147037500Y-56000000D01*
G75*
G02*
X146987500Y-55950000I0J50000D01*
G01*
X146987500Y-55050000D01*
G75*
G02*
X147037500Y-55000000I50000J0D01*
G01*
X148237500Y-55000000D01*
G75*
G02*
X148287500Y-55050000I0J-50000D01*
G01*
X148287500Y-55950000D01*
G75*
G02*
X148237500Y-56000000I-50000J0D01*
G01*
G37*
G36*
G01*
X148237500Y-59300000D02*
X147037500Y-59300000D01*
G75*
G02*
X146987500Y-59250000I0J50000D01*
G01*
X146987500Y-58350000D01*
G75*
G02*
X147037500Y-58300000I50000J0D01*
G01*
X148237500Y-58300000D01*
G75*
G02*
X148287500Y-58350000I0J-50000D01*
G01*
X148287500Y-59250000D01*
G75*
G02*
X148237500Y-59300000I-50000J0D01*
G01*
G37*
G04 #@! TD*
G04 #@! TO.C,D6*
G36*
G01*
X129187500Y-56000000D02*
X127987500Y-56000000D01*
G75*
G02*
X127937500Y-55950000I0J50000D01*
G01*
X127937500Y-55050000D01*
G75*
G02*
X127987500Y-55000000I50000J0D01*
G01*
X129187500Y-55000000D01*
G75*
G02*
X129237500Y-55050000I0J-50000D01*
G01*
X129237500Y-55950000D01*
G75*
G02*
X129187500Y-56000000I-50000J0D01*
G01*
G37*
G36*
G01*
X129187500Y-59300000D02*
X127987500Y-59300000D01*
G75*
G02*
X127937500Y-59250000I0J50000D01*
G01*
X127937500Y-58350000D01*
G75*
G02*
X127987500Y-58300000I50000J0D01*
G01*
X129187500Y-58300000D01*
G75*
G02*
X129237500Y-58350000I0J-50000D01*
G01*
X129237500Y-59250000D01*
G75*
G02*
X129187500Y-59300000I-50000J0D01*
G01*
G37*
G04 #@! TD*
G04 #@! TO.C,D5*
G36*
G01*
X110137500Y-56000000D02*
X108937500Y-56000000D01*
G75*
G02*
X108887500Y-55950000I0J50000D01*
G01*
X108887500Y-55050000D01*
G75*
G02*
X108937500Y-55000000I50000J0D01*
G01*
X110137500Y-55000000D01*
G75*
G02*
X110187500Y-55050000I0J-50000D01*
G01*
X110187500Y-55950000D01*
G75*
G02*
X110137500Y-56000000I-50000J0D01*
G01*
G37*
G36*
G01*
X110137500Y-59300000D02*
X108937500Y-59300000D01*
G75*
G02*
X108887500Y-59250000I0J50000D01*
G01*
X108887500Y-58350000D01*
G75*
G02*
X108937500Y-58300000I50000J0D01*
G01*
X110137500Y-58300000D01*
G75*
G02*
X110187500Y-58350000I0J-50000D01*
G01*
X110187500Y-59250000D01*
G75*
G02*
X110137500Y-59300000I-50000J0D01*
G01*
G37*
G04 #@! TD*
G04 #@! TO.C,D4*
G36*
G01*
X91087500Y-56000000D02*
X89887500Y-56000000D01*
G75*
G02*
X89837500Y-55950000I0J50000D01*
G01*
X89837500Y-55050000D01*
G75*
G02*
X89887500Y-55000000I50000J0D01*
G01*
X91087500Y-55000000D01*
G75*
G02*
X91137500Y-55050000I0J-50000D01*
G01*
X91137500Y-55950000D01*
G75*
G02*
X91087500Y-56000000I-50000J0D01*
G01*
G37*
G36*
G01*
X91087500Y-59300000D02*
X89887500Y-59300000D01*
G75*
G02*
X89837500Y-59250000I0J50000D01*
G01*
X89837500Y-58350000D01*
G75*
G02*
X89887500Y-58300000I50000J0D01*
G01*
X91087500Y-58300000D01*
G75*
G02*
X91137500Y-58350000I0J-50000D01*
G01*
X91137500Y-59250000D01*
G75*
G02*
X91087500Y-59300000I-50000J0D01*
G01*
G37*
G04 #@! TD*
G04 #@! TO.C,D3*
G36*
G01*
X72037500Y-56000000D02*
X70837500Y-56000000D01*
G75*
G02*
X70787500Y-55950000I0J50000D01*
G01*
X70787500Y-55050000D01*
G75*
G02*
X70837500Y-55000000I50000J0D01*
G01*
X72037500Y-55000000D01*
G75*
G02*
X72087500Y-55050000I0J-50000D01*
G01*
X72087500Y-55950000D01*
G75*
G02*
X72037500Y-56000000I-50000J0D01*
G01*
G37*
G36*
G01*
X72037500Y-59300000D02*
X70837500Y-59300000D01*
G75*
G02*
X70787500Y-59250000I0J50000D01*
G01*
X70787500Y-58350000D01*
G75*
G02*
X70837500Y-58300000I50000J0D01*
G01*
X72037500Y-58300000D01*
G75*
G02*
X72087500Y-58350000I0J-50000D01*
G01*
X72087500Y-59250000D01*
G75*
G02*
X72037500Y-59300000I-50000J0D01*
G01*
G37*
G04 #@! TD*
G04 #@! TO.C,D2*
G36*
G01*
X52987500Y-56000000D02*
X51787500Y-56000000D01*
G75*
G02*
X51737500Y-55950000I0J50000D01*
G01*
X51737500Y-55050000D01*
G75*
G02*
X51787500Y-55000000I50000J0D01*
G01*
X52987500Y-55000000D01*
G75*
G02*
X53037500Y-55050000I0J-50000D01*
G01*
X53037500Y-55950000D01*
G75*
G02*
X52987500Y-56000000I-50000J0D01*
G01*
G37*
G36*
G01*
X52987500Y-59300000D02*
X51787500Y-59300000D01*
G75*
G02*
X51737500Y-59250000I0J50000D01*
G01*
X51737500Y-58350000D01*
G75*
G02*
X51787500Y-58300000I50000J0D01*
G01*
X52987500Y-58300000D01*
G75*
G02*
X53037500Y-58350000I0J-50000D01*
G01*
X53037500Y-59250000D01*
G75*
G02*
X52987500Y-59300000I-50000J0D01*
G01*
G37*
G04 #@! TD*
G04 #@! TO.C,D1*
G36*
G01*
X33937500Y-56000000D02*
X32737500Y-56000000D01*
G75*
G02*
X32687500Y-55950000I0J50000D01*
G01*
X32687500Y-55050000D01*
G75*
G02*
X32737500Y-55000000I50000J0D01*
G01*
X33937500Y-55000000D01*
G75*
G02*
X33987500Y-55050000I0J-50000D01*
G01*
X33987500Y-55950000D01*
G75*
G02*
X33937500Y-56000000I-50000J0D01*
G01*
G37*
G36*
G01*
X33937500Y-59300000D02*
X32737500Y-59300000D01*
G75*
G02*
X32687500Y-59250000I0J50000D01*
G01*
X32687500Y-58350000D01*
G75*
G02*
X32737500Y-58300000I50000J0D01*
G01*
X33937500Y-58300000D01*
G75*
G02*
X33987500Y-58350000I0J-50000D01*
G01*
X33987500Y-59250000D01*
G75*
G02*
X33937500Y-59300000I-50000J0D01*
G01*
G37*
G04 #@! TD*
G04 #@! TO.C,C7*
G36*
G01*
X54260000Y-89730000D02*
X54260000Y-88730000D01*
G75*
G02*
X54535000Y-88455000I275000J0D01*
G01*
X55085000Y-88455000D01*
G75*
G02*
X55360000Y-88730000I0J-275000D01*
G01*
X55360000Y-89730000D01*
G75*
G02*
X55085000Y-90005000I-275000J0D01*
G01*
X54535000Y-90005000D01*
G75*
G02*
X54260000Y-89730000I0J275000D01*
G01*
G37*
G36*
G01*
X56160000Y-89730000D02*
X56160000Y-88730000D01*
G75*
G02*
X56435000Y-88455000I275000J0D01*
G01*
X56985000Y-88455000D01*
G75*
G02*
X57260000Y-88730000I0J-275000D01*
G01*
X57260000Y-89730000D01*
G75*
G02*
X56985000Y-90005000I-275000J0D01*
G01*
X56435000Y-90005000D01*
G75*
G02*
X56160000Y-89730000I0J275000D01*
G01*
G37*
G04 #@! TD*
G04 #@! TO.C,C6*
G36*
G01*
X54260000Y-82980000D02*
X54260000Y-81980000D01*
G75*
G02*
X54535000Y-81705000I275000J0D01*
G01*
X55085000Y-81705000D01*
G75*
G02*
X55360000Y-81980000I0J-275000D01*
G01*
X55360000Y-82980000D01*
G75*
G02*
X55085000Y-83255000I-275000J0D01*
G01*
X54535000Y-83255000D01*
G75*
G02*
X54260000Y-82980000I0J275000D01*
G01*
G37*
G36*
G01*
X56160000Y-82980000D02*
X56160000Y-81980000D01*
G75*
G02*
X56435000Y-81705000I275000J0D01*
G01*
X56985000Y-81705000D01*
G75*
G02*
X57260000Y-81980000I0J-275000D01*
G01*
X57260000Y-82980000D01*
G75*
G02*
X56985000Y-83255000I-275000J0D01*
G01*
X56435000Y-83255000D01*
G75*
G02*
X56160000Y-82980000I0J275000D01*
G01*
G37*
G04 #@! TD*
G04 #@! TO.C,C3*
G36*
G01*
X49630000Y-89450000D02*
X50630000Y-89450000D01*
G75*
G02*
X50905000Y-89725000I0J-275000D01*
G01*
X50905000Y-90275000D01*
G75*
G02*
X50630000Y-90550000I-275000J0D01*
G01*
X49630000Y-90550000D01*
G75*
G02*
X49355000Y-90275000I0J275000D01*
G01*
X49355000Y-89725000D01*
G75*
G02*
X49630000Y-89450000I275000J0D01*
G01*
G37*
G36*
G01*
X49630000Y-87550000D02*
X50630000Y-87550000D01*
G75*
G02*
X50905000Y-87825000I0J-275000D01*
G01*
X50905000Y-88375000D01*
G75*
G02*
X50630000Y-88650000I-275000J0D01*
G01*
X49630000Y-88650000D01*
G75*
G02*
X49355000Y-88375000I0J275000D01*
G01*
X49355000Y-87825000D01*
G75*
G02*
X49630000Y-87550000I275000J0D01*
G01*
G37*
G04 #@! TD*
G04 #@! TO.C,C2*
G36*
G01*
X46040000Y-80670000D02*
X46040000Y-79670000D01*
G75*
G02*
X46315000Y-79395000I275000J0D01*
G01*
X46865000Y-79395000D01*
G75*
G02*
X47140000Y-79670000I0J-275000D01*
G01*
X47140000Y-80670000D01*
G75*
G02*
X46865000Y-80945000I-275000J0D01*
G01*
X46315000Y-80945000D01*
G75*
G02*
X46040000Y-80670000I0J275000D01*
G01*
G37*
G36*
G01*
X44140000Y-80670000D02*
X44140000Y-79670000D01*
G75*
G02*
X44415000Y-79395000I275000J0D01*
G01*
X44965000Y-79395000D01*
G75*
G02*
X45240000Y-79670000I0J-275000D01*
G01*
X45240000Y-80670000D01*
G75*
G02*
X44965000Y-80945000I-275000J0D01*
G01*
X44415000Y-80945000D01*
G75*
G02*
X44140000Y-80670000I0J275000D01*
G01*
G37*
G04 #@! TD*
G04 #@! TO.C,C1*
G36*
G01*
X36700000Y-71000000D02*
X35700000Y-71000000D01*
G75*
G02*
X35425000Y-70725000I0J275000D01*
G01*
X35425000Y-70175000D01*
G75*
G02*
X35700000Y-69900000I275000J0D01*
G01*
X36700000Y-69900000D01*
G75*
G02*
X36975000Y-70175000I0J-275000D01*
G01*
X36975000Y-70725000D01*
G75*
G02*
X36700000Y-71000000I-275000J0D01*
G01*
G37*
G36*
G01*
X36700000Y-72900000D02*
X35700000Y-72900000D01*
G75*
G02*
X35425000Y-72625000I0J275000D01*
G01*
X35425000Y-72075000D01*
G75*
G02*
X35700000Y-71800000I275000J0D01*
G01*
X36700000Y-71800000D01*
G75*
G02*
X36975000Y-72075000I0J-275000D01*
G01*
X36975000Y-72625000D01*
G75*
G02*
X36700000Y-72900000I-275000J0D01*
G01*
G37*
G04 #@! TD*
M02*
