M48
; DRILL file {KiCad 5.1.10} date Tue Jun 29 01:20:20 2021
; FORMAT={-:-/ absolute / inch / decimal}
; #@! TF.CreationDate,2021-06-29T01:20:20+09:00
; #@! TF.GenerationSoftware,Kicad,Pcbnew,5.1.10
; #@! TF.FileFunction,Plated,1,2,PTH
FMAT,2
INCH
T1C0.0157
T2C0.0394
T3C0.0579
%
G90
G05
T1
X1.0402Y-3.2372
X1.0841Y-3.3844
X1.1571Y-3.2677
X1.1657Y-3.1941
X1.18Y-3.9223
X1.3292Y-3.3214
X1.3514Y-3.2372
X1.4449Y-3.1378
X1.4795Y-3.0937
X1.5953Y-3.1531
X1.6472Y-2.8213
X1.6614Y-3.6744
X1.6811Y-3.0984
X1.7689Y-3.0941
X1.9228Y-3.1534
X1.9508Y-3.4232
X1.9933Y-3.7811
X2.0043Y-3.3854
X2.052Y-3.0702
X2.0591Y-3.1551
X2.1249Y-3.9223
T2
X0.8439Y-3.3335
X0.8439Y-3.4335
X0.8439Y-3.5335
X0.9439Y-3.3335
X0.9439Y-3.4335
X0.9439Y-3.5335
T3
X0.85Y-2.15
X0.9437Y-2.9
X0.9437Y-4.4
X1.1Y-2.05
X1.1312Y-3.65
X1.1937Y-2.8
X1.1937Y-4.3
X1.3812Y-3.55
X1.6Y-2.15
X1.7875Y-2.9
X1.85Y-2.05
X1.975Y-4.4
X2.0375Y-2.8
X2.1625Y-3.65
X2.225Y-4.3
X2.35Y-2.15
X2.4125Y-3.55
X2.5375Y-2.9
X2.6Y-2.05
X2.7875Y-2.8
X2.9125Y-3.65
X3.0063Y-4.4
X3.1Y-2.15
X3.1625Y-3.55
X3.2563Y-4.3
X3.2875Y-2.9
X3.35Y-2.05
X3.5375Y-2.8
X3.6625Y-3.65
X3.85Y-2.15
X3.9125Y-3.55
X4.0375Y-2.9
X4.1Y-2.05
X4.2875Y-2.8
X4.3187Y-4.4
X4.4125Y-3.65
X4.5687Y-4.3
X4.6Y-2.15
X4.6625Y-3.55
X4.7875Y-2.9
X4.85Y-2.05
X5.0375Y-2.8
X5.1625Y-3.65
X5.35Y-2.15
X5.4125Y-3.55
X5.5375Y-2.9
X5.6Y-2.05
X5.7875Y-2.8
X5.9125Y-3.65
X6.1Y-2.15
X6.1625Y-3.55
X6.1937Y-4.4
X6.2875Y-2.9
X6.35Y-2.05
X6.4437Y-4.3
X6.5375Y-2.8
X6.6625Y-3.65
X6.85Y-2.15
X6.9125Y-3.55
X7.0375Y-2.9
X7.1Y-2.05
X7.2875Y-2.8
X7.4125Y-3.65
X7.6Y-2.15
X7.6625Y-3.55
X7.6937Y-4.4
X7.7875Y-2.9
X7.85Y-2.05
X7.9437Y-4.3
X8.0375Y-2.8
X8.1625Y-3.65
X8.35Y-2.15
X8.4125Y-3.55
X8.5375Y-2.9
X8.6Y-2.05
X8.725Y-4.4
X8.7875Y-2.8
X8.9125Y-3.65
X8.975Y-4.3
X9.1Y-2.15
X9.1625Y-3.55
X9.2875Y-2.9
X9.35Y-2.05
X9.5375Y-2.8
X9.7562Y-3.65
X9.7562Y-4.4
X9.85Y-2.15
X10.0062Y-3.55
X10.0062Y-4.3
X10.1Y-2.05
X10.3187Y-2.9
X10.5687Y-2.8
X10.6Y-2.15
X10.6Y-3.65
X10.6Y-4.4
X10.85Y-2.05
X10.85Y-3.55
X10.85Y-4.3
T0
M30
