M48
; DRILL file {KiCad 5.1.10} date Fri Jul  9 15:37:12 2021
; FORMAT={-:-/ absolute / inch / decimal}
; #@! TF.CreationDate,2021-07-09T15:37:12+09:00
; #@! TF.GenerationSoftware,Kicad,Pcbnew,5.1.10
; #@! TF.FileFunction,NonPlated,1,2,NPTH
FMAT,2
INCH
T1C0.0689
T2C0.1200
T3C0.1570
%
G90
G05
T1
X0.8Y-2.25
X0.8937Y-3.0
X0.8937Y-4.5
X1.0813Y-3.75
X1.2Y-2.25
X1.2937Y-3.0
X1.2937Y-4.5
X1.4812Y-3.75
X1.55Y-2.25
X1.7375Y-3.0
X1.925Y-4.5
X1.95Y-2.25
X2.1125Y-3.75
X2.1375Y-3.0
X2.3Y-2.25
X2.325Y-4.5
X2.4875Y-3.0
X2.5125Y-3.75
X2.7Y-2.25
X2.8625Y-3.75
X2.8875Y-3.0
X2.9562Y-4.5
X3.05Y-2.25
X3.2375Y-3.0
X3.2625Y-3.75
X3.3562Y-4.5
X3.45Y-2.25
X3.6125Y-3.75
X3.6375Y-3.0
X3.8Y-2.25
X3.9875Y-3.0
X4.0125Y-3.75
X4.2Y-2.25
X4.2687Y-4.5
X4.3625Y-3.75
X4.3875Y-3.0
X4.55Y-2.25
X4.6688Y-4.5
X4.7375Y-3.0
X4.7625Y-3.75
X4.95Y-2.25
X5.1125Y-3.75
X5.1375Y-3.0
X5.3Y-2.25
X5.4875Y-3.0
X5.5125Y-3.75
X5.7Y-2.25
X5.8625Y-3.75
X5.8875Y-3.0
X6.05Y-2.25
X6.1437Y-4.5
X6.2375Y-3.0
X6.2625Y-3.75
X6.45Y-2.25
X6.5438Y-4.5
X6.6125Y-3.75
X6.6375Y-3.0
X6.8Y-2.25
X6.9875Y-3.0
X7.0125Y-3.75
X7.2Y-2.25
X7.3625Y-3.75
X7.3875Y-3.0
X7.55Y-2.25
X7.6437Y-4.5
X7.7375Y-3.0
X7.7625Y-3.75
X7.95Y-2.25
X8.0437Y-4.5
X8.1125Y-3.75
X8.1375Y-3.0
X8.3Y-2.25
X8.4875Y-3.0
X8.5125Y-3.75
X8.675Y-4.5
X8.7Y-2.25
X8.8625Y-3.75
X8.8875Y-3.0
X9.05Y-2.25
X9.075Y-4.5
X9.2375Y-3.0
X9.2625Y-3.75
X9.45Y-2.25
X9.6375Y-3.0
X9.7062Y-3.75
X9.7062Y-4.5
X9.8Y-2.25
X10.1062Y-3.75
X10.1062Y-4.5
X10.2Y-2.25
X10.2687Y-3.0
X10.55Y-2.25
X10.55Y-3.75
X10.55Y-4.5
X10.6687Y-3.0
X10.95Y-2.25
X10.95Y-3.75
X10.95Y-4.5
T2
X4.0Y-4.775
X4.9375Y-4.775
X5.875Y-4.775
X6.8125Y-4.775
T3
X1.0Y-2.25
X1.0938Y-3.0
X1.0938Y-4.5
X1.2812Y-3.75
X1.75Y-2.25
X1.9375Y-3.0
X2.125Y-4.5
X2.3125Y-3.75
X2.5Y-2.25
X2.6875Y-3.0
X3.0625Y-3.75
X3.1562Y-4.5
X3.25Y-2.25
X3.4375Y-3.0
X3.8125Y-3.75
X4.0Y-2.25
X4.0Y-4.175
X4.1875Y-3.0
X4.4688Y-4.5
X4.5625Y-3.75
X4.75Y-2.25
X4.9375Y-3.0
X4.9375Y-4.175
X5.3125Y-3.75
X5.5Y-2.25
X5.6875Y-3.0
X5.875Y-4.175
X6.0625Y-3.75
X6.25Y-2.25
X6.3438Y-4.5
X6.4375Y-3.0
X6.8125Y-3.75
X6.8125Y-4.175
X7.0Y-2.25
X7.1875Y-3.0
X7.5625Y-3.75
X7.75Y-2.25
X7.8438Y-4.5
X7.9375Y-3.0
X8.3125Y-3.75
X8.5Y-2.25
X8.6875Y-3.0
X8.875Y-4.5
X9.0625Y-3.75
X9.25Y-2.25
X9.4375Y-3.0
X9.9062Y-3.75
X9.9062Y-4.5
X10.0Y-2.25
X10.4688Y-3.0
X10.75Y-2.25
X10.75Y-3.75
X10.75Y-4.5
T0
M30
